<?xml version="1.0" standalone="no"?>
<!DOCTYPE svg PUBLIC "-//W3C//DTD SVG 1.1//EN" "http://www.w3.org/Graphics/SVG/1.1/DTD/svg11.dtd" >
<svg xmlns="http://www.w3.org/2000/svg">
<metadata>Generated by IcoMoon</metadata>
<defs>
<font id="icomoon" horiz-adv-x="1024">
<font-face units-per-em="1024" ascent="960" descent="-64" />
<missing-glyph horiz-adv-x="1024" />
<glyph unicode="&#x20;" horiz-adv-x="512" d="" />
<glyph unicode="&#xe900;" glyph-name="1" d="M509.938 484.836c12.642 1.129 24.3 3.8 35.295 7.843l-0.949-0.305c12.373 5.262 18.56 13.369 18.56 24.462 0.098 0.893 0.154 1.929 0.154 2.978 0 10.606-5.719 19.876-14.241 24.895l-0.135 0.074c-10.788 4.941-23.402 7.822-36.689 7.822-1.778 0-3.543-0.052-5.295-0.153l0.242 0.011q-30.933 0-43.804-15.076c-6.408-8.411-10.78-18.701-12.199-29.912l-0.032-0.31h-82.987c0.692 26.823 9.685 51.417 24.491 71.454l-0.242-0.343q34.56 43.236 117.618 43.307c1.246 0.027 2.715 0.042 4.187 0.042 33.58 0 65.316-7.893 93.455-21.924l-1.216 0.549q42.098-21.333 42.169-80.924v-151.040c0-10.453 0-23.111 0.569-38.044-0.004-0.226-0.006-0.492-0.006-0.759 0-8.082 1.974-15.704 5.467-22.408l-0.127 0.269c3.246-4.365 7.546-7.774 12.531-9.881l0.198-0.074v-12.942h-93.796c-2.252 5.334-4.148 11.604-5.382 18.109l-0.094 0.594c-0.996 5.902-1.778 12.516-2.418 19.982-11.854-12.755-25.429-23.681-40.41-32.472l-0.835-0.453c-17.608-10.075-38.702-16.017-61.184-16.017-0.715 0-1.429 0.006-2.141 0.018l0.107-0.001c-1.2-0.047-2.609-0.074-4.024-0.074-26.821 0-51.381 9.68-70.377 25.736l0.161-0.133q-29.227 25.458-29.298 72.249 0 60.658 47.147 87.893c17.28 9.813 42.667 16.924 76.018 21.333zM562.56 444.658c-4.787-3.061-10.295-5.838-16.086-8.040l-0.625-0.209c-6.51-2.396-14.261-4.448-22.252-5.793l-0.788-0.11-19.627-3.84c-14.715-1.951-28.053-6.1-40.291-12.14l0.753 0.336c-12.243-6.787-20.394-19.634-20.394-34.384 0-0.737 0.020-1.47 0.061-2.197l-0.004 0.101q0-22.044 12.444-31.858c7.871-6.133 17.901-9.833 28.794-9.833 0.477 0 0.953 0.007 1.427 0.021l-0.069-0.002c0.121-0.001 0.263-0.001 0.406-0.001 19.316 0 37.208 6.098 51.856 16.473l-0.28-0.188c15.858 11.093 23.893 31.004 24.676 59.449z" />
<glyph unicode="&#xe901;" glyph-name="2" d="M444.516 607.076c23.575-10.83 42.878-27.506 56.579-48.213l0.31-0.498c13.181-19.192 22.453-42.089 26.132-66.812l0.108-0.885c1.962-15.352 3.082-33.114 3.082-51.137 0-4.998-0.086-9.977-0.257-14.933l0.020 0.719h-239.716q1.991-49.778 34.418-69.404c12.817-7.796 28.315-12.41 44.891-12.41 0.893 0 1.783 0.013 2.67 0.040l-0.13-0.003c1.586-0.134 3.432-0.211 5.296-0.211 26.395 0 49.209 15.331 60.023 37.575l0.174 0.396h88.107q-3.413-29.369-31.858-59.52-44.302-48-123.804-48c-0.701-0.010-1.529-0.016-2.358-0.016-43.237 0-82.898 15.306-113.862 40.796l0.309-0.247q-50.276 40.462-50.204 131.698 0 85.333 45.298 131.129t117.689 45.653c0.561 0.006 1.223 0.009 1.887 0.009 27.203 0 53.055-5.788 76.39-16.2l-1.192 0.475zM315.804 532.764c-12.437-13.604-20.754-31.165-22.863-50.589l-0.035-0.398h147.982c-1.564 22.898-9.173 40.178-22.898 52.053-13.034 11.035-30.037 17.744-48.608 17.744-0.837 0-1.67-0.014-2.5-0.041l0.121 0.003c-1.196 0.075-2.594 0.117-4.001 0.117-18.314 0-34.947-7.196-47.225-18.916l0.027 0.025zM663.111 484.836c12.642 1.129 24.3 3.8 35.295 7.843l-0.949-0.305c12.373 5.262 18.56 13.369 18.56 24.462 0.093 0.87 0.145 1.879 0.145 2.901 0 10.626-5.712 19.918-14.234 24.972l-0.134 0.074c-10.82 4.94-23.468 7.82-36.79 7.82-1.767 0-3.523-0.051-5.265-0.151l0.241 0.011q-30.933 0-43.733-15.076c-6.438-8.399-10.816-18.696-12.201-29.921l-0.030-0.302h-83.058c0.726 26.819 9.713 51.405 24.493 71.458l-0.244-0.347q34.204 43.449 117.689 43.449c1.223 0.026 2.664 0.040 4.108 0.040 33.606 0 65.37-7.892 93.538-21.923l-1.219 0.55q42.169-21.333 42.098-80.924v-151.182c0-10.453 0-23.111 0.64-38.044-0.016-0.462-0.026-1.004-0.026-1.549 0-7.794 1.903-15.143 5.269-21.609l-0.123 0.26c3.221-4.364 7.498-7.774 12.462-9.882l0.196-0.074v-12.942h-93.582c-2.234 5.337-4.107 11.611-5.314 18.118l-0.090 0.584c-1.024 5.541-1.882 12.394-2.381 19.347l-0.037 0.635c-11.876-12.753-25.475-23.68-40.477-32.47l-0.839-0.454c-17.602-10.075-38.689-16.016-61.164-16.016-0.697 0-1.393 0.006-2.087 0.017l0.105-0.001c-1.15-0.044-2.5-0.068-3.856-0.068-26.909 0-51.537 9.762-70.537 25.938l0.154-0.128q-29.298 25.458-29.298 72.249 0 60.658 47.147 87.893c17.209 9.813 42.667 16.924 76.018 21.333zM715.662 444.658c-4.768-3.062-10.252-5.838-16.020-8.041l-0.62-0.208c-6.528-2.395-14.304-4.446-22.319-5.792l-0.792-0.11-19.556-3.84c-14.739-1.941-28.102-6.092-40.362-12.14l0.753 0.336c-12.205-6.816-20.323-19.653-20.323-34.387 0-0.736 0.020-1.468 0.060-2.194l-0.004 0.101q0-22.044 12.373-31.858c7.896-6.133 17.95-9.833 28.867-9.833 0.477 0 0.952 0.007 1.425 0.021l-0.069-0.002c0.12-0.001 0.261-0.001 0.403-0.001 19.294 0 37.163 6.098 51.786 16.472l-0.278-0.187q23.822 16.356 24.676 59.449z" />
<glyph unicode="&#xe902;" glyph-name="3" d="M547.556 554.667c15.597-8.896 28.312-21.201 37.432-35.963l0.257-0.446v157.298h87.040v-444.373h-83.627v45.369c-10.384-17.637-24.537-32.017-41.428-42.366l-0.528-0.301c-15.902-8.503-34.783-13.498-54.831-13.498-1.299 0-2.593 0.021-3.882 0.063l0.188-0.005c-0.237-0.002-0.517-0.003-0.797-0.003-38.965 0-73.674 18.22-96.073 46.606l-0.197 0.259q-39.467 46.578-39.396 119.68 0 84.267 38.756 132.551c23.318 29.559 59.137 48.361 99.347 48.361 1.549 0 3.091-0.028 4.627-0.083l-0.222 0.006c0.627 0.013 1.366 0.021 2.106 0.021 18.795 0 36.45-4.884 51.764-13.452l-0.537 0.276zM568.889 320c11.978 18.386 19.102 40.888 19.102 65.053 0 1.856-0.042 3.701-0.125 5.536l0.009-0.261q0 60.373-30.436 86.4c-11.406 9.731-26.32 15.651-42.617 15.651-0.317 0-0.634-0.002-0.951-0.007l0.048 0.001c-25.173 0-43.591-9.458-55.396-28.444-11.145-18.98-17.728-41.804-17.728-66.166 0-1.739 0.034-3.471 0.1-5.193l-0.008 0.248q0-45.653 17.92-72.96c11.047-16.616 29.689-27.418 50.855-27.418 1.297 0 2.585 0.041 3.862 0.121l-0.175-0.009c0.758-0.032 1.647-0.050 2.54-0.050 21.69 0 40.859 10.79 52.435 27.294l0.136 0.205z" />
<glyph unicode="&#xe903;" glyph-name="4" d="M419.556 506.169v61.298h45.867v91.804h85.333v-91.804h53.689v-61.298h-53.618v-173.867q0-20.267 5.12-25.173c3.413-3.342 13.867-4.978 31.36-4.978h8.32c2.916 0 5.76 0 8.604 0.427v-64l-40.747-1.493q-61.013-2.133-83.342 21.333-14.222 14.72-14.222 45.582v202.169z" />
<glyph unicode="&#xe904;" glyph-name="5" d="M576 496.142c-1.599 12.54-6.023 23.804-12.614 33.473l0.17-0.264q-14.222 19.982-45.084 19.911-43.52 0-59.591-43.164c-5.436-16.292-8.573-35.049-8.573-54.539 0-2.202 0.040-4.394 0.119-6.577l-0.009 0.316c-0.067-1.747-0.105-3.798-0.105-5.858 0-18.695 3.137-36.657 8.912-53.39l-0.345 1.15q15.36-41.102 58.098-41.102c20.196 0 34.489 5.476 42.667 16.284 8.759 11.863 14.389 26.519 15.419 42.428l0.012 0.239h87.893c-2.529-28.251-12.824-53.695-28.707-74.673l0.263 0.362q-40.462-56.391-119.964-56.391t-116.907 46.72q-37.547 47.004-37.476 122.098 0 84.693 41.387 131.769t114.204 47.076q62.009 0 101.404-27.733t46.649-98.133z" />
<glyph unicode="&#xe905;" glyph-name="6" d="M589.156 607.076c23.575-10.83 42.878-27.506 56.579-48.213l0.31-0.498c13.21-19.183 22.488-42.086 26.134-66.823l0.106-0.875c1.962-15.352 3.082-33.114 3.082-51.137 0-4.998-0.086-9.977-0.257-14.933l0.020 0.719h-239.716q2.062-49.778 34.418-69.404c12.817-7.796 28.315-12.41 44.891-12.41 0.893 0 1.783 0.013 2.67 0.040l-0.13-0.003c1.729-0.159 3.738-0.25 5.769-0.25 26.299 0 49.044 15.22 59.905 37.333l0.174 0.392h87.467q-3.413-29.369-31.858-59.52-44.231-48-123.804-48c-0.701-0.010-1.529-0.016-2.358-0.016-43.237 0-82.898 15.306-113.862 40.796l0.309-0.247q-50.56 40.391-50.204 131.698 0 85.333 45.298 131.129t117.902 45.653c0.771 0.011 1.681 0.018 2.592 0.018 26.96 0 52.593-5.685 75.764-15.922l-1.2 0.473zM460.444 532.764c-12.437-13.604-20.754-31.165-22.863-50.589l-0.035-0.398h148.267c-0.185 20.557-8.97 39.026-22.925 52.013l-0.044 0.040c-13.033 11.033-30.035 17.74-48.603 17.74-0.788 0-1.574-0.012-2.356-0.036l0.115 0.003c-1.296 0.088-2.81 0.138-4.336 0.138-18.324 0-34.966-7.205-47.246-18.936l0.026 0.025z" />
<glyph unicode="&#xe906;" glyph-name="7" d="M555.022 225.493h-85.689v445.013h86.044z" />
<glyph unicode="&#xe907;" glyph-name="8" d="M688 607.716c15.457-6.689 28.348-16.773 38.168-29.368l0.161-0.214c9.264-11.786 15.857-26.102 18.619-41.74l0.084-0.571c1.992-12.662 3.13-27.264 3.13-42.132 0-2.263-0.026-4.521-0.079-6.771l0.006 0.334-0.64-207.431h-88.107v209.564c0.025 0.695 0.039 1.511 0.039 2.33 0 10.309-2.241 20.094-6.261 28.896l0.178-0.435q-11.52 22.969-42.667 22.898c-23.751 0-40.107-9.813-49.209-29.582-4.51-10.548-7.132-22.821-7.132-35.706 0-0.697 0.008-1.393 0.023-2.086l-0.002 0.103v-195.982h-86.116v195.982c0.113 1.869 0.177 4.055 0.177 6.255 0 13.044-2.253 25.562-6.391 37.186l0.241-0.775q-10.88 23.893-42.667 23.893-36.764 0-49.778-23.893c-4.573-10.546-7.233-22.828-7.233-35.732 0-1.664 0.044-3.318 0.132-4.96l-0.010 0.229v-198.187h-86.756v328.462h83.627v-48c8.19 14.193 18.252 26.27 30.038 36.397l0.184 0.154c16.73 12.153 37.678 19.441 60.329 19.441 1.591 0 3.174-0.036 4.748-0.107l-0.224 0.008c1.445 0.073 3.138 0.114 4.841 0.114 20.901 0 40.342-6.253 56.553-16.991l-0.381 0.237c12.47-10.422 22.197-23.714 28.215-38.881l0.23-0.657c9.94 17.961 24.203 32.453 41.427 42.385l0.529 0.281c16.756 8.57 36.551 13.593 57.52 13.593 0.578 0 1.156-0.004 1.732-0.011l-0.087 0.001c15.455-0.088 30.156-3.216 43.568-8.814l-0.759 0.281z" />
<glyph unicode="&#xe908;" glyph-name="9" d="M314.098 554.667c15.605-8.916 28.337-21.216 37.502-35.964l0.258-0.445v157.298h87.253v-444.373h-83.556v45.369c-10.406-17.621-24.554-31.996-41.428-42.365l-0.528-0.302c-15.925-8.505-34.832-13.5-54.905-13.5-1.323 0-2.641 0.022-3.953 0.065l0.191-0.005c-0.216-0.001-0.472-0.002-0.728-0.002-38.986 0-73.716 18.219-96.142 46.606l-0.197 0.258q-39.324 46.578-39.396 119.68 0 84.267 38.827 132.551c23.318 29.558 59.136 48.359 99.345 48.359 1.525 0 3.043-0.027 4.555-0.081l-0.219 0.006c0.565 0.011 1.232 0.017 1.9 0.017 18.793 0 36.445-4.883 51.757-13.449l-0.537 0.276zM335.431 320c11.978 18.386 19.102 40.888 19.102 65.053 0 1.856-0.042 3.701-0.125 5.536l0.009-0.261q0 60.373-30.507 86.4c-11.36 9.73-26.232 15.652-42.487 15.652-0.338 0-0.676-0.003-1.013-0.008l0.051 0.001c-25.173 0-43.662-9.458-55.396-28.444-11.19-18.954-17.801-41.765-17.801-66.12 0-1.755 0.034-3.502 0.102-5.241l-0.008 0.25q0-45.653 17.991-72.96c11.015-16.614 29.635-27.419 50.778-27.419 1.299 0 2.589 0.041 3.868 0.121l-0.175-0.009c0.861-0.041 1.871-0.065 2.886-0.065 21.696 0 40.87 10.796 52.445 27.308l0.136 0.205zM845.44 558.791c15.47-6.662 28.367-16.752 38.167-29.366l0.161-0.216c9.278-11.756 15.873-26.052 18.62-41.674l0.082-0.566c1.984-12.839 3.117-27.649 3.117-42.723 0-2.081-0.022-4.156-0.065-6.226l0.005 0.309-0.64-207.36h-88.107v209.493c0.026 0.707 0.041 1.538 0.041 2.372 0 10.295-2.241 20.066-6.263 28.852l0.178-0.433q-11.52 22.969-42.667 22.969c-23.751 0-40.107-9.884-49.209-29.653-4.51-10.548-7.132-22.821-7.132-35.706 0-0.697 0.008-1.393 0.023-2.086l-0.002 0.103v-195.911h-85.973v195.698c0.116 1.887 0.183 4.093 0.183 6.314 0 13.030-2.282 25.527-6.467 37.114l0.24-0.761q-10.88 23.893-42.667 23.893-36.907 0-49.778-23.893c-4.571-10.544-7.23-22.823-7.23-35.724 0-1.642 0.043-3.273 0.128-4.894l-0.009 0.227v-198.044h-86.827v328.533h83.627v-48c8.214 14.014 18.244 25.947 29.96 35.965l0.191 0.159c16.753 12.153 37.724 19.441 60.397 19.441 1.592 0 3.176-0.036 4.751-0.107l-0.224 0.008c1.445 0.073 3.138 0.114 4.841 0.114 20.901 0 40.342-6.253 56.553-16.991l-0.381 0.237c12.485-10.41 22.215-23.706 28.216-38.883l0.228-0.655c9.918 17.977 24.187 32.474 41.427 42.386l0.529 0.28c16.719 8.571 36.475 13.594 57.405 13.594 0.619 0 1.236-0.004 1.853-0.013l-0.093 0.001c0.073 0 0.16 0 0.247 0 15.33 0 29.959-3.004 43.329-8.455l-0.767 0.277z" />
<glyph unicode="&#xe909;" glyph-name="10" d="M536.178 676.196c22.082-9.772 39.664-26.367 50.431-47.072l0.271-0.572v47.004h83.911v-311.751q0-64-21.333-96-36.907-55.538-141.298-55.609-63.147 0-102.969 24.818c-25.453 15.555-42.555 42.602-44.081 73.743l-0.008 0.212h93.511c1.547-8.659 5.775-16.14 11.781-21.739l0.023-0.021c9.244-7.822 24.818-11.804 46.791-11.804q46.507 0 62.222 31.147c7.111 13.227 10.24 35.556 10.24 66.987v21.333c-6.905-12.478-15.805-22.989-26.39-31.485l-0.205-0.159c-17.178-12.343-38.634-19.739-61.817-19.739-1.718 0-3.427 0.041-5.126 0.121l0.24-0.009q-63.36 0-101.262 44.516t-37.902 120.889q0 73.387 36.48 123.307t103.396 49.778c0.499 0.008 1.089 0.013 1.679 0.013 14.912 0 29.147-2.903 42.168-8.176l-0.754 0.27zM565.547 440.32q20.693 22.684 20.693 72.604 0 46.72-19.698 71.111c-11.823 14.98-29.98 24.507-50.362 24.507-0.845 0-1.686-0.016-2.523-0.049l0.12 0.004q-45.013 0-62.222-42.667c-5.712-15.359-9.018-33.104-9.018-51.62 0-1.478 0.021-2.95 0.063-4.418l-0.005 0.216c-0.014-0.705-0.022-1.536-0.022-2.369 0-17.561 3.536-34.296 9.936-49.532l-0.314 0.843c8.884-24.542 31.989-41.763 59.115-41.763 1.193 0 2.378 0.033 3.555 0.099l-0.163-0.007c0.201-0.002 0.438-0.003 0.676-0.003 20.024 0 37.969 8.899 50.097 22.958l0.072 0.085z" />
<glyph unicode="&#xe90a;" glyph-name="11" d="M631.467 638.364q40.178-42.667 40.249-125.013 0-86.898-39.396-132.551c-23.636-27.979-58.743-45.626-97.972-45.626-1.182 0-2.36 0.016-3.534 0.048l0.173-0.004c-1.156-0.045-2.514-0.070-3.877-0.070-23.158 0-44.592 7.38-62.079 19.916l0.321-0.219c-10.926 8.971-20.195 19.44-27.632 31.184l-0.315 0.532v-171.449h-85.333v458.524h82.631v-48.569c8.264 13.075 18.146 24.225 29.553 33.585l0.242 0.193c18.119 13.784 41.064 22.083 65.946 22.083 1.016 0 2.029-0.014 3.038-0.041l-0.149 0.003c0.545 0.008 1.189 0.013 1.833 0.013 38.104 0 72.387-16.359 96.209-42.437l0.091-0.101zM565.404 576.427q-17.493 29.298-56.889 29.298c-1.049 0.061-2.277 0.095-3.512 0.095-28.487 0-52.67-18.428-61.279-44.013l-0.133-0.456c-5.861-16.296-9.25-35.099-9.25-54.694 0-1.772 0.028-3.538 0.083-5.296l-0.006 0.257q0-57.387 30.791-80.64c11.519-8.498 25.995-13.601 41.664-13.601 0.578 0 1.154 0.007 1.728 0.021l-0.085-0.002c0.923-0.048 2.003-0.076 3.090-0.076 21.697 0 40.832 10.967 52.164 27.66l0.141 0.22q19.2 27.733 19.2 73.956c0.011 0.633 0.018 1.381 0.018 2.129 0 24.018-6.586 46.497-18.050 65.731l0.325-0.59z" />
<glyph unicode="&#xe90b;" glyph-name="12" d="M418.702 555.307c-1.599 12.54-6.023 23.804-12.614 33.473l0.17-0.264q-14.222 19.982-45.084 19.911-43.52 0-59.591-43.164c-5.436-16.292-8.573-35.049-8.573-54.539 0-2.202 0.040-4.394 0.119-6.577l-0.009 0.316c-0.067-1.747-0.105-3.798-0.105-5.858 0-18.695 3.137-36.657 8.912-53.39l-0.345 1.15q15.502-41.031 58.098-41.031 30.293 0 42.667 16.356c8.71 11.738 14.333 26.24 15.417 41.99l0.014 0.25h88.178c-2.515-28.229-12.812-53.653-28.705-74.598l0.26 0.358q-40.462-56.889-119.964-56.462t-116.907 47.004q-37.547 47.004-37.476 122.098 0 84.693 41.387 131.769t114.204 47.147q61.938 0 101.404-27.804t46.649-98.133zM780.587 638.009q40.32-42.667 40.249-124.942 0-86.969-39.324-132.551c-23.636-27.979-58.743-45.626-97.972-45.626-1.182 0-2.36 0.016-3.534 0.048l0.173-0.004c-1.156-0.045-2.514-0.070-3.877-0.070-23.158 0-44.592 7.38-62.079 19.916l0.321-0.219c-10.965 8.936-20.241 19.411-27.637 31.187l-0.31 0.528v-171.52h-85.333v458.596h82.631v-48.569c8.241 13.089 18.127 24.242 29.551 33.584l0.244 0.194c18.12 13.786 41.067 22.086 65.951 22.086 1.064 0 2.125-0.015 3.182-0.045l-0.155 0.004c0.482 0.006 1.051 0.010 1.621 0.010 38.117 0 72.406-16.388 96.207-42.502l0.093-0.103zM714.596 576q-17.564 29.298-56.889 29.298c-1.040 0.060-2.257 0.094-3.481 0.094-28.513 0-52.723-18.421-61.38-44.010l-0.134-0.457c-5.821-16.258-9.185-35.014-9.185-54.555 0-1.846 0.030-3.685 0.090-5.516l-0.007 0.267q0-57.244 30.72-80.569c11.512-8.499 25.982-13.604 41.644-13.604 0.61 0 1.218 0.008 1.824 0.023l-0.090-0.002c0.916-0.048 1.989-0.075 3.068-0.075 21.666 0 40.778 10.936 52.116 27.589l0.141 0.219q19.413 27.947 19.413 74.098c0.008 0.537 0.013 1.171 0.013 1.806 0 24.119-6.638 46.688-18.186 65.979l0.325-0.585z" />
<glyph unicode="&#xe90c;" glyph-name="13" d="M425.884 496.142c-1.573 12.534-5.974 23.8-12.544 33.475l0.17-0.266c-9.671 13.298-24.747 19.911-45.084 19.911q-43.662 0-59.662-43.164c-5.43-16.372-8.563-35.219-8.563-54.798 0-2.111 0.036-4.213 0.109-6.306l-0.008 0.304c-0.060-1.669-0.095-3.629-0.095-5.597 0-18.784 3.133-36.837 8.904-53.663l-0.347 1.163q15.431-41.102 58.098-41.102c20.196 0 34.56 5.476 42.667 16.284 8.727 11.876 14.352 26.523 15.418 42.419l0.013 0.248h88.178c-2.484-28.257-12.786-53.711-28.703-74.667l0.259 0.356q-40.533-56.391-119.964-56.391t-116.907 46.72q-37.404 47.004-37.476 122.098 0 84.693 41.387 131.769t114.276 47.076q61.867 0 101.333-27.733t46.72-98.133zM656.853 485.262c12.679 1.162 24.359 3.831 35.391 7.848l-0.973-0.31q18.56 7.893 18.56 24.462c0.098 0.893 0.154 1.929 0.154 2.978 0 10.606-5.719 19.876-14.241 24.895l-0.135 0.074c-10.788 4.941-23.402 7.822-36.689 7.822-1.778 0-3.543-0.052-5.295-0.153l0.242 0.011q-30.933 0-43.733-15.076c-6.45-8.394-10.83-18.694-12.201-29.924l-0.030-0.298h-83.129c0.716 26.82 9.705 51.408 24.492 71.457l-0.244-0.346q34.276 43.52 117.618 43.449c1.246 0.027 2.715 0.042 4.187 0.042 33.58 0 65.316-7.893 93.455-21.924l-1.216 0.549q42.098-21.333 42.169-80.924v-151.111c0-10.524 0-23.182 0.569-38.044-0.010-0.37-0.016-0.806-0.016-1.242 0-7.928 1.925-15.407 5.333-21.994l-0.126 0.267c3.24-4.344 7.512-7.748 12.46-9.88l0.198-0.076v-12.658h-93.582c-2.223 5.317-4.118 11.585-5.375 18.081l-0.1 0.622c-0.996 5.831-1.778 12.444-2.418 19.911-11.857-12.75-25.432-23.676-40.409-32.471l-0.836-0.454c-17.602-10.075-38.689-16.016-61.164-16.016-0.697 0-1.393 0.006-2.087 0.017l0.105-0.001c-1.283-0.054-2.789-0.085-4.302-0.085-26.802 0-51.341 9.685-70.31 25.745l0.159-0.131q-29.298 25.458-29.369 72.32 0 60.658 47.147 87.822 25.884 14.791 76.089 21.333zM709.476 445.156c-4.758-3.044-10.238-5.84-15.99-8.096l-0.65-0.224c-6.478-2.338-14.251-4.387-22.249-5.778l-0.862-0.124-19.627-3.627c-14.71-1.931-28.050-6.057-40.296-12.070l0.758 0.336c-12.247-6.859-20.389-19.753-20.389-34.549 0-0.704 0.018-1.404 0.055-2.099l-0.004 0.097c-0.101-1.042-0.158-2.253-0.158-3.477 0-11.243 4.849-21.353 12.571-28.352l0.032-0.029c7.88-6.134 17.918-9.834 28.82-9.834 0.493 0 0.984 0.008 1.474 0.023l-0.072-0.002c0.053 0 0.116 0 0.179 0 19.367 0 37.311 6.096 52.016 16.475l-0.284-0.19q23.822 16.356 24.676 59.52z" />
<glyph unicode="&#xe90d;" glyph-name="14" d="M535.538 440.889c-1.599 12.54-6.023 23.804-12.614 33.473l0.17-0.264q-14.222 19.911-45.084 19.911-43.52 0-59.591-43.164c-5.436-16.292-8.573-35.049-8.573-54.539 0-2.202 0.040-4.394 0.119-6.577l-0.009 0.316c-0.067-1.747-0.105-3.798-0.105-5.858 0-18.695 3.137-36.657 8.912-53.39l-0.345 1.15q15.36-41.244 58.027-41.244c20.196 0 34.489 5.476 42.667 16.284 8.759 11.863 14.389 26.519 15.419 42.428l0.012 0.239h88.249c-2.529-28.251-12.824-53.695-28.707-74.673l0.263 0.362q-40.391-56.462-119.964-56.391t-116.907 46.72q-37.476 47.218-37.476 122.098 0 84.693 41.387 131.769t114.204 47.076q62.009 0 101.404-27.733t46.649-97.991zM704 598.044h-87.253v79.36h87.253zM616.747 558.791h87.253v-329.031h-87.253z" />
<glyph unicode="&#xe90e;" glyph-name="15" d="M535.822 442.098c-1.607 12.532-6.003 23.791-12.547 33.482l0.174-0.273q-14.649 19.911-45.084 19.911-43.591 0-59.662-43.164c-5.433-16.376-8.567-35.228-8.567-54.811 0-2.156 0.038-4.303 0.113-6.441l-0.009 0.31c-0.060-1.669-0.095-3.629-0.095-5.597 0-18.784 3.133-36.837 8.904-53.663l-0.347 1.163q15.431-41.031 58.098-41.102c20.196 0 34.489 5.476 42.667 16.356 8.679 11.751 14.295 26.245 15.416 41.981l0.015 0.259h88.178c-2.511-28.23-12.809-53.654-28.704-74.597l0.26 0.357q-40.533-56.889-120.036-56.462t-116.836 47.218q-37.76 47.004-37.76 122.098 0 84.693 41.387 131.769t114.204 47.147q62.009 0 101.404-27.804t46.72-98.133zM704 231.111h-86.329v444.942h86.329z" />
<glyph unicode="&#xe90f;" glyph-name="16" d="M432 444.373c12.642 1.129 24.3 3.8 35.295 7.843l-0.949-0.305c12.373 5.262 18.56 13.369 18.56 24.462 0.101 0.905 0.158 1.954 0.158 3.016 0 10.596-5.722 19.856-14.245 24.857l-0.136 0.074c-10.788 4.941-23.402 7.822-36.689 7.822-1.778 0-3.543-0.052-5.295-0.153l0.242 0.011q-30.72 0-43.804-15.076c-6.423-8.405-10.798-18.699-12.2-29.916l-0.031-0.306h-82.987c0.692 26.823 9.685 51.417 24.491 71.454l-0.242-0.343q34.276 43.236 117.618 43.307c1.246 0.027 2.715 0.042 4.187 0.042 33.58 0 65.316-7.893 93.455-21.924l-1.216 0.549q42.169-21.333 42.169-80.924v-151.040c0-10.453 0-23.111 0.569-38.044-0.011-0.387-0.017-0.843-0.017-1.3 0-7.869 1.871-15.301 5.194-21.876l-0.127 0.278c3.246-4.365 7.546-7.774 12.531-9.881l0.198-0.074v-12.729h-93.511c-2.263 5.398-4.16 11.743-5.384 18.324l-0.091 0.592c-0.996 5.831-1.778 12.444-2.418 19.911-11.854-12.755-25.429-23.681-40.41-32.472l-0.835-0.453c-17.608-10.075-38.702-16.017-61.184-16.017-0.715 0-1.429 0.006-2.141 0.018l0.107-0.001c-1.249-0.051-2.714-0.080-4.186-0.080-26.746 0-51.244 9.626-70.219 25.602l0.165-0.135q-29.227 25.458-29.298 72.32 0 60.587 47.147 87.822 25.956 14.791 76.018 21.333zM484.622 404.196c-4.787-3.061-10.295-5.838-16.086-8.040l-0.625-0.209c-6.51-2.396-14.261-4.448-22.252-5.793l-0.788-0.11-19.627-3.627c-14.715-1.951-28.053-6.1-40.291-12.14l0.753 0.336c-12.243-6.787-20.394-19.634-20.394-34.384 0-0.737 0.020-1.47 0.061-2.197l-0.004 0.101q0-22.044 12.444-31.858c7.871-6.133 17.901-9.833 28.794-9.833 0.477 0 0.953 0.007 1.427 0.021l-0.069-0.002c0.061 0 0.133 0 0.205 0 19.403 0 37.368 6.153 52.052 16.613l-0.275-0.186c15.858 10.88 24.036 30.72 24.676 59.449zM560.213 509.013v61.227h45.867v91.804h85.333v-91.804h53.476v-61.227h-53.689v-173.938c0-13.44 1.707-21.902 5.12-25.173s14.222-4.978 31.431-4.978h8.32c2.916 0 5.76 0 8.604 0.427v-64l-40.747-1.493q-61.013-2.133-83.342 21.333c-9.671 9.884-14.222 25.031-14.222 45.582v202.24z" />
<glyph unicode="&#xe910;" glyph-name="17" d="M378.809 676.196c22.056-9.78 39.614-26.374 50.36-47.071l0.271-0.573v47.004h83.911v-311.751q0-64-21.333-96-36.836-55.538-141.298-55.609-63.147 0-102.969 24.818c-25.46 15.534-42.553 42.599-44.010 73.753l-0.008 0.203h93.511c1.527-8.652 5.731-16.132 11.712-21.74l0.021-0.020c9.244-7.822 25.244-11.876 46.578-11.876q46.507 0 62.222 31.147c7.111 13.227 10.24 35.556 10.24 66.987v21.333c-6.905-12.478-15.805-22.989-26.39-31.485l-0.205-0.159c-17.178-12.343-38.634-19.739-61.817-19.739-1.718 0-3.427 0.041-5.126 0.121l0.24-0.009q-63.36 0-101.262 44.516t-37.902 120.889q0 73.387 36.48 123.307t103.396 49.778c0.597 0.011 1.302 0.018 2.008 0.018 14.891 0 29.11-2.879 42.13-8.11l-0.761 0.27zM408.107 440.32q20.693 22.684 20.764 72.604 0 46.72-19.698 71.111c-11.891 14.98-30.098 24.501-50.53 24.501-0.786 0-1.568-0.014-2.347-0.042l0.113 0.003c-0.949 0.052-2.060 0.081-3.178 0.081-27.387 0-50.637-17.714-58.917-42.31l-0.128-0.438c-5.759-15.332-9.092-33.051-9.092-51.549 0-1.503 0.022-3 0.066-4.492l-0.005 0.219c-0.014-0.705-0.022-1.536-0.022-2.369 0-17.561 3.536-34.296 9.936-49.532l-0.314 0.843c8.884-24.542 31.989-41.763 59.115-41.763 1.193 0 2.378 0.033 3.555 0.099l-0.163-0.007c0.201-0.002 0.438-0.003 0.676-0.003 20.024 0 37.969 8.899 50.097 22.958l0.072 0.085zM787.982 640.64q40.249-42.667 40.249-125.013 0-86.969-39.396-132.551c-23.56-27.977-58.607-45.63-97.776-45.63-1.226 0-2.448 0.017-3.665 0.052l0.179-0.004c-1.201-0.049-2.611-0.076-4.028-0.076-23.109 0-44.494 7.383-61.924 19.919l0.316-0.216c-10.972 8.952-20.268 19.424-27.706 31.188l-0.312 0.528v-171.449h-85.333v458.169h82.631v-48.569c8.227 13.302 18.117 24.641 29.57 34.165l0.225 0.182c18.091 13.656 40.955 21.873 65.738 21.873 1.064 0 2.124-0.015 3.181-0.045l-0.155 0.003c0.585 0.009 1.274 0.015 1.965 0.015 38.085 0 72.35-16.361 96.148-42.438l0.092-0.102zM721.92 578.702q-17.493 29.298-56.889 29.298-47.218 0-64.924-44.373c-5.862-16.304-9.251-35.117-9.251-54.722 0-1.787 0.028-3.568 0.084-5.342l-0.006 0.259q0-57.244 30.791-80.569c11.519-8.498 25.995-13.601 41.664-13.601 0.578 0 1.154 0.007 1.728 0.021l-0.085-0.002c0.926-0.049 2.010-0.076 3.1-0.076 21.678 0 40.801 10.936 52.155 27.591l0.14 0.218c12.658 18.56 19.058 43.164 19.058 74.027 0.014 0.704 0.022 1.533 0.022 2.365 0 23.922-6.533 46.317-17.913 65.5l0.326-0.594z" />
<glyph unicode="&#xe911;" glyph-name="18" d="M481.778 638.009q40.32-42.667 40.249-124.942 0-86.969-39.324-132.551c-23.636-27.979-58.743-45.626-97.972-45.626-1.182 0-2.36 0.016-3.534 0.048l0.173-0.004c-1.156-0.045-2.514-0.070-3.877-0.070-23.158 0-44.592 7.38-62.079 19.916l0.321-0.219c-10.965 8.936-20.241 19.411-27.637 31.187l-0.31 0.528v-171.52h-85.333v458.596h82.631v-48.569c8.242 13.075 18.101 24.224 29.485 33.587l0.239 0.191c18.159 13.781 41.139 22.076 66.057 22.076 0.927 0 1.851-0.011 2.773-0.034l-0.137 0.003c0.586 0.010 1.278 0.015 1.972 0.015 38.119 0 72.411-16.39 96.211-42.507l0.093-0.103zM415.787 576q-17.564 29.298-56.889 29.298c-1.040 0.060-2.257 0.094-3.481 0.094-28.513 0-52.723-18.421-61.38-44.010l-0.134-0.457c-5.821-16.258-9.185-35.014-9.185-54.555 0-1.846 0.030-3.685 0.090-5.516l-0.007 0.267q0-57.244 30.72-80.569c11.503-8.499 25.965-13.602 41.619-13.602 0.593 0 1.185 0.007 1.775 0.022l-0.087-0.002c0.937-0.050 2.033-0.078 3.136-0.078 21.667 0 40.78 10.938 52.119 27.593l0.141 0.219q19.129 27.804 19.058 73.956c0.016 0.754 0.025 1.642 0.025 2.533 0 23.881-6.507 46.242-17.845 65.406l0.327-0.597zM733.227 555.307c-1.599 12.54-6.023 23.804-12.614 33.473l0.17-0.264q-14.222 19.982-45.084 19.911-43.591 0-59.591-43.164c-5.477-16.349-8.637-35.174-8.637-54.738 0-2.132 0.038-4.255 0.112-6.368l-0.009 0.306c-0.063-1.69-0.098-3.674-0.098-5.667 0-18.766 3.16-36.793 8.978-53.579l-0.346 1.149q15.36-41.031 58.098-41.031c20.124 0 34.489 5.476 42.667 16.356 8.747 11.708 14.416 26.18 15.558 41.908l0.015 0.261h87.822c-2.474-28.234-12.778-53.667-28.701-74.592l0.257 0.352q-40.533-56.889-119.964-56.462t-116.764 47.076q-37.476 47.004-37.476 122.098 0 84.693 41.387 131.769t114.276 47.147q61.938 0 101.404-27.804t46.649-98.133z" />
<glyph unicode="&#xe912;" glyph-name="19" d="M440.462 607.076c23.581-10.82 42.886-27.498 56.579-48.212l0.31-0.499c13.186-19.186 22.439-42.091 26.064-66.826l0.105-0.872c1.974-15.237 3.1-32.86 3.1-50.746 0-5.136-0.093-10.251-0.277-15.342l0.021 0.737h-239.644q1.92-49.778 34.418-69.404c12.805-7.796 28.29-12.411 44.853-12.411 0.906 0 1.81 0.014 2.709 0.041l-0.132-0.003c1.543-0.127 3.34-0.199 5.154-0.199 26.28 0 49.010 15.198 59.881 37.283l0.174 0.392h88.107q-3.484-29.369-31.929-59.52-44.16-48-123.804-48c-0.686-0.009-1.497-0.015-2.308-0.015-43.253 0-82.93 15.305-113.913 40.796l0.31-0.248q-49.778 40.462-50.204 131.698 0 85.333 45.369 131.129t117.689 45.653c0.807 0.012 1.759 0.020 2.713 0.020 26.992 0 52.656-5.686 75.859-15.925l-1.204 0.474zM311.751 532.764c-12.459-13.599-20.799-31.159-22.933-50.585l-0.036-0.401h148.267c-0.192 20.542-8.945 39.003-22.857 52.016l-0.041 0.038c-13.062 11.036-30.090 17.744-48.685 17.744-0.834 0-1.666-0.014-2.493-0.040l0.121 0.003c-1.26 0.083-2.732 0.13-4.215 0.13-18.293 0-34.905-7.203-47.152-18.927l0.025 0.024zM735.787 495.716c-1.621 12.53-6.015 23.788-12.548 33.485l0.175-0.276c-9.742 13.298-24.747 19.911-45.156 19.911q-43.52 0-59.591-43.164c-5.429-16.405-8.561-35.289-8.561-54.904 0-2.098 0.036-4.188 0.107-6.27l-0.008 0.302c-0.059-1.656-0.093-3.602-0.093-5.556 0-18.798 3.132-36.865 8.902-53.707l-0.347 1.165q15.502-41.031 58.098-41.031 30.293 0 42.667 16.284c8.71 11.743 14.352 26.237 15.487 41.979l0.015 0.261h87.822c-2.478-28.234-12.782-53.666-28.702-74.593l0.257 0.353q-40.391-56.462-119.964-56.462t-116.622 47.076q-37.476 47.147-37.476 122.169 0 84.693 41.387 131.769t113.92 47.076q61.938 0 101.404-27.804t46.72-98.062z" />
<glyph unicode="&#xe913;" glyph-name="20" d="M432.142 666.24c23.575-10.83 42.878-27.506 56.579-48.213l0.31-0.498c13.261-19.258 22.546-42.268 26.138-67.119l0.102-0.863c1.962-15.352 3.082-33.114 3.082-51.137 0-4.998-0.086-9.977-0.257-14.933l0.020 0.719h-239.716q2.062-49.778 34.418-69.404c12.817-7.796 28.315-12.41 44.891-12.41 0.893 0 1.783 0.013 2.67 0.040l-0.13-0.003c1.586-0.134 3.432-0.211 5.296-0.211 26.395 0 49.209 15.331 60.023 37.575l0.174 0.396h87.893q-3.484-29.369-31.929-59.52-44.231-48-123.804-48c-0.764-0.012-1.665-0.018-2.568-0.018-43.238 0-82.901 15.307-113.865 40.798l0.309-0.247q-49.778 40.391-49.778 131.698 0 85.333 45.298 131.129t117.689 45.653c0.839 0.014 1.829 0.021 2.82 0.021 26.883 0 52.437-5.687 75.525-15.923l-1.19 0.471zM303.431 591.929c-12.437-13.579-20.754-31.117-22.863-50.518l-0.035-0.397h148.267c-1.636 22.827-9.244 40.107-22.969 51.982-13.034 11.035-30.037 17.744-48.608 17.744-0.837 0-1.67-0.014-2.5-0.041l0.121 0.003c-1.256 0.082-2.724 0.129-4.202 0.129-18.32 0-34.958-7.201-47.238-18.928l0.026 0.025zM791.964 637.582q40.249-42.667 40.249-125.013 0-86.898-39.324-132.48c-23.564-28.141-58.712-45.91-98.010-45.91-1.168 0-2.333 0.016-3.494 0.047l0.171-0.004c-1.129-0.043-2.454-0.068-3.785-0.068-23.275 0-44.802 7.49-62.3 20.191l0.307-0.212c-10.967 8.911-20.243 19.364-27.638 31.119l-0.308 0.525v-171.449h-85.333v458.596h82.702v-48.64c8.266 13.1 18.148 24.272 29.556 33.658l0.24 0.191c18.207 13.78 41.232 22.073 66.195 22.073 0.879 0 1.755-0.010 2.628-0.031l-0.13 0.002c0.577 0.009 1.258 0.014 1.941 0.014 38.129 0 72.43-16.389 96.242-42.507l0.093-0.103zM725.902 576q-17.493 29.227-56.889 29.298-47.218 0-64.924-44.373c-5.862-16.304-9.251-35.117-9.251-54.722 0-1.787 0.028-3.568 0.084-5.342l-0.006 0.259q0-57.387 30.791-80.64c11.574-8.497 26.102-13.598 41.821-13.598 0.522 0 1.043 0.006 1.563 0.017l-0.078-0.001c0.901-0.046 1.956-0.072 3.017-0.072 21.717 0 40.874 10.963 52.238 27.657l0.141 0.219q18.987 27.733 19.058 73.956c0.017 0.769 0.026 1.675 0.026 2.583 0 23.873-6.536 46.22-17.915 65.348l0.324-0.589z" />
</font>
</defs>
</svg>
