<svg xmlns="http://www.w3.org/2000/svg" viewBox="0 0 205.18 205.18">
  <path fill="#000" d="M0 0h205.18v205.18H0z"/>
  <path fill="#fff" d="M17.79 16.68A8.82 8.82 0 0124.38 14q5.34 0 7.82 3.55a7.74 7.74 0 011.47 4h-4.48a6 6 0 00-1.1-2.33 4.4 4.4 0 00-3.54-1.4 4.38 4.38 0 00-3.78 2 9.67 9.67 0 00-1.38 5.58 8.39 8.39 0 001.46 5.4 4.55 4.55 0 003.7 1.8 4.23 4.23 0 003.52-1.54 7 7 0 001.11-2.49h4.45a9.66 9.66 0 01-3 5.7 8.57 8.57 0 01-6.06 2.2 9.08 9.08 0 01-7.19-3q-2.62-3-2.62-8.17.05-5.57 3.03-8.62zM43.19 26.24a7.17 7.17 0 001.66-.36 1.26 1.26 0 00.89-1.18 1.4 1.4 0 00-.69-1.35A4.38 4.38 0 0043 23a2.64 2.64 0 00-2.11.73 3.06 3.06 0 00-.59 1.45h-4a6.08 6.08 0 011.17-3.41q1.65-2.1 5.67-2.1a10.19 10.19 0 014.64 1c1.36.69 2 2 2 3.9v9.1a2.25 2.25 0 00.25 1.11 1.59 1.59 0 00.61.48v.61h-4.41A5.21 5.21 0 0146 35a8 8 0 01-.11-1 8.5 8.5 0 01-2 1.58 6 6 0 01-3 .78 5.23 5.23 0 01-3.57-1.23 4.38 4.38 0 01-1.41-3.49 4.49 4.49 0 012.27-4.23 10.36 10.36 0 013.66-1zm2.53 1.93a4 4 0 01-.8.4 7.18 7.18 0 01-1.11.29l-1 .17a6.46 6.46 0 00-1.9.57 1.9 1.9 0 00-1 1.76 1.82 1.82 0 00.6 1.53 2.24 2.24 0 001.45.47 4.38 4.38 0 002.51-.78 3.33 3.33 0 001.18-2.87zM62.28 19.66h.36v4.25l-.7-.06h-.5c-1.66 0-2.78.55-3.35 1.63a6.33 6.33 0 00-.48 2.82v7.58h-4.18V20h4v2.76a8.57 8.57 0 011.67-2.16 4.55 4.55 0 013-1zM63.44 23.13v-3h2.21v-4.38h4.1v4.42h2.57v3h-2.57v8.33a1.87 1.87 0 00.25 1.22 2.68 2.68 0 001.51.24h.81V36l-2 .07c-2 .07-3.3-.27-4-1a3 3 0 01-.7-2.2v-9.74zM88.2 33.94q-2 2.48-6.09 2.48T76 33.94a9.16 9.16 0 01-2-6A9.25 9.25 0 0176 22q2-2.51 6.09-2.51T88.2 22a9.25 9.25 0 012 5.95 9.16 9.16 0 01-2 5.99zm-3.31-2.29a6 6 0 001-3.67 6 6 0 00-1-3.67 3.69 3.69 0 00-5.59 0 5.92 5.92 0 00-1 3.67 5.94 5.94 0 001 3.67 3.67 3.67 0 005.59 0zM101 20a5 5 0 012.44 2.3V20h4v15a8.41 8.41 0 01-1 4.62c-1.19 1.78-3.45 2.68-6.81 2.68a9.25 9.25 0 01-5-1.2 4.39 4.39 0 01-2.12-3.56h4.51a1.85 1.85 0 00.56 1 3.51 3.51 0 002.26.57 3 3 0 003-1.5 7.58 7.58 0 00.5-3.23v-1A4.61 4.61 0 0198.91 36 6.07 6.07 0 0194 33.81 8.66 8.66 0 0192.2 28a9.79 9.79 0 011.8-5.94 5.79 5.79 0 015-2.41 5.52 5.52 0 012 .35zm1.41 11.37a5.13 5.13 0 001-3.5 5.39 5.39 0 00-1-3.43 3.08 3.08 0 00-2.54-1.18 3 3 0 00-3 2.05 7.33 7.33 0 00-.36 2.69 6.17 6.17 0 00.49 2.47 3 3 0 003 2 3.2 3.2 0 002.43-1.09zM120.17 19.66h.36v4.25l-.7-.06h-.49c-1.67 0-2.79.55-3.36 1.63a6.33 6.33 0 00-.48 2.82v7.58h-4.18V20h4v2.76a8.81 8.81 0 011.68-2.13 4.58 4.58 0 013-1zM129.24 26.24a6.93 6.93 0 001.65-.36 1.26 1.26 0 00.9-1.18 1.4 1.4 0 00-.69-1.35 4.44 4.44 0 00-2-.37 2.63 2.63 0 00-2.11.73 3 3 0 00-.59 1.45h-4a6.08 6.08 0 011.17-3.41q1.65-2.1 5.67-2.1a10.19 10.19 0 014.64 1 4 4 0 012 3.9v9.1a2.25 2.25 0 00.25 1.11 1.52 1.52 0 00.61.48v.61h-4.51A4.45 4.45 0 01132 35q-.08-.42-.12-1a8.3 8.3 0 01-2 1.58 5.93 5.93 0 01-3 .78 5.26 5.26 0 01-3.58-1.23 4.38 4.38 0 01-1.41-3.49 4.51 4.51 0 012.27-4.23 10.36 10.36 0 013.67-1zm2.53 1.93a4 4 0 01-.8.4 7.05 7.05 0 01-1.12.29l-.94.17a6.36 6.36 0 00-1.9.57 1.88 1.88 0 00-1 1.76 1.84 1.84 0 00.59 1.53 2.26 2.26 0 001.46.47 4.35 4.35 0 002.5-.78 3.31 3.31 0 001.19-2.87zM146.08 14.25l.87.06v3.38c-.23 0-.62-.05-1.17-.07a1.34 1.34 0 00-1.13.37 1.29 1.29 0 00-.31.85v1.33h2.71v2.93h-2.71v12.78h-4.12V23.1h-2.33v-2.93h2.27v-1a5.38 5.38 0 01.86-3.51c.6-1 2-1.42 4.35-1.42.26-.01.5-.01.71.01zM153.7 18.14h-4.2v-3.83h4.2zM149.5 20h4.2v15.88h-4.2zM164 26.24a7 7 0 001.66-.36 1.26 1.26 0 00.89-1.18 1.41 1.41 0 00-.68-1.35 4.46 4.46 0 00-2-.37 2.61 2.61 0 00-2.1.73 2.87 2.87 0 00-.59 1.45h-4a5.93 5.93 0 011.17-3.41c1.1-1.4 3-2.1 5.66-2.1a10.23 10.23 0 014.65 1 4 4 0 012 3.9v9.1a2.27 2.27 0 00.24 1.11 1.59 1.59 0 00.61.48v.61H167a4.52 4.52 0 01-.27-.9c0-.28-.08-.6-.11-1a8.5 8.5 0 01-2 1.58 6 6 0 01-3 .78 5.24 5.24 0 01-3.58-1.23 4.38 4.38 0 01-1.41-3.49 4.49 4.49 0 012.27-4.23 10.36 10.36 0 013.66-1zm2.54 1.93a4.34 4.34 0 01-.81.4 7.18 7.18 0 01-1.11.29l-.94.17a6.45 6.45 0 00-1.91.57 1.9 1.9 0 00-1 1.76 1.82 1.82 0 00.6 1.53 2.24 2.24 0 001.46.47 4.37 4.37 0 002.5-.78 3.34 3.34 0 001.19-2.87zM24.09 56.21A5.12 5.12 0 0126 58v-7.77h4.33v22h-4.19V70a6 6 0 01-2.08 2.11 5.85 5.85 0 01-2.91.66 6 6 0 01-4.81-2.32 8.88 8.88 0 01-1.95-5.93A10.25 10.25 0 0116.31 58a6.27 6.27 0 015.14-2.39 5.22 5.22 0 012.64.6zm1.05 11.63a6 6 0 00.94-3.49c0-2-.5-3.43-1.51-4.29a3.3 3.3 0 00-2.16-.77 3 3 0 00-2.75 1.41 7.66 7.66 0 000 7.13 3 3 0 002.7 1.35 3.17 3.17 0 002.78-1.34zM40.63 62.34a6.87 6.87 0 001.71-.34 1.3 1.3 0 00.92-1.22 1.42 1.42 0 00-.71-1.38 4.39 4.39 0 00-2.07-.4 2.71 2.71 0 00-2.17.75 3 3 0 00-.61 1.49h-4.12a6.22 6.22 0 011.21-3.52q1.7-2.15 5.83-2.15a10.35 10.35 0 014.78 1.06c1.4.71 2.09 2.05 2.09 4v9.38a2.36 2.36 0 00.26 1.14 1.52 1.52 0 00.63.49v.63h-4.61a4.76 4.76 0 01-.27-.93q-.07-.44-.12-1A8.76 8.76 0 0141.33 72a6.2 6.2 0 01-3.13.8 5.39 5.39 0 01-3.69-1.27 4.49 4.49 0 01-1.45-3.58 4.65 4.65 0 012.34-4.36 10.38 10.38 0 013.77-1zm2.61 2a4.26 4.26 0 01-.83.41 6.28 6.28 0 01-1.14.3l-1 .18a6.33 6.33 0 00-2 .58 1.93 1.93 0 00-1 1.81 1.89 1.89 0 00.61 1.58 2.31 2.31 0 001.5.49 4.48 4.48 0 002.62-.82 3.44 3.44 0 001.22-3zM62.2 52.5a9.09 9.09 0 016.8-2.72c3.68 0 6.36 1.22 8.06 3.65a8 8 0 011.51 4.12h-4.63a6.24 6.24 0 00-1.13-2.4 5 5 0 00-7.54.59 9.93 9.93 0 00-1.42 5.75 8.7 8.7 0 001.5 5.56 4.71 4.71 0 003.81 1.85 4.31 4.31 0 003.62-1.59 6.89 6.89 0 001.14-2.56h4.59a10 10 0 01-3 5.87 8.83 8.83 0 01-6.25 2.26 9.36 9.36 0 01-7.4-3c-1.8-2-2.7-4.85-2.7-8.42q-.03-5.82 3.04-8.96zM86.14 56v9.84a5.14 5.14 0 00.33 2.09 2.27 2.27 0 002.28 1.24 3 3 0 003-1.76 6.41 6.41 0 00.42-2.53V56h4.33v16.27h-4.17V70q-.06.08-.3.45a3 3 0 01-.57.66 5.86 5.86 0 01-1.93 1.23 6.55 6.55 0 01-2.19.33q-3.61 0-4.87-2.61a10.11 10.11 0 01-.7-4.23V56zM105 72.27h-4.27V50.2H105zM107.47 59.14v-3h2.27v-4.6H114v4.56h2.65v3H114v8.62c0 .67.08 1.09.25 1.25a2.75 2.75 0 001.56.25h.84v3.19l-2 .07c-2 .07-3.4-.28-4.14-1a3.14 3.14 0 01-.72-2.27v-10zM123.61 56v9.84a5.14 5.14 0 00.33 2.09 2.27 2.27 0 002.28 1.24 3 3 0 003-1.76 6.41 6.41 0 00.42-2.53V56h4.32v16.27h-4.15V70c0 .05-.13.2-.29.45a3 3 0 01-.57.66A6 6 0 01127 72.3a6.64 6.64 0 01-2.19.33q-3.61 0-4.87-2.61a10 10 0 01-.7-4.23V56zM147.16 55.56h.36V60l-.71-.06h-.51c-1.72 0-2.87.55-3.46 1.67a6.52 6.52 0 00-.5 2.91v7.8h-4.29V56h4.07v2.84a9 9 0 011.72-2.23 4.69 4.69 0 013.12-1zM156.49 62.34a6.77 6.77 0 001.7-.37 1.29 1.29 0 00.93-1.22 1.42 1.42 0 00-.71-1.38 4.39 4.39 0 00-2.07-.38 2.71 2.71 0 00-2.17.75 3 3 0 00-.61 1.49h-4.12a6.28 6.28 0 011.2-3.52c1.14-1.43 3.08-2.15 5.84-2.15a10.38 10.38 0 014.78 1.06c1.4.71 2.09 2.05 2.09 4V70a2.36 2.36 0 00.26 1.14 1.52 1.52 0 00.63.49v.63h-4.65a4.76 4.76 0 01-.27-.93q-.07-.44-.12-1a8.51 8.51 0 01-2 1.63 6.21 6.21 0 01-3.14.8 5.38 5.38 0 01-3.68-1.27 4.49 4.49 0 01-1.45-3.58 4.65 4.65 0 012.34-4.36 10.38 10.38 0 013.77-1zm2.61 2a4.26 4.26 0 01-.83.41 6.51 6.51 0 01-1.14.3l-1 .18a6.42 6.42 0 00-2 .58 1.94 1.94 0 00-1 1.81 1.89 1.89 0 00.61 1.58 2.31 2.31 0 001.5.49 4.48 4.48 0 002.58-.81 3.44 3.44 0 001.22-3zM167 67.79h4.53v4.48H167zM14.74 141h5.17v1.27h-3.66v1.67h3.2v1.25h-3.2v3h-1.51zM25.24 147.56a2.49 2.49 0 01-2.06.84 2.5 2.5 0 01-2.06-.84 3.09 3.09 0 01-.67-2 3.14 3.14 0 01.67-2 2.51 2.51 0 012.06-.85 2.49 2.49 0 012.06.85 3.15 3.15 0 01.68 2 3.09 3.09 0 01-.68 2zm-1.12-.77a2.49 2.49 0 000-2.48 1.1 1.1 0 00-.94-.43 1.12 1.12 0 00-.95.43 2.49 2.49 0 000 2.48 1.13 1.13 0 00.95.44 1.11 1.11 0 00.94-.44zm.74-6.12l-1.5 1.47h-1l.95-1.47zM29.9 142.74h.1v1.43H29.59a1.15 1.15 0 00-1.13.55 2.08 2.08 0 00-.16.95v2.56h-1.39v-5.35h1.33v.93a3 3 0 01.57-.73 1.53 1.53 0 011-.33zM32.23 142.87v3.22a1.7 1.7 0 00.11.69.75.75 0 00.75.41 1 1 0 001-.58 2 2 0 00.14-.83v-2.91h1.42v5.35h-1.39v-.76l-.1.15a1.24 1.24 0 01-.18.22 2 2 0 01-.64.4 2.18 2.18 0 01-.72.11 1.59 1.59 0 01-1.59-.86 3.14 3.14 0 01-.23-1.39v-3.22zM43.66 142.88a1.69 1.69 0 01.63.49 1.46 1.46 0 01.3.68 5.11 5.11 0 010 .79v3.38H43.2v-3.41a1.2 1.2 0 00-.1-.5.71.71 0 00-.69-.37.8.8 0 00-.8.48 1.42 1.42 0 00-.11.61v3.19h-1.41V145a1.86 1.86 0 00-.1-.69.69.69 0 00-.69-.39.83.83 0 00-.81.39 1.46 1.46 0 00-.11.66v3.22H37v-5.35h1.36v.79a2.31 2.31 0 01.49-.6 2 2 0 012 0 1.6 1.6 0 01.46.64A1.8 1.8 0 0142 143a2.07 2.07 0 011-.22 1.87 1.87 0 01.66.1zM55.4 142.88a1.69 1.69 0 01.63.49 1.46 1.46 0 01.3.68 4.09 4.09 0 01.05.79v3.38h-1.44v-3.41a1.2 1.2 0 00-.1-.5.7.7 0 00-.69-.37.8.8 0 00-.8.48 1.58 1.58 0 00-.11.61v3.19h-1.41V145a1.86 1.86 0 00-.1-.69.69.69 0 00-.73-.31.83.83 0 00-.81.39 1.61 1.61 0 00-.11.66v3.22H48.7v-5.35h1.36v.79a2.31 2.31 0 01.49-.6 2 2 0 012.05 0 1.51 1.51 0 01.46.64 1.8 1.8 0 01.68-.69 2.07 2.07 0 011-.22 1.87 1.87 0 01.66.04zM59.06 142.87v3.22a1.7 1.7 0 00.11.69.75.75 0 00.75.41 1 1 0 001-.58 2.16 2.16 0 00.13-.83v-2.91h1.42v5.35h-1.38v-.76l-.1.15a1.24 1.24 0 01-.18.22 2 2 0 01-.64.4 2.16 2.16 0 01-.71.11 1.6 1.6 0 01-1.6-.86 3.3 3.3 0 01-.23-1.39v-3.22zM68.13 143.17a1.77 1.77 0 01.53 1.44v3.61h-1.44V145a1.44 1.44 0 00-.11-.65.78.78 0 00-.78-.41 1 1 0 00-1 .61 2.07 2.07 0 00-.14.81v2.9h-1.4v-5.35h1.36v.79a2.32 2.32 0 01.51-.6 1.81 1.81 0 011.09-.32 2 2 0 011.38.39zM71.4 142.23H70v-1.3h1.4zm-1.42.64h1.42v5.35H70zM76 144.79a1.4 1.4 0 00-.2-.54.86.86 0 00-.74-.33 1 1 0 00-1 .7 3 3 0 00-.14 1 2.72 2.72 0 00.14.95 1 1 0 001 .67.83.83 0 00.7-.27 1.26 1.26 0 00.25-.69h1.43a2.35 2.35 0 01-.46 1.21 2.24 2.24 0 01-2 .92 2.26 2.26 0 01-1.9-.77 3.06 3.06 0 01-.61-2 3.2 3.2 0 01.67-2.15 2.35 2.35 0 011.86-.76 2.78 2.78 0 011.65.45 2.09 2.09 0 01.76 1.6zM79.79 142.23h-1.42v-1.3h1.42zm-1.42.64h1.42v5.35h-1.42zM85.65 143.44a2.83 2.83 0 01.65 2 3.18 3.18 0 01-.64 2.16 2.07 2.07 0 01-1.64.74 1.68 1.68 0 01-1.07-.32 2.12 2.12 0 01-.46-.51v2.79h-1.38v-7.46h1.34v.79a2 2 0 01.48-.55 1.81 1.81 0 011.12-.36 2.13 2.13 0 011.6.72zm-1.08 1a1 1 0 00-.92-.48 1.06 1.06 0 00-1.06.72 2.73 2.73 0 00-.15 1 1.56 1.56 0 00.5 1.31 1.22 1.22 0 00.71.22 1 1 0 00.9-.45 2.11 2.11 0 00.31-1.21 2 2 0 00-.29-1.1zM89.41 145a2.08 2.08 0 00.56-.12.43.43 0 00.3-.4.45.45 0 00-.27-.48 1.37 1.37 0 00-.68-.13.88.88 0 00-.71.25 1 1 0 00-.2.49H87.1a2.11 2.11 0 01.39-1.16 2.32 2.32 0 011.92-.7 3.33 3.33 0 011.57.35 1.32 1.32 0 01.68 1.31v3.08a.7.7 0 00.09.37.41.41 0 00.2.16v.21h-1.51a2.43 2.43 0 01-.09-.3v-.33a2.94 2.94 0 01-.67.54 2 2 0 01-1 .26 1.78 1.78 0 01-1.28-.4 1.7 1.7 0 01.3-2.6 3.43 3.43 0 011.23-.35zm.86.66a1.66 1.66 0 01-.27.13 1.85 1.85 0 01-.38.1l-.32.06a1.88 1.88 0 00-.64.19.63.63 0 00-.33.59.64.64 0 00.2.52.74.74 0 00.49.16 1.46 1.46 0 00.85-.27 1.12 1.12 0 00.4-1zM94.32 148.22h-1.4V141h1.4zM17.47 155a1.67 1.67 0 01.61.6v-2.56h1.42v7.23h-1.36v-.74a2 2 0 01-.68.69 1.86 1.86 0 01-.95.22 2 2 0 01-1.58-.76 2.88 2.88 0 01-.64-1.95 3.34 3.34 0 01.63-2.15 2 2 0 011.68-.79 1.75 1.75 0 01.87.21zm.34 3.82a2 2 0 00.31-1.15 1.75 1.75 0 00-.49-1.4 1.09 1.09 0 00-.71-.26 1 1 0 00-.9.47 2.16 2.16 0 00-.29 1.15 2.21 2.21 0 00.29 1.19 1 1 0 00.89.44 1 1 0 00.9-.42zM24.26 155.05a2.09 2.09 0 01.93.79 2.72 2.72 0 01.43 1.11 7.59 7.59 0 010 1.06h-3.9a1.29 1.29 0 00.56 1.13 1.47 1.47 0 00.77.2 1.16 1.16 0 00.78-.25 1.07 1.07 0 00.29-.36h1.43a1.74 1.74 0 01-.52 1 2.6 2.6 0 01-2 .78 3 3 0 01-1.89-.65 2.6 2.6 0 01-.82-2.15 2.89 2.89 0 01.74-2.13 2.56 2.56 0 011.94-.78 3 3 0 011.26.25zm-2.09 1.21a1.42 1.42 0 00-.37.82h2.41a1.18 1.18 0 00-.37-.84A1.25 1.25 0 0023 156a1.1 1.1 0 00-.83.26zM30 153.81a3 3 0 012.23-.9 3 3 0 012.64 1.2 2.67 2.67 0 01.5 1.35h-1.55a2 2 0 00-.37-.78 1.65 1.65 0 00-2.47.19 3.28 3.28 0 00-.47 1.89 2.89 2.89 0 00.49 1.82 1.54 1.54 0 001.26.61 1.42 1.42 0 001.18-.52 2.36 2.36 0 00.38-.84h1.5a3.25 3.25 0 01-1 1.92 2.89 2.89 0 01-2 .74 3.07 3.07 0 01-2.43-1 4.73 4.73 0 01.12-5.68zM37.83 154.94v3.23a1.71 1.71 0 00.1.68.75.75 0 00.75.41 1 1 0 001-.58 2.1 2.1 0 00.14-.83v-2.91h1.42v5.35h-1.38v-.75a.55.55 0 00-.1.14.82.82 0 01-.19.22 1.88 1.88 0 01-.63.4 2.27 2.27 0 01-.72.11 1.61 1.61 0 01-1.6-.85 3.36 3.36 0 01-.23-1.39v-3.23zM44 160.29h-1.4v-7.24H44zM44.82 156v-1h.75v-1.5H47v1.5h.87v1H47v2.83c0 .22 0 .36.09.41s.22.09.51.09h.27v1h-.66a1.78 1.78 0 01-1.41-.33 1 1 0 01-.23-.74V156zM50.12 154.94v3.23a1.52 1.52 0 00.11.68.73.73 0 00.74.41 1 1 0 001-.58 2.1 2.1 0 00.14-.83v-2.91h1.42v5.35h-1.38v-.75a.55.55 0 00-.1.14.82.82 0 01-.19.22 1.88 1.88 0 01-.63.4 2.22 2.22 0 01-.72.11 1.61 1.61 0 01-1.6-.85 3.36 3.36 0 01-.23-1.39v-3.23zM57.84 154.81H58v1.43h-.4a1.15 1.15 0 00-1.13.55 2.09 2.09 0 00-.17.95v2.56h-1.45v-5.35h1.34v.93a2.74 2.74 0 01.57-.73 1.53 1.53 0 011-.33zM60.9 157a2.31 2.31 0 00.56-.13.41.41 0 00.31-.39.47.47 0 00-.24-.46 1.5 1.5 0 00-.68-.12.91.91 0 00-.71.24 1.1 1.1 0 00-.2.49h-1.35a2 2 0 01.4-1.15 2.3 2.3 0 011.91-.71 3.46 3.46 0 011.57.35 1.33 1.33 0 01.69 1.32V159.51a.72.72 0 00.08.37.52.52 0 00.21.17v.2h-1.52a2.43 2.43 0 01-.09-.3v-.33a3 3 0 01-.68.54 2 2 0 01-1 .26 1.76 1.76 0 01-1.26-.42 1.45 1.45 0 01-.48-1.17 1.52 1.52 0 01.77-1.43 3.43 3.43 0 011.23-.35zm.86.65a1.11 1.11 0 01-.27.13 1.85 1.85 0 01-.38.1l-.32.06a2.25 2.25 0 00-.64.19.65.65 0 00-.33.6.62.62 0 00.2.51.76.76 0 00.49.16 1.52 1.52 0 00.85-.26 1.12 1.12 0 00.4-1zM17.47 167.1a1.64 1.64 0 01.61.59v-2.56h1.42v7.24h-1.36v-.75a2.08 2.08 0 01-.68.7 2.1 2.1 0 01-2.53-.55 2.87 2.87 0 01-.64-1.94 3.35 3.35 0 01.63-2.16 2.06 2.06 0 011.68-.79 1.75 1.75 0 01.87.22zm.34 3.81a1.9 1.9 0 00.31-1.14 1.76 1.76 0 00-.49-1.41 1.08 1.08 0 00-.71-.25 1 1 0 00-.9.46 2.16 2.16 0 00-.29 1.15 2.18 2.18 0 00.29 1.19 1 1 0 00.89.44 1 1 0 00.9-.44zM24.26 167.12a2.15 2.15 0 01.93.79 2.72 2.72 0 01.43 1.11 7.59 7.59 0 010 1.06h-3.9a1.27 1.27 0 00.56 1.13 1.38 1.38 0 00.77.2 1.21 1.21 0 00.78-.24 1.11 1.11 0 00.29-.37h1.43a1.76 1.76 0 01-.52 1 2.6 2.6 0 01-2 .78 2.9 2.9 0 01-1.89-.66 2.57 2.57 0 01-.82-2.14 2.93 2.93 0 01.74-2.14 2.6 2.6 0 011.92-.74 3 3 0 011.28.22zm-2.09 1.21a1.42 1.42 0 00-.37.83h2.41a1.2 1.2 0 00-.37-.85A1.25 1.25 0 0023 168a1.1 1.1 0 00-.83.33zM30 165.88a3 3 0 012.2-.88 3 3 0 012.64 1.2 2.61 2.61 0 01.5 1.35h-1.52a2 2 0 00-.37-.79 1.51 1.51 0 00-1.2-.47A1.47 1.47 0 0031 167a3.24 3.24 0 00-.47 1.88 2.89 2.89 0 00.49 1.82 1.54 1.54 0 001.26.61 1.39 1.39 0 001.18-.52 2.36 2.36 0 00.38-.84h1.5a3.3 3.3 0 01-1 1.93 2.93 2.93 0 01-2 .74 3.1 3.1 0 01-2.43-1 4.08 4.08 0 01-.91-2.82 4 4 0 011-2.92zM38.55 169.11a2.08 2.08 0 00.56-.12.43.43 0 00.3-.4.47.47 0 00-.23-.46 1.5 1.5 0 00-.68-.12.91.91 0 00-.71.24 1 1 0 00-.2.5h-1.35a2.09 2.09 0 01.39-1.16 2.32 2.32 0 011.92-.71 3.46 3.46 0 011.57.35 1.33 1.33 0 01.68 1.32v3.06a.74.74 0 00.09.38.47.47 0 00.2.16v.21h-1.51a2.12 2.12 0 01-.09-.31v-.32a2.66 2.66 0 01-.67.53 2 2 0 01-1 .26 1.83 1.83 0 01-1.21-.41 1.71 1.71 0 01.3-2.61 3.45 3.45 0 011.23-.34zm.86.65a1.74 1.74 0 01-.27.14l-.38.09-.32.06a2.14 2.14 0 00-.64.19.65.65 0 00-.33.6.64.64 0 00.2.52.8.8 0 00.49.16 1.46 1.46 0 00.85-.27 1.15 1.15 0 00.4-1zM48.71 167a1.47 1.47 0 01.62.48 1.68 1.68 0 01.31.69 5 5 0 010 .79v3.38h-1.4V169a1 1 0 00-.1-.5.69.69 0 00-.68-.38.82.82 0 00-.81.48 1.64 1.64 0 00-.11.62v3.19h-1.41v-3.19a1.67 1.67 0 00-.1-.69.68.68 0 00-.69-.39.81.81 0 00-.8.39 1.36 1.36 0 00-.12.65v3.23H42V167h1.36v.78a2.44 2.44 0 01.49-.59 1.71 1.71 0 011.06-.32 1.66 1.66 0 011 .27 1.46 1.46 0 01.46.65 1.86 1.86 0 01.69-.7 2.18 2.18 0 011-.22 1.9 1.9 0 01.65.13zM55.48 167.59a2.88 2.88 0 01.65 2 3.22 3.22 0 01-.64 2.16 2.1 2.1 0 01-1.65.74 1.76 1.76 0 01-1.07-.32 2.19 2.19 0 01-.45-.52v2.79h-1.39V167h1.34v.79a2.69 2.69 0 01.49-.55 1.77 1.77 0 011.12-.36 2.1 2.1 0 011.6.71zm-1.08 1a1 1 0 00-.92-.47 1 1 0 00-1.06.72 2.67 2.67 0 00-.15 1 1.55 1.55 0 00.5 1.31 1.13 1.13 0 00.71.22 1 1 0 00.9-.45 2.35 2.35 0 000-2.3zM61.58 171.71a2.93 2.93 0 01-4.11 0 3.31 3.31 0 010-4 2.91 2.91 0 014.11 0 3.31 3.31 0 010 4zm-1.12-.77a2.49 2.49 0 000-2.48 1.22 1.22 0 00-1.88 0 2.43 2.43 0 000 2.48 1.24 1.24 0 001.88 0zM71 167.38a1.38 1.38 0 00-.84-1 2 2 0 00-.83-.16 1.82 1.82 0 00-1.44.66 3 3 0 00-.56 2 2.45 2.45 0 00.61 1.89 2 2 0 001.39.55 1.79 1.79 0 001.24-.44 1.82 1.82 0 00.6-1.14h-1.63v-1.21h3v3.89h-1l-.15-.91a3.39 3.39 0 01-.79.73 2.81 2.81 0 01-1.47.36 3.07 3.07 0 01-2.36-1 3.8 3.8 0 01-1-2.74 4.06 4.06 0 011-2.82 3.3 3.3 0 012.56-1.06 3.34 3.34 0 012.22.7 2.6 2.6 0 011 1.74zM76.86 166.89H77v1.44h-.4a1.18 1.18 0 00-1.14.55 2.16 2.16 0 00-.16 1v2.56h-1.43V167h1.34v1a2.84 2.84 0 01.56-.74 1.53 1.53 0 011-.33zM79.92 169.11a2.08 2.08 0 00.56-.12.43.43 0 00.3-.4.47.47 0 00-.23-.46 1.5 1.5 0 00-.68-.12.91.91 0 00-.71.24 1 1 0 00-.2.5h-1.35a2.09 2.09 0 01.39-1.16 2.32 2.32 0 011.92-.71 3.46 3.46 0 011.57.35 1.34 1.34 0 01.68 1.32v3.06a.74.74 0 00.09.38.47.47 0 00.2.16v.21H81a2.12 2.12 0 01-.09-.31 2.53 2.53 0 010-.32 2.66 2.66 0 01-.67.53 2 2 0 01-1 .26 1.81 1.81 0 01-1.21-.41 1.51 1.51 0 01-.47-1.18 1.53 1.53 0 01.76-1.43 3.51 3.51 0 011.24-.34zm.86.65a1.74 1.74 0 01-.27.14l-.38.09-.32.06a2.14 2.14 0 00-.64.19.65.65 0 00-.33.6.61.61 0 00.2.52.8.8 0 00.49.16 1.46 1.46 0 00.85-.27 1.15 1.15 0 00.4-1zM87.71 167.32a1.77 1.77 0 01.53 1.44v3.61h-1.43v-3.26a1.42 1.42 0 00-.12-.65.78.78 0 00-.78-.41 1 1 0 00-1 .6 2.17 2.17 0 00-.13.82v2.9h-1.4V167h1.35v.78a2.42 2.42 0 01.51-.59 1.75 1.75 0 011.09-.33 2 2 0 011.38.46zM92.38 167.1a1.75 1.75 0 01.62.59v-2.56h1.41v7.24h-1.36v-.75a2 2 0 01-.68.7 1.94 1.94 0 01-1 .21 2 2 0 01-1.58-.76 2.87 2.87 0 01-.64-1.94 3.35 3.35 0 01.63-2.16 2.06 2.06 0 011.69-.79 1.74 1.74 0 01.91.22zm.35 3.81a2 2 0 00.3-1.14 1.76 1.76 0 00-.49-1.41 1.06 1.06 0 00-.71-.25 1 1 0 00-.9.46 2.16 2.16 0 00-.29 1.15 2.18 2.18 0 00.29 1.19 1 1 0 00.89.44 1 1 0 00.91-.44zM99.18 167.12a2.18 2.18 0 01.92.79 2.72 2.72 0 01.43 1.11 6.3 6.3 0 010 1.06h-3.9a1.3 1.3 0 00.56 1.13 1.42 1.42 0 00.78.2 1.18 1.18 0 00.77-.24 1.11 1.11 0 00.29-.37h1.43a1.76 1.76 0 01-.52 1 2.6 2.6 0 01-2 .78 2.94 2.94 0 01-1.89-.66 2.6 2.6 0 01-.81-2.14 2.92 2.92 0 01.73-2.14 2.6 2.6 0 011.92-.74 3 3 0 011.29.22zm-2.1 1.21a1.42 1.42 0 00-.37.83h2.41a1.17 1.17 0 00-.37-.85 1.23 1.23 0 00-.83-.29 1.1 1.1 0 00-.84.31zM14.74 177.35h100.28v1.43H14.74zM19.72 184.44a2.53 2.53 0 01.83 1.64h-.95A2 2 0 0019 185a1.93 1.93 0 00-1.33-.41 2.12 2.12 0 00-1.69.75 3.45 3.45 0 00-.64 2.3 3.39 3.39 0 00.58 2.06 2 2 0 001.73.78 1.81 1.81 0 001.62-.83 3.35 3.35 0 00.44-1.14h.95a3.3 3.3 0 01-.83 1.91 3 3 0 01-2.3.92 3 3 0 01-2.08-.76 4.7 4.7 0 01-.28-5.73 3 3 0 012.49-1.11 2.91 2.91 0 012.06.7zM22.65 185.87v3.49a1.56 1.56 0 00.12.66.86.86 0 00.86.47 1.22 1.22 0 001.23-.82 3.6 3.6 0 00.17-1.22v-2.58h.89v5.26h-.84v-.77a1.7 1.7 0 01-.42.5 1.79 1.79 0 01-1.2.42 1.56 1.56 0 01-1.51-.76 2.31 2.31 0 01-.21-1.07v-3.58zM27.39 183.92h.88v7.21h-.88zM29.77 184.4h.9v1.47h.84v.72h-.84V190a.39.39 0 00.18.37 1 1 0 00.35 0h.31v.7l-.32.07h-.36a1 1 0 01-.84-.32 1.47 1.47 0 01-.22-.82v-3.49h-.71v-.72h.71zM33.28 185.87v3.49a1.56 1.56 0 00.12.66.85.85 0 00.86.47 1.2 1.2 0 001.22-.82 3.34 3.34 0 00.18-1.22v-2.58h.88v5.26h-.83v-.77a2.07 2.07 0 01-.42.5 1.82 1.82 0 01-1.21.42 1.56 1.56 0 01-1.5-.76 2.18 2.18 0 01-.22-1.07v-3.58zM38 185.87h.84v.91a2.07 2.07 0 01.51-.65 1.33 1.33 0 01.93-.38h.28v.93H40.27a1.27 1.27 0 00-1 .43 1.46 1.46 0 00-.35 1v3H38zM44.16 188a.46.46 0 00.4-.26.77.77 0 00.06-.34.69.69 0 00-.32-.65 1.67 1.67 0 00-.92-.21 1.17 1.17 0 00-1 .37 1.22 1.22 0 00-.21.62h-.82a1.51 1.51 0 01.63-1.36 2.6 2.6 0 011.4-.38 2.84 2.84 0 011.51.36 1.19 1.19 0 01.57 1.1v3a.38.38 0 00.06.22c0 .06.12.08.24.08H46.05v.66l-.32.07h-.29a.7.7 0 01-.66-.33 1.13 1.13 0 01-.16-.48 2.31 2.31 0 01-.77.61 2.46 2.46 0 01-1.12.26 1.63 1.63 0 01-1.19-.45 1.46 1.46 0 01-.47-1.11 1.42 1.42 0 01.46-1.13 2.2 2.2 0 011.2-.5zm-1.87 2.39a1.1 1.1 0 00.67.22 1.93 1.93 0 00.9-.22 1.22 1.22 0 00.74-1.17v-.71a1.66 1.66 0 01-.42.17 3 3 0 01-.5.1l-.53.07a2 2 0 00-.72.2.77.77 0 00-.42.73.76.76 0 00.28.56zM53 186a1.9 1.9 0 01.79.68 2.13 2.13 0 01.35.92 5.53 5.53 0 01.08 1.16h-3.84a2.24 2.24 0 00.37 1.29 1.25 1.25 0 001.09.49 1.4 1.4 0 001.1-.46 1.53 1.53 0 00.32-.62h.87a1.76 1.76 0 01-.23.65 2.43 2.43 0 01-.43.58 2.07 2.07 0 01-1 .53 3.11 3.11 0 01-.72.08 2.18 2.18 0 01-1.65-.72 2.74 2.74 0 01-.68-2 3.08 3.08 0 01.68-2.06 2.28 2.28 0 011.79-.79A2.33 2.33 0 0153 186zm.31 2.06a2.24 2.24 0 00-.24-.92 1.29 1.29 0 00-1.21-.64 1.33 1.33 0 00-1 .44 1.67 1.67 0 00-.43 1.12zM55.32 185.87h.88v.75a3 3 0 01.57-.57 1.7 1.7 0 011-.3 1.58 1.58 0 011 .31 1.45 1.45 0 01.39.52 1.89 1.89 0 011.59-.83 1.48 1.48 0 011.45.77 2.59 2.59 0 01.2 1.11v3.5h-.92v-3.65a.83.83 0 00-.26-.72 1 1 0 00-.64-.2 1.29 1.29 0 00-.9.35 1.52 1.52 0 00-.37 1.16v3.06h-.9v-3.43a1.69 1.69 0 00-.13-.78.76.76 0 00-.75-.37 1.27 1.27 0 00-.91.39 1.86 1.86 0 00-.41 1.4v2.79h-.89zM66.5 185.87h.87v.75a3 3 0 01.57-.57 1.76 1.76 0 011-.3 1.6 1.6 0 011 .31 1.72 1.72 0 01.39.52 1.86 1.86 0 011.59-.83 1.45 1.45 0 011.44.77 2.44 2.44 0 01.21 1.11v3.5h-.92v-3.65a.86.86 0 00-.26-.72 1 1 0 00-.64-.2 1.29 1.29 0 00-.9.35 1.53 1.53 0 00-.38 1.16v3.06h-.9v-3.43a1.86 1.86 0 00-.12-.78.78.78 0 00-.75-.37 1.31 1.31 0 00-.92.39 1.9 1.9 0 00-.41 1.4v2.79h-.87zM78.69 186.4a2.62 2.62 0 01.7 2 3.42 3.42 0 01-.61 2.1 2.23 2.23 0 01-1.91.83 2.16 2.16 0 01-1.71-.73 2.89 2.89 0 01-.64-2 3.14 3.14 0 01.67-2.11 2.24 2.24 0 011.79-.78 2.35 2.35 0 011.71.69zm-.55 3.49a3.25 3.25 0 00.33-1.48 2.54 2.54 0 00-.24-1.19 1.3 1.3 0 00-1.27-.73 1.28 1.28 0 00-1.17.62 2.91 2.91 0 00-.36 1.49 2.53 2.53 0 00.36 1.4 1.3 1.3 0 001.16.56 1.19 1.19 0 001.19-.67zM80.91 185.87l1.41 4.29 1.46-4.29h1l-2 5.26h-1l-1.94-5.26zM85.51 183.92h.9v1h-.9zm0 2h.9v5.23h-.9zM87.74 185.87h.88v.75a3 3 0 01.57-.57 1.7 1.7 0 011-.3 1.6 1.6 0 011 .31 1.57 1.57 0 01.39.52 1.89 1.89 0 011.59-.83 1.45 1.45 0 011.44.77 2.44 2.44 0 01.21 1.11v3.5h-.92v-3.65a.86.86 0 00-.26-.72 1 1 0 00-.64-.2 1.29 1.29 0 00-.9.35 1.52 1.52 0 00-.37 1.16v3.06h-.9v-3.43a1.83 1.83 0 00-.13-.78.78.78 0 00-.75-.37 1.27 1.27 0 00-.91.39 1.86 1.86 0 00-.41 1.4v2.79h-.89zM99.37 186a1.93 1.93 0 01.8.68 2.42 2.42 0 01.35.92 6.33 6.33 0 01.08 1.16h-3.83a2.24 2.24 0 00.38 1.29 1.22 1.22 0 001.08.49 1.38 1.38 0 001.1-.46 1.53 1.53 0 00.32-.62h.87a1.72 1.72 0 01-.22.65 2.45 2.45 0 01-.44.58 2 2 0 01-1 .53 3.08 3.08 0 01-.71.08 2.2 2.2 0 01-1.66-.72 2.78 2.78 0 01-.68-2 3 3 0 01.69-2.06 2.26 2.26 0 011.78-.79 2.33 2.33 0 011.09.27zm.32 2.06a2.4 2.4 0 00-.25-.92 1.28 1.28 0 00-1.2-.64 1.35 1.35 0 00-1 .44 1.72 1.72 0 00-.43 1.12zM101.72 185.87h.84v.75a2.42 2.42 0 01.79-.67 2.18 2.18 0 01.93-.2 1.53 1.53 0 011.51.78 2.88 2.88 0 01.22 1.23v3.37h-.9v-3.31a1.91 1.91 0 00-.11-.82.87.87 0 00-.86-.49 1.9 1.9 0 00-.52.06 1.35 1.35 0 00-.63.44 1.22 1.22 0 00-.29.53 3.31 3.31 0 00-.07.8v2.75h-.88zM107.49 184.4h.89v1.47h.84v.72h-.84V190a.39.39 0 00.19.37.9.9 0 00.34 0H109.22v.7l-.31.07h-.36a1 1 0 01-.84-.32 1.39 1.39 0 01-.22-.82v-3.49h-.71v-.72h.71zM113.92 186.4a2.62 2.62 0 01.7 2 3.42 3.42 0 01-.62 2.1 2.49 2.49 0 01-3.62.1 2.94 2.94 0 01-.63-2 3.14 3.14 0 01.67-2.11 2.23 2.23 0 011.79-.78 2.35 2.35 0 011.71.69zm-.55 3.49a3.25 3.25 0 00.32-1.48 2.55 2.55 0 00-.23-1.19 1.3 1.3 0 00-1.27-.73 1.27 1.27 0 00-1.17.62 2.91 2.91 0 00-.36 1.49 2.53 2.53 0 00.34 1.4 1.3 1.3 0 001.16.56 1.19 1.19 0 001.21-.67z"/>
</svg>
