<svg xmlns="http://www.w3.org/2000/svg" width="855" height="860" viewBox="0 0 855 860" version="1.1">
	<path d="M 0 430.001 L 0 860.002 427.750 859.751 L 855.500 859.500 855.751 429.750 L 856.002 -0 428.001 -0 L 0 0 0 430.001 M 0.495 430.500 C 0.495 667, 0.610 763.601, 0.750 645.168 C 0.890 526.736, 0.890 333.236, 0.750 215.168 C 0.610 97.101, 0.495 194, 0.495 430.500 M 281 342.117 C 237.682 346.455, 201.510 364.540, 176.230 394.500 C 153.999 420.845, 141.247 451.010, 134.830 492.432 C 131.882 511.461, 131.174 552.257, 133.449 572 C 136.682 600.061, 142.407 620.806, 152.967 642.717 C 177.948 694.554, 217.892 720.567, 281 726.098 C 314.540 729.038, 347.580 724.528, 374.098 713.391 C 412.896 697.098, 445.355 659.587, 459.556 614.633 C 461.633 608.057, 466 586.555, 466 582.901 C 466 582.379, 445.694 582, 417.732 582 L 369.464 582 367.384 592.750 C 363.950 610.501, 357.043 625.078, 347.781 634.123 C 330.873 650.634, 289.826 652.708, 267.422 638.182 C 252.577 628.558, 241.751 611.456, 236.018 588.571 C 229.265 561.615, 229.223 510.122, 235.931 482.422 C 246.037 440.695, 271.787 420.071, 310.958 422.330 C 327.154 423.265, 337.673 426.860, 347.822 434.929 C 356.426 441.770, 364.876 456.528, 367.945 470.072 C 368.621 473.057, 369.391 476.288, 369.655 477.250 C 370.103 478.886, 373.291 479, 418.579 479 L 467.024 479 466.421 474.750 C 460.074 429.952, 448.484 402.460, 427.235 381.795 C 400.325 355.627, 354.254 340.608, 302.500 341.134 C 295.350 341.206, 285.675 341.649, 281 342.117 M 581.500 625.654 C 569.862 627.368, 559.446 632.557, 551.559 640.572 C 531.971 660.475, 532.167 692.167, 552 712 C 580.138 740.138, 627.400 726.392, 636.585 687.397 C 639.369 675.579, 636.993 660.265, 630.807 650.149 C 627.500 644.741, 619.399 636.461, 614.132 633.106 C 605.605 627.675, 590.775 624.288, 581.500 625.654" stroke="none" fill="black" fill-rule="evenodd"/>
</svg>