<?xml version="1.0" standalone="no"?>
<!DOCTYPE svg PUBLIC "-//W3C//DTD SVG 20010904//EN"
 "http://www.w3.org/TR/2001/REC-SVG-20010904/DTD/svg10.dtd">
<svg version="1.0" xmlns="http://www.w3.org/2000/svg"
 width="500.000000pt" height="500.000000pt" viewBox="0 0 500.000000 500.000000"
 preserveAspectRatio="xMidYMid meet">
<metadata>
Created by potrace 1.11, written by Peter Selinger 2001-2013
</metadata>
<g transform="translate(0.000000,500.000000) scale(0.100000,-0.100000)"
fill="#000000" stroke="none">
<path d="M0 2500 l0 -2500 2500 0 2500 0 0 2500 0 2500 -2500 0 -2500 0 0
-2500z m1123 1595 c176 -37 327 -188 353 -352 l7 -43 -125 0 -124 0 -23 55
c-28 68 -75 110 -148 131 -148 43 -271 -24 -334 -183 -21 -52 -23 -75 -23
-213 -1 -140 2 -161 23 -214 34 -84 101 -150 176 -172 137 -39 267 25 310 155
l17 51 124 0 124 0 -6 -27 c-27 -117 -76 -204 -158 -281 -90 -85 -191 -122
-338 -122 -282 0 -474 169 -524 460 -29 167 -4 372 60 499 47 91 150 192 236
229 97 42 250 53 373 27z m2307 -215 l0 -120 70 0 70 0 0 -80 0 -80 -70 0 -71
0 3 -254 c2 -140 6 -258 11 -262 4 -4 34 -10 67 -12 l60 -4 0 -85 0 -85 -122
3 c-141 5 -189 22 -223 80 -19 31 -20 55 -23 327 l-4 292 -59 0 -59 0 0 80 0
80 60 0 60 0 0 120 0 120 115 0 115 0 0 -120z m-1261 -108 c103 -41 151 -89
170 -172 6 -25 11 -169 11 -323 0 -279 4 -311 36 -330 8 -4 14 -15 14 -22 0
-12 -23 -15 -129 -15 l-130 0 -6 45 -7 45 -42 -34 c-66 -54 -124 -79 -197 -84
-129 -9 -235 41 -278 133 -33 70 -31 179 4 251 46 94 119 132 306 160 162 23
199 41 199 96 0 67 -106 107 -202 77 -36 -12 -47 -22 -67 -61 l-23 -48 -109 0
c-60 0 -109 2 -109 5 0 23 26 117 40 146 21 41 73 95 112 115 94 49 302 57
407 16z m881 -86 l0 -113 -74 -5 c-95 -6 -143 -30 -176 -89 -25 -43 -25 -48
-28 -306 l-4 -263 -114 0 -114 0 0 435 0 435 110 0 110 0 0 -72 0 -71 39 54
c55 77 111 106 204 108 l47 1 0 -114z m1186 100 c191 -51 305 -217 305 -444 0
-103 -13 -165 -53 -246 -54 -108 -150 -182 -270 -207 -77 -17 -231 -6 -300 20
-268 103 -345 529 -137 764 76 88 172 125 319 126 47 1 108 -5 136 -13z
m-3113 -1641 c176 -37 327 -188 353 -352 l7 -43 -125 0 -124 0 -23 55 c-28 68
-75 110 -148 131 -148 43 -271 -24 -334 -183 -21 -52 -23 -75 -23 -213 -1
-140 2 -161 23 -214 34 -84 101 -150 176 -172 137 -39 267 25 310 155 l17 51
124 0 124 0 -6 -27 c-27 -117 -76 -204 -158 -281 -90 -85 -191 -122 -338 -122
-282 0 -474 169 -524 460 -29 167 -4 372 60 499 47 91 150 192 236 229 97 42
250 53 373 27z m1222 -5 c141 -36 242 -115 300 -234 18 -39 37 -86 40 -103 l7
-33 -124 0 -123 1 -24 50 c-71 153 -333 171 -461 33 -69 -75 -100 -175 -100
-325 0 -191 55 -295 187 -356 153 -71 325 -15 397 129 45 89 46 88 -109 88
l-135 0 0 100 0 100 245 0 245 0 0 -315 0 -315 -79 0 c-88 0 -86 -2 -97 80 -4
27 -10 50 -13 50 -4 0 -23 -16 -42 -36 -81 -84 -184 -124 -319 -124 -145 0
-270 52 -370 152 -112 114 -160 248 -160 453 0 201 49 343 157 457 84 88 167
135 278 158 77 15 218 11 300 -10z"/>
<path d="M2098 3309 c-10 -5 -58 -18 -107 -29 -143 -30 -171 -51 -171 -130 0
-52 13 -76 52 -96 60 -31 180 6 218 68 20 34 34 112 28 165 -2 27 -6 30 -20
22z"/>
<path d="M4035 3599 c-40 -15 -82 -55 -108 -104 -19 -34 -22 -56 -22 -155 0
-99 3 -121 22 -155 45 -84 119 -124 205 -111 62 9 102 37 135 93 27 46 28 54
28 174 0 122 -1 127 -30 174 -17 27 -45 57 -62 68 -39 22 -127 31 -168 16z"/>
</g>
</svg>
