<?xml version="1.0" standalone="no"?>
<!DOCTYPE svg PUBLIC "-//W3C//DTD SVG 1.1//EN" "http://www.w3.org/Graphics/SVG/1.1/DTD/svg11.dtd" >
<svg xmlns="http://www.w3.org/2000/svg" xmlns:xlink="http://www.w3.org/1999/xlink" version="1.1">
<metadata>
Created by FontForge 20170731 at Sat Apr  3 00:55:20 2021
 By Aleksey,,,
Copyright (c) 2008 Gustavo Ferreira. Copyright (c) 2008 Universidade de Brasilia.
</metadata>
<defs>
<font id="UnBPro-Light" horiz-adv-x="1155" >
  <font-face 
    font-family="UnBPro-Light"
    font-weight="300"
    font-stretch="normal"
    units-per-em="2048"
    panose-1="0 0 0 0 0 0 0 0 0 0"
    ascent="1638"
    descent="-410"
    x-height="1057"
    cap-height="1376"
    bbox="-201 -569 30147 4743"
    underline-thickness="102"
    underline-position="-307"
    unicode-range="U+0020-2265"
  />
<missing-glyph horiz-adv-x="1570" 
d="M309 1303v-1229h951v1229h-951zM236 1376h1099v-1376h-1099v1376z" />
    <glyph glyph-name=".notdef" horiz-adv-x="1570" 
d="M309 1303v-1229h951v1229h-951zM236 1376h1099v-1376h-1099v1376z" />
    <glyph glyph-name=".null" horiz-adv-x="0" 
 />
    <glyph glyph-name="nonmarkingreturn" horiz-adv-x="682" 
 />
    <glyph glyph-name="space" unicode=" " horiz-adv-x="399" 
 />
    <glyph glyph-name="exclam" unicode="!" horiz-adv-x="606" 
d="M336 338h-64l-6 1075v158h74v-158zM246 0v131h114v-131h-114z" />
    <glyph glyph-name="quotedbl" unicode="&#x22;" horiz-adv-x="645" 
d="M487 1016h-61l-12 381h88zM217 1016h-61l-13 381h88z" />
    <glyph glyph-name="numbersign" unicode="#" 
d="M66 909v62h292l93 430h65l-92 -430h407l93 430h65l-92 -430h238v-62h-252l-88 -415h288v-62h-301l-92 -432h-65l92 432h-408l-90 -432h-65l90 432h-230v62h244l88 415h-280zM412 909l-88 -415h405l90 415h-407z" />
    <glyph glyph-name="dollar" unicode="$" 
d="M944 434q0 -139 -91 -216t-263 -85v-315h-68v315q-297 16 -356 260l65 15q63 -215 330 -215q154 0 235 59t81 178q0 46 -16.5 81t-42 58.5t-73 43.5t-91 32.5t-115.5 28.5q-59 13 -101.5 26.5t-89.5 37t-76 53t-48 75t-19 103.5q0 112 79.5 182.5t237.5 77.5v248h68v-248
q143 -6 220.5 -67t111.5 -179l-70 -6q-28 98 -100.5 145t-198.5 47q-131 0 -205 -50t-74 -144q0 -100 75 -152.5t231 -89.5h1h1l1 -1h1h1h1l1 -1h1h1h1l2 -1q154 -37 216 -69q133 -76 136 -227z" />
    <glyph glyph-name="percent" unicode="%" horiz-adv-x="1800" 
d="M590 942q0 208 -54 295.5t-155 87.5q-48 0 -85 -19.5t-65.5 -62t-43.5 -117.5t-15 -180q0 -377 209 -377t209 373zM668 944q-1 -100 -16.5 -177t-41 -125.5t-63 -79t-78.5 -42.5t-90 -12q-281 0 -281 436q0 125 21 213t60.5 137t89 70.5t114.5 21.5q50 0 91.5 -12.5
t78.5 -43.5t62 -80t39.5 -126.5t13.5 -179.5zM1393 1376l-904 -1376h-81l901 1376h84zM1626 424q0 208 -54 295.5t-155 87.5q-48 0 -85 -19.5t-65.5 -62t-43.5 -117.5t-15 -180q0 -87 11 -153t29.5 -108t45.5 -68.5t57 -37t66 -10.5q47 0 82.5 17.5t65 58.5t45.5 116t16 181
zM1704 426q0 -436 -289 -436q-280 0 -280 436q0 125 21 213t60 137t88.5 70.5t114.5 21.5q64 0 113 -21t89 -69t61.5 -137t21.5 -215z" />
    <glyph glyph-name="ampersand" unicode="&#x26;" horiz-adv-x="1374" 
d="M1200 -12q-89 0 -157 37.5t-142 126.5q-79 -83 -167.5 -127.5t-215.5 -44.5q-83 0 -150 22t-110.5 59t-73 86t-42.5 101.5t-13 107.5q0 295 338 426q-51 96 -71.5 167.5t-20.5 148.5q0 133 82 216t219 83q134 0 213.5 -68.5t79.5 -181.5q0 -135 -90 -223t-328 -172
q77 -136 149 -237.5t205 -262.5q72 97 121 201.5t102 271.5l64 -18q-94 -303 -246 -504q74 -88 131 -122t127 -34q74 0 135 21v-60q-53 -20 -139 -20zM526 41q200 0 338 160q-19 25 -68.5 89.5t-63.5 83t-49.5 67t-51 71.5t-42.5 63t-48 75.5t-45 78.5q-158 -63 -227.5 -154
t-69.5 -221q0 -57 17 -109t53 -99.5t102 -76t155 -28.5zM438 1100q0 -68 17 -136t69 -163q219 72 301 149.5t82 188.5q0 89 -59 145.5t-168 56.5q-111 0 -176.5 -63.5t-65.5 -177.5z" />
    <glyph glyph-name="quotesingle" unicode="'" horiz-adv-x="374" 
d="M217 1016h-61l-13 381h88z" />
    <glyph glyph-name="parenleft" unicode="(" horiz-adv-x="665" 
d="M563 -297h-76q-183 212 -263.5 433t-80.5 497t82 504t262 434h76q-189 -223 -266.5 -446t-77.5 -490q0 -269 78.5 -488.5t265.5 -443.5z" />
    <glyph glyph-name="parenright" unicode=")" horiz-adv-x="665" 
d="M178 -297h-76q187 224 265.5 443.5t78.5 488.5q0 267 -77.5 490t-266.5 446h76q180 -206 262 -434t82 -504t-80.5 -497t-263.5 -433z" />
    <glyph glyph-name="asterisk" unicode="*" horiz-adv-x="786" 
d="M422 1266l14 4l271 92l22 -57l-283 -91l-10 -4l10 -14l168 -258l-53 -31l-160 262l-8 15l-8 -15l-164 -258l-55 33l174 256l8 12l-16 5l-275 83l21 62l270 -92l17 -6v20l-5 289h66l-4 -291v-16z" />
    <glyph glyph-name="plus" unicode="+" horiz-adv-x="1198" 
d="M123 633v67h440v443h70v-443h440v-67h-440v-443h-70v443h-440z" />
    <glyph glyph-name="comma" unicode="," horiz-adv-x="522" 
d="M330 137v-92q0 -170 -78 -283h-78v2q39 54 60.5 118.5t21.5 117.5h-53v137h127z" />
    <glyph glyph-name="hyphen" unicode="-" horiz-adv-x="743" 
d="M123 512v66h477v-66h-477z" />
    <glyph glyph-name="period" unicode="." horiz-adv-x="481" 
d="M178 0v137h117v-137h-117z" />
    <glyph glyph-name="slash" unicode="/" horiz-adv-x="763" 
d="M82 -389l493 1960h66l-487 -1960h-72z" />
    <glyph glyph-name="zero" unicode="0" horiz-adv-x="1136" 
d="M944 686q0 140 -17.5 248t-49 180t-78.5 118.5t-102.5 66.5t-123.5 20q-90 0 -157.5 -32.5t-118.5 -104.5t-77.5 -196t-26.5 -298q0 -308 99.5 -476.5t278.5 -168.5q373 0 373 643zM1014 688q0 -708 -443 -708q-207 0 -327.5 181.5t-120.5 526.5q0 192 32 328.5t93 215
t140.5 113.5t184.5 35q80 0 145 -21t121.5 -71t94 -128.5t59 -197.5t21.5 -274z" />
    <glyph glyph-name="one" unicode="1" horiz-adv-x="737" 
d="M369 0v1296l-273 -198v71l289 207h49v-1376h-65z" />
    <glyph glyph-name="two" unicode="2" horiz-adv-x="1118" 
d="M123 0v57q26 97 84 182.5t128.5 148.5t150 122t153.5 114.5t134 113t96 130t36 154.5q0 157 -92 234t-256 77q-131 0 -221 -68t-123 -198l-63 10q30 144 135.5 232.5t281.5 87.5q188 -2 299 -96.5t111 -276.5q0 -93 -36 -174t-96 -142.5t-133.5 -118t-152.5 -113
t-149 -114.5t-127.5 -135.5t-83.5 -163.5h798v-63h-874z" />
    <glyph glyph-name="three" unicode="3" horiz-adv-x="1179" 
d="M1016 362q0 -182 -113.5 -282t-318.5 -100q-110 0 -193 29t-132 81t-76 113t-36 135l72 8q11 -68 34 -120t64 -94.5t108 -65.5t157 -23q169 0 266.5 84.5t97.5 237.5q0 70 -24 125.5t-63 89.5t-91 57t-103.5 32t-105.5 9h-98v63h96q59 0 117.5 18t111 53t85 96t32.5 139
q0 133 -85.5 210.5t-246.5 77.5q-135 0 -225.5 -71.5t-105.5 -202.5l-70 8q18 160 130.5 244t283.5 84q190 0 291.5 -95.5t101.5 -250.5q0 -124 -70 -213.5t-219 -122.5q163 -18 245.5 -117t82.5 -236z" />
    <glyph glyph-name="four" unicode="4" horiz-adv-x="1148" 
d="M1028 362h-197v-362h-71v362h-666v60l637 954h100v-950h197v-64zM186 438l-10 -12h584v866z" />
    <glyph glyph-name="five" unicode="5" horiz-adv-x="1196" 
d="M1036 434q0 -211 -113.5 -332.5t-332.5 -121.5q-97 0 -174 24.5t-126.5 68t-79.5 95t-46 113.5l69 10q70 -248 357 -248q187 0 280 101.5t93 291.5q0 150 -99 244t-270 94q-197 0 -311 -135l-78 16l51 719h727v-65h-659l-43 -586q112 115 323 115q197 0 314.5 -111.5
t117.5 -292.5z" />
    <glyph glyph-name="six" unicode="6" horiz-adv-x="1208" 
d="M1047 438q0 -202 -106 -330t-294 -128q-436 0 -436 626q0 380 117 585.5t331 205.5q133 0 218.5 -57t140.5 -187l-68 -18q-49 108 -120.5 154t-172.5 46q-168 0 -270 -186.5t-106 -546.5q17 68 54.5 120t87.5 84t106.5 48t117.5 16q190 0 295 -115.5t105 -316.5zM975 440
q0 171 -86.5 271t-253.5 100q-64 0 -122 -20.5t-108 -62t-80 -114t-30 -165.5q0 -72 20 -141t60 -130.5t110 -99t160 -37.5q155 0 242.5 110.5t87.5 288.5z" />
    <glyph glyph-name="seven" unicode="7" horiz-adv-x="942" 
d="M909 1309q-127 -165 -212 -303.5t-152 -297t-98 -332.5t-31 -376h-66q0 371 119 679.5t369 633.5h-768v63h839v-67z" />
    <glyph glyph-name="eight" unicode="8" horiz-adv-x="1148" 
d="M1008 375q0 -84 -25.5 -154.5t-77 -125t-136.5 -85t-196 -30.5q-203 0 -314.5 109.5t-111.5 279.5q0 144 79 239t196 121q-118 31 -181 122t-63 206q0 149 102.5 244.5t292.5 95.5q200 0 300 -94.5t100 -243.5q0 -122 -64 -212t-182 -118q123 -25 202 -122t79 -232z
M934 377q0 65 -19 119.5t-60 100t-113.5 71.5t-170.5 26q-173 0 -262.5 -90.5t-89.5 -232.5q0 -65 21.5 -123t63.5 -104.5t111.5 -73.5t157.5 -27q181 0 271 92.5t90 241.5zM901 1053q0 133 -86 206.5t-242 73.5q-158 0 -240.5 -73.5t-82.5 -202.5q0 -42 8.5 -81t31.5 -79.5
t58 -70.5t92.5 -49t130.5 -19q79 0 140 19.5t96 49t57 70t29.5 78t7.5 78.5z" />
    <glyph glyph-name="nine" unicode="9" horiz-adv-x="1165" 
d="M1006 805q0 -427 -106.5 -625t-326.5 -198q-276 0 -366 266l69 12q82 -217 297 -217q188 0 273.5 187t91.5 565q-30 -127 -123 -205t-246 -78q-181 0 -290 124.5t-109 313.5q0 205 107.5 326t302.5 121q209 0 317.5 -148.5t108.5 -443.5zM920 946q0 165 -91.5 277
t-250.5 112q-160 0 -247 -100.5t-87 -278.5q0 -175 89 -279t249 -104q144 0 241 98t97 275z" />
    <glyph glyph-name="colon" unicode=":" horiz-adv-x="487" 
d="M178 920v137h117v-137h-117zM178 0v137h117v-137h-117z" />
    <glyph glyph-name="semicolon" unicode=";" horiz-adv-x="569" 
d="M330 137v-92q0 -170 -78 -283h-78v2q39 54 60.5 118.5t21.5 117.5h-53v137h127zM219 920v137h117v-137h-117z" />
    <glyph glyph-name="less" unicode="&#x3c;" horiz-adv-x="1198" 
d="M125 612v90l950 441v-72l-885 -414l885 -419v-68z" />
    <glyph glyph-name="equal" unicode="=" horiz-adv-x="1198" 
d="M123 375v65h950v-65h-950zM123 870v66h950v-66h-950z" />
    <glyph glyph-name="greater" unicode="&#x3e;" horiz-adv-x="1198" 
d="M125 170v68l885 419l-885 414v72l950 -441v-90z" />
    <glyph glyph-name="question" unicode="?" horiz-adv-x="1177" 
d="M973 1229q0 -76 -18 -141t-52.5 -116t-65.5 -86.5t-77 -81t-68 -71.5q-48 -58 -69.5 -86.5t-50 -78t-39.5 -102t-11 -118.5v-16h-69v16q0 74 14 135.5t44 113.5t54.5 85t66.5 82q13 15 19 22q23 27 68.5 74.5t70.5 78t54.5 76.5t43 100t13.5 120q0 113 -90.5 198
t-257.5 85q-158 0 -254.5 -91t-110.5 -239l-65 10q5 76 33.5 143t80 122t135 87.5t187.5 32.5q193 0 303.5 -101.5t110.5 -252.5zM432 0v131h115v-131h-115z" />
    <glyph glyph-name="at" unicode="@" horiz-adv-x="2144" 
d="M1939 705q0 -165 -46 -290.5t-142.5 -200.5t-234.5 -75q-54 0 -91 16t-54 42t-23.5 49t-6.5 47q0 34 7 92q-117 -246 -381 -246q-165 0 -247.5 98t-82.5 263t52 293t160.5 205t260.5 77q126 0 213 -55.5t121 -157.5l45 193h61l-104 -471q-41 -192 -41 -277
q0 -59 33.5 -84.5t83.5 -25.5q161 0 258.5 135.5t97.5 365.5q0 172 -57.5 305.5t-160.5 216t-240 124.5t-302 42q-162 0 -297 -45t-227 -121t-156 -178.5t-93.5 -216t-29.5 -235.5q0 -360 206.5 -557t582.5 -197q136 0 297 46t237 89l25 -47q-89 -56 -253.5 -100.5
t-311.5 -44.5q-403 0 -623.5 215t-220.5 596q0 173 56.5 326.5t162 271.5t272.5 187t373 69q178 0 326.5 -46t259.5 -136t173 -232.5t62 -324.5zM1421 764q-21 130 -105 192t-212 62q-83 0 -151 -29t-113.5 -77.5t-76.5 -115t-44.5 -139.5t-13.5 -153q0 -307 272 -307
q67 0 125.5 19.5t113 61.5t97 117.5t67.5 179.5z" />
    <glyph glyph-name="A" unicode="A" horiz-adv-x="1220" 
d="M274 440l-159 -440h-76l512 1376h98l537 -1376h-78l-170 440h-664zM711 1030l-111 297l-111 -299l-190 -524h614z" />
    <glyph glyph-name="B" unicode="B" horiz-adv-x="1132" 
d="M1020 385q0 -101 -39 -177t-108 -120.5t-154.5 -66t-186.5 -21.5h-348v1376h291q226 0 345.5 -77t119.5 -246q0 -119 -70.5 -211t-212.5 -117q172 -10 267.5 -107t95.5 -233zM944 387q0 303 -436 303h-250v-627h277q191 0 300 81t109 243zM866 1049q0 126 -93 196
t-269 70h-246v-561h240q99 0 172 23t114.5 64.5t61.5 93t20 114.5z" />
    <glyph glyph-name="C" unicode="C" horiz-adv-x="1415" 
d="M743 -20q-310 0 -475.5 192t-165.5 524q0 336 168.5 518.5t466.5 182.5q405 0 563 -334l-69 -25q-149 295 -494 295q-267 0 -413 -167.5t-146 -469.5t149 -475.5t418 -173.5q183 0 303 75t199 243l66 -29q-83 -183 -222 -269.5t-348 -86.5z" />
    <glyph glyph-name="D" unicode="D" horiz-adv-x="1404" 
d="M1229 705q0 152 -45 268.5t-128.5 190.5t-197 111.5t-254.5 37.5h-346v-1247h375q287 0 441.5 168t154.5 471zM1303 707q0 -341 -175.5 -524t-490.5 -183h-453v1376h424q153 0 279 -41.5t219.5 -122.5t145 -210t51.5 -295z" />
    <glyph glyph-name="E" unicode="E" horiz-adv-x="1126" 
d="M184 0v1376h768v-63h-694v-574h639v-61h-639v-615h725v-63h-799z" />
    <glyph glyph-name="F" unicode="F" horiz-adv-x="1073" 
d="M258 1313v-631h641v-64h-641v-618h-74v1376h768v-63h-694z" />
    <glyph glyph-name="G" unicode="G" horiz-adv-x="1519" 
d="M776 -20q-168 0 -297 52.5t-211 148.5t-124 229t-42 297q0 205 72 359t219.5 242.5t354.5 88.5q413 0 557 -307l-70 -23q-136 268 -487 268q-276 0 -424 -169.5t-148 -458.5q0 -147 36 -266.5t108 -208.5t189 -138t271 -49q286 0 484 164v405h-467v66h538v-496
q-242 -204 -559 -204z" />
    <glyph glyph-name="H" unicode="H" horiz-adv-x="1374" 
d="M1116 0v686h-860v-686h-72v1376h72v-626h860v626h74v-1376h-74z" />
    <glyph glyph-name="I" unicode="I" horiz-adv-x="444" 
d="M184 0v1376h76v-1376h-76z" />
    <glyph glyph-name="J" unicode="J" horiz-adv-x="958" 
d="M414 -23q-316 0 -371 347l72 8q28 -151 102.5 -219t196.5 -68q143 0 214.5 81t71.5 263v926h-329v61h403v-989q0 -410 -360 -410z" />
    <glyph glyph-name="K" unicode="K" horiz-adv-x="1245" 
d="M1053 0l-568 737l-227 -239v-498h-74v1376h74v-788l717 788h94l-537 -592l611 -784h-90z" />
    <glyph glyph-name="L" unicode="L" horiz-adv-x="1032" 
d="M184 0v1376h74v-1313h696v-63h-770z" />
    <glyph glyph-name="M" unicode="M" horiz-adv-x="1595" 
d="M184 0v1376h101l438 -1087l84 -219q39 108 80 217l422 1089h102v-1376h-68l3 1182v131q-26 -78 -46 -133l-456 -1180h-74l-469 1169q-13 31 -31 81.5t-20 60.5v-12q0 -12 0.5 -30t1 -37.5t0.5 -39.5v-33v-1159h-68z" />
    <glyph glyph-name="N" unicode="N" horiz-adv-x="1386" 
d="M184 0v1376h99l856 -1300q-4 70 -4 172v1128h67v-1376h-98l-852 1303q2 -45 2 -113v-1190h-70z" />
    <glyph glyph-name="O" unicode="O" horiz-adv-x="1480" 
d="M1305 696q0 294 -146.5 465.5t-413.5 171.5q-278 0 -422.5 -168.5t-144.5 -468.5q0 -304 146.5 -477.5t420.5 -173.5q282 0 421 170t139 481zM1378 696q0 -341 -159.5 -528.5t-473.5 -187.5q-207 0 -352.5 89t-218 249t-72.5 378q0 327 165.5 514t477.5 187
q157 0 279 -52t198.5 -146.5t116 -221.5t39.5 -281z" />
    <glyph glyph-name="P" unicode="P" horiz-adv-x="1136" 
d="M1040 979q0 -186 -111 -295t-331 -109h-340v-575h-74v1376h406q230 0 340 -104t110 -293zM967 979q0 155 -94 245.5t-287 90.5h-328v-676h334q192 0 283.5 89.5t91.5 250.5z" />
    <glyph glyph-name="Q" unicode="Q" horiz-adv-x="1480" 
d="M1378 696q0 -331 -146 -516t-441 -198v-27q0 -71 22.5 -119t64 -70.5t84 -31t99.5 -8.5q113 0 164 4v-70q-85 -6 -168 -6q-55 0 -102 7.5t-93 28t-78 52.5t-51.5 83.5t-19.5 119.5v37q-295 10 -453 200.5t-158 513.5q0 327 165.5 514t477.5 187q157 0 279 -52
t198.5 -146.5t116 -221.5t39.5 -281zM1305 696q0 294 -146.5 465.5t-413.5 171.5q-279 0 -423 -168t-144 -469q0 -304 146.5 -477.5t420.5 -173.5q283 0 421.5 168.5t138.5 482.5z" />
    <glyph glyph-name="R" unicode="R" horiz-adv-x="1202" 
d="M258 610v-610h-74v1376h406q216 0 333 -98t117 -279q0 -56 -10.5 -106t-36.5 -97.5t-65.5 -83.5t-101 -62t-140.5 -36l412 -614h-82l-400 610h-20h-338zM967 999q0 147 -99 231.5t-290 84.5h-320v-647h328q381 0 381 331z" />
    <glyph glyph-name="S" unicode="S" horiz-adv-x="1239" 
d="M1094 375q0 -85 -26.5 -154.5t-82.5 -124.5t-151.5 -85.5t-225.5 -30.5q-114 0 -201 24.5t-146.5 71.5t-97.5 109.5t-61 146.5l70 14q19 -59 40 -101.5t55.5 -83t79.5 -65.5t112 -40t153 -15q208 0 309 85.5t101 244.5q0 60 -20 105.5t-51.5 76t-90.5 56.5t-116.5 42
t-149.5 37q-55 13 -96 24.5t-89 29.5t-82.5 37.5t-68 48t-54.5 62t-33.5 78t-12.5 97.5q0 161 117.5 246.5t324.5 85.5q108 0 186.5 -22t129 -66t80.5 -96t53 -126l-72 -12q-21 67 -47.5 111.5t-70 80t-109 52t-156.5 16.5q-179 0 -272 -69t-93 -199q0 -50 13 -90.5
t40.5 -71t59 -53t81 -42t93 -32t107.5 -28.5q75 -19 111.5 -28.5t97 -29t90 -36.5t69 -45.5t58 -60.5t32 -76.5t13.5 -98.5z" />
    <glyph glyph-name="T" unicode="T" horiz-adv-x="1089" 
d="M578 1315v-1315h-74v1315h-473v61h1022v-61h-475z" />
    <glyph glyph-name="U" unicode="U" horiz-adv-x="1337" 
d="M672 -20q-105 0 -192.5 31t-154 92.5t-104 160t-37.5 225.5v887h74v-884q0 -109 32 -194.5t88 -140t131 -82.5t163 -28q205 0 307 113t102 348v868h72v-872q0 -524 -481 -524z" />
    <glyph glyph-name="V" unicode="V" horiz-adv-x="1304" 
d="M621 0l-519 1376h76l447 -1202l43 -121q8 30 41 125l419 1198h74l-491 -1376h-90z" />
    <glyph glyph-name="W" unicode="W" horiz-adv-x="1955" 
d="M526 0l-424 1376h78l336 -1120l53 -180q29 110 49 178l322 1122h72l325 -1124l49 -174q19 75 50 170l342 1128h75l-419 -1376h-88l-334 1153q-35 116 -37 125l-35 -125l-328 -1153h-86z" />
    <glyph glyph-name="X" unicode="X" horiz-adv-x="1341" 
d="M102 0l531 715l-473 661h86l436 -610l426 610h84l-467 -663l514 -713h-84l-475 668l-490 -668h-88z" />
    <glyph glyph-name="Y" unicode="Y" horiz-adv-x="1222" 
d="M647 575v-575h-72v575l-473 801h82l428 -739l424 739h84z" />
    <glyph glyph-name="Z" unicode="Z" horiz-adv-x="1224" 
d="M139 0v61l844 1254h-801v61h893v-53l-852 -1260h901v-63h-985z" />
    <glyph glyph-name="bracketleft" unicode="[" horiz-adv-x="546" 
d="M164 -299v1870h301v-60h-229v-1751h229v-59h-301z" />
    <glyph glyph-name="backslash" unicode="\" horiz-adv-x="763" 
d="M682 -389h-72l-487 1960h65z" />
    <glyph glyph-name="bracketright" unicode="]" horiz-adv-x="546" 
d="M383 1571v-1870h-301v59h229v1751h-229v60h301z" />
    <glyph glyph-name="asciicircum" unicode="^" horiz-adv-x="1038" 
d="M844 358l-324 611l-323 -611h-86l362 680h92l363 -680h-84z" />
    <glyph glyph-name="underscore" unicode="_" horiz-adv-x="1175" 
d="M0 -129v59h1176v-59h-1176z" />
    <glyph glyph-name="grave" unicode="`" horiz-adv-x="708" 
d="M457 1186l-254 291v2h86l237 -291v-2h-69z" />
    <glyph glyph-name="a" unicode="a" horiz-adv-x="1150" 
d="M1090 41v-57q-36 -4 -97 -4q-77 0 -108 38t-31 109v117q-40 -130 -136 -197t-243 -67q-159 0 -245.5 83t-86.5 220q0 162 120.5 244.5t340.5 82.5h250v107q0 153 -72 227t-223 74q-133 0 -205 -54t-92 -173l-72 6q19 134 112 207t259 73q365 0 365 -352v-594
q0 -46 17.5 -68t64.5 -22h82zM475 39q96 0 170 36t119 100.5t67.5 148.5t22.5 184v45h-231q-410 0 -410 -268q0 -112 69 -179t193 -67z" />
    <glyph glyph-name="b" unicode="b" horiz-adv-x="1173" 
d="M1051 541q0 -201 -50.5 -327t-141 -180t-226.5 -54q-80 0 -147.5 25t-123.5 87.5t-81 157.5q0 -175 -7 -250h-69q8 60 8 209v1362h70v-662q0 -26 -2 -56.5t-2 -37.5q29 114 120.5 188t243.5 74q194 0 301 -129.5t107 -406.5zM977 539q0 475 -342 475q-185 0 -268.5 -115
t-83.5 -354q0 -504 344 -504q83 0 145 25.5t109.5 82t71.5 154.5t24 236z" />
    <glyph glyph-name="c" unicode="c" horiz-adv-x="1062" 
d="M559 -20q-117 0 -203 42t-136 119t-73.5 175t-23.5 221q0 140 32.5 245.5t91.5 169t135.5 94.5t170.5 31q163 0 258 -79.5t123 -215.5l-76 -6q-48 238 -305 238q-169 0 -260.5 -117.5t-91.5 -357.5q0 -496 358 -496q247 0 307 268l74 -6q-11 -62 -37 -116.5t-70.5 -103
t-115 -77t-158.5 -28.5z" />
    <glyph glyph-name="d" unicode="d" horiz-adv-x="1124" 
d="M526 -20q-202 0 -302.5 131t-100.5 428q0 276 109.5 407t302.5 131q146 0 237.5 -67t120.5 -176q-2 33 -2 106v631h70v-1362q0 -119 8 -209h-70q-6 64 -6 252q-43 -146 -140.5 -209t-226.5 -63zM537 43q171 0 262.5 125.5t91.5 382.5q0 465 -356 465q-160 0 -249 -115
t-89 -360q0 -268 86 -383t254 -115z" />
    <glyph glyph-name="e" unicode="e" horiz-adv-x="1093" 
d="M561 -20q-220 0 -329 145t-109 405q0 279 117.5 413t318.5 134q96 0 168.5 -26t118.5 -70t74.5 -108.5t39.5 -134.5t11 -156q0 -3 -1 -30t-1 -30h-770v-16q0 -137 36.5 -239t120 -164t207.5 -62q95 0 158 24.5t98.5 64.5t71.5 112l65 -21q-24 -48 -45.5 -81t-54.5 -65.5
t-72 -51.5t-95.5 -31t-127.5 -12zM559 1018q-75 0 -137 -23.5t-112.5 -73t-79.5 -135.5t-31 -202h696v20q0 414 -336 414z" />
    <glyph glyph-name="f" unicode="f" horiz-adv-x="593" 
d="M72 999v58h151v342q0 84 41 134t146 50h112v-57h-104q-67 0 -95 -30.5t-28 -98.5v-340h223v-58h-223v-999h-72v999h-151z" />
    <glyph glyph-name="g" unicode="g" horiz-adv-x="1120" 
d="M520 -18q-209 0 -303 135.5t-94 419.5q0 268 98.5 404t304.5 136q143 0 236.5 -66.5t126.5 -195.5l4 242h72l-7 -199v-905q0 -422 -421 -422q-168 0 -259.5 64.5t-117.5 168.5l69 13q55 -187 306 -187q354 0 354 363v295l2 33q-17 -58 -45 -108.5t-71.5 -95t-109 -70
t-145.5 -25.5zM889 547q0 233 -85.5 352t-266.5 119q-172 0 -257 -116.5t-85 -362.5q0 -261 81.5 -378.5t262.5 -117.5q160 0 255 126.5t95 377.5z" />
    <glyph glyph-name="h" unicode="h" horiz-adv-x="1169" 
d="M279 911q0 -6 -2.5 -50.5t-2.5 -63.5q13 54 40 102t69.5 89t105.5 65t140 24q344 0 344 -360v-717h-70v709q0 307 -287 307q-147 0 -242 -110t-95 -310v-596h-70v1571h70v-660z" />
    <glyph glyph-name="i" unicode="i" horiz-adv-x="460" 
d="M205 0v1057h71v-1057h-71zM195 1333v115h92v-115h-92z" />
    <glyph glyph-name="j" unicode="j" horiz-adv-x="460" 
d="M88 -469q-8 0 -74 4v66q25 -2 64 -2q77 0 102 32t25 133v1293h71v-1278q0 -47 -2 -76.5t-8 -61t-18.5 -49.5t-33.5 -33t-52 -21.5t-74 -6.5zM195 1333v115h92v-115h-92z" />
    <glyph glyph-name="k" unicode="k" horiz-adv-x="968" 
d="M856 0l-430 522l-152 -147v-375h-69v1571h69v-1114l562 600h90l-453 -486l467 -571h-84z" />
    <glyph glyph-name="l" unicode="l" horiz-adv-x="458" 
d="M205 0v1571h69v-1571h-69z" />
    <glyph glyph-name="m" unicode="m" horiz-adv-x="1734" 
d="M844 0v719q0 91 -16 150.5t-50 90.5t-75 42.5t-103 11.5q-138 0 -228.5 -112t-90.5 -296v-606h-72v842q0 119 -4 215h65q7 -151 4 -264q14 54 40.5 102.5t67 90.5t99.5 66.5t129 24.5q69 0 116.5 -11t87.5 -40.5t62 -84.5t27 -138q11 48 38 94.5t69 87.5t104 66.5
t133 25.5q74 0 125.5 -14t94 -51t63 -106.5t20.5 -174.5v-731h-71v719q0 91 -16 150.5t-50 90.5t-76.5 42.5t-105.5 11.5q-135 0 -225.5 -111.5t-90.5 -296.5v-606h-71z" />
    <glyph glyph-name="n" unicode="n" horiz-adv-x="1159" 
d="M905 0v709q0 307 -289 307q-148 0 -241.5 -110.5t-93.5 -309.5v-596h-70v801q0 139 -4 256h65l4 -262q29 125 122 203.5t233 78.5q344 0 344 -360v-717h-70z" />
    <glyph glyph-name="o" unicode="o" horiz-adv-x="1132" 
d="M932 539q0 252 -90 365.5t-275 113.5q-368 0 -368 -481q0 -261 97 -379.5t269 -118.5q178 0 272.5 118t94.5 382zM1010 539q0 -559 -443 -559q-100 0 -179 30.5t-139.5 94.5t-93 173.5t-32.5 258.5q0 275 115 407.5t329 132.5q222 0 332.5 -130.5t110.5 -407.5z" />
    <glyph glyph-name="p" unicode="p" horiz-adv-x="1173" 
d="M1051 539q0 -281 -96.5 -420t-311.5 -139q-134 0 -233.5 74.5t-133.5 224.5q5 -63 5 -86v-650h-70v1231l-4 283h69l7 -246q35 126 126 196t240 70q195 0 298.5 -128.5t103.5 -409.5zM977 541q0 475 -330 475q-366 0 -366 -471q0 -504 352 -504q84 0 145.5 25t107.5 82
t68.5 154.5t22.5 238.5z" />
    <glyph glyph-name="q" unicode="q" horiz-adv-x="1120" 
d="M524 -20q-211 0 -306 135.5t-95 419.5q0 147 27.5 252.5t80.5 168.5t125 92t168 29q302 0 369 -266q-1 47 0 108t3 101t3 41h66q0 -1 -0.5 -19.5t-1 -49.5t-1 -67.5t-1 -81t-0.5 -83.5l2 -1217h-72v680l2 43q-45 -149 -135.5 -217.5t-233.5 -68.5zM537 43q352 0 352 508
q0 133 -24.5 225.5t-72.5 144.5t-109.5 74.5t-145.5 22.5q-167 0 -254.5 -109.5t-87.5 -367.5q0 -141 23 -239.5t69.5 -154.5t106.5 -80t143 -24z" />
    <glyph glyph-name="r" unicode="r" horiz-adv-x="690" 
d="M618 993h-38q-70 0 -128.5 -32t-94.5 -82.5t-56 -110.5t-20 -119v-649h-72v801q0 104 -4 256h67q5 -188 4 -250q27 111 112 184.5t198 73.5h32v-72z" />
    <glyph glyph-name="s" unicode="s" horiz-adv-x="983" 
d="M870 281q0 -146 -99.5 -223.5t-287.5 -77.5q-329 0 -391 260l66 14q63 -215 329 -215q154 0 235 59t81 178q0 46 -16.5 81t-42 58.5t-73 43.5t-91 32.5t-115.5 28.5q-59 13 -101.5 26.5t-89.5 37t-76 53t-48 75t-19 103.5q0 120 87.5 191t262.5 71q160 0 246 -62
t121 -186l-70 -6q-28 98 -100.5 145.5t-198.5 47.5q-131 0 -204.5 -50.5t-73.5 -144.5q0 -52 20 -91t63 -66.5t94 -46.5t128 -37h1h1l1 -1h1h1h1l1 -1h1h1h1l2 -1q154 -37 216 -69q133 -76 136 -227z" />
    <glyph glyph-name="t" unicode="t" horiz-adv-x="600" 
d="M72 999v58h145v299h70v-299h225v-58h-225v-827q0 -72 29 -98.5t102 -26.5h100v-63q-86 -4 -125 -4q-99 0 -137.5 48t-38.5 130v841h-145z" />
    <glyph glyph-name="u" unicode="u" horiz-adv-x="1077" 
d="M209 1057v-711q0 -167 68 -238t206 -71q161 0 263 108.5t102 292.5v619h70v-838l4 -219h-68l-4 246q-102 -266 -381 -266q-169 0 -249.5 83.5t-80.5 272.5v721h70z" />
    <glyph glyph-name="v" unicode="v" horiz-adv-x="925" 
d="M506 0h-72l-403 1057h73l308 -828q28 -74 59 -168q0 16 59 177l293 819h72z" />
    <glyph glyph-name="w" unicode="w" horiz-adv-x="1423" 
d="M350 0l-309 1057h76l221 -795l59 -209q21 92 52 209l210 795h95l217 -795l59 -215q22 100 55 217l220 793h77l-305 -1057h-96l-242 889l-32 125q-15 -55 -31 -123l-230 -891h-96z" />
    <glyph glyph-name="x" unicode="x" horiz-adv-x="915" 
d="M786 0l-327 498l-332 -498h-76l365 539l-342 518h78l307 -477l303 477h76l-338 -516l364 -541h-78z" />
    <glyph glyph-name="y" unicode="y" horiz-adv-x="937" 
d="M180 -469h-119v57h93q47 0 77 8t52.5 32.5t35.5 51.5t33 82l86 230l-418 1065h74l262 -680l119 -309q54 157 111 313l252 676h73l-497 -1311q-50 -131 -97 -173t-137 -42z" />
    <glyph glyph-name="z" unicode="z" horiz-adv-x="911" 
d="M72 0v61l637 934h-617v62h696v-62l-641 -934h672v-61h-747z" />
    <glyph glyph-name="braceleft" unicode="{" horiz-adv-x="745" 
d="M643 -299h-94q-199 0 -199 233v437q0 119 -60 175t-167 58v66q97 2 162 63.5t65 175.5v428q0 234 199 234h94v-60h-70q-87 0 -120 -48.5t-33 -151.5v-414q0 -102 -51 -169.5t-138 -88.5q92 -19 140.5 -85t48.5 -171v-422q0 -107 35 -154t118 -47h70v-59z" />
    <glyph glyph-name="bar" unicode="|" horiz-adv-x="718" 
d="M328 -391v1962h63v-1962h-63z" />
    <glyph glyph-name="braceright" unicode="}" horiz-adv-x="745" 
d="M197 -299h-95v59h70q83 0 118.5 47t35.5 154v422q0 105 48 171t140 85q-87 21 -137.5 88.5t-50.5 169.5v414q0 103 -33.5 151.5t-120.5 48.5h-70v60h95q198 0 198 -234v-428q0 -114 65.5 -175.5t162.5 -63.5v-66q-107 -2 -167.5 -58t-60.5 -175v-437q0 -233 -198 -233z
" />
    <glyph glyph-name="asciitilde" unicode="~" horiz-adv-x="1198" 
d="M834 592q-84 0 -275 70q-114 43 -209 43q-69 0 -123.5 -21.5t-115.5 -65.5v66q114 82 251 82q25 0 53 -3.5t47.5 -7t53 -13.5t45.5 -13.5t51 -17t45 -15.5q119 -45 191 -45q124 0 235 90v-71q-60 -44 -115.5 -61t-133.5 -17z" />
    <glyph glyph-name="exclamdown" unicode="&#xa1;" horiz-adv-x="606" 
d="M272 719h64l4 -1075v-158h-74v158zM246 926v131h114v-131h-114z" />
    <glyph glyph-name="cent" unicode="&#xa2;" 
d="M633 -182h-68v317q-85 6 -152.5 36.5t-112.5 79.5t-74.5 116t-42.5 143t-13 164q0 275 106.5 411t288.5 146v246h68v-246q289 -16 348 -305l-76 -6q-21 128 -102 188.5t-203 60.5q-175 0 -263.5 -118.5t-88.5 -370.5q0 -83 11 -152.5t37 -131.5t66.5 -104.5t102 -67.5
t141.5 -25q247 0 307 268l74 -6q-11 -59 -35.5 -112t-65.5 -101t-106.5 -78.5t-146.5 -34.5v-317z" />
    <glyph glyph-name="sterling" unicode="&#xa3;" 
d="M115 651v62h182v317q0 176 87 264t245 88q230 0 307 -174l-57 -22q-27 64 -91.5 100.5t-158.5 36.5q-131 0 -197.5 -70t-66.5 -223v-317h438v-62h-438v-207q0 -123 -42.5 -226t-117.5 -155h532q108 0 156.5 42t69.5 147l61 -6q-26 -139 -90 -192.5t-199 -53.5h-620v80
q182 89 182 369v202h-182z" />
    <glyph glyph-name="currency" unicode="&#xa4;" 
d="M207 244l-51 49l139 137q-86 99 -86 244q0 142 80 235l-133 135l51 50l133 -138q99 74 240 74q138 0 235 -78l141 142l52 -50l-144 -141q74 -97 74 -231q0 -145 -74 -238l144 -141l-52 -49l-139 143q-91 -76 -237 -76q-139 0 -234 74zM868 668q0 128 -81.5 211.5
t-211.5 83.5q-131 0 -212.5 -78t-81.5 -215q0 -127 85 -210t214 -83q136 0 212 76t76 215z" />
    <glyph glyph-name="yen" unicode="&#xa5;" 
d="M195 328l-2 55h344v168h-342v55h323l-455 770h82l428 -739l424 739h84l-454 -770h336v-55h-355v-168h350v-55h-350v-328h-71v328h-342z" />
    <glyph glyph-name="brokenbar" unicode="&#xa6;" horiz-adv-x="720" 
d="M328 -391v786h65v-786h-65zM328 756v815h65v-815h-65z" />
    <glyph glyph-name="section" unicode="&#xa7;" horiz-adv-x="1159" 
d="M967 1219l-64 -13q-26 90 -98.5 136.5t-212.5 46.5q-134 0 -209.5 -45.5t-75.5 -139.5q0 -26 3.5 -47t15.5 -39t22 -31t35.5 -27t42 -22.5t56.5 -22t64.5 -21t78.5 -23.5q184 -54 271 -121t87 -184q0 -100 -64 -168t-188 -92q56 -18 97.5 -38.5t79 -51t57.5 -74t20 -99.5
q0 -122 -110 -200t-289 -78q-166 0 -269.5 65t-134.5 187l64 12q59 -203 340 -203q152 0 240.5 59.5t88.5 157.5q0 41 -15 73t-37 53.5t-70 43.5t-91 36.5t-122 37.5q-75 22 -126 40.5t-101 44t-79 54t-47 68t-18 88.5q0 103 70 173t208 91q-58 17 -98 35.5t-77 48t-55.5 73
t-18.5 101.5q0 246 356 246q308 0 373 -231zM279 684q0 -90 80 -141.5t257 -102.5q158 8 228.5 69.5t70.5 156.5q0 88 -73.5 142t-231.5 101q-331 -22 -331 -225z" />
    <glyph glyph-name="dieresis" unicode="&#xa8;" horiz-adv-x="684" 
d="M82 1237v115h92v-115h-92zM508 1237v115h92v-115h-92z" />
    <glyph glyph-name="copyright" unicode="&#xa9;" horiz-adv-x="1509" 
d="M465 711q0 -346 295 -346q98 0 158 41t98 124l65 -20q-99 -211 -321 -211q-181 0 -276 108.5t-95 301.5q0 187 93.5 295t275.5 108q130 0 202.5 -50t114.5 -144l-71 -19q-29 67 -90 108.5t-154 41.5q-295 0 -295 -338zM1384 707q0 170 -84.5 315t-229.5 229t-316 84
q-170 0 -314.5 -84t-228.5 -228.5t-84 -315.5q0 -129 49.5 -245.5t133.5 -200.5t200 -133.5t244 -49.5q171 0 316 84.5t229.5 229.5t84.5 315zM1450 707q0 -190 -92.5 -350t-253 -253.5t-350.5 -93.5q-141 0 -270 55t-222.5 148.5t-149 222.5t-55.5 271q0 190 93.5 350.5
t253.5 253t350 92.5q114 0 220.5 -35t192 -99t149.5 -149.5t99 -192t35 -220.5z" />
    <glyph glyph-name="ordfeminine" unicode="&#xaa;" horiz-adv-x="757" 
d="M72 870q0 110 79 168.5t222 61.5l196 2v72q0 89 -45 134.5t-153 45.5q-99 0 -146 -41t-57 -117l-70 6q27 207 283 207q119 0 187.5 -54.5t68.5 -172.5v-371q0 -42 12.5 -60t44.5 -18h49v-59q-29 -2 -57 -2q-52 0 -82 28t-33 76q0 30 -2 53q-27 -77 -98.5 -120t-165.5 -43
q-114 0 -173.5 56.5t-59.5 147.5zM319 727q112 0 181 75t69 185v60l-168 -3q-258 -3 -258 -170q0 -71 46 -109t130 -38z" />
    <glyph glyph-name="guillemotleft" unicode="&#xab;" horiz-adv-x="1163" 
d="M502 139l-400 389v4l398 388h88v-2l-393 -388l393 -389v-2h-86zM924 139l-400 389v4l398 388h88v-2l-394 -388l394 -389v-2h-86z" />
    <glyph glyph-name="logicalnot" unicode="&#xac;" horiz-adv-x="1198" 
d="M1004 197v438h-881v65h950v-503h-69z" />
    <glyph glyph-name="macron" unicode="&#xaf;" horiz-adv-x="1056" 
d="M954 1280h-825v53h825v-53z" />
    <glyph glyph-name="degree" unicode="&#xb0;" horiz-adv-x="841" 
d="M606 1145q0 77 -53.5 131.5t-130.5 54.5t-130.5 -54.5t-53.5 -131.5t53 -130.5t131 -53.5t131 53.5t53 130.5zM676 1145q0 -106 -74 -181t-180 -75q-104 0 -181 75.5t-77 180.5q0 106 77 181t181 75q106 0 180 -74.5t74 -181.5z" />
    <glyph glyph-name="plusminus" unicode="&#xb1;" horiz-adv-x="1120" 
d="M86 662v61h440v448h70v-448h440v-61h-440v-443h-70v443h-440zM86 0v61h950v-61h-950z" />
    <glyph glyph-name="acute" unicode="&#xb4;" horiz-adv-x="708" 
d="M61 1186v2l238 291h86v-2l-254 -291h-70z" />
    <glyph glyph-name="paragraph" unicode="&#xb6;" horiz-adv-x="1071" 
d="M811 1325v-1583h-53v1583h-273v-1583h-55v938q-161 0 -256.5 89t-95.5 257q0 163 95 256.5t265 93.5h523v-51h-150z" />
    <glyph glyph-name="periodcentered" unicode="&#xb7;" horiz-adv-x="505" 
d="M184 477v137h117v-137h-117z" />
    <glyph glyph-name="cedilla" unicode="&#xb8;" horiz-adv-x="714" 
d="M479 -262q0 -170 -250 -170q-50 0 -77 4v49q39 -2 84 -2q91 0 137.5 26.5t46.5 92.5q0 90 -166 90q-30 0 -55 -4l67 176h62l-43 -123q84 0 139 -36t55 -103z" />
    <glyph glyph-name="ordmasculine" unicode="&#xba;" horiz-adv-x="747" 
d="M610 1042q0 165 -54.5 237.5t-176.5 72.5q-119 0 -177.5 -73.5t-58.5 -236.5q0 -321 234 -321q233 0 233 321zM686 1042q0 -378 -307 -378q-159 0 -234 93t-75 285q0 369 309 369q163 0 235 -90.5t72 -278.5z" />
    <glyph glyph-name="guillemotright" unicode="&#xbb;" horiz-adv-x="1163" 
d="M240 920l399 -390v-4l-397 -387h-88v2l393 387l-393 390v2h86zM662 920l399 -390v-4l-397 -387h-89v2l394 387l-394 390v2h87z" />
    <glyph glyph-name="questiondown" unicode="&#xbf;" horiz-adv-x="952" 
d="M-41 -170q0 76 18 141t52.5 116t65.5 86.5t77 81t68 71.5q48 58 69.5 86.5t50 78t39.5 102t11 118.5v16h69v-16q0 -74 -14 -135.5t-44.5 -115t-54.5 -85t-67 -82.5l-18 -21q-23 -27 -68.5 -74.5t-70.5 -77.5t-54.5 -76t-43 -100t-13.5 -120q0 -113 90.5 -198t257.5 -85
q158 0 254 91t110 239l66 -10q-5 -76 -33.5 -143t-80 -122t-135 -87.5t-187.5 -32.5q-193 0 -303.5 101.5t-110.5 252.5zM500 1059v-131h-115v131h115z" />
    <glyph glyph-name="Agrave" unicode="&#xc0;" horiz-adv-x="1220" 
d="M115 0l159 440h664l170 -440h78l-537 1376h-98l-512 -1376h76zM600 1327l111 -297l202 -526h-614l190 524zM598 1473l-240 274v18h72l229 -280v-12h-61z" />
    <glyph glyph-name="Aacute" unicode="&#xc1;" horiz-adv-x="1220" 
d="M115 0l159 440h664l170 -440h78l-537 1376h-98l-512 -1376h76zM600 1327l111 -297l202 -526h-614l190 524zM551 1473v12l229 280h72v-18l-240 -274h-61z" />
    <glyph glyph-name="Acircumflex" unicode="&#xc2;" horiz-adv-x="1220" 
d="M115 0l159 440h664l170 -440h78l-537 1376h-98l-512 -1376h76zM600 1327l111 -297l202 -526h-614l190 524zM891 1473h-62l-229 188h-2l-238 -188h-61v14l260 229h84l248 -229v-14z" />
    <glyph glyph-name="Atilde" unicode="&#xc3;" horiz-adv-x="1220" 
d="M115 0l159 440h664l170 -440h78l-537 1376h-98l-512 -1376h76zM600 1327l111 -297l202 -526h-614l190 524zM760 1540q-55 0 -112 29t-108.5 57.5t-93.5 28.5q-110 0 -110 -107v-8h-64v6q0 82 47 123t127 41q44 0 91 -18.5t80.5 -40t73 -40t69.5 -18.5q58 0 87.5 29
t29.5 82v6h57v-6q0 -78 -43.5 -121t-130.5 -43z" />
    <glyph glyph-name="Adieresis" unicode="&#xc4;" horiz-adv-x="1220" 
d="M115 0l159 440h664l170 -440h78l-537 1376h-98l-512 -1376h76zM600 1327l111 -297l202 -526h-614l190 524zM379 1493v115h92v-115h-92zM731 1493v115h92v-115h-92z" />
    <glyph glyph-name="Aring" unicode="&#xc5;" horiz-adv-x="1220" 
d="M115 0l159 440h664l170 -440h78l-537 1376h-98l-512 -1376h76zM600 1327l111 -297l202 -526h-614l190 524zM809 1614q0 -85 -60.5 -146t-146.5 -61q-85 0 -145 61t-60 146q0 87 60 146t145 59q87 0 147 -59t60 -146zM745 1614q0 62 -41 103.5t-102 41.5
q-62 0 -103.5 -41.5t-41.5 -103.5t42 -104t103 -42t102 42t41 104z" />
    <glyph glyph-name="AE" unicode="&#xc6;" horiz-adv-x="2048" 
d="M1849 0h-796v416l-551 -2l-195 -414h-78l658 1376h932v-65h-693v-572h641v-63h-641v-613h723v-63zM844 1141l-309 -656h518v826h-131z" />
    <glyph glyph-name="Ccedilla" unicode="&#xc7;" horiz-adv-x="1415" 
d="M924 -262q0 -170 -250 -170q-51 0 -78 4v49q39 -2 84 -2q91 0 137.5 26.5t46.5 92.5q0 90 -166 90q-30 0 -55 -4l59 158q-291 12 -445.5 202.5t-154.5 511.5q0 336 168.5 518.5t466.5 182.5q405 0 563 -334l-69 -25q-149 295 -494 295q-267 0 -413 -167.5t-146 -469.5
t149 -475.5t418 -173.5q183 0 303 75t199 243l66 -29q-82 -178 -215.5 -264.5t-333.5 -91.5l-35 -103q84 0 139.5 -36t55.5 -103z" />
    <glyph glyph-name="Egrave" unicode="&#xc8;" horiz-adv-x="1126" 
d="M184 0v1376h768v-63h-694v-574h639v-61h-639v-615h725v-63h-799zM592 1473l-240 274v18h72l229 -280v-12h-61z" />
    <glyph glyph-name="Eacute" unicode="&#xc9;" horiz-adv-x="1126" 
d="M184 0v1376h768v-63h-694v-574h639v-61h-639v-615h725v-63h-799zM545 1473v12l229 280h72v-18l-240 -274h-61z" />
    <glyph glyph-name="Ecircumflex" unicode="&#xca;" horiz-adv-x="1126" 
d="M184 0v1376h768v-63h-694v-574h639v-61h-639v-615h725v-63h-799zM885 1473h-62l-229 188h-2l-238 -188h-61v14l260 229h84l248 -229v-14z" />
    <glyph glyph-name="Edieresis" unicode="&#xcb;" horiz-adv-x="1126" 
d="M184 0v1376h768v-63h-694v-574h639v-61h-639v-615h725v-63h-799zM373 1493v115h92v-115h-92zM725 1493v115h92v-115h-92z" />
    <glyph glyph-name="Igrave" unicode="&#xcc;" horiz-adv-x="444" 
d="M184 0v1376h76v-1376h-76zM209 1473l-240 274v18h72l229 -280v-12h-61z" />
    <glyph glyph-name="Iacute" unicode="&#xcd;" horiz-adv-x="444" 
d="M184 0v1376h76v-1376h-76zM168 1473v12l143 280h82v-18l-164 -274h-61z" />
    <glyph glyph-name="Icircumflex" unicode="&#xce;" horiz-adv-x="444" 
d="M184 0v1376h76v-1376h-76zM502 1473h-62l-229 188h-2l-238 -188h-61v14l260 229h84l248 -229v-14z" />
    <glyph glyph-name="Idieresis" unicode="&#xcf;" horiz-adv-x="444" 
d="M184 0v1376h76v-1376h-76zM-10 1493v115h92v-115h-92zM342 1493v115h92v-115h-92z" />
    <glyph glyph-name="Eth" unicode="&#xd0;" horiz-adv-x="1404" 
d="M1303 707q0 -341 -175.5 -524t-490.5 -183h-453v614h-172v68h172v694h424q153 0 279 -41.5t219.5 -122.5t145 -210t51.5 -295zM1229 705q0 152 -45 268.5t-128.5 190.5t-197 111.5t-254.5 37.5h-346v-631h377v-68h-377v-548h375q287 0 441.5 168t154.5 471z" />
    <glyph glyph-name="Ntilde" unicode="&#xd1;" horiz-adv-x="1386" 
d="M184 0v1376h99l856 -1300q-4 70 -4 172v1128h67v-1376h-98l-852 1303q2 -45 2 -113v-1190h-70zM831 1540q-43 0 -89 18t-78 39.5t-72 39.5t-74 18q-110 0 -110 -107v-8h-64v6q0 82 47 123t127 41q44 0 91 -18.5t80 -40t72.5 -40t69.5 -18.5q58 0 87.5 29t29.5 82v6h58v-6
q0 -78 -44 -121t-131 -43z" />
    <glyph glyph-name="Ograve" unicode="&#xd2;" horiz-adv-x="1480" 
d="M1305 696q0 294 -146.5 465.5t-413.5 171.5q-278 0 -422.5 -168.5t-144.5 -468.5q0 -304 146.5 -477.5t420.5 -173.5q282 0 421 170t139 481zM1378 696q0 -341 -159.5 -528.5t-473.5 -187.5q-207 0 -352.5 89t-218 249t-72.5 378q0 327 165.5 514t477.5 187
q157 0 279 -52t198.5 -146.5t116 -221.5t39.5 -281zM748 1473l-240 274v18h72l229 -280v-12h-61z" />
    <glyph glyph-name="Oacute" unicode="&#xd3;" horiz-adv-x="1480" 
d="M1305 696q0 294 -146.5 465.5t-413.5 171.5q-278 0 -422.5 -168.5t-144.5 -468.5q0 -304 146.5 -477.5t420.5 -173.5q282 0 421 170t139 481zM1378 696q0 -341 -159.5 -528.5t-473.5 -187.5q-207 0 -352.5 89t-218 249t-72.5 378q0 327 165.5 514t477.5 187
q157 0 279 -52t198.5 -146.5t116 -221.5t39.5 -281zM700 1473v12l230 280h71v-18l-239 -274h-62z" />
    <glyph glyph-name="Ocircumflex" unicode="&#xd4;" horiz-adv-x="1480" 
d="M1305 696q0 294 -146.5 465.5t-413.5 171.5q-278 0 -422.5 -168.5t-144.5 -468.5q0 -304 146.5 -477.5t420.5 -173.5q282 0 421 170t139 481zM1378 696q0 -341 -159.5 -528.5t-473.5 -187.5q-207 0 -352.5 89t-218 249t-72.5 378q0 327 165.5 514t477.5 187
q157 0 279 -52t198.5 -146.5t116 -221.5t39.5 -281zM1040 1473h-61l-229 188h-2l-238 -188h-61v14l260 229h84l247 -229v-14z" />
    <glyph glyph-name="Otilde" unicode="&#xd5;" horiz-adv-x="1480" 
d="M1305 696q0 294 -146.5 465.5t-413.5 171.5q-278 0 -422.5 -168.5t-144.5 -468.5q0 -304 146.5 -477.5t420.5 -173.5q282 0 421 170t139 481zM1378 696q0 -341 -159.5 -528.5t-473.5 -187.5q-207 0 -352.5 89t-218 249t-72.5 378q0 327 165.5 514t477.5 187
q157 0 279 -52t198.5 -146.5t116 -221.5t39.5 -281zM909 1540q-43 0 -89 18t-78 39.5t-72 39.5t-74 18q-48 0 -79.5 -24.5t-31.5 -82.5v-8h-63v6q0 82 47 123t127 41q44 0 91 -18.5t80 -40t72.5 -40t69.5 -18.5q58 0 87.5 29t29.5 82v6h57v-6q0 -78 -43.5 -121t-130.5 -43z
" />
    <glyph glyph-name="Odieresis" unicode="&#xd6;" horiz-adv-x="1480" 
d="M1305 696q0 294 -146.5 465.5t-413.5 171.5q-278 0 -422.5 -168.5t-144.5 -468.5q0 -304 146.5 -477.5t420.5 -173.5q282 0 421 170t139 481zM1378 696q0 -341 -159.5 -528.5t-473.5 -187.5q-207 0 -352.5 89t-218 249t-72.5 378q0 327 165.5 514t477.5 187
q157 0 279 -52t198.5 -146.5t116 -221.5t39.5 -281zM528 1493v115h93v-115h-93zM881 1493v115h92v-115h-92z" />
    <glyph glyph-name="multiply" unicode="&#xd7;" horiz-adv-x="1212" 
d="M967 981l-312 -311l314 -314l-49 -49l-314 314l-311 -312l-47 47l311 312l-313 313l49 49l313 -313l312 311z" />
    <glyph glyph-name="Oslash" unicode="&#xd8;" horiz-adv-x="1480" 
d="M1378 696q0 -341 -159.5 -528.5t-473.5 -187.5q-266 0 -432 147l-123 -147h-84l162 192q-166 187 -166 524q0 327 165.5 514t477.5 187q265 0 429 -148l120 146h84l-159 -191q159 -187 159 -508zM178 696q0 -295 137 -467l811 965q-142 139 -381 139
q-278 0 -422.5 -168.5t-144.5 -468.5zM1305 696q0 279 -136 451l-809 -967q141 -135 385 -135q282 0 421 170t139 481z" />
    <glyph glyph-name="Ugrave" unicode="&#xd9;" horiz-adv-x="1337" 
d="M672 -20q-105 0 -192.5 31t-154 92.5t-104 160t-37.5 225.5v887h74v-884q0 -109 32 -194.5t88 -140t131 -82.5t163 -28q205 0 307 113t102 348v868h72v-872q0 -524 -481 -524zM670 1473l-240 274v18h72l229 -280v-12h-61z" />
    <glyph glyph-name="Uacute" unicode="&#xda;" horiz-adv-x="1337" 
d="M672 -20q-105 0 -192.5 31t-154 92.5t-104 160t-37.5 225.5v887h74v-884q0 -109 32 -194.5t88 -140t131 -82.5t163 -28q205 0 307 113t102 348v868h72v-872q0 -524 -481 -524zM623 1473v12l229 280h72v-18l-240 -274h-61z" />
    <glyph glyph-name="Ucircumflex" unicode="&#xdb;" horiz-adv-x="1337" 
d="M672 -20q-105 0 -192.5 31t-154 92.5t-104 160t-37.5 225.5v887h74v-884q0 -109 32 -194.5t88 -140t131 -82.5t163 -28q205 0 307 113t102 348v868h72v-872q0 -524 -481 -524zM963 1473h-62l-229 188h-2l-238 -188h-61v14l260 229h84l248 -229v-14z" />
    <glyph glyph-name="Udieresis" unicode="&#xdc;" horiz-adv-x="1337" 
d="M672 -20q-105 0 -192.5 31t-154 92.5t-104 160t-37.5 225.5v887h74v-884q0 -109 32 -194.5t88 -140t131 -82.5t163 -28q205 0 307 113t102 348v868h72v-872q0 -524 -481 -524zM451 1493v115h92v-115h-92zM803 1493v115h92v-115h-92z" />
    <glyph glyph-name="Yacute" unicode="&#xdd;" horiz-adv-x="1222" 
d="M647 575v-575h-72v575l-473 801h82l428 -739l424 739h84zM571 1473v12l230 280h71v-18l-239 -274h-62z" />
    <glyph glyph-name="Thorn" unicode="&#xde;" horiz-adv-x="1136" 
d="M1040 707q0 -186 -111 -295t-331 -109h-340v-303h-74v1376h74v-272h332q230 0 340 -104t110 -293zM967 707q0 155 -94 245t-287 90h-328v-675h334q192 0 283.5 89.5t91.5 250.5z" />
    <glyph glyph-name="germandbls" unicode="&#xdf;" horiz-adv-x="1280" 
d="M1120 315q0 -160 -95.5 -247.5t-285.5 -87.5q-94 0 -202 12v57q118 -10 186 -10q53 0 98.5 7.5t89.5 26.5t75 49.5t50 80t19 114.5q0 59 -20.5 109.5t-53.5 86t-73 66.5t-79.5 58t-72.5 54t-53.5 60t-20.5 70q0 36 12.5 67t33 54t44.5 45.5t48.5 48.5t45 55.5t33 73
t12.5 95.5q0 113 -79.5 185.5t-217.5 72.5q-157 0 -238 -86.5t-81 -288.5v-1143h-72v1147q0 436 393 436q167 0 265 -88t98 -229q0 -79 -23.5 -140.5t-56.5 -98t-66.5 -66t-57 -61t-23.5 -66.5q0 -40 38 -79t92 -77t108 -83.5t92 -118t38 -161.5z" />
    <glyph glyph-name="agrave" unicode="&#xe0;" horiz-adv-x="1150" 
d="M1090 41v-57q-36 -4 -97 -4q-77 0 -108 38t-31 109v117q-40 -130 -136 -197t-243 -67q-159 0 -245.5 83t-86.5 220q0 162 120.5 244.5t340.5 82.5h250v107q0 153 -72 227t-223 74q-133 0 -205 -54t-92 -173l-72 6q19 134 112 207t259 73q365 0 365 -352v-594
q0 -46 17.5 -68t64.5 -22h82zM475 39q96 0 170 36t119 100.5t67.5 148.5t22.5 184v45h-231q-410 0 -410 -268q0 -112 69 -179t193 -67zM545 1186l-254 291v2h86l237 -291v-2h-69z" />
    <glyph glyph-name="aacute" unicode="&#xe1;" horiz-adv-x="1150" 
d="M1090 41v-57q-36 -4 -97 -4q-77 0 -108 38t-31 109v117q-40 -130 -136 -197t-243 -67q-159 0 -245.5 83t-86.5 220q0 162 120.5 244.5t340.5 82.5h250v107q0 153 -72 227t-223 74q-133 0 -205 -54t-92 -173l-72 6q19 134 112 207t259 73q365 0 365 -352v-594
q0 -46 17.5 -68t64.5 -22h82zM475 39q96 0 170 36t119 100.5t67.5 148.5t22.5 184v45h-231q-410 0 -410 -268q0 -112 69 -179t193 -67zM518 1186v2l238 291h86v-2l-254 -291h-70z" />
    <glyph glyph-name="acircumflex" unicode="&#xe2;" horiz-adv-x="1150" 
d="M1090 41v-57q-36 -4 -97 -4q-77 0 -108 38t-31 109v117q-40 -130 -136 -197t-243 -67q-159 0 -245.5 83t-86.5 220q0 162 120.5 244.5t340.5 82.5h250v107q0 153 -72 227t-223 74q-133 0 -205 -54t-92 -173l-72 6q19 134 112 207t259 73q365 0 365 -352v-594
q0 -46 17.5 -68t64.5 -22h82zM475 39q96 0 170 36t119 100.5t67.5 148.5t22.5 184v45h-231q-410 0 -410 -268q0 -112 69 -179t193 -67zM858 1188v-2h-74l-225 215h-2l-221 -215h-76v2l258 268h80z" />
    <glyph glyph-name="atilde" unicode="&#xe3;" horiz-adv-x="1150" 
d="M1090 41v-57q-36 -4 -97 -4q-77 0 -108 38t-31 109v117q-40 -130 -136 -197t-243 -67q-159 0 -245.5 83t-86.5 220q0 162 120.5 244.5t340.5 82.5h250v107q0 153 -72 227t-223 74q-133 0 -205 -54t-92 -173l-72 6q19 134 112 207t259 73q365 0 365 -352v-594
q0 -46 17.5 -68t64.5 -22h82zM475 39q96 0 170 36t119 100.5t67.5 148.5t22.5 184v45h-231q-410 0 -410 -268q0 -112 69 -179t193 -67zM721 1253q-43 0 -89 18t-78 39.5t-72 39.5t-74 18q-111 0 -111 -106v-9h-64v7q0 82 47.5 122.5t127.5 40.5q56 0 114.5 -29t110 -58
t88.5 -29q117 0 117 110v6h57v-6q0 -78 -43.5 -121t-130.5 -43z" />
    <glyph glyph-name="adieresis" unicode="&#xe4;" horiz-adv-x="1150" 
d="M1090 41v-57q-36 -4 -97 -4q-77 0 -108 38t-31 109v117q-40 -130 -136 -197t-243 -67q-159 0 -245.5 83t-86.5 220q0 162 120.5 244.5t340.5 82.5h250v107q0 153 -72 227t-223 74q-133 0 -205 -54t-92 -173l-72 6q19 134 112 207t259 73q365 0 365 -352v-594
q0 -46 17.5 -68t64.5 -22h82zM475 39q96 0 170 36t119 100.5t67.5 148.5t22.5 184v45h-231q-410 0 -410 -268q0 -112 69 -179t193 -67zM307 1237v115h92v-115h-92zM733 1237v115h92v-115h-92z" />
    <glyph glyph-name="aring" unicode="&#xe5;" horiz-adv-x="1150" 
d="M1090 41v-57q-36 -4 -97 -4q-77 0 -108 38t-31 109v117q-40 -130 -136 -197t-243 -67q-159 0 -245.5 83t-86.5 220q0 162 120.5 244.5t340.5 82.5h250v107q0 153 -72 227t-223 74q-133 0 -205 -54t-92 -173l-72 6q19 134 112 207t259 73q365 0 365 -352v-594
q0 -46 17.5 -68t64.5 -22h82zM475 39q96 0 170 36t119 100.5t67.5 148.5t22.5 184v45h-231q-410 0 -410 -268q0 -112 69 -179t193 -67zM770 1327q0 -85 -60.5 -146t-146.5 -61q-85 0 -145 61t-60 146q0 87 60 146t145 59q87 0 147 -59t60 -146zM707 1327q0 62 -41.5 104
t-102.5 42t-103 -42t-42 -104q0 -61 42 -103t103 -42t102.5 41.5t41.5 103.5z" />
    <glyph glyph-name="ae" unicode="&#xe6;" horiz-adv-x="1820" 
d="M475 -20q-159 0 -245.5 83t-86.5 220q0 311 461 311h250v123q0 153 -72 227t-223 74q-133 0 -205 -54t-92 -173l-72 6q19 134 112 207t259 73q286 0 348 -221q51 108 151.5 164.5t221.5 56.5q97 0 170.5 -26t119.5 -70t75 -108.5t40 -134.5t11 -156q0 -3 -1 -22.5
t-1 -22.5h-770v-31q0 -137 36.5 -239t120 -164t207.5 -62q95 0 158 24.5t98.5 64.5t71.5 112l65 -21q-24 -48 -45.5 -81t-54.5 -65.5t-72 -51.5t-95.5 -31t-127.5 -12q-322 0 -411 313q-32 -152 -136 -232.5t-266 -80.5zM475 39q96 0 170 36t119 100.5t67.5 148.5t22.5 184
v29h-231q-204 0 -307 -57.5t-103 -194.5q0 -112 69 -179t193 -67zM1286 1018q-74 0 -135.5 -23t-111.5 -71.5t-79.5 -132.5t-33.5 -197h696v10q0 414 -336 414z" />
    <glyph glyph-name="ccedilla" unicode="&#xe7;" horiz-adv-x="1062" 
d="M774 -262q0 -170 -250 -170q-51 0 -78 4v49q39 -2 84 -2q91 0 138 26.5t47 92.5q0 90 -166 90q-30 0 -55 -4l59 156q-93 1 -166 29.5t-122.5 78t-81.5 120t-46 151.5t-14 178q0 140 32.5 245.5t91.5 169t135.5 94.5t170.5 31q163 0 258 -79.5t123 -215.5l-76 -6
q-48 238 -305 238q-169 0 -260.5 -117.5t-91.5 -357.5q0 -496 358 -496q247 0 307 268l74 -6q-10 -56 -33 -106.5t-61 -96.5t-97 -77.5t-133 -40.5l-36 -107q84 0 139 -36t55 -103z" />
    <glyph glyph-name="egrave" unicode="&#xe8;" horiz-adv-x="1093" 
d="M561 -20q-220 0 -329 145t-109 405q0 279 117.5 413t318.5 134q96 0 168.5 -26t118.5 -70t74.5 -108.5t39.5 -134.5t11 -156q0 -3 -1 -30t-1 -30h-770v-16q0 -137 36.5 -239t120 -164t207.5 -62q95 0 158 24.5t98.5 64.5t71.5 112l65 -21q-24 -48 -45.5 -81t-54.5 -65.5
t-72 -51.5t-95.5 -31t-127.5 -12zM559 1018q-75 0 -137 -23.5t-112.5 -73t-79.5 -135.5t-31 -202h696v20q0 414 -336 414zM543 1186l-254 291v2h86l237 -291v-2h-69z" />
    <glyph glyph-name="eacute" unicode="&#xe9;" horiz-adv-x="1093" 
d="M561 -20q-220 0 -329 145t-109 405q0 279 117.5 413t318.5 134q96 0 168.5 -26t118.5 -70t74.5 -108.5t39.5 -134.5t11 -156q0 -3 -1 -30t-1 -30h-770v-16q0 -137 36.5 -239t120 -164t207.5 -62q95 0 158 24.5t98.5 64.5t71.5 112l65 -21q-24 -48 -45.5 -81t-54.5 -65.5
t-72 -51.5t-95.5 -31t-127.5 -12zM559 1018q-75 0 -137 -23.5t-112.5 -73t-79.5 -135.5t-31 -202h696v20q0 414 -336 414zM516 1186v2l238 291h86v-2l-254 -291h-70z" />
    <glyph glyph-name="ecircumflex" unicode="&#xea;" horiz-adv-x="1093" 
d="M561 -20q-220 0 -329 145t-109 405q0 279 117.5 413t318.5 134q96 0 168.5 -26t118.5 -70t74.5 -108.5t39.5 -134.5t11 -156q0 -3 -1 -30t-1 -30h-770v-16q0 -137 36.5 -239t120 -164t207.5 -62q95 0 158 24.5t98.5 64.5t71.5 112l65 -21q-24 -48 -45.5 -81t-54.5 -65.5
t-72 -51.5t-95.5 -31t-127.5 -12zM559 1018q-75 0 -137 -23.5t-112.5 -73t-79.5 -135.5t-31 -202h696v20q0 414 -336 414zM856 1188v-2h-74l-225 215h-2l-221 -215h-76v2l258 268h80z" />
    <glyph glyph-name="edieresis" unicode="&#xeb;" horiz-adv-x="1093" 
d="M561 -20q-220 0 -329 145t-109 405q0 279 117.5 413t318.5 134q96 0 168.5 -26t118.5 -70t74.5 -108.5t39.5 -134.5t11 -156q0 -3 -1 -30t-1 -30h-770v-16q0 -137 36.5 -239t120 -164t207.5 -62q95 0 158 24.5t98.5 64.5t71.5 112l65 -21q-24 -48 -45.5 -81t-54.5 -65.5
t-72 -51.5t-95.5 -31t-127.5 -12zM559 1018q-75 0 -137 -23.5t-112.5 -73t-79.5 -135.5t-31 -202h696v20q0 414 -336 414zM305 1237v115h92v-115h-92zM731 1237v115h92v-115h-92z" />
    <glyph glyph-name="igrave" unicode="&#xec;" horiz-adv-x="434" 
d="M205 0v1057h74v-1057h-74zM219 1186l-254 291v2h86l238 -291v-2h-70z" />
    <glyph glyph-name="iacute" unicode="&#xed;" horiz-adv-x="434" 
d="M205 0v1057h74v-1057h-74zM199 1186v2l147 291h92v-2l-174 -291h-65z" />
    <glyph glyph-name="icircumflex" unicode="&#xee;" horiz-adv-x="434" 
d="M205 0v1057h74v-1057h-74zM532 1188v-2h-73l-226 215h-2l-221 -215h-76v2l259 268h79z" />
    <glyph glyph-name="idieresis" unicode="&#xef;" horiz-adv-x="434" 
d="M205 0v1057h74v-1057h-74zM-18 1237v115h92v-115h-92zM408 1237v115h92v-115h-92z" />
    <glyph glyph-name="eth" unicode="&#xf0;" horiz-adv-x="1161" 
d="M317 1229v65l234 123q-106 82 -225 152v2h94q101 -52 190 -123l287 151v-63l-240 -127q173 -156 271 -377t98 -493q0 -559 -448 -559q-149 0 -249 71.5t-145 194t-45 291.5q0 122 25.5 219t78 170t139 112t202.5 39q212 0 301 -112q-86 235 -287 411zM582 39
q366 0 366 500q0 113 -18 197.5t-58.5 149.5t-112.5 98.5t-175 33.5q-369 0 -369 -481q0 -109 20.5 -197.5t63 -157t114.5 -106t169 -37.5z" />
    <glyph glyph-name="ntilde" unicode="&#xf1;" horiz-adv-x="1159" 
d="M905 0v709q0 307 -289 307q-148 0 -241.5 -110.5t-93.5 -309.5v-596h-70v801q0 139 -4 256h65l4 -262q29 125 122 203.5t233 78.5q344 0 344 -360v-717h-70zM774 1253q-43 0 -88.5 18t-78 39.5t-72.5 39.5t-74 18q-111 0 -111 -106v-9h-63v7q0 82 47 122.5t127 40.5
q56 0 114.5 -29t110 -58t88.5 -29q117 0 117 110v6h57v-6q0 -78 -43.5 -121t-130.5 -43z" />
    <glyph glyph-name="ograve" unicode="&#xf2;" horiz-adv-x="1132" 
d="M932 539q0 252 -90 365.5t-275 113.5q-368 0 -368 -481q0 -261 97 -379.5t269 -118.5q178 0 272.5 118t94.5 382zM1010 539q0 -559 -443 -559q-100 0 -179 30.5t-139.5 94.5t-93 173.5t-32.5 258.5q0 275 115 407.5t329 132.5q222 0 332.5 -130.5t110.5 -407.5zM553 1186
l-254 291v2h86l238 -291v-2h-70z" />
    <glyph glyph-name="oacute" unicode="&#xf3;" horiz-adv-x="1132" 
d="M932 539q0 252 -90 365.5t-275 113.5q-368 0 -368 -481q0 -261 97 -379.5t269 -118.5q178 0 272.5 118t94.5 382zM1010 539q0 -559 -443 -559q-100 0 -179 30.5t-139.5 94.5t-93 173.5t-32.5 258.5q0 275 115 407.5t329 132.5q222 0 332.5 -130.5t110.5 -407.5zM526 1186
v2l238 291h86v-2l-254 -291h-70z" />
    <glyph glyph-name="ocircumflex" unicode="&#xf4;" horiz-adv-x="1132" 
d="M932 539q0 252 -90 365.5t-275 113.5q-368 0 -368 -481q0 -261 97 -379.5t269 -118.5q178 0 272.5 118t94.5 382zM1010 539q0 -559 -443 -559q-100 0 -179 30.5t-139.5 94.5t-93 173.5t-32.5 258.5q0 275 115 407.5t329 132.5q222 0 332.5 -130.5t110.5 -407.5zM866 1188
v-2h-73l-226 215h-2l-221 -215h-76v2l258 268h80z" />
    <glyph glyph-name="otilde" unicode="&#xf5;" horiz-adv-x="1132" 
d="M932 539q0 252 -90 365.5t-275 113.5q-368 0 -368 -481q0 -261 97 -379.5t269 -118.5q178 0 272.5 118t94.5 382zM1010 539q0 -559 -443 -559q-100 0 -179 30.5t-139.5 94.5t-93 173.5t-32.5 258.5q0 275 115 407.5t329 132.5q222 0 332.5 -130.5t110.5 -407.5zM729 1253
q-43 0 -89 18t-78 39.5t-72 39.5t-74 18q-111 0 -111 -106v-9h-63v7q0 82 47 122.5t127 40.5q56 0 114.5 -29t110 -58t88.5 -29q117 0 117 110v6h57v-6q0 -78 -43.5 -121t-130.5 -43z" />
    <glyph glyph-name="odieresis" unicode="&#xf6;" horiz-adv-x="1132" 
d="M932 539q0 252 -90 365.5t-275 113.5q-368 0 -368 -481q0 -261 97 -379.5t269 -118.5q178 0 272.5 118t94.5 382zM1010 539q0 -559 -443 -559q-100 0 -179 30.5t-139.5 94.5t-93 173.5t-32.5 258.5q0 275 115 407.5t329 132.5q222 0 332.5 -130.5t110.5 -407.5zM315 1237
v115h93v-115h-93zM741 1237v115h93v-115h-93z" />
    <glyph glyph-name="divide" unicode="&#xf7;" horiz-adv-x="1120" 
d="M502 258v139h123v-139h-123zM88 633v65h950v-65h-950zM502 936v141h123v-141h-123z" />
    <glyph glyph-name="oslash" unicode="&#xf8;" horiz-adv-x="1132" 
d="M1010 539q0 -559 -443 -559q-189 0 -301 106l-82 -106h-78l117 153q-100 143 -100 404q0 275 115 407.5t329 132.5q195 0 299 -98l90 119h76l-125 -164q103 -133 103 -395zM932 539q0 215 -70 333l-555 -731q93 -102 258 -102q178 0 272.5 118t94.5 382zM199 537
q0 -216 71 -342l555 729q-87 94 -258 94q-368 0 -368 -481z" />
    <glyph glyph-name="ugrave" unicode="&#xf9;" horiz-adv-x="1077" 
d="M209 1057v-711q0 -167 68 -238t206 -71q161 0 263 108.5t102 292.5v619h70v-838l4 -219h-68l-4 246q-102 -266 -381 -266q-169 0 -249.5 83.5t-80.5 272.5v721h70zM492 1186l-254 291v2h86l237 -291v-2h-69z" />
    <glyph glyph-name="uacute" unicode="&#xfa;" horiz-adv-x="1077" 
d="M209 1057v-711q0 -167 68 -238t206 -71q161 0 263 108.5t102 292.5v619h70v-838l4 -219h-68l-4 246q-102 -266 -381 -266q-169 0 -249.5 83.5t-80.5 272.5v721h70zM465 1186v2l237 291h86v-2l-253 -291h-70z" />
    <glyph glyph-name="ucircumflex" unicode="&#xfb;" horiz-adv-x="1077" 
d="M209 1057v-711q0 -167 68 -238t206 -71q161 0 263 108.5t102 292.5v619h70v-838l4 -219h-68l-4 246q-102 -266 -381 -266q-169 0 -249.5 83.5t-80.5 272.5v721h70zM805 1188v-2h-74l-225 215h-2l-221 -215h-76v2l258 268h80z" />
    <glyph glyph-name="udieresis" unicode="&#xfc;" horiz-adv-x="1077" 
d="M209 1057v-711q0 -167 68 -238t206 -71q161 0 263 108.5t102 292.5v619h70v-838l4 -219h-68l-4 246q-102 -266 -381 -266q-169 0 -249.5 83.5t-80.5 272.5v721h70zM680 1237v115h92v-115h-92zM254 1237v115h92v-115h-92z" />
    <glyph glyph-name="yacute" unicode="&#xfd;" horiz-adv-x="937" 
d="M180 -469h-119v57h93q47 0 77 8t52.5 32.5t35.5 51.5t33 82l86 230l-418 1065h74l262 -680l119 -309q13 51 111 313l252 676h73l-497 -1311q-50 -131 -97 -173t-137 -42zM408 1186v2l237 291h86v-2l-254 -291h-69z" />
    <glyph glyph-name="thorn" unicode="&#xfe;" horiz-adv-x="1173" 
d="M1051 539q0 -281 -96.5 -420t-311.5 -139q-289 0 -367 303l5 -90v-650h-72l2 2028h74v-756q74 262 364 262q195 0 298.5 -128.5t103.5 -409.5zM977 541q0 253 -89.5 364t-252.5 111t-256.5 -111.5t-93.5 -359.5q0 -504 348 -504q84 0 145.5 25t107.5 82t68.5 154.5
t22.5 238.5z" />
    <glyph glyph-name="ydieresis" unicode="&#xff;" horiz-adv-x="937" 
d="M180 -469h-119v57h93q47 0 77 8t52.5 32.5t35.5 51.5t33 82l86 230l-418 1065h74l262 -680l119 -309q54 157 111 313l252 676h73l-497 -1311q-50 -131 -97 -173t-137 -42zM623 1237v115h92v-115h-92zM197 1237v115h92v-115h-92z" />
    <glyph glyph-name="Amacron" unicode="&#x100;" horiz-adv-x="1220" 
d="M115 0l159 440h664l170 -440h78l-537 1376h-98l-512 -1376h76zM600 1327l111 -297l202 -526h-614l190 524zM1020 1567h-825v53h825v-53z" />
    <glyph glyph-name="amacron" unicode="&#x101;" horiz-adv-x="1150" 
d="M1090 41v-57q-36 -4 -97 -4q-77 0 -108 38t-31 109v117q-40 -130 -136 -197t-243 -67q-159 0 -245.5 83t-86.5 220q0 162 120.5 244.5t340.5 82.5h250v107q0 153 -72 227t-223 74q-133 0 -205 -54t-92 -173l-72 6q19 134 112 207t259 73q365 0 365 -352v-594
q0 -46 17.5 -68t64.5 -22h82zM475 39q96 0 170 36t119 100.5t67.5 148.5t22.5 184v45h-231q-410 0 -410 -268q0 -112 69 -179t193 -67zM979 1280h-825v53h825v-53z" />
    <glyph glyph-name="Abreve" unicode="&#x102;" horiz-adv-x="1220" 
d="M115 0l159 440h664l170 -440h78l-537 1376h-98l-512 -1376h76zM600 1327l111 -297l202 -526h-614l190 524zM598 1475q-142 0 -220.5 70t-78.5 173h61q0 -79 66.5 -133.5t173.5 -54.5q106 0 167.5 54t61.5 134h62q0 -103 -78.5 -173t-214.5 -70z" />
    <glyph glyph-name="abreve" unicode="&#x103;" horiz-adv-x="1150" 
d="M1090 41v-57q-36 -4 -97 -4q-77 0 -108 38t-31 109v117q-40 -130 -136 -197t-243 -67q-159 0 -245.5 83t-86.5 220q0 162 120.5 244.5t340.5 82.5h250v107q0 153 -72 227t-223 74q-133 0 -205 -54t-92 -173l-72 6q19 134 112 207t259 73q365 0 365 -352v-594
q0 -46 17.5 -68t64.5 -22h82zM475 39q96 0 170 36t119 100.5t67.5 148.5t22.5 184v45h-231q-410 0 -410 -268q0 -112 69 -179t193 -67zM563 1188q-142 0 -220.5 70.5t-78.5 173.5h62q0 -79 66 -134t173 -55q106 0 168 54.5t62 134.5h61q0 -103 -78.5 -173.5t-214.5 -70.5z
" />
    <glyph glyph-name="Aogonek" unicode="&#x104;" horiz-adv-x="1220" 
d="M274 440l-159 -440h-76l512 1376h98l537 -1376h-78l-170 440h-664zM711 1030l-111 297l-111 -299l-190 -524h614zM1171 -410q-90 0 -130 44t-40 106q0 41 12.5 79.5t30.5 66.5t41.5 52t43.5 38.5t38 23.5h54q-68 -41 -118 -107.5t-50 -142.5q0 -117 131 -117q57 0 127 25
v-41q-66 -27 -140 -27z" />
    <glyph glyph-name="aogonek" unicode="&#x105;" horiz-adv-x="1150" 
d="M1022 -430q-90 0 -130 43.5t-40 105.5q0 66 32 124.5t66.5 89t67.5 47.5h-25q-77 0 -108 38t-31 109v117q-40 -130 -136 -197t-243 -67q-159 0 -245.5 83t-86.5 220q0 162 120.5 244.5t340.5 82.5h250v107q0 153 -72 227t-223 74q-133 0 -205 -54t-92 -173l-72 6
q19 134 112 207t259 73q365 0 365 -352v-594q0 -46 17.5 -68t64.5 -22h82v-57q-8 0 -62 -4h62q-72 -43 -124.5 -107t-52.5 -139q0 -51 27.5 -80t99.5 -29q51 0 121 25v-53q-66 -27 -139 -27zM475 39q96 0 170 36t119 100.5t67.5 148.5t22.5 184v45h-231q-410 0 -410 -268
q0 -112 69 -179t193 -67z" />
    <glyph glyph-name="Cacute" unicode="&#x106;" horiz-adv-x="1415" 
d="M743 -20q-310 0 -475.5 192t-165.5 524q0 336 168.5 518.5t466.5 182.5q405 0 563 -334l-69 -25q-149 295 -494 295q-267 0 -413 -167.5t-146 -469.5t149 -475.5t418 -173.5q183 0 303 75t199 243l66 -29q-83 -183 -222 -269.5t-348 -86.5zM684 1473v12l229 280h72v-18
l-240 -274h-61z" />
    <glyph glyph-name="cacute" unicode="&#x107;" horiz-adv-x="1062" 
d="M559 -20q-117 0 -203 42t-136 119t-73.5 175t-23.5 221q0 140 32.5 245.5t91.5 169t135.5 94.5t170.5 31q163 0 258 -79.5t123 -215.5l-76 -6q-48 238 -305 238q-169 0 -260.5 -117.5t-91.5 -357.5q0 -496 358 -496q247 0 307 268l74 -6q-11 -62 -37 -116.5t-70.5 -103
t-115 -77t-158.5 -28.5zM508 1186v2l237 291h86v-2l-253 -291h-70z" />
    <glyph glyph-name="Ccircumflex" unicode="&#x108;" horiz-adv-x="1415" 
d="M743 -20q-310 0 -475.5 192t-165.5 524q0 336 168.5 518.5t466.5 182.5q405 0 563 -334l-69 -25q-149 295 -494 295q-267 0 -413 -167.5t-146 -469.5t149 -475.5t418 -173.5q183 0 303 75t199 243l66 -29q-83 -183 -222 -269.5t-348 -86.5zM1024 1473h-61l-230 188h-2
l-237 -188h-62v14l260 229h84l248 -229v-14z" />
    <glyph glyph-name="ccircumflex" unicode="&#x109;" horiz-adv-x="1062" 
d="M559 -20q-117 0 -203 42t-136 119t-73.5 175t-23.5 221q0 140 32.5 245.5t91.5 169t135.5 94.5t170.5 31q163 0 258 -79.5t123 -215.5l-76 -6q-48 238 -305 238q-169 0 -260.5 -117.5t-91.5 -357.5q0 -496 358 -496q247 0 307 268l74 -6q-11 -62 -37 -116.5t-70.5 -103
t-115 -77t-158.5 -28.5zM848 1188v-2h-74l-225 215h-2l-221 -215h-76v2l258 268h80z" />
    <glyph glyph-name="Cdotaccent" unicode="&#x10a;" horiz-adv-x="1415" 
d="M743 -20q-310 0 -475.5 192t-165.5 524q0 336 168.5 518.5t466.5 182.5q405 0 563 -334l-69 -25q-149 295 -494 295q-267 0 -413 -167.5t-146 -469.5t149 -475.5t418 -173.5q183 0 303 75t199 243l66 -29q-83 -183 -222 -269.5t-348 -86.5zM680 1501v137h117v-137h-117z
" />
    <glyph glyph-name="cdotaccent" unicode="&#x10b;" horiz-adv-x="1062" 
d="M559 -20q-117 0 -203 42t-136 119t-73.5 175t-23.5 221q0 140 32.5 245.5t91.5 169t135.5 94.5t170.5 31q163 0 258 -79.5t123 -215.5l-76 -6q-48 238 -305 238q-169 0 -260.5 -117.5t-91.5 -357.5q0 -496 358 -496q247 0 307 268l74 -6q-11 -62 -37 -116.5t-70.5 -103
t-115 -77t-158.5 -28.5zM494 1214v138h116v-138h-116z" />
    <glyph glyph-name="Ccaron" unicode="&#x10c;" horiz-adv-x="1415" 
d="M743 -20q-310 0 -475.5 192t-165.5 524q0 336 168.5 518.5t466.5 182.5q405 0 563 -334l-69 -25q-149 295 -494 295q-267 0 -413 -167.5t-146 -469.5t149 -475.5t418 -173.5q183 0 303 75t199 243l66 -29q-83 -183 -222 -269.5t-348 -86.5zM776 1475h-84l-260 229v14h62
l237 -188h2l230 188h61v-14z" />
    <glyph glyph-name="ccaron" unicode="&#x10d;" horiz-adv-x="1062" 
d="M559 -20q-117 0 -203 42t-136 119t-73.5 175t-23.5 221q0 140 32.5 245.5t91.5 169t135.5 94.5t170.5 31q163 0 258 -79.5t123 -215.5l-76 -6q-48 238 -305 238q-169 0 -260.5 -117.5t-91.5 -357.5q0 -496 358 -496q247 0 307 268l74 -6q-11 -62 -37 -116.5t-70.5 -103
t-115 -77t-158.5 -28.5zM860 1430l-262 -242h-84l-274 242v2h75l238 -189h2l229 189h76v-2z" />
    <glyph glyph-name="Dcaron" unicode="&#x10e;" horiz-adv-x="1404" 
d="M1229 705q0 152 -45 268.5t-128.5 190.5t-197 111.5t-254.5 37.5h-346v-1247h375q287 0 441.5 168t154.5 471zM1303 707q0 -341 -175.5 -524t-490.5 -183h-453v1376h424q153 0 279 -41.5t219.5 -122.5t145 -210t51.5 -295zM698 1475h-84l-260 229v14h62l237 -188h2
l230 188h61v-14z" />
    <glyph glyph-name="dcaron" unicode="&#x10f;" horiz-adv-x="1124" 
d="M526 -20q-202 0 -302.5 131t-100.5 428q0 276 109.5 407t302.5 131q146 0 237.5 -67t120.5 -176q-2 33 -2 106v631h70v-1362q0 -119 8 -209h-70q-6 64 -6 252q-43 -146 -140.5 -209t-226.5 -63zM537 43q171 0 262.5 125.5t91.5 382.5q0 465 -356 465q-160 0 -249 -115
t-89 -360q0 -268 86 -383t254 -115zM1331 1456q0 -152 -61 -262h-80v2q72 119 72 221h-54v131h123v-92z" />
    <glyph glyph-name="Dcroat" unicode="&#x110;" horiz-adv-x="1404" 
d="M1303 707q0 -341 -175.5 -524t-490.5 -183h-453v614h-172v68h172v694h424q153 0 279 -41.5t219.5 -122.5t145 -210t51.5 -295zM1229 705q0 152 -45 268.5t-128.5 190.5t-197 111.5t-254.5 37.5h-346v-631h377v-68h-377v-548h375q287 0 441.5 168t154.5 471z" />
    <glyph glyph-name="dcroat" unicode="&#x111;" horiz-adv-x="1124" 
d="M584 1348v55h307v168h70v-168h174v-55h-174v-1139q0 -119 8 -209h-70q-6 64 -6 252q-43 -146 -140.5 -209t-226.5 -63q-202 0 -302.5 131t-100.5 428q0 276 109.5 407t302.5 131q146 0 237.5 -67t120.5 -176q-2 33 -2 106v408h-307zM537 43q171 0 262.5 125.5t91.5 382.5
q0 465 -356 465q-160 0 -249 -115t-89 -360q0 -268 86 -383t254 -115z" />
    <glyph glyph-name="Emacron" unicode="&#x112;" horiz-adv-x="1126" 
d="M184 0v1376h768v-63h-694v-574h639v-61h-639v-615h725v-63h-799zM1014 1567h-826v53h826v-53z" />
    <glyph glyph-name="emacron" unicode="&#x113;" horiz-adv-x="1093" 
d="M561 -20q-220 0 -329 145t-109 405q0 279 117.5 413t318.5 134q96 0 168.5 -26t118.5 -70t74.5 -108.5t39.5 -134.5t11 -156q0 -3 -1 -30t-1 -30h-770v-16q0 -137 36.5 -239t120 -164t207.5 -62q95 0 158 24.5t98.5 64.5t71.5 112l65 -21q-24 -48 -45.5 -81t-54.5 -65.5
t-72 -51.5t-95.5 -31t-127.5 -12zM559 1018q-75 0 -137 -23.5t-112.5 -73t-79.5 -135.5t-31 -202h696v20q0 414 -336 414zM977 1280h-825v53h825v-53z" />
    <glyph glyph-name="Ebreve" unicode="&#x114;" horiz-adv-x="1126" 
d="M184 0v1376h768v-63h-694v-574h639v-61h-639v-615h725v-63h-799zM592 1475q-142 0 -220.5 70t-78.5 173h61q0 -79 66.5 -133.5t173.5 -54.5q106 0 167.5 54t61.5 134h62q0 -103 -78.5 -173t-214.5 -70z" />
    <glyph glyph-name="ebreve" unicode="&#x115;" horiz-adv-x="1093" 
d="M561 -20q-220 0 -329 145t-109 405q0 279 117.5 413t318.5 134q96 0 168.5 -26t118.5 -70t74.5 -108.5t39.5 -134.5t11 -156q0 -3 -1 -30t-1 -30h-770v-16q0 -137 36.5 -239t120 -164t207.5 -62q95 0 158 24.5t98.5 64.5t71.5 112l65 -21q-24 -48 -45.5 -81t-54.5 -65.5
t-72 -51.5t-95.5 -31t-127.5 -12zM559 1018q-75 0 -137 -23.5t-112.5 -73t-79.5 -135.5t-31 -202h696v20q0 414 -336 414zM561 1188q-142 0 -220.5 70.5t-78.5 173.5h62q0 -79 66 -134t173 -55q106 0 168 54.5t62 134.5h61q0 -103 -78.5 -173.5t-214.5 -70.5z" />
    <glyph glyph-name="Edotaccent" unicode="&#x116;" horiz-adv-x="1126" 
d="M184 0v1376h768v-63h-694v-574h639v-61h-639v-615h725v-63h-799zM541 1501v137h116v-137h-116z" />
    <glyph glyph-name="edotaccent" unicode="&#x117;" horiz-adv-x="1093" 
d="M561 -20q-220 0 -329 145t-109 405q0 279 117.5 413t318.5 134q96 0 168.5 -26t118.5 -70t74.5 -108.5t39.5 -134.5t11 -156q0 -3 -1 -30t-1 -30h-770v-16q0 -137 36.5 -239t120 -164t207.5 -62q95 0 158 24.5t98.5 64.5t71.5 112l65 -21q-24 -48 -45.5 -81t-54.5 -65.5
t-72 -51.5t-95.5 -31t-127.5 -12zM559 1018q-75 0 -137 -23.5t-112.5 -73t-79.5 -135.5t-31 -202h696v20q0 414 -336 414zM502 1214v138h116v-138h-116z" />
    <glyph glyph-name="Eogonek" unicode="&#x118;" horiz-adv-x="1126" 
d="M184 0v1376h768v-63h-694v-574h639v-61h-639v-615h725v-63q-68 -41 -118 -107.5t-50 -142.5q0 -117 131 -117q57 0 127 25v-41q-66 -27 -139 -27q-90 0 -130 44t-40 106q0 41 12.5 79.5t30.5 66.5t41.5 52t43.5 38.5t38 23.5h-746z" />
    <glyph glyph-name="eogonek" unicode="&#x119;" horiz-adv-x="1093" 
d="M754 -365q-90 0 -130 44t-40 106q0 115 88 203q-66 -8 -111 -8q-220 0 -329 145t-109 405q0 279 117.5 413t318.5 134q96 0 168.5 -26t118.5 -70t74.5 -108.5t39.5 -134.5t11 -156q0 -3 -1 -30t-1 -30h-770v-16q0 -137 36.5 -239t120 -164t207.5 -62q95 0 158 24.5
t98.5 64.5t71.5 112l65 -21q-61 -123 -137 -176h2l-6 -4l-12 -8q-65 -41 -111.5 -102.5t-46.5 -131.5q0 -50 27.5 -79t99.5 -29q54 0 121 24v-53q-66 -27 -139 -27zM559 1018q-75 0 -137 -23.5t-112.5 -73t-79.5 -135.5t-31 -202h696v20q0 414 -336 414z" />
    <glyph glyph-name="Ecaron" unicode="&#x11a;" horiz-adv-x="1126" 
d="M184 0v1376h768v-63h-694v-574h639v-61h-639v-615h725v-63h-799zM637 1475h-84l-260 229v14h61l238 -188h2l229 188h62v-14z" />
    <glyph glyph-name="ecaron" unicode="&#x11b;" horiz-adv-x="1093" 
d="M561 -20q-220 0 -329 145t-109 405q0 279 117.5 413t318.5 134q96 0 168.5 -26t118.5 -70t74.5 -108.5t39.5 -134.5t11 -156q0 -3 -1 -30t-1 -30h-770v-16q0 -137 36.5 -239t120 -164t207.5 -62q95 0 158 24.5t98.5 64.5t71.5 112l65 -21q-24 -48 -45.5 -81t-54.5 -65.5
t-72 -51.5t-95.5 -31t-127.5 -12zM559 1018q-75 0 -137 -23.5t-112.5 -73t-79.5 -135.5t-31 -202h696v20q0 414 -336 414zM868 1430l-262 -242h-84l-274 242v2h76l237 -189h2l230 189h75v-2z" />
    <glyph glyph-name="Gcircumflex" unicode="&#x11c;" horiz-adv-x="1519" 
d="M776 -20q-168 0 -297 52.5t-211 148.5t-124 229t-42 297q0 205 72 359t219.5 242.5t354.5 88.5q413 0 557 -307l-70 -23q-136 268 -487 268q-276 0 -424 -169.5t-148 -458.5q0 -147 36 -266.5t108 -208.5t189 -138t271 -49q286 0 484 164v405h-467v66h538v-496
q-242 -204 -559 -204zM1051 1473h-62l-229 188h-2l-238 -188h-61v14l260 229h84l248 -229v-14z" />
    <glyph glyph-name="gcircumflex" unicode="&#x11d;" horiz-adv-x="1120" 
d="M520 -18q-209 0 -303 135.5t-94 419.5q0 268 98.5 404t304.5 136q143 0 236.5 -66.5t126.5 -195.5l4 242h72l-7 -199v-905q0 -422 -421 -422q-168 0 -259.5 64.5t-117.5 168.5l69 13q55 -187 306 -187q354 0 354 363v295l2 33q-17 -58 -45 -108.5t-71.5 -95t-109 -70
t-145.5 -25.5zM889 547q0 233 -85.5 352t-266.5 119q-172 0 -257 -116.5t-85 -362.5q0 -261 81.5 -378.5t262.5 -117.5q160 0 255 126.5t95 377.5zM825 1188v-2h-73l-226 215h-2l-221 -215h-76v2l258 268h80z" />
    <glyph glyph-name="Gbreve" unicode="&#x11e;" horiz-adv-x="1519" 
d="M776 -20q-168 0 -297 52.5t-211 148.5t-124 229t-42 297q0 205 72 359t219.5 242.5t354.5 88.5q413 0 557 -307l-70 -23q-136 268 -487 268q-276 0 -424 -169.5t-148 -458.5q0 -147 36 -266.5t108 -208.5t189 -138t271 -49q286 0 484 164v405h-467v66h538v-496
q-242 -204 -559 -204zM758 1475q-142 0 -220.5 70t-78.5 173h61q0 -79 66.5 -133.5t173.5 -54.5q106 0 167.5 54t61.5 134h62q0 -103 -78.5 -173t-214.5 -70z" />
    <glyph glyph-name="gbreve" unicode="&#x11f;" horiz-adv-x="1120" 
d="M520 -18q-209 0 -303 135.5t-94 419.5q0 268 98.5 404t304.5 136q143 0 236.5 -66.5t126.5 -195.5l4 242h72l-7 -199v-905q0 -422 -421 -422q-168 0 -259.5 64.5t-117.5 168.5l69 13q55 -187 306 -187q354 0 354 363v295l2 33q-17 -58 -45 -108.5t-71.5 -95t-109 -70
t-145.5 -25.5zM889 547q0 233 -85.5 352t-266.5 119q-172 0 -257 -116.5t-85 -362.5q0 -261 81.5 -378.5t262.5 -117.5q160 0 255 126.5t95 377.5zM530 1188q-142 0 -220.5 70.5t-78.5 173.5h62q0 -79 66 -134t173 -55q106 0 168 54.5t62 134.5h61q0 -103 -78.5 -173.5
t-214.5 -70.5z" />
    <glyph glyph-name="Gdotaccent" unicode="&#x120;" horiz-adv-x="1519" 
d="M776 -20q-168 0 -297 52.5t-211 148.5t-124 229t-42 297q0 205 72 359t219.5 242.5t354.5 88.5q413 0 557 -307l-70 -23q-136 268 -487 268q-276 0 -424 -169.5t-148 -458.5q0 -147 36 -266.5t108 -208.5t189 -138t271 -49q286 0 484 164v405h-467v66h538v-496
q-242 -204 -559 -204zM707 1501v137h116v-137h-116z" />
    <glyph glyph-name="gdotaccent" unicode="&#x121;" horiz-adv-x="1120" 
d="M520 -18q-209 0 -303 135.5t-94 419.5q0 268 98.5 404t304.5 136q143 0 236.5 -66.5t126.5 -195.5l4 242h72l-7 -199v-905q0 -422 -421 -422q-168 0 -259.5 64.5t-117.5 168.5l69 13q55 -187 306 -187q354 0 354 363v295l2 33q-17 -58 -45 -108.5t-71.5 -95t-109 -70
t-145.5 -25.5zM889 547q0 233 -85.5 352t-266.5 119q-172 0 -257 -116.5t-85 -362.5q0 -261 81.5 -378.5t262.5 -117.5q160 0 255 126.5t95 377.5zM471 1214v138h117v-138h-117z" />
    <glyph glyph-name="Gcommaaccent" unicode="&#x122;" horiz-adv-x="1519" 
d="M776 -20q-168 0 -297 52.5t-211 148.5t-124 229t-42 297q0 205 72 359t219.5 242.5t354.5 88.5q413 0 557 -307l-70 -23q-136 268 -487 268q-276 0 -424 -169.5t-148 -458.5q0 -147 36 -266.5t108 -208.5t189 -138t271 -49q286 0 484 164v405h-467v66h538v-496
q-242 -204 -559 -204zM862 -178q0 -152 -61 -262h-80v2q72 119 72 221h-54v131h123v-92z" />
    <glyph glyph-name="gcommaaccent" unicode="&#x123;" horiz-adv-x="1120" 
d="M520 -18q-209 0 -303 135.5t-94 419.5q0 268 98.5 404t304.5 136q143 0 236.5 -66.5t126.5 -195.5l4 242h72l-7 -199v-905q0 -422 -421 -422q-168 0 -259.5 64.5t-117.5 168.5l69 13q55 -187 306 -187q354 0 354 363v295l2 33q-17 -58 -45 -108.5t-71.5 -95t-109 -70
t-145.5 -25.5zM889 547q0 233 -85.5 352t-266.5 119q-172 0 -257 -116.5t-85 -362.5q0 -261 81.5 -378.5t262.5 -117.5q160 0 255 126.5t95 377.5zM618 1436q0 -152 -61 -262h-80v2q72 119 72 221h-53v131h122v-92z" />
    <glyph glyph-name="Hcircumflex" unicode="&#x124;" horiz-adv-x="1374" 
d="M1116 0v686h-860v-686h-72v1376h72v-626h860v626h74v-1376h-74zM942 1473h-61l-230 188h-2l-237 -188h-62v14l260 229h84l248 -229v-14z" />
    <glyph glyph-name="hcircumflex" unicode="&#x125;" horiz-adv-x="1169" 
d="M279 911q0 -6 -2.5 -50.5t-2.5 -63.5q13 54 40 102t69.5 89t105.5 65t140 24q344 0 344 -360v-717h-70v709q0 307 -287 307q-147 0 -242 -110t-95 -310v-596h-70v1571h70v-660zM907 1661v-2h-73l-226 215h-2l-221 -215h-76v2l258 268h80z" />
    <glyph glyph-name="Hbar" unicode="&#x126;" horiz-adv-x="1374" 
d="M1116 0v686h-860v-686h-72v1018h-184v67h184v291h72v-291h860v291h74v-291h188v-67h-188v-1018h-74zM256 750h860v268h-860v-268z" />
    <glyph glyph-name="hbar" unicode="&#x127;" horiz-adv-x="1169" 
d="M45 1348v53h164v170h70v-170h317v-53h-317v-437q0 -6 -2.5 -50.5t-2.5 -63.5q13 54 40 102t69.5 89t105.5 65t140 24q344 0 344 -360v-717h-70v709q0 307 -287 307q-147 0 -242 -110t-95 -310v-596h-70v1348h-164z" />
    <glyph glyph-name="Itilde" unicode="&#x128;" horiz-adv-x="444" 
d="M184 0v1376h76v-1376h-76zM371 1540q-55 0 -112 29t-108.5 57.5t-93.5 28.5q-110 0 -110 -107v-8h-64v6q0 82 47 123t127 41q44 0 91 -18.5t80.5 -40t73 -40t69.5 -18.5q116 0 116 111v6h58v-6q0 -78 -43.5 -121t-130.5 -43z" />
    <glyph glyph-name="itilde" unicode="&#x129;" horiz-adv-x="434" 
d="M205 0v1057h74v-1057h-74zM395 1253q-43 0 -88.5 18t-78 39.5t-72.5 39.5t-74 18q-111 0 -111 -106v-9h-63v7q0 82 47 122.5t127 40.5q56 0 114.5 -29t110 -58t88.5 -29q117 0 117 110v6h57v-6q0 -78 -43.5 -121t-130.5 -43z" />
    <glyph glyph-name="Imacron" unicode="&#x12a;" horiz-adv-x="444" 
d="M184 0v1376h76v-1376h-76zM631 1567h-826v53h826v-53z" />
    <glyph glyph-name="imacron" unicode="&#x12b;" horiz-adv-x="434" 
d="M205 0v1057h74v-1057h-74zM653 1280h-825v53h825v-53z" />
    <glyph glyph-name="Ibreve" unicode="&#x12c;" horiz-adv-x="444" 
d="M184 0v1376h76v-1376h-76zM209 1475q-142 0 -220.5 70t-78.5 173h61q0 -79 66.5 -133.5t173.5 -54.5q106 0 167.5 54t61.5 134h62q0 -103 -78.5 -173t-214.5 -70z" />
    <glyph glyph-name="ibreve" unicode="&#x12d;" horiz-adv-x="434" 
d="M205 0v1057h74v-1057h-74zM238 1188q-142 0 -220.5 70.5t-78.5 173.5h61q0 -79 66.5 -134t173.5 -55q106 0 167.5 54.5t61.5 134.5h61q0 -103 -78 -173.5t-214 -70.5z" />
    <glyph glyph-name="Iogonek" unicode="&#x12e;" horiz-adv-x="444" 
d="M184 0v1376h76v-1376h-14q-68 -41 -118 -107.5t-50 -142.5q0 -117 131 -117q57 0 127 25v-41q-66 -27 -139 -27q-90 0 -130 44t-40 106q0 41 12.5 79.5t30.5 66.5t41.5 52t43.5 38.5t38 23.5h-9z" />
    <glyph glyph-name="iogonek" unicode="&#x12f;" horiz-adv-x="460" 
d="M209 -410q-90 0 -130 44t-40 106q0 41 12.5 79.5t30.5 66.5t41.5 52t43.5 38.5t38 23.5v1057h71v-1057q-71 -43 -123.5 -107t-52.5 -139q0 -50 27.5 -79t99.5 -29q54 0 121 24v-53q-66 -27 -139 -27zM195 1333v115h92v-115h-92z" />
    <glyph glyph-name="Idotaccent" unicode="&#x130;" horiz-adv-x="444" 
d="M184 0v1376h76v-1376h-76zM158 1501v137h116v-137h-116z" />
    <glyph glyph-name="dotlessi" unicode="&#x131;" horiz-adv-x="434" 
d="M205 0v1057h74v-1057h-74z" />
    <glyph glyph-name="IJ" unicode="&#x132;" horiz-adv-x="1495" 
d="M184 0v1376h76v-1376h-76zM950 -23q-315 0 -370 347l71 8q28 -151 102.5 -219t196.5 -68q143 0 215 81t72 263v926h-330v61h404v-989q0 -410 -361 -410z" />
    <glyph glyph-name="ij" unicode="&#x133;" horiz-adv-x="806" 
d="M168 0v1057h72v-1057h-72zM158 1333v115h92v-115h-92zM459 -469q-8 0 -74 4v66q25 -2 64 -2q77 0 101.5 32t24.5 133v1293h72v-1278q0 -47 -2 -76.5t-8 -61t-18.5 -49.5t-33.5 -33t-52 -21.5t-74 -6.5zM565 1333v115h92v-115h-92z" />
    <glyph glyph-name="Jcircumflex" unicode="&#x134;" horiz-adv-x="958" 
d="M414 -23q-316 0 -371 347l72 8q28 -151 102.5 -219t196.5 -68q143 0 214.5 81t71.5 263v926h-329v61h403v-989q0 -410 -360 -410zM735 1473h-61l-230 188h-2l-237 -188h-62v14l260 229h84l248 -229v-14z" />
    <glyph glyph-name="jcircumflex" unicode="&#x135;" horiz-adv-x="395" 
d="M51 -469q-8 0 -74 4v66h64q77 0 102 31.5t25 131.5v1293h72v-1278q0 -56 -3 -90t-13.5 -68t-31 -51.5t-55 -28t-86.5 -10.5zM502 1188v-2h-74l-225 215h-2l-221 -215h-76v2l258 268h80z" />
    <glyph glyph-name="Kcommaaccent" unicode="&#x136;" horiz-adv-x="1245" 
d="M1053 0l-568 737l-227 -239v-498h-74v1376h74v-788l717 788h94l-537 -592l611 -784h-90zM672 -178q0 -150 -62 -262h-80v2q72 119 72 221h-53v131h123v-92z" />
    <glyph glyph-name="kcommaaccent" unicode="&#x137;" horiz-adv-x="968" 
d="M856 0l-430 522l-152 -147v-375h-69v1571h69v-1114l562 600h90l-453 -486l467 -571h-84zM590 -215q0 -150 -62 -262h-79v2q71 118 71 221h-53v131h123v-92z" />
    <glyph glyph-name="kgreenlandic" unicode="&#x138;" horiz-adv-x="968" 
d="M856 0l-430 522l-152 -147v-375h-69v1057h69v-600l562 600h90l-453 -486l467 -571h-84z" />
    <glyph glyph-name="Lacute" unicode="&#x139;" horiz-adv-x="1032" 
d="M184 0v1376h74v-1313h696v-63h-770zM483 1473v12l230 280h71v-18l-239 -274h-62z" />
    <glyph glyph-name="lacute" unicode="&#x13a;" horiz-adv-x="458" 
d="M205 0v1571h69v-1571h-69zM203 1659v2l237 291h86v-2l-254 -291h-69z" />
    <glyph glyph-name="Lcommaaccent" unicode="&#x13b;" horiz-adv-x="1032" 
d="M184 0v1376h74v-1313h696v-63h-770zM645 -178q0 -152 -61 -262h-80v2q71 118 71 221h-53v131h123v-92z" />
    <glyph glyph-name="lcommaaccent" unicode="&#x13c;" horiz-adv-x="458" 
d="M205 0v1571h69v-1571h-69zM324 -215q0 -150 -62 -262h-80v2q72 119 72 221h-53v131h123v-92z" />
    <glyph glyph-name="Lcaron" unicode="&#x13d;" horiz-adv-x="1032" 
d="M184 0v1376h74v-1313h696v-63h-770zM805 983q0 -150 -62 -262h-79v2q71 118 71 221h-53v131h123v-92z" />
    <glyph glyph-name="lcaron" unicode="&#x13e;" horiz-adv-x="458" 
d="M205 0v1571h69v-1571h-69zM623 934q0 -150 -62 -262h-80v2q72 119 72 221h-53v131h123v-92z" />
    <glyph glyph-name="Ldot" unicode="&#x13f;" horiz-adv-x="1032" 
d="M184 0v1376h74v-1313h696v-63h-770zM662 762v137h116v-137h-116z" />
    <glyph glyph-name="ldot" unicode="&#x140;" horiz-adv-x="458" 
d="M205 0v1571h69v-1571h-69zM479 713v137h117v-137h-117z" />
    <glyph glyph-name="Lslash" unicode="&#x141;" horiz-adv-x="1032" 
d="M70 502v71l114 99v704h74v-641l168 144v-74l-168 -143v-599h696v-63h-770v598z" />
    <glyph glyph-name="lslash" unicode="&#x142;" horiz-adv-x="516" 
d="M80 582v71l145 125v793h70v-733l141 120v-73l-141 -121v-764h-70v705z" />
    <glyph glyph-name="Nacute" unicode="&#x143;" horiz-adv-x="1386" 
d="M184 0v1376h99l856 -1300q-4 70 -4 172v1128h67v-1376h-98l-852 1303q2 -45 2 -113v-1190h-70zM623 1473v12l229 280h72v-18l-240 -274h-61z" />
    <glyph glyph-name="nacute" unicode="&#x144;" horiz-adv-x="1159" 
d="M905 0v709q0 307 -289 307q-148 0 -241.5 -110.5t-93.5 -309.5v-596h-70v801q0 139 -4 256h65l4 -262q29 125 122 203.5t233 78.5q344 0 344 -360v-717h-70zM571 1186v2l238 291h86v-2l-254 -291h-70z" />
    <glyph glyph-name="Ncommaaccent" unicode="&#x145;" horiz-adv-x="1386" 
d="M184 0v1376h99l856 -1300q-4 70 -4 172v1128h67v-1376h-98l-852 1303q2 -45 2 -113v-1190h-70zM733 -178q0 -152 -61 -262h-80v2q72 119 72 221h-54v131h123v-92z" />
    <glyph glyph-name="ncommaaccent" unicode="&#x146;" horiz-adv-x="1159" 
d="M905 0v709q0 307 -289 307q-148 0 -241.5 -110.5t-93.5 -309.5v-596h-70v801q0 139 -4 256h65l4 -262q29 125 122 203.5t233 78.5q344 0 344 -360v-717h-70zM657 -215q0 -152 -61 -262h-80v2q72 119 72 221h-53v131h122v-92z" />
    <glyph glyph-name="Ncaron" unicode="&#x147;" horiz-adv-x="1386" 
d="M184 0v1376h99l856 -1300q-4 70 -4 172v1128h67v-1376h-98l-852 1303q2 -45 2 -113v-1190h-70zM715 1475h-84l-260 229v14h61l238 -188h2l229 188h62v-14z" />
    <glyph glyph-name="ncaron" unicode="&#x148;" horiz-adv-x="1159" 
d="M905 0v709q0 307 -289 307q-148 0 -241.5 -110.5t-93.5 -309.5v-596h-70v801q0 139 -4 256h65l4 -262q29 125 122 203.5t233 78.5q344 0 344 -360v-717h-70zM924 1430l-262 -242h-84l-275 242v2h76l237 -189h2l230 189h76v-2z" />
    <glyph glyph-name="Eng" unicode="&#x14a;" horiz-adv-x="1386" 
d="M184 0v1376h99l856 -1300l-4 172v1128h67v-1569q0 -47 -1.5 -76.5t-8 -61t-18.5 -49t-32.5 -33t-51.5 -21.5t-74 -6q-8 0 -74 4v65q25 -2 64 -2q77 0 102 32.5t25 133.5v207h-29l-852 1303l2 -226v-1077h-70z" />
    <glyph glyph-name="eng" unicode="&#x14b;" horiz-adv-x="1159" 
d="M788 -469q-7 0 -73 4v66q25 -2 63 -2q77 0 102 32t25 133v945q0 307 -289 307q-148 0 -241.5 -110.5t-93.5 -309.5v-596h-70v801q0 139 -4 256h65q1 -50 1 -129t1 -131q29 122 125 201t232 79q344 0 344 -360v-938q0 -57 -2.5 -90.5t-13 -67.5t-30.5 -51.5t-54.5 -28
t-86.5 -10.5z" />
    <glyph glyph-name="Omacron" unicode="&#x14c;" horiz-adv-x="1480" 
d="M1305 696q0 294 -146.5 465.5t-413.5 171.5q-278 0 -422.5 -168.5t-144.5 -468.5q0 -304 146.5 -477.5t420.5 -173.5q282 0 421 170t139 481zM1378 696q0 -341 -159.5 -528.5t-473.5 -187.5q-207 0 -352.5 89t-218 249t-72.5 378q0 327 165.5 514t477.5 187
q157 0 279 -52t198.5 -146.5t116 -221.5t39.5 -281zM1169 1567h-825v53h825v-53z" />
    <glyph glyph-name="omacron" unicode="&#x14d;" horiz-adv-x="1132" 
d="M932 539q0 252 -90 365.5t-275 113.5q-368 0 -368 -481q0 -261 97 -379.5t269 -118.5q178 0 272.5 118t94.5 382zM1010 539q0 -559 -443 -559q-100 0 -179 30.5t-139.5 94.5t-93 173.5t-32.5 258.5q0 275 115 407.5t329 132.5q222 0 332.5 -130.5t110.5 -407.5zM987 1280
h-825v53h825v-53z" />
    <glyph glyph-name="Obreve" unicode="&#x14e;" horiz-adv-x="1480" 
d="M1305 696q0 294 -146.5 465.5t-413.5 171.5q-278 0 -422.5 -168.5t-144.5 -468.5q0 -304 146.5 -477.5t420.5 -173.5q282 0 421 170t139 481zM1378 696q0 -341 -159.5 -528.5t-473.5 -187.5q-207 0 -352.5 89t-218 249t-72.5 378q0 327 165.5 514t477.5 187
q157 0 279 -52t198.5 -146.5t116 -221.5t39.5 -281zM748 1475q-142 0 -220.5 70t-78.5 173h61q0 -79 66.5 -133.5t173.5 -54.5q106 0 167.5 54t61.5 134h61q0 -103 -78 -173t-214 -70z" />
    <glyph glyph-name="obreve" unicode="&#x14f;" horiz-adv-x="1132" 
d="M932 539q0 252 -90 365.5t-275 113.5q-368 0 -368 -481q0 -261 97 -379.5t269 -118.5q178 0 272.5 118t94.5 382zM1010 539q0 -559 -443 -559q-100 0 -179 30.5t-139.5 94.5t-93 173.5t-32.5 258.5q0 275 115 407.5t329 132.5q222 0 332.5 -130.5t110.5 -407.5zM571 1188
q-142 0 -220.5 70.5t-78.5 173.5h62q0 -79 66 -134t173 -55q106 0 168 54.5t62 134.5h61q0 -103 -78.5 -173.5t-214.5 -70.5z" />
    <glyph glyph-name="Ohungarumlaut" unicode="&#x150;" horiz-adv-x="1480" 
d="M1305 696q0 294 -146.5 465.5t-413.5 171.5q-278 0 -422.5 -168.5t-144.5 -468.5q0 -304 146.5 -477.5t420.5 -173.5q282 0 421 170t139 481zM1378 696q0 -341 -159.5 -528.5t-473.5 -187.5q-207 0 -352.5 89t-218 249t-72.5 378q0 327 165.5 514t477.5 187
q157 0 279 -52t198.5 -146.5t116 -221.5t39.5 -281zM508 1473v12l229 280h72v-18l-240 -274h-61zM866 1473v12l230 280h71v-18l-239 -274h-62z" />
    <glyph glyph-name="ohungarumlaut" unicode="&#x151;" horiz-adv-x="1132" 
d="M932 539q0 252 -90 365.5t-275 113.5q-368 0 -368 -481q0 -261 97 -379.5t269 -118.5q178 0 272.5 118t94.5 382zM1010 539q0 -559 -443 -559q-100 0 -179 30.5t-139.5 94.5t-93 173.5t-32.5 258.5q0 275 115 407.5t329 132.5q222 0 332.5 -130.5t110.5 -407.5zM305 1186
v2l238 291h86v-2l-254 -291h-70zM664 1186v2l237 291h86v-2l-254 -291h-69z" />
    <glyph glyph-name="OE" unicode="&#x152;" horiz-adv-x="2250" 
d="M1309 0v311q-146 -331 -564 -331q-207 0 -352.5 89t-218 249t-72.5 378q0 327 165.5 514t477.5 187q208 0 350.5 -89t213.5 -249v317h768v-63h-695v-574h639v-61h-639v-615h725v-63h-798zM1305 696q0 294 -146.5 465.5t-413.5 171.5q-278 0 -422.5 -168.5t-144.5 -468.5
q0 -304 146.5 -477.5t420.5 -173.5q282 0 421 170t139 481z" />
    <glyph glyph-name="oe" unicode="&#x153;" horiz-adv-x="1906" 
d="M567 -20q-100 0 -179 30.5t-139.5 94.5t-93 173.5t-32.5 258.5q0 275 115 407.5t329 132.5q319 0 408 -274q50 139 151 206.5t240 67.5q97 0 170.5 -26t119.5 -70t75 -108.5t40 -134.5t11 -156q0 -27 -2 -60h-770v-16q0 -137 36.5 -239t120 -164t207.5 -62q95 0 158 24.5
t98.5 64.5t71.5 112l65 -21q-24 -48 -45.5 -81t-54.5 -65.5t-72 -51.5t-95.5 -31t-127.5 -12q-157 0 -258 74.5t-145 213.5q-90 -288 -402 -288zM932 539q0 252 -90 365.5t-275 113.5q-368 0 -368 -481q0 -261 97 -379.5t269 -118.5q178 0 272.5 118t94.5 382zM1370 1018
q-75 0 -137 -23.5t-112.5 -73t-79.5 -135.5t-31 -202h696v20q0 414 -336 414z" />
    <glyph glyph-name="Racute" unicode="&#x154;" horiz-adv-x="1202" 
d="M258 610v-610h-74v1376h406q216 0 333 -98t117 -279q0 -56 -10.5 -106t-36.5 -97.5t-65.5 -83.5t-101 -62t-140.5 -36l412 -614h-82l-400 610h-20h-338zM967 999q0 147 -99 231.5t-290 84.5h-320v-647h328q381 0 381 331zM530 1473v12l230 280h71v-18l-239 -274h-62z" />
    <glyph glyph-name="racute" unicode="&#x155;" horiz-adv-x="690" 
d="M618 993h-38q-70 0 -128.5 -32t-94.5 -82.5t-56 -110.5t-20 -119v-649h-72v801q0 104 -4 256h67q5 -188 4 -250q27 111 112 184.5t198 73.5h32v-72zM340 1186v2l238 291h86v-2l-254 -291h-70z" />
    <glyph glyph-name="Rcommaaccent" unicode="&#x156;" horiz-adv-x="1202" 
d="M258 610v-610h-74v1376h406q216 0 333 -98t117 -279q0 -56 -10.5 -106t-36.5 -97.5t-65.5 -83.5t-101 -62t-140.5 -36l412 -614h-82l-400 610h-20h-338zM967 999q0 147 -99 231.5t-290 84.5h-320v-647h328q381 0 381 331zM655 -178q0 -152 -61 -262h-80v2q72 119 72 221
h-54v131h123v-92z" />
    <glyph glyph-name="rcommaaccent" unicode="&#x157;" horiz-adv-x="690" 
d="M618 993h-38q-70 0 -128.5 -32t-94.5 -82.5t-56 -110.5t-20 -119v-649h-72v801q0 104 -4 256h67q5 -188 4 -250q27 111 112 184.5t198 73.5h32v-72zM451 -215q0 -150 -62 -262h-80v2q72 119 72 221h-53v131h123v-92z" />
    <glyph glyph-name="Rcaron" unicode="&#x158;" horiz-adv-x="1202" 
d="M258 610v-610h-74v1376h406q216 0 333 -98t117 -279q0 -56 -10.5 -106t-36.5 -97.5t-65.5 -83.5t-101 -62t-140.5 -36l412 -614h-82l-400 610h-20h-338zM967 999q0 147 -99 231.5t-290 84.5h-320v-647h328q381 0 381 331zM623 1475h-84l-260 229v14h61l238 -188h2
l229 188h61v-14z" />
    <glyph glyph-name="rcaron" unicode="&#x159;" horiz-adv-x="690" 
d="M618 993h-38q-70 0 -128.5 -32t-94.5 -82.5t-56 -110.5t-20 -119v-649h-72v801q0 104 -4 256h67q5 -188 4 -250q27 111 112 184.5t198 73.5h32v-72zM692 1430l-262 -242h-84l-274 242v2h75l238 -189h2l229 189h76v-2z" />
    <glyph glyph-name="Sacute" unicode="&#x15a;" horiz-adv-x="1239" 
d="M1094 375q0 -85 -26.5 -154.5t-82.5 -124.5t-151.5 -85.5t-225.5 -30.5q-114 0 -201 24.5t-146.5 71.5t-97.5 109.5t-61 146.5l70 14q19 -59 40 -101.5t55.5 -83t79.5 -65.5t112 -40t153 -15q208 0 309 85.5t101 244.5q0 60 -20 105.5t-51.5 76t-90.5 56.5t-116.5 42
t-149.5 37q-55 13 -96 24.5t-89 29.5t-82.5 37.5t-68 48t-54.5 62t-33.5 78t-12.5 97.5q0 161 117.5 246.5t324.5 85.5q108 0 186.5 -22t129 -66t80.5 -96t53 -126l-72 -12q-21 67 -47.5 111.5t-70 80t-109 52t-156.5 16.5q-179 0 -272 -69t-93 -199q0 -50 13 -90.5
t40.5 -71t59 -53t81 -42t93 -32t107.5 -28.5q75 -19 111.5 -28.5t97 -29t90 -36.5t69 -45.5t58 -60.5t32 -76.5t13.5 -98.5zM545 1473v12l229 280h72v-18l-240 -274h-61z" />
    <glyph glyph-name="sacute" unicode="&#x15b;" horiz-adv-x="983" 
d="M870 281q0 -146 -99.5 -223.5t-287.5 -77.5q-329 0 -391 260l66 14q63 -215 329 -215q154 0 235 59t81 178q0 46 -16.5 81t-42 58.5t-73 43.5t-91 32.5t-115.5 28.5q-59 13 -101.5 26.5t-89.5 37t-76 53t-48 75t-19 103.5q0 120 87.5 191t262.5 71q160 0 246 -62
t121 -186l-70 -6q-28 98 -100.5 145.5t-198.5 47.5q-131 0 -204.5 -50.5t-73.5 -144.5q0 -52 20 -91t63 -66.5t94 -46.5t128 -37h1h1l1 -1h1h1h1l1 -1h1h1h1l2 -1q154 -37 216 -69q133 -76 136 -227zM436 1186v2l238 291h86v-2l-254 -291h-70z" />
    <glyph glyph-name="Scircumflex" unicode="&#x15c;" horiz-adv-x="1239" 
d="M1094 375q0 -85 -26.5 -154.5t-82.5 -124.5t-151.5 -85.5t-225.5 -30.5q-114 0 -201 24.5t-146.5 71.5t-97.5 109.5t-61 146.5l70 14q19 -59 40 -101.5t55.5 -83t79.5 -65.5t112 -40t153 -15q208 0 309 85.5t101 244.5q0 60 -20 105.5t-51.5 76t-90.5 56.5t-116.5 42
t-149.5 37q-55 13 -96 24.5t-89 29.5t-82.5 37.5t-68 48t-54.5 62t-33.5 78t-12.5 97.5q0 161 117.5 246.5t324.5 85.5q108 0 186.5 -22t129 -66t80.5 -96t53 -126l-72 -12q-21 67 -47.5 111.5t-70 80t-109 52t-156.5 16.5q-179 0 -272 -69t-93 -199q0 -50 13 -90.5
t40.5 -71t59 -53t81 -42t93 -32t107.5 -28.5q75 -19 111.5 -28.5t97 -29t90 -36.5t69 -45.5t58 -60.5t32 -76.5t13.5 -98.5zM885 1473h-62l-229 188h-2l-238 -188h-61v14l260 229h84l248 -229v-14z" />
    <glyph glyph-name="scircumflex" unicode="&#x15d;" horiz-adv-x="983" 
d="M870 281q0 -146 -99.5 -223.5t-287.5 -77.5q-329 0 -391 260l66 14q63 -215 329 -215q154 0 235 59t81 178q0 46 -16.5 81t-42 58.5t-73 43.5t-91 32.5t-115.5 28.5q-59 13 -101.5 26.5t-89.5 37t-76 53t-48 75t-19 103.5q0 120 87.5 191t262.5 71q160 0 246 -62
t121 -186l-70 -6q-28 98 -100.5 145.5t-198.5 47.5q-131 0 -204.5 -50.5t-73.5 -144.5q0 -52 20 -91t63 -66.5t94 -46.5t128 -37h1h1l1 -1h1h1h1l1 -1h1h1h1l2 -1q154 -37 216 -69q133 -76 136 -227zM776 1188v-2h-74l-225 215h-2l-221 -215h-76v2l258 268h80z" />
    <glyph glyph-name="Scedilla" unicode="&#x15e;" horiz-adv-x="1239" 
d="M791 -262q0 -170 -250 -170q-51 0 -78 4v49q39 -2 84 -2q91 0 137.5 26.5t46.5 92.5q0 90 -166 90q-30 0 -55 -4l59 158q-203 7 -312.5 96t-154.5 254l70 14q19 -59 40 -101.5t55.5 -83t79.5 -65.5t112 -40t153 -15q208 0 309 85.5t101 244.5q0 60 -20 105.5t-51.5 76
t-90.5 56.5t-116.5 42t-149.5 37q-55 13 -96 24.5t-89 29.5t-82.5 37.5t-68 48t-54.5 62t-33.5 78t-12.5 97.5q0 161 117.5 246.5t324.5 85.5q108 0 186.5 -22t129 -66t80.5 -96t53 -126l-72 -12q-21 67 -47.5 111.5t-70 80t-109 52t-156.5 16.5q-179 0 -272 -69t-93 -199
q0 -50 13 -90.5t40.5 -71t59 -53t81 -42t93 -32t107.5 -28.5q75 -19 111.5 -28.5t97 -29t90 -36.5t69 -45.5t58 -60.5t32 -76.5t13.5 -98.5q0 -84 -25 -152t-78 -122.5t-144.5 -86t-215.5 -34.5l-35 -103q84 0 139.5 -36t55.5 -103z" />
    <glyph glyph-name="scedilla" unicode="&#x15f;" horiz-adv-x="983" 
d="M723 -262q0 -170 -250 -170q-51 0 -78 4v49q39 -2 84 -2q91 0 138 26.5t47 92.5q0 90 -166 90q-31 0 -56 -4l60 156h-19q-329 0 -391 260l66 14q63 -215 329 -215q154 0 235 59t81 178q0 46 -16.5 81t-42 58.5t-73 43.5t-91 32.5t-115.5 28.5q-59 13 -101.5 26.5
t-89.5 37t-76 53t-48 75t-19 103.5q0 120 87.5 191t262.5 71q160 0 246 -62t121 -186l-70 -6q-28 98 -100.5 145.5t-198.5 47.5q-131 0 -204.5 -50.5t-73.5 -144.5q0 -52 20 -91t63 -66.5t94 -46.5t128 -37h1h1l1 -1h1h1h1l1 -1h1h1h1l2 -1q154 -37 216 -69
q133 -76 136 -227q0 -129 -78.5 -205.5t-226.5 -91.5l-37 -107q84 0 139.5 -36t55.5 -103z" />
    <glyph glyph-name="Scaron" unicode="&#x160;" horiz-adv-x="1239" 
d="M1094 375q0 -85 -26.5 -154.5t-82.5 -124.5t-151.5 -85.5t-225.5 -30.5q-114 0 -201 24.5t-146.5 71.5t-97.5 109.5t-61 146.5l70 14q19 -59 40 -101.5t55.5 -83t79.5 -65.5t112 -40t153 -15q208 0 309 85.5t101 244.5q0 60 -20 105.5t-51.5 76t-90.5 56.5t-116.5 42
t-149.5 37q-55 13 -96 24.5t-89 29.5t-82.5 37.5t-68 48t-54.5 62t-33.5 78t-12.5 97.5q0 161 117.5 246.5t324.5 85.5q108 0 186.5 -22t129 -66t80.5 -96t53 -126l-72 -12q-21 67 -47.5 111.5t-70 80t-109 52t-156.5 16.5q-179 0 -272 -69t-93 -199q0 -50 13 -90.5
t40.5 -71t59 -53t81 -42t93 -32t107.5 -28.5q75 -19 111.5 -28.5t97 -29t90 -36.5t69 -45.5t58 -60.5t32 -76.5t13.5 -98.5zM637 1475h-84l-260 229v14h61l238 -188h2l229 188h62v-14z" />
    <glyph glyph-name="scaron" unicode="&#x161;" horiz-adv-x="983" 
d="M870 281q0 -146 -99.5 -223.5t-287.5 -77.5q-329 0 -391 260l66 14q63 -215 329 -215q154 0 235 59t81 178q0 46 -16.5 81t-42 58.5t-73 43.5t-91 32.5t-115.5 28.5q-59 13 -101.5 26.5t-89.5 37t-76 53t-48 75t-19 103.5q0 120 87.5 191t262.5 71q160 0 246 -62
t121 -186l-70 -6q-28 98 -100.5 145.5t-198.5 47.5q-131 0 -204.5 -50.5t-73.5 -144.5q0 -52 20 -91t63 -66.5t94 -46.5t128 -37h1h1l1 -1h1h1h1l1 -1h1h1h1l2 -1q154 -37 216 -69q133 -76 136 -227zM788 1430l-262 -242h-84l-274 242v2h76l237 -189h2l230 189h75v-2z" />
    <glyph glyph-name="Tcedilla" unicode="&#x162;" horiz-adv-x="1089" 
d="M721 -262q0 -170 -250 -170q-51 0 -78 4v49q39 -2 84 -2q91 0 138 26.5t47 92.5q0 90 -166 90q-31 0 -56 -4l68 176h-4v1315h-473v61h1022v-61h-475v-1315h-9l-43 -123q84 0 139.5 -36t55.5 -103z" />
    <glyph glyph-name="tcedilla" unicode="&#x163;" horiz-adv-x="600" 
d="M563 -262q0 -170 -250 -170q-50 0 -77 4v49q39 -2 83 -2q91 0 138 26.5t47 92.5q0 90 -166 90q-30 0 -55 -4l61 160q-127 20 -127 174v841h-145v58h145v299h70v-299h225v-58h-225v-827q0 -72 29 -98.5t102 -26.5h100v-63q-82 -4 -115 -4l-34 -103q84 0 139 -36t55 -103z
" />
    <glyph glyph-name="Tcaron" unicode="&#x164;" horiz-adv-x="1089" 
d="M578 1315v-1315h-74v1315h-473v61h1022v-61h-475zM586 1475h-84l-260 229v14h61l238 -188h2l229 188h62v-14z" />
    <glyph glyph-name="tcaron" unicode="&#x165;" horiz-adv-x="600" 
d="M72 999v58h145v299h70v-299h225v-58h-225v-827q0 -72 29 -98.5t102 -26.5h100v-63q-86 -4 -125 -4q-99 0 -137.5 48t-38.5 130v841h-145zM674 1436q0 -150 -62 -262h-80v2q72 119 72 221h-53v131h123v-92z" />
    <glyph glyph-name="Tbar" unicode="&#x166;" horiz-adv-x="1089" 
d="M578 1315v-633h278v-68h-278v-614h-74v614h-271v68h271v633h-473v61h1022v-61h-475z" />
    <glyph glyph-name="tbar" unicode="&#x167;" horiz-adv-x="600" 
d="M72 999v58h145v299h70v-299h225v-58h-225v-417h213v-54h-213v-356q0 -72 29 -98.5t102 -26.5h100v-63q-86 -4 -125 -4q-99 0 -137.5 48t-38.5 130v370h-141v54h141v417h-145z" />
    <glyph glyph-name="Utilde" unicode="&#x168;" horiz-adv-x="1337" 
d="M672 -20q-105 0 -192.5 31t-154 92.5t-104 160t-37.5 225.5v887h74v-884q0 -109 32 -194.5t88 -140t131 -82.5t163 -28q205 0 307 113t102 348v868h72v-872q0 -524 -481 -524zM831 1540q-43 0 -89 18t-78 39.5t-72 39.5t-74 18q-110 0 -110 -107v-8h-64v6q0 82 47 123
t127 41q44 0 91 -18.5t80 -40t72.5 -40t69.5 -18.5q58 0 87.5 29t29.5 82v6h58v-6q0 -78 -44 -121t-131 -43z" />
    <glyph glyph-name="utilde" unicode="&#x169;" horiz-adv-x="1077" 
d="M209 1057v-711q0 -167 68 -238t206 -71q161 0 263 108.5t102 292.5v619h70v-838l4 -219h-68l-4 246q-102 -266 -381 -266q-169 0 -249.5 83.5t-80.5 272.5v721h70zM668 1253q-43 0 -89 18t-78.5 39.5t-72.5 39.5t-74 18q-110 0 -110 -106v-9h-64v7q0 82 47 122.5
t127 40.5q44 0 91 -18t80.5 -40t73 -40t69.5 -18q116 0 116 110v6h58v-6q0 -78 -43.5 -121t-130.5 -43z" />
    <glyph glyph-name="Umacron" unicode="&#x16a;" horiz-adv-x="1337" 
d="M672 -20q-105 0 -192.5 31t-154 92.5t-104 160t-37.5 225.5v887h74v-884q0 -109 32 -194.5t88 -140t131 -82.5t163 -28q205 0 307 113t102 348v868h72v-872q0 -524 -481 -524zM1092 1567h-826v53h826v-53z" />
    <glyph glyph-name="umacron" unicode="&#x16b;" horiz-adv-x="1077" 
d="M209 1057v-711q0 -167 68 -238t206 -71q161 0 263 108.5t102 292.5v619h70v-838l4 -219h-68l-4 246q-102 -266 -381 -266q-169 0 -249.5 83.5t-80.5 272.5v721h70zM926 1280h-826v53h826v-53z" />
    <glyph glyph-name="Ubreve" unicode="&#x16c;" horiz-adv-x="1337" 
d="M672 -20q-105 0 -192.5 31t-154 92.5t-104 160t-37.5 225.5v887h74v-884q0 -109 32 -194.5t88 -140t131 -82.5t163 -28q205 0 307 113t102 348v868h72v-872q0 -524 -481 -524zM670 1475q-142 0 -220.5 70t-78.5 173h61q0 -79 66.5 -133.5t173.5 -54.5q106 0 167.5 54
t61.5 134h62q0 -103 -78.5 -173t-214.5 -70z" />
    <glyph glyph-name="ubreve" unicode="&#x16d;" horiz-adv-x="1077" 
d="M209 1057v-711q0 -167 68 -238t206 -71q161 0 263 108.5t102 292.5v619h70v-838l4 -219h-68l-4 246q-102 -266 -381 -266q-169 0 -249.5 83.5t-80.5 272.5v721h70zM510 1188q-142 0 -220.5 70.5t-78.5 173.5h61q0 -79 66.5 -134t173.5 -55q106 0 167.5 54.5t61.5 134.5
h62q0 -103 -78.5 -173.5t-214.5 -70.5z" />
    <glyph glyph-name="Uring" unicode="&#x16e;" horiz-adv-x="1337" 
d="M672 -20q-105 0 -192.5 31t-154 92.5t-104 160t-37.5 225.5v887h74v-884q0 -109 32 -194.5t88 -140t131 -82.5t163 -28q205 0 307 113t102 348v868h72v-872q0 -524 -481 -524zM817 1614q0 62 -41 103.5t-102 41.5q-62 0 -104 -42t-42 -103q0 -62 42 -104t104 -42
q61 0 102 42t41 104zM881 1614q0 -85 -60.5 -146t-146.5 -61q-85 0 -145 61t-60 146q0 87 60 146t145 59q87 0 147 -59t60 -146z" />
    <glyph glyph-name="uring" unicode="&#x16f;" horiz-adv-x="1077" 
d="M209 1057v-711q0 -167 68 -238t206 -71q161 0 263 108.5t102 292.5v619h70v-838l4 -219h-68l-4 246q-102 -266 -381 -266q-169 0 -249.5 83.5t-80.5 272.5v721h70zM717 1327q0 -85 -60.5 -146t-146.5 -61q-85 0 -145 61t-60 146q0 87 60 146t145 59q87 0 147 -59t60 -146
zM653 1327q0 62 -41 104t-102 42t-103 -42t-42 -104q0 -61 41.5 -103t103.5 -42q61 0 102 41.5t41 103.5z" />
    <glyph glyph-name="Uhungarumlaut" unicode="&#x170;" horiz-adv-x="1337" 
d="M672 -20q-105 0 -192.5 31t-154 92.5t-104 160t-37.5 225.5v887h74v-884q0 -109 32 -194.5t88 -140t131 -82.5t163 -28q205 0 307 113t102 348v868h72v-872q0 -524 -481 -524zM430 1473v12l229 280h72v-18l-239 -274h-62zM788 1473v12l230 280h72v-18l-240 -274h-62z" />
    <glyph glyph-name="uhungarumlaut" unicode="&#x171;" horiz-adv-x="1077" 
d="M209 1057v-711q0 -167 68 -238t206 -71q161 0 263 108.5t102 292.5v619h70v-838l4 -219h-68l-4 246q-102 -266 -381 -266q-169 0 -249.5 83.5t-80.5 272.5v721h70zM602 1186v2l238 291h86v-2l-254 -291h-70zM244 1186v2l237 291h86v-2l-254 -291h-69z" />
    <glyph glyph-name="Uogonek" unicode="&#x172;" horiz-adv-x="1337" 
d="M897 -358q-90 0 -130 43.5t-40 105.5q0 115 88 203q-75 -14 -143 -14q-105 0 -192.5 31t-154 92.5t-104 160t-37.5 225.5v887h74v-884q0 -109 32 -194.5t88 -140t131 -82.5t163 -28q205 0 307 113t102 348v868h72v-872q0 -379 -254 -486q-52 -41 -86.5 -97.5
t-34.5 -119.5q0 -116 131 -116q60 0 127 24v-41q-63 -26 -139 -26z" />
    <glyph glyph-name="uogonek" unicode="&#x173;" horiz-adv-x="1077" 
d="M854 -410q-90 0 -130 44t-40 106q0 41 12.5 79.5t30.5 66.5t41.5 52t43.5 38.5t38 23.5h4l-4 246q-102 -266 -381 -266q-169 0 -249.5 83.5t-80.5 272.5v721h70v-711q0 -167 68 -238t206 -71q161 0 263 108.5t102 292.5v619h70v-838l4 -219q-72 -43 -124.5 -107
t-52.5 -139q0 -50 27.5 -79t99.5 -29q54 0 121 24v-53q-66 -27 -139 -27z" />
    <glyph glyph-name="Wcircumflex" unicode="&#x174;" horiz-adv-x="1955" 
d="M526 0l-424 1376h78l336 -1120l53 -180q29 110 49 178l322 1122h72l325 -1124l49 -174q23 84 50 170l342 1128h75l-419 -1376h-88l-334 1153q-35 116 -37 125l-35 -125l-328 -1153h-86zM1272 1473h-62l-229 188h-2l-238 -188h-61v14l260 229h84l248 -229v-14z" />
    <glyph glyph-name="wcircumflex" unicode="&#x175;" horiz-adv-x="1402" 
d="M340 0l-309 1057h75l222 -795l59 -209q20 92 51 209l211 795h94l218 -795l59 -215q22 100 55 217l219 793h78l-305 -1057h-96l-242 889l-33 125q-14 -55 -30 -123l-230 -891h-96zM991 1188v-2h-73l-226 215h-2l-221 -215h-76v2l258 268h80z" />
    <glyph glyph-name="Ycircumflex" unicode="&#x176;" horiz-adv-x="1222" 
d="M647 575v-575h-72v575l-473 801h82l428 -739l424 739h84zM911 1473h-61l-229 188h-3l-237 -188h-62v14l261 229h84l247 -229v-14z" />
    <glyph glyph-name="ycircumflex" unicode="&#x177;" horiz-adv-x="937" 
d="M180 -469h-119v57h93q47 0 77 8t52.5 32.5t35.5 51.5t33 82l86 230l-418 1065h74l262 -680l119 -309q13 51 111 313l252 676h73l-497 -1311q-50 -131 -97 -173t-137 -42zM748 1188v-2h-74l-225 215h-3l-221 -215h-75v2l258 268h79z" />
    <glyph glyph-name="Ydieresis" unicode="&#x178;" horiz-adv-x="1222" 
d="M647 575v-575h-72v575l-473 801h82l428 -739l424 739h84zM399 1493v115h93v-115h-93zM752 1493v115h92v-115h-92z" />
    <glyph glyph-name="Zacute" unicode="&#x179;" horiz-adv-x="1224" 
d="M139 0v61l844 1254h-801v61h893v-53l-852 -1260h901v-63h-985zM561 1473v12l230 280h71v-18l-239 -274h-62z" />
    <glyph glyph-name="zacute" unicode="&#x17a;" horiz-adv-x="911" 
d="M72 0v61l637 934h-617v62h696v-62l-641 -934h672v-61h-747zM395 1186v2l238 291h86v-2l-254 -291h-70z" />
    <glyph glyph-name="Zdotaccent" unicode="&#x17b;" horiz-adv-x="1224" 
d="M139 0v61l844 1254h-801v61h893v-53l-852 -1260h901v-63h-985zM557 1501v137h117v-137h-117z" />
    <glyph glyph-name="zdotaccent" unicode="&#x17c;" horiz-adv-x="911" 
d="M72 0v61l637 934h-617v62h696v-62l-641 -934h672v-61h-747zM381 1214v138h117v-138h-117z" />
    <glyph glyph-name="Zcaron" unicode="&#x17d;" horiz-adv-x="1224" 
d="M139 0v61l844 1254h-801v61h893v-53l-852 -1260h901v-63h-985zM653 1475h-84l-260 229v14h62l237 -188h2l230 188h61v-14z" />
    <glyph glyph-name="zcaron" unicode="&#x17e;" horiz-adv-x="911" 
d="M72 0v61l637 934h-617v62h696v-62l-641 -934h672v-61h-747zM748 1430l-263 -242h-84l-274 242v2h76l237 -189h2l230 189h76v-2z" />
    <glyph glyph-name="florin" unicode="&#x192;" 
d="M303 -457h-78l262 1389h-143l10 61h146l22 119q14 76 31 124t47.5 87t79 56.5t119.5 17.5q57 0 108 -8l-12 -66q-45 4 -111 4q-49 0 -82.5 -13.5t-54 -44.5t-31.5 -65.5t-22 -91.5l-23 -119h236l-10 -61h-238z" />
    <glyph glyph-name="Aringacute" unicode="&#x1fa;" horiz-adv-x="1220" 
d="M115 0l159 440h664l170 -440h78l-537 1376h-98l-512 -1376h76zM600 1327l111 -297l202 -526h-614l190 524zM809 1614q0 -85 -60.5 -146t-146.5 -61q-85 0 -145 61t-60 146q0 87 60 146t145 59q87 0 147 -59t60 -146zM745 1614q0 62 -41 103.5t-102 41.5
q-62 0 -103.5 -41.5t-41.5 -103.5t42 -104t103 -42t102 42t41 104zM557 1884v2l238 291h86v-2l-254 -291h-70z" />
    <glyph glyph-name="aringacute" unicode="&#x1fb;" horiz-adv-x="1150" 
d="M1090 41v-57q-36 -4 -97 -4q-77 0 -108 38t-31 109v117q-40 -130 -136 -197t-243 -67q-159 0 -245.5 83t-86.5 220q0 162 120.5 244.5t340.5 82.5h250v107q0 153 -72 227t-223 74q-133 0 -205 -54t-92 -173l-72 6q19 134 112 207t259 73q365 0 365 -352v-594
q0 -46 17.5 -68t64.5 -22h82zM475 39q96 0 170 36t119 100.5t67.5 148.5t22.5 184v45h-231q-410 0 -410 -268q0 -112 69 -179t193 -67zM770 1327q0 -85 -60.5 -146t-146.5 -61q-85 0 -145 61t-60 146q0 87 60 146t145 59q87 0 147 -59t60 -146zM707 1327q0 62 -41.5 104
t-102.5 42t-103 -42t-42 -104q0 -61 42 -103t103 -42t102.5 41.5t41.5 103.5zM520 1565v2l238 291h86v-3l-254 -290h-70z" />
    <glyph glyph-name="AEacute" unicode="&#x1fc;" horiz-adv-x="2048" 
d="M1849 0h-796v416l-551 -2l-195 -414h-78l658 1376h932v-65h-693v-572h641v-63h-641v-613h723v-63zM844 1141l-309 -656h518v826h-131zM1026 1473v12l229 280h72v-18l-240 -274h-61z" />
    <glyph glyph-name="aeacute" unicode="&#x1fd;" horiz-adv-x="1820" 
d="M475 -20q-159 0 -245.5 83t-86.5 220q0 311 461 311h250v123q0 153 -72 227t-223 74q-133 0 -205 -54t-92 -173l-72 6q19 134 112 207t259 73q286 0 348 -221q51 108 151.5 164.5t221.5 56.5q97 0 170.5 -26t119.5 -70t75 -108.5t40 -134.5t11 -156q0 -3 -1 -22.5
t-1 -22.5h-770v-31q0 -137 36.5 -239t120 -164t207.5 -62q95 0 158 24.5t98.5 64.5t71.5 112l65 -21q-24 -48 -45.5 -81t-54.5 -65.5t-72 -51.5t-95.5 -31t-127.5 -12q-322 0 -411 313q-32 -152 -136 -232.5t-266 -80.5zM475 39q96 0 170 36t119 100.5t67.5 148.5t22.5 184
v29h-231q-204 0 -307 -57.5t-103 -194.5q0 -112 69 -179t193 -67zM1286 1018q-74 0 -135.5 -23t-111.5 -71.5t-79.5 -132.5t-33.5 -197h696v10q0 414 -336 414zM858 1186v2l238 291h86v-2l-254 -291h-70z" />
    <glyph glyph-name="Oslashacute" unicode="&#x1fe;" horiz-adv-x="1480" 
d="M1378 696q0 -341 -159.5 -528.5t-473.5 -187.5q-266 0 -432 147l-123 -147h-84l162 192q-166 187 -166 524q0 327 165.5 514t477.5 187q265 0 429 -148l120 146h84l-159 -191q159 -187 159 -508zM178 696q0 -295 137 -467l811 965q-142 139 -381 139
q-278 0 -422.5 -168.5t-144.5 -468.5zM1305 696q0 279 -136 451l-809 -967q141 -135 385 -135q282 0 421 170t139 481zM690 1501v12l230 281h71v-18l-239 -275h-62z" />
    <glyph glyph-name="oslashacute" unicode="&#x1ff;" horiz-adv-x="1132" 
d="M1010 539q0 -559 -443 -559q-189 0 -301 106l-82 -106h-78l117 153q-100 143 -100 404q0 275 115 407.5t329 132.5q195 0 299 -98l90 119h76l-125 -164q103 -133 103 -395zM932 539q0 215 -70 333l-555 -731q93 -102 258 -102q178 0 272.5 118t94.5 382zM199 537
q0 -216 71 -342l555 729q-87 94 -258 94q-368 0 -368 -481zM530 1206v2l238 291h86v-2l-254 -291h-70z" />
    <glyph glyph-name="Scommaaccent" unicode="&#x218;" horiz-adv-x="1239" 
d="M1094 375q0 -85 -26.5 -154.5t-82.5 -124.5t-151.5 -85.5t-225.5 -30.5q-114 0 -201 24.5t-146.5 71.5t-97.5 109.5t-61 146.5l70 14q19 -59 40 -101.5t55.5 -83t79.5 -65.5t112 -40t153 -15q208 0 309 85.5t101 244.5q0 60 -20 105.5t-51.5 76t-90.5 56.5t-116.5 42
t-149.5 37q-55 13 -96 24.5t-89 29.5t-82.5 37.5t-68 48t-54.5 62t-33.5 78t-12.5 97.5q0 161 117.5 246.5t324.5 85.5q108 0 186.5 -22t129 -66t80.5 -96t53 -126l-72 -12q-21 67 -47.5 111.5t-70 80t-109 52t-156.5 16.5q-179 0 -272 -69t-93 -199q0 -50 13 -90.5
t40.5 -71t59 -53t81 -42t93 -32t107.5 -28.5q75 -19 111.5 -28.5t97 -29t90 -36.5t69 -45.5t58 -60.5t32 -76.5t13.5 -98.5zM672 -178q0 -150 -62 -262h-80v2q72 119 72 221h-53v131h123v-92z" />
    <glyph glyph-name="scommaaccent" unicode="&#x219;" horiz-adv-x="983" 
d="M870 281q0 -146 -99.5 -223.5t-287.5 -77.5q-329 0 -391 260l66 14q63 -215 329 -215q154 0 235 59t81 178q0 46 -16.5 81t-42 58.5t-73 43.5t-91 32.5t-115.5 28.5q-59 13 -101.5 26.5t-89.5 37t-76 53t-48 75t-19 103.5q0 120 87.5 191t262.5 71q160 0 246 -62
t121 -186l-70 -6q-28 98 -100.5 145.5t-198.5 47.5q-131 0 -204.5 -50.5t-73.5 -144.5q0 -52 20 -91t63 -66.5t94 -46.5t128 -37h1h1l1 -1h1h1h1l1 -1h1h1h1l2 -1q154 -37 216 -69q133 -76 136 -227zM569 -215q0 -152 -61 -262h-80v2q72 119 72 221h-54v131h123v-92z" />
    <glyph glyph-name="uni021A" unicode="&#x21a;" horiz-adv-x="1089" 
d="M578 1315v-1315h-74v1315h-473v61h1022v-61h-475zM602 -178q0 -152 -61 -262h-80v2q71 118 71 221h-53v131h123v-92z" />
    <glyph glyph-name="uni021B" unicode="&#x21b;" horiz-adv-x="600" 
d="M72 999v58h145v299h70v-299h225v-58h-225v-827q0 -72 29 -98.5t102 -26.5h100v-63q-86 -4 -125 -4q-99 0 -137.5 48t-38.5 130v841h-145zM410 -215q0 -150 -62 -262h-80v2q72 119 72 221h-53v131h123v-92z" />
    <glyph glyph-name="dotlessj" unicode="&#x237;" horiz-adv-x="395" 
d="M51 -469q-8 0 -74 4v66h64q77 0 102 31.5t25 131.5v1293h72v-1278q0 -56 -3 -90t-13.5 -68t-31 -51.5t-55 -28t-86.5 -10.5z" />
    <glyph glyph-name="circumflex" unicode="&#x2c6;" horiz-adv-x="669" 
d="M594 1188v-2h-74l-225 215h-2l-221 -215h-76v2l258 268h80z" />
    <glyph glyph-name="caron" unicode="&#x2c7;" horiz-adv-x="856" 
d="M743 1430l-262 -242h-84l-274 242v2h76l237 -189h2l230 189h75v-2z" />
    <glyph glyph-name="breve" unicode="&#x2d8;" horiz-adv-x="870" 
d="M436 1188q-142 0 -220.5 70.5t-78.5 173.5h62q0 -79 66 -134t173 -55q106 0 168 54.5t62 134.5h61q0 -103 -78.5 -173.5t-214.5 -70.5z" />
    <glyph glyph-name="dotaccent" unicode="&#x2d9;" horiz-adv-x="385" 
d="M133 1214v138h117v-138h-117z" />
    <glyph glyph-name="ring" unicode="&#x2da;" horiz-adv-x="688" 
d="M485 1327q0 62 -41 104t-102 42t-103 -42t-42 -104q0 -61 41.5 -103t103.5 -42q61 0 102 41.5t41 103.5zM549 1327q0 -85 -60.5 -146t-146.5 -61q-85 0 -145 61t-60 146q0 87 60 146t145 59q87 0 147 -59t60 -146z" />
    <glyph glyph-name="ogonek" unicode="&#x2db;" horiz-adv-x="555" 
d="M313 -410q-90 0 -130 44t-40 106q0 41 12.5 79.5t30.5 66.5t41.5 52t43.5 38.5t38 23.5h72q-71 -43 -123.5 -107t-52.5 -139q0 -50 27.5 -79t99.5 -29q54 0 121 24v-53q-66 -27 -140 -27z" />
    <glyph glyph-name="tilde" unicode="&#x2dc;" horiz-adv-x="663" 
d="M449 1253q-43 0 -89 18t-78.5 39.5t-72.5 39.5t-74 18q-110 0 -110 -106v-9h-64v7q0 82 47 122.5t127 40.5q44 0 91 -18t80.5 -40t73 -40t69.5 -18q116 0 116 110v6h58v-6q0 -78 -43.5 -121t-130.5 -43z" />
    <glyph glyph-name="hungarumlaut" unicode="&#x2dd;" horiz-adv-x="974" 
d="M96 1186v2l238 291h86v-2l-254 -291h-70zM455 1186v2l237 291h86v-2l-254 -291h-69z" />
    <glyph glyph-name="Wgrave" unicode="&#x1e80;" horiz-adv-x="1955" 
d="M526 0l-424 1376h78l336 -1120l53 -180q29 110 49 178l322 1122h72l325 -1124l49 -174q23 84 50 170l342 1128h75l-419 -1376h-88l-334 1153q-35 116 -37 125l-35 -125l-328 -1153h-86zM979 1473l-240 274v18h72l229 -280v-12h-61z" />
    <glyph glyph-name="wgrave" unicode="&#x1e81;" horiz-adv-x="1402" 
d="M340 0l-309 1057h75l222 -795l59 -209q20 92 51 209l211 795h94l218 -795l59 -215q22 100 55 217l219 793h78l-305 -1057h-96l-242 889l-33 125q-14 -55 -30 -123l-230 -891h-96zM678 1186l-254 291v2h86l238 -291v-2h-70z" />
    <glyph glyph-name="Wacute" unicode="&#x1e82;" horiz-adv-x="1955" 
d="M526 0l-424 1376h78l336 -1120l53 -180q29 110 49 178l322 1122h72l325 -1124l49 -174q19 75 50 170l342 1128h75l-419 -1376h-88l-334 1153q-35 116 -37 125l-35 -125l-328 -1153h-86zM932 1473v12l229 280h72v-18l-240 -274h-61z" />
    <glyph glyph-name="wacute" unicode="&#x1e83;" horiz-adv-x="1402" 
d="M340 0l-309 1057h75l222 -795l59 -209q20 92 51 209l211 795h94l218 -795l59 -215q22 100 55 217l219 793h78l-305 -1057h-96l-242 889l-33 125q-14 -55 -30 -123l-230 -891h-96zM651 1186v2l238 291h86v-2l-254 -291h-70z" />
    <glyph glyph-name="Wdieresis" unicode="&#x1e84;" horiz-adv-x="1955" 
d="M526 0l-424 1376h78l336 -1120l53 -180q29 110 49 178l322 1122h72l325 -1124l49 -174q19 75 50 170l342 1128h75l-419 -1376h-88l-334 1153q-35 116 -37 125l-35 -125l-328 -1153h-86zM1112 1493v115h92v-115h-92zM760 1493v115h92v-115h-92z" />
    <glyph glyph-name="wdieresis" unicode="&#x1e85;" horiz-adv-x="1402" 
d="M340 0l-309 1057h75l222 -795l59 -209q20 92 51 209l211 795h94l218 -795l59 -215q22 100 55 217l219 793h78l-305 -1057h-96l-242 889l-33 125q-14 -55 -30 -123l-230 -891h-96zM440 1237v115h92v-115h-92zM866 1237v115h92v-115h-92z" />
    <glyph glyph-name="Ygrave" unicode="&#x1ef2;" horiz-adv-x="1222" 
d="M647 575v-575h-72v575l-473 801h82l428 -739l424 739h84zM618 1473l-239 274v18h72l229 -280v-12h-62z" />
    <glyph glyph-name="ygrave" unicode="&#x1ef3;" horiz-adv-x="937" 
d="M180 -469h-119v57h93q47 0 77 8t52.5 32.5t35.5 51.5t33 82l86 230l-418 1065h74l262 -680l119 -309q54 157 111 313l252 676h73l-497 -1311q-50 -131 -97 -173t-137 -42zM434 1186l-254 291v2h86l238 -291v-2h-70z" />
    <glyph glyph-name="endash" unicode="&#x2013;" horiz-adv-x="1204" 
d="M0 512v66h1204v-66h-1204z" />
    <glyph glyph-name="emdash" unicode="&#x2014;" horiz-adv-x="2045" 
d="M0 512v66h2046v-66h-2046z" />
    <glyph glyph-name="quoteleft" unicode="&#x2018;" horiz-adv-x="415" 
d="M143 1147q0 80 12.5 136.5t43.5 113.5h73v-2q-65 -113 -65 -213h57v-144h-121v109z" />
    <glyph glyph-name="quoteright" unicode="&#x2019;" horiz-adv-x="415" 
d="M272 1288q0 -80 -12.5 -137t-42.5 -113h-74v2q66 114 66 213h-57v144h120v-109z" />
    <glyph glyph-name="quotesinglbase" unicode="&#x201a;" horiz-adv-x="415" 
d="M272 35q0 -80 -12.5 -137t-42.5 -113h-74v2q66 114 66 213h-57v143h120v-108z" />
    <glyph glyph-name="quotedblleft" unicode="&#x201c;" horiz-adv-x="700" 
d="M428 1147q0 80 12.5 137t42.5 113h74v-2q-65 -113 -65 -213h57v-144h-121v109zM143 1147q0 80 12.5 136.5t43.5 113.5h73v-2q-65 -113 -65 -213h57v-144h-121v109z" />
    <glyph glyph-name="quotedblright" unicode="&#x201d;" horiz-adv-x="704" 
d="M561 1288q0 -80 -12.5 -137t-42.5 -113h-74v2q66 114 66 213h-58v144h121v-109zM272 1288q0 -80 -12.5 -137t-42.5 -113h-74v2q66 114 66 213h-57v144h120v-109z" />
    <glyph glyph-name="quotedblbase" unicode="&#x201e;" horiz-adv-x="704" 
d="M561 35q0 -80 -12.5 -137t-42.5 -113h-74v2q66 114 66 213h-58v143h121v-108zM272 35q0 -80 -12.5 -137t-42.5 -113h-74v2q66 114 66 213h-57v143h120v-108z" />
    <glyph glyph-name="dagger" unicode="&#x2020;" 
d="M156 995v62h385v395h69v-395h389v-62h-389v-1130h-69v1130h-385z" />
    <glyph glyph-name="daggerdbl" unicode="&#x2021;" 
d="M156 995v62h385v395h69v-395h389v-62h-389v-637h389v-61h-389v-432h-69v432h-385v61h385v637h-385z" />
    <glyph glyph-name="bullet" unicode="&#x2022;" horiz-adv-x="722" 
d="M539 549q0 -79 -57 -135t-134 -56t-130.5 56t-53.5 135q0 75 54 128.5t130 53.5q77 0 134 -53.5t57 -128.5z" />
    <glyph glyph-name="ellipsis" unicode="&#x2026;" horiz-adv-x="1007" 
d="M442 0v137h117v-137h-117zM700 0v137h117v-137h-117zM178 0v137h117v-137h-117z" />
    <glyph glyph-name="perthousand" unicode="&#x2030;" horiz-adv-x="2048" 
d="M578 1036q0 156 -51 223.5t-150 67.5t-151 -68t-52 -225q0 -159 50 -229t153 -70q99 0 150 71.5t51 229.5zM377 1389q134 0 205 -82t71 -271q0 -364 -276 -364q-134 0 -206.5 85.5t-72.5 276.5q0 182 74.5 268.5t204.5 86.5zM248 0h-86l985 1376h86zM1219 344
q0 156 -51 223.5t-150 67.5t-151 -68t-52 -225q0 -159 50 -229t153 -70q99 0 150 71.5t51 229.5zM1018 696q134 0 205 -81.5t71 -270.5q0 -364 -276 -364q-134 0 -206.5 85.5t-72.5 276.5q0 182 74.5 268t204.5 86zM1874 344q0 156 -51 223.5t-150 67.5t-151 -68t-52 -225
q0 -159 50 -229t153 -70q99 0 150 71.5t51 229.5zM1673 696q134 0 205.5 -81.5t71.5 -270.5q0 -364 -277 -364q-134 0 -206 85.5t-72 276.5q0 182 74 268t204 86z" />
    <glyph glyph-name="guilsinglleft" unicode="&#x2039;" horiz-adv-x="741" 
d="M502 139l-400 389v4l398 388h88v-2l-393 -388l393 -389v-2h-86z" />
    <glyph glyph-name="guilsinglright" unicode="&#x203a;" horiz-adv-x="741" 
d="M240 920l399 -390v-4l-397 -387h-88v2l393 387l-393 390v2h86z" />
    <glyph glyph-name="Euro" unicode="&#x20ac;" 
d="M825 881l-28 -64h-490q-4 -41 -4 -125q0 -86 4 -127h510l-24 -61h-482q11 -105 36.5 -186t69 -144.5t112.5 -97t161 -33.5q111 0 192.5 64t102.5 161l66 -8q-25 -124 -123.5 -202t-243.5 -78q-107 0 -187.5 38t-132 109.5t-81 164t-41.5 212.5h-213l16 61h193
q-5 103 -5 127q0 74 5 125h-209l18 64h195q57 499 442 499q303 0 379 -266l-72 -16q-33 110 -108 165.5t-199 55.5q-168 0 -257.5 -110.5t-113.5 -327.5h512z" />
    <glyph glyph-name="trademark" unicode="&#x2122;" horiz-adv-x="1597" 
d="M1438 743h-64v582l-20 -51l-199 -531h-70l-215 539l-16 47v-586h-66v654h101l203 -510l28 -76q17 51 29 78l190 508h99v-654zM666 1339h-252v-596h-66v596h-252v58h570v-58z" />
    <glyph glyph-name="minus" unicode="&#x2212;" horiz-adv-x="1198" 
d="M123 635v65h950v-65h-950z" />
    <glyph glyph-name="notequal" unicode="&#x2260;" horiz-adv-x="1120" 
d="M86 870v66h578l163 311h70l-164 -311h303v-66h-338l-227 -430h565v-65h-600l-160 -307h-71l162 307h-281v65h315l228 430h-543z" />
    <glyph glyph-name="lessequal" unicode="&#x2264;" horiz-adv-x="1120" 
d="M90 631v90l950 422v-68l-884 -399l884 -397v-72zM1042 0h-948v61h948v-61z" />
    <glyph glyph-name="greaterequal" unicode="&#x2265;" horiz-adv-x="1120" 
d="M92 207v72l885 397l-885 399v68l950 -422v-90zM90 0v61h948v-61h-948z" />
    <glyph glyph-name="g.alt" horiz-adv-x="1114" 
d="M137 739q0 160 105 252t278 90q163 -3 254 -73l262 32l2 -63l-223 -8q76 -85 76 -221q0 -161 -98 -254.5t-275 -94.5q-33 0 -47 2q-192 -47 -192 -170q0 -131 213 -131l237 -8q149 -4 229 -69.5t80 -165.5q0 -154 -134 -240t-394 -86q-112 0 -194 19.5t-128.5 55.5
t-68 81t-21.5 102q0 101 72.5 171.5t200.5 90.5q-156 34 -156 168q0 152 188 191q-127 29 -196.5 117t-69.5 212zM471 41h-6q-167 -27 -234 -90.5t-67 -151.5q0 -30 7.5 -56t31 -54.5t60.5 -48.5t101 -33t148 -13q98 0 178 13.5t144.5 42.5t100.5 80.5t36 122.5
q0 81 -62 131t-194 53zM203 745q0 -133 82.5 -210.5t238.5 -77.5q144 0 223.5 74.5t79.5 213.5q0 135 -84.5 207t-224.5 72q-151 0 -233 -75t-82 -204z" />
    <glyph glyph-name="l.alt" horiz-adv-x="417" 
d="M291 -14q-84 0 -119 35t-35 112v1438h70v-1432q0 -48 20.5 -70t77.5 -22h51v-57q-45 -4 -65 -4z" />
    <glyph glyph-name="zero.tnum" 
d="M987 694q0 139 -21.5 248.5t-58 182t-89 120t-111 68t-127.5 20.5q-90 0 -162.5 -33.5t-130.5 -106t-89.5 -198.5t-31.5 -299q0 -327 108 -489t301 -162q187 0 299.5 161t112.5 488zM1057 696q0 -186 -37.5 -326.5t-105 -223.5t-152.5 -123.5t-187 -40.5q-104 0 -190 42
t-151.5 126t-101.5 223.5t-36 322.5q0 191 37 329.5t104.5 217.5t152 115.5t190.5 36.5q80 0 148.5 -21.5t130 -73.5t104.5 -130.5t68.5 -199.5t25.5 -274z" />
    <glyph glyph-name="one.tnum" 
d="M207 0v63h358v1221l-297 -215v84l312 223h55v-1313h350v-63h-778z" />
    <glyph glyph-name="two.tnum" 
d="M137 0v57q26 97 84 182.5t128.5 148.5t150 122t153.5 114.5t134.5 113t96.5 130t36 154.5q0 156 -92.5 233.5t-256.5 77.5q-131 0 -221 -68t-123 -198l-63 10q30 144 136 232.5t282 87.5q188 -2 298.5 -96.5t110.5 -276.5q0 -74 -22 -139.5t-60 -117t-88 -99t-108 -91
t-117.5 -85.5t-118.5 -88.5t-109 -96t-91.5 -112.5t-63.5 -132h799v-63h-875z" />
    <glyph glyph-name="three.tnum" 
d="M1010 362q0 -182 -113.5 -282t-318.5 -100q-110 0 -193 29t-132 81t-76 113t-36 135l72 8q11 -68 34 -120t63.5 -94.5t107.5 -65.5t157 -23q169 0 267 84.5t98 237.5q0 70 -24 125.5t-63 89.5t-91 57t-103.5 32t-105.5 9h-98v63h96q59 0 117.5 18t111 53t85 96t32.5 139
q0 133 -85.5 210.5t-246.5 77.5q-135 0 -226 -71.5t-106 -202.5l-69 8q18 160 130.5 244t283.5 84q190 0 291.5 -95.5t101.5 -250.5q0 -124 -70 -213.5t-219 -122.5q163 -18 245.5 -117t82.5 -236z" />
    <glyph glyph-name="four.tnum" 
d="M1042 362h-196v-362h-72v362h-665v60l636 954h101v-950h196v-64zM201 438l-11 -12h584v866z" />
    <glyph glyph-name="five.tnum" 
d="M1022 434q0 -211 -114 -332.5t-333 -121.5q-97 0 -174 24.5t-126 68t-79 95t-46 113.5l69 10q70 -248 356 -248q187 0 280 101.5t93 291.5q0 150 -98.5 244t-269.5 94q-198 0 -312 -135l-78 16l52 719h727v-65h-660l-43 -586q112 115 324 115q197 0 314.5 -111.5
t117.5 -292.5z" />
    <glyph glyph-name="six.tnum" 
d="M999 438q0 -202 -105.5 -330t-293.5 -128q-436 0 -436 626q0 380 117 585.5t331 205.5q133 0 218.5 -57t140.5 -187l-68 -18q-49 108 -120.5 154t-172.5 46q-169 0 -271 -186.5t-106 -546.5q23 89 81 151t131 89.5t155 27.5q190 0 294.5 -115t104.5 -317zM928 440
q0 171 -86.5 271t-253.5 100q-64 0 -122 -20.5t-108 -62t-80 -114t-30 -165.5q0 -72 20 -141t60 -130.5t110 -99t160 -37.5q155 0 242.5 110.5t87.5 288.5z" />
    <glyph glyph-name="seven.tnum" 
d="M989 1309q-127 -165 -212 -303.5t-152 -297t-98 -332.5t-31 -376h-66q0 370 119.5 678.5t370.5 634.5h-770v63h839v-67z" />
    <glyph glyph-name="eight.tnum" 
d="M1008 375q0 -84 -25.5 -154.5t-77 -125t-136.5 -85t-196 -30.5q-203 0 -314.5 109.5t-111.5 279.5q0 144 79 239t196 121q-118 31 -181 122t-63 206q0 149 102.5 244.5t292.5 95.5q200 0 300 -94.5t100 -243.5q0 -122 -64 -212t-182 -118q123 -25 202 -122t79 -232z
M934 377q0 65 -19 119.5t-60 100t-113.5 71.5t-170.5 26q-173 0 -262.5 -90.5t-89.5 -232.5q0 -65 21.5 -123t63.5 -104.5t111.5 -73.5t157.5 -27q181 0 271 92.5t90 241.5zM901 1053q0 133 -86 206.5t-242 73.5q-158 0 -240.5 -73.5t-82.5 -202.5q0 -42 8.5 -81t31.5 -79.5
t58 -70.5t92.5 -49t130.5 -19q79 0 140 19.5t96 49t57 70t29.5 78t7.5 78.5z" />
    <glyph glyph-name="nine.tnum" 
d="M995 805q0 -427 -106 -625t-326 -198q-276 0 -366 266l69 12q82 -217 297 -217q188 0 273.5 187t91.5 565q-30 -127 -123 -205t-246 -78q-181 0 -290 124.5t-109 313.5q0 205 107 326t302 121q209 0 317.5 -148.5t108.5 -443.5zM909 946q0 165 -91.5 277t-250.5 112
q-160 0 -247 -100.5t-87 -278.5q0 -175 89 -279t249 -104q144 0 241 98t97 275z" />
    <glyph glyph-name="G.alt" horiz-adv-x="1517" 
d="M1270 0l-2 393q-46 -195 -187 -304t-348 -109q-307 0 -469 193t-162 523q0 326 165 513.5t476 187.5q406 0 560 -316l-70 -22q-140 276 -490 276q-275 0 -420 -169.5t-145 -471.5q0 -143 34.5 -260.5t102.5 -204t176.5 -134.5t249.5 -48q228 0 363.5 148.5t152.5 425.5
h-462v65h538v-686h-63z" />
    <glyph glyph-name="J.alt" horiz-adv-x="958" 
d="M414 -23q-149 0 -245.5 89.5t-125.5 257.5l72 8q58 -287 299 -287q143 0 214.5 81t71.5 263v987h74v-989q0 -410 -360 -410z" />
    <glyph glyph-name="A.sc" horiz-adv-x="1075" 
d="M270 348l-125 -348h-73l409 1106h94l429 -1106h-78l-133 348h-523zM612 823l-84 230l-86 -232l-149 -411h477z" />
    <glyph glyph-name="B.sc" horiz-adv-x="985" 
d="M868 309q0 -81 -31.5 -142t-86.5 -96.5t-124 -53t-151 -17.5h-291v1106h244q377 0 377 -262q0 -97 -57.5 -170t-172.5 -92q141 -9 217 -85.5t76 -187.5zM793 311q0 238 -336 238h-199v-488h217q149 0 233.5 62t84.5 188zM731 838q0 99 -72.5 152.5t-209.5 53.5h-191v-436
h186q149 0 218 64t69 166z" />
    <glyph glyph-name="C.sc" horiz-adv-x="1204" 
d="M621 -16q-251 0 -385 154.5t-134 418.5q0 268 136.5 416.5t377.5 148.5q332 0 455 -270l-70 -25q-114 232 -385 232q-210 0 -324 -132.5t-114 -369.5q0 -235 117.5 -371.5t327.5 -136.5q143 0 237.5 60t157.5 190l63 -29q-67 -144 -179.5 -215t-280.5 -71z" />
    <glyph glyph-name="D.sc" horiz-adv-x="1191" 
d="M1016 565q0 237 -131.5 357t-358.5 120h-268v-979h293q222 0 343.5 131t121.5 371zM1090 565q0 -273 -142 -419t-393 -146h-371v1106h346q166 0 290 -57.5t197 -181t73 -302.5z" />
    <glyph glyph-name="E.sc" horiz-adv-x="968" 
d="M184 0v1106h627v-64h-553v-444h510v-59h-510v-478h576v-61h-650z" />
    <glyph glyph-name="F.sc" horiz-adv-x="935" 
d="M258 1042v-481h510v-61h-510v-500h-74v1106h627v-64h-553z" />
    <glyph glyph-name="G.sc" horiz-adv-x="1286" 
d="M647 -16q-268 0 -406.5 156.5t-138.5 424.5q0 252 136 403.5t387 151.5q95 0 171 -18.5t129 -54t89.5 -78.5t62.5 -99l-69 -20q-53 101 -144.5 155t-238.5 54q-216 0 -332.5 -133.5t-116.5 -360.5q0 -155 49 -269t157 -181.5t267 -67.5q224 0 383 127v309h-368v64h438
v-395q-188 -168 -455 -168z" />
    <glyph glyph-name="H.sc" horiz-adv-x="1189" 
d="M932 0v543h-676v-543h-72v1106h72v-500h676v500h74v-1106h-74z" />
    <glyph glyph-name="I.sc" horiz-adv-x="444" 
d="M184 0v1106h76v-1106h-76z" />
    <glyph glyph-name="J.sc" horiz-adv-x="868" 
d="M389 -16q-257 0 -303 278l72 8q23 -118 80.5 -170.5t150.5 -52.5q110 0 166.5 63.5t56.5 202.5v729h-258v64h330v-793q0 -164 -75 -246.5t-220 -82.5z" />
    <glyph glyph-name="K.sc" horiz-adv-x="1042" 
d="M881 0l-447 582l-176 -187v-395h-74v1106h74v-623l559 623h92l-428 -477l490 -629h-90z" />
    <glyph glyph-name="L.sc" horiz-adv-x="946" 
d="M184 0v1106h74v-1045h555v-61h-629z" />
    <glyph glyph-name="M.sc" horiz-adv-x="1366" 
d="M1114 0v817q0 41 0.5 78t1 61.5t1 42.5t1 28t0.5 11q-1 -1 -9.5 -27t-27 -78t-41.5 -112l-313 -821h-70l-329 825q-74 187 -80 209v-5q0 -5 0.5 -14.5t0.5 -22.5v-31.5t0.5 -39t0.5 -48v-56.5v-817h-66v1106h97l342 -860q19 -47 35 -88.5t25 -65t9 -24.5q0 8 70 188
l319 850h101v-1106h-68z" />
    <glyph glyph-name="N.sc" horiz-adv-x="1198" 
d="M920 0l-670 1028q2 -69 2 -184v-844h-68v1106h95l673 -1030q-4 92 -4 198v832h66v-1106h-94z" />
    <glyph glyph-name="O.sc" horiz-adv-x="1241" 
d="M1063 557q0 232 -114 369t-324 137q-218 0 -332.5 -134.5t-114.5 -371.5t116 -375.5t329 -138.5q222 0 331 135.5t109 378.5zM1139 557q0 -271 -131.5 -424t-384.5 -153q-250 0 -385.5 156.5t-135.5 420.5q0 263 135.5 416t387.5 153q126 0 225 -42.5t161.5 -119t95 -180
t32.5 -227.5z" />
    <glyph glyph-name="P.sc" horiz-adv-x="987" 
d="M885 782q0 -149 -90.5 -237t-268.5 -88h-268v-457h-74v1106h336q186 0 275.5 -86t89.5 -238zM813 782q0 122 -74 192t-225 70h-256v-526h262q149 0 221 69t72 195z" />
    <glyph glyph-name="Q.sc" horiz-adv-x="1241" 
d="M1139 557q0 -261 -116.5 -411.5t-352.5 -163.5v-17q0 -45 12.5 -78t32 -52t48.5 -30t56.5 -14.5t61.5 -3.5q94 0 133 4v-70q-90 -4 -137 -4q-128 0 -206.5 56t-78.5 182v25q-237 10 -363.5 165.5t-126.5 411.5q0 263 135.5 416t387.5 153q126 0 225 -42.5t161.5 -119
t95 -180t32.5 -227.5zM1063 557q0 232 -114 369t-324 137q-220 0 -333.5 -134.5t-113.5 -371.5t116 -375.5t329 -138.5q223 0 331.5 134.5t108.5 379.5z" />
    <glyph glyph-name="R.sc" horiz-adv-x="1054" 
d="M258 483v-483h-74v1106h336q173 0 269 -80.5t96 -226.5q0 -58 -15 -108t-47.5 -93t-88 -71.5t-130.5 -39.5l328 -487h-82l-313 483h-15h-264zM813 799q0 116 -77.5 179.5t-227.5 63.5l-250 2v-503h256q299 0 299 258z" />
    <glyph glyph-name="acute.i" horiz-adv-x="708" 
d="M76 1186v2l147 291h92v-2l-174 -291h-65z" />
    <glyph glyph-name="S.sc" horiz-adv-x="1060" 
d="M942 301q0 -144 -96.5 -232.5t-300.5 -88.5q-180 0 -277.5 73.5t-134.5 212.5l70 13q19 -58 41 -97t60.5 -74t98.5 -52t144 -17q161 0 242 67t81 191q0 39 -9.5 70t-31.5 54.5t-47.5 40.5t-69 32.5t-82 26t-100.5 24.5q-52 12 -89 23.5t-81.5 29t-74 39.5t-55.5 52
t-39 70.5t-13 90.5q0 133 98.5 203.5t264.5 70.5q88 0 151.5 -17.5t104.5 -53t66 -78.5t44 -105l-71 -10q-17 52 -37 86.5t-54 62.5t-85.5 41t-124.5 13q-138 0 -210.5 -55.5t-72.5 -155.5q0 -39 9.5 -70.5t31.5 -55t45.5 -40.5t64 -32t73 -25t85.5 -23q83 -20 124 -31.5
t100 -36.5t86.5 -53t49 -75t21.5 -109z" />
    <glyph glyph-name="T.sc" horiz-adv-x="929" 
d="M502 1042v-1042h-74v1042h-377v64h828v-64h-377z" />
    <glyph glyph-name="U.sc" horiz-adv-x="1157" 
d="M580 -20q-175 0 -285.5 103.5t-110.5 305.5v717h74v-711q0 -171 89 -260.5t233 -89.5q161 0 241 88.5t80 272.5v700h72v-705q0 -421 -393 -421z" />
    <glyph glyph-name="V.sc" horiz-adv-x="1054" 
d="M584 0h-88l-424 1106h80l354 -944l33 -99l32 93l332 950h80z" />
    <glyph glyph-name="W.sc" horiz-adv-x="1558" 
d="M1153 0h-90l-260 913l-27 101l-26 -101l-256 -913h-86l-336 1106h75l265 -899l39 -135l36 137l254 897h72l256 -899l35 -133l39 131l266 901h78z" />
    <glyph glyph-name="X.sc" horiz-adv-x="1069" 
d="M915 0l-376 526l-383 -526h-84l424 573l-383 533h86l342 -483l336 483h84l-375 -533l411 -573h-82z" />
    <glyph glyph-name="Y.sc" horiz-adv-x="974" 
d="M522 461v-461h-71v461l-379 645h80l337 -584l332 584h82z" />
    <glyph glyph-name="Z.sc" horiz-adv-x="1003" 
d="M102 0v57l672 985h-635v64h725v-55l-678 -990h715v-61h-799z" />
    <glyph glyph-name="G.alt_sc" horiz-adv-x="1284" 
d="M610 -16q-248 0 -378 154.5t-130 418.5q0 263 134.5 414t386.5 151q327 0 452 -256l-69 -22q-107 215 -385 215q-216 0 -329.5 -133t-113.5 -369q0 -233 113 -370.5t330 -137.5q179 0 285.5 115t119.5 325h-364v64h438v-553h-62l-2 303q-38 -151 -150.5 -235t-275.5 -84z
" />
    <glyph glyph-name="J.alt_sc" horiz-adv-x="819" 
d="M340 -16q-121 0 -200 71t-103 207l72 8q45 -223 231 -223q110 0 166.5 63.5t56.5 202.5v793h72v-793q0 -164 -75 -246.5t-220 -82.5z" />
    <glyph glyph-name="exclamdown.cap" horiz-adv-x="688" 
d="M311 1061h64l8 -840l2 -217h-82l2 217zM401 1376v-131h-114v131h114z" />
    <glyph glyph-name="exclam.cap" horiz-adv-x="688" 
d="M377 317h-64l-8 840l-2 217h82l-2 -217zM287 2v131h114v-131h-114z" />
    <glyph glyph-name="periodcentered.cap" horiz-adv-x="526" 
d="M205 649v137h117v-137h-117z" />
    <glyph glyph-name="braceleft.sc" horiz-adv-x="745" 
d="M643 -135h-94q-199 0 -199 233v219q0 119 -60 175.5t-167 58.5v65q97 2 162 64t65 176v172q0 234 199 234h94v-60h-70q-87 0 -120 -49t-33 -152v-157q0 -102 -51 -169.5t-138 -88.5q92 -19 140.5 -85t48.5 -171v-205q0 -107 35 -154t118 -47h70v-59z" />
    <glyph glyph-name="braceright.sc" horiz-adv-x="745" 
d="M102 -135v59h70q83 0 118.5 47t35.5 154v205q0 105 48 171t140 85q-87 21 -137.5 88.5t-50.5 169.5v157q0 103 -33.5 152t-120.5 49h-70v60h95q198 0 198 -234v-172q0 -114 65.5 -176t162.5 -64v-65q-107 -2 -167.5 -58.5t-60.5 -175.5v-219q0 -233 -198 -233h-95z" />
    <glyph glyph-name="bracketleft.sc" horiz-adv-x="546" 
d="M164 -143v1407h301v-60h-229v-1288h229v-59h-301z" />
    <glyph glyph-name="bracketright.sc" horiz-adv-x="546" 
d="M383 -143h-301v59h229v1288h-229v60h301v-1407z" />
    <glyph glyph-name="parenleft.sc" horiz-adv-x="569" 
d="M395 -166q-127 185 -189.5 356.5t-62.5 389.5q0 343 230 702l61 2q-215 -338 -215 -702q0 -397 248 -748h-72z" />
    <glyph glyph-name="parenright.sc" horiz-adv-x="569" 
d="M174 -166h-72q248 351 248 748q0 364 -215 702l62 -2q229 -358 229 -702q0 -218 -62.5 -389.5t-189.5 -356.5z" />
    <glyph glyph-name="slash.sc" horiz-adv-x="647" 
d="M82 -162l375 1401h67l-374 -1401h-68z" />
    <glyph glyph-name="backslash.sc" horiz-adv-x="647" 
d="M535 -162h-68l-375 1401h68z" />
    <glyph glyph-name="bar.sc" horiz-adv-x="641" 
d="M287 -162v1401h67v-1401h-67z" />
    <glyph glyph-name="brokenbar.sc" horiz-adv-x="641" 
d="M287 -162v598h67v-598h-67zM287 680v559h67v-559h-67z" />
    <glyph glyph-name="exclam.sc" horiz-adv-x="606" 
d="M336 309h-66l-4 537v260h74v-260zM246 2v131h114v-131h-114z" />
    <glyph glyph-name="exclamdown.sc" horiz-adv-x="606" 
d="M270 795h66l4 -537v-260h-74v260zM360 1102v-131h-114v131h114z" />
    <glyph glyph-name="question.sc" horiz-adv-x="931" 
d="M809 831q0 -48 -12.5 -91.5t-27 -72t-45 -62.5t-47.5 -49t-54 -46q-85 -71 -116.5 -116t-31.5 -97h-78q0 43 12 78.5t39 69t50 55t67 57.5q87 72 126.5 129t39.5 145q0 97 -70 163.5t-212 66.5q-147 0 -223 -81t-76 -202l-68 10q0 141 98.5 239.5t270.5 98.5
q91 0 162.5 -26t112.5 -69t62 -94t21 -106zM375 0v131h114v-131h-114z" />
    <glyph glyph-name="questiondown.sc" horiz-adv-x="931" 
d="M102 274q0 48 12.5 92t27.5 72.5t45.5 62.5t47.5 49t54 46q85 71 116 116t31 97h78q0 -43 -12 -78.5t-39 -69t-50 -55t-67 -57.5q-43 -36 -67.5 -60t-50 -58t-37 -72t-11.5 -85q0 -97 70.5 -163t212.5 -66q147 0 223 81t76 202l67 -11q0 -141 -98 -239t-270 -98
q-91 0 -162.5 26t-113 68.5t-62.5 93.5t-21 106zM537 1106v-131h-115v131h115z" />
    <glyph glyph-name="questiondown.cap" horiz-adv-x="1048" 
d="M82 326q0 37 6.5 72t14.5 61.5t25.5 55.5t29 46.5t36.5 43.5t36 36.5t39 35.5t36 32q6 6 30.5 28t33.5 30.5t29.5 28.5t30.5 32.5t23.5 31t21.5 35t13 33.5q11 37 11 112h73q0 -74 -10 -118q-13 -49 -45.5 -96t-57.5 -72t-73 -66q-50 -44 -74 -66t-60 -61.5t-52.5 -70
t-29.5 -73t-13 -89.5q0 -54 19 -102.5t57 -89.5t105 -65t155 -24q171 0 267.5 86.5t90.5 237.5l74 -11q1 -78 -25 -145.5t-77.5 -120.5t-136 -83.5t-193.5 -30.5q-104 0 -184.5 28t-128.5 77t-72.5 110t-24.5 131zM594 1372v-131h-115v131h115z" />
    <glyph glyph-name="question.cap" horiz-adv-x="1048" 
d="M926 1047q0 -37 -6.5 -72t-14.5 -61.5t-25.5 -55.5t-29.5 -46.5t-36.5 -43t-36 -36.5t-39.5 -35.5t-36 -32.5q-3 -3 -30.5 -28t-34 -31.5t-29 -28t-31 -33t-23 -30.5t-22 -35.5t-12.5 -33.5q-10 -34 -10 -112h-74q0 75 10 119q10 38 28 70.5t47 64.5t46.5 48.5t55.5 49.5
q50 44 74 66t60 61.5t52.5 70t29.5 73t13 89.5q0 54 -19 102.5t-57 89.5t-105 65t-155 24q-171 0 -267.5 -86.5t-90.5 -237.5l-74 11q-1 78 25 145.5t77.5 121t136 84t193.5 30.5q104 0 184.5 -28t128.5 -77t72.5 -110t24.5 -131zM414 0v131h114v-131h-114z" />
    <glyph glyph-name="copyleft" horiz-adv-x="1509" 
d="M57 707q0 190 93 350.5t253.5 253t350.5 92.5q142 0 271 -55t222 -147.5t148 -221.5t55 -272q0 -142 -55.5 -271t-148.5 -222.5t-222 -148.5t-270 -55q-190 0 -350.5 93.5t-253.5 253.5t-93 350zM123 707q0 -170 84.5 -315t230 -229.5t316.5 -84.5q170 0 314 83.5
t228 228.5t84 317q0 171 -83.5 315.5t-228 228.5t-314.5 84q-128 0 -245 -50t-201.5 -134t-134.5 -200.5t-50 -243.5zM1042 711q0 338 -294 338q-181 0 -240 -152l-68 23q31 88 109.5 140t200.5 52q182 0 275 -107.5t93 -295.5q0 -193 -94.5 -301.5t-275.5 -108.5
q-228 0 -324 207l68 24q38 -83 98 -124t158 -41q294 0 294 346z" />
    <glyph glyph-name="commaaccent" horiz-adv-x="405" 
d="M268 1436q0 -152 -61 -262h-80v2q72 119 72 221h-54v131h123v-92z" />
    <glyph glyph-name="dblgrave" horiz-adv-x="964" 
d="M500 1186h-70l-254 291v2h86l238 -291v-2zM850 1186h-70l-254 291v2h86l238 -291v-2z" />
    <glyph glyph-name="lslash.alt" horiz-adv-x="516" 
d="M80 582v71l137 117v801h70v-742l149 129v-73l-149 -127v-619q0 -48 20.5 -70t77.5 -22h51v-57q-45 -4 -65 -4q-84 0 -119 35t-35 112v565z" />
    <glyph glyph-name="IJ.alt" horiz-adv-x="1495" 
d="M184 0v1376h76v-1376h-76zM950 -23q-148 0 -244.5 89.5t-125.5 257.5l71 8q58 -287 299 -287q143 0 215 81t72 263v987h74v-989q0 -410 -361 -410z" />
    <glyph glyph-name="acute.cap" horiz-adv-x="708" 
d="M70 1473v12l229 280h72v-18l-240 -274h-61z" />
    <glyph glyph-name="acute.i_cap" horiz-adv-x="708" 
d="M80 1473v12l143 280h82v-18l-164 -274h-61z" />
    <glyph glyph-name="breve.cap" horiz-adv-x="870" 
d="M436 1475q-142 0 -220.5 70t-78.5 173h62q0 -79 66 -133.5t173 -54.5q106 0 168 54t62 134h61q0 -103 -78.5 -173t-214.5 -70z" />
    <glyph glyph-name="caron.cap" horiz-adv-x="856" 
d="M481 1475h-84l-260 229v14h62l237 -188h2l230 188h61v-14z" />
    <glyph glyph-name="cedilla.cap" horiz-adv-x="714" 
d="M479 -262q0 -170 -250 -170q-50 0 -77 4v49q39 -2 84 -2q91 0 137.5 26.5t46.5 92.5q0 90 -166 90q-30 0 -55 -4l67 176h62l-43 -123q84 0 139 -36t55 -103z" />
    <glyph glyph-name="commaaccent.cap" horiz-adv-x="405" 
d="M268 1722q0 -152 -61 -262h-80v2q72 119 72 221h-54v132h123v-93z" />
    <glyph glyph-name="circumflex.cap" horiz-adv-x="669" 
d="M592 1473h-62l-229 188h-2l-238 -188h-61v14l260 229h84l248 -229v-14z" />
    <glyph glyph-name="dieresis.cap" horiz-adv-x="684" 
d="M119 1493v115h92v-115h-92zM471 1493v115h92v-115h-92z" />
    <glyph glyph-name="dotaccent.cap" horiz-adv-x="385" 
d="M133 1501v137h117v-137h-117z" />
    <glyph glyph-name="grave.cap" horiz-adv-x="708" 
d="M457 1473l-240 274v18h72l229 -280v-12h-61z" />
    <glyph glyph-name="dblgrave.cap" horiz-adv-x="964" 
d="M842 1473h-62l-239 274v18h71l230 -280v-12zM492 1473h-62l-240 274v18h72l230 -280v-12z" />
    <glyph glyph-name="hungarumlaut.cap" horiz-adv-x="974" 
d="M104 1473v12l230 280h72v-18l-240 -274h-62zM463 1473v12l229 280h72v-18l-240 -274h-61z" />
    <glyph glyph-name="macron.cap" horiz-adv-x="1056" 
d="M954 1567h-825v53h825v-53z" />
    <glyph glyph-name="ogonek.cap" horiz-adv-x="555" 
d="M319 -410q-90 0 -129.5 44t-39.5 106q0 66 32 124.5t66 88.5t67 47h54q-68 -41 -118 -107.5t-50 -142.5q0 -117 131 -117q57 0 127 25v-41q-66 -27 -140 -27z" />
    <glyph glyph-name="ring.cap" horiz-adv-x="688" 
d="M485 1614q0 62 -41 103.5t-102 41.5q-62 0 -103.5 -41.5t-41.5 -103.5t42 -104t103 -42t102 42t41 104zM549 1614q0 -85 -60.5 -146t-146.5 -61q-85 0 -145 61t-60 146q0 87 60 146t145 59q87 0 147 -59t60 -146z" />
    <glyph glyph-name="tilde.cap" horiz-adv-x="663" 
d="M449 1540q-55 0 -112 29t-108.5 57.5t-93.5 28.5q-110 0 -110 -107v-8h-64v6q0 82 47 123t127 41q44 0 91 -18.5t80.5 -40t73 -40t69.5 -18.5q116 0 116 111v6h58v-6q0 -78 -43.5 -121t-130.5 -43z" />
    <glyph glyph-name="braceleft.cap" horiz-adv-x="745" 
d="M643 -102h-94q-199 0 -199 233v291q0 119 -60 175t-167 58v66q97 2 162 64t65 176v315q0 233 199 233h94v-59h-70q-87 0 -120 -49t-33 -152v-301q0 -102 -51 -169.5t-138 -88.5q92 -19 140.5 -85t48.5 -171v-276q0 -107 35 -154t118 -47h70v-59z" />
    <glyph glyph-name="braceright.cap" horiz-adv-x="745" 
d="M197 -102h-95v59h70q83 0 118.5 47t35.5 154v276q0 105 48 171t140 85q-87 21 -137.5 88.5t-50.5 169.5v301q0 103 -33.5 152t-120.5 49h-70v59h95q198 0 198 -233v-315q0 -114 65.5 -176t162.5 -64v-66q-107 -2 -167.5 -58t-60.5 -175v-291q0 -233 -198 -233z" />
    <glyph glyph-name="bracketleft.cap" horiz-adv-x="546" 
d="M164 -109v1618h301v-59h-229v-1499h229v-60h-301z" />
    <glyph glyph-name="bracketright.cap" horiz-adv-x="546" 
d="M383 1509v-1618h-301v60h229v1499h-229v59h301z" />
    <glyph glyph-name="parenleft.cap" horiz-adv-x="655" 
d="M475 -143q-163 204 -247.5 411t-84.5 443q0 232 82 437.5t238 403.5h76q-160 -209 -240 -413.5t-80 -425.5q0 -228 84 -435t250 -421h-78z" />
    <glyph glyph-name="parenright.cap" horiz-adv-x="655" 
d="M180 -143h-78q166 214 250 421t84 435q0 221 -79.5 426t-239.5 413h76q155 -197 237 -403t82 -438q0 -236 -84.5 -443t-247.5 -411z" />
    <glyph glyph-name="guilsinglleft.cap" horiz-adv-x="741" 
d="M502 328l-400 389v4l398 387h88v-2l-393 -387l393 -389v-2h-86z" />
    <glyph glyph-name="guillemotleft.cap" horiz-adv-x="1163" 
d="M502 328l-400 389v4l398 387h88v-2l-393 -387l393 -389v-2h-86zM924 328l-400 389v4l398 387h88v-2l-394 -387l394 -389v-2h-86z" />
    <glyph glyph-name="guillemotright.cap" horiz-adv-x="1163" 
d="M639 717l-399 -389h-86v2l393 389l-393 387v2h88l397 -387v-4zM1061 717l-399 -389h-87v2l394 389l-394 387v2h89l397 -387v-4z" />
    <glyph glyph-name="guilsinglright.cap" horiz-adv-x="741" 
d="M639 717l-399 -389h-86v2l393 389l-393 387v2h88l397 -387v-4z" />
    <glyph glyph-name="hyphen.cap" horiz-adv-x="784" 
d="M121 682v66h477v-66h-477z" />
    <glyph glyph-name="endash.cap" horiz-adv-x="1146" 
d="M0 688v60h1147v-60h-1147z" />
    <glyph glyph-name="emdash.cap" horiz-adv-x="2039" 
d="M0 688v60h2040v-60h-2040z" />
    <glyph glyph-name="bullet.cap" horiz-adv-x="743" 
d="M559 719q0 -79 -56.5 -135t-133.5 -56t-131 56t-54 135q0 75 54.5 128.5t130.5 53.5q77 0 133.5 -53.5t56.5 -128.5z" />
    <glyph glyph-name="AE.sc" horiz-adv-x="1538" 
d="M150 0h-78l510 1106h798v-64h-553v-444h510v-59h-510v-478h576v-61h-647v348h-449zM522 821l-188 -411h422v632h-129z" />
    <glyph glyph-name="Dcroat.sc" horiz-adv-x="1312" 
d="M1090 565q0 -273 -142 -419t-393 -146h-371v547h-164v55h164v504h346q166 0 290 -57.5t197 -181t73 -302.5zM1016 565q0 237 -131.5 357t-358.5 120h-268v-440h313v-55h-313v-484h293q222 0 343.5 131t121.5 371z" />
    <glyph glyph-name="Eth.sc" horiz-adv-x="1312" 
d="M1090 565q0 -273 -142 -419t-393 -146h-371v549h-164v55h164v502h346q166 0 290 -57.5t197 -181t73 -302.5zM1016 565q0 237 -131.5 357t-358.5 120h-268v-438h313v-55h-313v-486h293q222 0 343.5 131t121.5 371z" />
    <glyph glyph-name="Hbar.sc" horiz-adv-x="1329" 
d="M932 0v543h-676v-543h-72v825h-155v58h155v223h72v-223h676v223h74v-223h161v-58h-161v-825h-74zM256 606h676v219h-676v-219z" />
    <glyph glyph-name="IJ.sc" horiz-adv-x="1386" 
d="M184 0v1106h76v-1106h-76zM907 -16q-257 0 -303 278l72 8q23 -118 80.5 -170.5t150.5 -52.5q110 0 166.5 63.5t56.5 202.5v729h-258v64h330v-793q0 -164 -75 -246.5t-220 -82.5z" />
    <glyph glyph-name="Lslash.sc" horiz-adv-x="1001" 
d="M51 371v71l133 113v551h74v-488l150 130v-74l-150 -127v-486h555v-61h-629v483z" />
    <glyph glyph-name="Eng.sc" horiz-adv-x="1198" 
d="M920 0l-670 1028q2 -69 2 -184v-844h-68v1106h95l673 -1030q-4 92 -4 198v832h66v-1268q0 -56 -3 -90t-13.5 -68t-31 -51.5t-55 -28t-86.5 -10.5q-7 0 -73 4v66h63q77 0 102 31.5t25 132.5v176h-22z" />
    <glyph glyph-name="OE.sc" horiz-adv-x="1787" 
d="M1063 0v213q-127 -233 -440 -233q-250 0 -385.5 156.5t-135.5 420.5q0 263 135.5 416t387.5 153q154 0 264 -62.5t174 -174.5v217h627v-64h-553v-426v-18h510v-59h-508q0 -8 -1 -24t-1 -23v-431h575v-61h-649zM1063 557q0 232 -114 369t-324 137q-218 0 -332.5 -134.5
t-114.5 -371.5t116 -375.5t329 -138.5q222 0 331 135.5t109 378.5z" />
    <glyph glyph-name="Oslash.sc" horiz-adv-x="1327" 
d="M1139 557q0 -271 -131.5 -424t-384.5 -153q-209 0 -340 112l-93 -112h-88l131 159q-131 155 -131 418t135.5 416t387.5 153q204 0 331 -108l86 106h84l-122 -151q135 -150 135 -416zM1063 557q0 223 -107 358l-628 -770q111 -102 295 -102q222 0 331 135.5t109 378.5z
M178 557q0 -227 103 -360l630 766q-114 100 -286 100q-218 0 -332.5 -134.5t-114.5 -371.5z" />
    <glyph glyph-name="Thorn.sc" horiz-adv-x="1105" 
d="M885 565q0 -149 -90.5 -237t-268.5 -88h-268v-240h-74v1106h74v-217h262q186 0 275.5 -86t89.5 -238zM813 565q0 122 -74 192t-225 70h-256v-526h262q149 0 221 69t72 195z" />
    <glyph glyph-name="Tbar.sc" horiz-adv-x="892" 
d="M502 1042v-446h233v-55h-233v-541h-74v541h-244v55h244v446h-377v64h828v-64h-377z" />
    <glyph glyph-name="IJ.alt_sc" horiz-adv-x="1337" 
d="M184 0v1106h76v-1106h-76zM858 -16q-121 0 -200 71t-103 207l72 8q45 -223 231 -223q110 0 166.5 63.5t56.5 202.5v793h72v-793q0 -164 -75 -246.5t-220 -82.5z" />
    <glyph glyph-name="acute.sc" horiz-adv-x="618" 
d="M125 1204v13l229 280h72v-18l-240 -275h-61z" />
    <glyph glyph-name="acute_i.sc" horiz-adv-x="505" 
d="M127 1210v13l143 280h82v-18l-164 -275h-61z" />
    <glyph glyph-name="breve.sc" horiz-adv-x="870" 
d="M430 1231q-142 0 -220.5 70.5t-78.5 173.5h62q0 -79 66 -134t173 -55q106 0 168 54.5t62 134.5h61q0 -103 -78.5 -173.5t-214.5 -70.5z" />
    <glyph glyph-name="caron.sc" horiz-adv-x="856" 
d="M727 1458l-250 -229h-84l-258 229v15h64l235 -189h2l230 189h61v-15z" />
    <glyph glyph-name="cedilla.sc" horiz-adv-x="565" 
d="M442 -262q0 -170 -249 -170q-51 0 -78 4v49q39 -2 84 -2q91 0 137.5 26.5t46.5 92.5q0 90 -166 90q-30 0 -55 -4l67 176h62l-43 -123q84 0 139 -36t55 -103z" />
    <glyph glyph-name="commaaccent.sc" horiz-adv-x="405" 
d="M268 1466q0 -152 -61 -262h-80v2q72 119 72 221h-54v132h123v-93z" />
    <glyph glyph-name="circumflex.sc" horiz-adv-x="856" 
d="M727 1219v-15h-61l-230 189h-2l-237 -189h-62v15l260 229h84z" />
    <glyph glyph-name="dieresis.sc" horiz-adv-x="790" 
d="M139 1251v115h92v-115h-92zM561 1251v115h92v-115h-92z" />
    <glyph glyph-name="dotaccent.sc" horiz-adv-x="385" 
d="M133 1227v137h117v-137h-117z" />
    <glyph glyph-name="grave.sc" horiz-adv-x="620" 
d="M426 1204l-240 275v18h72l229 -280v-13h-61z" />
    <glyph glyph-name="dblgrave.sc" horiz-adv-x="964" 
d="M479 1204h-61l-240 275v18h72l229 -280v-13zM829 1204h-61l-240 275v18h72l229 -280v-13z" />
    <glyph glyph-name="hungarumlaut.sc" horiz-adv-x="974" 
d="M123 1204v13l229 280h72v-18l-240 -275h-61zM481 1204v13l230 280h71v-18l-239 -275h-62z" />
    <glyph glyph-name="macron.sc" horiz-adv-x="1056" 
d="M952 1292h-825v54h825v-54z" />
    <glyph glyph-name="ogonek.sc" horiz-adv-x="555" 
d="M295 -410q-90 0 -130 42.5t-40 105.5q0 49 17.5 95t44.5 79t50.5 54t45.5 34h61q-67 -40 -119.5 -109t-52.5 -141q0 -115 137 -115q55 0 125 25v-43q-66 -27 -139 -27z" />
    <glyph glyph-name="ring.sc" horiz-adv-x="688" 
d="M485 1409q0 62 -41 103.5t-102 41.5q-62 0 -103.5 -42t-41.5 -103t41.5 -103t103.5 -42q61 0 102 41.5t41 103.5zM549 1409q0 -85 -60.5 -146t-146.5 -61q-85 0 -145 61t-60 146q0 87 60 146t145 59q87 0 147 -59t60 -146z" />
    <glyph glyph-name="tilde.sc" horiz-adv-x="913" 
d="M612 1245q-43 0 -88.5 18t-78 39.5t-72.5 39.5t-74 18q-48 0 -79.5 -24.5t-31.5 -82.5v-8h-63v6q0 82 47 123t127 41q44 0 91 -18.5t80 -40t72.5 -40t69.5 -18.5q58 0 87.5 29t29.5 82v6h57v-6q0 -78 -43.5 -121t-130.5 -43z" />
    <glyph glyph-name="quoteleft.sc" horiz-adv-x="415" 
d="M143 877q0 80 12.5 136t43.5 113h73v-2q-65 -113 -65 -213h57v-143h-121v109z" />
    <glyph glyph-name="quotedblleft.sc" horiz-adv-x="667" 
d="M395 877q0 80 12.5 136t43.5 113h73v-2q-65 -113 -65 -213h57v-143h-121v109zM143 877q0 80 12.5 136t43.5 113h73v-2q-65 -113 -65 -213h57v-143h-121v109z" />
    <glyph glyph-name="quoteright.sc" horiz-adv-x="415" 
d="M272 1018q0 -80 -12.5 -137t-42.5 -113h-74v2q66 114 66 213h-57v143h120v-108z" />
    <glyph glyph-name="quotedblright.sc" horiz-adv-x="675" 
d="M532 1018q0 -80 -12.5 -137t-42.5 -113h-74v2q66 114 66 213h-57v143h120v-108zM272 1018q0 -80 -12.5 -137t-42.5 -113h-74v2q66 114 66 213h-57v143h120v-108z" />
    <glyph glyph-name="quotesingle.sc" horiz-adv-x="374" 
d="M217 745h-61l-13 381h88z" />
    <glyph glyph-name="quotedbl.sc" horiz-adv-x="645" 
d="M487 745h-61l-12 381h88zM217 745h-61l-13 381h88z" />
    <glyph glyph-name="ass_basica" horiz-adv-x="11022" 
d="M6138 541q0 -144 43.5 -251.5t125 -173.5t192 -98t251.5 -32q293 0 453 141t160 430v879h-328v-863q0 -337 -281 -337q-140 0 -214 81.5t-74 245.5v873h-328v-895zM8327 0h330v725q0 64 -10 119t-35 106.5t-65 88t-103.5 58t-145.5 21.5q-124 0 -215.5 -60.5
t-126.5 -185.5q-2 17 -8.5 109t-11.5 117h-309q10 -102 10 -254v-844h319v582q0 134 53.5 212t153.5 78q90 0 127 -56t37 -173v-643zM9472 0q122 0 221 23.5t175 72t117.5 128.5t41.5 186q0 143 -88 235.5t-250 112.5q258 58 258 315q0 180 -135 271.5t-391 91.5h-492v-1436
h543zM9394 1198q120 0 174 -39t54 -129q0 -89 -54.5 -128.5t-173.5 -39.5h-141v336h141zM9433 621q262 0 262 -183q0 -107 -65 -151.5t-191 -44.5h-186v379h180zM4348 1067l795 571v-2207h-2501v1001q199 0 373 23q284 42 485 133q491 219 848 479zM795 1067l-795 571v-2207
h2501v1001q-200 0 -371 23q-289 42 -481 133q-491 215 -854 479zM2642 2003h2501v-188l-883 -635q-390 -280 -821 -463q-214 -98 -441 -125q-222 -19 -356 -19v1430zM2501 2003h-2501v-188l881 -635q407 -287 823 -463q215 -99 442 -125q218 -19 355 -19v1430z" />
    <glyph glyph-name="ass_basica_vertical" horiz-adv-x="6164" 
d="M715 539q0 -144 44 -252t126.5 -174.5t193.5 -99.5t250 -33q300 0 459.5 142.5t159.5 434.5v879h-330v-856q0 -177 -68.5 -257.5t-214.5 -80.5q-291 0 -291 329v865h-329v-897zM2920 0h328v733q0 391 -352 391q-126 0 -220.5 -62t-131.5 -185q0 45 -6.5 119t-12.5 106
h-301q0 -27 2 -111t2 -145v-846h320v584q0 138 54.5 215.5t152.5 77.5q91 0 128 -55.5t37 -178.5v-643zM4071 0q123 0 223 24.5t175 73.5t116 129.5t41 186.5q0 144 -88 235t-254 113q263 68 263 309q0 181 -136.5 273t-390.5 92h-489v-1436h540zM3990 1200q119 0 173 -38.5
t54 -125.5q0 -90 -53.5 -128t-173.5 -38h-144v330h144zM4030 621q265 0 265 -185q0 -106 -65 -150t-187 -44h-197v379h184zM4372 3793l797 575v-2218h-2515v1006q227 0 375 22q270 36 487 134q470 205 856 481zM799 3793l-799 575v-2218h2515v1006q-228 0 -373 22
q-270 36 -487 134q-473 205 -856 481zM2654 4733h2515v-188l-885 -637q-360 -264 -825 -469q-231 -98 -446 -123q-199 -17 -359 -17v1434zM2515 4733h-2515v-188l885 -637q387 -274 825 -469q236 -99 449 -123q195 -17 356 -17v1434z" />
    <glyph glyph-name="ass_completa" horiz-adv-x="31119" 
d="M4350 1065l795 575v-2209h-2505v1001q201 0 375 23q292 42 483 133q456 195 852 477zM795 1065l-795 575v-2209h2503v1001q-202 0 -373 23q-286 41 -483 133q-460 198 -852 477zM2640 2003h2505v-191l-881 -632q-375 -269 -823 -467q-235 -98 -443 -119
q-153 -16 -358 -16v1425zM2503 2003h-2503v-191l881 -632q386 -273 823 -467q235 -98 442 -119q153 -16 357 -16v1425zM23517 6q122 0 221 24t174 72.5t116.5 128t41.5 185.5q0 143 -89 235t-251 109q254 69 254 311q0 179 -134 270t-384 91h-494v-1426h545zM15061 6h309
q-6 29 -6 242v1358h-321v-490q0 -46 3 -111t3 -77h-6q-37 96 -125.5 145t-210.5 49q-207 0 -313.5 -149t-106.5 -414q0 -123 22.5 -224t69 -181.5t125.5 -125t186 -44.5q261 0 353 202h6q0 -24 6 -101t6 -79zM17539 6h311q-10 48 -10 242v1358h-319v-678q-41 96 -127 145
t-207 49q-207 0 -313.5 -149t-106.5 -414q0 -123 22.5 -224t69 -181.5t125.5 -125t186 -44.5q262 0 351 202h6q0 -24 6 -101t6 -79zM20584 6h310q-6 29 -6 242v1358h-322v-490q0 -46 3 -111t3 -77h-6q-37 95 -124.5 144.5t-203.5 49.5q-211 0 -315.5 -148t-104.5 -415
q0 -124 21.5 -224.5t66.5 -181t124 -125t186 -44.5q258 0 350 202h6q0 -24 6 -101t6 -79zM6140 543q0 -144 43 -252t124 -174.5t191.5 -99.5t251.5 -33q293 0 455 142.5t162 432.5v873h-330v-850q0 -175 -71 -257.5t-212 -82.5q-139 0 -212.5 81.5t-73.5 247.5v861h-328
v-889zM26143 207h-76q-45 0 -63.5 20t-18.5 60v432q0 199 -109 301t-339 102q-217 0 -334 -90t-131 -244l292 -22q0 77 41.5 119.5t114.5 42.5q77 0 116.5 -41t39.5 -133v-92h-111q-274 0 -406 -82.5t-132 -268.5q0 -64 22 -121.5t64 -104t112 -74t158 -27.5
q115 0 199.5 50.5t121.5 151.5q0 -97 73 -149.5t192 -52.5q31 0 57.5 1.5t59 4.5t57.5 4v213zM30124 207h-76q-41 0 -58.5 20t-17.5 60v432q0 403 -448 403q-218 0 -334.5 -89.5t-134.5 -244.5l293 -22q0 78 42 120t120 42q75 0 114 -41t39 -133v-92h-110q-277 0 -408 -82
t-131 -269q0 -64 21 -121.5t62.5 -104t110 -74t156.5 -27.5q118 0 201.5 50t120.5 152q4 -97 77 -149.5t187 -52.5q34 0 60 1.5t57.5 4.5t56.5 4v213zM16660 207h-75q-45 0 -63.5 20t-18.5 60v432q0 403 -443 403q-221 0 -340 -90t-133 -244l293 -22q0 77 42 119.5t116 42.5
q77 0 116.5 -41t39.5 -133v-92h-105q-277 0 -409 -82t-132 -269q0 -64 21.5 -121.5t63 -104t110 -74t156.5 -27.5q117 0 201.5 50.5t121.5 151.5q4 -98 74.5 -150t189.5 -52q31 0 57.5 1.5t59 4.5t57.5 4v213zM21111 559q0 -286 137.5 -430.5t398.5 -144.5q97 0 174.5 18.5
t129 49t89 75.5t58 91.5t33.5 103.5l-303 18q-14 -78 -55 -114t-119 -36q-105 0 -153 79.5t-48 197.5v29h696v92q0 534 -502 534q-91 0 -168.5 -17.5t-146.5 -58.5t-117 -104.5t-76 -161t-28 -221.5zM10613 559q0 -286 135 -430.5t391 -144.5q99 0 177 19t129.5 49
t89.5 75.5t58.5 91t35.5 103.5l-304 18q-14 -78 -55 -114t-119 -36q-102 0 -151 80t-49 197v29h690q6 47 6 92q0 534 -502 534q-91 0 -168 -17.5t-145.5 -58.5t-116 -104.5t-75 -160.5t-27.5 -222zM18070 559q0 -286 136 -430.5t392 -144.5q122 0 212 27t143.5 77
t82.5 105.5t45 128.5l-299 18q-26 -150 -172 -150q-56 0 -97 23t-63.5 64t-32.5 88t-10 102v29h691q6 47 6 92q0 534 -500 534q-92 0 -169 -17.5t-146 -58.5t-116.5 -104.5t-75 -160.5t-27.5 -222zM8331 6h328v725q0 64 -10 119t-35 106t-64.5 87t-102.5 57.5t-144 21.5
q-122 0 -216 -62t-135 -186q0 36 -6 122.5t-6 103.5h-309q6 -63 6 -254v-840h322v582q0 135 53.5 210.5t152.5 75.5q91 0 128.5 -54.5t37.5 -174.5v-639zM26696 -16q229 0 349 93.5t120 262.5q0 66 -19.5 117.5t-50.5 86t-83 62t-105 44.5t-127 34q-108 26 -159.5 48.5
t-66 44t-14.5 59.5q0 37 34 61.5t103 24.5t115.5 -35.5t50.5 -98.5l293 23q-18 138 -137.5 224.5t-308.5 86.5q-211 0 -325 -91t-114 -243q0 -139 81 -221.5t282 -128.5q135 -31 182 -59t47 -80q0 -109 -153 -109q-88 0 -132 43t-49 107l-293 -35q8 -52 27.5 -97.5t57.5 -87
t90.5 -71.5t130.5 -47.5t174 -17.5zM13091 -16q230 0 350.5 93t120.5 263q0 66 -19.5 117.5t-50.5 86t-83 62t-105 44.5t-127 34q-108 26 -160 48.5t-67 44t-15 59.5q0 37 34.5 61.5t102.5 24.5q71 0 117.5 -35.5t50.5 -98.5l293 23q-18 138 -137.5 224.5t-310.5 86.5
q-210 0 -323.5 -91t-113.5 -243q0 -139 81 -221.5t282 -128.5q135 -31 182 -59t47 -80q0 -109 -155 -109q-87 0 -130.5 42.5t-52.5 107.5l-288 -35q10 -66 40 -121t84 -101.5t144.5 -72.5t208.5 -26zM10181 6l378 1094h-317l-172 -582l-76 -266l-73 266l-191 582h-315
l391 -1094h375zM27924 6h324v1600h-324v-1600zM11864 6h324v565q0 130 60 205.5t181 75.5q64 0 111 -6v270q-31 6 -70 6q-120 0 -191.5 -62t-94.5 -167q-15 178 -25 207h-305q3 -18 6.5 -111.5t3.5 -146.5v-836zM24289 6h322v565q0 130 60.5 205.5t180.5 75.5q64 0 111 -6
v270q-29 6 -70 6q-120 0 -191.5 -62t-94.5 -167q-2 27 -7 77.5t-8.5 86t-3.5 43.5h-309q10 -42 10 -258v-836zM27357 6h322v1094h-322v-1094zM13752 6h318v1094h-318v-1094zM28518 6h316v1094h-316v-1094zM8931 6h316v1094h-316v-1094zM17527 565q0 -102 -18.5 -175.5
t-51.5 -113t-70.5 -57.5t-82.5 -18q-203 0 -203 358q0 179 51.5 262.5t157.5 83.5q42 0 78 -16t69 -52t51.5 -105.5t18.5 -166.5zM15049 565q0 -82 -13 -146.5t-34.5 -104.5t-50.5 -66t-59 -36.5t-62 -10.5q-107 0 -157 88.5t-50 269.5q0 346 207 346q42 0 78 -16t69 -52
t52.5 -105.5t19.5 -166.5zM20572 565q0 -101 -19 -175.5t-52 -113.5t-69.5 -57t-78.5 -18q-207 0 -207 358q0 346 207 346q42 0 78.5 -16t69.5 -52t52 -105.5t19 -166.5zM23472 621q124 0 194 -41.5t70 -141.5q0 -196 -252 -196h-190v379h178zM23437 1198q116 0 171 -37
t55 -125q0 -90 -54 -131t-172 -41h-143v334h143zM13752 1237h318v299h-318v-299zM8931 1237h316v299h-316v-299zM28518 1237h316v299h-316v-299zM27374 1198h200l301 275v47h-288l-213 -287v-35zM16009 190q-75 0 -115 42.5t-40 107.5q0 85 56.5 123.5t143.5 38.5h140v-82
q0 -110 -50.5 -170t-134.5 -60zM29475 190q-74 0 -113 42.5t-39 107.5q0 85 56.5 123.5t144.5 38.5h139v-82q0 -109 -52.5 -169.5t-135.5 -60.5zM25494 190q-75 0 -116.5 42.5t-41.5 107.5q0 84 57.5 123t143.5 39h139v-82q0 -110 -50 -170t-132 -60zM18407 678
q4 136 53 193t134 57q90 0 136 -56t46 -194h-369zM21453 678q4 136 53.5 193t134.5 57q89 0 134.5 -56t45.5 -194h-368zM10951 678q8 250 188 250q89 0 134.5 -56t45.5 -194h-368z" />
    <glyph glyph-name="ass_basica_CONT" horiz-adv-x="11051" 
d="M5159 2007v-2576h-5159v2576h5159zM5016 -426v1968l-656 -473q-389 -279 -848 -483q-198 -89 -491 -131q-165 -25 -367 -25v-856h2362zM143 -426h2368v856q-215 0 -383 25q-296 43 -481 131q-521 234 -859 483l-645 473v-1968zM143 1864v-150l734 -530q386 -275 825 -461
q230 -104 444 -129q128 -19 365 -19v1289h-2368zM5016 1714v150h-2362v-1289q171 0 350 19q222 25 449 129q453 192 823 461zM9501 4q125 0 224.5 23t174.5 71t115.5 126.5t40.5 183.5q0 144 -89 239.5t-251 118.5q260 55 260 303q0 179 -134.5 271t-385.5 92h-492v-1428
h537zM6162 541q0 -147 43 -255t124.5 -173.5t191 -97t250.5 -31.5q297 0 458.5 140t161.5 429v879h-329v-857q0 -342 -285 -342q-138 0 -214.5 83t-76.5 247v869h-324v-891zM8358 4h326v725q0 393 -355 393q-122 0 -215.5 -63t-134.5 -189q0 96 -16 228h-310
q0 -21 4.5 -105.5t4.5 -150.5v-838h323v578q0 138 53 216.5t148 78.5q93 0 132.5 -57t39.5 -175v-641zM9462 623q264 0 264 -193q0 -102 -67.5 -149.5t-184.5 -47.5h-190v390h178zM9427 1200q116 0 170.5 -37.5t54.5 -126.5t-54 -129.5t-171 -40.5h-143v334h143z" />
    <glyph glyph-name="ass_basica_vertical_CONT" horiz-adv-x="6178" 
d="M5183 4743v-2591h-5183v2591h5183zM145 2296h2376v862q-212 0 -381 27q-261 30 -487 131q-469 202 -858 481l-650 475v-1976zM5038 2296v1976l-655 -475q-424 -297 -852 -481q-233 -102 -494 -131q-166 -27 -368 -27v-862h2369zM145 4598v-152l738 -534
q370 -270 827 -463q236 -105 449 -127q131 -17 362 -17v1293h-2376zM5038 4446v152h-2369v-1293q153 0 352 17q224 22 452 127q443 189 824 463zM4082 0q124 0 224.5 24t176 72.5t117 128t41.5 185.5q0 143 -90 236t-254 116q262 68 262 307q0 181 -138 274t-393 93h-489
v-1436h543zM721 537q0 -144 44 -253t125.5 -176t192 -100t248.5 -33q301 0 462 143t161 437v881h-330v-858q0 -176 -71 -257t-216 -81q-286 0 -286 327v869h-330v-899zM2927 0h335v731q0 81 -17.5 148t-56.5 124t-111 89t-173 32q-127 0 -221 -62.5t-135 -189.5
q0 128 -15 226h-305q0 -23 3 -107t3 -145v-846h320v584q0 137 54.5 212.5t152.5 75.5q92 0 129 -54t37 -175v-643zM4043 616q266 0 266 -184q0 -107 -65.5 -149.5t-188.5 -42.5h-197v376h185zM4000 1200q119 0 173 -38t54 -124q0 -91 -53.5 -130.5t-173.5 -39.5h-142v332
h142z" />
    <glyph glyph-name="ass_completa_CONT" horiz-adv-x="31141" 
d="M5159 2007v-2576h-5159v2576h5159zM5016 -426v1968l-656 -473q-389 -279 -848 -483q-198 -89 -491 -131q-165 -25 -367 -25v-856h2362zM143 -426h2368v856q-215 0 -383 25q-296 43 -481 131q-521 234 -859 483l-645 473v-1968zM143 1864v-150l734 -530q386 -275 825 -461
q230 -104 444 -129q128 -19 365 -19v1289h-2368zM5016 1714v150h-2362v-1289q171 0 350 19q222 25 449 129q453 192 823 461zM23540 6q122 0 221 24t174 72.5t116.5 128t41.5 185.5q0 143 -89 235t-251 109q254 69 254 311q0 179 -134 270t-384 91h-494v-1426h545zM15084 6
h309q-6 29 -6 242v1358h-322v-490q0 -46 3 -111t3 -77h-6q-37 96 -125.5 145t-210.5 49q-207 0 -313.5 -149t-106.5 -414q0 -98 13.5 -182t44.5 -157t77 -125t114.5 -81.5t154.5 -29.5q260 0 352 202h6q0 -24 6.5 -101t6.5 -79zM17562 6h311q-10 48 -10 242v1358h-320v-678
q-41 96 -127 145t-207 49q-207 0 -313 -149t-106 -414q0 -123 22.5 -224t69 -181.5t125.5 -125t186 -44.5q261 0 350 202h6q0 -24 6.5 -101t6.5 -79zM20607 6h309q-6 29 -6 242v1358h-321v-490q0 -46 3 -111t3 -77h-6q-37 95 -124.5 144.5t-203.5 49.5q-211 0 -315.5 -148
t-104.5 -415q0 -98 12.5 -181.5t42.5 -157.5t75 -125.5t113 -81t154 -29.5q259 0 351 202h6q0 -24 6 -101t6 -79zM6162 543q0 -144 43 -252t124.5 -174.5t192 -99.5t251.5 -33q293 0 454.5 142.5t161.5 432.5v873h-330v-850q0 -175 -70.5 -257.5t-211.5 -82.5
q-139 0 -213 81.5t-74 247.5v861h-328v-889zM26165 207h-76q-45 0 -63 19.5t-18 60.5v432q0 199 -109.5 301t-339.5 102q-217 0 -334 -90t-131 -244l293 -22q0 77 41.5 119.5t114.5 42.5q76 0 115.5 -41t39.5 -133v-92h-110q-274 0 -406.5 -82.5t-132.5 -268.5
q0 -64 22 -121.5t64 -104t112 -74t158 -27.5q115 0 200 50.5t122 151.5q0 -97 72.5 -149.5t191.5 -52.5q31 0 57.5 1.5t59 4.5t57.5 4v213zM30147 207h-76q-41 0 -58.5 20t-17.5 60v432q0 403 -449 403q-218 0 -334 -89.5t-134 -244.5l292 -22q0 78 42 120t120 42
q75 0 114.5 -41t39.5 -133v-92h-111q-277 0 -407.5 -82t-130.5 -269q0 -64 21 -121.5t62.5 -104t110 -74t156.5 -27.5q117 0 200.5 50t120.5 152q4 -97 77 -149.5t187 -52.5q34 0 60.5 1.5t58 4.5t56.5 4v213zM16683 207h-76q-45 0 -63.5 20t-18.5 60v432q0 403 -442 403
q-221 0 -340 -90t-133 -244l293 -22q0 77 41.5 119.5t115.5 42.5q77 0 116.5 -41t39.5 -133v-92h-104q-277 0 -409 -82t-132 -269q0 -64 21 -121.5t62.5 -104t110 -74t156.5 -27.5q117 0 202 50.5t122 151.5q4 -98 74.5 -150t189.5 -52q31 0 57.5 1.5t59 4.5t57.5 4v213z
M21133 559q0 -286 138 -430.5t399 -144.5q97 0 174.5 18.5t129 49t89 75.5t57.5 91.5t33 103.5l-303 18q-14 -78 -55 -114t-119 -36q-105 0 -153 79.5t-48 197.5v29h697v92q0 534 -502 534q-115 0 -208.5 -29t-169 -92t-117.5 -175t-42 -267zM10635 559q0 -286 135.5 -430.5
t391.5 -144.5q99 0 177 19t129 49t89 75.5t58.5 91t35.5 103.5l-303 18q-14 -78 -55 -114t-119 -36q-70 0 -117 41.5t-65.5 101.5t-18.5 134v29h690q7 47 7 92q0 534 -502 534q-91 0 -168 -17.5t-145.5 -58.5t-116.5 -104.5t-75.5 -160.5t-27.5 -222zM18092 559
q0 -286 136 -430.5t392 -144.5q99 0 177 18.5t129 49t88.5 76t57 91.5t32.5 103l-299 18q-26 -150 -172 -150q-56 0 -97 23t-63.5 64t-32.5 88t-10 102v29h690q6 47 6 92q0 534 -499 534q-92 0 -169.5 -17.5t-146 -58.5t-116.5 -104.5t-75.5 -160.5t-27.5 -222zM8354 6h327
v725q0 64 -10 119t-35 106t-64.5 87t-102.5 57.5t-144 21.5q-122 0 -215.5 -62t-134.5 -186q0 36 -6 122.5t-6 103.5h-310q7 -74 7 -254v-840h321v582q0 135 54 210.5t153 75.5q91 0 128.5 -54.5t37.5 -174.5v-639zM26718 -16q229 0 349 93.5t120 262.5q0 66 -19.5 117.5
t-50.5 86t-83 62t-105 44.5t-127 34q-108 26 -159 48.5t-65.5 43.5t-14.5 60q0 37 34 61.5t103 24.5t115.5 -35.5t50.5 -98.5l293 23q-18 138 -137.5 224.5t-309.5 86.5q-211 0 -324.5 -91t-113.5 -243q0 -139 81 -221.5t281 -128.5q135 -31 182.5 -59t47.5 -80
q0 -109 -154 -109q-88 0 -131.5 43t-48.5 107l-293 -35q10 -66 40 -121t84.5 -101.5t145 -72.5t209.5 -26zM13113 -16q230 0 350.5 93t120.5 263q0 66 -19.5 117.5t-50.5 86t-83 62t-105 44.5t-127 34q-108 26 -159.5 48.5t-66.5 44t-15 59.5q0 37 34.5 61.5t102.5 24.5
q71 0 117.5 -35.5t50.5 -98.5l293 23q-18 138 -138 224.5t-311 86.5q-210 0 -323 -91t-113 -243q0 -139 81 -221.5t281 -128.5q135 -31 182.5 -59t47.5 -80q0 -109 -156 -109q-87 0 -130 42.5t-52 107.5l-289 -35q10 -66 40 -121t84 -101.5t144.5 -72.5t208.5 -26zM10203 6
l379 1094h-317l-172 -582l-76 -266l-74 266l-190 582h-316l391 -1094h375zM27947 6h324v1600h-324v-1600zM11887 6h323v565q0 130 60 205.5t182 75.5q63 0 110 -6v270q-31 6 -69 6q-120 0 -192 -62.5t-95 -166.5q-16 182 -24 207h-306q3 -19 7 -113t4 -145v-836zM24312 6
h321v565q0 130 61 205.5t181 75.5q64 0 111 -6v270q-29 6 -70 6q-120 0 -192 -62.5t-95 -166.5q-2 25 -7 77.5t-8 87t-3 42.5h-309q10 -42 10 -258v-836zM27380 6h321v1094h-321v-1094zM13775 6h317v1094h-317v-1094zM28541 6h315v1094h-315v-1094zM8954 6h315v1094h-315
v-1094zM17549 565q0 -102 -18.5 -175.5t-51.5 -113t-70.5 -57.5t-82.5 -18q-203 0 -203 358q0 179 51.5 262.5t157.5 83.5q42 0 78 -16t69 -52t51.5 -105.5t18.5 -166.5zM15071 565q0 -82 -13 -146.5t-34.5 -104.5t-50.5 -66t-59 -36.5t-62 -10.5q-107 0 -157 88.5
t-50 269.5q0 346 207 346q42 0 78 -16t69 -52t52.5 -105.5t19.5 -166.5zM20595 565q0 -101 -19 -175.5t-52 -113.5t-69.5 -57t-78.5 -18q-207 0 -207 358q0 346 207 346q42 0 78.5 -16t69.5 -52t52 -105.5t19 -166.5zM23495 621q124 0 194 -41.5t70 -141.5q0 -196 -252 -196
h-191v379h179zM23460 1198q116 0 170.5 -37t54.5 -125q0 -90 -54 -131t-171 -41h-144v334h144zM13775 1237h317v299h-317v-299zM8954 1237h315v299h-315v-299zM28541 1237h315v299h-315v-299zM27396 1198h201l301 275v47h-289l-213 -287v-35zM16032 190q-75 0 -115.5 42.5
t-40.5 107.5q0 84 57 123t144 39h139v-82q0 -110 -50 -170t-134 -60zM29497 190q-74 0 -112.5 42t-38.5 108q0 85 56 123.5t144 38.5h140v-82q0 -109 -53 -169.5t-136 -60.5zM25516 190q-75 0 -116.5 42.5t-41.5 107.5q0 84 57.5 123t143.5 39h139v-82q0 -110 -50 -170
t-132 -60zM18430 678q4 136 52.5 193t133.5 57q91 0 137 -56t46 -194h-369zM21475 678q4 136 54 193t135 57q89 0 134.5 -56t45.5 -194h-369zM10973 678q8 250 189 250q89 0 134.5 -56t45.5 -194h-369z" />
    <glyph glyph-name="gbreve.alt" horiz-adv-x="1114" 
d="M137 739q0 160 105 252t278 90q163 -3 254 -73l262 32l2 -63l-223 -8q76 -85 76 -221q0 -161 -98 -254.5t-275 -94.5q-33 0 -47 2q-192 -47 -192 -170q0 -131 213 -131l237 -8q149 -4 229 -69.5t80 -165.5q0 -154 -134 -240t-394 -86q-112 0 -194 19.5t-128.5 55.5
t-68 81t-21.5 102q0 101 72.5 171.5t200.5 90.5q-156 34 -156 168q0 152 188 191q-127 29 -196.5 117t-69.5 212zM471 41h-6q-167 -27 -234 -90.5t-67 -151.5q0 -30 7.5 -56t31 -54.5t60.5 -48.5t101 -33t148 -13q98 0 178 13.5t144.5 42.5t100.5 80.5t36 122.5
q0 81 -62 131t-194 53zM203 745q0 -133 82.5 -210.5t238.5 -77.5q144 0 223.5 74.5t79.5 213.5q0 135 -84.5 207t-224.5 72q-151 0 -233 -75t-82 -204zM522 1188q-142 0 -220.5 70.5t-78.5 173.5h62q0 -79 66 -134t173 -55q106 0 168 54.5t62 134.5h61q0 -103 -78.5 -173.5
t-214.5 -70.5z" />
    <glyph glyph-name="gcircumflex.alt" horiz-adv-x="1114" 
d="M137 739q0 160 105 252t278 90q163 -3 254 -73l262 32l2 -63l-223 -8q76 -85 76 -221q0 -161 -98 -254.5t-275 -94.5q-33 0 -47 2q-192 -47 -192 -170q0 -131 213 -131l237 -8q149 -4 229 -69.5t80 -165.5q0 -154 -134 -240t-394 -86q-112 0 -194 19.5t-128.5 55.5
t-68 81t-21.5 102q0 101 72.5 171.5t200.5 90.5q-156 34 -156 168q0 152 188 191q-127 29 -196.5 117t-69.5 212zM471 41h-6q-167 -27 -234 -90.5t-67 -151.5q0 -30 7.5 -56t31 -54.5t60.5 -48.5t101 -33t148 -13q98 0 178 13.5t144.5 42.5t100.5 80.5t36 122.5
q0 81 -62 131t-194 53zM203 745q0 -133 82.5 -210.5t238.5 -77.5q144 0 223.5 74.5t79.5 213.5q0 135 -84.5 207t-224.5 72q-151 0 -233 -75t-82 -204zM817 1188v-2h-74l-225 215h-2l-221 -215h-76v2l258 268h80z" />
    <glyph glyph-name="gcommaaccent.alt" horiz-adv-x="1114" 
d="M137 739q0 160 105 252t278 90q163 -3 254 -73l262 32l2 -63l-223 -8q76 -85 76 -221q0 -161 -98 -254.5t-275 -94.5q-33 0 -47 2q-192 -47 -192 -170q0 -131 213 -131l237 -8q149 -4 229 -69.5t80 -165.5q0 -154 -134 -240t-394 -86q-112 0 -194 19.5t-128.5 55.5
t-68 81t-21.5 102q0 101 72.5 171.5t200.5 90.5q-156 34 -156 168q0 152 188 191q-127 29 -196.5 117t-69.5 212zM471 41h-6q-167 -27 -234 -90.5t-67 -151.5q0 -30 7.5 -56t31 -54.5t60.5 -48.5t101 -33t148 -13q98 0 178 13.5t144.5 42.5t100.5 80.5t36 122.5
q0 81 -62 131t-194 53zM203 745q0 -133 82.5 -210.5t238.5 -77.5q144 0 223.5 74.5t79.5 213.5q0 135 -84.5 207t-224.5 72q-151 0 -233 -75t-82 -204zM610 1436q0 -152 -61 -262h-80v2q72 119 72 221h-54v131h123v-92z" />
    <glyph glyph-name="gdotaccent.alt" horiz-adv-x="1114" 
d="M137 739q0 160 105 252t278 90q163 -3 254 -73l262 32l2 -63l-223 -8q76 -85 76 -221q0 -161 -98 -254.5t-275 -94.5q-33 0 -47 2q-192 -47 -192 -170q0 -131 213 -131l237 -8q149 -4 229 -69.5t80 -165.5q0 -154 -134 -240t-394 -86q-112 0 -194 19.5t-128.5 55.5
t-68 81t-21.5 102q0 101 72.5 171.5t200.5 90.5q-156 34 -156 168q0 152 188 191q-127 29 -196.5 117t-69.5 212zM471 41h-6q-167 -27 -234 -90.5t-67 -151.5q0 -30 7.5 -56t31 -54.5t60.5 -48.5t101 -33t148 -13q98 0 178 13.5t144.5 42.5t100.5 80.5t36 122.5
q0 81 -62 131t-194 53zM203 745q0 -133 82.5 -210.5t238.5 -77.5q144 0 223.5 74.5t79.5 213.5q0 135 -84.5 207t-224.5 72q-151 0 -233 -75t-82 -204zM463 1214v138h117v-138h-117z" />
    <glyph glyph-name="lacute.alt" horiz-adv-x="417" 
d="M291 -14q-84 0 -119 35t-35 112v1438h70v-1432q0 -48 20.5 -70t77.5 -22h51v-57q-45 -4 -65 -4zM199 1636v2l237 291h86v-2l-254 -291h-69z" />
    <glyph glyph-name="lcaron.alt" horiz-adv-x="417" 
d="M291 -14q-84 0 -119 35t-35 112v1438h70v-1432q0 -48 20.5 -70t77.5 -22h51v-57q-45 -4 -65 -4zM532 1288q0 -152 -61 -262h-80v2q72 119 72 221h-53v131h122v-92z" />
    <glyph glyph-name="lcommaaccent.alt" horiz-adv-x="417" 
d="M291 -14q-84 0 -119 35t-35 112v1438h70v-1432q0 -48 20.5 -70t77.5 -22h51v-57q-45 -4 -65 -4zM295 -215q0 -150 -62 -262h-79v2q71 118 71 221h-53v131h123v-92z" />
    <glyph glyph-name="ldot.alt" horiz-adv-x="417" 
d="M291 -14q-84 0 -119 35t-35 112v1438h70v-1432q0 -48 20.5 -70t77.5 -22h51v-57q-45 -4 -65 -4zM389 1067v137h117v-137h-117z" />
    <glyph glyph-name="Aacute.sc" horiz-adv-x="1075" 
d="M145 0l125 348h523l133 -348h78l-429 1106h-94l-409 -1106h73zM528 1053l84 -230l158 -413h-477l149 411zM471 1204v13l229 280h72v-18l-240 -275h-61z" />
    <glyph glyph-name="Abreve.sc" horiz-adv-x="1075" 
d="M145 0l125 348h523l133 -348h78l-429 1106h-94l-409 -1106h73zM528 1053l84 -230l158 -413h-477l149 411zM522 1231q-142 0 -220.5 70.5t-78.5 173.5h62q0 -79 66 -134t173 -55q106 0 168 54.5t62 134.5h61q0 -103 -78.5 -173.5t-214.5 -70.5z" />
    <glyph glyph-name="Acircumflex.sc" horiz-adv-x="1075" 
d="M145 0l125 348h523l133 -348h78l-429 1106h-94l-409 -1106h73zM528 1053l84 -230l158 -413h-477l149 411zM815 1219v-15h-61l-230 189h-2l-237 -189h-62v15l260 229h84z" />
    <glyph glyph-name="Adieresis.sc" horiz-adv-x="1075" 
d="M145 0l125 348h523l133 -348h78l-429 1106h-94l-409 -1106h73zM528 1053l84 -230l158 -413h-477l149 411zM264 1251v115h92v-115h-92zM686 1251v115h92v-115h-92z" />
    <glyph glyph-name="Agrave.sc" horiz-adv-x="1075" 
d="M145 0l125 348h523l133 -348h78l-429 1106h-94l-409 -1106h73zM528 1053l84 -230l158 -413h-477l149 411zM518 1204l-239 275v18h71l230 -280v-13h-62z" />
    <glyph glyph-name="Amacron.sc" horiz-adv-x="1075" 
d="M145 0l125 348h523l133 -348h78l-429 1106h-94l-409 -1106h73zM528 1053l84 -230l158 -413h-477l149 411zM932 1292h-826v54h826v-54z" />
    <glyph glyph-name="Aogonek.sc" horiz-adv-x="1075" 
d="M270 348l-125 -348h-73l409 1106h94l429 -1106h-78l-133 348h-523zM612 823l-84 230l-86 -232l-149 -411h477zM924 -410q-90 0 -130 42.5t-40 105.5q0 49 17 95t44.5 79t50.5 54t45 34h62q-67 -40 -119.5 -109t-52.5 -141q0 -115 137 -115q55 0 125 25v-43
q-66 -27 -139 -27z" />
    <glyph glyph-name="Aring.sc" horiz-adv-x="1075" 
d="M145 0l125 348h523l133 -348h78l-429 1106h-94l-409 -1106h73zM528 1053l84 -230l158 -413h-477l149 411zM731 1409q0 -85 -60.5 -146t-146.5 -61q-85 0 -145 61t-60 146q0 87 60 146t145 59q87 0 147 -59t60 -146zM668 1409q0 62 -41.5 103.5t-102.5 41.5
q-62 0 -103.5 -42t-41.5 -103t41.5 -103t103.5 -42q61 0 102.5 41.5t41.5 103.5z" />
    <glyph glyph-name="Aringacute.sc" horiz-adv-x="1075" 
d="M145 0l125 348h523l133 -348h78l-429 1106h-94l-409 -1106h73zM528 1053l84 -230l158 -413h-477l149 411zM731 1409q0 -85 -60.5 -146t-146.5 -61q-85 0 -145 61t-60 146q0 87 60 146t145 59q87 0 147 -59t60 -146zM668 1409q0 62 -41.5 103.5t-102.5 41.5
q-62 0 -103.5 -42t-41.5 -103t41.5 -103t103.5 -42q61 0 102.5 41.5t41.5 103.5zM481 1690v2l238 290h86v-2l-254 -290h-70z" />
    <glyph glyph-name="Atilde.sc" horiz-adv-x="1075" 
d="M145 0l125 348h523l133 -348h78l-429 1106h-94l-409 -1106h73zM528 1053l84 -230l158 -413h-477l149 411zM670 1245q-43 0 -89 18t-78.5 39.5t-72.5 39.5t-74 18q-110 0 -110 -107v-8h-64v6q0 82 47 123t127 41q56 0 115 -29.5t110.5 -58.5t88.5 -29q116 0 116 111v6h58
v-6q0 -78 -43.5 -121t-130.5 -43z" />
    <glyph glyph-name="AEacute.sc" horiz-adv-x="1538" 
d="M150 0h-78l510 1106h798v-64h-553v-444h510v-59h-510v-478h576v-61h-647v348h-449zM522 821l-188 -411h422v632h-129zM782 1227v12l230 281h71v-19l-239 -274h-62z" />
    <glyph glyph-name="Cacute.sc" horiz-adv-x="1204" 
d="M621 -16q-251 0 -385 154.5t-134 418.5q0 268 136.5 416.5t377.5 148.5q332 0 455 -270l-70 -25q-114 232 -385 232q-210 0 -324 -132.5t-114 -369.5q0 -235 117.5 -371.5t327.5 -136.5q143 0 237.5 60t157.5 190l63 -29q-67 -144 -179.5 -215t-280.5 -71zM559 1204v13
l229 280h72v-18l-239 -275h-62z" />
    <glyph glyph-name="Ccaron.sc" horiz-adv-x="1204" 
d="M621 -16q-251 0 -385 154.5t-134 418.5q0 268 136.5 416.5t377.5 148.5q332 0 455 -270l-70 -25q-114 232 -385 232q-210 0 -324 -132.5t-114 -369.5q0 -235 117.5 -371.5t327.5 -136.5q143 0 237.5 60t157.5 190l63 -29q-67 -144 -179.5 -215t-280.5 -71zM903 1458
l-250 -229h-84l-258 229v15h64l235 -189h2l230 189h61v-15z" />
    <glyph glyph-name="Ccedilla.sc" horiz-adv-x="1204" 
d="M838 -262q0 -170 -250 -170q-51 0 -78 4v49q39 -2 84 -2q91 0 137.5 26.5t46.5 92.5q0 90 -166 90q-30 0 -55 -4l61 160q-251 1 -383.5 155t-132.5 418q0 268 136.5 416.5t377.5 148.5q332 0 455 -270l-70 -25q-114 232 -385 232q-210 0 -324 -132.5t-114 -369.5
q0 -235 117.5 -371.5t327.5 -136.5q143 0 237.5 60t157.5 190l63 -29q-61 -132 -158.5 -202t-242.5 -80l-37 -111q84 0 139.5 -36t55.5 -103z" />
    <glyph glyph-name="Ccircumflex.sc" horiz-adv-x="1204" 
d="M621 -16q-251 0 -385 154.5t-134 418.5q0 268 136.5 416.5t377.5 148.5q332 0 455 -270l-70 -25q-114 232 -385 232q-210 0 -324 -132.5t-114 -369.5q0 -235 117.5 -371.5t327.5 -136.5q143 0 237.5 60t157.5 190l63 -29q-67 -144 -179.5 -215t-280.5 -71zM903 1219v-15
h-61l-230 189h-2l-237 -189h-62v15l260 229h84z" />
    <glyph glyph-name="Cdotaccent.sc" horiz-adv-x="1204" 
d="M621 -16q-251 0 -385 154.5t-134 418.5q0 268 136.5 416.5t377.5 148.5q332 0 455 -270l-70 -25q-114 232 -385 232q-210 0 -324 -132.5t-114 -369.5q0 -235 117.5 -371.5t327.5 -136.5q143 0 237.5 60t157.5 190l63 -29q-67 -144 -179.5 -215t-280.5 -71zM553 1227v137
h117v-137h-117z" />
    <glyph glyph-name="Dcaron.sc" horiz-adv-x="1191" 
d="M1016 565q0 237 -131.5 357t-358.5 120h-268v-979h293q222 0 343.5 131t121.5 371zM1090 565q0 -273 -142 -419t-393 -146h-371v1106h346q166 0 290 -57.5t197 -181t73 -302.5zM836 1458l-250 -229h-84l-258 229v15h63l236 -189h2l229 189h62v-15z" />
    <glyph glyph-name="Eacute.sc" horiz-adv-x="968" 
d="M184 0v1106h627v-64h-553v-444h510v-59h-510v-478h576v-61h-650zM444 1204v13l230 280h71v-18l-239 -275h-62z" />
    <glyph glyph-name="Ebreve.sc" horiz-adv-x="968" 
d="M184 0v1106h627v-64h-553v-444h510v-59h-510v-478h576v-61h-650zM496 1231q-142 0 -220.5 70.5t-78.5 173.5h61q0 -79 66.5 -134t173.5 -55q106 0 167.5 54.5t61.5 134.5h61q0 -103 -78 -173.5t-214 -70.5z" />
    <glyph glyph-name="Ecaron.sc" horiz-adv-x="968" 
d="M184 0v1106h627v-64h-553v-444h510v-59h-510v-478h576v-61h-650zM788 1458l-249 -229h-84l-258 229v15h63l236 -189h2l229 189h61v-15z" />
    <glyph glyph-name="Ecircumflex.sc" horiz-adv-x="968" 
d="M184 0v1106h627v-64h-553v-444h510v-59h-510v-478h576v-61h-650zM788 1219v-15h-61l-229 189h-2l-238 -189h-61v15l260 229h84z" />
    <glyph glyph-name="Edieresis.sc" horiz-adv-x="968" 
d="M184 0v1106h627v-64h-553v-444h510v-59h-510v-478h576v-61h-650zM238 1251v115h92v-115h-92zM659 1251v115h93v-115h-93z" />
    <glyph glyph-name="Edotaccent.sc" horiz-adv-x="968" 
d="M184 0v1106h627v-64h-553v-444h510v-59h-510v-478h576v-61h-650zM438 1227v137h117v-137h-117z" />
    <glyph glyph-name="Egrave.sc" horiz-adv-x="968" 
d="M184 0v1106h627v-64h-553v-444h510v-59h-510v-478h576v-61h-650zM492 1204l-240 275v18h72l229 -280v-13h-61z" />
    <glyph glyph-name="Emacron.sc" horiz-adv-x="968" 
d="M184 0v1106h627v-64h-553v-444h510v-59h-510v-478h576v-61h-650zM905 1292h-825v54h825v-54z" />
    <glyph glyph-name="Eogonek.sc" horiz-adv-x="968" 
d="M184 0v1106h627v-64h-553v-444h510v-59h-510v-478h576v-61h-3q-67 -40 -119.5 -109t-52.5 -141q0 -53 33.5 -84t104.5 -31q55 0 125 25v-43q-66 -27 -140 -27q-90 0 -130 42.5t-40 105.5q0 49 17.5 95t44.5 79t50.5 54t45.5 34h-586z" />
    <glyph glyph-name="Gbreve.sc" horiz-adv-x="1286" 
d="M647 -16q-268 0 -406.5 156.5t-138.5 424.5q0 252 136 403.5t387 151.5q95 0 171 -18.5t129 -54t89.5 -78.5t62.5 -99l-69 -20q-53 101 -144.5 155t-238.5 54q-216 0 -332.5 -133.5t-116.5 -360.5q0 -155 49 -269t157 -181.5t267 -67.5q224 0 383 127v309h-368v64h438
v-395q-188 -168 -455 -168zM625 1231q-142 0 -220.5 70.5t-78.5 173.5h61q0 -79 66.5 -134t173.5 -55q106 0 167.5 54.5t61.5 134.5h62q0 -103 -78.5 -173.5t-214.5 -70.5z" />
    <glyph glyph-name="Gcircumflex.sc" horiz-adv-x="1286" 
d="M647 -16q-268 0 -406.5 156.5t-138.5 424.5q0 252 136 403.5t387 151.5q95 0 171 -18.5t129 -54t89.5 -78.5t62.5 -99l-69 -20q-53 101 -144.5 155t-238.5 54q-216 0 -332.5 -133.5t-116.5 -360.5q0 -155 49 -269t157 -181.5t267 -67.5q224 0 383 127v309h-368v64h438
v-395q-188 -168 -455 -168zM918 1219v-15h-62l-229 189h-2l-238 -189h-61v15l260 229h84z" />
    <glyph glyph-name="Gcommaaccent.sc" horiz-adv-x="1286" 
d="M647 -16q-268 0 -406.5 156.5t-138.5 424.5q0 252 136 403.5t387 151.5q95 0 171 -18.5t129 -54t89.5 -78.5t62.5 -99l-69 -20q-53 101 -144.5 155t-238.5 54q-216 0 -332.5 -133.5t-116.5 -360.5q0 -155 49 -269t157 -181.5t267 -67.5q224 0 383 127v309h-368v64h438
v-395q-188 -168 -455 -168zM709 -150q0 -150 -62 -262h-80v2q72 119 72 222h-53v131h123v-93z" />
    <glyph glyph-name="Gdotaccent.sc" horiz-adv-x="1286" 
d="M647 -16q-268 0 -406.5 156.5t-138.5 424.5q0 252 136 403.5t387 151.5q95 0 171 -18.5t129 -54t89.5 -78.5t62.5 -99l-69 -20q-53 101 -144.5 155t-238.5 54q-216 0 -332.5 -133.5t-116.5 -360.5q0 -155 49 -269t157 -181.5t267 -67.5q224 0 383 127v309h-368v64h438
v-395q-188 -168 -455 -168zM567 1227v137h117v-137h-117z" />
    <glyph glyph-name="Hcircumflex.sc" horiz-adv-x="1189" 
d="M932 0v543h-676v-543h-72v1106h72v-500h676v500h74v-1106h-74zM866 1219v-15h-61l-230 189h-2l-237 -189h-62v15l261 229h83z" />
    <glyph glyph-name="Iacute.sc" horiz-adv-x="444" 
d="M184 0v1106h76v-1106h-76zM176 1210v13l143 280h82v-18l-163 -275h-62z" />
    <glyph glyph-name="Ibreve.sc" horiz-adv-x="444" 
d="M184 0v1106h76v-1106h-76zM215 1231q-142 0 -220.5 70.5t-78.5 173.5h61q0 -79 66.5 -134t173.5 -55q106 0 167.5 54.5t61.5 134.5h62q0 -103 -78.5 -173.5t-214.5 -70.5z" />
    <glyph glyph-name="Icircumflex.sc" horiz-adv-x="444" 
d="M184 0v1106h76v-1106h-76zM508 1219v-15h-62l-229 189h-2l-238 -189h-61v15l260 229h84z" />
    <glyph glyph-name="Idieresis.sc" horiz-adv-x="444" 
d="M184 0v1106h76v-1106h-76zM-43 1251v115h92v-115h-92zM379 1251v115h92v-115h-92z" />
    <glyph glyph-name="Igrave.sc" horiz-adv-x="444" 
d="M184 0v1106h76v-1106h-76zM211 1204l-240 275v18h72l229 -280v-13h-61z" />
    <glyph glyph-name="Imacron.sc" horiz-adv-x="444" 
d="M184 0v1106h76v-1106h-76zM625 1292h-826v54h826v-54z" />
    <glyph glyph-name="Iogonek.sc" horiz-adv-x="444" 
d="M184 0v1106h76v-1104h2l-2 -2h-2q-66 -41 -117 -108.5t-51 -139.5q0 -114 137 -114q58 0 125 24v-43q-66 -27 -139 -27q-90 0 -130 42.5t-40 105.5q0 49 16.5 94t43 77.5t49.5 53.5t45 35h-13z" />
    <glyph glyph-name="Itilde.sc" horiz-adv-x="444" 
d="M184 0v1106h76v-1106h-76zM362 1245q-43 0 -88.5 18t-78 39.5t-72.5 39.5t-74 18q-110 0 -110 -107v-8h-64v6q0 82 47 123t127 41q44 0 91 -18.5t80 -40t72.5 -40t69.5 -18.5q58 0 87.5 29t29.5 82v6h58v-6q0 -78 -44 -121t-131 -43z" />
    <glyph glyph-name="Jcircumflex.sc" horiz-adv-x="868" 
d="M389 -16q-257 0 -303 278l72 8q23 -118 80.5 -170.5t150.5 -52.5q110 0 166.5 63.5t56.5 202.5v729h-258v64h330v-793q0 -164 -75 -246.5t-220 -82.5zM690 1219v-15h-61l-230 189h-2l-237 -189h-62v15l260 229h84z" />
    <glyph glyph-name="Kcommaaccent.sc" horiz-adv-x="1042" 
d="M881 0l-447 582l-176 -187v-395h-74v1106h74v-623l559 623h92l-428 -477l490 -629h-90zM614 -150q0 -152 -61 -262h-80v2q72 119 72 222h-53v131h122v-93z" />
    <glyph glyph-name="Lacute.sc" horiz-adv-x="946" 
d="M184 0v1106h74v-1045h555v-61h-629zM444 1204v13l230 280h71v-18l-239 -275h-62z" />
    <glyph glyph-name="Lcaron.sc" horiz-adv-x="946" 
d="M184 0v1106h74v-1045h555v-61h-629zM788 1458l-249 -229h-84l-258 229v15h63l236 -189h2l229 189h61v-15z" />
    <glyph glyph-name="Lcommaaccent.sc" horiz-adv-x="946" 
d="M184 0v1106h74v-1045h555v-61h-629zM598 -150q0 -152 -61 -262h-80v2q71 118 71 222h-53v131h123v-93z" />
    <glyph glyph-name="Ldot.sc" horiz-adv-x="946" 
d="M184 0v1106h74v-1045h555v-61h-629zM635 696v138h117v-138h-117z" />
    <glyph glyph-name="Nacute.sc" horiz-adv-x="1198" 
d="M920 0l-670 1028q2 -69 2 -184v-844h-68v1106h95l673 -1030q-4 92 -4 198v832h66v-1106h-94zM553 1204v13l229 280h72v-18l-240 -275h-61z" />
    <glyph glyph-name="Ncaron.sc" horiz-adv-x="1198" 
d="M920 0l-670 1028q2 -69 2 -184v-844h-68v1106h95l673 -1030q-4 92 -4 198v832h66v-1106h-94zM897 1458l-250 -229h-84l-258 229v15h64l235 -189h2l230 189h61v-15z" />
    <glyph glyph-name="Ncommaaccent.sc" horiz-adv-x="1198" 
d="M920 0l-670 1028q2 -69 2 -184v-844h-68v1106h95l673 -1030q-4 92 -4 198v832h66v-1106h-94zM707 -150q0 -150 -62 -262h-80v2q72 119 72 222h-53v131h123v-93z" />
    <glyph glyph-name="Ntilde.sc" horiz-adv-x="1198" 
d="M920 0l-670 1028q2 -69 2 -184v-844h-68v1106h95l673 -1030q-4 92 -4 198v832h66v-1106h-94zM752 1245q-43 0 -89 18t-78.5 39.5t-72.5 39.5t-74 18q-110 0 -110 -107v-8h-64v6q0 82 47 123t127 41q56 0 115 -29.5t110.5 -58.5t88.5 -29q116 0 116 111v6h58v-6
q0 -78 -43.5 -121t-130.5 -43z" />
    <glyph glyph-name="Oacute.sc" horiz-adv-x="1241" 
d="M1063 557q0 232 -114 369t-324 137q-218 0 -332.5 -134.5t-114.5 -371.5t116 -375.5t329 -138.5q222 0 331 135.5t109 378.5zM1139 557q0 -271 -131.5 -424t-384.5 -153q-250 0 -385.5 156.5t-135.5 420.5q0 263 135.5 416t387.5 153q126 0 225 -42.5t161.5 -119t95 -180
t32.5 -227.5zM573 1204v13l230 280h71v-18l-239 -275h-62z" />
    <glyph glyph-name="Obreve.sc" horiz-adv-x="1241" 
d="M1063 557q0 232 -114 369t-324 137q-218 0 -332.5 -134.5t-114.5 -371.5t116 -375.5t329 -138.5q222 0 331 135.5t109 378.5zM1139 557q0 -271 -131.5 -424t-384.5 -153q-250 0 -385.5 156.5t-135.5 420.5q0 263 135.5 416t387.5 153q126 0 225 -42.5t161.5 -119t95 -180
t32.5 -227.5zM625 1231q-142 0 -220.5 70.5t-78.5 173.5h61q0 -79 66.5 -134t173.5 -55q106 0 167.5 54.5t61.5 134.5h62q0 -103 -78.5 -173.5t-214.5 -70.5z" />
    <glyph glyph-name="Ocircumflex.sc" horiz-adv-x="1241" 
d="M1063 557q0 232 -114 369t-324 137q-218 0 -332.5 -134.5t-114.5 -371.5t116 -375.5t329 -138.5q222 0 331 135.5t109 378.5zM1139 557q0 -271 -131.5 -424t-384.5 -153q-250 0 -385.5 156.5t-135.5 420.5q0 263 135.5 416t387.5 153q126 0 225 -42.5t161.5 -119t95 -180
t32.5 -227.5zM918 1219v-15h-62l-229 189h-2l-238 -189h-61v15l260 229h84z" />
    <glyph glyph-name="Odieresis.sc" horiz-adv-x="1241" 
d="M1063 557q0 232 -114 369t-324 137q-218 0 -332.5 -134.5t-114.5 -371.5t116 -375.5t329 -138.5q222 0 331 135.5t109 378.5zM1139 557q0 -271 -131.5 -424t-384.5 -153q-250 0 -385.5 156.5t-135.5 420.5q0 263 135.5 416t387.5 153q126 0 225 -42.5t161.5 -119t95 -180
t32.5 -227.5zM367 1251v115h92v-115h-92zM788 1251v115h93v-115h-93z" />
    <glyph glyph-name="Ograve.sc" horiz-adv-x="1241" 
d="M1063 557q0 232 -114 369t-324 137q-218 0 -332.5 -134.5t-114.5 -371.5t116 -375.5t329 -138.5q222 0 331 135.5t109 378.5zM1139 557q0 -271 -131.5 -424t-384.5 -153q-250 0 -385.5 156.5t-135.5 420.5q0 263 135.5 416t387.5 153q126 0 225 -42.5t161.5 -119t95 -180
t32.5 -227.5zM621 1204l-240 275v18h72l229 -280v-13h-61z" />
    <glyph glyph-name="Ohungarumlaut.sc" horiz-adv-x="1241" 
d="M1063 557q0 232 -114 369t-324 137q-218 0 -332.5 -134.5t-114.5 -371.5t116 -375.5t329 -138.5q222 0 331 135.5t109 378.5zM1139 557q0 -271 -131.5 -424t-384.5 -153q-250 0 -385.5 156.5t-135.5 420.5q0 263 135.5 416t387.5 153q126 0 225 -42.5t161.5 -119t95 -180
t32.5 -227.5zM381 1204v13l229 280h72v-18l-240 -275h-61zM739 1204v13l230 280h71v-18l-239 -275h-62z" />
    <glyph glyph-name="Omacron.sc" horiz-adv-x="1241" 
d="M1063 557q0 232 -114 369t-324 137q-218 0 -332.5 -134.5t-114.5 -371.5t116 -375.5t329 -138.5q222 0 331 135.5t109 378.5zM1139 557q0 -271 -131.5 -424t-384.5 -153q-250 0 -385.5 156.5t-135.5 420.5q0 263 135.5 416t387.5 153q126 0 225 -42.5t161.5 -119t95 -180
t32.5 -227.5zM1034 1292h-825v54h825v-54z" />
    <glyph glyph-name="Otilde.sc" horiz-adv-x="1241" 
d="M1063 557q0 232 -114 369t-324 137q-218 0 -332.5 -134.5t-114.5 -371.5t116 -375.5t329 -138.5q222 0 331 135.5t109 378.5zM1139 557q0 -271 -131.5 -424t-384.5 -153q-250 0 -385.5 156.5t-135.5 420.5q0 263 135.5 416t387.5 153q126 0 225 -42.5t161.5 -119t95 -180
t32.5 -227.5zM772 1245q-43 0 -88.5 18t-78 39.5t-72.5 39.5t-74 18q-48 0 -79.5 -24.5t-31.5 -82.5v-8h-63v6q0 82 47 123t127 41q44 0 91 -18.5t80 -40t72.5 -40t69.5 -18.5q58 0 87.5 29t29.5 82v6h57v-6q0 -78 -43.5 -121t-130.5 -43z" />
    <glyph glyph-name="Oslashacute.sc" horiz-adv-x="1327" 
d="M1139 557q0 -271 -131.5 -424t-384.5 -153q-209 0 -340 112l-93 -112h-88l131 159q-131 155 -131 418t135.5 416t387.5 153q204 0 331 -108l86 106h84l-122 -151q135 -150 135 -416zM1063 557q0 223 -107 358l-628 -770q111 -102 295 -102q222 0 331 135.5t109 378.5z
M178 557q0 -227 103 -360l630 766q-114 100 -286 100q-218 0 -332.5 -134.5t-114.5 -371.5zM573 1204v13l230 280h71v-18l-239 -275h-62z" />
    <glyph glyph-name="Racute.sc" horiz-adv-x="1054" 
d="M258 483v-483h-74v1106h336q173 0 269 -80.5t96 -226.5q0 -58 -15 -108t-47.5 -93t-88 -71.5t-130.5 -39.5l328 -487h-82l-313 483h-15h-264zM813 799q0 116 -77.5 179.5t-227.5 63.5l-250 2v-503h256q299 0 299 258zM428 1204v13l229 280h72v-18l-240 -275h-61z" />
    <glyph glyph-name="Rcaron.sc" horiz-adv-x="1054" 
d="M258 483v-483h-74v1106h336q173 0 269 -80.5t96 -226.5q0 -58 -15 -108t-47.5 -93t-88 -71.5t-130.5 -39.5l328 -487h-82l-313 483h-15h-264zM813 799q0 116 -77.5 179.5t-227.5 63.5l-250 2v-503h256q299 0 299 258zM772 1458l-250 -229h-84l-258 229v15h64l235 -189h2
l230 189h61v-15z" />
    <glyph glyph-name="Rcommaaccent.sc" horiz-adv-x="1054" 
d="M258 483v-483h-74v1106h336q173 0 269 -80.5t96 -226.5q0 -58 -15 -108t-47.5 -93t-88 -71.5t-130.5 -39.5l328 -487h-82l-313 483h-15h-264zM813 799q0 116 -77.5 179.5t-227.5 63.5l-250 2v-503h256q299 0 299 258zM547 -150q0 -150 -62 -262h-79v2q71 118 71 222h-53
v131h123v-93z" />
    <glyph glyph-name="Sacute.sc" horiz-adv-x="1060" 
d="M942 301q0 -144 -96.5 -232.5t-300.5 -88.5q-180 0 -277.5 73.5t-134.5 212.5l70 13q19 -58 41 -97t60.5 -74t98.5 -52t144 -17q161 0 242 67t81 191q0 39 -9.5 70t-31.5 54.5t-47.5 40.5t-69 32.5t-82 26t-100.5 24.5q-52 12 -89 23.5t-81.5 29t-74 39.5t-55.5 52
t-39 70.5t-13 90.5q0 133 98.5 203.5t264.5 70.5q88 0 151.5 -17.5t104.5 -53t66 -78.5t44 -105l-71 -10q-17 52 -37 86.5t-54 62.5t-85.5 41t-124.5 13q-138 0 -210.5 -55.5t-72.5 -155.5q0 -39 9.5 -70.5t31.5 -55t45.5 -40.5t64 -32t73 -25t85.5 -23q83 -20 124 -31.5
t100 -36.5t86.5 -53t49 -75t21.5 -109zM481 1204v13l230 280h71v-18l-239 -275h-62z" />
    <glyph glyph-name="Scaron.sc" horiz-adv-x="1060" 
d="M942 301q0 -144 -96.5 -232.5t-300.5 -88.5q-180 0 -277.5 73.5t-134.5 212.5l70 13q19 -58 41 -97t60.5 -74t98.5 -52t144 -17q161 0 242 67t81 191q0 39 -9.5 70t-31.5 54.5t-47.5 40.5t-69 32.5t-82 26t-100.5 24.5q-52 12 -89 23.5t-81.5 29t-74 39.5t-55.5 52
t-39 70.5t-13 90.5q0 133 98.5 203.5t264.5 70.5q88 0 151.5 -17.5t104.5 -53t66 -78.5t44 -105l-71 -10q-17 52 -37 86.5t-54 62.5t-85.5 41t-124.5 13q-138 0 -210.5 -55.5t-72.5 -155.5q0 -39 9.5 -70.5t31.5 -55t45.5 -40.5t64 -32t73 -25t85.5 -23q83 -20 124 -31.5
t100 -36.5t86.5 -53t49 -75t21.5 -109zM825 1458l-250 -229h-83l-259 229v15h64l235 -189h3l229 189h61v-15z" />
    <glyph glyph-name="Scedilla.sc" horiz-adv-x="1060" 
d="M731 -262q0 -170 -250 -170q-51 0 -78 4v49q39 -2 84 -2q91 0 138 26.5t47 92.5q0 90 -166 90q-30 0 -55 -4l59 158q-162 6 -251.5 78.5t-125.5 205.5l70 13q19 -58 41 -97t60.5 -74t98.5 -52t144 -17q161 0 242 67t81 191q0 39 -9.5 70t-31.5 54.5t-47.5 40.5t-69 32.5
t-82 26t-100.5 24.5q-52 12 -89 23.5t-81.5 29t-74 39.5t-55.5 52t-39 70.5t-13 90.5q0 133 98.5 203.5t264.5 70.5q88 0 151.5 -17.5t104.5 -53t66 -78.5t44 -105l-71 -10q-17 52 -37 86.5t-54 62.5t-85.5 41t-124.5 13q-138 0 -210.5 -55.5t-72.5 -155.5q0 -39 9.5 -70.5
t31.5 -55t45.5 -40.5t64 -32t73 -25t85.5 -23q83 -20 124 -31.5t100 -36.5t86.5 -53t49 -75t21.5 -109q0 -138 -91 -226t-280 -95l-34 -103q84 0 139 -36t55 -103z" />
    <glyph glyph-name="Scircumflex.sc" horiz-adv-x="1060" 
d="M942 301q0 -144 -96.5 -232.5t-300.5 -88.5q-180 0 -277.5 73.5t-134.5 212.5l70 13q19 -58 41 -97t60.5 -74t98.5 -52t144 -17q161 0 242 67t81 191q0 39 -9.5 70t-31.5 54.5t-47.5 40.5t-69 32.5t-82 26t-100.5 24.5q-52 12 -89 23.5t-81.5 29t-74 39.5t-55.5 52
t-39 70.5t-13 90.5q0 133 98.5 203.5t264.5 70.5q88 0 151.5 -17.5t104.5 -53t66 -78.5t44 -105l-71 -10q-17 52 -37 86.5t-54 62.5t-85.5 41t-124.5 13q-138 0 -210.5 -55.5t-72.5 -155.5q0 -39 9.5 -70.5t31.5 -55t45.5 -40.5t64 -32t73 -25t85.5 -23q83 -20 124 -31.5
t100 -36.5t86.5 -53t49 -75t21.5 -109zM825 1219v-15h-61l-229 189h-3l-237 -189h-62v15l261 229h84z" />
    <glyph glyph-name="Tcaron.sc" horiz-adv-x="929" 
d="M502 1042v-1042h-74v1042h-377v64h828v-64h-377zM752 1458l-250 -229h-84l-258 229v15h63l236 -189h2l229 189h62v-15z" />
    <glyph glyph-name="uni021A.sc" horiz-adv-x="929" 
d="M502 1042v-1042h-74v1042h-377v64h828v-64h-377zM506 -150q0 -150 -62 -262h-79v2q71 118 71 222h-53v131h123v-93z" />
    <glyph glyph-name="Uacute.sc" horiz-adv-x="1157" 
d="M580 -20q-175 0 -285.5 103.5t-110.5 305.5v717h74v-711q0 -171 89 -260.5t233 -89.5q161 0 241 88.5t80 272.5v700h72v-705q0 -421 -393 -421zM516 1204v13l229 280h72v-18l-239 -275h-62z" />
    <glyph glyph-name="Ubreve.sc" horiz-adv-x="1157" 
d="M580 -20q-175 0 -285.5 103.5t-110.5 305.5v717h74v-711q0 -171 89 -260.5t233 -89.5q161 0 241 88.5t80 272.5v700h72v-705q0 -421 -393 -421zM567 1231q-142 0 -220.5 70.5t-78.5 173.5h62q0 -79 66 -134t173 -55q106 0 168 54.5t62 134.5h61q0 -103 -78.5 -173.5
t-214.5 -70.5z" />
    <glyph glyph-name="Ucircumflex.sc" horiz-adv-x="1157" 
d="M580 -20q-175 0 -285.5 103.5t-110.5 305.5v717h74v-711q0 -171 89 -260.5t233 -89.5q161 0 241 88.5t80 272.5v700h72v-705q0 -421 -393 -421zM860 1219v-15h-61l-230 189h-2l-237 -189h-62v15l260 229h84z" />
    <glyph glyph-name="Udieresis.sc" horiz-adv-x="1157" 
d="M580 -20q-175 0 -285.5 103.5t-110.5 305.5v717h74v-711q0 -171 89 -260.5t233 -89.5q161 0 241 88.5t80 272.5v700h72v-705q0 -421 -393 -421zM309 1251v115h92v-115h-92zM731 1251v115h92v-115h-92z" />
    <glyph glyph-name="Ugrave.sc" horiz-adv-x="1157" 
d="M580 -20q-175 0 -285.5 103.5t-110.5 305.5v717h74v-711q0 -171 89 -260.5t233 -89.5q161 0 241 88.5t80 272.5v700h72v-705q0 -421 -393 -421zM563 1204l-239 275v18h71l230 -280v-13h-62z" />
    <glyph glyph-name="Uhungarumlaut.sc" horiz-adv-x="1157" 
d="M580 -20q-175 0 -285.5 103.5t-110.5 305.5v717h74v-711q0 -171 89 -260.5t233 -89.5q161 0 241 88.5t80 272.5v700h72v-705q0 -421 -393 -421zM324 1204v13l229 280h72v-18l-240 -275h-61zM682 1204v13l229 280h72v-18l-240 -275h-61z" />
    <glyph glyph-name="Umacron.sc" horiz-adv-x="1157" 
d="M580 -20q-175 0 -285.5 103.5t-110.5 305.5v717h74v-711q0 -171 89 -260.5t233 -89.5q161 0 241 88.5t80 272.5v700h72v-705q0 -421 -393 -421zM977 1292h-825v54h825v-54z" />
    <glyph glyph-name="Uogonek.sc" horiz-adv-x="1157" 
d="M748 -381q-90 0 -130 42.5t-40 105.5q0 125 104 221q-66 -8 -102 -8q-175 0 -285.5 103.5t-110.5 305.5v717h74v-711q0 -171 89 -260.5t233 -89.5q161 0 241 88.5t80 272.5v700h72v-705q0 -294 -195 -385q-63 -41 -108 -105t-45 -132q0 -115 137 -115q55 0 125 25v-43
q-66 -27 -139 -27z" />
    <glyph glyph-name="Uring.sc" horiz-adv-x="1157" 
d="M580 -20q-175 0 -285.5 103.5t-110.5 305.5v717h74v-711q0 -171 89 -260.5t233 -89.5q161 0 241 88.5t80 272.5v700h72v-705q0 -421 -393 -421zM713 1409q0 62 -41.5 103.5t-102.5 41.5t-103 -42t-42 -103t42 -103t103 -42t102.5 41.5t41.5 103.5zM776 1409
q0 -85 -60.5 -146t-146.5 -61q-84 0 -144 61t-60 146q0 87 59.5 146t144.5 59q87 0 147 -59t60 -146z" />
    <glyph glyph-name="Utilde.sc" horiz-adv-x="1157" 
d="M580 -20q-175 0 -285.5 103.5t-110.5 305.5v717h74v-711q0 -171 89 -260.5t233 -89.5q161 0 241 88.5t80 272.5v700h72v-705q0 -421 -393 -421zM715 1245q-43 0 -89 18t-78.5 39.5t-72.5 39.5t-74 18q-110 0 -110 -107v-8h-64v6q0 82 47 123t127 41q56 0 115 -29.5
t110.5 -58.5t88.5 -29q116 0 116 111v6h58v-6q0 -78 -43.5 -121t-130.5 -43z" />
    <glyph glyph-name="Wacute.sc" horiz-adv-x="1558" 
d="M1153 0h-90l-260 913l-27 101l-26 -101l-256 -913h-86l-336 1106h75l265 -899l39 -135l36 137l254 897h72l256 -899l35 -133l39 131l266 901h78zM729 1204v13l229 280h72v-18l-239 -275h-62z" />
    <glyph glyph-name="Wcircumflex.sc" horiz-adv-x="1558" 
d="M1153 0h-90l-260 913l-27 101l-26 -101l-256 -913h-86l-336 1106h75l265 -899l39 -135l36 137l254 897h72l256 -899l35 -133l39 131l266 901h78zM1073 1219v-15h-61l-230 189h-2l-237 -189h-62v15l260 229h84z" />
    <glyph glyph-name="Wdieresis.sc" horiz-adv-x="1558" 
d="M1153 0h-90l-260 913l-27 101l-26 -101l-256 -913h-86l-336 1106h75l265 -899l39 -135l36 137l254 897h72l256 -899l35 -133l39 131l266 901h78zM522 1251v115h92v-115h-92zM944 1251v115h92v-115h-92z" />
    <glyph glyph-name="Wgrave.sc" horiz-adv-x="1558" 
d="M1153 0h-90l-260 913l-27 101l-26 -101l-256 -913h-86l-336 1106h75l265 -899l39 -135l36 137l254 897h72l256 -899l35 -133l39 131l266 901h78zM776 1204l-239 275v18h71l230 -280v-13h-62z" />
    <glyph glyph-name="Yacute.sc" horiz-adv-x="974" 
d="M522 461v-461h-71v461l-379 645h80l337 -584l332 584h82zM440 1204v13l230 280h71v-18l-239 -275h-62z" />
    <glyph glyph-name="Ycircumflex.sc" horiz-adv-x="974" 
d="M522 461v-461h-71v461l-379 645h80l337 -584l332 584h82zM784 1219v-15h-61l-229 189h-2l-238 -189h-61v15l260 229h84z" />
    <glyph glyph-name="Ydieresis.sc" horiz-adv-x="974" 
d="M522 461v-461h-71v461l-379 645h80l337 -584l332 584h82zM233 1251v115h93v-115h-93zM655 1251v115h93v-115h-93z" />
    <glyph glyph-name="Ygrave.sc" horiz-adv-x="974" 
d="M522 461v-461h-71v461l-379 645h80l337 -584l332 584h82zM487 1204l-239 275v18h71l230 -280v-13h-62z" />
    <glyph glyph-name="Zacute.sc" horiz-adv-x="1003" 
d="M102 0v57l672 985h-635v64h725v-55l-678 -990h715v-61h-799zM440 1204v13l230 280h71v-18l-239 -275h-62z" />
    <glyph glyph-name="Zcaron.sc" horiz-adv-x="1003" 
d="M102 0v57l672 985h-635v64h725v-55l-678 -990h715v-61h-799zM784 1458l-249 -229h-84l-258 229v15h63l236 -189h2l229 189h61v-15z" />
    <glyph glyph-name="Zdotaccent.sc" horiz-adv-x="1003" 
d="M102 0v57l672 985h-635v64h725v-55l-678 -990h715v-61h-799zM434 1227v137h117v-137h-117z" />
    <glyph glyph-name="Gbreve.alt_sc" horiz-adv-x="1284" 
d="M610 -16q-248 0 -378 154.5t-130 418.5q0 263 134.5 414t386.5 151q327 0 452 -256l-69 -22q-107 215 -385 215q-216 0 -329.5 -133t-113.5 -369q0 -233 113 -370.5t330 -137.5q179 0 285.5 115t119.5 325h-364v64h438v-553h-62l-2 303q-38 -151 -150.5 -235t-275.5 -84z
M616 1196q-142 0 -220.5 70.5t-78.5 173.5h62q0 -79 66 -134t173 -55q106 0 168 54.5t62 134.5h61q0 -103 -78.5 -173.5t-214.5 -70.5z" />
    <glyph glyph-name="Gcircumflex.alt_sc" horiz-adv-x="1284" 
d="M610 -16q-248 0 -378 154.5t-130 418.5q0 263 134.5 414t386.5 151q327 0 452 -256l-69 -22q-107 215 -385 215q-216 0 -329.5 -133t-113.5 -369q0 -233 113 -370.5t330 -137.5q179 0 285.5 115t119.5 325h-364v64h438v-553h-62l-2 303q-38 -151 -150.5 -235t-275.5 -84z
M909 1184v-15h-61l-230 189h-2l-237 -189h-62v15l261 229h84z" />
    <glyph glyph-name="Gcommaaccent.alt_sc" horiz-adv-x="1284" 
d="M610 -16q-248 0 -378 154.5t-130 418.5q0 263 134.5 414t386.5 151q327 0 452 -256l-69 -22q-107 215 -385 215q-216 0 -329.5 -133t-113.5 -369q0 -233 113 -370.5t330 -137.5q179 0 285.5 115t119.5 325h-364v64h438v-553h-62l-2 303q-38 -151 -150.5 -235t-275.5 -84z
M668 -150q0 -150 -62 -262h-80v2q72 119 72 222h-53v131h123v-93z" />
    <glyph glyph-name="Gdotaccent.alt_sc" horiz-adv-x="1284" 
d="M610 -16q-248 0 -378 154.5t-130 418.5q0 263 134.5 414t386.5 151q327 0 452 -256l-69 -22q-107 215 -385 215q-216 0 -329.5 -133t-113.5 -369q0 -233 113 -370.5t330 -137.5q179 0 285.5 115t119.5 325h-364v64h438v-553h-62l-2 303q-38 -151 -150.5 -235t-275.5 -84z
M559 1192v137h117v-137h-117z" />
    <glyph glyph-name="Jcircumflex.alt_sc" horiz-adv-x="819" 
d="M340 -16q-121 0 -200 71t-103 207l72 8q45 -223 231 -223q110 0 166.5 63.5t56.5 202.5v793h72v-793q0 -164 -75 -246.5t-220 -82.5zM731 1219v-15h-61l-230 189h-2l-237 -189h-62v15l260 229h84z" />
    <glyph glyph-name="Gbreve.alt" horiz-adv-x="1517" 
d="M1270 0l-2 393q-46 -195 -187 -304t-348 -109q-307 0 -469 193t-162 523q0 326 165 513.5t476 187.5q406 0 560 -316l-70 -22q-140 276 -490 276q-275 0 -420 -169.5t-145 -471.5q0 -143 34.5 -260.5t102.5 -204t176.5 -134.5t249.5 -48q228 0 363.5 148.5t152.5 425.5
h-462v65h538v-686h-63zM770 1503q-142 0 -220.5 70.5t-78.5 173.5h61q0 -79 66.5 -133.5t173.5 -54.5q106 0 167.5 54t61.5 134h62q0 -103 -78.5 -173.5t-214.5 -70.5z" />
    <glyph glyph-name="Gcircumflex.alt" horiz-adv-x="1517" 
d="M1270 0l-2 393q-46 -195 -187 -304t-348 -109q-307 0 -469 193t-162 523q0 326 165 513.5t476 187.5q406 0 560 -316l-70 -22q-140 276 -490 276q-275 0 -420 -169.5t-145 -471.5q0 -143 34.5 -260.5t102.5 -204t176.5 -134.5t249.5 -48q228 0 363.5 148.5t152.5 425.5
h-462v65h538v-686h-63zM1063 1501h-62l-229 189h-2l-238 -189h-61v15l260 229h84l248 -229v-15z" />
    <glyph glyph-name="Gcommaaccent.alt" horiz-adv-x="1517" 
d="M1270 0l-2 393q-46 -195 -187 -304t-348 -109q-307 0 -469 193t-162 523q0 326 165 513.5t476 187.5q406 0 560 -316l-70 -22q-140 276 -490 276q-275 0 -420 -169.5t-145 -471.5q0 -143 34.5 -260.5t102.5 -204t176.5 -134.5t249.5 -48q228 0 363.5 148.5t152.5 425.5
h-462v65h538v-686h-63zM844 -178q0 -150 -62 -262h-80v2q72 119 72 221h-53v131h123v-92z" />
    <glyph glyph-name="Gdotaccent.alt" horiz-adv-x="1517" 
d="M1270 0l-2 393q-46 -195 -187 -304t-348 -109q-307 0 -469 193t-162 523q0 326 165 513.5t476 187.5q406 0 560 -316l-70 -22q-140 276 -490 276q-275 0 -420 -169.5t-145 -471.5q0 -143 34.5 -260.5t102.5 -204t176.5 -134.5t249.5 -48q228 0 363.5 148.5t152.5 425.5
h-462v65h538v-686h-63zM719 1530v137h117v-137h-117z" />
    <glyph glyph-name="Jcircumflex.alt" horiz-adv-x="958" 
d="M414 -23q-149 0 -245.5 89.5t-125.5 257.5l72 8q58 -287 299 -287q143 0 214.5 81t71.5 263v987h74v-989q0 -410 -360 -410zM791 1501h-62l-229 189h-2l-238 -189h-61v15l260 229h84l248 -229v-15z" />
    <glyph glyph-name="Scommaaccent.sc" horiz-adv-x="1060" 
d="M942 301q0 -144 -96.5 -232.5t-300.5 -88.5q-180 0 -277.5 73.5t-134.5 212.5l70 13q19 -58 41 -97t60.5 -74t98.5 -52t144 -17q161 0 242 67t81 191q0 39 -9.5 70t-31.5 54.5t-47.5 40.5t-69 32.5t-82 26t-100.5 24.5q-52 12 -89 23.5t-81.5 29t-74 39.5t-55.5 52
t-39 70.5t-13 90.5q0 133 98.5 203.5t264.5 70.5q88 0 151.5 -17.5t104.5 -53t66 -78.5t44 -105l-71 -10q-17 52 -37 86.5t-54 62.5t-85.5 41t-124.5 13q-138 0 -210.5 -55.5t-72.5 -155.5q0 -39 9.5 -70.5t31.5 -55t45.5 -40.5t64 -32t73 -25t85.5 -23q83 -20 124 -31.5
t100 -36.5t86.5 -53t49 -75t21.5 -109zM606 -150q0 -152 -61 -262h-80v2q72 119 72 222h-54v131h123v-93z" />
    <glyph glyph-name="Tcedilla.sc" horiz-adv-x="929" 
d="M631 -262q0 -170 -250 -170q-51 0 -78 4v49q39 -2 84 -2q91 0 137.5 26.5t46.5 92.5q0 90 -165 90q-31 0 -56 -4l68 176h10v1042h-377v64h828v-64h-377v-1042h-23l-43 -123q84 0 139.5 -36t55.5 -103z" />
    <glyph glyph-name="Idotaccent.sc" horiz-adv-x="444" 
d="M184 0v1106h76v-1106h-76zM158 1227v137h116v-137h-116z" />
    </font>
</defs>
</svg>
