<?xml version="1.0" standalone="no"?>
<!DOCTYPE svg PUBLIC "-//W3C//DTD SVG 1.1//EN" "http://www.w3.org/Graphics/SVG/1.1/DTD/svg11.dtd" >
<svg xmlns="http://www.w3.org/2000/svg" xmlns:xlink="http://www.w3.org/1999/xlink" version="1.1">
<metadata>
Created by FontForge 20170731 at Sat Apr  3 00:55:19 2021
 By Aleksey,,,
Copyright (c) 2008 Gustavo Ferreira. Copyright (c) 2008 Universidade de Brasilia.
</metadata>
<defs>
<font id="UnBPro-Regular" horiz-adv-x="1189" >
  <font-face 
    font-family="UnBPro-Regular"
    font-weight="400"
    font-stretch="normal"
    units-per-em="2048"
    panose-1="2 0 0 0 0 0 0 0 0 0"
    ascent="1638"
    descent="-410"
    x-height="1077"
    cap-height="1405"
    bbox="-236 -569 30147 4743"
    underline-thickness="102"
    underline-position="-307"
    unicode-range="U+0020-2265"
  />
<missing-glyph horiz-adv-x="1576" 
d="M303 1329v-1253h969v1253h-969zM227 1405h1121v-1405h-1121v1405z" />
    <glyph glyph-name=".notdef" horiz-adv-x="1576" 
d="M303 1329v-1253h969v1253h-969zM227 1405h1121v-1405h-1121v1405z" />
    <glyph glyph-name=".null" horiz-adv-x="0" 
 />
    <glyph glyph-name="nonmarkingreturn" horiz-adv-x="682" 
 />
    <glyph glyph-name="space" unicode=" " horiz-adv-x="512" 
 />
    <glyph glyph-name="exclam" unicode="!" horiz-adv-x="677" 
d="M410 371h-138l-18 993l-4 229h182l-4 -229zM246 0v193h184v-193h-184z" />
    <glyph glyph-name="quotedbl" unicode="&#x22;" horiz-adv-x="735" 
d="M252 1034h-129l-21 443h172zM610 1034h-129l-20 443h172z" />
    <glyph glyph-name="numbersign" unicode="#" horiz-adv-x="1138" 
d="M59 872v121h271l86 408h127l-86 -408h344l88 408h127l-88 -408h200v-121h-225l-78 -356h252v-121h-276l-84 -395h-127l84 395h-344l-84 -395h-127l84 395h-195v121h219l76 356h-244zM430 872l-76 -356h344l78 356h-346z" />
    <glyph glyph-name="dollar" unicode="$" horiz-adv-x="1155" 
d="M999 469q0 -140 -87.5 -220.5t-258.5 -92.5v-297h-123v295q-155 9 -249 74t-125 198l153 31q23 -81 92 -131t183 -50q256 0 256 181q0 31 -7.5 54.5t-27.5 42.5t-40 32t-59.5 26t-70.5 21t-88 22q-180 43 -263 119t-83 203q0 128 89 205t240 88v243l123 3v-248
q276 -28 324 -260l-152 -19q-36 158 -250 158q-96 0 -155.5 -40t-59.5 -106q0 -78 57.5 -121.5t219.5 -84.5q37 -10 59 -16t56.5 -17t56 -20.5t50.5 -25.5t47 -32t37.5 -38.5t30.5 -48t18 -58.5t7 -70z" />
    <glyph glyph-name="percent" unicode="%" horiz-adv-x="1828" 
d="M565 973q0 130 -19.5 205.5t-55 105t-93.5 29.5q-92 0 -134 -75t-42 -265q0 -187 43 -264.5t131 -77.5q82 0 126 79.5t44 262.5zM707 973q0 -122 -24 -211.5t-68 -140.5t-99 -75t-123 -24q-69 0 -123.5 23.5t-97.5 74.5t-66.5 140.5t-23.5 212.5q0 126 23.5 215t68 137.5
t98.5 70t125 21.5q310 0 310 -444zM1450 1405l-922 -1405h-147l919 1405h150zM1606 434q0 192 -41 267t-129 75q-89 0 -131.5 -76.5t-42.5 -265.5q0 -182 44 -261t128 -79t128 79t44 261zM1749 434q0 -121 -24.5 -210t-69 -139t-100 -73.5t-123.5 -23.5t-122.5 23t-98 73.5
t-67.5 139t-24 210.5q0 103 16 181.5t43.5 129t68 82t86 44t102.5 12.5q69 0 123 -21.5t98 -70.5t68 -139t24 -218z" />
    <glyph glyph-name="ampersand" unicode="&#x26;" horiz-adv-x="1374" 
d="M1200 -12q-87 0 -158 27.5t-143 95.5q-159 -131 -371 -131q-223 0 -336.5 108t-113.5 283q0 280 342 432q-80 171 -80 299q0 141 86.5 228t263.5 87q151 0 244.5 -75t93.5 -209q0 -245 -412 -400q111 -194 289 -407q60 79 100.5 174.5t75.5 238.5l146 -43
q-78 -306 -219 -477q108 -90 215 -90q69 0 116 16v-135q-58 -22 -139 -22zM535 111q144 0 266 102q-183 213 -322 467q-127 -54 -180 -130t-53 -177q0 -115 74.5 -188.5t214.5 -73.5zM494 1102q0 -106 61 -246q174 70 246.5 129.5t72.5 147.5q0 75 -50.5 119t-135.5 44
q-94 0 -144 -51t-50 -143z" />
    <glyph glyph-name="quotesingle" unicode="'" horiz-adv-x="376" 
d="M252 1034h-129l-21 443h172z" />
    <glyph glyph-name="parenleft" unicode="(" horiz-adv-x="761" 
d="M700 -475h-180q-177 204 -266.5 471.5t-89.5 556.5q0 321 87 570.5t273 469.5h176q-188 -224 -277 -466.5t-89 -567.5q0 -309 90.5 -560.5t275.5 -473.5z" />
    <glyph glyph-name="parenright" unicode=")" horiz-adv-x="761" 
d="M242 -475h-181q185 222 276 474t91 560q0 325 -89.5 567t-277.5 467h177q186 -220 273 -469.5t87 -570.5q0 -289 -89.5 -556.5t-266.5 -471.5z" />
    <glyph glyph-name="asterisk" unicode="*" horiz-adv-x="798" 
d="M455 1296l18 7l248 96l41 -123l-260 -70l-23 -6l13 -18l170 -234l-109 -67l-141 245l-11 17l-12 -21l-147 -239l-109 67l176 238l10 12l-18 4l-262 72l41 125l250 -98l18 -9v19l-8 280h125l-10 -276v-21z" />
    <glyph glyph-name="plus" unicode="+" horiz-adv-x="1210" 
d="M111 610v138h426v428h139v-428h424v-138h-424v-428h-139v428h-426z" />
    <glyph glyph-name="comma" unicode="," horiz-adv-x="583" 
d="M408 215v-164q0 -101 -21.5 -168.5t-71.5 -140.5h-141v2q50 72 73 131.5t23 124.5h-69v215h207z" />
    <glyph glyph-name="hyphen" unicode="-" horiz-adv-x="743" 
d="M123 471v147h498v-147h-498z" />
    <glyph glyph-name="period" unicode="." horiz-adv-x="583" 
d="M188 0v215h207v-215h-207z" />
    <glyph glyph-name="slash" unicode="/" horiz-adv-x="780" 
d="M82 -475l414 2068h161l-413 -2068h-162z" />
    <glyph glyph-name="zero" unicode="0" horiz-adv-x="1224" 
d="M934 702q0 167 -21.5 282.5t-64 181t-99 94t-133.5 28.5q-81 0 -138.5 -28.5t-100 -95t-63.5 -181t-21 -281.5q0 -212 39 -344t107.5 -186.5t172.5 -54.5q76 0 133 30.5t100.5 98t66 182t22.5 274.5zM1102 702q0 -157 -25.5 -281t-69.5 -205.5t-107 -135.5t-134.5 -77
t-155.5 -23q-85 0 -156 23t-133 76.5t-104.5 136t-67 206t-24.5 280.5q0 164 24.5 290t67 206.5t105.5 131.5t134.5 72t159.5 21q486 0 486 -721z" />
    <glyph glyph-name="one" unicode="1" horiz-adv-x="854" 
d="M397 0v1245l-286 -207v156l303 211h151v-1405h-168z" />
    <glyph glyph-name="two" unicode="2" horiz-adv-x="1169" 
d="M98 0v117q40 95 102.5 180.5t129.5 147.5t139 121t136 111.5t115 106t81 117.5t30 135q0 122 -72 187t-196 65q-118 0 -195 -62.5t-92 -178.5l-170 14q21 160 138.5 261t318.5 101q208 0 323 -98t115 -283q0 -78 -33 -153t-88 -138t-122.5 -123.5t-140.5 -120
t-137.5 -116t-119 -122t-79.5 -128.5h743v-141h-926z" />
    <glyph glyph-name="three" unicode="3" horiz-adv-x="1218" 
d="M1085 385q0 -194 -122 -299.5t-349 -105.5q-99 0 -179 21t-132.5 56t-90 85t-56.5 103t-27 115l170 15q39 -256 315 -256q142 0 221.5 69.5t79.5 202.5q0 61 -23.5 107t-59 73t-84 44t-92.5 22.5t-91 5.5h-102v143h98q44 0 86 7t85 25t75 45.5t52 72.5t20 102
q0 117 -71 183.5t-204 66.5q-122 0 -197.5 -63t-87.5 -176l-165 12q21 178 145 270t307 92q113 0 199.5 -28.5t138.5 -79.5t77.5 -116.5t25.5 -143.5q0 -128 -72 -215.5t-221 -118.5v-4q163 -18 247 -108.5t84 -223.5z" />
    <glyph glyph-name="four" unicode="4" horiz-adv-x="1193" 
d="M1096 326h-201v-326h-156v326h-663v129l647 950h172v-948h201v-131zM299 539l-59 -82h499v741q-9 -16 -20 -34.5t-23 -36.5t-16 -25z" />
    <glyph glyph-name="five" unicode="5" horiz-adv-x="1218" 
d="M1087 457q0 -218 -128 -347.5t-365 -129.5q-106 0 -190 25.5t-139 72t-88.5 104.5t-47.5 129l168 19q57 -213 301 -213q148 0 232.5 88t84.5 248q0 135 -84 219t-229 84q-154 0 -270 -105h-162l47 754h793v-141h-641l-29 -465q119 92 295 92q205 0 328.5 -120t123.5 -314
z" />
    <glyph glyph-name="six" unicode="6" horiz-adv-x="1196" 
d="M1063 459q0 -216 -119 -347.5t-334 -131.5q-477 0 -477 682q0 374 130.5 567.5t367.5 193.5q150 0 250 -65t145 -215l-158 -29q-58 174 -239 174q-322 0 -334 -573q36 86 129 139t219 53q192 0 306 -121t114 -327zM897 451q0 152 -75.5 239.5t-217.5 87.5
q-54 0 -102.5 -16t-92 -51t-69 -99t-25.5 -151q0 -160 79 -253t218 -93q134 0 209.5 90t75.5 246z" />
    <glyph glyph-name="seven" unicode="7" horiz-adv-x="1103" 
d="M1004 1270q-253 -332 -369.5 -626.5t-116.5 -643.5h-172q0 325 139.5 653t366.5 611h-768v141h920v-135z" />
    <glyph glyph-name="eight" unicode="8" horiz-adv-x="1122" 
d="M1034 391q0 -188 -118.5 -299.5t-356.5 -111.5q-240 0 -356.5 109t-116.5 300q0 143 83.5 235t209.5 113q-118 30 -188 115.5t-70 214.5q0 154 114 255t322 101q215 0 328.5 -101.5t113.5 -256.5q0 -125 -67 -212t-178 -114q126 -27 203 -118.5t77 -229.5zM862 393
q0 60 -15 108t-48.5 89t-95.5 63.5t-148 22.5q-152 0 -224.5 -79.5t-72.5 -205.5q0 -130 76.5 -208.5t228.5 -78.5q299 0 299 289zM827 1055q0 245 -270 245q-137 0 -202.5 -66t-65.5 -179q0 -47 12 -88t40 -80.5t83.5 -62.5t132.5 -23q68 0 118.5 16t79 40.5t45.5 60
t22 67.5t5 70z" />
    <glyph glyph-name="nine" unicode="9" horiz-adv-x="1196" 
d="M1065 741q0 -377 -131 -569t-369 -192q-162 0 -260.5 70t-140.5 220l158 25q58 -180 245 -180q314 0 334 581q-99 -211 -352 -211q-189 0 -302.5 129t-113.5 340q0 217 121.5 343t339.5 126q233 0 352 -171t119 -511zM883 911q0 163 -77.5 270t-215.5 107
q-134 0 -211.5 -90.5t-77.5 -243.5q0 -148 75.5 -243t211.5 -95q54 0 105 18t94.5 53t69.5 93t26 131z" />
    <glyph glyph-name="colon" unicode=":" horiz-adv-x="583" 
d="M188 862v215h207v-215h-207zM188 0v215h207v-215h-207z" />
    <glyph glyph-name="semicolon" unicode=";" horiz-adv-x="583" 
d="M408 215v-164q0 -101 -21.5 -168.5t-71.5 -140.5h-141v2q50 72 73 131.5t23 124.5h-69v215h207zM201 862v215h207v-215h-207z" />
    <glyph glyph-name="less" unicode="&#x3c;" horiz-adv-x="1210" 
d="M111 575v193l989 420v-148l-858 -368l858 -371v-145z" />
    <glyph glyph-name="equal" unicode="=" horiz-adv-x="1210" 
d="M111 348v139h989v-139h-989zM111 854v141h989v-141h-989z" />
    <glyph glyph-name="greater" unicode="&#x3e;" horiz-adv-x="1210" 
d="M111 156v145l858 371l-858 368v148l989 -420v-193z" />
    <glyph glyph-name="question" unicode="?" horiz-adv-x="1169" 
d="M1006 1149q0 -73 -18.5 -136.5t-57.5 -119.5t-71 -91.5t-87 -88.5q-53 -52 -78 -77.5t-59 -70t-51 -84.5q-21 -61 -21 -110h-162q0 59 15 108q15 57 49 112t64.5 89t84.5 86q41 39 56.5 54.5t49.5 52t49 61t34.5 61t27 74.5t7.5 80q0 132 -82 213.5t-221 81.5
q-142 0 -226 -71t-98 -199l-170 10q10 87 43.5 158.5t91 128.5t148.5 88.5t208 31.5q222 0 348 -122.5t126 -319.5zM391 0v193h184v-193h-184z" />
    <glyph glyph-name="at" unicode="@" horiz-adv-x="2113" 
d="M1960 705q0 -139 -40 -252t-106.5 -183t-150 -107.5t-174.5 -37.5q-174 0 -227 108q-16 32 -19 58q-101 -156 -297 -156q-169 0 -254.5 102t-79.5 285q4 132 43.5 237t104 170.5t146 99.5t173.5 32q80 -2 150.5 -36t111.5 -99l25 116l152 -4q-74 -346 -84 -401
q-39 -207 -41 -262q0 -63 29.5 -87t95.5 -24q53 0 102.5 28t90.5 81t66 139.5t25 192.5q0 130 -36 235t-99 176.5t-152 119.5t-192.5 69.5t-222.5 21.5q-183 0 -329.5 -60.5t-238.5 -165t-140 -239t-48 -287.5q0 -350 191.5 -529t551.5 -179q123 0 269.5 36.5t247.5 88.5
l53 -127q-104 -63 -268 -105.5t-308 -42.5q-219 0 -391 62.5t-284 176t-170 269.5t-58 346q0 152 39.5 289t118.5 249.5t189.5 194.5t259.5 127.5t323 45.5q398 0 625 -200t227 -572zM1311 786q-29 72 -92.5 109t-131.5 37q-135 0 -212.5 -98t-92.5 -291q-22 -279 191 -279
q100 0 174.5 72.5t122.5 245.5q9 33 19 84t16 86z" />
    <glyph glyph-name="A" unicode="A" horiz-adv-x="1347" 
d="M373 416l-144 -416h-168l502 1405h211l520 -1405h-174l-147 416h-600zM756 1026l-88 248l-86 -250l-162 -471h504z" />
    <glyph glyph-name="B" unicode="B" horiz-adv-x="1218" 
d="M1120 397q0 -193 -131 -295t-383 -102h-432v1405h373q491 0 491 -340q0 -251 -239 -315q160 -19 240.5 -115t80.5 -238zM944 424q0 242 -381 242h-215v-525h236q179 0 269.5 63.5t90.5 219.5zM862 1044q0 114 -78 167t-233 53h-203v-461h203q311 0 311 241z" />
    <glyph glyph-name="C" unicode="C" horiz-adv-x="1472" 
d="M782 -20q-166 0 -296 54t-213.5 151t-127 230t-43.5 294q0 334 178 525t500 191q447 0 594 -346l-168 -55q-47 115 -152.5 186.5t-271.5 71.5q-241 0 -371 -153.5t-130 -419.5q0 -263 137 -423.5t373 -160.5q303 0 452 297l143 -72q-81 -171 -232 -270.5t-372 -99.5z" />
    <glyph glyph-name="D" unicode="D" horiz-adv-x="1476" 
d="M1198 717q0 141 -41 247t-117.5 171t-178.5 97t-230 32h-283v-1123h324q237 0 381.5 150t144.5 426zM1374 717q0 -171 -52 -308t-144 -226t-216.5 -136t-271.5 -47h-516v1405h461q164 0 297.5 -41.5t233 -124t154 -215.5t54.5 -307z" />
    <glyph glyph-name="E" unicode="E" horiz-adv-x="1222" 
d="M174 0v1405h854v-143h-680v-461h629v-144h-629v-514h690v-143h-864z" />
    <glyph glyph-name="F" unicode="F" horiz-adv-x="1128" 
d="M348 1262v-469h633v-146h-633v-647h-174v1405h852v-143h-678z" />
    <glyph glyph-name="G" unicode="G" horiz-adv-x="1597" 
d="M805 -20q-172 0 -307 54t-221 151.5t-130.5 230.5t-44.5 293q0 335 178 525.5t513 190.5q127 0 226.5 -22.5t170.5 -66.5t119.5 -103t83.5 -139l-170 -47q-37 73 -89.5 122t-140 80t-205.5 31q-250 0 -379.5 -153t-129.5 -418q0 -173 58.5 -304t179 -207.5t290.5 -76.5
q87 0 159.5 12t129 35.5t90.5 43t76 48.5v293h-426v147h587v-487q-104 -102 -262 -167.5t-356 -65.5z" />
    <glyph glyph-name="H" unicode="H" horiz-adv-x="1474" 
d="M1122 0v657h-774v-657h-174v1405h174v-600h774v600h178v-1405h-178z" />
    <glyph glyph-name="I" unicode="I" horiz-adv-x="524" 
d="M174 0v1405h176v-1405h-176z" />
    <glyph glyph-name="J" unicode="J" horiz-adv-x="1067" 
d="M485 -20q-349 0 -417 366l172 29q21 -126 87.5 -189t159.5 -63q109 0 170.5 73.5t61.5 215.5v850h-279v143h453v-989q0 -204 -107.5 -320t-300.5 -116z" />
    <glyph glyph-name="K" unicode="K" horiz-adv-x="1292" 
d="M1049 0l-510 686l-191 -197v-489h-174v1405h174v-713l627 713h211l-537 -610l613 -795h-213z" />
    <glyph glyph-name="L" unicode="L" horiz-adv-x="1105" 
d="M174 0v1405h174v-1262h686v-143h-860z" />
    <glyph glyph-name="M" unicode="M" horiz-adv-x="1689" 
d="M174 0v1405h213l328 -819q52 -129 88.5 -228.5t47.5 -134.5l11 -35q27 108 131 404l287 813h236v-1405h-158v952q0 28 0.5 59.5t1 59.5t1 55t1 48t1 37.5t1.5 26.5v9q0 -1 -5.5 -19t-14.5 -46.5t-19.5 -62.5t-24 -74t-24.5 -74l-338 -971h-143l-383 971q-70 179 -95 252
l1 -8v-22.5t1 -33t1.5 -43t0.5 -50t0.5 -56t0.5 -58.5v-952h-148z" />
    <glyph glyph-name="N" unicode="N" horiz-adv-x="1474" 
d="M174 0v1405h205l776 -1221q-12 156 -12 291v930h157v-1405h-213l-765 1214q8 -121 8 -260v-954h-156z" />
    <glyph glyph-name="O" unicode="O" horiz-adv-x="1587" 
d="M1307 709q0 264 -133.5 418.5t-378.5 154.5q-251 0 -382.5 -153t-131.5 -420q0 -266 133.5 -426t378.5 -160q131 0 230 43t161 122t92.5 185t30.5 236zM1485 709q0 -334 -183.5 -531.5t-508.5 -197.5q-168 0 -300 54t-217 151t-129.5 230t-44.5 294q0 333 181 524.5
t512 191.5q329 0 509.5 -193t180.5 -523z" />
    <glyph glyph-name="P" unicode="P" horiz-adv-x="1236" 
d="M1145 983q0 -191 -124 -310.5t-355 -119.5h-318v-553h-174v1405h481q241 0 365.5 -113.5t124.5 -308.5zM971 981q0 137 -85 210t-253 73h-285v-572h293q330 0 330 289z" />
    <glyph glyph-name="Q" unicode="Q" horiz-adv-x="1587" 
d="M1485 709q0 -310 -146 -500.5t-432 -222.5v-35q0 -49 15.5 -84.5t37 -53.5t56.5 -28t61.5 -12t65.5 -2q63 0 116 1t62 1v-158q-98 -4 -213 -4q-193 0 -289 84.5t-96 232.5v54q-201 14 -342.5 111.5t-210 254.5t-68.5 361q0 333 181 524.5t512 191.5q329 0 509.5 -193
t180.5 -523zM1307 709q0 264 -133.5 418.5t-378.5 154.5q-253 0 -383.5 -152.5t-130.5 -420.5q0 -266 133.5 -426t378.5 -160q259 0 386.5 154.5t127.5 431.5z" />
    <glyph glyph-name="R" unicode="R" horiz-adv-x="1312" 
d="M348 588v-588h-174v1405h481q235 0 362.5 -106t127.5 -295q0 -169 -87.5 -272t-256.5 -132l401 -602h-203l-366 590h-285zM971 1001q0 128 -87.5 194.5t-248.5 66.5l-287 2v-539h297q326 0 326 276z" />
    <glyph glyph-name="S" unicode="S" horiz-adv-x="1316" 
d="M1182 387q0 -185 -135.5 -296t-403.5 -111q-473 0 -559 358l172 33q13 -48 29.5 -84t46.5 -69.5t71 -54.5t102.5 -33.5t141.5 -12.5q363 0 363 260q0 119 -88 177q-63 42 -236 83q-22 5 -80 18q-57 13 -99 24.5t-92.5 30t-85.5 38.5t-71 50.5t-57.5 66t-35 84
t-13.5 106.5q0 77 26 139t71.5 104.5t108 71.5t134.5 42t153 13q225 0 340.5 -78.5t163.5 -242.5l-174 -31q-16 57 -37 94t-59 66.5t-98 43t-148 13.5q-153 0 -229 -62.5t-76 -166.5q0 -49 18.5 -87t39.5 -60t77 -44.5t87.5 -31.5t114.5 -30q13 -3 19 -5q192 -49 259 -76
q157 -64 209 -180q30 -68 30 -160z" />
    <glyph glyph-name="T" unicode="T" horiz-adv-x="1148" 
d="M664 1262v-1262h-177v1262h-456v143h1087v-143h-454z" />
    <glyph glyph-name="U" unicode="U" horiz-adv-x="1419" 
d="M709 -20q-117 0 -213 32t-168.5 95t-113 166t-40.5 237v895h174v-870q0 -202 95 -307t264 -105q176 0 270 103t94 311v868h174v-879q0 -272 -142.5 -409t-393.5 -137z" />
    <glyph glyph-name="V" unicode="V" horiz-adv-x="1288" 
d="M565 0l-534 1405h184l356 -987q27 -75 49 -140.5t30 -93.5l9 -28q31 92 86 262l326 987h186l-507 -1405h-185z" />
    <glyph glyph-name="W" unicode="W" horiz-adv-x="1916" 
d="M434 0l-403 1405h184l242 -899l88 -350q35 161 90 366l237 883h170l238 -881q23 -90 45 -179t33 -137t12 -52q61 244 90 350l244 899h182l-405 -1405h-211l-240 903q-63 240 -72 303q0 -1 -10.5 -45.5t-29 -119.5t-35.5 -140l-240 -901h-209z" />
    <glyph glyph-name="X" unicode="X" horiz-adv-x="1320" 
d="M31 0l534 729l-491 676h196l396 -561l387 561h194l-479 -670l522 -735h-194l-432 623l-439 -623h-194z" />
    <glyph glyph-name="Y" unicode="Y" horiz-adv-x="1214" 
d="M692 582v-582h-174v582l-487 823h192l385 -680l383 680h193z" />
    <glyph glyph-name="Z" unicode="Z" horiz-adv-x="1193" 
d="M63 0v133l807 1129h-755v143h956v-129l-809 -1133h856v-143h-1055z" />
    <glyph glyph-name="bracketleft" unicode="[" horiz-adv-x="741" 
d="M205 -475v2068h393v-120h-227v-1829h227v-119h-393z" />
    <glyph glyph-name="backslash" unicode="\" horiz-adv-x="780" 
d="M657 -475h-161l-414 2068h162z" />
    <glyph glyph-name="bracketright" unicode="]" horiz-adv-x="741" 
d="M537 1593v-2068h-394v121h228v1829h-228v118h394z" />
    <glyph glyph-name="asciicircum" unicode="^" horiz-adv-x="1126" 
d="M866 332l-305 618l-303 -618h-156l367 717h190l365 -717h-158z" />
    <glyph glyph-name="underscore" unicode="_" horiz-adv-x="1146" 
d="M0 -129v129h1147v-129h-1147z" />
    <glyph glyph-name="grave" unicode="`" horiz-adv-x="620" 
d="M389 1198l-313 303v2h229l227 -303v-2h-143z" />
    <glyph glyph-name="a" unicode="a" horiz-adv-x="1193" 
d="M1133 113v-127q-59 -6 -140 -6t-128.5 45.5t-47.5 128.5v53q-72 -227 -352 -227q-166 0 -254 92.5t-88 230.5q0 185 121 265.5t364 80.5h203v88q0 234 -238 234q-106 0 -163 -41.5t-74 -138.5l-164 18q49 289 410 289q190 0 290.5 -93.5t100.5 -273.5v-545
q0 -41 14.5 -57t48.5 -16h97zM504 102q87 0 150 31t95.5 84.5t47 112t14.5 127.5v78h-205q-74 0 -129.5 -11t-99.5 -35.5t-67 -68.5t-23 -107q0 -93 55.5 -152t161.5 -59z" />
    <glyph glyph-name="b" unicode="b" horiz-adv-x="1181" 
d="M1079 547q0 -287 -103.5 -427t-318.5 -140q-107 0 -194.5 48.5t-124.5 151.5q-3 -96 -8 -180h-160q4 118 4 221v1372h166v-581q0 -25 -4 -103q46 94 133 141.5t201 47.5q210 0 309.5 -135t99.5 -416zM907 541q0 227 -64 327.5t-204 100.5q-152 0 -225.5 -102t-73.5 -337
q0 -227 74 -327.5t221 -100.5q140 0 206 102t66 337z" />
    <glyph glyph-name="c" unicode="c" horiz-adv-x="1079" 
d="M565 -20q-123 0 -214 42.5t-144.5 120t-79 177t-25.5 223.5t26 221t69 159t103.5 102t125 56.5t137.5 16.5q174 0 277 -88t131 -232l-170 -10q-15 95 -76 147t-166 52q-152 0 -217.5 -101t-65.5 -319q0 -100 14.5 -176.5t47 -136t88.5 -90.5t135 -31q103 0 168 56t82 163
l166 -13q-21 -143 -126.5 -241t-285.5 -98z" />
    <glyph glyph-name="d" unicode="d" horiz-adv-x="1185" 
d="M500 -20q-202 0 -300 137t-98 420q0 561 412 561q114 0 204 -53.5t126 -151.5q-2 55 -2 156v544h166v-1372q0 -73 8 -221h-164q-6 135 -6 205q-36 -110 -118 -167.5t-228 -57.5zM543 109q145 0 222 105.5t77 340.5q0 223 -75 321.5t-222 98.5q-271 0 -271 -432
q0 -222 64.5 -328t204.5 -106z" />
    <glyph glyph-name="e" unicode="e" horiz-adv-x="1132" 
d="M575 -20q-236 0 -354.5 143.5t-118.5 423.5q0 143 35 250.5t99.5 172.5t148 96.5t186.5 31.5q104 0 183.5 -27t129.5 -72.5t81 -113t43 -140.5t12 -163q0 -30 -4 -76h-737v-2q0 -186 72 -293t229 -107q121 0 180.5 42t91.5 128l141 -41q-21 -53 -47.5 -92t-73 -78.5
t-122 -61t-175.5 -21.5zM571 975q-45 0 -84 -9.5t-76.5 -34t-65 -62t-45.5 -98t-21 -138.5h567v14q0 168 -68 248t-207 80z" />
    <glyph glyph-name="f" unicode="f" horiz-adv-x="694" 
d="M82 952v125h156v320q0 97 54 153t152 56h166v-140h-149q-35 0 -48.5 -18t-13.5 -55v-316h213v-125h-213v-952h-166v952h-151z" />
    <glyph glyph-name="g" unicode="g" horiz-adv-x="1183" 
d="M489 -10q-202 0 -294.5 136t-92.5 413q0 272 97 415.5t309 143.5q134 0 220.5 -59t119.5 -156l8 194h158l-6 -219l2 -895q0 -450 -449 -450q-179 0 -280.5 69.5t-130.5 192.5l165 24q19 -77 82.5 -118t167.5 -41q279 0 279 319l-2 231v23q-44 -103 -132.5 -163
t-220.5 -60zM842 541q0 215 -82.5 322.5t-210.5 107.5q-143 0 -209 -101.5t-66 -328.5q0 -233 64 -329.5t207 -96.5q59 0 111 24.5t94.5 73.5t67 133.5t24.5 194.5z" />
    <glyph glyph-name="h" unicode="h" horiz-adv-x="1185" 
d="M336 1073q0 -105 -6 -188q84 213 342 213q103 0 174 -29t108.5 -83t52.5 -117.5t15 -147.5v-721h-166v688q0 150 -49 216.5t-180 66.5q-133 0 -212 -90.5t-79 -257.5v-623h-166v1593h166v-520z" />
    <glyph glyph-name="i" unicode="i" horiz-adv-x="520" 
d="M178 0v1077h164v-1077h-164zM170 1300v185h180v-185h-180z" />
    <glyph glyph-name="j" unicode="j" horiz-adv-x="520" 
d="M113 -483q-80 0 -123 2v141h88q54 0 77 26.5t23 94.5v1296h164v-1294q0 -132 -51 -199t-178 -67zM170 1300v185h180v-185h-180z" />
    <glyph glyph-name="k" unicode="k" horiz-adv-x="1079" 
d="M846 0l-375 498l-135 -115v-383h-166v1593h166v-1050l487 534h195l-440 -467l460 -610h-192z" />
    <glyph glyph-name="l" unicode="l" horiz-adv-x="505" 
d="M170 0v1593h166v-1593h-166z" />
    <glyph glyph-name="m" unicode="m" horiz-adv-x="1755" 
d="M803 0v690q0 161 -45.5 222t-159.5 61q-111 0 -184.5 -94t-73.5 -254v-625h-166v850q0 101 -4 227h154q0 -17 2 -91.5t2 -119.5q80 232 325 232q139 0 208 -57t87 -164q44 110 133.5 165.5t198.5 55.5q164 0 237.5 -87t73.5 -288v-723h-164v690q0 161 -44.5 220
t-159.5 59q-118 0 -187 -89t-69 -255v-625h-164z" />
    <glyph glyph-name="n" unicode="n" 
d="M860 0v690q0 158 -52.5 219.5t-178.5 61.5q-133 0 -211 -91.5t-78 -256.5v-623h-166v846l-4 231h154q0 -23 2 -95.5t2 -115.5q38 114 121.5 173t226.5 59q178 0 264 -89.5t86 -287.5v-721h-166z" />
    <glyph glyph-name="o" unicode="o" horiz-adv-x="1161" 
d="M885 551q0 227 -76 325.5t-227 98.5q-149 0 -227.5 -97t-78.5 -327q0 -120 24 -209.5t67 -140.5t96 -75t117 -24q148 0 226.5 104.5t78.5 344.5zM1059 543q0 -283 -127 -423t-361 -140q-217 0 -343 141t-126 426q0 275 125 413t357 138q475 0 475 -555z" />
    <glyph glyph-name="p" unicode="p" horiz-adv-x="1183" 
d="M1081 545q0 -130 -20.5 -230t-66 -177t-123.5 -117.5t-187 -40.5q-272 0 -346 215q4 -98 4 -170v-500h-166v1323q0 118 -6 229h162q6 -165 6 -215q31 111 119.5 173.5t226.5 62.5q211 0 304 -142.5t93 -410.5zM909 543q0 217 -61.5 322.5t-206.5 105.5q-53 0 -95 -11
t-81.5 -41t-65.5 -78.5t-41.5 -127t-15.5 -183.5q0 -229 74.5 -328.5t222.5 -99.5q147 0 208.5 108.5t61.5 332.5z" />
    <glyph glyph-name="q" unicode="q" horiz-adv-x="1183" 
d="M502 -20q-205 0 -302.5 138t-97.5 419q0 561 400 561q135 0 215 -49t127 -152h2q0 23 10 180h158q-6 -276 -6 -282l2 -1270h-166v612l2 45q-53 -106 -134 -154t-210 -48zM545 109q53 0 95 12t81 43t64.5 80t41 128t15.5 183q0 118 -20.5 201t-60.5 130t-92.5 68
t-123.5 21q-140 0 -204.5 -103.5t-64.5 -328.5q0 -228 62.5 -331t206.5 -103z" />
    <glyph glyph-name="r" unicode="r" horiz-adv-x="741" 
d="M670 940q-31 2 -72 2q-65 0 -116 -26.5t-80.5 -71t-44.5 -96.5t-15 -109v-639h-166v827l-6 250h158l8 -213q24 110 94 171t182 61q27 0 58 -2v-154z" />
    <glyph glyph-name="s" unicode="s" horiz-adv-x="1017" 
d="M926 295q0 -153 -105 -234t-309 -81q-178 0 -287 64t-143 208l154 31q23 -81 91.5 -131t182.5 -50q256 0 256 181q0 31 -7.5 54.5t-27.5 42.5t-40 32t-59.5 26t-70.5 21t-88 22q-180 43 -263 119t-83 203q0 138 103 216.5t272 78.5q347 0 401 -264l-151 -19
q-36 158 -250 158q-96 0 -155.5 -40t-59.5 -106q0 -79 57 -122t219 -84q48 -12 76 -20t71.5 -24t69.5 -31.5t57 -40.5t48 -53.5t29 -68.5t12 -88z" />
    <glyph glyph-name="t" unicode="t" horiz-adv-x="700" 
d="M82 952v125h129v314h166v-314h203v-125h-203v-727q0 -54 22 -79t80 -25h119v-139h-201q-87 0 -136.5 58t-49.5 150v762h-129z" />
    <glyph glyph-name="u" unicode="u" 
d="M330 1077v-688q0 -158 51 -219t178 -61q134 0 212.5 91t78.5 253v624h166v-848q0 -45 4 -229h-158l-10 199q-85 -219 -348 -219q-178 0 -259 88.5t-81 287.5v721h166z" />
    <glyph glyph-name="v" unicode="v" horiz-adv-x="1017" 
d="M608 0h-192l-396 1077h173l251 -723q16 -47 33.5 -103t26.5 -88l10 -32q31 116 68 227l243 719h172z" />
    <glyph glyph-name="w" unicode="w" horiz-adv-x="1507" 
d="M324 0l-304 1077h162l191 -741q12 -45 22.5 -94.5t15.5 -75.5l5 -27q24 95 49 191l188 747h195l188 -747l45 -193q24 115 47 199l197 741h162l-311 -1077h-193l-176 705q-16 60 -55 237q-1 -5 -10 -45t-22 -98t-24 -101l-182 -698h-190z" />
    <glyph glyph-name="x" unicode="x" horiz-adv-x="1019" 
d="M795 0l-297 451l-297 -451h-181l383 553l-364 524h184l275 -426l274 426h184l-364 -522l387 -555h-184z" />
    <glyph glyph-name="y" unicode="y" horiz-adv-x="1036" 
d="M180 -487q-68 0 -104 6v131h104q75 0 117.5 37t69.5 108l77 207l-424 1075h179l231 -606l100 -276q46 116 101 274l211 608h174l-486 -1284q-13 -34 -22 -55.5t-26 -54t-34.5 -53.5t-44.5 -45.5t-58 -38.5t-73.5 -23.5t-91.5 -9.5z" />
    <glyph glyph-name="z" unicode="z" horiz-adv-x="962" 
d="M72 0v127l606 823h-567v127h745v-127l-606 -821h641v-129h-819z" />
    <glyph glyph-name="braceleft" unicode="{" horiz-adv-x="854" 
d="M752 -475h-138q-130 0 -194 64.5t-64 203.5v451q0 120 -54 176t-159 59v119q213 6 213 236v446q0 313 258 313h138v-120h-64q-94 0 -130 -42.5t-36 -136.5v-499q0 -94 -51 -162t-145 -94q94 -25 145 -90t51 -158v-488q0 -87 37 -120t129 -33h64v-125z" />
    <glyph glyph-name="bar" unicode="|" horiz-adv-x="1146" 
d="M496 -475v2068h155v-2068h-155z" />
    <glyph glyph-name="braceright" unicode="}" horiz-adv-x="854" 
d="M240 -475h-138v125h64q92 0 129 33t37 120v488q0 93 50.5 158t143.5 90q-93 26 -143.5 94t-50.5 162v499q0 94 -36 136.5t-130 42.5h-64v120h138q258 0 258 -313v-446q0 -230 213 -236v-119q-105 -3 -159 -59t-54 -176v-451q0 -139 -64 -203.5t-194 -64.5z" />
    <glyph glyph-name="asciitilde" unicode="~" horiz-adv-x="1210" 
d="M850 555q-97 0 -285 70q-125 45 -217 45q-71 0 -127.5 -21.5t-118.5 -66.5v135q112 84 260 84q31 0 61.5 -3.5t69 -13t55.5 -14.5t66 -21t56 -18q134 -47 196 -47q129 0 242 92v-141q-62 -45 -120 -62.5t-138 -17.5z" />
    <glyph glyph-name="exclamdown" unicode="&#xa1;" horiz-adv-x="677" 
d="M268 707h138l18 -994l4 -229h-182l4 229zM432 1077v-192h-184v192h184z" />
    <glyph glyph-name="cent" unicode="&#xa2;" horiz-adv-x="1155" 
d="M557 1513l123 3v-246q149 -14 237.5 -99.5t114.5 -218.5l-170 -10q-15 95 -75.5 147t-165.5 52q-152 0 -217.5 -101t-65.5 -319q0 -100 14.5 -176.5t47 -136t88.5 -90.5t135 -31q103 0 167.5 56t81.5 163l166 -12q-12 -85 -53 -155t-120 -121t-185 -62v-297h-123v299
q-105 11 -182 58t-122.5 122.5t-67 169.5t-21.5 209q0 139 31.5 244t87.5 167.5t123.5 96t150.5 43.5v245z" />
    <glyph glyph-name="sterling" unicode="&#xa3;" horiz-adv-x="1155" 
d="M143 625v125h144v282q0 188 96.5 290.5t288.5 102.5q78 0 147 -24t123 -75.5t76 -123.5l-164 -57q-48 137 -199 137q-101 0 -148.5 -63t-47.5 -172v-297h375v-125h-375v-127q0 -240 -160 -351h440q80 0 133 42t66 133l158 -17q-18 -154 -106.5 -229.5t-223.5 -75.5h-653
v147q174 89 174 330v148h-144z" />
    <glyph glyph-name="currency" unicode="&#xa4;" horiz-adv-x="1155" 
d="M193 197l-101 98l146 143q-80 107 -80 246q0 131 78 242l-144 143l101 98l137 -145q113 82 248 82t245 -80l138 143l100 -98l-141 -141q77 -110 77 -244q0 -135 -79 -248l143 -137l-100 -98l-142 139q-110 -76 -241 -76q-133 0 -244 78zM858 684q0 119 -77 200t-203 81
q-125 0 -202 -80t-77 -201t77.5 -199.5t201.5 -78.5t202 77t78 201z" />
    <glyph glyph-name="yen" unicode="&#xa5;" horiz-adv-x="1155" 
d="M109 309v125h385v152h-385v123h329l-415 696h190l362 -649l367 649h193l-416 -696h328v-123h-385v-152h385v-125h-385v-309h-168v309h-385z" />
    <glyph glyph-name="brokenbar" unicode="&#xa6;" horiz-adv-x="1146" 
d="M496 -475v883h157v-883h-157zM496 768v825h157v-825h-157z" />
    <glyph glyph-name="section" unicode="&#xa7;" horiz-adv-x="1159" 
d="M1012 1225l-162 -21q-25 150 -252 150q-123 0 -188.5 -39.5t-65.5 -110.5q0 -43 23 -76t70.5 -56t92 -37t115.5 -31q63 -15 111.5 -30t103.5 -42t90.5 -59t59.5 -80t24 -107q0 -101 -55.5 -172t-159.5 -102q209 -94 209 -267q0 -148 -115 -232.5t-325 -84.5
q-197 0 -311.5 62t-151.5 210l162 31q22 -101 96.5 -136.5t204.5 -35.5q126 0 203 41t77 129q0 41 -20 74t-47.5 54.5t-79 42t-90 31.5t-103.5 27q-58 13 -105.5 28.5t-97.5 41.5t-83.5 58.5t-55.5 80.5t-22 105q0 178 219 266q-199 87 -199 252q0 140 107 217.5t307 77.5
q166 0 275 -64t139 -196zM324 684q0 -36 17.5 -66t43 -50.5t68 -39.5t79 -30.5t89.5 -26.5q125 4 190.5 57t65.5 136q0 55 -43.5 98.5t-106 70t-158.5 52.5q-245 -29 -245 -201z" />
    <glyph glyph-name="dieresis" unicode="&#xa8;" horiz-adv-x="790" 
d="M102 1217v180h160v-180h-160zM530 1217v180h158v-180h-158z" />
    <glyph glyph-name="copyright" unicode="&#xa9;" horiz-adv-x="1548" 
d="M518 709q0 -150 68.5 -238t199.5 -88q152 0 232 156l115 -35q-106 -225 -347 -225q-197 0 -297 116.5t-100 313.5q0 199 99 311.5t290 112.5q243 0 340 -209l-114 -33q-22 59 -80 98t-144 39q-133 0 -197.5 -84t-64.5 -235zM1405 707q0 127 -50 243.5t-134.5 200.5
t-201.5 134t-245 50q-170 0 -314.5 -84t-228.5 -228.5t-84 -315.5q0 -129 49.5 -245.5t133.5 -200.5t200 -133.5t244 -49.5q171 0 316.5 84.5t230 229.5t84.5 315zM1497 707q0 -196 -96.5 -362.5t-263 -263.5t-363.5 -97q-195 0 -361.5 97t-264 263.5t-97.5 362.5
q0 197 97 363.5t263.5 263t362.5 96.5q197 0 363.5 -96.5t263 -263t96.5 -363.5z" />
    <glyph glyph-name="ordfeminine" unicode="&#xaa;" horiz-adv-x="872" 
d="M72 864q0 121 91.5 180.5t239.5 61.5l158 2v61q0 81 -40.5 118.5t-110.5 37.5q-145 0 -156 -135l-150 10q3 34 14 65t34.5 61t58.5 51.5t88.5 34.5t120.5 13q132 0 208.5 -61t76.5 -188v-308q0 -61 13.5 -84.5t49.5 -23.5q29 0 43 2v-107q-58 -4 -84 -4q-123 0 -152 103
q-8 27 -10 45q-25 -78 -95.5 -116t-156.5 -38q-111 0 -176 60t-65 159zM362 756q93 0 146 61.5t53 149.5v49l-115 -2q-112 -2 -168.5 -30.5t-56.5 -106.5q0 -121 141 -121z" />
    <glyph glyph-name="guillemotleft" unicode="&#xab;" horiz-adv-x="1232" 
d="M928 143l-348 396v4l348 395h182v-2l-344 -395l344 -396v-2h-182zM471 143l-348 396v4l348 395h182v-2l-344 -395l344 -396v-2h-182z" />
    <glyph glyph-name="logicalnot" unicode="&#xac;" horiz-adv-x="1210" 
d="M963 184v426h-852v138h989v-564h-137z" />
    <glyph glyph-name="macron" unicode="&#xaf;" horiz-adv-x="1056" 
d="M954 1264h-852v112h852v-112z" />
    <glyph glyph-name="degree" unicode="&#xb0;" horiz-adv-x="708" 
d="M532 1145q0 75 -51.5 127.5t-126.5 52.5t-126.5 -52.5t-51.5 -127.5q0 -74 52 -127t126 -53t126 53t52 127zM637 1145q0 -117 -83 -199t-200 -82q-116 0 -199 82t-83 199q0 118 83 199t199 81q118 0 200.5 -81t82.5 -199z" />
    <glyph glyph-name="plusminus" unicode="&#xb1;" horiz-adv-x="1134" 
d="M74 676v137h424v397h141v-397h424v-137h-424v-400h-141v400h-424zM74 0v137h989v-137h-989z" />
    <glyph glyph-name="acute" unicode="&#xb4;" horiz-adv-x="618" 
d="M88 1198v2l225 303h230v-2l-312 -303h-143z" />
    <glyph glyph-name="paragraph" unicode="&#xb6;" horiz-adv-x="1107" 
d="M881 1309v-1573h-105v1573h-225v-1573h-105v956q-165 0 -263.5 91.5t-98.5 263.5q0 166 98.5 262t272.5 96h557v-96h-131z" />
    <glyph glyph-name="periodcentered" unicode="&#xb7;" horiz-adv-x="583" 
d="M188 469v215h207v-215h-207z" />
    <glyph glyph-name="cedilla" unicode="&#xb8;" horiz-adv-x="565" 
d="M463 -256q0 -178 -270 -178q-58 0 -91 4v96q50 -6 86 -6q150 0 150 84q0 76 -135 76q-27 0 -58 -2l66 182h102l-39 -102q93 -3 141 -43t48 -111z" />
    <glyph glyph-name="ordmasculine" unicode="&#xba;" horiz-adv-x="798" 
d="M598 1036q0 159 -47.5 222t-147.5 63q-101 0 -150.5 -63.5t-49.5 -221.5t50 -222t142 -64q104 0 153.5 63t49.5 223zM748 1036q0 -190 -89.5 -290.5t-261.5 -100.5q-168 0 -257 100.5t-89 290.5q0 185 88 287t262 102q347 0 347 -389z" />
    <glyph glyph-name="guillemotright" unicode="&#xbb;" horiz-adv-x="1232" 
d="M762 936l348 -395v-4l-348 -396h-182v2l344 396l-344 395v2h182zM305 936l348 -395v-4l-348 -396h-182v2l344 396l-344 395v2h182z" />
    <glyph glyph-name="questiondown" unicode="&#xbf;" horiz-adv-x="1169" 
d="M164 -68q0 73 18.5 136.5t57 119.5t70.5 92t87 89q57 56 79.5 78.5t57.5 67.5t52 85q20 58 20 111h162q0 -63 -14 -109q-14 -57 -49 -112.5t-65.5 -88.5t-84.5 -86q-47 -45 -67.5 -65t-57.5 -64t-53.5 -76t-30.5 -80t-14 -98q0 -132 82 -213t221 -81q142 0 225.5 71
t97.5 199l170 -10q-10 -87 -43.5 -158.5t-91 -128.5t-148.5 -89t-208 -32q-222 0 -347.5 122.5t-125.5 319.5zM778 1081v-192h-184v192h184z" />
    <glyph glyph-name="Agrave" unicode="&#xc0;" horiz-adv-x="1347" 
d="M229 0l144 416h600l147 -416h174l-520 1405h-211l-502 -1405h168zM668 1274l88 -248l168 -473h-504l162 471zM614 1573l-286 303v2h202l213 -303v-2h-129z" />
    <glyph glyph-name="Aacute" unicode="&#xc1;" horiz-adv-x="1347" 
d="M229 0l144 416h600l147 -416h174l-520 1405h-211l-502 -1405h168zM668 1274l88 -248l168 -473h-504l162 471zM596 1573v2l211 303h203v-2l-285 -303h-129z" />
    <glyph glyph-name="Acircumflex" unicode="&#xc2;" horiz-adv-x="1347" 
d="M229 0l144 416h600l147 -416h174l-520 1405h-211l-502 -1405h168zM668 1274l88 -248l168 -473h-504l162 471zM983 1573h-139l-178 168h-2l-191 -168h-141v2l231 283h201l219 -283v-2z" />
    <glyph glyph-name="Atilde" unicode="&#xc3;" horiz-adv-x="1347" 
d="M229 0l144 416h600l147 -416h174l-520 1405h-211l-502 -1405h168zM668 1274l88 -248l168 -473h-504l162 471zM825 1573q-52 0 -113.5 30.5t-115.5 60.5t-90 30q-46 0 -71 -26t-25 -75v-20h-103v39q0 100 47.5 163.5t141.5 63.5q43 0 91.5 -18.5t84 -41t76.5 -41t71 -18.5
q44 0 67 28.5t23 80.5v10h107v-39q0 -113 -46 -170t-145 -57z" />
    <glyph glyph-name="Adieresis" unicode="&#xc4;" horiz-adv-x="1347" 
d="M229 0l144 416h600l147 -416h174l-520 1405h-211l-502 -1405h168zM668 1274l88 -248l168 -473h-504l162 471zM393 1591v181h160v-181h-160zM780 1591v181h158v-181h-158z" />
    <glyph glyph-name="Aring" unicode="&#xc5;" horiz-adv-x="1347" 
d="M229 0l144 416h600l147 -416h174l-520 1405h-211l-502 -1405h168zM909 1784q0 -99 -71 -170.5t-170 -71.5t-170.5 71.5t-71.5 170.5q0 102 70.5 171.5t171.5 69.5q100 0 170.5 -69.5t70.5 -171.5zM668 1274l88 -248l168 -473h-504l162 471zM801 1784q0 57 -38 96t-95 39
t-96.5 -39t-39.5 -96t39.5 -96t96.5 -39t95 39t38 96z" />
    <glyph glyph-name="AE" unicode="&#xc6;" horiz-adv-x="2048" 
d="M1849 0h-864v416l-549 -2l-196 -414h-177l670 1405h1106v-143h-680v-461h629v-142h-629v-516h690v-143zM725 1020l-223 -467h483v717h-151z" />
    <glyph glyph-name="Ccedilla" unicode="&#xc7;" horiz-adv-x="1472" 
d="M985 -256q0 -178 -270 -178q-57 0 -90 4v96q49 -6 86 -6q149 0 149 84q0 76 -135 76q-26 0 -57 -2l57 164q-202 12 -343.5 108.5t-210.5 254.5t-69 364q0 334 178 525t500 191q447 0 594 -346l-168 -55q-47 115 -152.5 186.5t-271.5 71.5q-241 0 -371 -153.5t-130 -419.5
q0 -263 137 -423.5t373 -160.5q303 0 452 297l143 -72q-78 -163 -217 -260.5t-342 -107.5l-30 -84q93 -3 140.5 -43t47.5 -111z" />
    <glyph glyph-name="Egrave" unicode="&#xc8;" horiz-adv-x="1222" 
d="M174 0v1405h854v-143h-680v-461h629v-144h-629v-514h690v-143h-864zM549 1573l-287 303v2h203l213 -303v-2h-129z" />
    <glyph glyph-name="Eacute" unicode="&#xc9;" horiz-adv-x="1222" 
d="M174 0v1405h854v-143h-680v-461h629v-144h-629v-514h690v-143h-864zM530 1573v2l211 303h203v-2l-285 -303h-129z" />
    <glyph glyph-name="Ecircumflex" unicode="&#xca;" horiz-adv-x="1222" 
d="M174 0v1405h854v-143h-680v-461h629v-144h-629v-514h690v-143h-864zM918 1573h-140l-178 168h-2l-190 -168h-142v2l232 283h200l220 -283v-2z" />
    <glyph glyph-name="Edieresis" unicode="&#xcb;" horiz-adv-x="1222" 
d="M174 0v1405h854v-143h-680v-461h629v-144h-629v-514h690v-143h-864zM328 1591v181h159v-181h-159zM715 1591v181h157v-181h-157z" />
    <glyph glyph-name="Igrave" unicode="&#xcc;" horiz-adv-x="524" 
d="M174 0v1405h176v-1405h-176zM213 1573l-287 303v2h203l213 -303v-2h-129z" />
    <glyph glyph-name="Iacute" unicode="&#xcd;" horiz-adv-x="524" 
d="M174 0v1405h176v-1405h-176zM207 1573v2l121 303h180v-2l-201 -303h-100z" />
    <glyph glyph-name="Icircumflex" unicode="&#xce;" horiz-adv-x="524" 
d="M174 0v1405h176v-1405h-176zM582 1573h-140l-178 168h-2l-190 -168h-142v2l232 283h200l220 -283v-2z" />
    <glyph glyph-name="Idieresis" unicode="&#xcf;" horiz-adv-x="524" 
d="M174 0v1405h176v-1405h-176zM-8 1591v181h160v-181h-160zM379 1591v181h158v-181h-158z" />
    <glyph glyph-name="Eth" unicode="&#xd0;" horiz-adv-x="1476" 
d="M1374 717q0 -171 -52 -308t-144 -226t-216.5 -136t-271.5 -47h-516v641h-201v113h201v651h461q164 0 297.5 -41.5t233 -124t154 -215.5t54.5 -307zM1198 717q0 141 -41 247t-117.5 171t-178.5 97t-230 32h-283v-510h273v-113h-273v-500h324q237 0 381.5 150t144.5 426z
" />
    <glyph glyph-name="Ntilde" unicode="&#xd1;" horiz-adv-x="1474" 
d="M174 0v1405h205l776 -1221q-12 156 -12 291v930h157v-1405h-213l-765 1214q8 -121 8 -260v-954h-156zM868 1573q-52 0 -113.5 30.5t-115.5 60.5t-90 30q-46 0 -71 -26t-25 -75v-20h-103v39q0 100 47.5 163.5t141.5 63.5q43 0 91.5 -18.5t84 -41t76.5 -41t71 -18.5
q44 0 67 28.5t23 80.5v10h107v-39q0 -113 -46 -170t-145 -57z" />
    <glyph glyph-name="Ograve" unicode="&#xd2;" horiz-adv-x="1587" 
d="M1307 709q0 264 -133.5 418.5t-378.5 154.5q-251 0 -382.5 -153t-131.5 -420q0 -266 133.5 -426t378.5 -160q131 0 230 43t161 122t92.5 185t30.5 236zM1485 709q0 -334 -183.5 -531.5t-508.5 -197.5q-168 0 -300 54t-217 151t-129.5 230t-44.5 294q0 333 181 524.5
t512 191.5q329 0 509.5 -193t180.5 -523zM739 1573l-286 303v2h202l213 -303v-2h-129z" />
    <glyph glyph-name="Oacute" unicode="&#xd3;" horiz-adv-x="1587" 
d="M1307 709q0 264 -133.5 418.5t-378.5 154.5q-251 0 -382.5 -153t-131.5 -420q0 -266 133.5 -426t378.5 -160q131 0 230 43t161 122t92.5 185t30.5 236zM1485 709q0 -334 -183.5 -531.5t-508.5 -197.5q-168 0 -300 54t-217 151t-129.5 230t-44.5 294q0 333 181 524.5
t512 191.5q329 0 509.5 -193t180.5 -523zM721 1573v2l211 303h203v-2l-285 -303h-129z" />
    <glyph glyph-name="Ocircumflex" unicode="&#xd4;" horiz-adv-x="1587" 
d="M1307 709q0 264 -133.5 418.5t-378.5 154.5q-251 0 -382.5 -153t-131.5 -420q0 -266 133.5 -426t378.5 -160q131 0 230 43t161 122t92.5 185t30.5 236zM1485 709q0 -334 -183.5 -531.5t-508.5 -197.5q-168 0 -300 54t-217 151t-129.5 230t-44.5 294q0 333 181 524.5
t512 191.5q329 0 509.5 -193t180.5 -523zM1108 1573h-139l-178 168h-3l-190 -168h-141v2l231 283h201l219 -283v-2z" />
    <glyph glyph-name="Otilde" unicode="&#xd5;" horiz-adv-x="1587" 
d="M1307 709q0 264 -133.5 418.5t-378.5 154.5q-251 0 -382.5 -153t-131.5 -420q0 -266 133.5 -426t378.5 -160q131 0 230 43t161 122t92.5 185t30.5 236zM1485 709q0 -334 -183.5 -531.5t-508.5 -197.5q-168 0 -300 54t-217 151t-129.5 230t-44.5 294q0 333 181 524.5
t512 191.5q329 0 509.5 -193t180.5 -523zM950 1573q-52 0 -113.5 30.5t-115.5 60.5t-90 30q-46 0 -71 -26t-25 -75v-20h-103v39q0 100 47.5 163.5t141.5 63.5q43 0 91.5 -18.5t84 -41t76.5 -41t71 -18.5q44 0 67 28.5t23 80.5v10h107v-39q0 -113 -46 -170t-145 -57z" />
    <glyph glyph-name="Odieresis" unicode="&#xd6;" horiz-adv-x="1587" 
d="M1307 709q0 264 -133.5 418.5t-378.5 154.5q-251 0 -382.5 -153t-131.5 -420q0 -266 133.5 -426t378.5 -160q131 0 230 43t161 122t92.5 185t30.5 236zM1485 709q0 -334 -183.5 -531.5t-508.5 -197.5q-168 0 -300 54t-217 151t-129.5 230t-44.5 294q0 333 181 524.5
t512 191.5q329 0 509.5 -193t180.5 -523zM518 1591v181h160v-181h-160zM905 1591v181h158v-181h-158z" />
    <glyph glyph-name="multiply" unicode="&#xd7;" horiz-adv-x="1218" 
d="M1057 1028l-348 -348l350 -348l-96 -101l-351 353l-356 -355l-96 101l352 352l-350 352l98 96l350 -350l348 348z" />
    <glyph glyph-name="Oslash" unicode="&#xd8;" horiz-adv-x="1587" 
d="M1485 709q0 -334 -183.5 -531.5t-508.5 -197.5q-253 0 -422 118l-101 -118h-170l174 206q-172 193 -172 523q0 333 181 524.5t512 191.5q255 0 426 -120l100 118h166l-172 -204q170 -191 170 -510zM281 709q0 -239 106 -390l729 863q-130 100 -321 100
q-251 0 -382.5 -153t-131.5 -420zM1307 709q0 230 -103 378l-729 -864q124 -100 318 -100q131 0 230 43t161 122t92.5 185t30.5 236z" />
    <glyph glyph-name="Ugrave" unicode="&#xd9;" horiz-adv-x="1419" 
d="M709 -20q-117 0 -213 32t-168.5 95t-113 166t-40.5 237v895h174v-870q0 -202 95 -307t264 -105q176 0 270 103t94 311v868h174v-879q0 -272 -142.5 -409t-393.5 -137zM647 1573l-287 303v2h203l213 -303v-2h-129z" />
    <glyph glyph-name="Uacute" unicode="&#xda;" horiz-adv-x="1419" 
d="M709 -20q-117 0 -213 32t-168.5 95t-113 166t-40.5 237v895h174v-870q0 -202 95 -307t264 -105q176 0 270 103t94 311v868h174v-879q0 -272 -142.5 -409t-393.5 -137zM629 1573v2l211 303h202v-2l-284 -303h-129z" />
    <glyph glyph-name="Ucircumflex" unicode="&#xdb;" horiz-adv-x="1419" 
d="M709 -20q-117 0 -213 32t-168.5 95t-113 166t-40.5 237v895h174v-870q0 -202 95 -307t264 -105q176 0 270 103t94 311v868h174v-879q0 -272 -142.5 -409t-393.5 -137zM1016 1573h-139l-179 168h-2l-190 -168h-141v2l231 283h201l219 -283v-2z" />
    <glyph glyph-name="Udieresis" unicode="&#xdc;" horiz-adv-x="1419" 
d="M709 -20q-117 0 -213 32t-168.5 95t-113 166t-40.5 237v895h174v-870q0 -202 95 -307t264 -105q176 0 270 103t94 311v868h174v-879q0 -272 -142.5 -409t-393.5 -137zM426 1591v181h160v-181h-160zM813 1591v181h158v-181h-158z" />
    <glyph glyph-name="Yacute" unicode="&#xdd;" horiz-adv-x="1214" 
d="M692 582v-582h-174v582l-487 823h192l385 -680l383 680h193zM530 1573v2l211 303h203v-2l-285 -303h-129z" />
    <glyph glyph-name="Thorn" unicode="&#xde;" horiz-adv-x="1366" 
d="M1149 731q0 -90 -29.5 -167.5t-87 -137.5t-151 -94.5t-213.5 -34.5h-320v-297h-174v1407h174v-250h309q242 0 367 -115t125 -311zM973 731q0 139 -85.5 211t-254.5 72h-285v-576h293q171 0 251.5 77t80.5 216z" />
    <glyph glyph-name="germandbls" unicode="&#xdf;" horiz-adv-x="1280" 
d="M1178 350q0 -370 -439 -370q-107 0 -204 20v150q132 -25 200 -25q146 0 208.5 59t62.5 174q0 52 -20 92t-52.5 65.5t-71 48t-77.5 45.5t-71.5 51t-52.5 73t-20 103q0 48 16.5 86.5t41 63t53 52t53 53t41 67t16.5 93.5q0 89 -64 151t-186 62q-280 0 -280 -307v-1157h-168
v1147q0 232 117.5 345.5t334.5 113.5q102 0 184 -32t132 -84t76 -113.5t26 -125.5t-16.5 -116.5t-41.5 -85t-54.5 -62t-54.5 -49t-41.5 -45t-16.5 -51.5q0 -33 20.5 -60.5t53 -48.5t71.5 -43t78.5 -51.5t72 -66t53 -93.5t20.5 -129z" />
    <glyph glyph-name="agrave" unicode="&#xe0;" horiz-adv-x="1193" 
d="M1133 113v-127q-59 -6 -140 -6t-128.5 45.5t-47.5 128.5v53q-72 -227 -352 -227q-166 0 -254 92.5t-88 230.5q0 185 121 265.5t364 80.5h203v88q0 234 -238 234q-106 0 -163 -41.5t-74 -138.5l-164 18q49 289 410 289q190 0 290.5 -93.5t100.5 -273.5v-545
q0 -41 14.5 -57t48.5 -16h97zM504 102q87 0 150 31t95.5 84.5t47 112t14.5 127.5v78h-205q-74 0 -129.5 -11t-99.5 -35.5t-67 -68.5t-23 -107q0 -93 55.5 -152t161.5 -59zM516 1198l-313 303v2h229l227 -303v-2h-143z" />
    <glyph glyph-name="aacute" unicode="&#xe1;" horiz-adv-x="1193" 
d="M1133 113v-127q-59 -6 -140 -6t-128.5 45.5t-47.5 128.5v53q-72 -227 -352 -227q-166 0 -254 92.5t-88 230.5q0 185 121 265.5t364 80.5h203v88q0 234 -238 234q-106 0 -163 -41.5t-74 -138.5l-164 18q49 289 410 289q190 0 290.5 -93.5t100.5 -273.5v-545
q0 -41 14.5 -57t48.5 -16h97zM504 102q87 0 150 31t95.5 84.5t47 112t14.5 127.5v78h-205q-74 0 -129.5 -11t-99.5 -35.5t-67 -68.5t-23 -107q0 -93 55.5 -152t161.5 -59zM500 1198v2l225 303h229v-2l-311 -303h-143z" />
    <glyph glyph-name="acircumflex" unicode="&#xe2;" horiz-adv-x="1193" 
d="M1133 113v-127q-59 -6 -140 -6t-128.5 45.5t-47.5 128.5v53q-72 -227 -352 -227q-166 0 -254 92.5t-88 230.5q0 185 121 265.5t364 80.5h203v88q0 234 -238 234q-106 0 -163 -41.5t-74 -138.5l-164 18q49 289 410 289q190 0 290.5 -93.5t100.5 -273.5v-545
q0 -41 14.5 -57t48.5 -16h97zM504 102q87 0 150 31t95.5 84.5t47 112t14.5 127.5v78h-205q-74 0 -129.5 -11t-99.5 -35.5t-67 -68.5t-23 -107q0 -93 55.5 -152t161.5 -59zM903 1200v-2h-155l-179 168h-2l-190 -168h-160v2l250 283h201z" />
    <glyph glyph-name="atilde" unicode="&#xe3;" horiz-adv-x="1193" 
d="M1133 113v-127q-59 -6 -140 -6t-128.5 45.5t-47.5 128.5v53q-72 -227 -352 -227q-166 0 -254 92.5t-88 230.5q0 185 121 265.5t364 80.5h203v88q0 234 -238 234q-106 0 -163 -41.5t-74 -138.5l-164 18q49 289 410 289q190 0 290.5 -93.5t100.5 -273.5v-545
q0 -41 14.5 -57t48.5 -16h97zM504 102q87 0 150 31t95.5 84.5t47 112t14.5 127.5v78h-205q-74 0 -129.5 -11t-99.5 -35.5t-67 -68.5t-23 -107q0 -93 55.5 -152t161.5 -59zM735 1198q-41 0 -89 19t-83.5 41.5t-76.5 41.5t-70 19q-46 0 -71.5 -25.5t-25.5 -74.5v-21h-102v39
q0 100 47.5 163.5t141.5 63.5q54 0 115.5 -29.5t116.5 -59t91 -29.5q44 0 67 28t23 80v10h107v-39q0 -113 -46 -170t-145 -57z" />
    <glyph glyph-name="adieresis" unicode="&#xe4;" horiz-adv-x="1193" 
d="M1133 113v-127q-59 -6 -140 -6t-128.5 45.5t-47.5 128.5v53q-72 -227 -352 -227q-166 0 -254 92.5t-88 230.5q0 185 121 265.5t364 80.5h203v88q0 234 -238 234q-106 0 -163 -41.5t-74 -138.5l-164 18q49 289 410 289q190 0 290.5 -93.5t100.5 -273.5v-545
q0 -41 14.5 -57t48.5 -16h97zM504 102q87 0 150 31t95.5 84.5t47 112t14.5 127.5v78h-205q-74 0 -129.5 -11t-99.5 -35.5t-67 -68.5t-23 -107q0 -93 55.5 -152t161.5 -59zM279 1217v180h159v-180h-159zM707 1217v180h157v-180h-157z" />
    <glyph glyph-name="aring" unicode="&#xe5;" horiz-adv-x="1193" 
d="M813 1296q0 -65 -33 -120.5t-88 -88.5q137 -25 209 -115t72 -241v-545q0 -41 14.5 -57t48.5 -16h97v-127q-59 -6 -140 -6t-128.5 45.5t-47.5 128.5v53q-72 -227 -352 -227q-166 0 -254 92.5t-88 230.5q0 185 121 265.5t364 80.5h203v88q0 234 -238 234q-106 0 -163 -41.5
t-74 -138.5l-164 18q40 230 281 276q-56 33 -89.5 89.5t-33.5 121.5q0 102 70.5 172t170.5 70t171 -70t71 -172zM504 102q87 0 150 31t95.5 84.5t47 112t14.5 127.5v78h-205q-74 0 -129.5 -11t-99.5 -35.5t-67 -68.5t-23 -107q0 -93 55.5 -152t161.5 -59zM705 1296
q0 57 -38.5 96.5t-95.5 39.5t-96 -39.5t-39 -96.5t39 -96t96 -39t95.5 39t38.5 96z" />
    <glyph glyph-name="ae" unicode="&#xe6;" horiz-adv-x="1796" 
d="M463 -20q-95 0 -168 26t-116.5 71.5t-65 102.5t-21.5 123q0 183 121.5 259.5t364.5 76.5h202v98q0 234 -237 234q-106 0 -163.5 -41.5t-74.5 -138.5l-164 18q49 289 410 289q239 0 330 -146q126 146 354 146q104 0 183.5 -27t129 -72.5t80.5 -113t43 -140.5t12 -163
q0 -24 -4 -70h-737v-2q0 -90 16.5 -161.5t51 -127.5t93.5 -86.5t140 -30.5q121 0 181 42t92 128l141 -41q-21 -53 -47.5 -92t-73 -78.5t-122 -61t-175.5 -21.5q-130 0 -232 53.5t-159 169.5q-107 -223 -385 -223zM473 102q88 0 150 27.5t95.5 78.5t47.5 111.5t14 137.5v55
h-205q-61 0 -105 -4.5t-85.5 -17t-67 -34.5t-40.5 -58t-15 -87q0 -93 53 -151t158 -58zM1235 975q-278 0 -293 -336h567v14q0 167 -67.5 244.5t-206.5 77.5z" />
    <glyph glyph-name="ccedilla" unicode="&#xe7;" horiz-adv-x="1079" 
d="M739 -256q0 -178 -270 -178q-57 0 -90 4v96q49 -6 86 -6q149 0 149 84q0 76 -135 76q-26 0 -57 -2l59 168q-100 13 -174.5 60t-118.5 122t-65 168.5t-21 206.5q0 124 26 221t69 159t103.5 102t125 56.5t137.5 16.5q174 0 277 -88t131 -232l-170 -10q-15 95 -76 147
t-166 52q-152 0 -217.5 -101t-65.5 -319q0 -100 14.5 -176.5t47 -136t88.5 -90.5t135 -31q103 0 168 56t82 163l166 -13q-21 -140 -121.5 -236.5t-273.5 -102.5l-31 -82q93 -3 140.5 -43t47.5 -111z" />
    <glyph glyph-name="egrave" unicode="&#xe8;" horiz-adv-x="1132" 
d="M575 -20q-236 0 -354.5 143.5t-118.5 423.5q0 143 35 250.5t99.5 172.5t148 96.5t186.5 31.5q104 0 183.5 -27t129.5 -72.5t81 -113t43 -140.5t12 -163q0 -30 -4 -76h-737v-2q0 -186 72 -293t229 -107q121 0 180.5 42t91.5 128l141 -41q-21 -53 -47.5 -92t-73 -78.5
t-122 -61t-175.5 -21.5zM571 975q-45 0 -84 -9.5t-76.5 -34t-65 -62t-45.5 -98t-21 -138.5h567v14q0 168 -68 248t-207 80zM522 1198l-313 303v2h229l228 -303v-2h-144z" />
    <glyph glyph-name="eacute" unicode="&#xe9;" horiz-adv-x="1132" 
d="M575 -20q-236 0 -354.5 143.5t-118.5 423.5q0 143 35 250.5t99.5 172.5t148 96.5t186.5 31.5q104 0 183.5 -27t129.5 -72.5t81 -113t43 -140.5t12 -163q0 -30 -4 -76h-737v-2q0 -186 72 -293t229 -107q121 0 180.5 42t91.5 128l141 -41q-21 -53 -47.5 -92t-73 -78.5
t-122 -61t-175.5 -21.5zM571 975q-45 0 -84 -9.5t-76.5 -34t-65 -62t-45.5 -98t-21 -138.5h567v14q0 168 -68 248t-207 80zM506 1198v2l225 303h230v-2l-312 -303h-143z" />
    <glyph glyph-name="ecircumflex" unicode="&#xea;" horiz-adv-x="1132" 
d="M575 -20q-236 0 -354.5 143.5t-118.5 423.5q0 143 35 250.5t99.5 172.5t148 96.5t186.5 31.5q104 0 183.5 -27t129.5 -72.5t81 -113t43 -140.5t12 -163q0 -30 -4 -76h-737v-2q0 -186 72 -293t229 -107q121 0 180.5 42t91.5 128l141 -41q-21 -53 -47.5 -92t-73 -78.5
t-122 -61t-175.5 -21.5zM571 975q-45 0 -84 -9.5t-76.5 -34t-65 -62t-45.5 -98t-21 -138.5h567v14q0 168 -68 248t-207 80zM909 1200v-2h-155l-179 168h-2l-190 -168h-160v2l250 283h201z" />
    <glyph glyph-name="edieresis" unicode="&#xeb;" horiz-adv-x="1132" 
d="M575 -20q-236 0 -354.5 143.5t-118.5 423.5q0 143 35 250.5t99.5 172.5t148 96.5t186.5 31.5q104 0 183.5 -27t129.5 -72.5t81 -113t43 -140.5t12 -163q0 -30 -4 -76h-737v-2q0 -186 72 -293t229 -107q121 0 180.5 42t91.5 128l141 -41q-21 -53 -47.5 -92t-73 -78.5
t-122 -61t-175.5 -21.5zM571 975q-45 0 -84 -9.5t-76.5 -34t-65 -62t-45.5 -98t-21 -138.5h567v14q0 168 -68 248t-207 80zM285 1217v180h159v-180h-159zM713 1217v180h157v-180h-157z" />
    <glyph glyph-name="igrave" unicode="&#xec;" horiz-adv-x="505" 
d="M170 0v1077h166v-1077h-166zM201 1198l-314 303v2h230l227 -303v-2h-143z" />
    <glyph glyph-name="iacute" unicode="&#xed;" horiz-adv-x="505" 
d="M170 0v1077h166v-1077h-166zM195 1198v2l129 303h196v-2l-217 -303h-108z" />
    <glyph glyph-name="icircumflex" unicode="&#xee;" horiz-adv-x="505" 
d="M170 0v1077h166v-1077h-166zM588 1200v-2h-156l-178 168h-2l-191 -168h-159v2l250 283h200z" />
    <glyph glyph-name="idieresis" unicode="&#xef;" horiz-adv-x="505" 
d="M170 0v1077h166v-1077h-166zM-37 1217v180h160v-180h-160zM391 1217v180h158v-180h-158z" />
    <glyph glyph-name="eth" unicode="&#xf0;" horiz-adv-x="1161" 
d="M270 1235v115l209 88q-86 67 -231 153v2h209q93 -49 157 -98l318 135v-110l-230 -99q167 -159 262 -386t95 -496q0 -123 -27 -222.5t-82.5 -176t-150 -118.5t-221.5 -42q-123 0 -215 41t-148.5 116.5t-84.5 176.5t-28 227q0 124 25.5 222t80 175t150 118.5t226.5 41.5
t215 -43q-76 167 -230 309zM580 102q157 0 231 108t74 333q0 219 -73 325.5t-230 106.5q-163 0 -234.5 -105.5t-71.5 -326.5q0 -213 77.5 -327t226.5 -114z" />
    <glyph glyph-name="ntilde" unicode="&#xf1;" 
d="M860 0v690q0 158 -52.5 219.5t-178.5 61.5q-133 0 -211 -91.5t-78 -256.5v-623h-166v846l-4 231h154q0 -23 2 -95.5t2 -115.5q38 114 121.5 173t226.5 59q178 0 264 -89.5t86 -287.5v-721h-166zM795 1198q-41 0 -89 19t-84 41.5t-77 41.5t-70 19q-46 0 -71 -25.5
t-25 -74.5v-21h-103v39q0 100 47.5 163.5t141.5 63.5q54 0 115.5 -29.5t116.5 -59t91 -29.5q44 0 67.5 28.5t23.5 79.5v10h106v-39q0 -113 -45.5 -170t-144.5 -57z" />
    <glyph glyph-name="ograve" unicode="&#xf2;" horiz-adv-x="1161" 
d="M885 551q0 227 -76 325.5t-227 98.5q-149 0 -227.5 -97t-78.5 -327q0 -120 24 -209.5t67 -140.5t96 -75t117 -24q148 0 226.5 104.5t78.5 344.5zM1059 543q0 -283 -127 -423t-361 -140q-217 0 -343 141t-126 426q0 275 125 413t357 138q475 0 475 -555zM520 1198
l-313 303v2h229l228 -303v-2h-144z" />
    <glyph glyph-name="oacute" unicode="&#xf3;" horiz-adv-x="1161" 
d="M885 551q0 227 -76 325.5t-227 98.5q-149 0 -227.5 -97t-78.5 -327q0 -120 24 -209.5t67 -140.5t96 -75t117 -24q148 0 226.5 104.5t78.5 344.5zM1059 543q0 -283 -127 -423t-361 -140q-217 0 -343 141t-126 426q0 275 125 413t357 138q475 0 475 -555zM504 1198v2
l225 303h229v-2l-311 -303h-143z" />
    <glyph glyph-name="ocircumflex" unicode="&#xf4;" horiz-adv-x="1161" 
d="M885 551q0 227 -76 325.5t-227 98.5q-149 0 -227.5 -97t-78.5 -327q0 -120 24 -209.5t67 -140.5t96 -75t117 -24q148 0 226.5 104.5t78.5 344.5zM1059 543q0 -283 -127 -423t-361 -140q-217 0 -343 141t-126 426q0 275 125 413t357 138q475 0 475 -555zM907 1200v-2h-155
l-179 168h-2l-190 -168h-160v2l250 283h201z" />
    <glyph glyph-name="otilde" unicode="&#xf5;" horiz-adv-x="1161" 
d="M885 551q0 227 -76 325.5t-227 98.5q-149 0 -227.5 -97t-78.5 -327q0 -120 24 -209.5t67 -140.5t96 -75t117 -24q148 0 226.5 104.5t78.5 344.5zM1059 543q0 -283 -127 -423t-361 -140q-217 0 -343 141t-126 426q0 275 125 413t357 138q475 0 475 -555zM739 1198
q-41 0 -89 19t-83.5 41.5t-76.5 41.5t-70 19q-46 0 -71 -25.5t-25 -74.5v-21h-103v39q0 100 47.5 163.5t141.5 63.5q54 0 115.5 -29.5t116.5 -59t91 -29.5q44 0 67 28t23 80v10h107v-39q0 -113 -46 -170t-145 -57z" />
    <glyph glyph-name="odieresis" unicode="&#xf6;" horiz-adv-x="1161" 
d="M885 551q0 227 -76 325.5t-227 98.5q-149 0 -227.5 -97t-78.5 -327q0 -120 24 -209.5t67 -140.5t96 -75t117 -24q148 0 226.5 104.5t78.5 344.5zM1059 543q0 -283 -127 -423t-361 -140q-217 0 -343 141t-126 426q0 275 125 413t357 138q475 0 475 -555zM283 1217v180h159
v-180h-159zM711 1217v180h157v-180h-157z" />
    <glyph glyph-name="divide" unicode="&#xf7;" horiz-adv-x="1134" 
d="M485 227v179h162v-179h-162zM74 610v138h989v-138h-989zM485 956v177h162v-177h-162z" />
    <glyph glyph-name="oslash" unicode="&#xf8;" horiz-adv-x="1161" 
d="M1059 543q0 -283 -127 -423t-361 -140q-147 0 -252 63l-43 -63h-170l109 155q-113 144 -113 412q0 275 125 413t357 138q155 0 264 -62l43 62h166l-107 -152q109 -139 109 -403zM276 551q0 -167 43 -268l447 637q-69 55 -184 55q-149 0 -227.5 -97t-78.5 -327zM885 551
q0 158 -37 248l-445 -637q75 -60 177 -60q148 0 226.5 104.5t78.5 344.5z" />
    <glyph glyph-name="ugrave" unicode="&#xf9;" 
d="M330 1077v-688q0 -158 51 -219t178 -61q134 0 212.5 91t78.5 253v624h166v-848q0 -45 4 -229h-158l-10 199q-85 -219 -348 -219q-178 0 -259 88.5t-81 287.5v721h166zM526 1198l-313 303v2h229l228 -303v-2h-144z" />
    <glyph glyph-name="uacute" unicode="&#xfa;" 
d="M330 1077v-688q0 -158 51 -219t178 -61q134 0 212.5 91t78.5 253v624h166v-848q0 -45 4 -229h-158l-10 199q-85 -219 -348 -219q-178 0 -259 88.5t-81 287.5v721h166zM510 1198v2l225 303h230v-2l-312 -303h-143z" />
    <glyph glyph-name="ucircumflex" unicode="&#xfb;" 
d="M330 1077v-688q0 -158 51 -219t178 -61q134 0 212.5 91t78.5 253v624h166v-848q0 -45 4 -229h-158l-10 199q-85 -219 -348 -219q-178 0 -259 88.5t-81 287.5v721h166zM913 1200v-2h-155l-178 168h-2l-191 -168h-160v2l250 283h201z" />
    <glyph glyph-name="udieresis" unicode="&#xfc;" 
d="M330 1077v-688q0 -158 51 -219t178 -61q134 0 212.5 91t78.5 253v624h166v-848q0 -45 4 -229h-158l-10 199q-85 -219 -348 -219q-178 0 -259 88.5t-81 287.5v721h166zM289 1217v180h160v-180h-160zM717 1217v180h157v-180h-157z" />
    <glyph glyph-name="yacute" unicode="&#xfd;" horiz-adv-x="1036" 
d="M180 -487q-68 0 -104 6v131h104q75 0 117.5 37t69.5 108l77 207l-424 1075h179l231 -606l100 -276q46 116 101 274l211 608h174l-486 -1284q-13 -34 -22 -55.5t-26 -54t-34.5 -53.5t-44.5 -45.5t-58 -38.5t-73.5 -23.5t-91.5 -9.5zM455 1198v2l225 303h229v-2l-311 -303
h-143z" />
    <glyph glyph-name="thorn" unicode="&#xfe;" horiz-adv-x="1177" 
d="M1075 545q0 -130 -20.5 -230t-66 -177t-123.5 -117.5t-187 -40.5q-257 0 -340 202h-6l4 -157v-500h-166v2068h164v-702h4q41 107 124.5 157t215.5 50q211 0 304 -142.5t93 -410.5zM903 543q0 217 -61.5 322.5t-206.5 105.5q-53 0 -95 -11t-81.5 -41t-65.5 -78.5
t-41.5 -127t-15.5 -183.5q0 -229 74.5 -328.5t222.5 -99.5q147 0 208.5 108.5t61.5 332.5z" />
    <glyph glyph-name="ydieresis" unicode="&#xff;" horiz-adv-x="1036" 
d="M180 -487q-68 0 -104 6v131h104q75 0 117.5 37t69.5 108l77 207l-424 1075h179l231 -606l100 -276q46 116 101 274l211 608h174l-486 -1284q-13 -34 -22 -55.5t-26 -54t-34.5 -53.5t-44.5 -45.5t-58 -38.5t-73.5 -23.5t-91.5 -9.5zM233 1217v180h160v-180h-160zM662 1217
v180h157v-180h-157z" />
    <glyph glyph-name="Amacron" unicode="&#x100;" horiz-adv-x="1347" 
d="M229 0l144 416h600l147 -416h174l-520 1405h-211l-502 -1405h168zM668 1274l88 -248l168 -473h-504l162 471zM1163 1690h-997v108h997v-108z" />
    <glyph glyph-name="amacron" unicode="&#x101;" horiz-adv-x="1193" 
d="M1133 113v-127q-59 -6 -140 -6t-128.5 45.5t-47.5 128.5v53q-72 -227 -352 -227q-166 0 -254 92.5t-88 230.5q0 185 121 265.5t364 80.5h203v88q0 234 -238 234q-106 0 -163 -41.5t-74 -138.5l-164 18q49 289 410 289q190 0 290.5 -93.5t100.5 -273.5v-545
q0 -41 14.5 -57t48.5 -16h97zM504 102q87 0 150 31t95.5 84.5t47 112t14.5 127.5v78h-205q-74 0 -129.5 -11t-99.5 -35.5t-67 -68.5t-23 -107q0 -93 55.5 -152t161.5 -59zM1004 1264h-852v112h852v-112z" />
    <glyph glyph-name="Abreve" unicode="&#x102;" horiz-adv-x="1347" 
d="M229 0l144 416h600l147 -416h174l-520 1405h-211l-502 -1405h168zM668 1274l88 -248l168 -473h-504l162 471zM670 1575q-145 0 -237.5 91.5t-94.5 217.5h125q17 -83 68.5 -117t140.5 -34t139.5 34.5t67.5 116.5h125q0 -121 -94.5 -215t-239.5 -94z" />
    <glyph glyph-name="abreve" unicode="&#x103;" horiz-adv-x="1193" 
d="M1133 113v-127q-59 -6 -140 -6t-128.5 45.5t-47.5 128.5v53q-72 -227 -352 -227q-166 0 -254 92.5t-88 230.5q0 185 121 265.5t364 80.5h203v88q0 234 -238 234q-106 0 -163 -41.5t-74 -138.5l-164 18q49 289 410 289q190 0 290.5 -93.5t100.5 -273.5v-545
q0 -41 14.5 -57t48.5 -16h97zM504 102q87 0 150 31t95.5 84.5t47 112t14.5 127.5v78h-205q-74 0 -129.5 -11t-99.5 -35.5t-67 -68.5t-23 -107q0 -93 55.5 -152t161.5 -59zM571 1200q-154 0 -242.5 85.5t-88.5 223.5h125q0 -93 59 -142.5t149 -49.5t148.5 49.5t58.5 142.5
h125q0 -137 -90 -223t-244 -86z" />
    <glyph glyph-name="Aogonek" unicode="&#x104;" horiz-adv-x="1347" 
d="M373 416l-144 -416h-168l502 1405h211l520 -1405h-174l-147 416h-600zM756 1026l-88 248l-86 -250l-162 -471h504zM1217 -426q-103 0 -157 49t-54 137q0 82 51 147.5t104 92.5h133q-58 -31 -102.5 -93.5t-44.5 -133.5q0 -42 25 -66t69 -24q48 0 115 24v-106
q-66 -27 -139 -27z" />
    <glyph glyph-name="aogonek" unicode="&#x105;" horiz-adv-x="1193" 
d="M1065 -426q-103 0 -157 49t-54 137q0 68 37 126.5t86 93.5q-74 5 -117 50t-43 124v53q-72 -227 -352 -227q-166 0 -254 92.5t-88 230.5q0 185 121 265.5t364 80.5h203v88q0 234 -238 234q-106 0 -163 -41.5t-74 -138.5l-164 18q49 289 410 289q190 0 290.5 -93.5
t100.5 -273.5v-545q0 -41 14.5 -57t48.5 -16h97v-113h10l-10 -6v-8q-13 0 -19 -2q-50 -35 -84.5 -91.5t-34.5 -119.5q0 -41 25.5 -65.5t69.5 -24.5q47 0 114 24v-106q-66 -27 -139 -27zM504 102q87 0 150 31t95.5 84.5t47 112t14.5 127.5v78h-205q-74 0 -129.5 -11
t-99.5 -35.5t-67 -68.5t-23 -107q0 -93 55.5 -152t161.5 -59z" />
    <glyph glyph-name="Cacute" unicode="&#x106;" horiz-adv-x="1472" 
d="M782 -20q-166 0 -296 54t-213.5 151t-127 230t-43.5 294q0 334 178 525t500 191q447 0 594 -346l-168 -55q-47 115 -152.5 186.5t-271.5 71.5q-241 0 -371 -153.5t-130 -419.5q0 -263 137 -423.5t373 -160.5q303 0 452 297l143 -72q-81 -171 -232 -270.5t-372 -99.5z
M707 1573v2l211 303h202v-2l-284 -303h-129z" />
    <glyph glyph-name="cacute" unicode="&#x107;" horiz-adv-x="1079" 
d="M565 -20q-123 0 -214 42.5t-144.5 120t-79 177t-25.5 223.5t26 221t69 159t103.5 102t125 56.5t137.5 16.5q174 0 277 -88t131 -232l-170 -10q-15 95 -76 147t-166 52q-152 0 -217.5 -101t-65.5 -319q0 -100 14.5 -176.5t47 -136t88.5 -90.5t135 -31q103 0 168 56t82 163
l166 -13q-21 -143 -126.5 -241t-285.5 -98zM481 1198v2l226 303h229v-2l-311 -303h-144z" />
    <glyph glyph-name="Ccircumflex" unicode="&#x108;" horiz-adv-x="1472" 
d="M782 -20q-166 0 -296 54t-213.5 151t-127 230t-43.5 294q0 334 178 525t500 191q447 0 594 -346l-168 -55q-47 115 -152.5 186.5t-271.5 71.5q-241 0 -371 -153.5t-130 -419.5q0 -263 137 -423.5t373 -160.5q303 0 452 297l143 -72q-81 -171 -232 -270.5t-372 -99.5z
M1094 1573h-140l-178 168h-2l-190 -168h-142v2l232 283h200l220 -283v-2z" />
    <glyph glyph-name="ccircumflex" unicode="&#x109;" horiz-adv-x="1079" 
d="M565 -20q-123 0 -214 42.5t-144.5 120t-79 177t-25.5 223.5t26 221t69 159t103.5 102t125 56.5t137.5 16.5q174 0 277 -88t131 -232l-170 -10q-15 95 -76 147t-166 52q-152 0 -217.5 -101t-65.5 -319q0 -100 14.5 -176.5t47 -136t88.5 -90.5t135 -31q103 0 168 56t82 163
l166 -13q-21 -143 -126.5 -241t-285.5 -98zM885 1200v-2h-156l-178 168h-2l-191 -168h-159v2l250 283h200z" />
    <glyph glyph-name="Cdotaccent" unicode="&#x10a;" horiz-adv-x="1472" 
d="M782 -20q-166 0 -296 54t-213.5 151t-127 230t-43.5 294q0 334 178 525t500 191q447 0 594 -346l-168 -55q-47 115 -152.5 186.5t-271.5 71.5q-241 0 -371 -153.5t-130 -419.5q0 -263 137 -423.5t373 -160.5q303 0 452 297l143 -72q-81 -171 -232 -270.5t-372 -99.5z
M684 1579v172h180v-172h-180z" />
    <glyph glyph-name="cdotaccent" unicode="&#x10b;" horiz-adv-x="1079" 
d="M565 -20q-123 0 -214 42.5t-144.5 120t-79 177t-25.5 223.5t26 221t69 159t103.5 102t125 56.5t137.5 16.5q174 0 277 -88t131 -232l-170 -10q-15 95 -76 147t-166 52q-152 0 -217.5 -101t-65.5 -319q0 -100 14.5 -176.5t47 -136t88.5 -90.5t135 -31q103 0 168 56t82 163
l166 -13q-21 -143 -126.5 -241t-285.5 -98zM473 1257v183h180v-183h-180z" />
    <glyph glyph-name="Ccaron" unicode="&#x10c;" horiz-adv-x="1472" 
d="M782 -20q-166 0 -296 54t-213.5 151t-127 230t-43.5 294q0 334 178 525t500 191q447 0 594 -346l-168 -55q-47 115 -152.5 186.5t-271.5 71.5q-241 0 -371 -153.5t-130 -419.5q0 -263 137 -423.5t373 -160.5q303 0 452 297l143 -72q-81 -171 -232 -270.5t-372 -99.5z
M874 1575h-200l-232 283v2h142l190 -168h2l178 168h140v-2z" />
    <glyph glyph-name="ccaron" unicode="&#x10d;" horiz-adv-x="1079" 
d="M565 -20q-123 0 -214 42.5t-144.5 120t-79 177t-25.5 223.5t26 221t69 159t103.5 102t125 56.5t137.5 16.5q174 0 277 -88t131 -232l-170 -10q-15 95 -76 147t-166 52q-152 0 -217.5 -101t-65.5 -319q0 -100 14.5 -176.5t47 -136t88.5 -90.5t135 -31q103 0 168 56t82 163
l166 -13q-21 -143 -126.5 -241t-285.5 -98zM885 1483l-236 -283h-200l-248 283v2h157l191 -168h2l178 168h156v-2z" />
    <glyph glyph-name="Dcaron" unicode="&#x10e;" horiz-adv-x="1476" 
d="M1198 717q0 141 -41 247t-117.5 171t-178.5 97t-230 32h-283v-1123h324q237 0 381.5 150t144.5 426zM1374 717q0 -171 -52 -308t-144 -226t-216.5 -136t-271.5 -47h-516v1405h461q164 0 297.5 -41.5t233 -124t154 -215.5t54.5 -307zM737 1575h-200l-232 283v2h141
l191 -168h2l178 168h139v-2z" />
    <glyph glyph-name="dcaron" unicode="&#x10f;" horiz-adv-x="1185" 
d="M500 -20q-202 0 -300 137t-98 420q0 561 412 561q114 0 204 -53.5t126 -151.5q-2 55 -2 156v544h166v-1372q0 -73 8 -221h-164q-6 135 -6 205q-36 -110 -118 -167.5t-228 -57.5zM543 109q145 0 222 105.5t77 340.5q0 223 -75 321.5t-222 98.5q-271 0 -271 -432
q0 -222 64.5 -328t204.5 -106zM1434 1526q0 -85 -20.5 -143t-63.5 -107h-117v2q94 104 94 188h-88v164h195v-104z" />
    <glyph glyph-name="Dcroat" unicode="&#x110;" horiz-adv-x="1476" 
d="M1374 717q0 -171 -52 -308t-144 -226t-216.5 -136t-271.5 -47h-516v641h-201v113h201v651h461q164 0 297.5 -41.5t233 -124t154 -215.5t54.5 -307zM1198 717q0 141 -41 247t-117.5 171t-178.5 97t-230 32h-283v-510h273v-113h-273v-500h324q237 0 381.5 150t144.5 426z
" />
    <glyph glyph-name="dcroat" unicode="&#x111;" horiz-adv-x="1177" 
d="M528 1303v112h314v178h166v-178h168v-112h-168v-1082q0 -73 8 -221h-164q-6 135 -6 205q-36 -110 -118 -167.5t-228 -57.5q-202 0 -300 137t-98 420q0 561 412 561q114 0 204 -53.5t126 -151.5q-2 55 -2 156v254h-314zM543 109q145 0 222 105.5t77 340.5q0 223 -75 321.5
t-222 98.5q-271 0 -271 -432q0 -222 64.5 -328t204.5 -106z" />
    <glyph glyph-name="Emacron" unicode="&#x112;" horiz-adv-x="1222" 
d="M174 0v1405h854v-143h-680v-461h629v-144h-629v-514h690v-143h-864zM1098 1690h-998v108h998v-108z" />
    <glyph glyph-name="emacron" unicode="&#x113;" horiz-adv-x="1132" 
d="M575 -20q-236 0 -354.5 143.5t-118.5 423.5q0 143 35 250.5t99.5 172.5t148 96.5t186.5 31.5q104 0 183.5 -27t129.5 -72.5t81 -113t43 -140.5t12 -163q0 -30 -4 -76h-737v-2q0 -186 72 -293t229 -107q121 0 180.5 42t91.5 128l141 -41q-21 -53 -47.5 -92t-73 -78.5
t-122 -61t-175.5 -21.5zM571 975q-45 0 -84 -9.5t-76.5 -34t-65 -62t-45.5 -98t-21 -138.5h567v14q0 168 -68 248t-207 80zM1010 1264h-852v112h852v-112z" />
    <glyph glyph-name="Ebreve" unicode="&#x114;" horiz-adv-x="1222" 
d="M174 0v1405h854v-143h-680v-461h629v-144h-629v-514h690v-143h-864zM604 1575q-145 0 -237.5 91.5t-94.5 217.5h125q17 -83 68.5 -117t140.5 -34t139.5 34.5t67.5 116.5h125q0 -121 -94.5 -215t-239.5 -94z" />
    <glyph glyph-name="ebreve" unicode="&#x115;" horiz-adv-x="1132" 
d="M575 -20q-236 0 -354.5 143.5t-118.5 423.5q0 143 35 250.5t99.5 172.5t148 96.5t186.5 31.5q104 0 183.5 -27t129.5 -72.5t81 -113t43 -140.5t12 -163q0 -30 -4 -76h-737v-2q0 -186 72 -293t229 -107q121 0 180.5 42t91.5 128l141 -41q-21 -53 -47.5 -92t-73 -78.5
t-122 -61t-175.5 -21.5zM571 975q-45 0 -84 -9.5t-76.5 -34t-65 -62t-45.5 -98t-21 -138.5h567v14q0 168 -68 248t-207 80zM578 1200q-154 0 -243 85.5t-89 223.5h125q0 -92 59.5 -142t149.5 -50t148 49.5t58 142.5h125q0 -138 -89.5 -223.5t-243.5 -85.5z" />
    <glyph glyph-name="Edotaccent" unicode="&#x116;" horiz-adv-x="1222" 
d="M174 0v1405h854v-143h-680v-461h629v-144h-629v-514h690v-143h-864zM508 1579v172h180v-172h-180z" />
    <glyph glyph-name="edotaccent" unicode="&#x117;" horiz-adv-x="1132" 
d="M575 -20q-236 0 -354.5 143.5t-118.5 423.5q0 143 35 250.5t99.5 172.5t148 96.5t186.5 31.5q104 0 183.5 -27t129.5 -72.5t81 -113t43 -140.5t12 -163q0 -30 -4 -76h-737v-2q0 -186 72 -293t229 -107q121 0 180.5 42t91.5 128l141 -41q-21 -53 -47.5 -92t-73 -78.5
t-122 -61t-175.5 -21.5zM571 975q-45 0 -84 -9.5t-76.5 -34t-65 -62t-45.5 -98t-21 -138.5h567v14q0 168 -68 248t-207 80zM498 1257v183h180v-183h-180z" />
    <glyph glyph-name="Eogonek" unicode="&#x118;" horiz-adv-x="1222" 
d="M174 0v1405h854v-143h-680v-461h629v-144h-629v-514h690v-143q-58 -31 -102.5 -93.5t-44.5 -133.5q0 -42 25 -66t69 -24q48 0 115 24v-106q-66 -27 -139 -27q-103 0 -157 49t-54 137q0 82 51 147.5t104 92.5h-731z" />
    <glyph glyph-name="eogonek" unicode="&#x119;" horiz-adv-x="1132" 
d="M750 -369q-103 0 -157 49.5t-54 137.5q0 91 61 162h-25q-236 0 -354.5 143.5t-118.5 423.5q0 143 35 250.5t99.5 172.5t148 96.5t186.5 31.5q104 0 183.5 -27t129.5 -72.5t81 -113t43 -140.5t12 -163q0 -30 -4 -76h-737v-2q0 -186 72 -293t229 -107q121 0 180.5 42
t91.5 128l141 -41q-34 -83 -87 -141.5t-150 -89.5q-76 -76 -76 -172q0 -42 25 -66t69 -24q48 0 115 24v-106q-66 -27 -139 -27zM571 975q-45 0 -84 -9.5t-76.5 -34t-65 -62t-45.5 -98t-21 -138.5h567v14q0 168 -68 248t-207 80z" />
    <glyph glyph-name="Ecaron" unicode="&#x11a;" horiz-adv-x="1222" 
d="M174 0v1405h854v-143h-680v-461h629v-144h-629v-514h690v-143h-864zM698 1575h-200l-232 283v2h142l190 -168h2l178 168h140v-2z" />
    <glyph glyph-name="ecaron" unicode="&#x11b;" horiz-adv-x="1132" 
d="M575 -20q-236 0 -354.5 143.5t-118.5 423.5q0 143 35 250.5t99.5 172.5t148 96.5t186.5 31.5q104 0 183.5 -27t129.5 -72.5t81 -113t43 -140.5t12 -163q0 -30 -4 -76h-737v-2q0 -186 72 -293t229 -107q121 0 180.5 42t91.5 128l141 -41q-21 -53 -47.5 -92t-73 -78.5
t-122 -61t-175.5 -21.5zM571 975q-45 0 -84 -9.5t-76.5 -34t-65 -62t-45.5 -98t-21 -138.5h567v14q0 168 -68 248t-207 80zM909 1483l-235 -283h-201l-248 283v2h158l190 -168h2l179 168h155v-2z" />
    <glyph glyph-name="Gcircumflex" unicode="&#x11c;" horiz-adv-x="1597" 
d="M805 -20q-172 0 -307 54t-221 151.5t-130.5 230.5t-44.5 293q0 335 178 525.5t513 190.5q127 0 226.5 -22.5t170.5 -66.5t119.5 -103t83.5 -139l-170 -47q-37 73 -89.5 122t-140 80t-205.5 31q-250 0 -379.5 -153t-129.5 -418q0 -173 58.5 -304t179 -207.5t290.5 -76.5
q87 0 159.5 12t129 35.5t90.5 43t76 48.5v293h-426v147h587v-487q-104 -102 -262 -167.5t-356 -65.5zM1112 1573h-139l-178 168h-2l-191 -168h-141v2l231 283h201l219 -283v-2z" />
    <glyph glyph-name="gcircumflex" unicode="&#x11d;" horiz-adv-x="1183" 
d="M489 -10q-202 0 -294.5 136t-92.5 413q0 272 97 415.5t309 143.5q134 0 220.5 -59t119.5 -156l8 194h158l-6 -219l2 -895q0 -450 -449 -450q-179 0 -280.5 69.5t-130.5 192.5l165 24q19 -77 82.5 -118t167.5 -41q279 0 279 319l-2 231v23q-44 -103 -132.5 -163
t-220.5 -60zM842 541q0 215 -82.5 322.5t-210.5 107.5q-143 0 -209 -101.5t-66 -328.5q0 -233 64 -329.5t207 -96.5q59 0 111 24.5t94.5 73.5t67 133.5t24.5 194.5zM934 1200v-2h-156l-178 168h-2l-190 -168h-160v2l250 283h200z" />
    <glyph glyph-name="Gbreve" unicode="&#x11e;" horiz-adv-x="1597" 
d="M805 -20q-172 0 -307 54t-221 151.5t-130.5 230.5t-44.5 293q0 335 178 525.5t513 190.5q127 0 226.5 -22.5t170.5 -66.5t119.5 -103t83.5 -139l-170 -47q-37 73 -89.5 122t-140 80t-205.5 31q-250 0 -379.5 -153t-129.5 -418q0 -173 58.5 -304t179 -207.5t290.5 -76.5
q87 0 159.5 12t129 35.5t90.5 43t76 48.5v293h-426v147h587v-487q-104 -102 -262 -167.5t-356 -65.5zM799 1575q-145 0 -237.5 91.5t-94.5 217.5h125q17 -83 68.5 -117t140.5 -34t139.5 34.5t67.5 116.5h125q0 -121 -94.5 -215t-239.5 -94z" />
    <glyph glyph-name="gbreve" unicode="&#x11f;" horiz-adv-x="1183" 
d="M489 -10q-202 0 -294.5 136t-92.5 413q0 272 97 415.5t309 143.5q134 0 220.5 -59t119.5 -156l8 194h158l-6 -219l2 -895q0 -450 -449 -450q-179 0 -280.5 69.5t-130.5 192.5l165 24q19 -77 82.5 -118t167.5 -41q279 0 279 319l-2 231v23q-44 -103 -132.5 -163
t-220.5 -60zM842 541q0 215 -82.5 322.5t-210.5 107.5q-143 0 -209 -101.5t-66 -328.5q0 -233 64 -329.5t207 -96.5q59 0 111 24.5t94.5 73.5t67 133.5t24.5 194.5zM602 1200q-154 0 -243 85.5t-89 223.5h125q0 -92 59.5 -142t149.5 -50t148.5 49.5t58.5 142.5h125
q0 -137 -90 -223t-244 -86z" />
    <glyph glyph-name="Gdotaccent" unicode="&#x120;" horiz-adv-x="1597" 
d="M805 -20q-172 0 -307 54t-221 151.5t-130.5 230.5t-44.5 293q0 335 178 525.5t513 190.5q127 0 226.5 -22.5t170.5 -66.5t119.5 -103t83.5 -139l-170 -47q-37 73 -89.5 122t-140 80t-205.5 31q-250 0 -379.5 -153t-129.5 -418q0 -173 58.5 -304t179 -207.5t290.5 -76.5
q87 0 159.5 12t129 35.5t90.5 43t76 48.5v293h-426v147h587v-487q-104 -102 -262 -167.5t-356 -65.5zM702 1579v172h181v-172h-181z" />
    <glyph glyph-name="gdotaccent" unicode="&#x121;" horiz-adv-x="1183" 
d="M489 -10q-202 0 -294.5 136t-92.5 413q0 272 97 415.5t309 143.5q134 0 220.5 -59t119.5 -156l8 194h158l-6 -219l2 -895q0 -450 -449 -450q-179 0 -280.5 69.5t-130.5 192.5l165 24q19 -77 82.5 -118t167.5 -41q279 0 279 319l-2 231v23q-44 -103 -132.5 -163
t-220.5 -60zM842 541q0 215 -82.5 322.5t-210.5 107.5q-143 0 -209 -101.5t-66 -328.5q0 -233 64 -329.5t207 -96.5q59 0 111 24.5t94.5 73.5t67 133.5t24.5 194.5zM522 1257v183h180v-183h-180z" />
    <glyph glyph-name="Gcommaaccent" unicode="&#x122;" horiz-adv-x="1597" 
d="M805 -20q-172 0 -307 54t-221 151.5t-130.5 230.5t-44.5 293q0 335 178 525.5t513 190.5q127 0 226.5 -22.5t170.5 -66.5t119.5 -103t83.5 -139l-170 -47q-37 73 -89.5 122t-140 80t-205.5 31q-250 0 -379.5 -153t-129.5 -418q0 -173 58.5 -304t179 -207.5t290.5 -76.5
q87 0 159.5 12t129 35.5t90.5 43t76 48.5v293h-426v147h587v-487q-104 -102 -262 -167.5t-356 -65.5zM901 -139q0 -85 -20.5 -143t-63.5 -107h-117v2q95 105 95 188h-88v164h194v-104z" />
    <glyph glyph-name="gcommaaccent" unicode="&#x123;" horiz-adv-x="1183" 
d="M489 -10q-202 0 -294.5 136t-92.5 413q0 272 97 415.5t309 143.5q134 0 220.5 -59t119.5 -156l8 194h158l-6 -219l2 -895q0 -450 -449 -450q-179 0 -280.5 69.5t-130.5 192.5l165 24q19 -77 82.5 -118t167.5 -41q279 0 279 319l-2 231v23q-44 -103 -132.5 -163
t-220.5 -60zM842 541q0 215 -82.5 322.5t-210.5 107.5q-143 0 -209 -101.5t-66 -328.5q0 -233 64 -329.5t207 -96.5q59 0 111 24.5t94.5 73.5t67 133.5t24.5 194.5zM723 1475q0 -85 -20.5 -143t-63.5 -107h-117v2q94 104 94 188h-88v164h195v-104z" />
    <glyph glyph-name="Hcircumflex" unicode="&#x124;" horiz-adv-x="1474" 
d="M1368 0v657h-774v-657h-174v1405h174v-600h774v600h178v-1405h-178zM1042 1573h-139l-178 168h-2l-191 -168h-141v2l232 283h200l219 -283v-2z" />
    <glyph glyph-name="hcircumflex" unicode="&#x125;" horiz-adv-x="1185" 
d="M383 1073q0 -105 -6 -188q84 213 342 213q103 0 174 -29t108.5 -83t52.5 -117.5t15 -147.5v-721h-166v688q0 150 -49 216.5t-180 66.5q-133 0 -212 -90.5t-79 -257.5v-623h-166v1593h166v-520zM950 1653v-2h-155l-179 168h-2l-190 -168h-160v2l250 282h201z" />
    <glyph glyph-name="Hbar" unicode="&#x126;" horiz-adv-x="1474" 
d="M1368 0v657h-774v-657h-174v1051h-447v112h447v242h174v-242h774v242h178v-1405h-178zM594 805h774v246h-774v-246z" />
    <glyph glyph-name="hbar" unicode="&#x127;" horiz-adv-x="1290" 
d="M102 1303v112h232v178h166v-178h250v-112h-250v-230q0 -105 -6 -188q84 213 342 213q103 0 174 -29t108.5 -83t52.5 -117.5t15 -147.5v-721h-166v688q0 150 -49 216.5t-180 66.5q-133 0 -212 -90.5t-79 -257.5v-623h-166v1303h-232z" />
    <glyph glyph-name="Itilde" unicode="&#x128;" horiz-adv-x="524" 
d="M174 0v1405h176v-1405h-176zM424 1573q-41 0 -89 19t-84 41.5t-77 41.5t-70 19q-46 0 -71 -26t-25 -75v-20h-102v39q0 100 47 163.5t141 63.5q54 0 116 -30t117 -59.5t91 -29.5q44 0 67 28.5t23 80.5v10h106v-39q0 -113 -45.5 -170t-144.5 -57z" />
    <glyph glyph-name="itilde" unicode="&#x129;" horiz-adv-x="505" 
d="M170 0v1077h166v-1077h-166zM420 1198q-41 0 -89 19t-84 41.5t-77 41.5t-70 19q-46 0 -71 -25.5t-25 -74.5v-21h-102v39q0 100 47 163.5t141 63.5q43 0 91.5 -18.5t84.5 -40.5t77 -40.5t71 -18.5q44 0 67 28t23 80v10h106v-39q0 -113 -45.5 -170t-144.5 -57z" />
    <glyph glyph-name="Imacron" unicode="&#x12a;" horiz-adv-x="524" 
d="M174 0v1405h176v-1405h-176zM762 1690h-998v108h998v-108z" />
    <glyph glyph-name="imacron" unicode="&#x12b;" horiz-adv-x="505" 
d="M170 0v1077h166v-1077h-166zM688 1264h-852v112h852v-112z" />
    <glyph glyph-name="Ibreve" unicode="&#x12c;" horiz-adv-x="524" 
d="M174 0v1405h176v-1405h-176zM268 1575q-145 0 -237 91.5t-94 217.5h124q17 -83 68.5 -117t140.5 -34t139.5 34.5t67.5 116.5h125q0 -121 -94.5 -215t-239.5 -94z" />
    <glyph glyph-name="ibreve" unicode="&#x12d;" horiz-adv-x="505" 
d="M170 0v1077h166v-1077h-166zM256 1200q-154 0 -243 85.5t-89 223.5h125q0 -92 59.5 -142t149.5 -50t148.5 49.5t58.5 142.5h125q0 -137 -90 -223t-244 -86z" />
    <glyph glyph-name="Iogonek" unicode="&#x12e;" horiz-adv-x="524" 
d="M174 0v1405h176v-1405q-58 -31 -102.5 -93.5t-44.5 -133.5q0 -42 25 -66t69 -24q48 0 115 24v-106q-66 -27 -140 -27q-103 0 -157 49t-54 137q0 82 51.5 147.5t104.5 92.5h-43z" />
    <glyph glyph-name="iogonek" unicode="&#x12f;" horiz-adv-x="520" 
d="M178 0v1077h164v-1077q-58 -31 -102.5 -93.5t-44.5 -133.5q0 -42 25 -66t69 -24q47 0 114 24v-106q-66 -27 -139 -27q-103 0 -157 49t-54 137q0 82 51.5 147.5t104.5 92.5h-31zM170 1300v185h180v-185h-180z" />
    <glyph glyph-name="Idotaccent" unicode="&#x130;" horiz-adv-x="524" 
d="M174 0v1405h176v-1405h-176zM172 1579v172h180v-172h-180z" />
    <glyph glyph-name="dotlessi" unicode="&#x131;" horiz-adv-x="505" 
d="M170 0v1077h166v-1077h-166z" />
    <glyph glyph-name="IJ" unicode="&#x132;" horiz-adv-x="1529" 
d="M174 0v1405h176v-1405h-176zM950 -20q-350 0 -418 366l173 29q21 -126 87.5 -189t159.5 -63q109 0 170.5 73.5t61.5 215.5v850h-279v143h453v-989q0 -204 -107.5 -320t-300.5 -116z" />
    <glyph glyph-name="ij" unicode="&#x133;" horiz-adv-x="983" 
d="M588 -483q-80 0 -123 2v141h88q54 0 77 26.5t23 94.5v1296h164v-1294q0 -132 -51 -199t-178 -67zM178 0v1077h164v-1077h-164zM645 1300v185h180v-185h-180zM170 1300v185h180v-185h-180z" />
    <glyph glyph-name="Jcircumflex" unicode="&#x134;" horiz-adv-x="1067" 
d="M485 -20q-349 0 -417 366l172 29q21 -126 87.5 -189t159.5 -63q109 0 170.5 73.5t61.5 215.5v850h-279v143h453v-989q0 -204 -107.5 -320t-300.5 -116zM885 1569h-140l-178 168h-2l-190 -168h-142v2l232 282h201l219 -282v-2z" />
    <glyph glyph-name="jcircumflex" unicode="&#x135;" horiz-adv-x="497" 
d="M96 -483q-80 0 -123 2v145q23 -2 88 -2q54 0 77.5 27.5t23.5 95.5v1292h166v-1294q0 -131 -52.5 -198.5t-179.5 -67.5zM580 1200v-2h-156l-178 168h-2l-191 -168h-159v2l249 283h201z" />
    <glyph glyph-name="Kcommaaccent" unicode="&#x136;" horiz-adv-x="1292" 
d="M1049 0l-510 686l-191 -197v-489h-174v1405h174v-713l627 713h211l-537 -610l613 -795h-213zM711 -139q0 -85 -20.5 -143t-63.5 -107h-117v2q94 104 94 188h-88v164h195v-104z" />
    <glyph glyph-name="kcommaaccent" unicode="&#x137;" horiz-adv-x="1079" 
d="M846 0l-375 498l-135 -115v-383h-166v1593h166v-1050l487 534h195l-440 -467l460 -610h-192zM629 -203q0 -85 -20.5 -143t-63.5 -107h-117v2q94 104 94 189h-88v164h195v-105z" />
    <glyph glyph-name="kgreenlandic" unicode="&#x138;" horiz-adv-x="1062" 
d="M840 0l-375 498l-135 -115v-383h-166v1075h166v-532l487 534h195l-441 -467l461 -610h-192z" />
    <glyph glyph-name="Lacute" unicode="&#x139;" horiz-adv-x="1105" 
d="M174 0v1405h174v-1262h686v-143h-860zM467 1573v2l211 303h203v-2l-285 -303h-129z" />
    <glyph glyph-name="lacute" unicode="&#x13a;" horiz-adv-x="505" 
d="M170 0v1593h166v-1593h-166zM182 1651v2l226 303h229v-2l-311 -303h-144z" />
    <glyph glyph-name="Lcommaaccent" unicode="&#x13b;" horiz-adv-x="1105" 
d="M174 0v1405h174v-1262h686v-143h-860zM684 -139q0 -85 -20.5 -143t-63.5 -107h-117v2q95 105 95 188h-89v164h195v-104z" />
    <glyph glyph-name="lcommaaccent" unicode="&#x13c;" horiz-adv-x="505" 
d="M170 0v1593h166v-1593h-166zM362 -203q0 -85 -20 -143t-63 -107h-117v2q94 104 94 189h-88v164h194v-105z" />
    <glyph glyph-name="Lcaron" unicode="&#x13d;" horiz-adv-x="1105" 
d="M174 0v1405h174v-1262h686v-143h-860zM856 956q0 -85 -20.5 -142.5t-63.5 -106.5h-117v2q95 105 95 188h-88v164h194v-105z" />
    <glyph glyph-name="lcaron" unicode="&#x13e;" horiz-adv-x="505" 
d="M170 0v1593h166v-1593h-166zM737 1100q0 -85 -20.5 -143t-63.5 -107h-116v2q94 104 94 188h-88v164h194v-104z" />
    <glyph glyph-name="Ldot" unicode="&#x13f;" horiz-adv-x="1105" 
d="M174 0v1405h174v-1262h686v-143h-860zM662 750v172h180v-172h-180z" />
    <glyph glyph-name="ldot" unicode="&#x140;" horiz-adv-x="505" 
d="M170 0v1593h166v-1593h-166zM455 735v183h180v-183h-180z" />
    <glyph glyph-name="Lslash" unicode="&#x141;" horiz-adv-x="1105" 
d="M16 387v166l158 135v717h174v-567l170 147v-166l-170 -147v-529h686v-143h-860v522z" />
    <glyph glyph-name="lslash" unicode="&#x142;" horiz-adv-x="501" 
d="M170 0v608l-111 -98h-12v168l123 106v809h166v-663l125 108h2v-168l-127 -114v-756h-166z" />
    <glyph glyph-name="Nacute" unicode="&#x143;" horiz-adv-x="1474" 
d="M174 0v1405h205l776 -1221q-12 156 -12 291v930h157v-1405h-213l-765 1214q8 -121 8 -260v-954h-156zM639 1573v2l211 303h203v-2l-285 -303h-129z" />
    <glyph glyph-name="nacute" unicode="&#x144;" 
d="M860 0v690q0 158 -52.5 219.5t-178.5 61.5q-133 0 -211 -91.5t-78 -256.5v-623h-166v846l-4 231h154q0 -23 2 -95.5t2 -115.5q38 114 121.5 173t226.5 59q178 0 264 -89.5t86 -287.5v-721h-166zM559 1198v2l225 303h230v-2l-312 -303h-143z" />
    <glyph glyph-name="Ncommaaccent" unicode="&#x145;" horiz-adv-x="1474" 
d="M174 0v1405h205l776 -1221q-12 156 -12 291v930h157v-1405h-213l-765 1214q8 -121 8 -260v-954h-156zM770 -139q0 -85 -20.5 -143t-63.5 -107h-117v2q95 105 95 188h-89v164h195v-104z" />
    <glyph glyph-name="ncommaaccent" unicode="&#x146;" 
d="M860 0v690q0 158 -52.5 219.5t-178.5 61.5q-133 0 -211 -91.5t-78 -256.5v-623h-166v846l-4 231h154q0 -23 2 -95.5t2 -115.5q38 114 121.5 173t226.5 59q178 0 264 -89.5t86 -287.5v-721h-166zM696 -203q0 -85 -20.5 -143t-63.5 -107h-116v2q94 104 94 189h-88v164h194
v-105z" />
    <glyph glyph-name="Ncaron" unicode="&#x147;" horiz-adv-x="1474" 
d="M174 0v1405h205l776 -1221q-12 156 -12 291v930h157v-1405h-213l-765 1214q8 -121 8 -260v-954h-156zM807 1575h-201l-231 283v2h141l191 -168h2l178 168h139v-2z" />
    <glyph glyph-name="ncaron" unicode="&#x148;" 
d="M860 0v690q0 158 -52.5 219.5t-178.5 61.5q-133 0 -211 -91.5t-78 -256.5v-623h-166v846l-4 231h154q0 -23 2 -95.5t2 -115.5q38 114 121.5 173t226.5 59q178 0 264 -89.5t86 -287.5v-721h-166zM963 1483l-236 -283h-201l-247 283v2h157l191 -168h2l178 168h156v-2z" />
    <glyph glyph-name="Eng" unicode="&#x14a;" horiz-adv-x="1474" 
d="M174 0v1405h205l776 -1221q-12 70 -12 291v930h157v-1534q0 -134 -47.5 -200t-173.5 -66q-80 0 -123 2v141h88q54 0 77.5 27t23.5 94v131h-58l-765 1214q8 -72 8 -260v-954h-156z" />
    <glyph glyph-name="eng" unicode="&#x14b;" horiz-adv-x="1177" 
d="M788 -483q-79 0 -122 2v141h88q54 0 77 26.5t23 94.5v909q0 158 -52.5 219.5t-178.5 61.5q-133 0 -211 -91.5t-78 -256.5v-623h-166v846l-4 231h153q0 -27 2.5 -98t2.5 -109q38 109 125 168.5t223 59.5q178 0 264 -89.5t86 -287.5v-938q0 -131 -52.5 -198.5t-179.5 -67.5
z" />
    <glyph glyph-name="Omacron" unicode="&#x14c;" horiz-adv-x="1587" 
d="M1307 709q0 264 -133.5 418.5t-378.5 154.5q-251 0 -382.5 -153t-131.5 -420q0 -266 133.5 -426t378.5 -160q131 0 230 43t161 122t92.5 185t30.5 236zM1485 709q0 -334 -183.5 -531.5t-508.5 -197.5q-168 0 -300 54t-217 151t-129.5 230t-44.5 294q0 333 181 524.5
t512 191.5q329 0 509.5 -193t180.5 -523zM1288 1690h-997v108h997v-108z" />
    <glyph glyph-name="omacron" unicode="&#x14d;" horiz-adv-x="1161" 
d="M885 551q0 227 -76 325.5t-227 98.5q-149 0 -227.5 -97t-78.5 -327q0 -120 24 -209.5t67 -140.5t96 -75t117 -24q148 0 226.5 104.5t78.5 344.5zM1059 543q0 -283 -127 -423t-361 -140q-217 0 -343 141t-126 426q0 275 125 413t357 138q475 0 475 -555zM1008 1264h-852
v112h852v-112z" />
    <glyph glyph-name="Obreve" unicode="&#x14e;" horiz-adv-x="1587" 
d="M1307 709q0 264 -133.5 418.5t-378.5 154.5q-251 0 -382.5 -153t-131.5 -420q0 -266 133.5 -426t378.5 -160q131 0 230 43t161 122t92.5 185t30.5 236zM1485 709q0 -334 -183.5 -531.5t-508.5 -197.5q-168 0 -300 54t-217 151t-129.5 230t-44.5 294q0 333 181 524.5
t512 191.5q329 0 509.5 -193t180.5 -523zM795 1575q-145 0 -237.5 91.5t-94.5 217.5h125q17 -83 68.5 -117t140.5 -34t139.5 34.5t67.5 116.5h124q0 -121 -94 -215t-239 -94z" />
    <glyph glyph-name="obreve" unicode="&#x14f;" horiz-adv-x="1161" 
d="M885 551q0 227 -76 325.5t-227 98.5q-149 0 -227.5 -97t-78.5 -327q0 -120 24 -209.5t67 -140.5t96 -75t117 -24q148 0 226.5 104.5t78.5 344.5zM1059 543q0 -283 -127 -423t-361 -140q-217 0 -343 141t-126 426q0 275 125 413t357 138q475 0 475 -555zM575 1200
q-154 0 -242.5 85.5t-88.5 223.5h125q0 -92 59.5 -142t149.5 -50t148 49.5t58 142.5h125q0 -137 -90 -223t-244 -86z" />
    <glyph glyph-name="Ohungarumlaut" unicode="&#x150;" horiz-adv-x="1587" 
d="M1307 709q0 264 -133.5 418.5t-378.5 154.5q-251 0 -382.5 -153t-131.5 -420q0 -266 133.5 -426t378.5 -160q131 0 230 43t161 122t92.5 185t30.5 236zM1485 709q0 -334 -183.5 -531.5t-508.5 -197.5q-168 0 -300 54t-217 151t-129.5 230t-44.5 294q0 333 181 524.5
t512 191.5q329 0 509.5 -193t180.5 -523zM557 1575v2l217 305h207v-2l-330 -305h-94zM903 1575v2l217 305h207v-2l-330 -305h-94z" />
    <glyph glyph-name="ohungarumlaut" unicode="&#x151;" horiz-adv-x="1161" 
d="M885 551q0 227 -76 325.5t-227 98.5q-149 0 -227.5 -97t-78.5 -327q0 -120 24 -209.5t67 -140.5t96 -75t117 -24q148 0 226.5 104.5t78.5 344.5zM1059 543q0 -283 -127 -423t-361 -140q-217 0 -343 141t-126 426q0 275 125 413t357 138q475 0 475 -555zM295 1200v2
l231 305h240v-2l-363 -305h-108zM641 1200v2l231 305h240v-2l-362 -305h-109z" />
    <glyph glyph-name="OE" unicode="&#x152;" horiz-adv-x="2174" 
d="M1126 0v184q-185 -204 -516 -204q-168 0 -300 54t-217 151t-129 230t-44 294q0 333 181 524.5t511 191.5q332 0 514 -198v178h854v-143h-680v-461h629v-144h-629v-14v-500h691v-143h-865zM1124 709q0 264 -133.5 418.5t-378.5 154.5q-251 0 -382.5 -153t-131.5 -420
q0 -266 133.5 -426t378.5 -160q131 0 230 43t161 122t92.5 185t30.5 236z" />
    <glyph glyph-name="oe" unicode="&#x153;" horiz-adv-x="1912" 
d="M571 -20q-217 0 -343 141t-126 426q0 275 125 413t357 138q147 0 240.5 -45t148.5 -138q60 91 158.5 137t220.5 46q104 0 183.5 -27t129 -72.5t80.5 -113t43 -140.5t12 -163q0 -30 -4 -76h-737v-2q0 -186 72 -293t229 -107q121 0 180.5 42t91.5 128l142 -41
q-21 -53 -47.5 -92t-73 -78.5t-122 -61t-175.5 -21.5q-159 0 -247.5 49t-145.5 159q-56 -105 -148 -156.5t-244 -51.5zM885 551q0 227 -76 325.5t-227 98.5q-149 0 -227.5 -97t-78.5 -327q0 -120 24 -209.5t67 -140.5t96 -75t117 -24q148 0 226.5 104.5t78.5 344.5z
M1352 975q-57 0 -105 -16.5t-90 -53.5t-68 -106t-30 -166h567v14q0 168 -67.5 248t-206.5 80z" />
    <glyph glyph-name="Racute" unicode="&#x154;" horiz-adv-x="1312" 
d="M348 588v-588h-174v1405h481q235 0 362.5 -106t127.5 -295q0 -169 -87.5 -272t-256.5 -132l401 -602h-203l-366 590h-285zM971 1001q0 128 -87.5 194.5t-248.5 66.5l-287 2v-539h297q326 0 326 276zM537 1573v2l211 303h202v-2l-284 -303h-129z" />
    <glyph glyph-name="racute" unicode="&#x155;" horiz-adv-x="741" 
d="M670 940q-31 2 -72 2q-65 0 -116 -26.5t-80.5 -71t-44.5 -96.5t-15 -109v-639h-166v827l-6 250h158l8 -213q24 110 94 171t182 61q27 0 58 -2v-154zM350 1198v2l225 303h230v-2l-311 -303h-144z" />
    <glyph glyph-name="Rcommaaccent" unicode="&#x156;" horiz-adv-x="1312" 
d="M348 588v-588h-174v1405h481q235 0 362.5 -106t127.5 -295q0 -169 -87.5 -272t-256.5 -132l401 -602h-203l-366 590h-285zM971 1001q0 128 -87.5 194.5t-248.5 66.5l-287 2v-539h297q326 0 326 276zM733 -139q0 -85 -20.5 -143t-63.5 -107h-117v2q95 105 95 188h-88v164
h194v-104z" />
    <glyph glyph-name="rcommaaccent" unicode="&#x157;" horiz-adv-x="741" 
d="M670 940q-31 2 -72 2q-65 0 -116 -26.5t-80.5 -71t-44.5 -96.5t-15 -109v-639h-166v827l-6 250h158l8 -213q24 110 94 171t182 61q27 0 58 -2v-154zM489 -203q0 -85 -20 -143t-63 -107h-117v2q94 104 94 189h-88v164h194v-105z" />
    <glyph glyph-name="Rcaron" unicode="&#x158;" horiz-adv-x="1312" 
d="M348 588v-588h-174v1405h481q235 0 362.5 -106t127.5 -295q0 -169 -87.5 -272t-256.5 -132l401 -602h-203l-366 590h-285zM971 1001q0 128 -87.5 194.5t-248.5 66.5l-287 2v-539h297q326 0 326 276zM705 1575h-201l-232 283v2h142l190 -168h2l178 168h140v-2z" />
    <glyph glyph-name="rcaron" unicode="&#x159;" horiz-adv-x="741" 
d="M670 940q-31 2 -72 2q-65 0 -116 -26.5t-80.5 -71t-44.5 -96.5t-15 -109v-639h-166v827l-6 250h158l8 -213q24 110 94 171t182 61q27 0 58 -2v-154zM754 1483l-236 -283h-201l-247 283v2h157l191 -168h2l178 168h156v-2z" />
    <glyph glyph-name="Sacute" unicode="&#x15a;" horiz-adv-x="1316" 
d="M1182 387q0 -185 -135.5 -296t-403.5 -111q-473 0 -559 358l172 33q13 -48 29.5 -84t46.5 -69.5t71 -54.5t102.5 -33.5t141.5 -12.5q363 0 363 260q0 119 -88 177q-63 42 -236 83q-22 5 -80 18q-57 13 -99 24.5t-92.5 30t-85.5 38.5t-71 50.5t-57.5 66t-35 84
t-13.5 106.5q0 77 26 139t71.5 104.5t108 71.5t134.5 42t153 13q225 0 340.5 -78.5t163.5 -242.5l-174 -31q-16 57 -37 94t-59 66.5t-98 43t-148 13.5q-153 0 -229 -62.5t-76 -166.5q0 -49 18.5 -87t39.5 -60t77 -44.5t87.5 -31.5t114.5 -30q13 -3 19 -5q192 -49 259 -76
q157 -64 209 -180q30 -68 30 -160zM563 1573v2l211 303h203v-2l-285 -303h-129z" />
    <glyph glyph-name="sacute" unicode="&#x15b;" horiz-adv-x="1017" 
d="M926 295q0 -153 -105 -234t-309 -81q-178 0 -287 64t-143 208l154 31q23 -81 91.5 -131t182.5 -50q256 0 256 181q0 31 -7.5 54.5t-27.5 42.5t-40 32t-59.5 26t-70.5 21t-88 22q-180 43 -263 119t-83 203q0 138 103 216.5t272 78.5q347 0 401 -264l-151 -19
q-36 158 -250 158q-96 0 -155.5 -40t-59.5 -106q0 -79 57 -122t219 -84q48 -12 76 -20t71.5 -24t69.5 -31.5t57 -40.5t48 -53.5t29 -68.5t12 -88zM434 1198v2l225 303h230v-2l-311 -303h-144z" />
    <glyph glyph-name="Scircumflex" unicode="&#x15c;" horiz-adv-x="1316" 
d="M1182 387q0 -185 -135.5 -296t-403.5 -111q-473 0 -559 358l172 33q13 -48 29.5 -84t46.5 -69.5t71 -54.5t102.5 -33.5t141.5 -12.5q363 0 363 260q0 119 -88 177q-63 42 -236 83q-22 5 -80 18q-57 13 -99 24.5t-92.5 30t-85.5 38.5t-71 50.5t-57.5 66t-35 84
t-13.5 106.5q0 77 26 139t71.5 104.5t108 71.5t134.5 42t153 13q225 0 340.5 -78.5t163.5 -242.5l-174 -31q-16 57 -37 94t-59 66.5t-98 43t-148 13.5q-153 0 -229 -62.5t-76 -166.5q0 -49 18.5 -87t39.5 -60t77 -44.5t87.5 -31.5t114.5 -30q13 -3 19 -5q192 -49 259 -76
q157 -64 209 -180q30 -68 30 -160zM950 1573h-139l-178 168h-2l-191 -168h-141v2l231 283h201l219 -283v-2z" />
    <glyph glyph-name="scircumflex" unicode="&#x15d;" horiz-adv-x="1017" 
d="M926 295q0 -153 -105 -234t-309 -81q-178 0 -287 64t-143 208l154 31q23 -81 91.5 -131t182.5 -50q256 0 256 181q0 31 -7.5 54.5t-27.5 42.5t-40 32t-59.5 26t-70.5 21t-88 22q-180 43 -263 119t-83 203q0 138 103 216.5t272 78.5q347 0 401 -264l-151 -19
q-36 158 -250 158q-96 0 -155.5 -40t-59.5 -106q0 -79 57 -122t219 -84q48 -12 76 -20t71.5 -24t69.5 -31.5t57 -40.5t48 -53.5t29 -68.5t12 -88zM838 1200v-2h-156l-178 168h-2l-191 -168h-159v2l249 283h201z" />
    <glyph glyph-name="Scedilla" unicode="&#x15e;" horiz-adv-x="1316" 
d="M856 -256q0 -178 -270 -178q-57 0 -90 4v96q50 -6 86 -6q149 0 149 84q0 76 -135 76q-26 0 -57 -2l57 164q-432 15 -512 356l172 33q13 -48 29.5 -84t46.5 -69.5t71 -54.5t102.5 -33.5t141.5 -12.5q363 0 363 260q0 119 -88 177q-63 42 -236 83q-22 5 -80 18
q-57 13 -99 24.5t-92.5 30t-85.5 38.5t-71 50.5t-57.5 66t-35 84t-13.5 106.5q0 77 26 139t71.5 104.5t108 71.5t134.5 42t153 13q225 0 340.5 -78.5t163.5 -242.5l-174 -31q-16 57 -37 94t-59 66.5t-98 43t-148 13.5q-153 0 -229 -62.5t-76 -166.5q0 -49 18.5 -87t39.5 -60
t77 -44.5t87.5 -31.5t114.5 -30q13 -3 19 -5q192 -49 259 -76q157 -64 209 -180q30 -68 30 -160q0 -175 -122 -284t-362 -121l-30 -84q93 -3 140.5 -43t47.5 -111z" />
    <glyph glyph-name="scedilla" unicode="&#x15f;" horiz-adv-x="1017" 
d="M707 -256q0 -178 -271 -178q-57 0 -90 4v96q50 -6 86 -6q150 0 150 84q0 76 -136 76q-26 0 -57 -2l57 164q-150 11 -241.5 75t-122.5 195l154 31q23 -81 91.5 -131t182.5 -50q256 0 256 181q0 31 -7.5 54.5t-27.5 42.5t-40 32t-59.5 26t-70.5 21t-88 22q-180 43 -263 119
t-83 203q0 138 103 216.5t272 78.5q347 0 401 -264l-151 -19q-36 158 -250 158q-96 0 -155.5 -40t-59.5 -106q0 -79 57 -122t219 -84q48 -12 76 -20t71.5 -24t69.5 -31.5t57 -40.5t48 -53.5t29 -68.5t12 -88q0 -147 -95 -226.5t-282 -86.5l-31 -84q93 -3 141 -43t48 -111z
" />
    <glyph glyph-name="Scaron" unicode="&#x160;" horiz-adv-x="1316" 
d="M1182 387q0 -185 -135.5 -296t-403.5 -111q-473 0 -559 358l172 33q13 -48 29.5 -84t46.5 -69.5t71 -54.5t102.5 -33.5t141.5 -12.5q363 0 363 260q0 119 -88 177q-63 42 -236 83q-22 5 -80 18q-57 13 -99 24.5t-92.5 30t-85.5 38.5t-71 50.5t-57.5 66t-35 84
t-13.5 106.5q0 77 26 139t71.5 104.5t108 71.5t134.5 42t153 13q225 0 340.5 -78.5t163.5 -242.5l-174 -31q-16 57 -37 94t-59 66.5t-98 43t-148 13.5q-153 0 -229 -62.5t-76 -166.5q0 -49 18.5 -87t39.5 -60t77 -44.5t87.5 -31.5t114.5 -30q13 -3 19 -5q192 -49 259 -76
q157 -64 209 -180q30 -68 30 -160zM731 1575h-201l-231 283v2h141l191 -168h2l178 168h139v-2z" />
    <glyph glyph-name="scaron" unicode="&#x161;" horiz-adv-x="1017" 
d="M926 295q0 -153 -105 -234t-309 -81q-178 0 -287 64t-143 208l154 31q23 -81 91.5 -131t182.5 -50q256 0 256 181q0 31 -7.5 54.5t-27.5 42.5t-40 32t-59.5 26t-70.5 21t-88 22q-180 43 -263 119t-83 203q0 138 103 216.5t272 78.5q347 0 401 -264l-151 -19
q-36 158 -250 158q-96 0 -155.5 -40t-59.5 -106q0 -79 57 -122t219 -84q48 -12 76 -20t71.5 -24t69.5 -31.5t57 -40.5t48 -53.5t29 -68.5t12 -88zM838 1483l-236 -283h-201l-247 283v2h157l191 -168h2l178 168h156v-2z" />
    <glyph glyph-name="Tcedilla" unicode="&#x162;" horiz-adv-x="1148" 
d="M784 -256q0 -178 -270 -178q-57 0 -90 4v96q49 -6 86 -6q149 0 149 84q0 76 -135 76q-26 0 -57 -2l65 182h-45v1262h-456v143h1087v-143h-454v-1262h-29l-39 -102q93 -3 140.5 -43t47.5 -111z" />
    <glyph glyph-name="tcedilla" unicode="&#x163;" horiz-adv-x="700" 
d="M578 -256q0 -178 -271 -178q-57 0 -90 4v96q50 -6 86 -6q150 0 150 84q0 76 -136 76q-26 0 -57 -2l64 178q-55 21 -84 72.5t-29 121.5v762h-129v125h129v314h166v-314h203v-125h-203v-727q0 -54 22 -79t80 -25h119v-139h-178l-31 -84q93 -3 141 -43t48 -111z" />
    <glyph glyph-name="Tcaron" unicode="&#x164;" horiz-adv-x="1148" 
d="M664 1262v-1262h-177v1262h-456v143h1087v-143h-454zM666 1575h-201l-232 283v2h142l190 -168h2l178 168h140v-2z" />
    <glyph glyph-name="tcaron" unicode="&#x165;" horiz-adv-x="700" 
d="M82 952v125h129v314h166v-314h203v-125h-203v-727q0 -54 22 -79t80 -25h119v-139h-201q-87 0 -136.5 58t-49.5 150v762h-129zM813 1622q0 -85 -20.5 -143t-63.5 -107h-117v2q95 105 95 189h-89v163h195v-104z" />
    <glyph glyph-name="Tbar" unicode="&#x166;" horiz-adv-x="1148" 
d="M664 1262v-508h229v-113h-229v-641h-177v641h-241v113h241v508h-456v143h1087v-143h-454z" />
    <glyph glyph-name="tbar" unicode="&#x167;" horiz-adv-x="659" 
d="M51 952v125h129v314h166v-314h203v-125h-203v-327h193v-113h-193v-287q0 -54 22.5 -79t80.5 -25h118v-139h-200q-87 0 -137 58t-50 150v322h-100v113h100v327h-129z" />
    <glyph glyph-name="Utilde" unicode="&#x168;" horiz-adv-x="1419" 
d="M709 -20q-117 0 -213 32t-168.5 95t-113 166t-40.5 237v895h174v-870q0 -202 95 -307t264 -105q176 0 270 103t94 311v868h174v-879q0 -272 -142.5 -409t-393.5 -137zM858 1573q-52 0 -113.5 30.5t-115.5 60.5t-90 30q-46 0 -71.5 -26t-25.5 -75v-20h-102v39
q0 100 47 163.5t141 63.5q54 0 116 -30t117 -59.5t91 -29.5q44 0 67 28.5t23 80.5v10h107v-39q0 -113 -46 -170t-145 -57z" />
    <glyph glyph-name="utilde" unicode="&#x169;" 
d="M330 1077v-688q0 -158 51 -219t178 -61q134 0 212.5 91t78.5 253v624h166v-848q0 -45 4 -229h-158l-10 199q-85 -219 -348 -219q-178 0 -259 88.5t-81 287.5v721h166zM745 1198q-41 0 -89 19t-83.5 41.5t-76.5 41.5t-70 19q-46 0 -71 -25.5t-25 -74.5v-21h-103v39
q0 100 47.5 163.5t141.5 63.5q54 0 115.5 -29.5t116.5 -59t91 -29.5q44 0 67 28t23 80v10h107v-39q0 -113 -46 -170t-145 -57z" />
    <glyph glyph-name="Umacron" unicode="&#x16a;" horiz-adv-x="1419" 
d="M709 -20q-117 0 -213 32t-168.5 95t-113 166t-40.5 237v895h174v-870q0 -202 95 -307t264 -105q176 0 270 103t94 311v868h174v-879q0 -272 -142.5 -409t-393.5 -137zM1196 1690h-997v108h997v-108z" />
    <glyph glyph-name="umacron" unicode="&#x16b;" 
d="M330 1077v-688q0 -158 51 -219t178 -61q134 0 212.5 91t78.5 253v624h166v-848q0 -45 4 -229h-158l-10 199q-85 -219 -348 -219q-178 0 -259 88.5t-81 287.5v721h166zM1014 1264h-852v112h852v-112z" />
    <glyph glyph-name="Ubreve" unicode="&#x16c;" horiz-adv-x="1419" 
d="M709 -20q-117 0 -213 32t-168.5 95t-113 166t-40.5 237v895h174v-870q0 -202 95 -307t264 -105q176 0 270 103t94 311v868h174v-879q0 -272 -142.5 -409t-393.5 -137zM702 1575q-145 0 -237 91.5t-94 217.5h125q17 -83 68.5 -117t140.5 -34q88 0 138.5 34.5t67.5 116.5
h125q0 -121 -94.5 -215t-239.5 -94z" />
    <glyph glyph-name="ubreve" unicode="&#x16d;" 
d="M330 1077v-688q0 -158 51 -219t178 -61q134 0 212.5 91t78.5 253v624h166v-848q0 -45 4 -229h-158l-10 199q-85 -219 -348 -219q-178 0 -259 88.5t-81 287.5v721h166zM582 1200q-154 0 -243 85.5t-89 223.5h125q0 -92 59.5 -142t149.5 -50t148.5 49.5t58.5 142.5h124
q0 -138 -89.5 -223.5t-243.5 -85.5z" />
    <glyph glyph-name="Uring" unicode="&#x16e;" horiz-adv-x="1419" 
d="M709 -20q-117 0 -213 32t-168.5 95t-113 166t-40.5 237v895h174v-870q0 -202 95 -307t264 -105q176 0 270 103t94 311v868h174v-879q0 -272 -142.5 -409t-393.5 -137zM834 1784q0 57 -38.5 96t-95.5 39t-96 -39t-39 -96t39 -96t96 -39t95.5 39t38.5 96zM942 1784
q0 -99 -71.5 -170.5t-170.5 -71.5t-170 71.5t-71 170.5q0 102 70.5 171.5t170.5 69.5q101 0 171.5 -69.5t70.5 -171.5z" />
    <glyph glyph-name="uring" unicode="&#x16f;" 
d="M330 1077v-688q0 -158 51 -219t178 -61q134 0 212.5 91t78.5 253v624h166v-848q0 -45 4 -229h-158l-10 199q-85 -219 -348 -219q-178 0 -259 88.5t-81 287.5v721h166zM823 1296q0 -99 -71 -170t-170 -71q-100 0 -171 71.5t-71 169.5q0 102 71 172t171 70t170.5 -70
t70.5 -172zM715 1296q0 57 -38 96.5t-95 39.5t-96.5 -39.5t-39.5 -96.5t39.5 -96t96.5 -39t95 39t38 96z" />
    <glyph glyph-name="Uhungarumlaut" unicode="&#x170;" horiz-adv-x="1419" 
d="M709 -20q-117 0 -213 32t-168.5 95t-113 166t-40.5 237v895h174v-870q0 -202 95 -307t264 -105q176 0 270 103t94 311v868h174v-879q0 -272 -142.5 -409t-393.5 -137zM465 1575v2l217 305h207v-2l-330 -305h-94zM811 1575v2l217 305h207v-2l-330 -305h-94z" />
    <glyph glyph-name="uhungarumlaut" unicode="&#x171;" 
d="M330 1077v-688q0 -158 51 -219t178 -61q134 0 212.5 91t78.5 253v624h166v-848q0 -45 4 -229h-158l-10 199q-85 -219 -348 -219q-178 0 -259 88.5t-81 287.5v721h166zM647 1200v2l232 305h239v-2l-362 -305h-109zM301 1200v2l231 305h240v-2l-362 -305h-109z" />
    <glyph glyph-name="Uogonek" unicode="&#x172;" horiz-adv-x="1419" 
d="M950 -367q-103 0 -157 49.5t-54 137.5q0 89 66 166q-47 -6 -96 -6q-117 0 -213 32t-168.5 95t-113 166t-40.5 237v895h174v-870q0 -202 95 -307t264 -105q176 0 270 103t94 311v868h174v-879q0 -354 -241 -481q-52 -36 -87.5 -92t-35.5 -121q0 -42 25 -66t69 -24
q45 0 115 25v-107q-66 -27 -140 -27z" />
    <glyph glyph-name="uogonek" unicode="&#x173;" 
d="M895 -426q-103 0 -157 49t-54 137q0 82 51.5 147.5t104.5 92.5h22l-10 199q-85 -219 -348 -219q-178 0 -259 88.5t-81 287.5v721h166v-688q0 -158 51 -219t178 -61q134 0 212.5 91t78.5 253v624h166v-848q0 -45 4 -229h-47q-58 -31 -103 -93.5t-45 -133.5
q0 -41 25.5 -65.5t69.5 -24.5q47 0 114 24v-106q-66 -27 -139 -27z" />
    <glyph glyph-name="Wcircumflex" unicode="&#x174;" horiz-adv-x="1916" 
d="M434 0l-403 1405h184l242 -899q16 -61 88 -350l5 21q4 21 12 54.5t18 76.5t25 100.5t30 113.5l237 883h170l238 -881q23 -90 45 -179t33 -137t12 -52q61 244 90 350l244 899h182l-405 -1405h-211l-240 903q-63 240 -72 303q0 -1 -10.5 -45.5t-29 -119.5t-35.5 -140
l-240 -901h-209zM1274 1573h-139l-179 168h-2l-190 -168h-141v2l231 283h201l219 -283v-2z" />
    <glyph glyph-name="wcircumflex" unicode="&#x175;" horiz-adv-x="1507" 
d="M324 0l-304 1077h162l191 -741q12 -45 22.5 -94.5t15.5 -75.5l5 -27q24 95 49 191l188 747h195l188 -747l45 -193q24 115 47 199l197 741h162l-311 -1077h-193l-176 705q-16 60 -55 237q-1 -5 -10 -45t-22 -98t-24 -101l-182 -698h-190zM1085 1200v-2h-155l-178 168h-2
l-191 -168h-160v2l250 283h201z" />
    <glyph glyph-name="Ycircumflex" unicode="&#x176;" horiz-adv-x="1214" 
d="M692 582v-582h-174v582l-487 823h192l385 -680l383 680h193zM918 1573h-140l-178 168h-2l-190 -168h-142v2l232 283h200l220 -283v-2z" />
    <glyph glyph-name="ycircumflex" unicode="&#x177;" horiz-adv-x="1036" 
d="M180 -487q-68 0 -104 6v131h104q75 0 117.5 37t69.5 108l77 207l-424 1075h179l231 -606l100 -276q46 116 101 274l211 608h174l-486 -1284q-13 -34 -22 -55.5t-26 -54t-34.5 -53.5t-44.5 -45.5t-58 -38.5t-73.5 -23.5t-91.5 -9.5zM858 1200v-2h-156l-178 168h-2
l-190 -168h-160v2l250 283h201z" />
    <glyph glyph-name="Ydieresis" unicode="&#x178;" horiz-adv-x="1214" 
d="M692 582v-582h-174v582l-487 823h192l385 -680l383 680h193zM328 1591v181h159v-181h-159zM715 1591v181h157v-181h-157z" />
    <glyph glyph-name="Zacute" unicode="&#x179;" horiz-adv-x="1193" 
d="M63 0v133l807 1129h-755v143h956v-129l-809 -1133h856v-143h-1055zM512 1573v2l211 303h203v-2l-285 -303h-129z" />
    <glyph glyph-name="zacute" unicode="&#x17a;" horiz-adv-x="962" 
d="M72 0v127l606 823h-567v127h745v-127l-606 -821h641v-129h-819zM410 1198v2l225 303h229v-2l-311 -303h-143z" />
    <glyph glyph-name="Zdotaccent" unicode="&#x17b;" horiz-adv-x="1193" 
d="M63 0v133l807 1129h-755v143h956v-129l-809 -1133h856v-143h-1055zM489 1579v172h181v-172h-181z" />
    <glyph glyph-name="zdotaccent" unicode="&#x17c;" horiz-adv-x="962" 
d="M72 0v127l606 823h-567v127h745v-127l-606 -821h641v-129h-819zM401 1257v183h181v-183h-181z" />
    <glyph glyph-name="Zcaron" unicode="&#x17d;" horiz-adv-x="1193" 
d="M63 0v133l807 1129h-755v143h956v-129l-809 -1133h856v-143h-1055zM680 1575h-201l-231 283v2h141l191 -168h2l178 168h139v-2z" />
    <glyph glyph-name="zcaron" unicode="&#x17e;" horiz-adv-x="962" 
d="M72 0v127l606 823h-567v127h745v-127l-606 -821h641v-129h-819zM813 1483l-235 -283h-201l-248 283v2h158l190 -168h2l178 168h156v-2z" />
    <glyph glyph-name="florin" unicode="&#x192;" horiz-adv-x="1155" 
d="M389 -434h-170l254 1327h-229l24 125h228l30 153q13 64 32 110t52.5 87t89 61.5t131.5 20.5q34 0 98 -7.5t97 -17.5l-29 -114q-19 5 -75 11.5t-86 6.5q-60 0 -91.5 -39t-50.5 -133l-26 -139h280l-24 -125h-281z" />
    <glyph glyph-name="Aringacute" unicode="&#x1fa;" horiz-adv-x="1347" 
d="M229 0l144 416h600l147 -416h174l-520 1405h-211l-502 -1405h168zM909 1784q0 -99 -71 -170.5t-170 -71.5t-170.5 71.5t-71.5 170.5q0 102 70.5 171.5t171.5 69.5q100 0 170.5 -69.5t70.5 -171.5zM668 1274l88 -248l168 -473h-504l162 471zM596 2042v2l225 303h230v-2
l-312 -303h-143zM801 1784q0 57 -38 96t-95 39t-96.5 -39t-39.5 -96t39.5 -96t96.5 -39t95 39t38 96z" />
    <glyph glyph-name="aringacute" unicode="&#x1fb;" horiz-adv-x="1193" 
d="M813 1296q0 -65 -33 -120.5t-88 -88.5q137 -25 209 -115t72 -241v-545q0 -41 14.5 -57t48.5 -16h97v-127q-59 -6 -140 -6t-128.5 45.5t-47.5 128.5v53q-72 -227 -352 -227q-166 0 -254 92.5t-88 230.5q0 185 121 265.5t364 80.5h203v88q0 234 -238 234q-106 0 -163 -41.5
t-74 -138.5l-164 18q40 230 281 276q-56 33 -89.5 89.5t-33.5 121.5q0 96 63.5 164t157.5 76l176 238h229v-2l-270 -263q58 -31 92.5 -87.5t34.5 -125.5zM504 102q87 0 150 31t95.5 84.5t47 112t14.5 127.5v78h-205q-74 0 -129.5 -11t-99.5 -35.5t-67 -68.5t-23 -107
q0 -93 55.5 -152t161.5 -59zM705 1296q0 57 -38.5 96.5t-95.5 39.5t-96 -39.5t-39 -96.5t39 -96t96 -39t95.5 39t38.5 96z" />
    <glyph glyph-name="AEacute" unicode="&#x1fc;" horiz-adv-x="2048" 
d="M1849 0h-864v416l-549 -2l-196 -414h-177l670 1405h1106v-143h-680v-461h629v-142h-629v-516h690v-143zM725 1020l-223 -467h483v717h-151zM989 1573v2l211 303h203v-2l-285 -303h-129z" />
    <glyph glyph-name="aeacute" unicode="&#x1fd;" horiz-adv-x="1796" 
d="M463 -20q-95 0 -168 26t-116.5 71.5t-65 102.5t-21.5 123q0 183 121.5 259.5t364.5 76.5h202v98q0 234 -237 234q-106 0 -163.5 -41.5t-74.5 -138.5l-164 18q49 289 410 289q239 0 330 -146q126 146 354 146q104 0 183.5 -27t129 -72.5t80.5 -113t43 -140.5t12 -163
q0 -24 -4 -70h-737v-2q0 -90 16.5 -161.5t51 -127.5t93.5 -86.5t140 -30.5q121 0 181 42t92 128l141 -41q-21 -53 -47.5 -92t-73 -78.5t-122 -61t-175.5 -21.5q-130 0 -232 53.5t-159 169.5q-107 -223 -385 -223zM473 102q88 0 150 27.5t95.5 78.5t47.5 111.5t14 137.5v55
h-205q-61 0 -105 -4.5t-85.5 -17t-67 -34.5t-40.5 -58t-15 -87q0 -93 53 -151t158 -58zM1235 975q-278 0 -293 -336h567v14q0 167 -67.5 244.5t-206.5 77.5zM809 1198v2l225 303h230v-2l-312 -303h-143z" />
    <glyph glyph-name="Oslashacute" unicode="&#x1fe;" horiz-adv-x="1587" 
d="M1485 709q0 -334 -183.5 -531.5t-508.5 -197.5q-253 0 -422 118l-101 -118h-170l174 206q-172 193 -172 523q0 333 181 524.5t512 191.5q255 0 426 -120l100 118h166l-172 -204q170 -191 170 -510zM281 709q0 -239 106 -390l729 863q-130 100 -321 100
q-251 0 -382.5 -153t-131.5 -420zM1307 709q0 230 -103 378l-729 -864q124 -100 318 -100q131 0 230 43t161 122t92.5 185t30.5 236zM721 1573v2l211 303h203v-2l-285 -303h-129z" />
    <glyph glyph-name="oslashacute" unicode="&#x1ff;" horiz-adv-x="1161" 
d="M1059 543q0 -283 -127 -423t-361 -140q-147 0 -252 63l-43 -63h-170l109 155q-113 144 -113 412q0 275 125 413t357 138q155 0 264 -62l43 62h166l-107 -152q109 -139 109 -403zM276 551q0 -167 43 -268l447 637q-69 55 -184 55q-149 0 -227.5 -97t-78.5 -327zM885 551
q0 158 -37 248l-445 -637q75 -60 177 -60q148 0 226.5 104.5t78.5 344.5zM504 1198v2l225 303h229v-2l-311 -303h-143z" />
    <glyph glyph-name="Scommaaccent" unicode="&#x218;" horiz-adv-x="1316" 
d="M1182 387q0 -185 -135.5 -296t-403.5 -111q-473 0 -559 358l172 33q13 -48 29.5 -84t46.5 -69.5t71 -54.5t102.5 -33.5t141.5 -12.5q363 0 363 260q0 119 -88 177q-63 42 -236 83q-22 5 -80 18q-57 13 -99 24.5t-92.5 30t-85.5 38.5t-71 50.5t-57.5 66t-35 84
t-13.5 106.5q0 77 26 139t71.5 104.5t108 71.5t134.5 42t153 13q225 0 340.5 -78.5t163.5 -242.5l-174 -31q-16 57 -37 94t-59 66.5t-98 43t-148 13.5q-153 0 -229 -62.5t-76 -166.5q0 -49 18.5 -87t39.5 -60t77 -44.5t87.5 -31.5t114.5 -30q13 -3 19 -5q192 -49 259 -76
q157 -64 209 -180q30 -68 30 -160zM750 -139q0 -85 -20.5 -143t-63.5 -107h-117v2q94 104 94 188h-88v164h195v-104z" />
    <glyph glyph-name="scommaaccent" unicode="&#x219;" horiz-adv-x="1017" 
d="M926 295q0 -153 -105 -234t-309 -81q-178 0 -287 64t-143 208l154 31q23 -81 91.5 -131t182.5 -50q256 0 256 181q0 31 -7.5 54.5t-27.5 42.5t-40 32t-59.5 26t-70.5 21t-88 22q-180 43 -263 119t-83 203q0 138 103 216.5t272 78.5q347 0 401 -264l-151 -19
q-36 158 -250 158q-96 0 -155.5 -40t-59.5 -106q0 -79 57 -122t219 -84q48 -12 76 -20t71.5 -24t69.5 -31.5t57 -40.5t48 -53.5t29 -68.5t12 -88zM602 -203q0 -85 -20.5 -143t-63.5 -107h-117v2q95 105 95 189h-88v164h194v-105z" />
    <glyph glyph-name="uni021A" unicode="&#x21a;" horiz-adv-x="1148" 
d="M664 1262v-1262h-177v1262h-456v143h1087v-143h-454zM678 -139q0 -85 -20.5 -143t-63.5 -107h-117v2q94 104 94 188h-88v164h195v-104z" />
    <glyph glyph-name="uni021B" unicode="&#x21b;" horiz-adv-x="700" 
d="M82 952v125h129v314h166v-314h203v-125h-203v-727q0 -54 22 -79t80 -25h119v-139h-201q-87 0 -136.5 58t-49.5 150v762h-129zM473 -203q0 -85 -20.5 -143t-63.5 -107h-117v2q95 105 95 189h-88v164h194v-105z" />
    <glyph glyph-name="dotlessj" unicode="&#x237;" horiz-adv-x="497" 
d="M96 -483q-80 0 -123 2v145q23 -2 88 -2q54 0 77.5 27.5t23.5 95.5v1292h166v-1294q0 -131 -52.5 -198.5t-179.5 -67.5z" />
    <glyph glyph-name="circumflex" unicode="&#x2c6;" horiz-adv-x="856" 
d="M770 1200v-2h-156l-178 168h-2l-190 -168h-160v2l250 283h201z" />
    <glyph glyph-name="caron" unicode="&#x2c7;" horiz-adv-x="856" 
d="M770 1483l-235 -283h-201l-248 283v2h158l190 -168h2l178 168h156v-2z" />
    <glyph glyph-name="breve" unicode="&#x2d8;" horiz-adv-x="870" 
d="M434 1200q-154 0 -243 85.5t-89 223.5h125q0 -92 59.5 -142t149.5 -50t148.5 49.5t58.5 142.5h125q0 -137 -90 -223t-244 -86z" />
    <glyph glyph-name="dotaccent" unicode="&#x2d9;" horiz-adv-x="385" 
d="M102 1257v183h181v-183h-181z" />
    <glyph glyph-name="ring" unicode="&#x2da;" horiz-adv-x="688" 
d="M477 1362q0 57 -38 96t-95 39t-96 -39t-39 -96t39 -96t96 -39t95 39t38 96zM586 1362q0 -99 -71.5 -170.5t-170.5 -71.5t-170.5 71.5t-71.5 170.5q0 102 71 172t171 70t171 -70t71 -172z" />
    <glyph glyph-name="ogonek" unicode="&#x2db;" horiz-adv-x="555" 
d="M313 -426q-103 0 -157 49t-54 137q0 82 51.5 147.5t104.5 92.5h133q-58 -31 -102.5 -93.5t-44.5 -133.5q0 -42 25 -66t69 -24q48 0 115 24v-106q-66 -27 -140 -27z" />
    <glyph glyph-name="tilde" unicode="&#x2dc;" horiz-adv-x="913" 
d="M621 1198q-41 0 -89 19t-84 41.5t-77 41.5t-70 19q-46 0 -71 -25.5t-25 -74.5v-21h-103v39q0 100 47.5 163.5t141.5 63.5q54 0 115.5 -29.5t116.5 -59t91 -29.5q44 0 67.5 28.5t23.5 79.5v10h106v-39q0 -113 -45.5 -170t-144.5 -57z" />
    <glyph glyph-name="hungarumlaut" unicode="&#x2dd;" horiz-adv-x="974" 
d="M88 1200v2l231 305h240v-2l-362 -305h-109zM434 1200v2l232 305h239v-2l-362 -305h-109z" />
    <glyph glyph-name="Wgrave" unicode="&#x1e80;" horiz-adv-x="1916" 
d="M434 0l-403 1405h184l242 -899l88 -350q35 161 90 366l237 883h170l238 -881q25 -96 47.5 -188t32.5 -136l10 -44q35 145 90 350l244 899h182l-405 -1405h-211l-240 903q-63 240 -72 303q0 -1 -10.5 -45.5t-29 -119.5t-35.5 -140l-240 -901h-209zM905 1573l-287 303v2
h203l213 -303v-2h-129z" />
    <glyph glyph-name="wgrave" unicode="&#x1e81;" horiz-adv-x="1507" 
d="M324 0l-304 1077h162l191 -741q12 -45 22.5 -94.5t15.5 -75.5l5 -27q24 95 49 191l188 747h195l188 -747l45 -193q24 115 47 199l197 741h162l-311 -1077h-193l-176 705q-16 60 -55 237q-1 -5 -10 -45t-22 -98t-24 -101l-182 -698h-190zM698 1198l-313 303v2h229
l228 -303v-2h-144z" />
    <glyph glyph-name="Wacute" unicode="&#x1e82;" horiz-adv-x="1916" 
d="M434 0l-403 1405h184l242 -899l88 -350q35 161 90 366l237 883h170l238 -881q25 -96 47.5 -188t32.5 -136l10 -44q35 145 90 350l244 899h182l-405 -1405h-211l-240 903q-63 240 -72 303q0 -1 -10.5 -45.5t-29 -119.5t-35.5 -140l-240 -901h-209zM887 1573v2l211 303h202
v-2l-284 -303h-129z" />
    <glyph glyph-name="wacute" unicode="&#x1e83;" horiz-adv-x="1507" 
d="M324 0l-304 1077h162l191 -741q12 -45 22.5 -94.5t15.5 -75.5l5 -27q24 95 49 191l188 747h195l188 -747l45 -193q24 115 47 199l197 741h162l-311 -1077h-193l-176 705q-16 60 -55 237q-1 -5 -10 -45t-22 -98t-24 -101l-182 -698h-190zM682 1198v2l225 303h230v-2
l-312 -303h-143z" />
    <glyph glyph-name="Wdieresis" unicode="&#x1e84;" horiz-adv-x="1916" 
d="M434 0l-403 1405h184l242 -899l88 -350q35 161 90 366l237 883h170l238 -881q25 -96 47.5 -188t32.5 -136l10 -44q35 145 90 350l244 899h182l-405 -1405h-211l-240 903q-63 240 -72 303q0 -1 -10.5 -45.5t-29 -119.5t-35.5 -140l-240 -901h-209zM684 1591v181h160v-181
h-160zM1071 1591v181h158v-181h-158z" />
    <glyph glyph-name="wdieresis" unicode="&#x1e85;" horiz-adv-x="1507" 
d="M324 0l-304 1077h162l191 -741q12 -45 22.5 -94.5t15.5 -75.5l5 -27q24 95 49 191l188 747h195l188 -747q9 -34 19.5 -79.5t17 -76t8.5 -35.5q22 110 47 197l197 741h162l-311 -1077h-193l-176 705q-16 60 -55 237q-1 -5 -10 -45t-22 -98t-24 -101l-182 -698h-190z
M461 1217v180h160v-180h-160zM889 1217v180h158v-180h-158z" />
    <glyph glyph-name="Ygrave" unicode="&#x1ef2;" horiz-adv-x="1214" 
d="M692 582v-582h-174v582l-487 823h192l385 -680l383 680h193zM549 1573l-287 303v2h203l213 -303v-2h-129z" />
    <glyph glyph-name="ygrave" unicode="&#x1ef3;" horiz-adv-x="1036" 
d="M180 -487q-68 0 -104 6v131h104q75 0 117.5 37t69.5 108l77 207l-424 1075h179l231 -606l100 -276q46 116 101 274l211 608h174l-486 -1284q-13 -34 -22 -55.5t-26 -54t-34.5 -53.5t-44.5 -45.5t-58 -38.5t-73.5 -23.5t-91.5 -9.5zM471 1198l-313 303v2h229l227 -303v-2
h-143z" />
    <glyph glyph-name="endash" unicode="&#x2013;" horiz-adv-x="1146" 
d="M0 479v131h1147v-131h-1147z" />
    <glyph glyph-name="emdash" unicode="&#x2014;" horiz-adv-x="2041" 
d="M0 483v123h2042v-123h-2042z" />
    <glyph glyph-name="quoteleft" unicode="&#x2018;" horiz-adv-x="438" 
d="M102 1171q0 101 21.5 163t71.5 143h141v-2q-96 -130 -96 -256h69v-215h-207v167z" />
    <glyph glyph-name="quoteright" unicode="&#x2019;" horiz-adv-x="438" 
d="M336 1309q0 -101 -21 -163t-71 -142h-142v2q97 131 97 256h-70v215h207v-168z" />
    <glyph glyph-name="quotesinglbase" unicode="&#x201a;" horiz-adv-x="438" 
d="M336 -72q0 -101 -21 -163t-71 -142h-142v2q97 131 97 256h-70v215h207v-168z" />
    <glyph glyph-name="quotedblleft" unicode="&#x201c;" horiz-adv-x="808" 
d="M473 1171q0 101 21 163.5t71 142.5h142v-2q-97 -131 -97 -256h70v-215h-207v167zM102 1171q0 101 21.5 163t71.5 143h141v-2q-96 -130 -96 -256h69v-215h-207v167z" />
    <glyph glyph-name="quotedblright" unicode="&#x201d;" horiz-adv-x="808" 
d="M707 1309q0 -101 -21.5 -162.5t-71.5 -142.5h-141v2q96 130 96 256h-69v215h207v-168zM336 1309q0 -101 -21 -163t-71 -142h-142v2q97 131 97 256h-70v215h207v-168z" />
    <glyph glyph-name="quotedblbase" unicode="&#x201e;" horiz-adv-x="811" 
d="M709 -72q0 -101 -21.5 -162.5t-71.5 -142.5h-141v2q96 130 96 256h-69v215h207v-168zM336 -68q0 -101 -21 -163t-71 -142h-142v2q97 131 97 256h-70v215h207v-168z" />
    <glyph glyph-name="dagger" unicode="&#x2020;" horiz-adv-x="1069" 
d="M102 993v121h357v367h151v-367h357v-121h-357v-1128h-151v1128h-357z" />
    <glyph glyph-name="daggerdbl" unicode="&#x2021;" horiz-adv-x="1069" 
d="M102 993v121h357v367h151v-367h357v-121h-357v-641h357v-121h-357v-366h-151v366h-357v121h357v641h-357z" />
    <glyph glyph-name="bullet" unicode="&#x2022;" horiz-adv-x="892" 
d="M688 627q0 -100 -73 -172t-173 -72q-97 0 -167 72t-70 172q0 99 70 169t167 70q100 0 173 -70t73 -169z" />
    <glyph glyph-name="ellipsis" unicode="&#x2026;" horiz-adv-x="2048" 
d="M924 0v215h206v-215h-206zM1610 0v215h207v-215h-207zM238 0v215h206v-215h-206z" />
    <glyph glyph-name="perthousand" unicode="&#x2030;" horiz-adv-x="2050" 
d="M510 1057q0 142 -36 198t-112 56q-82 0 -119.5 -56t-37.5 -198q0 -138 38.5 -196t116.5 -58q73 0 111.5 59t38.5 195zM362 1417q293 0 293 -360q0 -191 -81.5 -278t-215.5 -87q-297 0 -297 365q0 103 22 175t64.5 111.5t94.5 56.5t120 17zM299 0h-149l929 1405h154z
M1194 352q0 143 -37 199.5t-113 56.5q-81 0 -118 -56t-37 -200q0 -137 37.5 -194.5t115.5 -57.5q73 0 112.5 58.5t39.5 193.5zM1044 715q293 0 293 -363q0 -189 -81.5 -275.5t-215.5 -86.5q-297 0 -297 362q0 104 22 176.5t64.5 112.5t94.5 57t120 17zM1845 352
q0 143 -36 199.5t-111 56.5q-82 0 -121 -56.5t-39 -199.5q0 -136 39.5 -194t118.5 -58q149 0 149 252zM1698 715q293 0 293 -363q0 -189 -81.5 -275.5t-215.5 -86.5q-297 0 -297 362q0 104 22 176.5t64.5 112.5t94.5 57t120 17z" />
    <glyph glyph-name="guilsinglleft" unicode="&#x2039;" horiz-adv-x="776" 
d="M471 143l-348 396v4l348 395h182v-2l-344 -395l344 -396v-2h-182z" />
    <glyph glyph-name="guilsinglright" unicode="&#x203a;" horiz-adv-x="776" 
d="M305 936l348 -395v-4l-348 -396h-182v2l344 396l-344 395v2h182z" />
    <glyph glyph-name="Euro" unicode="&#x20ac;" horiz-adv-x="1155" 
d="M819 920l-43 -125h-424v-84q0 -57 2 -84h463l-41 -127h-414q24 -181 101 -281t231 -100q101 0 163 50.5t77 141.5l176 -14q-28 -142 -133 -229.5t-287 -87.5q-217 0 -341.5 133t-158.5 387h-172l39 127h123q-2 25 -2 80q0 59 2 88h-162l39 125h133q31 250 152.5 377.5
t345.5 127.5q182 0 286 -86.5t134 -230.5l-176 -14q-14 93 -77 143.5t-169 50.5q-151 0 -226.5 -88.5t-97.5 -279.5h457z" />
    <glyph glyph-name="trademark" unicode="&#x2122;" horiz-adv-x="1710" 
d="M1526 729h-113v539l-20 -51l-197 -488h-90l-199 496l-16 47v-543h-115v674h170l178 -451l29 -73q19 46 31 75l178 449h164v-674zM672 1307h-228v-578h-118v578h-224v96h570v-96z" />
    <glyph glyph-name="minus" unicode="&#x2212;" horiz-adv-x="1210" 
d="M111 610v138h989v-138h-989z" />
    <glyph glyph-name="notequal" unicode="&#x2260;" horiz-adv-x="1134" 
d="M76 854v141h571l154 295h135l-154 -295h279v-141h-350l-191 -367h541v-139h-612l-150 -291h-137l149 291h-235v139h309l188 367h-497z" />
    <glyph glyph-name="lessequal" unicode="&#x2264;" horiz-adv-x="1134" 
d="M74 629v192l989 400v-146l-858 -350l858 -348v-148zM1061 0h-989v137h989v-137z" />
    <glyph glyph-name="greaterequal" unicode="&#x2265;" horiz-adv-x="1134" 
d="M74 229v148l858 348l-858 350v146l989 -400v-192zM74 0v137h989v-137h-989z" />
    <glyph glyph-name="g.alt" horiz-adv-x="1128" 
d="M109 739q0 161 108.5 260t308.5 99q155 0 267 -72l294 35v-141h-192q49 -84 49 -183q0 -172 -117 -269.5t-311 -92.5q-23 0 -33 2q-76 -19 -108.5 -51.5t-32.5 -77.5q0 -44 36 -76t114 -33l225 -4q97 0 169 -23.5t112.5 -64t59.5 -88t19 -102.5q0 -169 -139 -256.5
t-438 -87.5q-108 0 -189.5 17.5t-127.5 44.5t-75 64.5t-38 71.5t-9 72q0 91 62 154t168 88q-119 53 -119 180q0 150 197 192q-125 38 -192.5 132.5t-67.5 209.5zM688 -2l-258 2q-99 -14 -158 -60.5t-59 -117.5q0 -174 315 -174q67 0 120 4.5t106 17.5t88 34t56.5 56.5
t21.5 83.5q0 70 -60.5 111.5t-171.5 42.5zM272 739q0 -111 69.5 -178t193.5 -67q118 0 184.5 64.5t66.5 186.5q0 114 -70.5 178t-189.5 64q-118 0 -186 -65.5t-68 -182.5z" />
    <glyph glyph-name="l.alt" horiz-adv-x="559" 
d="M373 -20q-113 0 -161 52.5t-48 164.5v1396h166v-1400q0 -35 16 -52.5t55 -17.5l86 2v-137q-83 -8 -114 -8z" />
    <glyph glyph-name="zero.tnum" horiz-adv-x="1155" 
d="M897 702q0 134 -14.5 235t-40.5 167.5t-66 107.5t-87.5 58.5t-108.5 17.5q-64 0 -113 -17.5t-89.5 -59t-66.5 -108.5t-40.5 -167t-14.5 -234q0 -129 14 -227.5t40.5 -166t66.5 -110.5t89.5 -62t111.5 -19q76 0 132.5 30.5t99.5 98t65 182t22 274.5zM1065 702
q0 -157 -25.5 -281t-69 -205.5t-106.5 -135.5t-134 -77t-155 -23q-85 0 -156 23t-133.5 76.5t-105.5 136t-67.5 206t-24.5 280.5q0 164 24.5 290t67.5 207t106 132.5t134.5 72.5t159.5 21q485 0 485 -723z" />
    <glyph glyph-name="one.tnum" horiz-adv-x="1155" 
d="M174 0v141h358v1104l-315 -225v156l332 229h149v-1264h344v-141h-868z" />
    <glyph glyph-name="two.tnum" horiz-adv-x="1155" 
d="M117 0v117q20 79 72 155t117.5 138t140.5 122.5t146 119.5t129 117.5t93 127t35 139.5q0 122 -72 187t-196 65q-118 0 -195 -62.5t-92 -178.5l-170 14q22 160 139 262t318 102q208 0 323 -98.5t115 -284.5q0 -78 -34 -154t-90.5 -140t-125.5 -126t-143.5 -121.5
t-140 -115.5t-119 -120t-76.5 -124h751v-141h-925z" />
    <glyph glyph-name="three.tnum" horiz-adv-x="1155" 
d="M1047 385q0 -194 -123 -299.5t-349 -105.5q-100 0 -180 21t-133 56t-90.5 85t-56.5 103t-27 115l172 15q34 -256 315 -256q141 0 220 69.5t79 202.5q0 61 -23 107t-58.5 73t-84 44t-92 22.5t-90.5 5.5h-102v143h98q44 0 85.5 7t84.5 25t74.5 45.5t51.5 72.5t20 102
q0 117 -71 183.5t-204 66.5q-121 0 -196.5 -63t-87.5 -176l-166 12q21 178 145 271t307 93q113 0 199.5 -29t139 -80.5t78.5 -117t26 -143.5q0 -128 -72 -215.5t-221 -118.5v-4q162 -18 247 -109t85 -223z" />
    <glyph glyph-name="four.tnum" horiz-adv-x="1153" 
d="M872 0h-155v326h-664v129l647 950h172v-948h201v-131h-201v-326zM276 539l-57 -82h498v741q-8 -14 -60 -96z" />
    <glyph glyph-name="five.tnum" horiz-adv-x="1155" 
d="M1055 457q0 -218 -128 -347.5t-366 -129.5q-106 0 -190 25.5t-139 72t-88.5 104.5t-47.5 129l168 19q57 -213 301 -213q148 0 233 88t85 248q0 135 -84.5 219t-229.5 84q-154 0 -270 -105h-162l47 754h793v-141h-643l-29 -465q123 92 297 92q205 0 329 -120t124 -314z
" />
    <glyph glyph-name="six.tnum" horiz-adv-x="1155" 
d="M1051 459q0 -216 -119 -347.5t-334 -131.5q-477 0 -477 682q0 374 130 567.5t367 193.5q150 0 250.5 -65t145.5 -215l-158 -29q-58 174 -240 174q-321 0 -333 -573q36 86 129 139t219 53q192 0 306 -121t114 -327zM885 451q0 152 -75.5 239.5t-217.5 87.5
q-54 0 -102.5 -16t-92 -51t-69 -99t-25.5 -151q0 -160 79 -253t218 -93q134 0 209.5 90t75.5 246z" />
    <glyph glyph-name="seven.tnum" horiz-adv-x="1155" 
d="M1038 1270q-253 -332 -369 -626.5t-116 -643.5h-172q0 325 139.5 653t366.5 611h-768v141h919v-135z" />
    <glyph glyph-name="eight.tnum" horiz-adv-x="1155" 
d="M1051 391q0 -187 -119 -299t-357 -112q-240 0 -356.5 109t-116.5 300q0 143 83.5 235t209.5 113q-118 30 -188 115.5t-70 214.5q0 154 114 255t322 101q215 0 329 -101.5t114 -256.5q0 -125 -67 -212t-179 -114q127 -27 204 -119t77 -229zM879 393q0 60 -15 108t-49 89
t-96 63.5t-148 22.5q-152 0 -224.5 -79.5t-72.5 -205.5q0 -129 77 -208t229 -79q299 0 299 289zM844 1055q0 245 -271 245q-137 0 -202.5 -66t-65.5 -179q0 -47 12 -88t40 -80.5t83.5 -62.5t132.5 -23q68 0 118.5 16t79 40.5t45.5 60t22.5 67.5t5.5 70z" />
    <glyph glyph-name="nine.tnum" horiz-adv-x="1155" 
d="M1042 741q0 -377 -130.5 -569t-368.5 -192q-162 0 -261 70t-141 220l158 25q58 -180 246 -180q314 0 334 581q-99 -211 -353 -211q-189 0 -302 129t-113 340q0 217 121 343t339 126q233 0 352 -171t119 -511zM860 911q0 163 -77.5 270t-215.5 107q-134 0 -211 -90.5
t-77 -243.5q0 -148 75 -243t211 -95q54 0 105 18t94.5 53t69.5 93t26 131z" />
    <glyph glyph-name="G.alt" horiz-adv-x="1599" 
d="M1274 0l-2 293q-52 -146 -190 -229.5t-324 -83.5q-166 0 -292.5 53t-205.5 150t-118.5 229.5t-39.5 296.5q0 332 179 524t516 192q237 0 381 -85t217 -244l-168 -49q-58 113 -162 174t-274 61q-252 0 -381 -153t-129 -420q0 -273 130 -429.5t371 -156.5q108 0 197 36
t147 97.5t90 143t33 173.5h-411v146h587v-719h-151z" />
    <glyph glyph-name="J.alt" horiz-adv-x="1067" 
d="M485 -20q-349 0 -417 366l172 29q19 -125 86.5 -188.5t160.5 -63.5q109 0 170.5 73.5t61.5 215.5v993h174v-989q0 -204 -107.5 -320t-300.5 -116z" />
    <glyph glyph-name="A.sc" horiz-adv-x="1056" 
d="M295 319l-107 -319h-168l398 1128h205l413 -1128h-170l-110 319h-461zM586 813l-66 188l-61 -190l-121 -360h373z" />
    <glyph glyph-name="B.sc" horiz-adv-x="1110" 
d="M973 319q0 -83 -33 -146t-91.5 -100t-132.5 -55t-163 -18h-369v1128h324q399 0 399 -276q0 -97 -54.5 -165t-158.5 -91q133 -15 206 -90t73 -187zM801 330q0 194 -271 194h-178v-393h189q260 0 260 199zM735 834q0 86 -57 124.5t-174 38.5h-152v-342h152
q122 0 176.5 45.5t54.5 133.5z" />
    <glyph glyph-name="C.sc" horiz-adv-x="1236" 
d="M655 -20q-269 0 -411 161.5t-142 427.5q0 270 143.5 425t409.5 155q364 0 482 -293l-158 -49q-34 87 -116.5 144t-209.5 57q-184 0 -279 -115t-95 -322q0 -204 99.5 -326t283.5 -122q232 0 342 229l143 -63q-63 -140 -184 -224.5t-308 -84.5z" />
    <glyph glyph-name="D.sc" horiz-adv-x="1265" 
d="M991 573q0 213 -115 316.5t-313 103.5h-209v-858h242q177 0 286 114.5t109 323.5zM1163 573q0 -182 -73 -313.5t-196 -195.5t-282 -64h-428v1128h381q133 0 241 -33.5t188.5 -100t124.5 -174t44 -247.5z" />
    <glyph glyph-name="E.sc" horiz-adv-x="1058" 
d="M184 0v1128h709v-137h-539v-342h494v-137h-494v-373h547v-139h-717z" />
    <glyph glyph-name="F.sc" horiz-adv-x="1048" 
d="M354 991v-346h500v-137h-500v-508h-170v1128h707v-137h-537z" />
    <glyph glyph-name="G.sc" horiz-adv-x="1361" 
d="M670 -20q-141 0 -250.5 44t-178.5 123.5t-104 186t-35 235.5q0 270 144 425t418 155q201 0 317 -72t172 -209l-162 -45q-91 185 -329 185q-191 0 -288.5 -117.5t-97.5 -321.5t102.5 -327t297.5 -123q200 0 346 104v213h-322v137h478v-401q-87 -83 -217.5 -137.5
t-290.5 -54.5z" />
    <glyph glyph-name="H.sc" horiz-adv-x="1294" 
d="M940 0v514h-584v-514h-172v1128h172v-473h584v473h170v-1128h-170z" />
    <glyph glyph-name="I.sc" horiz-adv-x="540" 
d="M184 0v1128h172v-1128h-172z" />
    <glyph glyph-name="J.sc" horiz-adv-x="929" 
d="M401 -20q-149 0 -237 75t-115 232l166 24q17 -96 66 -143t120 -47q81 0 126.5 55t45.5 160v653h-223v139h395v-788q0 -167 -90.5 -263.5t-253.5 -96.5z" />
    <glyph glyph-name="K.sc" horiz-adv-x="1118" 
d="M889 0l-395 532l-138 -139v-393h-172v1128h172v-544l478 544h206l-432 -489l490 -639h-209z" />
    <glyph glyph-name="L.sc" horiz-adv-x="1019" 
d="M184 0v1128h170v-989h545v-139h-715z" />
    <glyph glyph-name="M.sc" horiz-adv-x="1470" 
d="M1133 0l2 899l4 84l-27 -98l-295 -885h-133l-330 864l-28 101l4 -95l2 -870h-148v1128h215l297 -788l52 -152l47 152l262 788h229v-1128h-153z" />
    <glyph glyph-name="N.sc" horiz-adv-x="1292" 
d="M903 0l-573 940q6 -31 6 -74v-866h-152v1128h197l582 -940q-9 35 -9 74v866h154v-1128h-205z" />
    <glyph glyph-name="O.sc" horiz-adv-x="1325" 
d="M1049 569q0 206 -100 324.5t-285 118.5q-190 0 -289 -118t-99 -325q0 -204 100.5 -326t285.5 -122q195 0 291 120.5t96 327.5zM1223 569q0 -269 -149.5 -429t-411.5 -160q-180 0 -308 76.5t-190 207.5t-62 303q0 270 147.5 426t412.5 156q276 0 418.5 -155.5
t142.5 -424.5z" />
    <glyph glyph-name="P.sc" horiz-adv-x="1105" 
d="M991 784q0 -156 -101 -256t-292 -100h-244v-428h-170v1128h406q198 0 299.5 -92.5t101.5 -251.5zM821 780q0 104 -63.5 158.5t-188.5 54.5h-215v-428h221q246 0 246 215z" />
    <glyph glyph-name="Q.sc" horiz-adv-x="1320" 
d="M1219 569q0 -249 -117 -402.5t-344 -180.5v-19q0 -38 12 -65t28 -41.5t43.5 -22t48.5 -9t52 -1.5h152v-139q-70 -4 -166 -4q-169 0 -252.5 70.5t-83.5 199.5v29q-238 20 -364 178t-126 407q0 268 145.5 424t411.5 156t413 -157t147 -423zM1053 569q0 203 -103.5 323
t-290.5 120q-192 0 -292.5 -118.5t-100.5 -324.5q0 -205 103 -329.5t290 -124.5q198 0 296 120.5t98 333.5z" />
    <glyph glyph-name="R.sc" horiz-adv-x="1179" 
d="M354 459v-459h-170v1128h408q194 0 298.5 -86.5t104.5 -240.5q0 -272 -266 -330l315 -471h-196l-283 459h-211zM823 797q0 96 -64.5 146t-185.5 50h-219v-403h228q241 0 241 207z" />
    <glyph glyph-name="acute.i" horiz-adv-x="505" 
d="M94 1198v2l129 303h197v-2l-217 -303h-109z" />
    <glyph glyph-name="S.sc" horiz-adv-x="999" 
d="M944 315q0 -153 -111 -244t-333 -91q-390 0 -461 299l164 30q24 -97 87.5 -145.5t209.5 -48.5q276 0 276 190q0 29 -8 52.5t-19.5 41t-36 33t-45 25.5t-60.5 21.5t-67.5 18.5t-80.5 19q-65 14 -111.5 28t-98.5 40t-84 58.5t-53.5 83.5t-21.5 116q0 151 114.5 229
t293.5 78q188 0 284 -66.5t133 -203.5l-167 -27q-23 88 -79.5 129t-181.5 41q-115 0 -171 -48t-56 -124q0 -92 82 -135q47 -25 188 -59h1h1h1l1 -1h1q167 -40 229 -68q134 -59 168 -175q12 -43 12 -97z" />
    <glyph glyph-name="T.sc" horiz-adv-x="892" 
d="M532 991v-991h-172v991h-360v137h893v-137h-361z" />
    <glyph glyph-name="U.sc" horiz-adv-x="1257" 
d="M625 -20q-201 0 -321 109t-120 325v714h170v-694q0 -155 72 -234t201 -79q274 0 274 315v692h172v-702q0 -221 -119 -333.5t-329 -112.5z" />
    <glyph glyph-name="V.sc" horiz-adv-x="1048" 
d="M623 0h-177l-426 1128h181l313 -915l23 -70l20 70l291 915h180z" />
    <glyph glyph-name="W.sc" horiz-adv-x="1548" 
d="M1214 0h-204l-217 854l-19 92l-20 -92l-217 -854h-203l-314 1128h179l223 -878l20 -94l27 114l217 858h178l217 -858l25 -114l27 106l219 866h176z" />
    <glyph glyph-name="X.sc" horiz-adv-x="1071" 
d="M864 0l-327 483l-328 -483h-189l418 588l-383 540h187l297 -434l292 434h185l-371 -538l406 -590h-187z" />
    <glyph glyph-name="Y.sc" horiz-adv-x="999" 
d="M586 467v-467h-172v467l-394 661h187l293 -524l295 524h184z" />
    <glyph glyph-name="Z.sc" horiz-adv-x="1005" 
d="M72 0v125l633 866h-588v137h780v-122l-633 -869h670v-137h-862z" />
    <glyph glyph-name="exclamdown.cap" horiz-adv-x="677" 
d="M268 1036h138l16 -796l6 -238h-182l6 238zM432 1407v-193h-184v193h184z" />
    <glyph glyph-name="exclam.cap" horiz-adv-x="677" 
d="M410 371h-138l-16 796l-6 238h182l-6 -238zM246 0v193h184v-193h-184z" />
    <glyph glyph-name="questiondown.cap" horiz-adv-x="1169" 
d="M102 365q0 72 17.5 130.5t53.5 105t68 76t83 68.5q4 3 23 17.5t24 18t21.5 16.5t22.5 18.5t20 17.5t20.5 19t17.5 19t17.5 21t14 21t13.5 23q27 59 27 117h160q0 -69 -23 -133q-44 -114 -199 -238q-10 -8 -38.5 -31t-39.5 -31.5t-34 -30t-33 -34.5t-25.5 -35.5
t-21.5 -42.5t-11.5 -46.5t-5.5 -55.5q0 -115 84.5 -181.5t214.5 -66.5q150 0 232.5 72.5t91.5 197.5l162 -14q-4 -61 -23.5 -118t-59 -110t-94.5 -92t-136.5 -62.5t-178.5 -23.5q-205 0 -335 106.5t-130 281.5zM715 1405v-193h-185v193h185z" />
    <glyph glyph-name="question.cap" horiz-adv-x="1169" 
d="M1067 1038q0 -72 -17.5 -131t-53 -105.5t-67.5 -76.5t-83 -68q-6 -5 -28.5 -21.5t-30 -22.5t-26.5 -21t-27.5 -23t-23.5 -22.5t-23.5 -25.5t-18.5 -25.5t-17 -28.5q-26 -57 -26 -117h-160q0 72 22 133q44 114 199 238q10 8 38.5 31t39.5 31.5t34 30t33 34.5t25.5 35.5
t21.5 42.5t11.5 46.5t5.5 55.5q0 115 -84.5 181.5t-214.5 66.5q-150 0 -232.5 -72.5t-91.5 -197.5l-161 14q5 77 36 147t88 129t151.5 94t215.5 35q205 0 335 -106t130 -281zM455 -2v192h184v-192h-184z" />
    <glyph glyph-name="periodcentered.cap" horiz-adv-x="583" 
d="M188 625v215h207v-215h-207z" />
    <glyph glyph-name="braceleft.sc" horiz-adv-x="841" 
d="M698 -162h-174q-102 0 -160.5 58.5t-58.5 150.5v283q0 82 -33 116.5t-129 34.5v150q97 0 129.5 36.5t32.5 125.5v276q0 92 53.5 154.5t161.5 62.5h178v-119h-118q-65 0 -91 -35.5t-26 -113.5v-264q0 -82 -27.5 -125.5t-99.5 -63.5v-2q62 -12 94.5 -54.5t32.5 -107.5v-323
q0 -62 23.5 -91.5t84.5 -29.5h127v-119z" />
    <glyph glyph-name="braceright.sc" horiz-adv-x="841" 
d="M317 -162h-174v119h127q62 0 85.5 29.5t23.5 91.5v323q0 65 32.5 107.5t94.5 54.5v2q-72 20 -99.5 63.5t-27.5 125.5v264q0 78 -26 113.5t-91 35.5h-119v119h179q108 0 161.5 -62.5t53.5 -154.5v-276q0 -90 32 -126t129 -36v-150q-96 0 -128.5 -34.5t-32.5 -116.5v-283
q0 -92 -59 -150.5t-161 -58.5z" />
    <glyph glyph-name="bracketleft.sc" horiz-adv-x="761" 
d="M205 -162v1448h393v-121h-236v-1208h236v-119h-393z" />
    <glyph glyph-name="bracketright.sc" horiz-adv-x="761" 
d="M557 -162h-393v119h233v1208h-233v121h393v-1448z" />
    <glyph glyph-name="parenleft.sc" horiz-adv-x="655" 
d="M418 -162q-254 301 -254 742q0 219 62 385t186 317h139q-111 -179 -166 -336t-55 -362q0 -220 59.5 -394.5t183.5 -351.5h-155z" />
    <glyph glyph-name="parenright.sc" horiz-adv-x="655" 
d="M238 -162h-156q124 177 184 351.5t60 394.5q0 205 -55 361.5t-167 336.5l140 2q124 -153 186 -319t62 -385q0 -441 -254 -742z" />
    <glyph glyph-name="slash.sc" horiz-adv-x="780" 
d="M123 -162l373 1424h161l-368 -1424h-166z" />
    <glyph glyph-name="backslash.sc" horiz-adv-x="780" 
d="M285 1262l372 -1424h-165l-369 1424h162z" />
    <glyph glyph-name="bar.sc" horiz-adv-x="1146" 
d="M498 -162v1424h151v-1424h-151z" />
    <glyph glyph-name="brokenbar.sc" horiz-adv-x="1146" 
d="M498 -162v598h151v-598h-151zM498 702v560h151v-560h-151z" />
    <glyph glyph-name="exclam.sc" horiz-adv-x="677" 
d="M410 328h-138l-16 524l-8 276h184l-8 -276zM246 0v193h184v-193h-184z" />
    <glyph glyph-name="exclamdown.sc" horiz-adv-x="677" 
d="M268 801h138l16 -525l8 -276h-184l8 276zM432 1128v-192h-184v192h184z" />
    <glyph glyph-name="question.sc" horiz-adv-x="1003" 
d="M901 807q0 -107 -39.5 -176t-107.5 -119q-22 -16 -67 -43.5t-64 -42.5q-64 -47 -64 -98h-160q0 57 27 106q14 26 41 53t45 40.5t57 41.5q42 28 64.5 45.5t51 47.5t41.5 65.5t13 79.5q0 85 -60 139.5t-177 54.5q-107 0 -172.5 -57.5t-75.5 -163.5l-152 13q5 69 30 130
t72 113t127 82.5t183 30.5q99 0 176 -30t121.5 -80.5t67 -109.5t22.5 -122zM385 0v193h184v-193h-184z" />
    <glyph glyph-name="questiondown.sc" horiz-adv-x="1003" 
d="M102 322q0 107 40 175.5t108 118.5q22 16 67 43.5t64 42.5q63 46 63 99h160q0 -60 -26 -107q-14 -26 -41.5 -53.5t-44.5 -40t-58 -41.5q-42 -28 -64.5 -45.5t-51 -47t-41.5 -65t-13 -79.5q0 -85 60.5 -140t177.5 -55q107 0 172.5 57.5t75.5 163.5l151 -12
q-5 -69 -30 -130t-72 -113t-127 -82.5t-183 -30.5q-99 0 -176 30t-121.5 80.5t-67 109.5t-22.5 122zM618 1128v-192h-184v192h184z" />
    <glyph glyph-name="copyleft" horiz-adv-x="1548" 
d="M51 707q0 197 96.5 363.5t263 263t363.5 96.5q196 0 362.5 -96.5t263.5 -263t97 -363.5q0 -196 -97.5 -362.5t-264 -263.5t-361.5 -97q-197 0 -363.5 97t-263 263.5t-96.5 362.5zM143 707q0 -170 84.5 -315t230 -229.5t316.5 -84.5q128 0 244 49.5t200 133.5t133.5 200.5
t49.5 245.5q0 171 -84 315.5t-228.5 228.5t-314.5 84q-128 0 -245 -50t-201.5 -134t-134.5 -200.5t-50 -243.5zM1030 709q0 151 -64.5 235t-197.5 84q-86 0 -143.5 -39t-79.5 -98l-115 33q97 209 340 209q191 0 290 -112.5t99 -311.5q0 -197 -100 -313.5t-297 -116.5
q-240 0 -346 225l114 35q80 -156 232 -156q131 0 199.5 88t68.5 238z" />
    <glyph glyph-name="braceleft.cap" horiz-adv-x="845" 
d="M743 -143h-137q-125 0 -189.5 76t-64.5 210v238q0 120 -52.5 176t-156.5 59v119q209 6 209 236v297q0 136 63.5 210t190.5 74h137v-120h-59q-89 0 -127.5 -52t-38.5 -161v-287q0 -98 -55.5 -165.5t-140.5 -88.5v-2q89 -21 142.5 -88t53.5 -166v-252q0 -100 38.5 -147.5
t127.5 -47.5h59v-118z" />
    <glyph glyph-name="braceright.cap" horiz-adv-x="845" 
d="M240 -143h-138v118h60q89 0 127.5 47.5t38.5 147.5v252q0 99 53.5 166t142.5 88v2q-85 21 -140.5 88.5t-55.5 165.5v287q0 109 -38.5 161t-127.5 52h-60v120h138q127 0 190.5 -74t63.5 -210v-297q0 -120 52.5 -176.5t155.5 -59.5v-119q-104 -3 -156 -59t-52 -176v-238
q0 -134 -64.5 -210t-189.5 -76z" />
    <glyph glyph-name="bracketleft.cap" horiz-adv-x="741" 
d="M205 -145v1697h393v-120h-227v-1459h227v-118h-393z" />
    <glyph glyph-name="bracketright.cap" horiz-adv-x="741" 
d="M537 1552v-1697h-394v120h228v1459h-228v118h394z" />
    <glyph glyph-name="parenleft.cap" horiz-adv-x="671" 
d="M406 -141q-124 185 -183 376.5t-59 448.5q0 494 258 866l168 2q-124 -178 -190 -400t-66 -464q0 -244 59 -441t189 -388h-176z" />
    <glyph glyph-name="parenright.cap" horiz-adv-x="671" 
d="M266 -141h-176q130 191 189 388t59 441q0 242 -66 464t-190 400l168 -2q258 -372 258 -866q0 -257 -59 -448.5t-183 -376.5z" />
    <glyph glyph-name="guilsinglleft.cap" horiz-adv-x="776" 
d="M471 338l-348 395v4l348 396h182v-3l-344 -395l344 -395v-2h-182z" />
    <glyph glyph-name="guillemotleft.cap" horiz-adv-x="1232" 
d="M928 338l-348 395v4l348 396h182v-3l-344 -395l344 -395v-2h-182zM471 338l-348 395v4l348 396h182v-3l-344 -395l344 -395v-2h-182z" />
    <glyph glyph-name="guillemotright.cap" horiz-adv-x="1232" 
d="M1110 735l-348 -395h-182v2l344 395l-344 396v2h182l348 -396v-4zM653 735l-348 -395h-182v2l344 395l-344 396v2h182l348 -396v-4z" />
    <glyph glyph-name="guilsinglright.cap" horiz-adv-x="776" 
d="M653 735l-348 -395h-182v2l344 395l-344 396v2h182l348 -396v-4z" />
    <glyph glyph-name="hyphen.cap" horiz-adv-x="743" 
d="M123 655v148h498v-148h-498z" />
    <glyph glyph-name="endash.cap" horiz-adv-x="1146" 
d="M0 668v127h1147v-127h-1147z" />
    <glyph glyph-name="emdash.cap" horiz-adv-x="2041" 
d="M0 668v127h2042v-127h-2042z" />
    <glyph glyph-name="bullet.cap" horiz-adv-x="892" 
d="M688 780q0 -99 -73 -171t-173 -72q-97 0 -167 71.5t-70 171.5q0 99 70 169.5t167 70.5q100 0 173 -70.5t73 -169.5z" />
    <glyph glyph-name="dblgrave" horiz-adv-x="964" 
d="M530 1198h-143l-309 303v2h227l225 -303v-2zM877 1198h-144l-309 303v2h227l226 -303v-2z" />
    <glyph glyph-name="lslash.alt" horiz-adv-x="552" 
d="M373 -20q-113 0 -161 52.5t-48 164.5v405l-105 -92h-12v168l117 100v815h166v-669l131 114h2v-168l-133 -118v-559q0 -35 16 -52.5t55 -17.5l86 2v-137q-83 -8 -114 -8z" />
    <glyph glyph-name="quoteleft.sc" horiz-adv-x="438" 
d="M102 844q0 101 21.5 162.5t71.5 142.5h141v-2q-96 -130 -96 -256h69v-215h-207v168z" />
    <glyph glyph-name="quotedblleft.sc" horiz-adv-x="753" 
d="M418 844q0 101 21 163t71 142h141v-2q-96 -130 -96 -256h70v-215h-207v168zM102 844q0 101 21.5 162.5t71.5 142.5h141v-2q-96 -130 -96 -256h69v-215h-207v168z" />
    <glyph glyph-name="quoteright.sc" horiz-adv-x="438" 
d="M336 981q0 -101 -21 -163t-71 -142h-142v2q97 131 97 256h-70v215h207v-168z" />
    <glyph glyph-name="quotedblright.sc" horiz-adv-x="753" 
d="M651 981q0 -101 -21 -163t-71 -142h-141v2q96 130 96 256h-70v215h207v-168zM336 981q0 -101 -21 -163t-71 -142h-142v2q97 131 97 256h-70v215h207v-168z" />
    <glyph glyph-name="quotesingle.sc" horiz-adv-x="376" 
d="M252 707h-129l-21 442h172z" />
    <glyph glyph-name="quotedbl.sc" horiz-adv-x="735" 
d="M252 707h-129l-21 442h172zM610 707h-129l-20 442h172z" />
    <glyph glyph-name="commaaccent" horiz-adv-x="405" 
d="M303 1475q0 -85 -20.5 -143t-63.5 -107h-117v2q95 105 95 188h-88v164h194v-104z" />
    <glyph glyph-name="acute.cap" horiz-adv-x="618" 
d="M102 1491v2l211 303h203v-2l-285 -303h-129z" />
    <glyph glyph-name="acute.i_cap" horiz-adv-x="505" 
d="M102 1491v2l121 303h180v-2l-200 -303h-101z" />
    <glyph glyph-name="breve.cap" horiz-adv-x="870" 
d="M434 1493q-145 0 -237.5 91.5t-94.5 217.5h125q17 -83 68.5 -117t140.5 -34t139.5 34.5t67.5 116.5h125q0 -121 -94.5 -215t-239.5 -94z" />
    <glyph glyph-name="caron.cap" horiz-adv-x="856" 
d="M535 1493h-201l-232 283v2h142l190 -168h2l178 168h140v-2z" />
    <glyph glyph-name="cedilla.cap" horiz-adv-x="565" 
d="M463 -276q0 -179 -270 -179q-58 0 -91 4v97q50 -6 86 -6q150 0 150 84q0 75 -135 75q-27 0 -58 -2l66 183h102l-39 -103q93 -3 141 -42.5t48 -110.5z" />
    <glyph glyph-name="commaaccent.cap" horiz-adv-x="405" 
d="M303 1704q0 -85 -20.5 -143t-63.5 -107h-117v2q95 105 95 189h-88v163h194v-104z" />
    <glyph glyph-name="circumflex.cap" horiz-adv-x="856" 
d="M754 1491h-140l-178 168h-2l-190 -168h-142v2l232 283h201l219 -283v-2z" />
    <glyph glyph-name="dieresis.cap" horiz-adv-x="749" 
d="M102 1509v181h160v-181h-160zM489 1509v181h158v-181h-158z" />
    <glyph glyph-name="dotaccent.cap" horiz-adv-x="385" 
d="M102 1497v172h181v-172h-181z" />
    <glyph glyph-name="grave.cap" horiz-adv-x="620" 
d="M389 1491l-287 303v2h203l213 -303v-2h-129z" />
    <glyph glyph-name="dblgrave.cap" horiz-adv-x="964" 
d="M862 1491h-129l-284 303v2h202l211 -303v-2zM516 1491h-129l-285 303v2h203l211 -303v-2z" />
    <glyph glyph-name="hungarumlaut.cap" horiz-adv-x="974" 
d="M102 1493v2l217 305h207v-2l-329 -305h-95zM449 1493v2l217 305h206v-2l-329 -305h-94z" />
    <glyph glyph-name="macron.cap" horiz-adv-x="1202" 
d="M1100 1608h-998v108h998v-108z" />
    <glyph glyph-name="ogonek.cap" horiz-adv-x="555" 
d="M313 -426q-103 0 -157 49t-54 137q0 82 51.5 147.5t104.5 92.5h133q-58 -31 -102.5 -93.5t-44.5 -133.5q0 -42 25 -66t69 -24q48 0 115 24v-106q-66 -27 -140 -27z" />
    <glyph glyph-name="ring.cap" horiz-adv-x="688" 
d="M477 1702q0 57 -38 96t-95 39t-96 -39t-39 -96t39 -96t96 -39t95 39t38 96zM586 1702q0 -99 -71.5 -170.5t-170.5 -71.5t-170.5 71.5t-71.5 170.5q0 102 71 172t171 70t171 -70t71 -172z" />
    <glyph glyph-name="tilde.cap" horiz-adv-x="913" 
d="M621 1491q-41 0 -89 19t-84 41.5t-77 41.5t-70 19q-46 0 -71 -26t-25 -75v-20h-103v39q0 100 47.5 163.5t141.5 63.5q43 0 91.5 -18.5t84 -41t76.5 -41t71 -18.5q44 0 67.5 29t23.5 80v10h106v-39q0 -113 -45.5 -170t-144.5 -57z" />
    <glyph glyph-name="IJ.alt" horiz-adv-x="1529" 
d="M174 0v1405h176v-1405h-176zM950 -20q-350 0 -418 366l173 29q19 -125 86.5 -188.5t160.5 -63.5q109 0 170.5 73.5t61.5 215.5v993h174v-989q0 -204 -107.5 -320t-300.5 -116z" />
    <glyph glyph-name="acute.sc" horiz-adv-x="618" 
d="M88 1198v2l225 303h228v-2l-310 -303h-143z" />
    <glyph glyph-name="acute_i.sc" horiz-adv-x="505" 
d="M94 1198v2l129 303h197v-2l-217 -303h-109z" />
    <glyph glyph-name="breve.sc" horiz-adv-x="870" 
d="M434 1200q-145 0 -237.5 91.5t-94.5 217.5h125q17 -83 68.5 -117t140.5 -34t139.5 34.5t67.5 116.5h125q0 -121 -94.5 -215t-239.5 -94z" />
    <glyph glyph-name="caron.sc" horiz-adv-x="856" 
d="M770 1483l-235 -283h-201l-248 283v2h158l190 -168h2l178 168h156v-2z" />
    <glyph glyph-name="cedilla.sc" horiz-adv-x="565" 
d="M463 -256q0 -178 -270 -178q-58 0 -91 4v96q50 -6 86 -6q150 0 150 84q0 76 -135 76q-27 0 -58 -2l66 182h102l-39 -102q93 -3 141 -43t48 -111z" />
    <glyph glyph-name="commaaccent.sc" horiz-adv-x="405" 
d="M303 1475q0 -85 -20.5 -143t-63.5 -107h-117v2q95 105 95 188h-88v164h194v-104z" />
    <glyph glyph-name="circumflex.sc" horiz-adv-x="856" 
d="M770 1200v-2h-156l-178 168h-2l-190 -168h-160v2l250 283h201z" />
    <glyph glyph-name="dieresis.sc" horiz-adv-x="790" 
d="M102 1217v180h160v-180h-160zM530 1217v180h158v-180h-158z" />
    <glyph glyph-name="dotaccent.sc" horiz-adv-x="385" 
d="M102 1202v172h181v-172h-181z" />
    <glyph glyph-name="grave.sc" horiz-adv-x="620" 
d="M389 1198l-313 303v2h229l227 -303v-2h-143z" />
    <glyph glyph-name="dblgrave.sc" horiz-adv-x="964" 
d="M530 1198h-143l-311 303v2h229l225 -303v-2zM860 1198h-127l-311 303v2h229l209 -303v-2z" />
    <glyph glyph-name="hungarumlaut.sc" horiz-adv-x="974" 
d="M88 1200v2l231 305h240v-2l-362 -305h-109zM434 1200v2l232 305h239v-2l-362 -305h-109z" />
    <glyph glyph-name="macron.sc" horiz-adv-x="1056" 
d="M954 1280h-852v113h852v-113z" />
    <glyph glyph-name="ogonek.sc" horiz-adv-x="555" 
d="M313 -426q-103 0 -157 49t-54 137q0 82 51.5 147.5t104.5 92.5h133q-58 -31 -102.5 -93.5t-44.5 -133.5q0 -42 25 -66t69 -24q48 0 115 24v-106q-66 -27 -140 -27z" />
    <glyph glyph-name="ring.sc" horiz-adv-x="688" 
d="M477 1337q0 57 -38 96.5t-95 39.5t-96 -39.5t-39 -96.5t39 -96t96 -39t95 39t38 96zM586 1337q0 -99 -71 -170t-171 -71t-171 71t-71 170q0 102 71 172t171 70t171 -70t71 -172z" />
    <glyph glyph-name="tilde.sc" horiz-adv-x="913" 
d="M621 1198q-41 0 -89 19t-84 41.5t-77 41.5t-70 19q-46 0 -71 -25.5t-25 -74.5v-21h-103v39q0 100 47.5 163.5t141.5 63.5q54 0 115.5 -29.5t116.5 -59t91 -29.5q44 0 67.5 28.5t23.5 79.5v10h106v-39q0 -113 -45.5 -170t-144.5 -57z" />
    <glyph glyph-name="AE.sc" horiz-adv-x="1626" 
d="M188 0h-168l535 1128h895v-137h-528v-342h493v-137h-493v-373h546v-139h-716v319h-418zM561 811l-166 -360h357v542h-105z" />
    <glyph glyph-name="Oslash.sc" horiz-adv-x="1327" 
d="M1223 569q0 -269 -149.5 -429t-411.5 -160q-195 0 -322 83l-68 -83h-170l140 170q-140 158 -140 417q0 270 147.5 426t412.5 156q196 0 329 -82l66 80h166l-133 -164q133 -154 133 -414zM276 569q0 -176 72 -288l543 663q-93 68 -227 68q-190 0 -289 -118t-99 -325z
M1049 569q0 166 -70 281l-541 -666q91 -63 224 -63q195 0 291 120.5t96 327.5z" />
    <glyph glyph-name="G.alt_sc" horiz-adv-x="1368" 
d="M635 -20q-135 0 -238.5 43.5t-167 123t-95.5 185t-32 235.5q0 269 144.5 425.5t419.5 156.5q374 0 493 -281l-168 -49q-86 187 -327 187q-190 0 -286.5 -116.5t-96.5 -320.5q0 -207 96.5 -326.5t281.5 -119.5q160 0 253.5 94t101.5 232h-312v139h482v-588h-152l-2 219
q-39 -109 -143.5 -174t-251.5 -65z" />
    <glyph glyph-name="J.alt_sc" horiz-adv-x="937" 
d="M403 -20q-297 0 -350 309l168 28q13 -95 62.5 -143.5t119.5 -48.5q82 0 126 54t44 159v790h181v-784q0 -169 -92.5 -266.5t-258.5 -97.5z" />
    <glyph glyph-name="Lslash.sc" horiz-adv-x="1001" 
d="M37 291v141l147 127v569h170v-423l185 159v-141l-185 -160v-424h545v-139h-715v418z" />
    <glyph glyph-name="Eng.sc" horiz-adv-x="1292" 
d="M903 0l-573 940q6 -31 6 -74v-866h-152v1128h197l582 -940q-9 35 -9 74v866h154v-1255q0 -134 -47.5 -200t-173.5 -66q-1 0 -61.5 -0.5t-61.5 0.5v143h88q54 0 77 26.5t23 94.5v129h-49z" />
    <glyph glyph-name="OE.sc" horiz-adv-x="1787" 
d="M913 0v115q-148 -135 -387 -135q-136 0 -243 43.5t-175.5 122.5t-104.5 186t-36 235q0 270 147.5 426t411.5 156q245 0 387 -127v106h709v-137h-539v-332v-10h494v-137h-492q-2 -10 -2 -29v-344h547v-139h-717zM913 569v21q-5 197 -105 309.5t-280 112.5
q-190 0 -288.5 -118t-98.5 -325q0 -205 100 -326.5t285 -121.5q195 0 291 120.5t96 327.5z" />
    <glyph glyph-name="Thorn.sc" horiz-adv-x="1105" 
d="M991 586q0 -156 -101 -256.5t-292 -100.5h-244v-229h-170v1128h172l4 -198h230q198 0 299.5 -92.5t101.5 -251.5zM821 582q0 104 -63.5 158.5t-188.5 54.5h-215v-428h221q246 0 246 215z" />
    <glyph glyph-name="Tbar.sc" horiz-adv-x="892" 
d="M532 991v-364h240v-113h-240v-514h-172v514h-235v113h235v364h-360v137h893v-137h-361z" />
    <glyph glyph-name="IJ.sc" horiz-adv-x="1452" 
d="M184 0v1128h172v-1128h-172zM922 -20q-299 0 -353 307l166 24q17 -96 66.5 -143t120.5 -47q81 0 126.5 55t45.5 160v653h-224v139h396v-788q0 -167 -90.5 -263.5t-253.5 -96.5z" />
    <glyph glyph-name="Dcroat.sc" horiz-adv-x="1312" 
d="M1163 573q0 -182 -73 -313.5t-196 -195.5t-282 -64h-428v514h-164v113h164v501h381q133 0 241 -33.5t188.5 -100t124.5 -174t44 -247.5zM991 573q0 213 -115 316.5t-313 103.5h-209v-366h314v-113h-314v-379h242q177 0 286 114.5t109 323.5z" />
    <glyph glyph-name="Eth.sc" horiz-adv-x="1312" 
d="M1163 573q0 -182 -73 -313.5t-196 -195.5t-282 -64h-428v514h-164v113h164v501h381q133 0 241 -33.5t188.5 -100t124.5 -174t44 -247.5zM991 573q0 213 -115 316.5t-313 103.5h-209v-366h314v-113h-314v-379h242q177 0 286 114.5t109 323.5z" />
    <glyph glyph-name="Hbar.sc" horiz-adv-x="1329" 
d="M940 0v514h-584v-514h-172v817h-176v113h176v198h172v-198h584v198h170v-198h154v-113h-154v-817h-170zM356 655h584v162h-584v-162z" />
    <glyph glyph-name="IJ.alt_sc" horiz-adv-x="1452" 
d="M184 0v1128h172v-1128h-172zM924 -20q-298 0 -351 309l168 28q13 -95 63 -143.5t120 -48.5q82 0 126 54t44 159v790h180v-784q0 -169 -92 -266.5t-258 -97.5z" />
    <glyph glyph-name="ass_basica" horiz-adv-x="11022" 
d="M6138 541q0 -144 43.5 -251.5t125 -173.5t192 -98t251.5 -32q293 0 453 141t160 430v879h-328v-863q0 -337 -281 -337q-140 0 -214 81.5t-74 245.5v873h-328v-895zM8327 0h330v725q0 64 -10 119t-35 106.5t-65 88t-103.5 58t-145.5 21.5q-124 0 -215.5 -60.5
t-126.5 -185.5q-2 17 -8.5 109t-11.5 117h-309q10 -102 10 -254v-844h319v582q0 134 53.5 212t153.5 78q90 0 127 -56t37 -173v-643zM9472 0q122 0 221 23.5t175 72t117.5 128.5t41.5 186q0 143 -88 235.5t-250 112.5q258 58 258 315q0 180 -135 271.5t-391 91.5h-492v-1436
h543zM9394 1198q120 0 174 -39t54 -129q0 -89 -54.5 -128.5t-173.5 -39.5h-141v336h141zM9433 621q262 0 262 -183q0 -107 -65 -151.5t-191 -44.5h-186v379h180zM4348 1067l795 571v-2207h-2501v1001q199 0 373 23q284 42 485 133q491 219 848 479zM795 1067l-795 571v-2207
h2501v1001q-200 0 -371 23q-289 42 -481 133q-491 215 -854 479zM2642 2003h2501v-188l-883 -635q-390 -280 -821 -463q-214 -98 -441 -125q-222 -19 -356 -19v1430zM2501 2003h-2501v-188l881 -635q407 -287 823 -463q215 -99 442 -125q218 -19 355 -19v1430z" />
    <glyph glyph-name="ass_basica_vertical" horiz-adv-x="6164" 
d="M715 539q0 -144 44 -252t126.5 -174.5t193.5 -99.5t250 -33q300 0 459.5 142.5t159.5 434.5v879h-330v-856q0 -177 -68.5 -257.5t-214.5 -80.5q-291 0 -291 329v865h-329v-897zM2920 0h328v733q0 391 -352 391q-126 0 -220.5 -62t-131.5 -185q0 45 -6.5 119t-12.5 106
h-301q0 -27 2 -111t2 -145v-846h320v584q0 138 54.5 215.5t152.5 77.5q91 0 128 -55.5t37 -178.5v-643zM4071 0q123 0 223 24.5t175 73.5t116 129.5t41 186.5q0 144 -88 235t-254 113q263 68 263 309q0 181 -136.5 273t-390.5 92h-489v-1436h540zM3990 1200q119 0 173 -38.5
t54 -125.5q0 -90 -53.5 -128t-173.5 -38h-144v330h144zM4030 621q265 0 265 -185q0 -106 -65 -150t-187 -44h-197v379h184zM4372 3793l797 575v-2218h-2515v1006q227 0 375 22q270 36 487 134q470 205 856 481zM799 3793l-799 575v-2218h2515v1006q-228 0 -373 22
q-270 36 -487 134q-473 205 -856 481zM2654 4733h2515v-188l-885 -637q-360 -264 -825 -469q-231 -98 -446 -123q-199 -17 -359 -17v1434zM2515 4733h-2515v-188l885 -637q387 -274 825 -469q236 -99 449 -123q195 -17 356 -17v1434z" />
    <glyph glyph-name="ass_completa" horiz-adv-x="31119" 
d="M4350 1065l795 575v-2209h-2505v1001q201 0 375 23q292 42 483 133q456 195 852 477zM795 1065l-795 575v-2209h2503v1001q-202 0 -373 23q-286 41 -483 133q-460 198 -852 477zM2640 2003h2505v-191l-881 -632q-375 -269 -823 -467q-235 -98 -443 -119
q-153 -16 -358 -16v1425zM2503 2003h-2503v-191l881 -632q386 -273 823 -467q235 -98 442 -119q153 -16 357 -16v1425zM23517 6q122 0 221 24t174 72.5t116.5 128t41.5 185.5q0 143 -89 235t-251 109q254 69 254 311q0 179 -134 270t-384 91h-494v-1426h545zM15061 6h309
q-6 29 -6 242v1358h-321v-490q0 -46 3 -111t3 -77h-6q-37 96 -125.5 145t-210.5 49q-207 0 -313.5 -149t-106.5 -414q0 -123 22.5 -224t69 -181.5t125.5 -125t186 -44.5q261 0 353 202h6q0 -24 6 -101t6 -79zM17539 6h311q-10 48 -10 242v1358h-319v-678q-41 96 -127 145
t-207 49q-207 0 -313.5 -149t-106.5 -414q0 -123 22.5 -224t69 -181.5t125.5 -125t186 -44.5q262 0 351 202h6q0 -24 6 -101t6 -79zM20584 6h310q-6 29 -6 242v1358h-322v-490q0 -46 3 -111t3 -77h-6q-37 95 -124.5 144.5t-203.5 49.5q-211 0 -315.5 -148t-104.5 -415
q0 -124 21.5 -224.5t66.5 -181t124 -125t186 -44.5q258 0 350 202h6q0 -24 6 -101t6 -79zM6140 543q0 -144 43 -252t124 -174.5t191.5 -99.5t251.5 -33q293 0 455 142.5t162 432.5v873h-330v-850q0 -175 -71 -257.5t-212 -82.5q-139 0 -212.5 81.5t-73.5 247.5v861h-328
v-889zM26143 207h-76q-45 0 -63.5 20t-18.5 60v432q0 199 -109 301t-339 102q-217 0 -334 -90t-131 -244l292 -22q0 77 41.5 119.5t114.5 42.5q77 0 116.5 -41t39.5 -133v-92h-111q-274 0 -406 -82.5t-132 -268.5q0 -64 22 -121.5t64 -104t112 -74t158 -27.5
q115 0 199.5 50.5t121.5 151.5q0 -97 73 -149.5t192 -52.5q31 0 57.5 1.5t59 4.5t57.5 4v213zM30124 207h-76q-41 0 -58.5 20t-17.5 60v432q0 403 -448 403q-218 0 -334.5 -89.5t-134.5 -244.5l293 -22q0 78 42 120t120 42q75 0 114 -41t39 -133v-92h-110q-277 0 -408 -82
t-131 -269q0 -64 21 -121.5t62.5 -104t110 -74t156.5 -27.5q118 0 201.5 50t120.5 152q4 -97 77 -149.5t187 -52.5q34 0 60 1.5t57.5 4.5t56.5 4v213zM16660 207h-75q-45 0 -63.5 20t-18.5 60v432q0 403 -443 403q-221 0 -340 -90t-133 -244l293 -22q0 77 42 119.5t116 42.5
q77 0 116.5 -41t39.5 -133v-92h-105q-277 0 -409 -82t-132 -269q0 -64 21.5 -121.5t63 -104t110 -74t156.5 -27.5q117 0 201.5 50.5t121.5 151.5q4 -98 74.5 -150t189.5 -52q31 0 57.5 1.5t59 4.5t57.5 4v213zM21111 559q0 -286 137.5 -430.5t398.5 -144.5q97 0 174.5 18.5
t129 49t89 75.5t58 91.5t33.5 103.5l-303 18q-14 -78 -55 -114t-119 -36q-105 0 -153 79.5t-48 197.5v29h696v92q0 534 -502 534q-91 0 -168.5 -17.5t-146.5 -58.5t-117 -104.5t-76 -161t-28 -221.5zM10613 559q0 -286 135 -430.5t391 -144.5q99 0 177 19t129.5 49
t89.5 75.5t58.5 91t35.5 103.5l-304 18q-14 -78 -55 -114t-119 -36q-102 0 -151 80t-49 197v29h690q6 47 6 92q0 534 -502 534q-91 0 -168 -17.5t-145.5 -58.5t-116 -104.5t-75 -160.5t-27.5 -222zM18070 559q0 -286 136 -430.5t392 -144.5q122 0 212 27t143.5 77
t82.5 105.5t45 128.5l-299 18q-26 -150 -172 -150q-56 0 -97 23t-63.5 64t-32.5 88t-10 102v29h691q6 47 6 92q0 534 -500 534q-92 0 -169 -17.5t-146 -58.5t-116.5 -104.5t-75 -160.5t-27.5 -222zM8331 6h328v725q0 64 -10 119t-35 106t-64.5 87t-102.5 57.5t-144 21.5
q-122 0 -216 -62t-135 -186q0 36 -6 122.5t-6 103.5h-309q6 -63 6 -254v-840h322v582q0 135 53.5 210.5t152.5 75.5q91 0 128.5 -54.5t37.5 -174.5v-639zM26696 -16q229 0 349 93.5t120 262.5q0 66 -19.5 117.5t-50.5 86t-83 62t-105 44.5t-127 34q-108 26 -159.5 48.5
t-66 44t-14.5 59.5q0 37 34 61.5t103 24.5t115.5 -35.5t50.5 -98.5l293 23q-18 138 -137.5 224.5t-308.5 86.5q-211 0 -325 -91t-114 -243q0 -139 81 -221.5t282 -128.5q135 -31 182 -59t47 -80q0 -109 -153 -109q-88 0 -132 43t-49 107l-293 -35q8 -52 27.5 -97.5t57.5 -87
t90.5 -71.5t130.5 -47.5t174 -17.5zM13091 -16q230 0 350.5 93t120.5 263q0 66 -19.5 117.5t-50.5 86t-83 62t-105 44.5t-127 34q-108 26 -160 48.5t-67 44t-15 59.5q0 37 34.5 61.5t102.5 24.5q71 0 117.5 -35.5t50.5 -98.5l293 23q-18 138 -137.5 224.5t-310.5 86.5
q-210 0 -323.5 -91t-113.5 -243q0 -139 81 -221.5t282 -128.5q135 -31 182 -59t47 -80q0 -109 -155 -109q-87 0 -130.5 42.5t-52.5 107.5l-288 -35q10 -66 40 -121t84 -101.5t144.5 -72.5t208.5 -26zM10181 6l378 1094h-317l-172 -582l-76 -266l-73 266l-191 582h-315
l391 -1094h375zM27924 6h324v1600h-324v-1600zM11864 6h324v565q0 130 60 205.5t181 75.5q64 0 111 -6v270q-31 6 -70 6q-120 0 -191.5 -62t-94.5 -167q-15 178 -25 207h-305q3 -18 6.5 -111.5t3.5 -146.5v-836zM24289 6h322v565q0 130 60.5 205.5t180.5 75.5q64 0 111 -6
v270q-29 6 -70 6q-120 0 -191.5 -62t-94.5 -167q-2 27 -7 77.5t-8.5 86t-3.5 43.5h-309q10 -42 10 -258v-836zM27357 6h322v1094h-322v-1094zM13752 6h318v1094h-318v-1094zM28518 6h316v1094h-316v-1094zM8931 6h316v1094h-316v-1094zM17527 565q0 -102 -18.5 -175.5
t-51.5 -113t-70.5 -57.5t-82.5 -18q-203 0 -203 358q0 179 51.5 262.5t157.5 83.5q42 0 78 -16t69 -52t51.5 -105.5t18.5 -166.5zM15049 565q0 -82 -13 -146.5t-34.5 -104.5t-50.5 -66t-59 -36.5t-62 -10.5q-107 0 -157 88.5t-50 269.5q0 346 207 346q42 0 78 -16t69 -52
t52.5 -105.5t19.5 -166.5zM20572 565q0 -101 -19 -175.5t-52 -113.5t-69.5 -57t-78.5 -18q-207 0 -207 358q0 346 207 346q42 0 78.5 -16t69.5 -52t52 -105.5t19 -166.5zM23472 621q124 0 194 -41.5t70 -141.5q0 -196 -252 -196h-190v379h178zM23437 1198q116 0 171 -37
t55 -125q0 -90 -54 -131t-172 -41h-143v334h143zM13752 1237h318v299h-318v-299zM8931 1237h316v299h-316v-299zM28518 1237h316v299h-316v-299zM27374 1198h200l301 275v47h-288l-213 -287v-35zM16009 190q-75 0 -115 42.5t-40 107.5q0 85 56.5 123.5t143.5 38.5h140v-82
q0 -110 -50.5 -170t-134.5 -60zM29475 190q-74 0 -113 42.5t-39 107.5q0 85 56.5 123.5t144.5 38.5h139v-82q0 -109 -52.5 -169.5t-135.5 -60.5zM25494 190q-75 0 -116.5 42.5t-41.5 107.5q0 84 57.5 123t143.5 39h139v-82q0 -110 -50 -170t-132 -60zM18407 678
q4 136 53 193t134 57q90 0 136 -56t46 -194h-369zM21453 678q4 136 53.5 193t134.5 57q89 0 134.5 -56t45.5 -194h-368zM10951 678q8 250 188 250q89 0 134.5 -56t45.5 -194h-368z" />
    <glyph glyph-name="ass_basica_CONT" horiz-adv-x="11051" 
d="M5159 2007v-2576h-5159v2576h5159zM5016 -426v1968l-656 -473q-389 -279 -848 -483q-198 -89 -491 -131q-165 -25 -367 -25v-856h2362zM143 -426h2368v856q-215 0 -383 25q-296 43 -481 131q-521 234 -859 483l-645 473v-1968zM143 1864v-150l734 -530q386 -275 825 -461
q230 -104 444 -129q128 -19 365 -19v1289h-2368zM5016 1714v150h-2362v-1289q171 0 350 19q222 25 449 129q453 192 823 461zM9501 4q125 0 224.5 23t174.5 71t115.5 126.5t40.5 183.5q0 144 -89 239.5t-251 118.5q260 55 260 303q0 179 -134.5 271t-385.5 92h-492v-1428
h537zM6162 541q0 -147 43 -255t124.5 -173.5t191 -97t250.5 -31.5q297 0 458.5 140t161.5 429v879h-329v-857q0 -342 -285 -342q-138 0 -214.5 83t-76.5 247v869h-324v-891zM8358 4h326v725q0 393 -355 393q-122 0 -215.5 -63t-134.5 -189q0 96 -16 228h-310
q0 -21 4.5 -105.5t4.5 -150.5v-838h323v578q0 138 53 216.5t148 78.5q93 0 132.5 -57t39.5 -175v-641zM9462 623q264 0 264 -193q0 -102 -67.5 -149.5t-184.5 -47.5h-190v390h178zM9427 1200q116 0 170.5 -37.5t54.5 -126.5t-54 -129.5t-171 -40.5h-143v334h143z" />
    <glyph glyph-name="ass_basica_vertical_CONT" horiz-adv-x="6178" 
d="M5183 4743v-2591h-5183v2591h5183zM145 2296h2376v862q-212 0 -381 27q-261 30 -487 131q-469 202 -858 481l-650 475v-1976zM5038 2296v1976l-655 -475q-424 -297 -852 -481q-233 -102 -494 -131q-166 -27 -368 -27v-862h2369zM145 4598v-152l738 -534
q370 -270 827 -463q236 -105 449 -127q131 -17 362 -17v1293h-2376zM5038 4446v152h-2369v-1293q153 0 352 17q224 22 452 127q443 189 824 463zM4082 0q124 0 224.5 24t176 72.5t117 128t41.5 185.5q0 143 -90 236t-254 116q262 68 262 307q0 181 -138 274t-393 93h-489
v-1436h543zM721 537q0 -144 44 -253t125.5 -176t192 -100t248.5 -33q301 0 462 143t161 437v881h-330v-858q0 -176 -71 -257t-216 -81q-286 0 -286 327v869h-330v-899zM2927 0h335v731q0 81 -17.5 148t-56.5 124t-111 89t-173 32q-127 0 -221 -62.5t-135 -189.5
q0 128 -15 226h-305q0 -23 3 -107t3 -145v-846h320v584q0 137 54.5 212.5t152.5 75.5q92 0 129 -54t37 -175v-643zM4043 616q266 0 266 -184q0 -107 -65.5 -149.5t-188.5 -42.5h-197v376h185zM4000 1200q119 0 173 -38t54 -124q0 -91 -53.5 -130.5t-173.5 -39.5h-142v332
h142z" />
    <glyph glyph-name="ass_completa_CONT" horiz-adv-x="31141" 
d="M5159 2007v-2576h-5159v2576h5159zM5016 -426v1968l-656 -473q-389 -279 -848 -483q-198 -89 -491 -131q-165 -25 -367 -25v-856h2362zM143 -426h2368v856q-215 0 -383 25q-296 43 -481 131q-521 234 -859 483l-645 473v-1968zM143 1864v-150l734 -530q386 -275 825 -461
q230 -104 444 -129q128 -19 365 -19v1289h-2368zM5016 1714v150h-2362v-1289q171 0 350 19q222 25 449 129q453 192 823 461zM23540 6q122 0 221 24t174 72.5t116.5 128t41.5 185.5q0 143 -89 235t-251 109q254 69 254 311q0 179 -134 270t-384 91h-494v-1426h545zM15084 6
h309q-6 29 -6 242v1358h-322v-490q0 -46 3 -111t3 -77h-6q-37 96 -125.5 145t-210.5 49q-207 0 -313.5 -149t-106.5 -414q0 -98 13.5 -182t44.5 -157t77 -125t114.5 -81.5t154.5 -29.5q260 0 352 202h6q0 -24 6.5 -101t6.5 -79zM17562 6h311q-10 48 -10 242v1358h-320v-678
q-41 96 -127 145t-207 49q-207 0 -313 -149t-106 -414q0 -123 22.5 -224t69 -181.5t125.5 -125t186 -44.5q261 0 350 202h6q0 -24 6.5 -101t6.5 -79zM20607 6h309q-6 29 -6 242v1358h-321v-490q0 -46 3 -111t3 -77h-6q-37 95 -124.5 144.5t-203.5 49.5q-211 0 -315.5 -148
t-104.5 -415q0 -98 12.5 -181.5t42.5 -157.5t75 -125.5t113 -81t154 -29.5q259 0 351 202h6q0 -24 6 -101t6 -79zM6162 543q0 -144 43 -252t124.5 -174.5t192 -99.5t251.5 -33q293 0 454.5 142.5t161.5 432.5v873h-330v-850q0 -175 -70.5 -257.5t-211.5 -82.5
q-139 0 -213 81.5t-74 247.5v861h-328v-889zM26165 207h-76q-45 0 -63 19.5t-18 60.5v432q0 199 -109.5 301t-339.5 102q-217 0 -334 -90t-131 -244l293 -22q0 77 41.5 119.5t114.5 42.5q76 0 115.5 -41t39.5 -133v-92h-110q-274 0 -406.5 -82.5t-132.5 -268.5
q0 -64 22 -121.5t64 -104t112 -74t158 -27.5q115 0 200 50.5t122 151.5q0 -97 72.5 -149.5t191.5 -52.5q31 0 57.5 1.5t59 4.5t57.5 4v213zM30147 207h-76q-41 0 -58.5 20t-17.5 60v432q0 403 -449 403q-218 0 -334 -89.5t-134 -244.5l292 -22q0 78 42 120t120 42
q75 0 114.5 -41t39.5 -133v-92h-111q-277 0 -407.5 -82t-130.5 -269q0 -64 21 -121.5t62.5 -104t110 -74t156.5 -27.5q117 0 200.5 50t120.5 152q4 -97 77 -149.5t187 -52.5q34 0 60.5 1.5t58 4.5t56.5 4v213zM16683 207h-76q-45 0 -63.5 20t-18.5 60v432q0 403 -442 403
q-221 0 -340 -90t-133 -244l293 -22q0 77 41.5 119.5t115.5 42.5q77 0 116.5 -41t39.5 -133v-92h-104q-277 0 -409 -82t-132 -269q0 -64 21 -121.5t62.5 -104t110 -74t156.5 -27.5q117 0 202 50.5t122 151.5q4 -98 74.5 -150t189.5 -52q31 0 57.5 1.5t59 4.5t57.5 4v213z
M21133 559q0 -286 138 -430.5t399 -144.5q97 0 174.5 18.5t129 49t89 75.5t57.5 91.5t33 103.5l-303 18q-14 -78 -55 -114t-119 -36q-105 0 -153 79.5t-48 197.5v29h697v92q0 534 -502 534q-115 0 -208.5 -29t-169 -92t-117.5 -175t-42 -267zM10635 559q0 -286 135.5 -430.5
t391.5 -144.5q99 0 177 19t129 49t89 75.5t58.5 91t35.5 103.5l-303 18q-14 -78 -55 -114t-119 -36q-70 0 -117 41.5t-65.5 101.5t-18.5 134v29h690q7 47 7 92q0 534 -502 534q-91 0 -168 -17.5t-145.5 -58.5t-116.5 -104.5t-75.5 -160.5t-27.5 -222zM18092 559
q0 -286 136 -430.5t392 -144.5q99 0 177 18.5t129 49t88.5 76t57 91.5t32.5 103l-299 18q-26 -150 -172 -150q-56 0 -97 23t-63.5 64t-32.5 88t-10 102v29h690q6 47 6 92q0 534 -499 534q-92 0 -169.5 -17.5t-146 -58.5t-116.5 -104.5t-75.5 -160.5t-27.5 -222zM8354 6h327
v725q0 64 -10 119t-35 106t-64.5 87t-102.5 57.5t-144 21.5q-122 0 -215.5 -62t-134.5 -186q0 36 -6 122.5t-6 103.5h-310q7 -74 7 -254v-840h321v582q0 135 54 210.5t153 75.5q91 0 128.5 -54.5t37.5 -174.5v-639zM26718 -16q229 0 349 93.5t120 262.5q0 66 -19.5 117.5
t-50.5 86t-83 62t-105 44.5t-127 34q-108 26 -159 48.5t-65.5 43.5t-14.5 60q0 37 34 61.5t103 24.5t115.5 -35.5t50.5 -98.5l293 23q-18 138 -137.5 224.5t-309.5 86.5q-211 0 -324.5 -91t-113.5 -243q0 -139 81 -221.5t281 -128.5q135 -31 182.5 -59t47.5 -80
q0 -109 -154 -109q-88 0 -131.5 43t-48.5 107l-293 -35q10 -66 40 -121t84.5 -101.5t145 -72.5t209.5 -26zM13113 -16q230 0 350.5 93t120.5 263q0 66 -19.5 117.5t-50.5 86t-83 62t-105 44.5t-127 34q-108 26 -159.5 48.5t-66.5 44t-15 59.5q0 37 34.5 61.5t102.5 24.5
q71 0 117.5 -35.5t50.5 -98.5l293 23q-18 138 -138 224.5t-311 86.5q-210 0 -323 -91t-113 -243q0 -139 81 -221.5t281 -128.5q135 -31 182.5 -59t47.5 -80q0 -109 -156 -109q-87 0 -130 42.5t-52 107.5l-289 -35q10 -66 40 -121t84 -101.5t144.5 -72.5t208.5 -26zM10203 6
l379 1094h-317l-172 -582l-76 -266l-74 266l-190 582h-316l391 -1094h375zM27947 6h324v1600h-324v-1600zM11887 6h323v565q0 130 60 205.5t182 75.5q63 0 110 -6v270q-31 6 -69 6q-120 0 -192 -62.5t-95 -166.5q-16 182 -24 207h-306q3 -19 7 -113t4 -145v-836zM24312 6
h321v565q0 130 61 205.5t181 75.5q64 0 111 -6v270q-29 6 -70 6q-120 0 -192 -62.5t-95 -166.5q-2 25 -7 77.5t-8 87t-3 42.5h-309q10 -42 10 -258v-836zM27380 6h321v1094h-321v-1094zM13775 6h317v1094h-317v-1094zM28541 6h315v1094h-315v-1094zM8954 6h315v1094h-315
v-1094zM17549 565q0 -102 -18.5 -175.5t-51.5 -113t-70.5 -57.5t-82.5 -18q-203 0 -203 358q0 179 51.5 262.5t157.5 83.5q42 0 78 -16t69 -52t51.5 -105.5t18.5 -166.5zM15071 565q0 -82 -13 -146.5t-34.5 -104.5t-50.5 -66t-59 -36.5t-62 -10.5q-107 0 -157 88.5
t-50 269.5q0 346 207 346q42 0 78 -16t69 -52t52.5 -105.5t19.5 -166.5zM20595 565q0 -101 -19 -175.5t-52 -113.5t-69.5 -57t-78.5 -18q-207 0 -207 358q0 346 207 346q42 0 78.5 -16t69.5 -52t52 -105.5t19 -166.5zM23495 621q124 0 194 -41.5t70 -141.5q0 -196 -252 -196
h-191v379h179zM23460 1198q116 0 170.5 -37t54.5 -125q0 -90 -54 -131t-171 -41h-144v334h144zM13775 1237h317v299h-317v-299zM8954 1237h315v299h-315v-299zM28541 1237h315v299h-315v-299zM27396 1198h201l301 275v47h-289l-213 -287v-35zM16032 190q-75 0 -115.5 42.5
t-40.5 107.5q0 84 57 123t144 39h139v-82q0 -110 -50 -170t-134 -60zM29497 190q-74 0 -112.5 42t-38.5 108q0 85 56 123.5t144 38.5h140v-82q0 -109 -53 -169.5t-136 -60.5zM25516 190q-75 0 -116.5 42.5t-41.5 107.5q0 84 57.5 123t143.5 39h139v-82q0 -110 -50 -170
t-132 -60zM18430 678q4 136 52.5 193t133.5 57q91 0 137 -56t46 -194h-369zM21475 678q4 136 54 193t135 57q89 0 134.5 -56t45.5 -194h-369zM10973 678q8 250 189 250q89 0 134.5 -56t45.5 -194h-369z" />
    <glyph glyph-name="gbreve.alt" horiz-adv-x="1138" 
d="M109 739q0 161 108.5 260t308.5 99q155 0 267 -72l294 35v-141h-192q49 -84 49 -183q0 -172 -117 -269.5t-311 -92.5q-21 0 -31 2q-143 -36 -143 -129q0 -44 36 -76t114 -33l225 -4q97 0 169 -23.5t112.5 -64t59.5 -88t19 -102.5q0 -169 -139 -256.5t-438 -87.5
q-108 0 -189.5 17.5t-127.5 44.5t-75 64.5t-38 71.5t-9 72q0 91 62 154t168 88q-119 53 -119 180q0 150 197 192q-125 38 -192.5 132.5t-67.5 209.5zM688 -2l-258 2q-99 -14 -158 -60.5t-59 -117.5q0 -174 315 -174q67 0 120 4.5t106 17.5t88 34t56.5 56.5t21.5 83.5
q0 70 -60.5 111.5t-171.5 42.5zM272 739q0 -111 69.5 -178t193.5 -67q118 0 184.5 64.5t66.5 186.5q0 114 -70.5 178t-189.5 64q-118 0 -186 -65.5t-68 -182.5zM526 1200q-154 0 -242.5 85.5t-88.5 223.5h124q0 -92 59.5 -142t149.5 -50t148.5 49.5t58.5 142.5h125
q0 -137 -90 -223t-244 -86z" />
    <glyph glyph-name="gcircumflex.alt" horiz-adv-x="1138" 
d="M109 739q0 161 108.5 260t308.5 99q155 0 267 -72l294 35v-141h-192q49 -84 49 -183q0 -172 -117 -269.5t-311 -92.5q-23 0 -33 2q-76 -19 -108.5 -51.5t-32.5 -77.5q0 -44 36 -76t114 -33l225 -4q97 0 169 -23.5t112.5 -64t59.5 -88t19 -102.5q0 -169 -139 -256.5
t-438 -87.5q-108 0 -189.5 17.5t-127.5 44.5t-75 64.5t-38 71.5t-9 72q0 91 62 154t168 88q-119 53 -119 180q0 150 197 192q-125 38 -192.5 132.5t-67.5 209.5zM688 -2l-258 2q-99 -14 -158 -60.5t-59 -117.5q0 -174 315 -174q67 0 120 4.5t106 17.5t88 34t56.5 56.5
t21.5 83.5q0 70 -60.5 111.5t-171.5 42.5zM272 739q0 -111 69.5 -178t193.5 -67q118 0 184.5 64.5t66.5 186.5q0 114 -70.5 178t-189.5 64q-118 0 -186 -65.5t-68 -182.5zM858 1200v-2h-156l-178 168h-2l-190 -168h-160v2l250 283h201z" />
    <glyph glyph-name="gcommaaccent.alt" horiz-adv-x="1138" 
d="M109 739q0 161 108.5 260t308.5 99q155 0 267 -72l294 35v-141h-192q49 -84 49 -183q0 -172 -117 -269.5t-311 -92.5q-21 0 -31 2q-143 -36 -143 -129q0 -44 36 -76t114 -33l225 -4q97 0 169 -23.5t112.5 -64t59.5 -88t19 -102.5q0 -169 -139 -256.5t-438 -87.5
q-108 0 -189.5 17.5t-127.5 44.5t-75 64.5t-38 71.5t-9 72q0 91 62 154t168 88q-119 53 -119 180q0 150 197 192q-125 38 -192.5 132.5t-67.5 209.5zM688 -2l-258 2q-99 -14 -158 -60.5t-59 -117.5q0 -174 315 -174q67 0 120 4.5t106 17.5t88 34t56.5 56.5t21.5 83.5
q0 70 -60.5 111.5t-171.5 42.5zM272 739q0 -111 69.5 -178t193.5 -67q118 0 184.5 64.5t66.5 186.5q0 114 -70.5 178t-189.5 64q-118 0 -186 -65.5t-68 -182.5zM647 1475q0 -85 -20.5 -143t-63.5 -107h-117v2q95 105 95 188h-88v164h194v-104z" />
    <glyph glyph-name="gdotaccent.alt" horiz-adv-x="1138" 
d="M109 739q0 161 108.5 260t308.5 99q155 0 267 -72l294 35v-141h-192q49 -84 49 -183q0 -172 -117 -269.5t-311 -92.5q-21 0 -31 2q-143 -36 -143 -129q0 -44 36 -76t114 -33l225 -4q97 0 169 -23.5t112.5 -64t59.5 -88t19 -102.5q0 -169 -139 -256.5t-438 -87.5
q-108 0 -189.5 17.5t-127.5 44.5t-75 64.5t-38 71.5t-9 72q0 91 62 154t168 88q-119 53 -119 180q0 150 197 192q-125 38 -192.5 132.5t-67.5 209.5zM688 -2l-258 2q-99 -14 -158 -60.5t-59 -117.5q0 -174 315 -174q67 0 120 4.5t106 17.5t88 34t56.5 56.5t21.5 83.5
q0 70 -60.5 111.5t-171.5 42.5zM272 739q0 -111 69.5 -178t193.5 -67q118 0 184.5 64.5t66.5 186.5q0 114 -70.5 178t-189.5 64q-118 0 -186 -65.5t-68 -182.5zM446 1257v183h181v-183h-181z" />
    <glyph glyph-name="lacute.alt" horiz-adv-x="559" 
d="M373 -20q-113 0 -161 52.5t-48 164.5v1396h166v-1400q0 -35 16 -52.5t55 -17.5l86 2v-137q-83 -8 -114 -8zM252 1651v2l225 303h230v-2l-312 -303h-143z" />
    <glyph glyph-name="lcaron.alt" horiz-adv-x="559" 
d="M373 -20q-113 0 -161 52.5t-48 164.5v1396h166v-1400q0 -35 16 -52.5t55 -17.5l86 2v-137q-83 -8 -114 -8zM748 1495q0 -85 -20.5 -143t-63.5 -107h-117v2q94 104 94 189h-88v163h195v-104z" />
    <glyph glyph-name="lcommaaccent.alt" horiz-adv-x="559" 
d="M373 -20q-113 0 -161 52.5t-48 164.5v1396h166v-1400q0 -35 16 -52.5t55 -17.5l86 2v-137q-83 -8 -114 -8zM418 -203q0 -85 -20.5 -143t-63.5 -107h-117v2q94 104 94 189h-88v164h195v-105z" />
    <glyph glyph-name="ldot.alt" horiz-adv-x="559" 
d="M373 -20q-113 0 -161 52.5t-48 164.5v1396h166v-1400q0 -35 16 -52.5t55 -17.5l86 2v-137q-83 -8 -114 -8zM465 1130v183h180v-183h-180z" />
    <glyph glyph-name="Gbreve.alt" horiz-adv-x="1599" 
d="M1274 0l-2 293q-52 -146 -190 -229.5t-324 -83.5q-166 0 -292.5 53t-205.5 150t-118.5 229.5t-39.5 296.5q0 332 179 524t516 192q237 0 381 -85t217 -244l-168 -49q-58 113 -162 174t-274 61q-252 0 -381 -153t-129 -420q0 -273 130 -429.5t371 -156.5q108 0 197 36
t147 97.5t90 143t33 173.5h-411v146h587v-719h-151zM774 1575q-145 0 -237.5 91.5t-94.5 217.5h125q17 -83 68.5 -117t140.5 -34t139.5 34.5t67.5 116.5h125q0 -121 -94.5 -215t-239.5 -94z" />
    <glyph glyph-name="Gcircumflex.alt" horiz-adv-x="1599" 
d="M1274 0l-2 293q-52 -146 -190 -229.5t-324 -83.5q-166 0 -292.5 53t-205.5 150t-118.5 229.5t-39.5 296.5q0 332 179 524t516 192q237 0 381 -85t217 -244l-168 -49q-58 113 -162 174t-274 61q-252 0 -381 -153t-129 -420q0 -273 130 -429.5t371 -156.5q108 0 197 36
t147 97.5t90 143t33 173.5h-411v146h587v-719h-151zM1087 1573h-139l-178 168h-2l-190 -168h-142v2l232 283h200l219 -283v-2z" />
    <glyph glyph-name="Gcommaaccent.alt" horiz-adv-x="1599" 
d="M1274 0l-2 293q-52 -146 -190 -229.5t-324 -83.5q-166 0 -292.5 53t-205.5 150t-118.5 229.5t-39.5 296.5q0 332 179 524t516 192q237 0 381 -85t217 -244l-168 -49q-58 113 -162 174t-274 61q-252 0 -381 -153t-129 -420q0 -273 130 -429.5t371 -156.5q108 0 197 36
t147 97.5t90 143t33 173.5h-411v146h587v-719h-151zM883 -139q0 -85 -20.5 -143t-63.5 -107h-117v2q94 104 94 188h-88v164h195v-104z" />
    <glyph glyph-name="Gdotaccent.alt" horiz-adv-x="1599" 
d="M1274 0l-2 293q-52 -146 -190 -229.5t-324 -83.5q-166 0 -292.5 53t-205.5 150t-118.5 229.5t-39.5 296.5q0 332 179 524t516 192q237 0 381 -85t217 -244l-168 -49q-58 113 -162 174t-274 61q-252 0 -381 -153t-129 -420q0 -273 130 -429.5t371 -156.5q108 0 197 36
t147 97.5t90 143t33 173.5h-411v146h587v-719h-151zM678 1579v172h180v-172h-180z" />
    <glyph glyph-name="Jcircumflex.alt" horiz-adv-x="1067" 
d="M485 -20q-349 0 -417 366l172 29q19 -125 86.5 -188.5t160.5 -63.5q109 0 170.5 73.5t61.5 215.5v993h174v-989q0 -204 -107.5 -320t-300.5 -116zM815 1573h-139l-178 168h-2l-191 -168h-141v2l231 283h201l219 -283v-2z" />
    <glyph glyph-name="Aacute.sc" horiz-adv-x="1056" 
d="M188 0l107 319h461l110 -319h170l-413 1128h-205l-398 -1128h168zM520 1001l66 -188l125 -362h-373l121 360zM416 1198v2l225 303h227v-2l-309 -303h-143z" />
    <glyph glyph-name="Abreve.sc" horiz-adv-x="1056" 
d="M188 0l107 319h461l110 -319h170l-413 1128h-205l-398 -1128h168zM526 1200q-145 0 -237 91.5t-94 217.5h124q17 -83 68.5 -117t140.5 -34t139.5 34.5t67.5 116.5h125q0 -121 -94.5 -215t-239.5 -94zM520 1001l66 -188l125 -362h-373l121 360z" />
    <glyph glyph-name="Acircumflex.sc" horiz-adv-x="1056" 
d="M188 0l107 319h461l110 -319h170l-413 1128h-205l-398 -1128h168zM520 1001l66 -188l125 -362h-373l121 360zM856 1200v-2h-156l-178 168h-2l-190 -168h-160v2l250 283h201z" />
    <glyph glyph-name="Adieresis.sc" horiz-adv-x="1056" 
d="M188 0l107 319h461l110 -319h170l-413 1128h-205l-398 -1128h168zM520 1001l66 -188l125 -362h-373l121 360zM227 1217v180h160v-180h-160zM655 1217v180h158v-180h-158z" />
    <glyph glyph-name="Agrave.sc" horiz-adv-x="1056" 
d="M188 0l107 319h461l110 -319h170l-413 1128h-205l-398 -1128h168zM520 1001l66 -188l125 -362h-373l121 360zM496 1198l-314 303v2h230l227 -303v-2h-143z" />
    <glyph glyph-name="Amacron.sc" horiz-adv-x="1056" 
d="M188 0l107 319h461l110 -319h170l-413 1128h-205l-398 -1128h168zM520 1001l66 -188l125 -362h-373l121 360zM944 1280h-852v113h852v-113z" />
    <glyph glyph-name="Aogonek.sc" horiz-adv-x="1056" 
d="M295 319l-107 -319h-168l398 1128h205l413 -1128h-170l-110 319h-461zM586 813l-66 188l-61 -190l-121 -360h373zM954 -426q-103 0 -157 49t-54 137q0 82 51.5 147.5t104.5 92.5h133q-58 -31 -102.5 -93.5t-44.5 -133.5q0 -42 25 -66t69 -24q48 0 115 24v-106
q-66 -27 -140 -27z" />
    <glyph glyph-name="Aring.sc" horiz-adv-x="1056" 
d="M188 0l107 319h461l110 -319h170l-411 1120q-47 -24 -103 -24q-60 0 -106 24l-396 -1120h168zM764 1337q0 -70 -38.5 -128.5t-100.5 -88.5l-2 8h-205l-2 -8q-61 31 -98 89.5t-37 127.5q0 102 70.5 172t170.5 70t171 -70t71 -172zM520 1001l66 -188l125 -362h-373l121 360
zM655 1337q0 57 -38 96.5t-95 39.5t-96 -39.5t-39 -96.5t39 -96t96 -39t95 39t38 96z" />
    <glyph glyph-name="Aringacute.sc" horiz-adv-x="1056" 
d="M188 0l107 319h461l110 -319h170l-411 1120q-47 -24 -103 -24q-60 0 -106 24l-396 -1120h168zM764 1337q0 -70 -38.5 -128.5t-100.5 -88.5l-2 8h-205l-2 -8q-61 31 -98 89.5t-37 127.5q0 102 70.5 172t170.5 70t171 -70t71 -172zM520 1001l66 -188l125 -362h-373l121 360
zM451 1628v2l225 303h229v-2l-311 -303h-143zM655 1337q0 57 -38 96.5t-95 39.5t-96 -39.5t-39 -96.5t39 -96t96 -39t95 39t38 96z" />
    <glyph glyph-name="Atilde.sc" horiz-adv-x="1056" 
d="M188 0l107 319h461l110 -319h170l-413 1128h-205l-398 -1128h168zM678 1198q-41 0 -89 19t-84 41.5t-77 41.5t-70 19q-46 0 -71 -25.5t-25 -74.5v-21h-102v39q0 100 47 163.5t141 63.5q43 0 91.5 -18.5t84.5 -40.5t77 -40.5t71 -18.5q44 0 67 28t23 80v10h106v-39
q0 -113 -45.5 -170t-144.5 -57zM520 1001l66 -188l125 -362h-373l121 360z" />
    <glyph glyph-name="AEacute.sc" horiz-adv-x="1626" 
d="M188 0h-168l535 1128h895v-137h-528v-342h493v-137h-493v-373h546v-139h-716v319h-418zM561 811l-166 -360h357v542h-105zM682 1198v2l225 303h228v-2l-310 -303h-143z" />
    <glyph glyph-name="Cacute.sc" horiz-adv-x="1236" 
d="M655 -20q-269 0 -411 161.5t-142 427.5q0 270 143.5 425t409.5 155q364 0 482 -293l-158 -49q-34 87 -116.5 144t-209.5 57q-184 0 -279 -115t-95 -322q0 -204 99.5 -326t283.5 -122q232 0 342 229l143 -63q-63 -140 -184 -224.5t-308 -84.5zM553 1198v2l225 303h228v-2
l-310 -303h-143z" />
    <glyph glyph-name="Ccaron.sc" horiz-adv-x="1236" 
d="M655 -20q-269 0 -411 161.5t-142 427.5q0 270 143.5 425t409.5 155q364 0 482 -293l-158 -49q-34 87 -116.5 144t-209.5 57q-184 0 -279 -115t-95 -322q0 -204 99.5 -326t283.5 -122q232 0 342 229l143 -63q-63 -140 -184 -224.5t-308 -84.5zM989 1483l-235 -283h-201
l-248 283v2h158l190 -168h2l179 168h155v-2z" />
    <glyph glyph-name="Ccedilla.sc" horiz-adv-x="1236" 
d="M858 -256q0 -178 -270 -178q-57 0 -90 4v96q50 -6 86 -6q149 0 149 84q0 76 -135 76q-26 0 -57 -2l59 164q-243 17 -370.5 175.5t-127.5 411.5q0 270 143.5 425t409.5 155q364 0 482 -293l-158 -49q-34 87 -116.5 144t-209.5 57q-184 0 -279 -115t-95 -322
q0 -204 99.5 -326t283.5 -122q232 0 342 229l143 -63q-130 -288 -447 -307l-30 -84q93 -3 140.5 -43t47.5 -111z" />
    <glyph glyph-name="Ccircumflex.sc" horiz-adv-x="1236" 
d="M655 -20q-269 0 -411 161.5t-142 427.5q0 270 143.5 425t409.5 155q364 0 482 -293l-158 -49q-34 87 -116.5 144t-209.5 57q-184 0 -279 -115t-95 -322q0 -204 99.5 -326t283.5 -122q232 0 342 229l143 -63q-63 -140 -184 -224.5t-308 -84.5zM993 1200v-2h-155l-179 168
h-2l-190 -168h-160v2l250 283h201z" />
    <glyph glyph-name="Cdotaccent.sc" horiz-adv-x="1236" 
d="M655 -20q-269 0 -411 161.5t-142 427.5q0 270 143.5 425t409.5 155q364 0 482 -293l-158 -49q-34 87 -116.5 144t-209.5 57q-184 0 -279 -115t-95 -322q0 -204 99.5 -326t283.5 -122q232 0 342 229l143 -63q-63 -140 -184 -224.5t-308 -84.5zM569 1202v172h181v-172h-181
z" />
    <glyph glyph-name="Dcaron.sc" horiz-adv-x="1265" 
d="M991 573q0 213 -115 316.5t-313 103.5h-209v-858h242q177 0 286 114.5t109 323.5zM1163 573q0 -182 -73 -313.5t-196 -195.5t-282 -64h-428v1128h381q133 0 241 -33.5t188.5 -100t124.5 -174t44 -247.5zM899 1483l-235 -283h-201l-248 283v2h158l190 -168h2l178 168h156
v-2z" />
    <glyph glyph-name="Eacute.sc" horiz-adv-x="1058" 
d="M184 0v1128h709v-137h-539v-342h494v-137h-494v-373h547v-139h-717zM434 1198v2l225 303h228v-2l-309 -303h-144z" />
    <glyph glyph-name="Ebreve.sc" horiz-adv-x="1058" 
d="M184 0v1128h709v-137h-539v-342h494v-137h-494v-373h547v-139h-717zM545 1200q-145 0 -237.5 91.5t-94.5 217.5h125q17 -83 68.5 -117t140.5 -34t139.5 34.5t67.5 116.5h125q0 -121 -94.5 -215t-239.5 -94z" />
    <glyph glyph-name="Ecaron.sc" horiz-adv-x="1058" 
d="M184 0v1128h709v-137h-539v-342h494v-137h-494v-373h547v-139h-717zM870 1483l-235 -283h-201l-248 283v2h158l191 -168h2l178 168h155v-2z" />
    <glyph glyph-name="Ecircumflex.sc" horiz-adv-x="1058" 
d="M184 0v1128h709v-137h-539v-342h494v-137h-494v-373h547v-139h-717zM874 1200v-2h-155l-178 168h-2l-191 -168h-160v2l250 283h201z" />
    <glyph glyph-name="Edieresis.sc" horiz-adv-x="1058" 
d="M184 0v1128h709v-137h-539v-342h494v-137h-494v-373h547v-139h-717zM246 1217v180h160v-180h-160zM674 1217v180h157v-180h-157z" />
    <glyph glyph-name="Edotaccent.sc" horiz-adv-x="1058" 
d="M184 0v1128h709v-137h-539v-342h494v-137h-494v-373h547v-139h-717zM451 1202v172h180v-172h-180z" />
    <glyph glyph-name="Egrave.sc" horiz-adv-x="1058" 
d="M184 0v1128h709v-137h-539v-342h494v-137h-494v-373h547v-139h-717zM514 1198l-313 303v2h229l227 -303v-2h-143z" />
    <glyph glyph-name="Emacron.sc" horiz-adv-x="1058" 
d="M184 0v1128h709v-137h-539v-342h494v-137h-494v-373h547v-139h-717zM963 1280h-852v113h852v-113z" />
    <glyph glyph-name="Eogonek.sc" horiz-adv-x="1058" 
d="M184 0v1128h709v-137h-539v-342h494v-137h-494v-373h547v-139h-10q-58 -31 -103 -93.5t-45 -133.5q0 -41 25.5 -65.5t69.5 -24.5q47 0 114 24v-106q-66 -27 -139 -27q-103 0 -157 49t-54 137q0 82 51.5 147.5t104.5 92.5h-574z" />
    <glyph glyph-name="Gbreve.sc" horiz-adv-x="1361" 
d="M670 -20q-141 0 -250.5 44t-178.5 123.5t-104 186t-35 235.5q0 270 144 425t418 155q201 0 317 -72t172 -209l-162 -45q-91 185 -329 185q-191 0 -288.5 -117.5t-97.5 -321.5t102.5 -327t297.5 -123q200 0 346 104v213h-322v137h478v-401q-87 -83 -217.5 -137.5
t-290.5 -54.5zM668 1200q-145 0 -237.5 91.5t-94.5 217.5h125q17 -83 68.5 -117t140.5 -34t139.5 34.5t67.5 116.5h124q0 -121 -94 -215t-239 -94z" />
    <glyph glyph-name="Gcircumflex.sc" horiz-adv-x="1361" 
d="M670 -20q-141 0 -250.5 44t-178.5 123.5t-104 186t-35 235.5q0 270 144 425t418 155q201 0 317 -72t172 -209l-162 -45q-91 185 -329 185q-191 0 -288.5 -117.5t-97.5 -321.5t102.5 -327t297.5 -123q200 0 346 104v213h-322v137h478v-401q-87 -83 -217.5 -137.5
t-290.5 -54.5zM997 1200v-2h-155l-178 168h-2l-191 -168h-160v2l250 283h201z" />
    <glyph glyph-name="Gcommaaccent.sc" horiz-adv-x="1361" 
d="M670 -20q-141 0 -250.5 44t-178.5 123.5t-104 186t-35 235.5q0 270 144 425t418 155q201 0 317 -72t172 -209l-162 -45q-91 185 -329 185q-191 0 -288.5 -117.5t-97.5 -321.5t102.5 -327t297.5 -123q200 0 346 104v213h-322v137h478v-401q-87 -83 -217.5 -137.5
t-290.5 -54.5zM772 -139q0 -85 -20.5 -143t-63.5 -107h-117v2q95 105 95 188h-88v164h194v-104z" />
    <glyph glyph-name="Gdotaccent.sc" horiz-adv-x="1361" 
d="M670 -20q-141 0 -250.5 44t-178.5 123.5t-104 186t-35 235.5q0 270 144 425t418 155q201 0 317 -72t172 -209l-162 -45q-91 185 -329 185q-191 0 -288.5 -117.5t-97.5 -321.5t102.5 -327t297.5 -123q200 0 346 104v213h-322v137h478v-401q-87 -83 -217.5 -137.5
t-290.5 -54.5zM573 1202v172h181v-172h-181z" />
    <glyph glyph-name="Hcircumflex.sc" horiz-adv-x="1294" 
d="M940 0v514h-584v-514h-172v1128h172v-473h584v473h170v-1128h-170zM977 1200v-2h-156l-178 168h-2l-190 -168h-160v2l250 283h200z" />
    <glyph glyph-name="Iacute.sc" horiz-adv-x="540" 
d="M184 0v1128h172v-1128h-172zM182 1198v2l129 303h197v-2l-217 -303h-109z" />
    <glyph glyph-name="Ibreve.sc" horiz-adv-x="540" 
d="M184 0v1128h172v-1128h-172zM274 1200q-145 0 -237 91.5t-94 217.5h125q17 -83 68 -117t140 -34t139.5 34.5t67.5 116.5h125q0 -121 -94.5 -215t-239.5 -94z" />
    <glyph glyph-name="Icircumflex.sc" horiz-adv-x="540" 
d="M184 0v1128h172v-1128h-172zM604 1200v-2h-155l-179 168h-2l-190 -168h-160v2l250 283h201z" />
    <glyph glyph-name="Idieresis.sc" horiz-adv-x="540" 
d="M184 0v1128h172v-1128h-172zM-25 1217v180h160v-180h-160zM403 1217v180h158v-180h-158z" />
    <glyph glyph-name="Igrave.sc" horiz-adv-x="540" 
d="M184 0v1128h172v-1128h-172zM244 1198l-314 303v2h230l227 -303v-2h-143z" />
    <glyph glyph-name="Imacron.sc" horiz-adv-x="540" 
d="M184 0v1128h172v-1128h-172zM692 1280h-852v113h852v-113z" />
    <glyph glyph-name="Iogonek.sc" horiz-adv-x="540" 
d="M184 0v1128h172v-1128h-8q-58 -31 -102.5 -93.5t-44.5 -133.5q0 -42 25 -66t69 -24q48 0 115 24v-106q-66 -27 -140 -27q-103 0 -157 49t-54 137q0 82 51.5 147.5t104.5 92.5h-31z" />
    <glyph glyph-name="Itilde.sc" horiz-adv-x="540" 
d="M184 0v1128h172v-1128h-172zM426 1198q-41 0 -89 19t-84 41.5t-77 41.5t-70 19q-46 0 -71 -25.5t-25 -74.5v-21h-102v39q0 100 47 163.5t141 63.5q43 0 91.5 -18.5t84.5 -40.5t77 -40.5t71 -18.5q44 0 67 28t23 80v10h106v-39q0 -113 -45.5 -170t-144.5 -57z" />
    <glyph glyph-name="Jcircumflex.sc" horiz-adv-x="929" 
d="M401 -20q-149 0 -237 75t-115 232l166 24q17 -96 66 -143t120 -47q81 0 126.5 55t45.5 160v653h-223v139h395v-788q0 -167 -90.5 -263.5t-253.5 -96.5zM737 1200v-2h-155l-179 168h-2l-190 -168h-160v2l250 283h201z" />
    <glyph glyph-name="Kcommaaccent.sc" horiz-adv-x="1118" 
d="M889 0l-395 532l-138 -139v-393h-172v1128h172v-544l478 544h206l-432 -489l490 -639h-209zM657 -139q0 -85 -20.5 -143t-63.5 -107h-116v2q94 104 94 188h-88v164h194v-104z" />
    <glyph glyph-name="Lacute.sc" horiz-adv-x="1019" 
d="M184 0v1128h170v-989h545v-139h-715zM428 1198v2l225 303h228v-2l-310 -303h-143z" />
    <glyph glyph-name="Lcaron.sc" horiz-adv-x="1019" 
d="M184 0v1128h170v-989h545v-139h-715zM864 1483l-235 -283h-201l-248 283v2h158l190 -168h2l179 168h155v-2z" />
    <glyph glyph-name="Lcommaaccent.sc" horiz-adv-x="1019" 
d="M184 0v1128h170v-989h545v-139h-715zM641 -139q0 -85 -20.5 -143t-63.5 -107h-117v2q95 105 95 188h-89v164h195v-104z" />
    <glyph glyph-name="Ldot.sc" horiz-adv-x="1019" 
d="M184 0v1128h170v-989h545v-139h-715zM606 649v172h180v-172h-180z" />
    <glyph glyph-name="Nacute.sc" horiz-adv-x="1292" 
d="M903 0l-573 940q6 -31 6 -74v-866h-152v1128h197l582 -940q-9 35 -9 74v866h154v-1128h-205zM537 1198v2l225 303h227v-2l-309 -303h-143z" />
    <glyph glyph-name="Ncaron.sc" horiz-adv-x="1292" 
d="M903 0l-573 940q6 -31 6 -74v-866h-152v1128h197l582 -940q-9 35 -9 74v866h154v-1128h-205zM973 1483l-236 -283h-200l-248 283v2h157l191 -168h2l178 168h156v-2z" />
    <glyph glyph-name="Ncommaaccent.sc" horiz-adv-x="1292" 
d="M903 0l-573 940q6 -31 6 -74v-866h-152v1128h197l582 -940q-9 35 -9 74v866h154v-1128h-205zM750 -139q0 -85 -20.5 -143t-63.5 -107h-117v2q94 104 94 188h-88v164h195v-104z" />
    <glyph glyph-name="Ntilde.sc" horiz-adv-x="1292" 
d="M903 0l-573 940q6 -31 6 -74v-866h-152v1128h197l582 -940q-9 35 -9 74v866h154v-1128h-205zM799 1198q-41 0 -89 19t-84 41.5t-77 41.5t-70 19q-46 0 -71 -25.5t-25 -74.5v-21h-102v39q0 100 47 163.5t141 63.5q43 0 91.5 -18.5t84.5 -40.5t77 -40.5t71 -18.5
q44 0 67 28t23 80v10h106v-39q0 -113 -45.5 -170t-144.5 -57z" />
    <glyph glyph-name="Oacute.sc" horiz-adv-x="1325" 
d="M1049 569q0 206 -100 324.5t-285 118.5q-190 0 -289 -118t-99 -325q0 -204 100.5 -326t285.5 -122q195 0 291 120.5t96 327.5zM1223 569q0 -269 -149.5 -429t-411.5 -160q-180 0 -308 76.5t-190 207.5t-62 303q0 270 147.5 426t412.5 156q276 0 418.5 -155.5
t142.5 -424.5zM557 1198v2l225 303h228v-2l-310 -303h-143z" />
    <glyph glyph-name="Obreve.sc" horiz-adv-x="1325" 
d="M1049 569q0 206 -100 324.5t-285 118.5q-190 0 -289 -118t-99 -325q0 -204 100.5 -326t285.5 -122q195 0 291 120.5t96 327.5zM1223 569q0 -269 -149.5 -429t-411.5 -160q-180 0 -308 76.5t-190 207.5t-62 303q0 270 147.5 426t412.5 156q276 0 418.5 -155.5
t142.5 -424.5zM668 1200q-145 0 -237.5 91.5t-94.5 217.5h125q17 -83 68.5 -117t140.5 -34t139.5 34.5t67.5 116.5h124q0 -121 -94 -215t-239 -94z" />
    <glyph glyph-name="Ocircumflex.sc" horiz-adv-x="1325" 
d="M1049 569q0 206 -100 324.5t-285 118.5q-190 0 -289 -118t-99 -325q0 -204 100.5 -326t285.5 -122q195 0 291 120.5t96 327.5zM1223 569q0 -269 -149.5 -429t-411.5 -160q-180 0 -308 76.5t-190 207.5t-62 303q0 270 147.5 426t412.5 156q276 0 418.5 -155.5
t142.5 -424.5zM997 1200v-2h-155l-178 168h-2l-191 -168h-160v2l250 283h201z" />
    <glyph glyph-name="Odieresis.sc" horiz-adv-x="1325" 
d="M1049 569q0 206 -100 324.5t-285 118.5q-190 0 -289 -118t-99 -325q0 -204 100.5 -326t285.5 -122q195 0 291 120.5t96 327.5zM1223 569q0 -269 -149.5 -429t-411.5 -160q-180 0 -308 76.5t-190 207.5t-62 303q0 270 147.5 426t412.5 156q276 0 418.5 -155.5
t142.5 -424.5zM369 1217v180h159v-180h-159zM797 1217v180h157v-180h-157z" />
    <glyph glyph-name="Ograve.sc" horiz-adv-x="1325" 
d="M1049 569q0 206 -100 324.5t-285 118.5q-190 0 -289 -118t-99 -325q0 -204 100.5 -326t285.5 -122q195 0 291 120.5t96 327.5zM1223 569q0 -269 -149.5 -429t-411.5 -160q-180 0 -308 76.5t-190 207.5t-62 303q0 270 147.5 426t412.5 156q276 0 418.5 -155.5
t142.5 -424.5zM637 1198l-313 303v2h229l227 -303v-2h-143z" />
    <glyph glyph-name="Ohungarumlaut.sc" horiz-adv-x="1325" 
d="M1049 569q0 206 -100 324.5t-285 118.5q-190 0 -289 -118t-99 -325q0 -204 100.5 -326t285.5 -122q195 0 291 120.5t96 327.5zM1223 569q0 -269 -149.5 -429t-411.5 -160q-180 0 -308 76.5t-190 207.5t-62 303q0 270 147.5 426t412.5 156q276 0 418.5 -155.5
t142.5 -424.5zM385 1200v2l231 305h240v-2l-362 -305h-109zM731 1200v2l232 305h239v-2l-362 -305h-109z" />
    <glyph glyph-name="Omacron.sc" horiz-adv-x="1325" 
d="M1049 569q0 206 -100 324.5t-285 118.5q-190 0 -289 -118t-99 -325q0 -204 100.5 -326t285.5 -122q195 0 291 120.5t96 327.5zM1223 569q0 -269 -149.5 -429t-411.5 -160q-180 0 -308 76.5t-190 207.5t-62 303q0 270 147.5 426t412.5 156q276 0 418.5 -155.5
t142.5 -424.5zM1085 1280h-852v113h852v-113z" />
    <glyph glyph-name="Otilde.sc" horiz-adv-x="1325" 
d="M1049 569q0 206 -100 324.5t-285 118.5q-190 0 -289 -118t-99 -325q0 -204 100.5 -326t285.5 -122q195 0 291 120.5t96 327.5zM1223 569q0 -269 -149.5 -429t-411.5 -160q-180 0 -308 76.5t-190 207.5t-62 303q0 270 147.5 426t412.5 156q276 0 418.5 -155.5
t142.5 -424.5zM819 1198q-41 0 -89 19t-83.5 41.5t-76.5 41.5t-70 19q-46 0 -71.5 -25.5t-25.5 -74.5v-21h-102v39q0 100 47 163.5t141 63.5q43 0 91.5 -18.5t84.5 -40.5t77 -40.5t71 -18.5q44 0 67 28t23 80v10h107v-39q0 -113 -46 -170t-145 -57z" />
    <glyph glyph-name="Oslashacute.sc" horiz-adv-x="1327" 
d="M1223 569q0 -269 -149.5 -429t-411.5 -160q-195 0 -322 83l-68 -83h-170l140 170q-140 158 -140 417q0 270 147.5 426t412.5 156q196 0 329 -82l66 80h166l-133 -164q133 -154 133 -414zM276 569q0 -176 72 -288l543 663q-93 68 -227 68q-190 0 -289 -118t-99 -325z
M1049 569q0 166 -70 281l-541 -666q91 -63 224 -63q195 0 291 120.5t96 327.5zM557 1196v2l225 303h228v-2l-310 -303h-143z" />
    <glyph glyph-name="Racute.sc" horiz-adv-x="1179" 
d="M354 459v-459h-170v1128h408q194 0 298.5 -86.5t104.5 -240.5q0 -272 -266 -330l315 -471h-196l-283 459h-211zM823 797q0 96 -64.5 146t-185.5 50h-219v-403h228q241 0 241 207zM446 1198v2l226 303h227v-2l-309 -303h-144z" />
    <glyph glyph-name="Rcaron.sc" horiz-adv-x="1179" 
d="M354 459v-459h-170v1128h408q194 0 298.5 -86.5t104.5 -240.5q0 -272 -266 -330l315 -471h-196l-283 459h-211zM823 797q0 96 -64.5 146t-185.5 50h-219v-403h228q241 0 241 207zM883 1483l-236 -283h-201l-247 283v2h157l191 -168h2l178 168h156v-2z" />
    <glyph glyph-name="Rcommaaccent.sc" horiz-adv-x="1179" 
d="M354 459v-459h-170v1128h408q194 0 298.5 -86.5t104.5 -240.5q0 -272 -266 -330l315 -471h-196l-283 459h-211zM823 797q0 96 -64.5 146t-185.5 50h-219v-403h228q241 0 241 207zM670 -139q0 -85 -20.5 -143t-63.5 -107h-117v2q94 104 94 188h-88v164h195v-104z" />
    <glyph glyph-name="Sacute.sc" horiz-adv-x="999" 
d="M944 315q0 -153 -111 -244t-333 -91q-390 0 -461 299l164 30q24 -97 87.5 -145.5t209.5 -48.5q276 0 276 190q0 29 -8 52.5t-19.5 41t-36 33t-45 25.5t-60.5 21.5t-67.5 18.5t-80.5 19q-65 14 -111.5 28t-98.5 40t-84 58.5t-53.5 83.5t-21.5 116q0 151 114.5 229
t293.5 78q188 0 284 -66.5t133 -203.5l-167 -27q-23 88 -79.5 129t-181.5 41q-115 0 -171 -48t-56 -124q0 -92 82 -135q47 -25 188 -59h1h1h1l1 -1h1q167 -40 229 -68q134 -59 168 -175q12 -43 12 -97zM385 1198v2l225 303h228v-2l-310 -303h-143z" />
    <glyph glyph-name="Scaron.sc" horiz-adv-x="999" 
d="M944 315q0 -153 -111 -244t-333 -91q-390 0 -461 299l164 30q24 -97 87.5 -145.5t209.5 -48.5q276 0 276 190q0 29 -8 52.5t-19.5 41t-36 33t-45 25.5t-60.5 21.5t-67.5 18.5t-80.5 19q-65 14 -111.5 28t-98.5 40t-84 58.5t-53.5 83.5t-21.5 116q0 151 114.5 229
t293.5 78q188 0 284 -66.5t133 -203.5l-167 -27q-23 88 -79.5 129t-181.5 41q-115 0 -171 -48t-56 -124q0 -92 82 -135q47 -25 188 -59h1h1h1l1 -1h1q167 -40 229 -68q134 -59 168 -175q12 -43 12 -97zM821 1483l-235 -283h-201l-248 283v2h158l190 -168h2l179 168h155v-2z
" />
    <glyph glyph-name="Scedilla.sc" horiz-adv-x="999" 
d="M705 -256q0 -178 -271 -178q-57 0 -90 4v96q49 -6 86 -6q150 0 150 84q0 76 -136 76q-26 0 -57 -2l57 164q-341 20 -405 297l164 30q24 -97 87.5 -145.5t209.5 -48.5q276 0 276 190q0 29 -8 52.5t-19.5 41t-36 33t-45 25.5t-60.5 21.5t-67.5 18.5t-80.5 19
q-65 14 -111.5 28t-98.5 40t-84 58.5t-53.5 83.5t-21.5 116q0 151 114.5 229t293.5 78q188 0 284 -66.5t133 -203.5l-167 -27q-23 88 -79.5 129t-181.5 41q-115 0 -171 -48t-56 -124q0 -92 82 -135q47 -25 188 -59h1h1h1l1 -1h1q167 -40 229 -68q134 -59 168 -175
q12 -43 12 -97q0 -144 -99.5 -233.5t-297.5 -99.5l-31 -84q93 -3 141 -43t48 -111z" />
    <glyph glyph-name="Scircumflex.sc" horiz-adv-x="999" 
d="M944 315q0 -153 -111 -244t-333 -91q-390 0 -461 299l164 30q24 -97 87.5 -145.5t209.5 -48.5q276 0 276 190q0 29 -8 52.5t-19.5 41t-36 33t-45 25.5t-60.5 21.5t-67.5 18.5t-80.5 19q-65 14 -111.5 28t-98.5 40t-84 58.5t-53.5 83.5t-21.5 116q0 151 114.5 229
t293.5 78q188 0 284 -66.5t133 -203.5l-167 -27q-23 88 -79.5 129t-181.5 41q-115 0 -171 -48t-56 -124q0 -92 82 -135q47 -25 188 -59h1h1h1l1 -1h1q167 -40 229 -68q134 -59 168 -175q12 -43 12 -97zM825 1200v-2h-155l-178 168h-3l-190 -168h-160v2l250 283h201z" />
    <glyph glyph-name="Tcaron.sc" horiz-adv-x="892" 
d="M532 991v-991h-172v991h-360v137h893v-137h-361zM776 1483l-235 -283h-201l-248 283v2h158l190 -168h2l179 168h155v-2z" />
    <glyph glyph-name="uni021A.sc" horiz-adv-x="892" 
d="M532 991v-991h-172v991h-360v137h893v-137h-361zM549 -139q0 -85 -20.5 -143t-63.5 -107h-117v2q94 104 94 188h-88v164h195v-104z" />
    <glyph glyph-name="Uacute.sc" horiz-adv-x="1257" 
d="M625 -20q-201 0 -321 109t-120 325v714h170v-694q0 -155 72 -234t201 -79q274 0 274 315v692h172v-702q0 -221 -119 -333.5t-329 -112.5zM520 1198v2l225 303h228v-2l-309 -303h-144z" />
    <glyph glyph-name="Ubreve.sc" horiz-adv-x="1257" 
d="M625 -20q-201 0 -321 109t-120 325v714h170v-694q0 -155 72 -234t201 -79q274 0 274 315v692h172v-702q0 -221 -119 -333.5t-329 -112.5zM631 1200q-145 0 -237.5 91.5t-94.5 217.5h125q17 -83 68.5 -117t140.5 -34t139.5 34.5t67.5 116.5h125q0 -121 -94.5 -215
t-239.5 -94z" />
    <glyph glyph-name="Ucircumflex.sc" horiz-adv-x="1257" 
d="M625 -20q-201 0 -321 109t-120 325v714h170v-694q0 -155 72 -234t201 -79q274 0 274 315v692h172v-702q0 -221 -119 -333.5t-329 -112.5zM961 1200v-2h-156l-178 168h-2l-191 -168h-160v2l250 283h201z" />
    <glyph glyph-name="Udieresis.sc" horiz-adv-x="1257" 
d="M625 -20q-201 0 -321 109t-120 325v714h170v-694q0 -155 72 -234t201 -79q274 0 274 315v692h172v-702q0 -221 -119 -333.5t-329 -112.5zM332 1217v180h160v-180h-160zM760 1217v180h158v-180h-158z" />
    <glyph glyph-name="Ugrave.sc" horiz-adv-x="1257" 
d="M625 -20q-201 0 -321 109t-120 325v714h170v-694q0 -155 72 -234t201 -79q274 0 274 315v692h172v-702q0 -221 -119 -333.5t-329 -112.5zM600 1198l-313 303v2h229l227 -303v-2h-143z" />
    <glyph glyph-name="Uhungarumlaut.sc" horiz-adv-x="1257" 
d="M625 -20q-201 0 -321 109t-120 325v714h170v-694q0 -155 72 -234t201 -79q274 0 274 315v692h172v-702q0 -221 -119 -333.5t-329 -112.5zM348 1200v2l232 305h239v-2l-362 -305h-109zM694 1200v2l232 305h239v-2l-362 -305h-109z" />
    <glyph glyph-name="Umacron.sc" horiz-adv-x="1257" 
d="M625 -20q-201 0 -321 109t-120 325v714h170v-694q0 -155 72 -234t201 -79q274 0 274 315v692h172v-702q0 -221 -119 -333.5t-329 -112.5zM1049 1280h-852v113h852v-113z" />
    <glyph glyph-name="Uogonek.sc" horiz-adv-x="1257" 
d="M801 -393q-103 0 -157 49t-54 137q0 103 86 189q-8 0 -25 -1t-26 -1q-201 0 -321 109t-120 325v714h170v-694q0 -155 72 -234t201 -79q274 0 274 315v692h172v-702q0 -288 -203 -393h9q-58 -31 -103 -94t-45 -134q0 -42 25 -66t69 -24q45 0 115 25v-107q-63 -26 -139 -26
z" />
    <glyph glyph-name="Uring.sc" horiz-adv-x="1257" 
d="M625 -20q-201 0 -321 109t-120 325v714h170v-694q0 -155 72 -234t201 -79q274 0 274 315v692h172v-702q0 -221 -119 -333.5t-329 -112.5zM760 1337q0 57 -38 96.5t-95 39.5t-96 -39.5t-39 -96.5t39 -96t96 -39t95 39t38 96zM868 1337q0 -99 -71 -170t-170 -71t-170.5 71
t-71.5 170q0 102 71 172t171 70t170.5 -70t70.5 -172z" />
    <glyph glyph-name="Utilde.sc" horiz-adv-x="1257" 
d="M625 -20q-201 0 -321 109t-120 325v714h170v-694q0 -155 72 -234t201 -79q274 0 274 315v692h172v-702q0 -221 -119 -333.5t-329 -112.5zM782 1198q-41 0 -89 19t-83.5 41.5t-76.5 41.5t-70 19q-46 0 -71 -25.5t-25 -74.5v-21h-103v39q0 100 47.5 163.5t141.5 63.5
q54 0 115.5 -29.5t116.5 -59t91 -29.5q44 0 67 28t23 80v10h107v-39q0 -113 -46 -170t-145 -57z" />
    <glyph glyph-name="Wacute.sc" horiz-adv-x="1548" 
d="M1214 0h-204l-217 854l-19 92l-20 -92l-217 -854h-203l-314 1128h179l223 -878l20 -94l27 114l217 858h178l217 -858l25 -114l27 106l219 866h176zM670 1198v2l225 303h227v-2l-309 -303h-143z" />
    <glyph glyph-name="Wcircumflex.sc" horiz-adv-x="1548" 
d="M1214 0h-204l-217 854l-19 92l-20 -92l-217 -854h-203l-314 1128h179l223 -878l20 -94l27 114l217 858h178l217 -858l25 -114l27 106l219 866h176zM1110 1200v-2h-156l-178 168h-2l-190 -168h-160v2l250 283h200z" />
    <glyph glyph-name="Wdieresis.sc" horiz-adv-x="1548" 
d="M1214 0h-204l-217 854l-19 92l-20 -92l-217 -854h-203l-314 1128h179l223 -878l20 -94l27 114l217 858h178l217 -858l25 -114l27 106l219 866h176zM481 1217v180h160v-180h-160zM909 1217v180h158v-180h-158z" />
    <glyph glyph-name="Wgrave.sc" horiz-adv-x="1548" 
d="M1214 0h-204l-217 854l-19 92l-20 -92l-217 -854h-203l-314 1128h179l223 -878l20 -94l27 114l217 858h178l217 -858l25 -114l27 106l219 866h176zM750 1198l-314 303v2h230l227 -303v-2h-143z" />
    <glyph glyph-name="Yacute.sc" horiz-adv-x="999" 
d="M586 467v-467h-172v467l-394 661h187l293 -524l295 524h184zM399 1198v2l226 303h227v-2l-309 -303h-144z" />
    <glyph glyph-name="Ycircumflex.sc" horiz-adv-x="999" 
d="M586 467v-467h-172v467l-394 661h187l293 -524l295 524h184zM840 1200v-2h-156l-178 168h-2l-191 -168h-159v2l249 283h201z" />
    <glyph glyph-name="Ydieresis.sc" horiz-adv-x="999" 
d="M586 467v-467h-172v467l-394 661h187l293 -524l295 524h184zM211 1217v180h160v-180h-160zM639 1217v180h158v-180h-158z" />
    <glyph glyph-name="Ygrave.sc" horiz-adv-x="999" 
d="M586 467v-467h-172v467l-394 661h187l293 -524l295 524h184zM479 1198l-313 303v2h229l228 -303v-2h-144z" />
    <glyph glyph-name="Zacute.sc" horiz-adv-x="1005" 
d="M72 0v125l633 866h-588v137h780v-122l-633 -869h670v-137h-862zM399 1198v2l226 303h227v-2l-309 -303h-144z" />
    <glyph glyph-name="Zcaron.sc" horiz-adv-x="1005" 
d="M72 0v125l633 866h-588v137h780v-122l-633 -869h670v-137h-862zM836 1483l-236 -283h-201l-247 283v2h157l191 -168h2l178 168h156v-2z" />
    <glyph glyph-name="Zdotaccent.sc" horiz-adv-x="1005" 
d="M72 0v125l633 866h-588v137h780v-122l-633 -869h670v-137h-862zM416 1202v172h180v-172h-180z" />
    <glyph glyph-name="Gbreve.alt_sc" horiz-adv-x="1368" 
d="M635 -20q-135 0 -238.5 43.5t-167 123t-95.5 185t-32 235.5q0 269 144.5 425.5t419.5 156.5q374 0 493 -281l-168 -49q-86 187 -327 187q-190 0 -286.5 -116.5t-96.5 -320.5q0 -207 96.5 -326.5t281.5 -119.5q160 0 253.5 94t101.5 232h-312v139h482v-588h-152l-2 219
q-39 -109 -143.5 -174t-251.5 -65zM672 1200q-145 0 -237.5 91.5t-94.5 217.5h125q17 -83 68.5 -117t140.5 -34t139.5 34.5t67.5 116.5h125q0 -121 -94.5 -215t-239.5 -94z" />
    <glyph glyph-name="Gcircumflex.alt_sc" horiz-adv-x="1368" 
d="M635 -20q-135 0 -238.5 43.5t-167 123t-95.5 185t-32 235.5q0 269 144.5 425.5t419.5 156.5q374 0 493 -281l-168 -49q-86 187 -327 187q-190 0 -286.5 -116.5t-96.5 -320.5q0 -207 96.5 -326.5t281.5 -119.5q160 0 253.5 94t101.5 232h-312v139h482v-588h-152l-2 219
q-39 -109 -143.5 -174t-251.5 -65zM1001 1200v-2h-155l-178 168h-2l-191 -168h-160v2l250 283h201z" />
    <glyph glyph-name="Gcommaaccent.alt_sc" horiz-adv-x="1368" 
d="M635 -20q-135 0 -238.5 43.5t-167 123t-95.5 185t-32 235.5q0 269 144.5 425.5t419.5 156.5q374 0 493 -281l-168 -49q-86 187 -327 187q-190 0 -286.5 -116.5t-96.5 -320.5q0 -207 96.5 -326.5t281.5 -119.5q160 0 253.5 94t101.5 232h-312v139h482v-588h-152l-2 219
q-39 -109 -143.5 -174t-251.5 -65zM782 -139q0 -85 -20.5 -143t-63.5 -107h-116v2q94 104 94 188h-88v164h194v-104z" />
    <glyph glyph-name="Gdotaccent.alt_sc" horiz-adv-x="1368" 
d="M635 -20q-135 0 -238.5 43.5t-167 123t-95.5 185t-32 235.5q0 269 144.5 425.5t419.5 156.5q374 0 493 -281l-168 -49q-86 187 -327 187q-190 0 -286.5 -116.5t-96.5 -320.5q0 -207 96.5 -326.5t281.5 -119.5q160 0 253.5 94t101.5 232h-312v139h482v-588h-152l-2 219
q-39 -109 -143.5 -174t-251.5 -65zM578 1202v172h180v-172h-180z" />
    <glyph glyph-name="Jcircumflex.alt_sc" horiz-adv-x="937" 
d="M403 -20q-297 0 -350 309l168 28q13 -95 62.5 -143.5t119.5 -48.5q82 0 126 54t44 159v790h181v-784q0 -169 -92.5 -266.5t-258.5 -97.5zM791 1200v-2h-156l-178 168h-2l-191 -168h-160v2l250 283h201z" />
    <glyph glyph-name="Scommaaccent.sc" horiz-adv-x="999" 
d="M944 315q0 -153 -111 -244t-333 -91q-390 0 -461 299l164 30q24 -97 87.5 -145.5t209.5 -48.5q276 0 276 190q0 29 -8 52.5t-19.5 41t-36 33t-45 25.5t-60.5 21.5t-67.5 18.5t-80.5 19q-65 14 -111.5 28t-98.5 40t-84 58.5t-53.5 83.5t-21.5 116q0 151 114.5 229
t293.5 78q188 0 284 -66.5t133 -203.5l-167 -27q-23 88 -79.5 129t-181.5 41q-115 0 -171 -48t-56 -124q0 -92 82 -135q47 -25 188 -59h1h1h1l1 -1h1q167 -40 229 -68q134 -59 168 -175q12 -43 12 -97zM602 -139q0 -85 -20.5 -143t-63.5 -107h-117v2q95 105 95 188h-88v164
h194v-104z" />
    <glyph glyph-name="Tcedilla.sc" horiz-adv-x="892" 
d="M651 -256q0 -178 -270 -178q-57 0 -90 4v96q49 -6 86 -6q149 0 149 84q0 76 -135 76q-26 0 -57 -2l65 182h-39v991h-360v137h893v-137h-361v-991h-30l-39 -102q93 -3 140.5 -43t47.5 -111z" />
    <glyph glyph-name="Idotaccent.sc" horiz-adv-x="540" 
d="M184 0v1128h172v-1128h-172zM180 1202v172h180v-172h-180z" />
    </font>
</defs>
</svg>
