<?xml version="1.0" standalone="no"?>
<!DOCTYPE svg PUBLIC "-//W3C//DTD SVG 1.1//EN" "http://www.w3.org/Graphics/SVG/1.1/DTD/svg11.dtd" >
<svg xmlns="http://www.w3.org/2000/svg" xmlns:xlink="http://www.w3.org/1999/xlink" version="1.1">
<metadata>
Created by FontForge 20170731 at Sat Apr  3 00:55:19 2021
 By Aleksey,,,
Copyright (c) 2008 Gustavo Ferreira. Copyright (c) 2008 Universidade de Brasilia.
</metadata>
<defs>
<font id="UnBPro-Bold" horiz-adv-x="1257" >
  <font-face 
    font-family="UnBPro-Bold"
    font-weight="700"
    font-stretch="normal"
    units-per-em="2048"
    panose-1="0 0 0 0 0 0 0 0 0 0"
    ascent="1638"
    descent="-410"
    x-height="1098"
    cap-height="1432"
    bbox="-221 -569 30147 4743"
    underline-thickness="102"
    underline-position="-307"
    unicode-range="U+0020-2265"
  />
<missing-glyph horiz-adv-x="1548" 
d="M279 1356v-1280h989v1280h-989zM203 1432h1140v-1432h-1140v1432z" />
    <glyph glyph-name=".notdef" horiz-adv-x="1548" 
d="M279 1356v-1280h989v1280h-989zM203 1432h1140v-1432h-1140v1432z" />
    <glyph glyph-name=".null" horiz-adv-x="0" 
 />
    <glyph glyph-name="nonmarkingreturn" horiz-adv-x="682" 
 />
    <glyph glyph-name="space" unicode=" " horiz-adv-x="577" 
 />
    <glyph glyph-name="exclam" unicode="!" horiz-adv-x="669" 
d="M469 440h-268l-37 852v314h342v-310zM174 0v334h320v-334h-320z" />
    <glyph glyph-name="quotedbl" unicode="&#x22;" horiz-adv-x="995" 
d="M395 997h-243l-29 541h301zM844 997h-244l-29 541h301z" />
    <glyph glyph-name="numbersign" unicode="#" horiz-adv-x="1155" 
d="M59 838v213h250l76 358h217l-78 -358h250l78 358h219l-78 -358h148v-213h-193l-57 -271h199v-215h-246l-74 -352h-219l74 352h-250l-74 -352h-215l74 352h-152v215h199l57 271h-205zM479 838l-57 -271h250l57 271h-250z" />
    <glyph glyph-name="dollar" unicode="$" horiz-adv-x="1155" 
d="M1057 483q0 -153 -96.5 -244t-284.5 -110v-295h-195v295q-93 11 -163.5 40.5t-114 73.5t-67.5 94t-32 109l291 33q7 -63 51 -106t132 -43q157 0 157 108q0 55 -47.5 84t-183.5 60q-203 46 -289 130t-86 222q0 132 91.5 217.5t260.5 105.5v265h195v-267q150 -21 242 -102
t110 -199l-297 -20q-3 63 -49 97t-117 34q-69 0 -103 -25t-34 -65q0 -35 14.5 -56.5t67.5 -44.5t158 -47q74 -17 127.5 -34.5t105.5 -45t84.5 -62.5t52 -86t19.5 -116z" />
    <glyph glyph-name="percent" unicode="%" horiz-adv-x="1845" 
d="M545 993q0 161 -30.5 223t-98.5 62q-72 0 -102.5 -61.5t-30.5 -223.5q0 -159 31 -222.5t100 -63.5q70 0 100.5 62.5t30.5 223.5zM784 993q0 -123 -28.5 -213.5t-81 -141.5t-117.5 -75t-145 -24t-144.5 23.5t-116.5 74.5t-80 141.5t-28 214.5q0 105 19 184.5t51.5 130.5
t80.5 83t102 44.5t120 12.5q80 0 143 -21.5t115.5 -71t81 -141t28.5 -221.5zM1503 1432l-936 -1432h-225l934 1432h227zM1563 438q0 162 -30.5 224.5t-98.5 62.5q-75 0 -105.5 -61.5t-30.5 -225.5q0 -161 30 -221.5t104 -60.5q67 0 99 62.5t32 219.5zM1798 438
q0 -124 -28.5 -214.5t-80 -142t-116 -75.5t-143.5 -24q-82 0 -147 24t-116.5 76t-79.5 142t-28 214q0 104 19 183.5t52 130.5t81.5 83t102.5 45t120 13q63 0 115 -13t99.5 -45t79.5 -83t51 -130.5t19 -183.5z" />
    <glyph glyph-name="ampersand" unicode="&#x26;" horiz-adv-x="1542" 
d="M1292 -12q-174 0 -340 110q-164 -118 -374 -118q-125 0 -220.5 31t-154 86.5t-88 129t-29.5 162.5q0 140 78.5 240t261.5 190q-72 156 -72 283q0 70 20.5 127.5t64 104t119 72.5t177.5 26q166 0 265.5 -80t99.5 -222q0 -124 -94 -216t-293 -181q116 -196 239 -327
q101 141 158 362l211 -72q-27 -105 -81.5 -224t-119.5 -208q102 -65 187 -65q62 0 118 16v-205q-58 -22 -133 -22zM588 172q113 0 211 68q-157 169 -285 405q-170 -94 -170 -252q0 -98 63.5 -159.5t180.5 -61.5zM573 1100q0 -81 50 -195q141 62 196 109t55 114
q0 59 -38.5 95.5t-102.5 36.5q-77 0 -118.5 -42.5t-41.5 -117.5z" />
    <glyph glyph-name="quotesingle" unicode="'" horiz-adv-x="546" 
d="M395 997h-243l-29 541h301z" />
    <glyph glyph-name="parenleft" unicode="(" horiz-adv-x="768" 
d="M748 -475h-320q-159 229 -232 475.5t-73 568.5q0 557 313 1037h309q-156 -249 -229.5 -492.5t-73.5 -538.5q0 -317 68 -550t238 -500z" />
    <glyph glyph-name="parenright" unicode=")" horiz-adv-x="768" 
d="M340 -475h-320q170 267 238 500t68 550q0 295 -73.5 538.5t-229.5 492.5h309q313 -480 313 -1037q0 -322 -73 -568.5t-232 -475.5z" />
    <glyph glyph-name="asterisk" unicode="*" horiz-adv-x="808" 
d="M508 1333l39 19l192 86l76 -217l-211 -52l-33 -8l31 -33l158 -172l-205 -137l-129 221l-18 33l-21 -35l-129 -219l-209 139l172 181l23 22l-31 8l-215 52l74 217l211 -92l26 -13l-2 33l-20 240h241l-18 -238z" />
    <glyph glyph-name="plus" unicode="+" horiz-adv-x="1210" 
d="M80 567v248h399v410h250v-410h401v-248h-401v-407h-250v407h-399z" />
    <glyph glyph-name="comma" unicode="," horiz-adv-x="600" 
d="M481 334v-264q0 -227 -137 -408h-233v2q145 177 145 336h-131v334h356z" />
    <glyph glyph-name="hyphen" unicode="-" horiz-adv-x="739" 
d="M102 401v271h535v-271h-535z" />
    <glyph glyph-name="period" unicode="." horiz-adv-x="593" 
d="M137 0v334h320v-334h-320z" />
    <glyph glyph-name="slash" unicode="/" horiz-adv-x="800" 
d="M82 -475l309 2081h287l-309 -2081h-287z" />
    <glyph glyph-name="zero" unicode="0" horiz-adv-x="1269" 
d="M864 715q0 177 -29 289t-78.5 158t-121.5 46q-115 0 -172 -114t-57 -379q0 -242 61.5 -366t169.5 -124q227 0 227 490zM1192 715q0 -152 -27 -275t-76 -208t-119 -142t-153.5 -83.5t-181.5 -26.5q-114 0 -211.5 43t-175 129t-122 230.5t-44.5 332.5q0 167 31 296.5
t82.5 211t124.5 134.5t151.5 74t169.5 21q90 0 167 -21t149.5 -74t123 -134.5t81 -211t30.5 -296.5z" />
    <glyph glyph-name="one" unicode="1" horiz-adv-x="929" 
d="M377 0v1171l-271 -182v240l287 203h301v-1432h-317z" />
    <glyph glyph-name="two" unicode="2" horiz-adv-x="1226" 
d="M98 0v217q37 81 95.5 158t120 136.5t128 116.5t125 107t105.5 98t74.5 99t27.5 102q0 84 -46.5 127t-121.5 43q-86 0 -130.5 -43t-59.5 -143l-305 16q8 91 38.5 164.5t88 131.5t150.5 90t216 32q233 0 359.5 -106.5t126.5 -298.5q0 -103 -52.5 -201t-133.5 -177
t-164.5 -147.5t-160 -139.5t-106.5 -126h639v-256h-1014z" />
    <glyph glyph-name="three" unicode="3" horiz-adv-x="1263" 
d="M1159 397q0 -198 -130 -309t-382 -111q-110 0 -198.5 24t-146.5 63t-99 94.5t-61.5 113t-28.5 123.5l321 27q9 -90 61 -141.5t148 -51.5q195 0 195 189q0 182 -252 182h-99v252h93q227 0 227 178q0 83 -44 128.5t-126 45.5t-130 -45.5t-54 -128.5l-316 23
q24 196 161.5 297.5t342.5 101.5q124 0 218 -30t150.5 -83.5t84.5 -121t28 -148.5q0 -129 -75 -215.5t-230 -116.5v-4q171 -21 256.5 -112.5t85.5 -223.5z" />
    <glyph glyph-name="four" unicode="4" horiz-adv-x="1226" 
d="M1159 281h-188v-281h-301v281h-602v235l548 916h355v-920h188v-231zM340 549l-21 -37h351v631l-29 -56z" />
    <glyph glyph-name="five" unicode="5" horiz-adv-x="1277" 
d="M1161 479q0 -109 -32.5 -199t-97 -157.5t-168.5 -105t-238 -37.5q-119 0 -212 29.5t-153.5 83t-96 122.5t-48.5 154l313 22q35 -164 201 -164q97 0 154 63.5t57 180.5q0 109 -55 171.5t-150 62.5q-111 0 -172 -89h-295l51 816h858v-228h-602l-22 -340q94 94 258 94
q207 0 328.5 -125.5t121.5 -353.5z" />
    <glyph glyph-name="six" unicode="6" horiz-adv-x="1255" 
d="M1141 467q0 -217 -136 -352t-368 -135q-247 0 -380.5 177.5t-133.5 524.5q0 382 136.5 576t399.5 194q183 0 291.5 -80.5t151.5 -259.5l-295 -39q-33 133 -156 133q-213 0 -221 -428q43 68 125 105t174 37q188 0 300 -120.5t112 -332.5zM825 459q0 109 -48 170t-140 61
q-79 0 -132.5 -54t-53.5 -167t51.5 -179.5t140.5 -66.5q86 0 134 62.5t48 173.5z" />
    <glyph glyph-name="seven" unicode="7" horiz-adv-x="1114" 
d="M1032 1182q-93 -139 -151 -232t-124 -218.5t-102.5 -231t-61 -235.5t-24.5 -265h-327q0 132 28 262.5t68.5 236t113.5 233t133.5 217.5t157.5 225h-694v258h983v-250z" />
    <glyph glyph-name="eight" unicode="8" horiz-adv-x="1294" 
d="M1165 406q0 -196 -129 -311t-387 -115q-260 0 -391 115.5t-131 307.5q0 144 86.5 236t216.5 113q-121 20 -195.5 112t-74.5 205q0 181 125 282t360 101q244 0 364.5 -102.5t120.5 -282.5q0 -120 -73.5 -205.5t-190.5 -109.5q126 -16 212.5 -108.5t86.5 -237.5zM842 428
q0 95 -47 154t-154 59q-97 0 -143.5 -61t-46.5 -156q0 -225 200 -225q191 0 191 229zM809 1053q0 84 -40 133t-124 49q-164 0 -164 -182q0 -195 166 -195q162 0 162 195z" />
    <glyph glyph-name="nine" unicode="9" horiz-adv-x="1216" 
d="M1116 737q0 -377 -138 -567t-400 -190q-195 0 -304 82t-155 266l295 39q37 -142 168 -142q219 0 225 426q-91 -153 -305 -153q-186 0 -296 127.5t-110 349.5q0 228 133.5 352.5t372.5 124.5q255 0 384.5 -174t129.5 -541zM786 971q0 110 -50.5 173.5t-141.5 63.5
q-85 0 -132.5 -63.5t-47.5 -173.5q0 -107 48 -174.5t134 -67.5q80 0 135 61t55 181z" />
    <glyph glyph-name="colon" unicode=":" horiz-adv-x="692" 
d="M160 0v334h319v-334h-319zM162 764v334h319v-334h-319z" />
    <glyph glyph-name="semicolon" unicode=";" horiz-adv-x="692" 
d="M481 334v-264q0 -227 -137 -408h-233v2q145 177 145 336h-131v334h356zM162 764v334h319v-334h-319z" />
    <glyph glyph-name="less" unicode="&#x3c;" horiz-adv-x="1210" 
d="M80 510v358l1050 389v-251l-835 -320l835 -315v-252z" />
    <glyph glyph-name="equal" unicode="=" horiz-adv-x="1210" 
d="M80 279v247h1050v-247h-1050zM80 850v248h1050v-248h-1050z" />
    <glyph glyph-name="greater" unicode="&#x3e;" horiz-adv-x="1210" 
d="M80 119v252l838 315l-838 320v251l1050 -389v-358z" />
    <glyph glyph-name="question" unicode="?" horiz-adv-x="1118" 
d="M1016 1198q0 -59 -16 -116.5t-35.5 -98.5t-58.5 -92t-63 -77.5t-71 -75.5q-5 -5 -7.5 -8t-7 -7t-7.5 -8q-70 -73 -97.5 -134.5t-27.5 -125.5v-9h-273v29q0 102 42.5 200.5t135.5 207.5q85 101 120.5 168t35.5 139q0 64 -49.5 108.5t-126.5 44.5q-87 0 -137.5 -58.5
t-53.5 -166.5l-299 29q4 72 23 138t59.5 127.5t98.5 106.5t145 72t193 27q217 0 347 -115t130 -305zM336 0v334h319v-334h-319z" />
    <glyph glyph-name="at" unicode="@" horiz-adv-x="1996" 
d="M1966 709q0 -154 -41 -274.5t-112.5 -194.5t-164.5 -112t-202 -38q-160 0 -236 96q-18 21 -32 60q-92 -140 -279 -140q-161 0 -245.5 107.5t-67.5 318.5q11 137 50 236t100 154.5t134.5 80t161.5 21.5q142 -4 213 -100l17 82l219 -5q-50 -254 -66 -348
q-6 -36 -14.5 -89.5t-13 -82t-8.5 -63.5t-5 -60q-3 -67 84 -67q119 0 198 106.5t79 300.5q0 140 -49.5 248t-138.5 175.5t-207.5 101.5t-262.5 34q-171 0 -308.5 -54.5t-227 -151.5t-137.5 -228.5t-48 -285.5q0 -169 51.5 -299t146.5 -211.5t223.5 -122.5t287.5 -41
q112 0 247 30.5t255 86.5l73 -185q-115 -68 -277 -108.5t-306 -40.5q-186 0 -340 44t-265 123t-188 189.5t-114 244t-37 285.5q0 273 115.5 486.5t336 336t512.5 122.5q218 0 389 -58t279.5 -161.5t164.5 -242.5t56 -306zM1206 745q-39 99 -151 99q-101 0 -158 -79t-68 -233
q-9 -124 23 -183.5t109 -59.5q75 0 130 59.5t85 212.5z" />
    <glyph glyph-name="A" unicode="A" horiz-adv-x="1468" 
d="M477 352l-104 -352h-328l487 1432h390l501 -1432h-327l-111 352h-508zM786 993l-59 197l-59 -197l-119 -397h360z" />
    <glyph glyph-name="B" unicode="B" horiz-adv-x="1345" 
d="M1251 410q0 -106 -41 -185.5t-116 -128t-175 -72.5t-223 -24h-544v1432h495q252 0 387 -92t135 -271q0 -247 -258 -309q163 -22 251.5 -114t88.5 -236zM920 434q0 187 -265 187h-182v-383h193q122 0 188 45.5t66 150.5zM842 1032q0 89 -54 127.5t-172 38.5h-143v-334h145
q117 0 170.5 40t53.5 128z" />
    <glyph glyph-name="C" unicode="C" horiz-adv-x="1505" 
d="M811 -20q-185 0 -326.5 55t-228.5 155t-130.5 233.5t-43.5 297.5q0 348 176.5 539.5t536.5 191.5q514 0 639 -410l-285 -75q-29 96 -119 162.5t-227 66.5q-389 0 -389 -475q0 -483 395 -483q265 0 354 262l291 -103q-161 -417 -643 -417z" />
    <glyph glyph-name="D" unicode="D" horiz-adv-x="1519" 
d="M1106 723q0 231 -115.5 344t-316.5 113h-195v-928h236q173 0 282 123.5t109 347.5zM1438 723q0 -172 -54 -311t-148.5 -228t-220.5 -136.5t-274 -47.5h-589v1432h528q168 0 305 -43t239 -128.5t158 -222t56 -315.5z" />
    <glyph glyph-name="E" unicode="E" 
d="M152 0v1432h972v-252h-645v-332h582v-254h-582v-332h658v-262h-985z" />
    <glyph glyph-name="F" unicode="F" horiz-adv-x="1239" 
d="M481 1180v-332h602v-254h-602v-594h-329v1432h972v-252h-643z" />
    <glyph glyph-name="G" unicode="G" horiz-adv-x="1648" 
d="M815 -20q-190 0 -333 55.5t-229.5 157t-128.5 234t-42 296.5q0 346 184.5 537.5t552.5 191.5q262 0 423.5 -100.5t225.5 -282.5l-303 -90q-34 94 -121.5 155.5t-222.5 61.5q-208 0 -307.5 -125t-99.5 -348q0 -110 24.5 -198t73.5 -154t129.5 -102t187.5 -36q114 0 214 32
t159 77v184h-334v240h631v-537q-119 -112 -297 -180.5t-387 -68.5z" />
    <glyph glyph-name="H" unicode="H" horiz-adv-x="1556" 
d="M1081 0v600h-594v-600h-333v1432h333v-562h594v562h322v-1432h-322z" />
    <glyph glyph-name="I" unicode="I" horiz-adv-x="628" 
d="M152 0v1432h327v-1432h-327z" />
    <glyph glyph-name="J" unicode="J" horiz-adv-x="1193" 
d="M551 -20q-228 0 -351 99.5t-157 315.5l315 47q33 -206 185 -206q170 0 170 213v708h-283v264h614v-964q0 -224 -127 -350.5t-366 -126.5z" />
    <glyph glyph-name="K" unicode="K" horiz-adv-x="1460" 
d="M1047 0l-445 604l-115 -106v-498h-335v1432h335v-584l508 584h402l-553 -619l606 -813h-403z" />
    <glyph glyph-name="L" unicode="L" horiz-adv-x="1234" 
d="M152 0v1432h327v-1170h662v-262h-989z" />
    <glyph glyph-name="M" unicode="M" horiz-adv-x="1787" 
d="M152 0v1432h434l262 -830q11 -35 20.5 -69.5t16 -59.5t11 -44.5t7 -31t2.5 -12.5q42 166 56 217l235 830h442v-1432h-292v842q0 47 1 97t2.5 88t3 69t2.5 49l1 18q0 -1 -11.5 -45t-32.5 -124t-44 -158l-244 -836h-233l-279 831q-31 92 -84 310q14 -189 14 -307v-834h-290
z" />
    <glyph glyph-name="N" unicode="N" horiz-adv-x="1540" 
d="M152 0v1432h370l596 -1067q-20 96 -20 276v791h293v-1432h-385l-584 1057q20 -117 20 -254v-803h-290z" />
    <glyph glyph-name="O" unicode="O" horiz-adv-x="1613" 
d="M1198 721q0 224 -100.5 348.5t-288.5 124.5q-194 0 -294.5 -123t-100.5 -348q0 -223 102.5 -354t290.5 -131q198 0 294.5 129t96.5 354zM1532 721q0 -338 -194 -539.5t-533 -201.5q-176 0 -314.5 55t-227.5 154t-135 233.5t-46 296.5q0 343 192.5 538t532.5 195
q346 0 535.5 -195t189.5 -536z" />
    <glyph glyph-name="P" unicode="P" horiz-adv-x="1368" 
d="M1280 971q0 -95 -32 -180t-94 -154t-166.5 -109.5t-237.5 -40.5h-271v-487h-327v1432h583q272 0 408.5 -124t136.5 -337zM948 967q0 103 -63 157t-185 54h-221v-433h230q119 0 179 59.5t60 162.5z" />
    <glyph glyph-name="Q" unicode="Q" horiz-adv-x="1605" 
d="M1532 721q0 -299 -150 -492t-426 -237v-12q0 -37 7.5 -65t24 -44.5t33 -26.5t44.5 -14t46.5 -5t51.5 -1h221v-230q-75 -6 -268 -6q-465 0 -465 369v35q-277 42 -423 237.5t-146 491.5q0 339 190 535t535 196q234 0 398.5 -91t245.5 -254t81 -386zM1198 721
q0 227 -100 350t-289 123q-195 0 -295 -121.5t-100 -349.5q0 -226 102 -355.5t291 -129.5q193 0 292 126.5t99 356.5z" />
    <glyph glyph-name="R" unicode="R" horiz-adv-x="1449" 
d="M479 528v-528h-327v1432h596q268 0 405 -116t137 -323q0 -339 -291 -430l365 -563h-369l-315 528h-201zM956 985q0 193 -243 193h-234v-394h238q122 0 180.5 53t58.5 148z" />
    <glyph glyph-name="S" unicode="S" horiz-adv-x="1363" 
d="M1284 416q0 -206 -150.5 -321t-461.5 -115q-147 0 -254 25.5t-179.5 77.5t-115 124.5t-64.5 173.5l303 51q12 -50 30 -84.5t52 -64.5t91 -45t137 -15q295 0 295 174q0 31 -13 57.5t-39.5 47t-57.5 37t-77.5 30.5t-88 24.5t-99.5 22.5q-57 12 -103.5 25t-97.5 32.5
t-90.5 42.5t-76 56.5t-60.5 72.5t-38.5 91t-14.5 113q0 195 150.5 299t408.5 104q272 0 404.5 -89t168.5 -278l-315 -41q-20 90 -85.5 133.5t-183.5 43.5q-121 0 -175 -42.5t-54 -113.5q0 -33 8.5 -58t29.5 -44.5t42.5 -32.5t63.5 -25.5t74.5 -20.5t92.5 -20
q203 -42 290 -77q180 -73 231 -222q22 -66 22 -149z" />
    <glyph glyph-name="T" unicode="T" horiz-adv-x="1249" 
d="M786 1180v-1180h-329v1180h-432v252h1198v-252h-437z" />
    <glyph glyph-name="U" unicode="U" horiz-adv-x="1529" 
d="M762 -20q-287 0 -448.5 137.5t-161.5 423.5v891h327v-867q0 -166 74 -247.5t215 -81.5q142 0 212.5 83.5t70.5 255.5v857h329v-877q0 -289 -161.5 -432t-456.5 -143z" />
    <glyph glyph-name="V" unicode="V" horiz-adv-x="1376" 
d="M520 0l-510 1432h342l269 -881q17 -56 32 -110.5t23.5 -86t14.5 -56t7 -26.5q25 124 70 279l258 881h340l-502 -1432h-344z" />
    <glyph glyph-name="W" unicode="W" horiz-adv-x="1982" 
d="M365 0l-355 1432h332l156 -766l73 -353q29 167 78 392l158 727h377l162 -727q21 -98 39 -193.5t27 -146.5t9 -52l68 353l151 766h332l-354 -1432h-391l-178 805q-21 91 -38.5 186.5t-19.5 116.5q0 -2 -4 -22t-9.5 -50.5t-12.5 -67.5t-16 -81t-17 -82l-178 -805h-389z" />
    <glyph glyph-name="X" unicode="X" horiz-adv-x="1384" 
d="M10 0l482 756l-441 676h344l297 -492l299 492h342l-420 -678l461 -754h-342l-340 555l-338 -555h-344z" />
    <glyph glyph-name="Y" unicode="Y" horiz-adv-x="1345" 
d="M838 586v-586h-328v586l-500 846h342l318 -584l323 584h342z" />
    <glyph glyph-name="Z" unicode="Z" horiz-adv-x="1304" 
d="M72 0v231l737 945h-670v256h1039v-228l-742 -948h781v-256h-1145z" />
    <glyph glyph-name="bracketleft" unicode="[" horiz-adv-x="792" 
d="M164 -475v2081h588v-211h-293v-1657h293v-213h-588z" />
    <glyph glyph-name="backslash" unicode="\" horiz-adv-x="800" 
d="M369 1606l309 -2081h-287l-309 2081h287z" />
    <glyph glyph-name="bracketright" unicode="]" horiz-adv-x="792" 
d="M629 1606v-2081h-588v211h293v1657h-293v213h588z" />
    <glyph glyph-name="asciicircum" unicode="^" horiz-adv-x="1280" 
d="M948 283l-315 632l-305 -632h-248l389 790h330l401 -790h-252z" />
    <glyph glyph-name="underscore" unicode="_" horiz-adv-x="1024" 
d="M0 -195v195h1024v-195h-1024z" />
    <glyph glyph-name="grave" unicode="`" horiz-adv-x="747" 
d="M451 1198l-349 322v2h279l264 -322v-2h-194z" />
    <glyph glyph-name="a" unicode="a" horiz-adv-x="1198" 
d="M1178 205v-217q-93 -8 -172 -8q-120 0 -193 52.5t-74 149.5q-37 -101 -121.5 -151.5t-201.5 -50.5q-88 0 -157.5 27.5t-112 74t-64 104t-21.5 121.5q0 188 133.5 271.5t409.5 83.5h109v92q0 91 -39.5 131.5t-116.5 40.5q-76 0 -117 -41.5t-41 -118.5l-295 18
q14 154 132 244t339 90q229 0 339 -101t110 -300v-432q0 -40 17.5 -60t60.5 -20h76zM526 184q84 0 135.5 61t51.5 171v82h-140q-88 0 -144 -38t-56 -124q0 -64 39.5 -108t113.5 -44z" />
    <glyph glyph-name="b" unicode="b" horiz-adv-x="1294" 
d="M1219 555q0 -174 -43.5 -300.5t-140 -200.5t-240.5 -74q-114 0 -209 55.5t-127 152.5q-1 -39 -7.5 -108.5t-7.5 -79.5h-309q8 115 8 258v1348h320v-633q0 -34 -4 -74q32 112 122 165.5t214 53.5q215 0 319.5 -149t104.5 -414zM885 551q0 177 -51 259.5t-156 82.5
q-32 0 -60 -8t-58 -31.5t-51.5 -60.5t-35.5 -100t-14 -146q0 -100 20 -171.5t53.5 -107.5t69 -51.5t76.5 -15.5q207 0 207 350z" />
    <glyph glyph-name="c" unicode="c" horiz-adv-x="1165" 
d="M606 -20q-261 0 -395.5 149.5t-134.5 415.5q0 275 136.5 424t393.5 149q112 0 203.5 -31t151 -85.5t95.5 -124t46 -150.5l-316 -14q-9 88 -54.5 136t-125.5 48q-102 0 -149 -83.5t-47 -258.5q0 -184 49.5 -272t152.5 -88q75 0 124 49.5t59 150.5l313 -12
q-10 -83 -44.5 -154t-94.5 -127.5t-153 -89t-210 -32.5z" />
    <glyph glyph-name="d" unicode="d" horiz-adv-x="1282" 
d="M473 -20q-86 0 -154 30t-113 81.5t-75 125t-42.5 156.5t-12.5 180q0 265 109 415t319 150q128 0 214.5 -53t117.5 -145q-5 108 -5 131v555h320v-1364q0 -119 8 -242h-311q-14 96 -14 199q-31 -98 -123.5 -158.5t-237.5 -60.5zM614 201q42 0 79 17t70.5 55.5t53 112
t19.5 175.5q0 97 -19 166t-52.5 105t-69.5 51.5t-79 15.5q-103 0 -154.5 -82.5t-51.5 -259.5q0 -179 50 -267.5t154 -88.5z" />
    <glyph glyph-name="e" unicode="e" horiz-adv-x="1179" 
d="M602 -20q-260 0 -396 144t-136 431q0 155 41.5 267.5t116.5 175.5t168 91.5t208 28.5q504 0 504 -532l-4 -97h-694v-28q0 -55 10.5 -102.5t32.5 -88t63 -63.5t96 -23q75 0 117 36.5t55 115.5l303 -19q-17 -73 -46.5 -129t-83.5 -105.5t-143.5 -76t-211.5 -26.5zM598 926
q-85 0 -134.5 -57t-53.5 -195h368v4q0 136 -45.5 192t-134.5 56z" />
    <glyph glyph-name="f" unicode="f" horiz-adv-x="782" 
d="M31 868v230h162v190q0 158 79 244t260 86q91 0 199 -6v-230h-113q-58 0 -80 -20t-22 -80v-184h213v-230h-213v-868h-323v868h-162z" />
    <glyph glyph-name="g" unicode="g" horiz-adv-x="1286" 
d="M483 2q-206 0 -306.5 146t-100.5 415q0 267 108.5 411t319.5 144q121 0 211.5 -54t126.5 -153q6 97 16 187h305q-8 -70 -8 -260v-846q0 -479 -545 -479q-122 0 -214.5 25t-149 70.5t-88.5 101t-43 124.5l315 31q27 -150 191 -150q104 0 158.5 62.5t54.5 206.5v159
q0 44 2 64q-81 -205 -353 -205zM836 567q0 172 -62 249t-156 77q-101 0 -154.5 -78t-53.5 -252q0 -167 50.5 -249.5t155.5 -82.5q44 0 81 16.5t69.5 52.5t51 104.5t18.5 162.5z" />
    <glyph glyph-name="h" unicode="h" horiz-adv-x="1284" 
d="M465 1075q0 -103 -8 -217q42 133 136.5 196.5t215.5 63.5q180 0 268 -110.5t88 -305.5v-702h-325v616q0 256 -170 256q-94 0 -149.5 -80t-55.5 -208v-584h-326v1606h326v-531z" />
    <glyph glyph-name="i" unicode="i" horiz-adv-x="583" 
d="M143 0v1098h318v-1098h-318zM143 1235v299h318v-299h-318z" />
    <glyph glyph-name="j" unicode="j" horiz-adv-x="591" 
d="M162 -487q-89 0 -191 4v247h49q78 0 102.5 32t24.5 128v1174h322v-1284q0 -137 -77.5 -219t-229.5 -82zM147 1235v299h322v-299h-322z" />
    <glyph glyph-name="k" unicode="k" horiz-adv-x="1198" 
d="M842 0l-275 477l-110 -92v-385h-320v1606h320v-940l358 432h340l-371 -434l404 -664h-346z" />
    <glyph glyph-name="l" unicode="l" horiz-adv-x="593" 
d="M137 0v1606h320v-1606h-320z" />
    <glyph glyph-name="m" unicode="m" horiz-adv-x="1878" 
d="M788 0v649q0 117 -32 171t-113 54q-80 0 -127 -68t-47 -200v-606h-322v850q0 146 -10 248h312q10 -130 14 -224q37 122 120.5 183t200.5 61q254 0 312 -254q36 125 124.5 189.5t209.5 64.5q327 0 327 -403v-715h-327v659q0 110 -32 162.5t-112 52.5q-79 0 -127.5 -67.5
t-48.5 -188.5v-618h-322z" />
    <glyph glyph-name="n" unicode="n" horiz-adv-x="1286" 
d="M840 0v643q0 119 -38.5 175t-131.5 56q-97 0 -151 -78t-54 -214v-582h-322v844q0 71 -6 254h307q1 -9 4.5 -50t7 -89.5t5.5 -86.5q41 121 130.5 183.5t219.5 62.5q80 0 142.5 -21.5t101.5 -57t64.5 -86.5t35.5 -106t10 -120v-727h-325z" />
    <glyph glyph-name="o" unicode="o" 
d="M856 549q0 170 -58 258t-165 88q-230 0 -230 -346q0 -171 59.5 -263.5t164.5 -92.5q117 0 173 86.5t56 269.5zM1182 551q0 -267 -141 -419t-416 -152q-269 0 -409 153t-140 418q0 259 141.5 413t413.5 154q143 0 250.5 -41t172.5 -117.5t96.5 -178.5t31.5 -230z" />
    <glyph glyph-name="p" unicode="p" horiz-adv-x="1296" 
d="M1221 555q0 -273 -106.5 -424t-319.5 -151q-252 0 -338 204q8 -90 8 -180v-477h-318v1313q0 120 -10 258h314q10 -147 10 -195q71 215 352 215q85 0 153 -27.5t115.5 -76.5t79 -120t46 -155t14.5 -184zM887 551q0 180 -52.5 261t-156.5 81q-33 0 -62 -9.5t-58 -33.5
t-50 -62t-34 -99t-13 -140q0 -100 20 -172t53.5 -108.5t68.5 -52t75 -15.5q209 0 209 350z" />
    <glyph glyph-name="q" unicode="q" horiz-adv-x="1277" 
d="M481 -20q-137 0 -229.5 74.5t-134 200t-41.5 296.5q0 268 107.5 417.5t322.5 149.5q113 0 199.5 -47.5t128.5 -150.5q0 30 6 97t8 81h307q-4 -140 -4 -242v-1329h-315v573l4 86q-98 -206 -359 -206zM616 201q33 0 63 10t59.5 35t50.5 63.5t34 101t13 142.5
q0 99 -19.5 169t-53 105.5t-69 50.5t-76.5 15q-102 0 -155 -80.5t-53 -263.5q0 -348 206 -348z" />
    <glyph glyph-name="r" unicode="r" horiz-adv-x="872" 
d="M821 842q-45 6 -108 6q-122 0 -183 -75.5t-61 -203.5v-569h-324v838q0 54 -3.5 148t-6.5 112h316q13 -154 14 -199q25 99 97 159t190 60q44 0 69 -4v-272z" />
    <glyph glyph-name="s" unicode="s" horiz-adv-x="1067" 
d="M1016 338q0 -171 -121 -264.5t-354 -93.5q-119 0 -209.5 26t-145 72t-84 101t-39.5 122l291 33q7 -64 51 -107t132 -43q157 0 157 109q0 55 -47.5 83.5t-183.5 59.5q-201 46 -284 129.5t-83 222.5q0 151 114 240.5t325 89.5q192 0 312.5 -86t139.5 -223l-297 -21
q-3 63 -49 97.5t-117 34.5q-69 0 -103 -25.5t-34 -65.5q0 -35 14.5 -56t67.5 -44t158 -47q74 -17 127.5 -34.5t105.5 -45t84.5 -62.5t52 -86t19.5 -116z" />
    <glyph glyph-name="t" unicode="t" horiz-adv-x="802" 
d="M31 866v232h145v336h322v-336h209v-232h-209v-516q0 -58 23.5 -80t86.5 -22h103v-256q-14 -1 -61 -4.5t-89 -5.5t-94 -2q-140 0 -215.5 80t-75.5 231v575h-145z" />
    <glyph glyph-name="u" unicode="u" horiz-adv-x="1292" 
d="M446 1098v-645q0 -120 38 -175t132 -55q96 0 150.5 73.5t54.5 203.5v598h326v-850q0 -198 8 -248h-311q-15 150 -15 225q-96 -245 -352 -245q-78 0 -140 21.5t-101.5 57t-65.5 86t-36.5 104.5t-10.5 116v733h323z" />
    <glyph glyph-name="v" unicode="v" horiz-adv-x="1128" 
d="M758 0h-375l-393 1098h321l189 -586l75 -264l74 264l174 586h316z" />
    <glyph glyph-name="w" unicode="w" horiz-adv-x="1679" 
d="M272 0l-282 1098h307l133 -625l39 -192q14 96 39 194l160 623h346l160 -625l45 -194q16 100 36 194l138 625h297l-283 -1098h-350l-166 645q-16 62 -31.5 137t-17.5 95q-20 -122 -49 -232l-162 -645h-359z" />
    <glyph glyph-name="x" unicode="x" horiz-adv-x="1163" 
d="M815 0l-244 383l-247 -383h-334l405 569l-387 529h338l225 -340l222 340h337l-385 -527l408 -571h-338z" />
    <glyph glyph-name="y" unicode="y" horiz-adv-x="1132" 
d="M233 -487h-159v251h159q60 0 92.5 20t49.5 69l43 120l-428 1125h315l174 -512l96 -295q54 153 99 303l151 504h318l-471 -1309q-20 -55 -43 -96.5t-47 -71t-55 -49.5t-60 -31.5t-70 -18t-76.5 -8t-87.5 -1.5z" />
    <glyph glyph-name="z" unicode="z" horiz-adv-x="1054" 
d="M82 0l2 215l520 662h-493v221h843v-219l-516 -656h545v-223h-901z" />
    <glyph glyph-name="braceleft" unicode="{" horiz-adv-x="886" 
d="M846 -475h-250q-121 0 -199 83t-78 220v371q0 123 -60.5 175t-176.5 52v219q117 3 177 56t60 176v423q0 147 79 226.5t212 79.5h236v-211h-96q-136 0 -136 -144v-430q0 -118 -61 -189.5t-154 -90.5v-4q95 -23 155 -94t60 -185v-383q0 -72 30.5 -104.5t90.5 -32.5h111
v-213z" />
    <glyph glyph-name="bar" unicode="|" horiz-adv-x="772" 
d="M248 -473l-2 2079h280v-2079h-278z" />
    <glyph glyph-name="braceright" unicode="}" horiz-adv-x="886" 
d="M291 -475h-250v213h111q60 0 90 32.5t30 104.5v383q0 114 60 185t155 94v4q-93 19 -154 90.5t-61 189.5v430q0 144 -135 144h-96v211h235q133 0 212 -79.5t79 -226.5v-423q0 -123 60.5 -176t177.5 -56v-219q-116 0 -177 -52t-61 -175v-371q0 -137 -77.5 -220t-198.5 -83z
" />
    <glyph glyph-name="asciitilde" unicode="~" horiz-adv-x="1210" 
d="M864 514q-48 0 -104 11t-93 22.5t-104 34.5q-142 49 -225 49q-73 0 -134 -22.5t-126 -67.5v237q115 84 276 84q53 0 115.5 -13t103 -26t109.5 -37q131 -43 203 -43q135 0 252 95v-244q-66 -44 -126.5 -62t-146.5 -18z" />
    <glyph glyph-name="exclamdown" unicode="&#xa1;" horiz-adv-x="669" 
d="M201 676h268l37 -852v-313h-342v309zM496 1116v-334h-320v334h320z" />
    <glyph glyph-name="cent" unicode="&#xa2;" horiz-adv-x="1155" 
d="M53 696q0 252 114.5 389.5t313.5 163.5v273h195v-275q178 -28 278.5 -143t106.5 -268l-330 -31q-25 207 -164 207q-84 0 -129 -67t-45 -236q0 -76 7.5 -131.5t27 -102t56 -70.5t89.5 -24q78 0 115 52t47 153l334 -21q-21 -179 -118.5 -288.5t-274.5 -135.5v-307h-195v307
q-198 27 -313 170.5t-115 384.5z" />
    <glyph glyph-name="sterling" unicode="&#xa3;" horiz-adv-x="1155" 
d="M10 608v185h191v241q0 90 23 163.5t71.5 132t132.5 90.5t199 32q101 0 174.5 -21.5t121 -65t76.5 -96.5t50 -128l-254 -47q-22 84 -59.5 118.5t-108.5 34.5q-79 0 -116.5 -52t-37.5 -161v-241h260v-185h-260v-82q0 -108 -47 -179.5t-143 -119.5h360q111 0 165.5 50
t72.5 151l258 -45q-15 -76 -46.5 -142t-80.5 -121.5t-123 -87.5t-166 -32h-700v223q44 25 72 47.5t54.5 57.5t39 84.5t12.5 115.5v80h-191z" />
    <glyph glyph-name="currency" unicode="&#xa4;" horiz-adv-x="1155" 
d="M215 158l-172 176l147 149q-53 101 -53 213t56 213l-146 146l172 174l146 -150q99 58 215 58q112 0 213 -56l147 150l174 -174l-147 -148q55 -99 55 -213q0 -112 -53 -213l145 -143l-174 -178l-141 147q-102 -57 -219 -57q-118 0 -220 57zM766 698q0 80 -53 135.5
t-140 55.5q-86 0 -137 -53t-51 -138q0 -86 52.5 -140t137.5 -54t138 54t53 140z" />
    <glyph glyph-name="yen" unicode="&#xa5;" horiz-adv-x="1155" 
d="M96 260v158h330v125h-330v151h273l-359 738h320l245 -592l252 592h318l-354 -738h268v-151h-332v-125h332v-158h-332v-260h-301v260h-330z" />
    <glyph glyph-name="brokenbar" unicode="&#xa6;" horiz-adv-x="770" 
d="M246 -473v862h278v-862h-278zM246 743v863h278v-863h-278z" />
    <glyph glyph-name="section" unicode="&#xa7;" horiz-adv-x="1157" 
d="M1034 1223l-235 -23q-14 62 -84 95.5t-146 33.5q-98 0 -153.5 -30.5t-55.5 -94.5q0 -37 20.5 -64.5t62.5 -46.5t84.5 -31t107.5 -28q2 0 3 -0.5t3 -1t4 -0.5q77 -18 130.5 -34.5t112.5 -44t94.5 -60t59 -82t23.5 -111.5q0 -194 -207 -260q100 -41 145.5 -104.5
t45.5 -159.5q0 -164 -120 -256t-370 -92q-218 0 -344 67.5t-164 223.5l240 37q22 -86 88.5 -121t179.5 -35q252 0 252 145q0 80 -75 121q-55 30 -229 70l-36 8q-62 14 -110 29t-102 42t-89 59.5t-58.5 82t-23.5 109.5q0 179 219 243q-84 39 -137 108t-53 167q0 151 115 234
t327 83q189 0 316.5 -69.5t158.5 -208.5zM336 692q0 -63 56.5 -100t195.5 -74q235 24 235 148q0 68 -64 113.5t-210 72.5q-213 -37 -213 -160z" />
    <glyph glyph-name="dieresis" unicode="&#xa8;" horiz-adv-x="890" 
d="M102 1210v234h230v-234h-230zM553 1210v234h235v-234h-235z" />
    <glyph glyph-name="copyright" unicode="&#xa9;" horiz-adv-x="1589" 
d="M584 709q0 -129 56 -206t167 -77q74 0 123.5 42t73.5 101l159 -47q-23 -50 -50 -87.5t-68.5 -74t-101.5 -56t-136 -19.5q-201 0 -302.5 115.5t-101.5 308.5q0 197 99 306t297 109q261 0 352 -229l-156 -41q-23 55 -71 92t-121 37q-219 0 -219 -274zM1405 707
q0 165 -82 305t-222.5 221.5t-305.5 81.5t-305.5 -81.5t-222 -221.5t-81.5 -305q0 -124 48.5 -237t130 -195t194 -130.5t236.5 -48.5q165 0 305.5 82t222.5 223t82 306zM1518 707q0 -196 -97.5 -362.5t-264 -263.5t-361.5 -97q-196 0 -362.5 97t-263.5 263.5t-97 362.5
q0 197 96.5 363.5t263 263t363.5 96.5q196 0 362 -96.5t263.5 -263t97.5 -363.5z" />
    <glyph glyph-name="ordfeminine" unicode="&#xaa;" horiz-adv-x="890" 
d="M35 881q0 122 92.5 183t265.5 64l111 2v48q0 118 -107 118q-101 0 -110 -106l-217 16q4 48 24 90.5t58 79.5t105 58.5t155 21.5q147 0 230 -66.5t83 -201.5v-293q0 -38 11.5 -56t39.5 -18q33 0 47 2v-161q-54 -7 -121 -7q-70 0 -116.5 30t-59.5 87l-4 10q-27 -65 -93 -99
t-148 -34q-105 0 -175.5 62.5t-70.5 169.5zM365 817q68 0 103.5 43.5t35.5 120.5v33l-82 -2q-78 -2 -118 -24.5t-40 -80.5q0 -42 25 -66t76 -24z" />
    <glyph glyph-name="guillemotleft" unicode="&#xab;" 
d="M854 143l-266 402v4l264 405h301v-2l-256 -407l258 -400v-2h-301zM369 143l-267 402v4l265 405h301v-2l-256 -407l258 -400v-2h-301z" />
    <glyph glyph-name="logicalnot" unicode="&#xac;" horiz-adv-x="1210" 
d="M881 133v434h-803v248h1050v-682h-247z" />
    <glyph glyph-name="macron" unicode="&#xaf;" horiz-adv-x="1179" 
d="M1077 1305h-975v155h975v-155z" />
    <glyph glyph-name="degree" unicode="&#xb0;" horiz-adv-x="825" 
d="M575 1116q0 72 -47 119t-116 47q-68 0 -116 -47.5t-48 -118.5q0 -67 48.5 -116.5t115.5 -49.5q68 0 115.5 49.5t47.5 116.5zM750 1116q0 -136 -99.5 -232t-238.5 -96q-138 0 -236 96t-98 232q0 139 97.5 234.5t236.5 95.5t238.5 -96t99.5 -234z" />
    <glyph glyph-name="plusminus" unicode="&#xb1;" horiz-adv-x="1136" 
d="M43 725v250h401v328h248v-328h402v-250h-402v-330h-248v330h-401zM43 0v248h1051v-248h-1051z" />
    <glyph glyph-name="acute" unicode="&#xb4;" horiz-adv-x="751" 
d="M102 1198v2l271 322h276v-2l-327 -322h-220z" />
    <glyph glyph-name="paragraph" unicode="&#xb6;" horiz-adv-x="1163" 
d="M969 1274v-1542h-170v1542h-193v-1542h-170v973q-169 0 -268.5 92.5t-99.5 267.5q0 172 98.5 269.5t277.5 97.5h658v-158h-133z" />
    <glyph glyph-name="periodcentered" unicode="&#xb7;" horiz-adv-x="688" 
d="M184 412v333h320v-333h-320z" />
    <glyph glyph-name="cedilla" unicode="&#xb8;" horiz-adv-x="624" 
d="M522 -233q0 -88 -73 -142.5t-240 -54.5q-49 0 -107 6v127q26 -6 86 -6q138 0 138 65q0 35 -29.5 51.5t-93.5 16.5q-33 0 -51 -2l61 172h156l-31 -78q92 -4 138 -45.5t46 -109.5z" />
    <glyph glyph-name="ordmasculine" unicode="&#xba;" horiz-adv-x="862" 
d="M559 1061q0 129 -32.5 180t-102.5 51q-72 0 -105.5 -51t-33.5 -180q0 -139 33.5 -194.5t101.5 -55.5q73 0 106 55t33 195zM801 1057q0 -199 -95.5 -303.5t-285.5 -104.5q-183 0 -281 105.5t-98 298.5t97.5 298t285.5 105q189 0 283 -103t94 -296z" />
    <glyph glyph-name="guillemotright" unicode="&#xbb;" 
d="M889 954l266 -401v-4l-264 -406h-301v2l256 408l-258 399v2h301zM403 954l267 -401v-4l-264 -406h-302v2l256 408l-258 399v2h301z" />
    <glyph glyph-name="questiondown" unicode="&#xbf;" horiz-adv-x="1097" 
d="M102 -102q0 50 9 96t29.5 88.5t39.5 75.5t52.5 73.5t54.5 63t59 62.5l8 8t7 7.5t8 8.5q70 73 97.5 134.5t27.5 125.5v8h272v-28q0 -102 -42.5 -200.5t-135.5 -207.5q-85 -101 -120.5 -168t-35.5 -139q0 -64 49.5 -109t126.5 -45q87 0 137.5 58.5t53.5 166.5l299 -28
q-4 -72 -23 -138t-59 -127.5t-98 -106.5t-145 -72t-193 -27q-218 0 -348 115t-130 305zM782 1096v-334h-319v334h319z" />
    <glyph glyph-name="Agrave" unicode="&#xc0;" horiz-adv-x="1468" 
d="M373 0l104 352h508l111 -352h327l-501 1432h-390l-487 -1432h328zM727 1190l59 -197l123 -397h-360l119 397zM653 1501l-405 322v2h336l293 -322v-2h-224z" />
    <glyph glyph-name="Aacute" unicode="&#xc1;" horiz-adv-x="1468" 
d="M373 0l104 352h508l111 -352h327l-501 1432h-390l-487 -1432h328zM727 1190l59 -197l123 -397h-360l119 397zM580 1501v2l299 322h329v-2l-381 -322h-247z" />
    <glyph glyph-name="Acircumflex" unicode="&#xc2;" horiz-adv-x="1468" 
d="M373 0l104 352h508l111 -352h327l-501 1432h-390l-487 -1432h328zM1133 1501h-199l-201 199h-4l-209 -199h-201v2l291 365h240l283 -365v-2zM727 1190l59 -197l123 -397h-360l119 397z" />
    <glyph glyph-name="Atilde" unicode="&#xc3;" horiz-adv-x="1468" 
d="M373 0l104 352h508l111 -352h327l-501 1432h-390l-487 -1432h328zM901 1501q-52 0 -118 31.5t-124 62.5t-90 31q-94 0 -94 -108v-17h-153v23q0 51 9.5 95t33 88.5t72.5 70.5t120 26q42 0 94 -20t92 -44.5t82 -44.5t68 -20q90 0 90 115v14h150v-14q0 -46 -5 -84
t-19.5 -77.5t-39.5 -66.5t-67.5 -44t-100.5 -17zM727 1190l59 -197l123 -397h-360l119 397z" />
    <glyph glyph-name="Adieresis" unicode="&#xc4;" horiz-adv-x="1468" 
d="M373 0l104 352h508l111 -352h327l-501 1432h-390l-487 -1432h328zM727 1190l59 -197l123 -397h-360l119 397zM842 1513v234h235v-234h-235zM391 1513v234h230v-234h-230z" />
    <glyph glyph-name="Aring" unicode="&#xc5;" horiz-adv-x="1468" 
d="M373 0l104 352h508l111 -352h327l-501 1432h-390l-487 -1432h328zM985 1694q0 -107 -74 -180.5t-180 -73.5q-105 0 -179.5 73.5t-74.5 180.5q0 104 75 179t179 75q105 0 179.5 -74.5t74.5 -179.5zM727 1190l59 -197l123 -397h-360l119 397zM858 1694q0 50 -37 87.5
t-90 37.5t-89 -37t-36 -88q0 -54 35.5 -91.5t89.5 -37.5t90.5 37.5t36.5 91.5z" />
    <glyph glyph-name="AE" unicode="&#xc6;" horiz-adv-x="2105" 
d="M1985 0h-988v360h-452l-170 -360h-330l705 1427l1222 3v-246h-649v-334h588v-252h-588v-336h662v-262zM840 983l-191 -401h348v610h-61z" />
    <glyph glyph-name="Ccedilla" unicode="&#xc7;" horiz-adv-x="1505" 
d="M1038 -233q0 -88 -73 -142.5t-240 -54.5q-49 0 -107 6v127q31 -6 87 -6q137 0 137 65q0 35 -29.5 51.5t-93.5 16.5q-33 0 -51 -2l55 156q-163 12 -287 71.5t-200.5 157.5t-115 225.5t-38.5 282.5q0 348 176.5 539.5t536.5 191.5q514 0 639 -410l-285 -75
q-29 96 -119 162.5t-227 66.5q-389 0 -389 -475q0 -483 395 -483q265 0 354 262l291 -103q-151 -387 -577 -415l-23 -60q92 -4 138 -45.5t46 -109.5z" />
    <glyph glyph-name="Egrave" unicode="&#xc8;" 
d="M152 0v1432h972v-252h-645v-332h582v-254h-582v-332h658v-262h-985zM567 1505l-405 322v2h336l293 -322v-2h-224z" />
    <glyph glyph-name="Eacute" unicode="&#xc9;" 
d="M152 0v1432h972v-252h-645v-332h582v-254h-582v-332h658v-262h-985zM494 1505v2l299 322h329v-2l-381 -322h-247z" />
    <glyph glyph-name="Ecircumflex" unicode="&#xca;" 
d="M152 0v1432h972v-252h-645v-332h582v-254h-582v-332h658v-262h-985zM1047 1505h-199l-201 199h-4l-209 -199h-201v2l291 365h240l283 -365v-2z" />
    <glyph glyph-name="Edieresis" unicode="&#xcb;" 
d="M152 0v1432h972v-252h-645v-332h582v-254h-582v-332h658v-262h-985zM305 1518v233h230v-233h-230zM756 1518v233h235v-233h-235z" />
    <glyph glyph-name="Igrave" unicode="&#xcc;" horiz-adv-x="628" 
d="M152 0v1432h327v-1432h-327zM193 1505l-406 322v2h336l293 -322v-2h-223z" />
    <glyph glyph-name="Iacute" unicode="&#xcd;" horiz-adv-x="628" 
d="M152 0v1432h327v-1432h-327zM141 1505v2l232 322h338v-2l-349 -322h-221z" />
    <glyph glyph-name="Icircumflex" unicode="&#xce;" horiz-adv-x="628" 
d="M152 0v1432h327v-1432h-327zM672 1505h-199l-201 199h-4l-209 -199h-200v2l291 365h239l283 -365v-2z" />
    <glyph glyph-name="Idieresis" unicode="&#xcf;" horiz-adv-x="628" 
d="M152 0v1432h327v-1432h-327zM-70 1518v233h230v-233h-230zM381 1518v233h235v-233h-235z" />
    <glyph glyph-name="Eth" unicode="&#xd0;" horiz-adv-x="1519" 
d="M1438 723q0 -172 -54 -311t-148.5 -228t-220.5 -136.5t-274 -47.5h-589v573h-220v234h220v625h528q168 0 305 -43t239 -128.5t158 -222t56 -315.5zM1106 723q0 231 -115.5 344t-316.5 113h-195v-373h320v-234h-320v-321h236q173 0 282 123.5t109 347.5z" />
    <glyph glyph-name="Ntilde" unicode="&#xd1;" horiz-adv-x="1540" 
d="M152 0v1432h370l596 -1067q-20 96 -20 276v791h293v-1432h-385l-584 1057q20 -117 20 -254v-803h-290zM915 1505q-52 0 -117.5 31.5t-123.5 62.5t-90 31q-95 0 -95 -108v-17h-153v23q0 51 9.5 95t33 88.5t72.5 70.5t120 26q42 0 94 -20t92 -44.5t82 -44.5t68 -20
q90 0 90 115v14h150v-14q0 -46 -5 -84t-19.5 -77.5t-39.5 -66.5t-67.5 -44t-100.5 -17z" />
    <glyph glyph-name="Ograve" unicode="&#xd2;" horiz-adv-x="1613" 
d="M1198 721q0 224 -100.5 348.5t-288.5 124.5q-194 0 -294.5 -123t-100.5 -348q0 -223 102.5 -354t290.5 -131q198 0 294.5 129t96.5 354zM1532 721q0 -338 -194 -539.5t-533 -201.5q-176 0 -314.5 55t-227.5 154t-135 233.5t-46 296.5q0 343 192.5 538t532.5 195
q346 0 535.5 -195t189.5 -536zM711 1505l-406 322v2h336l293 -322v-2h-223z" />
    <glyph glyph-name="Oacute" unicode="&#xd3;" horiz-adv-x="1613" 
d="M1198 721q0 224 -100.5 348.5t-288.5 124.5q-194 0 -294.5 -123t-100.5 -348q0 -223 102.5 -354t290.5 -131q198 0 294.5 129t96.5 354zM1532 721q0 -338 -194 -539.5t-533 -201.5q-176 0 -314.5 55t-227.5 154t-135 233.5t-46 296.5q0 343 192.5 538t532.5 195
q346 0 535.5 -195t189.5 -536zM637 1505v2l299 322h330v-2l-381 -322h-248z" />
    <glyph glyph-name="Ocircumflex" unicode="&#xd4;" horiz-adv-x="1613" 
d="M1198 721q0 224 -100.5 348.5t-288.5 124.5q-194 0 -294.5 -123t-100.5 -348q0 -223 102.5 -354t290.5 -131q198 0 294.5 129t96.5 354zM1532 721q0 -338 -194 -539.5t-533 -201.5q-176 0 -314.5 55t-227.5 154t-135 233.5t-46 296.5q0 343 192.5 538t532.5 195
q346 0 535.5 -195t189.5 -536zM1190 1505h-199l-200 199h-5l-208 -199h-201v2l291 365h239l283 -365v-2z" />
    <glyph glyph-name="Otilde" unicode="&#xd5;" horiz-adv-x="1613" 
d="M1198 721q0 224 -100.5 348.5t-288.5 124.5q-194 0 -294.5 -123t-100.5 -348q0 -223 102.5 -354t290.5 -131q198 0 294.5 129t96.5 354zM1532 721q0 -338 -194 -539.5t-533 -201.5q-176 0 -314.5 55t-227.5 154t-135 233.5t-46 296.5q0 343 192.5 538t532.5 195
q346 0 535.5 -195t189.5 -536zM958 1505q-52 0 -117.5 31.5t-123.5 62.5t-90 31q-95 0 -95 -108v-17h-153v23q0 51 9.5 95t33 88.5t72.5 70.5t120 26q42 0 94 -20t92 -44.5t82 -44.5t68 -20q90 0 90 115v14h150v-14q0 -46 -5 -84t-19.5 -77.5t-39.5 -66.5t-67.5 -44
t-100.5 -17z" />
    <glyph glyph-name="Odieresis" unicode="&#xd6;" horiz-adv-x="1613" 
d="M1198 721q0 224 -100.5 348.5t-288.5 124.5q-194 0 -294.5 -123t-100.5 -348q0 -223 102.5 -354t290.5 -131q198 0 294.5 129t96.5 354zM1532 721q0 -338 -194 -539.5t-533 -201.5q-176 0 -314.5 55t-227.5 154t-135 233.5t-46 296.5q0 343 192.5 538t532.5 195
q346 0 535.5 -195t189.5 -536zM449 1518v233h229v-233h-229zM899 1518v233h236v-233h-236z" />
    <glyph glyph-name="multiply" unicode="&#xd7;" horiz-adv-x="1208" 
d="M1139 1053l-359 -359l359 -356l-174 -178l-359 358l-362 -362l-176 174l362 362l-358 361l176 172l358 -357l359 361z" />
    <glyph glyph-name="Oslash" unicode="&#xd8;" horiz-adv-x="1613" 
d="M1532 721q0 -338 -194 -539.5t-533 -201.5q-282 0 -461 137l-160 -172h-184l246 264q-164 191 -164 510q0 343 192.5 538t532.5 195q281 0 465 -135l155 166h185l-240 -260q160 -192 160 -502zM414 723q0 -168 53 -277l604 652q-104 96 -262 96q-194 0 -294.5 -123
t-100.5 -348zM1198 721q0 148 -49 262l-602 -649q99 -96 260 -96q198 0 294.5 129t96.5 354z" />
    <glyph glyph-name="Ugrave" unicode="&#xd9;" horiz-adv-x="1529" 
d="M762 -20q-287 0 -448.5 137.5t-161.5 423.5v891h327v-867q0 -166 74 -247.5t215 -81.5q142 0 212.5 83.5t70.5 255.5v857h329v-877q0 -289 -161.5 -432t-456.5 -143zM696 1505l-405 322v2h336l293 -322v-2h-224z" />
    <glyph glyph-name="Uacute" unicode="&#xda;" horiz-adv-x="1529" 
d="M762 -20q-287 0 -448.5 137.5t-161.5 423.5v891h327v-867q0 -166 74 -247.5t215 -81.5q142 0 212.5 83.5t70.5 255.5v857h329v-877q0 -289 -161.5 -432t-456.5 -143zM623 1505v2l299 322h329v-2l-381 -322h-247z" />
    <glyph glyph-name="Ucircumflex" unicode="&#xdb;" horiz-adv-x="1529" 
d="M762 -20q-287 0 -448.5 137.5t-161.5 423.5v891h327v-867q0 -166 74 -247.5t215 -81.5q142 0 212.5 83.5t70.5 255.5v857h329v-877q0 -289 -161.5 -432t-456.5 -143zM1176 1505h-199l-201 199h-4l-209 -199h-201v2l291 365h240l283 -365v-2z" />
    <glyph glyph-name="Udieresis" unicode="&#xdc;" horiz-adv-x="1529" 
d="M762 -20q-287 0 -448.5 137.5t-161.5 423.5v891h327v-867q0 -166 74 -247.5t215 -81.5q142 0 212.5 83.5t70.5 255.5v857h329v-877q0 -289 -161.5 -432t-456.5 -143zM434 1518v233h230v-233h-230zM885 1518v233h235v-233h-235z" />
    <glyph glyph-name="Yacute" unicode="&#xdd;" horiz-adv-x="1345" 
d="M838 586v-586h-328v586l-500 846h342l318 -584l323 584h342zM463 1505v2l299 322h330v-2l-381 -322h-248z" />
    <glyph glyph-name="Thorn" unicode="&#xde;" horiz-adv-x="1368" 
d="M1280 754q0 -95 -32 -180t-94 -154t-166.5 -109.5t-237.5 -40.5l-271 4v-274h-327v1430h325v-216h258q272 0 408.5 -124t136.5 -336zM948 750q0 103 -63 157t-185 54h-221v-433h230q119 0 179 59.5t60 162.5z" />
    <glyph glyph-name="germandbls" unicode="&#xdf;" horiz-adv-x="1251" 
d="M1286 336q0 -160 -117.5 -258t-330.5 -98q-168 0 -281 45v221q43 -24 114.5 -35.5t133.5 -11.5q168 0 168 123q0 39 -20 73.5t-52.5 61t-71 52.5t-77.5 56t-71.5 64t-52.5 82.5t-20 105.5q0 55 22.5 101t55 79.5t64.5 65t54.5 73t22.5 89.5q0 72 -42.5 114.5t-131.5 42.5
q-227 0 -227 -292v-1090l-322 2v1081q0 259 141.5 397t411.5 138q125 0 222 -28t156.5 -77t89.5 -111.5t30 -135.5t-23.5 -135t-56.5 -102.5t-66.5 -73t-57 -61t-23.5 -52.5q0 -25 19.5 -49.5t51.5 -48t70 -50t76 -61.5t70 -75.5t51.5 -98t19.5 -123.5z" />
    <glyph glyph-name="agrave" unicode="&#xe0;" horiz-adv-x="1198" 
d="M1178 205v-217q-93 -8 -172 -8q-120 0 -193 52.5t-74 149.5q-37 -101 -121.5 -151.5t-201.5 -50.5q-88 0 -157.5 27.5t-112 74t-64 104t-21.5 121.5q0 188 133.5 271.5t409.5 83.5h109v92q0 91 -39.5 131.5t-116.5 40.5q-76 0 -117 -41.5t-41 -118.5l-295 18
q14 154 132 244t339 90q229 0 339 -101t110 -300v-432q0 -40 17.5 -60t60.5 -20h76zM526 184q84 0 135.5 61t51.5 171v82h-140q-88 0 -144 -38t-56 -124q0 -64 39.5 -108t113.5 -44zM498 1198l-348 322v2h278l264 -322v-2h-194z" />
    <glyph glyph-name="aacute" unicode="&#xe1;" horiz-adv-x="1198" 
d="M1178 205v-217q-93 -8 -172 -8q-120 0 -193 52.5t-74 149.5q-37 -101 -121.5 -151.5t-201.5 -50.5q-88 0 -157.5 27.5t-112 74t-64 104t-21.5 121.5q0 188 133.5 271.5t409.5 83.5h109v92q0 91 -39.5 131.5t-116.5 40.5q-76 0 -117 -41.5t-41 -118.5l-295 18
q14 154 132 244t339 90q229 0 339 -101t110 -300v-432q0 -40 17.5 -60t60.5 -20h76zM526 184q84 0 135.5 61t51.5 171v82h-140q-88 0 -144 -38t-56 -124q0 -64 39.5 -108t113.5 -44zM424 1198v2l270 322h277v-2l-328 -322h-219z" />
    <glyph glyph-name="acircumflex" unicode="&#xe2;" horiz-adv-x="1198" 
d="M1178 205v-217q-93 -8 -172 -8q-120 0 -193 52.5t-74 149.5q-37 -101 -121.5 -151.5t-201.5 -50.5q-88 0 -157.5 27.5t-112 74t-64 104t-21.5 121.5q0 188 133.5 271.5t409.5 83.5h109v92q0 91 -39.5 131.5t-116.5 40.5q-76 0 -117 -41.5t-41 -118.5l-295 18
q14 154 132 244t339 90q229 0 339 -101t110 -300v-432q0 -40 17.5 -60t60.5 -20h76zM940 1200v-2h-178l-201 199h-4l-209 -199h-178v2l268 365h240zM526 184q84 0 135.5 61t51.5 171v82h-140q-88 0 -144 -38t-56 -124q0 -64 39.5 -108t113.5 -44z" />
    <glyph glyph-name="atilde" unicode="&#xe3;" horiz-adv-x="1198" 
d="M1178 205v-217q-93 -8 -172 -8q-120 0 -193 52.5t-74 149.5q-37 -101 -121.5 -151.5t-201.5 -50.5q-88 0 -157.5 27.5t-112 74t-64 104t-21.5 121.5q0 188 133.5 271.5t409.5 83.5h109v92q0 91 -39.5 131.5t-116.5 40.5q-76 0 -117 -41.5t-41 -118.5l-295 18
q14 154 132 244t339 90q229 0 339 -101t110 -300v-432q0 -40 17.5 -60t60.5 -20h76zM713 1198q-41 0 -91.5 19.5t-90 43t-82 43t-68.5 19.5q-94 0 -94 -109v-16h-154v23q0 40 5 75.5t21 74t41 66.5t68.5 46t100.5 18q53 0 120.5 -32.5t126 -64.5t89.5 -32q90 0 90 115v14
h149v-14q0 -46 -4.5 -83.5t-19.5 -77.5t-39.5 -67t-67 -44t-100.5 -17zM526 184q84 0 135.5 61t51.5 171v82h-140q-88 0 -144 -38t-56 -124q0 -64 39.5 -108t113.5 -44z" />
    <glyph glyph-name="adieresis" unicode="&#xe4;" horiz-adv-x="1198" 
d="M1178 205v-217q-93 -8 -172 -8q-120 0 -193 52.5t-74 149.5q-37 -101 -121.5 -151.5t-201.5 -50.5q-88 0 -157.5 27.5t-112 74t-64 104t-21.5 121.5q0 188 133.5 271.5t409.5 83.5h109v92q0 91 -39.5 131.5t-116.5 40.5q-76 0 -117 -41.5t-41 -118.5l-295 18
q14 154 132 244t339 90q229 0 339 -101t110 -300v-432q0 -40 17.5 -60t60.5 -20h76zM526 184q84 0 135.5 61t51.5 171v82h-140q-88 0 -144 -38t-56 -124q0 -64 39.5 -108t113.5 -44zM680 1210v234h235v-234h-235zM229 1210v234h230v-234h-230z" />
    <glyph glyph-name="aring" unicode="&#xe5;" horiz-adv-x="1198" 
d="M1178 205v-217q-93 -8 -172 -8q-120 0 -193 52.5t-74 149.5q-37 -101 -121.5 -151.5t-201.5 -50.5q-88 0 -157.5 27.5t-112 74t-64 104t-21.5 121.5q0 188 133.5 271.5t409.5 83.5h109v92q0 91 -39.5 131.5t-116.5 40.5q-76 0 -117 -41.5t-41 -118.5l-295 18
q14 154 132 244t339 90q229 0 339 -101t110 -300v-432q0 -40 17.5 -60t60.5 -20h76zM815 1391q0 -107 -74 -180.5t-180 -73.5q-105 0 -179.5 73.5t-74.5 180.5q0 104 75 179t179 75q105 0 179.5 -74.5t74.5 -179.5zM526 184q84 0 135.5 61t51.5 171v82h-140q-88 0 -144 -38
t-56 -124q0 -64 39.5 -108t113.5 -44zM688 1391q0 50 -37 87.5t-90 37.5t-89 -37t-36 -88q0 -54 35.5 -91.5t89.5 -37.5t90.5 37.5t36.5 91.5z" />
    <glyph glyph-name="ae" unicode="&#xe6;" horiz-adv-x="1820" 
d="M487 -20q-102 0 -180 27.5t-123 74.5t-67.5 103.5t-22.5 121.5q0 188 133.5 271.5t409.5 83.5h108v92q0 91 -39.5 131.5t-115.5 40.5t-117 -41.5t-41 -118.5l-295 18q14 153 131.5 243.5t323.5 90.5q221 0 330 -100q111 100 317 100q504 0 504 -532l-4 -88h-695v-37
q0 -75 17.5 -134.5t65 -101t120.5 -41.5q75 0 117 36.5t55 115.5l303 -19q-17 -73 -46.5 -129t-83.5 -105.5t-143.5 -76t-211.5 -26.5q-275 0 -403 174q-105 -174 -347 -174zM559 184q84 0 135 61t51 171v82h-139q-88 0 -144 -38t-56 -124q0 -64 39.5 -108t113.5 -44z
M1233 926q-87 0 -136.5 -60t-52.5 -204h369v16q0 136 -45.5 192t-134.5 56z" />
    <glyph glyph-name="ccedilla" unicode="&#xe7;" horiz-adv-x="1165" 
d="M860 -233q0 -88 -73 -142.5t-240 -54.5q-49 0 -107 6v127q26 -6 86 -6q138 0 138 65q0 35 -29.5 51.5t-93.5 16.5q-34 0 -52 -2l56 156q-232 17 -350.5 164t-118.5 397q0 275 136.5 424t393.5 149q112 0 203.5 -31t151 -85.5t95.5 -124t46 -150.5l-316 -14
q-9 88 -54.5 136t-125.5 48q-102 0 -149 -83.5t-47 -258.5q0 -184 49.5 -272t152.5 -88q75 0 124 49.5t59 150.5l313 -12q-18 -155 -121 -264t-287 -133l-24 -64q92 -4 138 -45.5t46 -109.5z" />
    <glyph glyph-name="egrave" unicode="&#xe8;" horiz-adv-x="1179" 
d="M602 -20q-260 0 -396 144t-136 431q0 155 41.5 267.5t116.5 175.5t168 91.5t208 28.5q504 0 504 -532l-4 -97h-694v-28q0 -55 10.5 -102.5t32.5 -88t63 -63.5t96 -23q75 0 117 36.5t55 115.5l303 -19q-17 -73 -46.5 -129t-83.5 -105.5t-143.5 -76t-211.5 -26.5zM598 926
q-85 0 -134.5 -57t-53.5 -195h368v4q0 136 -45.5 192t-134.5 56zM535 1198l-349 322v2h279l264 -322v-2h-194z" />
    <glyph glyph-name="eacute" unicode="&#xe9;" horiz-adv-x="1179" 
d="M602 -20q-260 0 -396 144t-136 431q0 155 41.5 267.5t116.5 175.5t168 91.5t208 28.5q504 0 504 -532l-4 -97h-694v-28q0 -55 10.5 -102.5t32.5 -88t63 -63.5t96 -23q75 0 117 36.5t55 115.5l303 -19q-17 -73 -46.5 -129t-83.5 -105.5t-143.5 -76t-211.5 -26.5zM461 1198
v2l270 322h277v-2l-328 -322h-219zM598 926q-85 0 -134.5 -57t-53.5 -195h368v4q0 136 -45.5 192t-134.5 56z" />
    <glyph glyph-name="ecircumflex" unicode="&#xea;" horiz-adv-x="1179" 
d="M602 -20q-260 0 -396 144t-136 431q0 155 41.5 267.5t116.5 175.5t168 91.5t208 28.5q504 0 504 -532l-4 -97h-694v-28q0 -55 10.5 -102.5t32.5 -88t63 -63.5t96 -23q75 0 117 36.5t55 115.5l303 -19q-17 -73 -46.5 -129t-83.5 -105.5t-143.5 -76t-211.5 -26.5zM977 1200
v-2h-178l-201 199h-4l-209 -199h-178v2l268 365h240zM598 926q-85 0 -134.5 -57t-53.5 -195h368v4q0 136 -45.5 192t-134.5 56z" />
    <glyph glyph-name="edieresis" unicode="&#xeb;" horiz-adv-x="1179" 
d="M602 -20q-260 0 -396 144t-136 431q0 155 41.5 267.5t116.5 175.5t168 91.5t208 28.5q504 0 504 -532l-4 -97h-694v-28q0 -55 10.5 -102.5t32.5 -88t63 -63.5t96 -23q75 0 117 36.5t55 115.5l303 -19q-17 -73 -46.5 -129t-83.5 -105.5t-143.5 -76t-211.5 -26.5zM598 926
q-85 0 -134.5 -57t-53.5 -195h368v4q0 136 -45.5 192t-134.5 56zM717 1210v234h235v-234h-235zM266 1210v234h230v-234h-230z" />
    <glyph glyph-name="igrave" unicode="&#xec;" horiz-adv-x="579" 
d="M137 0v1098h320v-1098h-320zM231 1178l-348 321v2h279l264 -321v-2h-195z" />
    <glyph glyph-name="iacute" unicode="&#xed;" horiz-adv-x="579" 
d="M137 0v1098h320v-1098h-320zM180 1178v2l209 321h289v-2l-299 -321h-199z" />
    <glyph glyph-name="icircumflex" unicode="&#xee;" horiz-adv-x="579" 
d="M137 0v1098h320v-1098h-320zM674 1180v-2h-178l-201 198h-4l-209 -198h-178v2l268 364h240z" />
    <glyph glyph-name="idieresis" unicode="&#xef;" horiz-adv-x="579" 
d="M137 0v1098h320v-1098h-320zM-37 1190v233h230v-233h-230zM414 1190v233h235v-233h-235z" />
    <glyph glyph-name="eth" unicode="&#xf0;" horiz-adv-x="1251" 
d="M348 1180v182l125 53q-146 118 -264 166v25h350q79 -44 150 -93l268 115v-188l-121 -49q168 -168 245 -376.5t77 -422.5q0 -161 -40.5 -280t-115.5 -191t-174.5 -106.5t-224.5 -34.5q-269 0 -409 149t-140 412q0 261 140.5 409t408.5 148q69 0 135 -17q-62 109 -152 205z
M621 193q233 0 233 346q0 163 -54 259.5t-169 96.5q-232 0 -232 -356q0 -161 57 -253.5t165 -92.5z" />
    <glyph glyph-name="ntilde" unicode="&#xf1;" horiz-adv-x="1286" 
d="M840 0v643q0 119 -38.5 175t-131.5 56q-97 0 -151 -78t-54 -214v-582h-322v844q0 71 -6 254h307q1 -9 4.5 -50t7 -89.5t5.5 -86.5q41 121 130.5 183.5t219.5 62.5q80 0 142.5 -21.5t101.5 -57t64.5 -86.5t35.5 -106t10 -120v-727h-325zM801 1198q-41 0 -91.5 19.5t-90 43
t-82 43t-68.5 19.5q-94 0 -94 -109v-16h-154v23q0 40 5 75.5t21 74t41 66.5t68.5 46t100.5 18q53 0 120.5 -32.5t126 -64.5t89.5 -32q90 0 90 115v14h149v-14q0 -46 -4.5 -83.5t-19.5 -77.5t-39.5 -67t-67 -44t-100.5 -17z" />
    <glyph glyph-name="ograve" unicode="&#xf2;" 
d="M856 549q0 170 -58 258t-165 88q-230 0 -230 -346q0 -171 59.5 -263.5t164.5 -92.5q117 0 173 86.5t56 269.5zM1182 551q0 -267 -141 -419t-416 -152q-269 0 -409 153t-140 418q0 259 141.5 413t413.5 154q143 0 250.5 -41t172.5 -117.5t96.5 -178.5t31.5 -230zM571 1198
l-348 322v2h279l264 -322v-2h-195z" />
    <glyph glyph-name="oacute" unicode="&#xf3;" 
d="M856 549q0 170 -58 258t-165 88q-230 0 -230 -346q0 -171 59.5 -263.5t164.5 -92.5q117 0 173 86.5t56 269.5zM1182 551q0 -267 -141 -419t-416 -152q-269 0 -409 153t-140 418q0 259 141.5 413t413.5 154q143 0 250.5 -41t172.5 -117.5t96.5 -178.5t31.5 -230zM498 1198
v2l270 322h276v-2l-327 -322h-219z" />
    <glyph glyph-name="ocircumflex" unicode="&#xf4;" 
d="M856 549q0 170 -58 258t-165 88q-230 0 -230 -346q0 -171 59.5 -263.5t164.5 -92.5q117 0 173 86.5t56 269.5zM1182 551q0 -267 -141 -419t-416 -152q-269 0 -409 153t-140 418q0 259 141.5 413t413.5 154q143 0 250.5 -41t172.5 -117.5t96.5 -178.5t31.5 -230z
M1014 1200v-2h-178l-201 199h-4l-209 -199h-178v2l268 365h240z" />
    <glyph glyph-name="otilde" unicode="&#xf5;" 
d="M856 549q0 170 -58 258t-165 88q-230 0 -230 -346q0 -171 59.5 -263.5t164.5 -92.5q117 0 173 86.5t56 269.5zM1182 551q0 -267 -141 -419t-416 -152q-269 0 -409 153t-140 418q0 259 141.5 413t413.5 154q143 0 250.5 -41t172.5 -117.5t96.5 -178.5t31.5 -230zM786 1198
q-41 0 -91.5 19.5t-89.5 43t-81.5 43t-68.5 19.5q-95 0 -95 -109v-16h-153v23q0 51 9.5 95t33 88.5t72.5 70.5t120 26q53 0 120.5 -32.5t126 -64.5t89.5 -32q90 0 90 115v14h150v-14q0 -46 -5 -84t-19.5 -77.5t-39.5 -66.5t-67.5 -44t-100.5 -17z" />
    <glyph glyph-name="odieresis" unicode="&#xf6;" 
d="M856 549q0 170 -58 258t-165 88q-230 0 -230 -346q0 -171 59.5 -263.5t164.5 -92.5q117 0 173 86.5t56 269.5zM1182 551q0 -267 -141 -419t-416 -152q-269 0 -409 153t-140 418q0 259 141.5 413t413.5 154q143 0 250.5 -41t172.5 -117.5t96.5 -178.5t31.5 -230zM303 1210
v234h229v-234h-229zM754 1210v234h235v-234h-235z" />
    <glyph glyph-name="divide" unicode="&#xf7;" horiz-adv-x="1136" 
d="M438 158v252h260v-252h-260zM43 567v248h1051v-248h-1051zM438 977v250h260v-250h-260z" />
    <glyph glyph-name="oslash" unicode="&#xf8;" horiz-adv-x="1251" 
d="M1182 551q0 -267 -141 -419t-416 -152q-199 0 -326 83l-104 -118h-183v8l183 205q-119 146 -119 393q0 259 141.5 413t413.5 154q206 0 340 -88l92 103h180v-11l-170 -190q109 -144 109 -381zM403 549q0 -87 11 -143l374 419q-58 70 -155 70q-230 0 -230 -346zM856 549
q0 64 -10 129l-371 -418q53 -67 152 -67q117 0 173 86.5t56 269.5z" />
    <glyph glyph-name="ugrave" unicode="&#xf9;" horiz-adv-x="1286" 
d="M455 1098v-645q0 -120 38 -175t132 -55q95 0 149.5 73.5t54.5 203.5v598h326v-850q0 -198 8 -248h-311q-14 140 -14 225q-96 -245 -353 -245q-78 0 -140 21.5t-101.5 57t-65.5 86t-36.5 104.5t-10.5 116v733h324zM571 1198l-348 322v2h279l264 -322v-2h-195z" />
    <glyph glyph-name="uacute" unicode="&#xfa;" horiz-adv-x="1286" 
d="M455 1098v-645q0 -120 38 -175t132 -55q95 0 149.5 73.5t54.5 203.5v598h326v-850q0 -198 8 -248h-311q-14 140 -14 225q-96 -245 -353 -245q-78 0 -140 21.5t-101.5 57t-65.5 86t-36.5 104.5t-10.5 116v733h324zM498 1198v2l270 322h276v-2l-327 -322h-219z" />
    <glyph glyph-name="ucircumflex" unicode="&#xfb;" horiz-adv-x="1286" 
d="M455 1098v-645q0 -120 38 -175t132 -55q95 0 149.5 73.5t54.5 203.5v598h326v-850q0 -198 8 -248h-311q-14 140 -14 225q-96 -245 -353 -245q-78 0 -140 21.5t-101.5 57t-65.5 86t-36.5 104.5t-10.5 116v733h324zM1014 1200v-2h-178l-201 199h-4l-209 -199h-178v2
l268 365h240z" />
    <glyph glyph-name="udieresis" unicode="&#xfc;" horiz-adv-x="1286" 
d="M455 1098v-645q0 -120 38 -175t132 -55q95 0 149.5 73.5t54.5 203.5v598h326v-850q0 -198 8 -248h-311q-14 140 -14 225q-96 -245 -353 -245q-78 0 -140 21.5t-101.5 57t-65.5 86t-36.5 104.5t-10.5 116v733h324zM754 1210v234h235v-234h-235zM303 1210v234h229v-234
h-229z" />
    <glyph glyph-name="yacute" unicode="&#xfd;" horiz-adv-x="1132" 
d="M233 -487h-159v251h159q60 0 92.5 20t49.5 69l43 120l-428 1125h315l174 -512l96 -295q54 153 99 303l151 504h318l-471 -1309q-20 -55 -43 -96.5t-47 -71t-55 -49.5t-60 -31.5t-70 -18t-76.5 -8t-87.5 -1.5zM430 1219v2l270 321h277v-2l-328 -321h-219z" />
    <glyph glyph-name="thorn" unicode="&#xfe;" horiz-adv-x="1296" 
d="M1221 555q0 -273 -106.5 -424t-319.5 -151q-243 0 -332 200h-4q6 -27 6 -176v-477h-318v2081h314v-697h2q75 207 350 207q85 0 153 -27.5t115.5 -76.5t79 -120t46 -155t14.5 -184zM887 551q0 180 -52.5 261t-156.5 81q-33 0 -62 -9.5t-58 -33.5t-50 -62t-34 -99t-13 -140
q0 -100 20 -172t53.5 -108.5t68.5 -52t75 -15.5q209 0 209 350z" />
    <glyph glyph-name="ydieresis" unicode="&#xff;" horiz-adv-x="1132" 
d="M233 -487h-159v251h159q60 0 92.5 20t49.5 69l43 120l-428 1125h315l174 -512l96 -295q54 153 99 303l151 504h318l-471 -1309q-20 -55 -43 -96.5t-47 -71t-55 -49.5t-60 -31.5t-70 -18t-76.5 -8t-87.5 -1.5zM686 1231v233h236v-233h-236zM236 1231v233h229v-233h-229z
" />
    <glyph glyph-name="Amacron" unicode="&#x100;" horiz-adv-x="1468" 
d="M373 0l104 352h508l111 -352h327l-501 1432h-390l-487 -1432h328zM1214 1597h-974v156h974v-156zM727 1190l59 -197l123 -397h-360l119 397z" />
    <glyph glyph-name="amacron" unicode="&#x101;" horiz-adv-x="1198" 
d="M1178 205v-217q-93 -8 -172 -8q-120 0 -193 52.5t-74 149.5q-37 -101 -121.5 -151.5t-201.5 -50.5q-88 0 -157.5 27.5t-112 74t-64 104t-21.5 121.5q0 188 133.5 271.5t409.5 83.5h109v92q0 91 -39.5 131.5t-116.5 40.5q-76 0 -117 -41.5t-41 -118.5l-295 18
q14 154 132 244t339 90q229 0 339 -101t110 -300v-432q0 -40 17.5 -60t60.5 -20h76zM1063 1305h-975v155h975v-155zM526 184q84 0 135.5 61t51.5 171v82h-140q-88 0 -144 -38t-56 -124q0 -64 39.5 -108t113.5 -44z" />
    <glyph glyph-name="Abreve" unicode="&#x102;" horiz-adv-x="1468" 
d="M373 0l104 352h508l111 -352h327l-501 1432h-390l-487 -1432h328zM727 1487q-154 0 -246.5 91.5t-105.5 229.5h164q15 -76 67.5 -121t122.5 -45q73 0 124.5 44.5t66.5 121.5h163q-19 -141 -108.5 -231t-247.5 -90zM727 1190l59 -197l123 -397h-360l119 397z" />
    <glyph glyph-name="abreve" unicode="&#x103;" horiz-adv-x="1198" 
d="M1178 205v-217q-93 -8 -172 -8q-120 0 -193 52.5t-74 149.5q-37 -101 -121.5 -151.5t-201.5 -50.5q-88 0 -157.5 27.5t-112 74t-64 104t-21.5 121.5q0 188 133.5 271.5t409.5 83.5h109v92q0 91 -39.5 131.5t-116.5 40.5q-76 0 -117 -41.5t-41 -118.5l-295 18
q14 154 132 244t339 90q229 0 339 -101t110 -300v-432q0 -40 17.5 -60t60.5 -20h76zM569 1184q-154 0 -246.5 91.5t-105.5 229.5h164q15 -76 67.5 -121t122.5 -45q73 0 124.5 44.5t66.5 121.5h164q-19 -141 -109 -231t-248 -90zM526 184q84 0 135.5 61t51.5 171v82h-140
q-88 0 -144 -38t-56 -124q0 -64 39.5 -108t113.5 -44z" />
    <glyph glyph-name="Aogonek" unicode="&#x104;" horiz-adv-x="1468" 
d="M477 352l-104 -352h-328l487 1432h390l501 -1432h-327l-111 352h-508zM786 993l-59 197l-59 -197l-119 -397h360zM1350 -446q-106 0 -172 53t-66 147q0 46 16 88t41.5 72.5t50 51t50.5 34.5h153q-61 -40 -95 -96.5t-34 -112.5q0 -43 25.5 -68.5t69.5 -25.5q46 0 112 27
v-136q-64 -34 -151 -34z" />
    <glyph glyph-name="aogonek" unicode="&#x105;" horiz-adv-x="1198" 
d="M1104 -459q-106 0 -172 53.5t-66 147.5q0 81 43.5 141.5t100.5 96.5h-4q-120 0 -193 52.5t-74 149.5q-37 -101 -121.5 -151.5t-201.5 -50.5q-88 0 -157.5 27.5t-112 74t-64 104t-21.5 121.5q0 188 133.5 271.5t409.5 83.5h109v92q0 91 -39.5 131.5t-116.5 40.5
q-76 0 -117 -41.5t-41 -118.5l-295 18q14 154 132 244t339 90q229 0 339 -101t110 -300v-432q0 -40 17.5 -60t60.5 -20h76v-217q-61 -40 -95 -96.5t-34 -112.5q0 -43 25 -68.5t69 -25.5q49 0 112 26v-135q-65 -35 -151 -35zM526 184q84 0 135.5 61t51.5 171v82h-140
q-88 0 -144 -38t-56 -124q0 -64 39.5 -108t113.5 -44z" />
    <glyph glyph-name="Cacute" unicode="&#x106;" horiz-adv-x="1505" 
d="M811 -20q-185 0 -326.5 55t-228.5 155t-130.5 233.5t-43.5 297.5q0 348 176.5 539.5t536.5 191.5q514 0 639 -410l-285 -75q-29 96 -119 162.5t-227 66.5q-389 0 -389 -475q0 -483 395 -483q265 0 354 262l291 -103q-161 -417 -643 -417zM623 1505v2l299 322h329v-2
l-381 -322h-247z" />
    <glyph glyph-name="cacute" unicode="&#x107;" horiz-adv-x="1165" 
d="M606 -20q-261 0 -395.5 149.5t-134.5 415.5q0 275 136.5 424t393.5 149q112 0 203.5 -31t151 -85.5t95.5 -124t46 -150.5l-316 -14q-9 88 -54.5 136t-125.5 48q-102 0 -149 -83.5t-47 -258.5q0 -184 49.5 -272t152.5 -88q75 0 124 49.5t59 150.5l313 -12
q-10 -83 -44.5 -154t-94.5 -127.5t-153 -89t-210 -32.5zM471 1198v2l270 322h277v-2l-328 -322h-219z" />
    <glyph glyph-name="Ccircumflex" unicode="&#x108;" horiz-adv-x="1505" 
d="M811 -20q-185 0 -326.5 55t-228.5 155t-130.5 233.5t-43.5 297.5q0 348 176.5 539.5t536.5 191.5q514 0 639 -410l-285 -75q-29 96 -119 162.5t-227 66.5q-389 0 -389 -475q0 -483 395 -483q265 0 354 262l291 -103q-161 -417 -643 -417zM1176 1505h-199l-201 199h-4
l-209 -199h-201v2l291 365h240l283 -365v-2z" />
    <glyph glyph-name="ccircumflex" unicode="&#x109;" horiz-adv-x="1165" 
d="M606 -20q-261 0 -395.5 149.5t-134.5 415.5q0 275 136.5 424t393.5 149q112 0 203.5 -31t151 -85.5t95.5 -124t46 -150.5l-316 -14q-9 88 -54.5 136t-125.5 48q-102 0 -149 -83.5t-47 -258.5q0 -184 49.5 -272t152.5 -88q75 0 124 49.5t59 150.5l313 -12
q-10 -83 -44.5 -154t-94.5 -127.5t-153 -89t-210 -32.5zM987 1200v-2h-178l-201 199h-4l-209 -199h-178v2l268 365h240z" />
    <glyph glyph-name="Cdotaccent" unicode="&#x10a;" horiz-adv-x="1505" 
d="M811 -20q-185 0 -326.5 55t-228.5 155t-130.5 233.5t-43.5 297.5q0 348 176.5 539.5t536.5 191.5q514 0 639 -410l-285 -75q-29 96 -119 162.5t-227 66.5q-389 0 -389 -475q0 -483 395 -483q265 0 354 262l291 -103q-161 -417 -643 -417zM662 1518v233h229v-233h-229z
" />
    <glyph glyph-name="cdotaccent" unicode="&#x10b;" horiz-adv-x="1165" 
d="M606 -20q-261 0 -395.5 149.5t-134.5 415.5q0 275 136.5 424t393.5 149q112 0 203.5 -31t151 -85.5t95.5 -124t46 -150.5l-316 -14q-9 88 -54.5 136t-125.5 48q-102 0 -149 -83.5t-47 -258.5q0 -184 49.5 -272t152.5 -88q75 0 124 49.5t59 150.5l313 -12
q-10 -83 -44.5 -154t-94.5 -127.5t-153 -89t-210 -32.5zM498 1210v234h229v-234h-229z" />
    <glyph glyph-name="Ccaron" unicode="&#x10c;" horiz-adv-x="1505" 
d="M811 -20q-185 0 -326.5 55t-228.5 155t-130.5 233.5t-43.5 297.5q0 348 176.5 539.5t536.5 191.5q514 0 639 -410l-285 -75q-29 96 -119 162.5t-227 66.5q-389 0 -389 -475q0 -483 395 -483q265 0 354 262l291 -103q-161 -417 -643 -417zM885 1491h-230l-280 344v2h182
l211 -195h4l203 195h182v-2z" />
    <glyph glyph-name="ccaron" unicode="&#x10d;" horiz-adv-x="1165" 
d="M606 -20q-261 0 -395.5 149.5t-134.5 415.5q0 275 136.5 424t393.5 149q112 0 203.5 -31t151 -85.5t95.5 -124t46 -150.5l-316 -14q-9 88 -54.5 136t-125.5 48q-102 0 -149 -83.5t-47 -258.5q0 -184 49.5 -272t152.5 -88q75 0 124 49.5t59 150.5l313 -12
q-10 -83 -44.5 -154t-94.5 -127.5t-153 -89t-210 -32.5zM965 1528l-250 -344h-230l-258 344v2h160l211 -195h4l203 195h160v-2z" />
    <glyph glyph-name="Dcaron" unicode="&#x10e;" horiz-adv-x="1519" 
d="M1106 723q0 231 -115.5 344t-316.5 113h-195v-928h236q173 0 282 123.5t109 347.5zM1438 723q0 -172 -54 -311t-148.5 -228t-220.5 -136.5t-274 -47.5h-589v1432h528q168 0 305 -43t239 -128.5t158 -222t56 -315.5zM756 1491h-230l-280 344v2h182l211 -195h4l203 195h182
v-2z" />
    <glyph glyph-name="dcaron" unicode="&#x10f;" horiz-adv-x="1282" 
d="M473 -20q-86 0 -154 30t-113 81.5t-75 125t-42.5 156.5t-12.5 180q0 265 109 415t319 150q128 0 214.5 -53t117.5 -145q-5 108 -5 131v555h320v-1364q0 -119 8 -242h-311q-14 96 -14 199q-31 -98 -123.5 -158.5t-237.5 -60.5zM614 201q42 0 79 17t70.5 55.5t53 112
t19.5 175.5q0 97 -19 166t-52.5 105t-69.5 51.5t-79 15.5q-103 0 -154.5 -82.5t-51.5 -259.5q0 -179 50 -267.5t154 -88.5zM1516 1460q0 -139 -95 -252h-137v2q94 105 94 189h-108v207h246v-146z" />
    <glyph glyph-name="Dcroat" unicode="&#x110;" horiz-adv-x="1519" 
d="M1438 723q0 -172 -54 -311t-148.5 -228t-220.5 -136.5t-274 -47.5h-589v573h-220v234h220v625h528q168 0 305 -43t239 -128.5t158 -222t56 -315.5zM1106 723q0 231 -115.5 344t-316.5 113h-195v-373h320v-234h-320v-321h236q173 0 282 123.5t109 347.5z" />
    <glyph glyph-name="dcroat" unicode="&#x111;" horiz-adv-x="1282" 
d="M569 1245v187h262v174h320v-174h152v-187h-152v-1003q0 -119 8 -242h-311q-14 96 -14 199q-31 -98 -123.5 -158.5t-237.5 -60.5q-86 0 -154 30t-113 81.5t-75 125t-42.5 156.5t-12.5 180q0 265 109 415t319 150q128 0 214.5 -53t117.5 -145q-5 108 -5 131v194h-262z
M614 201q42 0 79 17t70.5 55.5t53 112t19.5 175.5q0 97 -19 166t-52.5 105t-69.5 51.5t-79 15.5q-103 0 -154.5 -82.5t-51.5 -259.5q0 -179 50 -267.5t154 -88.5z" />
    <glyph glyph-name="Emacron" unicode="&#x112;" 
d="M152 0v1432h972v-252h-645v-332h582v-254h-582v-332h658v-262h-985zM1128 1602h-974v155h974v-155z" />
    <glyph glyph-name="emacron" unicode="&#x113;" horiz-adv-x="1179" 
d="M602 -20q-260 0 -396 144t-136 431q0 155 41.5 267.5t116.5 175.5t168 91.5t208 28.5q504 0 504 -532l-4 -97h-694v-28q0 -55 10.5 -102.5t32.5 -88t63 -63.5t96 -23q75 0 117 36.5t55 115.5l303 -19q-17 -73 -46.5 -129t-83.5 -105.5t-143.5 -76t-211.5 -26.5z
M1100 1305h-975v155h975v-155zM598 926q-85 0 -134.5 -57t-53.5 -195h368v4q0 136 -45.5 192t-134.5 56z" />
    <glyph glyph-name="Ebreve" unicode="&#x114;" 
d="M152 0v1432h972v-252h-645v-332h582v-254h-582v-332h658v-262h-985zM641 1491q-154 0 -246.5 91.5t-105.5 229.5h164q15 -75 67.5 -120t122.5 -45q74 0 125 44.5t66 120.5h163q-19 -141 -108.5 -231t-247.5 -90z" />
    <glyph glyph-name="ebreve" unicode="&#x115;" horiz-adv-x="1179" 
d="M602 -20q-260 0 -396 144t-136 431q0 155 41.5 267.5t116.5 175.5t168 91.5t208 28.5q504 0 504 -532l-4 -97h-694v-28q0 -55 10.5 -102.5t32.5 -88t63 -63.5t96 -23q75 0 117 36.5t55 115.5l303 -19q-17 -73 -46.5 -129t-83.5 -105.5t-143.5 -76t-211.5 -26.5zM606 1184
q-154 0 -246.5 91.5t-105.5 229.5h164q15 -76 67.5 -121t122.5 -45q73 0 124.5 44.5t66.5 121.5h164q-19 -141 -109 -231t-248 -90zM598 926q-85 0 -134.5 -57t-53.5 -195h368v4q0 136 -45.5 192t-134.5 56z" />
    <glyph glyph-name="Edotaccent" unicode="&#x116;" 
d="M152 0v1432h972v-252h-645v-332h582v-254h-582v-332h658v-262h-985zM532 1518v233h230v-233h-230z" />
    <glyph glyph-name="edotaccent" unicode="&#x117;" horiz-adv-x="1179" 
d="M602 -20q-260 0 -396 144t-136 431q0 155 41.5 267.5t116.5 175.5t168 91.5t208 28.5q504 0 504 -532l-4 -97h-694v-28q0 -55 10.5 -102.5t32.5 -88t63 -63.5t96 -23q75 0 117 36.5t55 115.5l303 -19q-17 -73 -46.5 -129t-83.5 -105.5t-143.5 -76t-211.5 -26.5zM598 926
q-85 0 -134.5 -57t-53.5 -195h368v4q0 136 -45.5 192t-134.5 56zM487 1210v234h230v-234h-230z" />
    <glyph glyph-name="Eogonek" unicode="&#x118;" 
d="M152 0v1432h972v-252h-645v-332h582v-254h-582v-332h658v-262q-61 -40 -95 -96.5t-34 -112.5q0 -43 25 -68.5t69 -25.5q46 0 112 27v-136q-64 -34 -151 -34q-106 0 -172 53t-66 147q0 46 16 88t41.5 72.5t50 51t50.5 34.5h-831z" />
    <glyph glyph-name="eogonek" unicode="&#x119;" horiz-adv-x="1179" 
d="M840 -395q-106 0 -172 53t-66 147q0 102 70 179q-46 -4 -70 -4q-260 0 -396 144t-136 431q0 155 41.5 267.5t116.5 175.5t168 91.5t208 28.5q504 0 504 -532l-4 -97h-694v-28q0 -55 10.5 -102.5t32.5 -88t63 -63.5t96 -23q75 0 117 36.5t55 115.5l303 -19
q-45 -190 -180 -270q-59 -40 -91 -95.5t-32 -109.5q0 -43 25.5 -68.5t69.5 -25.5q46 0 112 27v-135q-65 -35 -151 -35zM598 926q-85 0 -134.5 -57t-53.5 -195h368v4q0 136 -45.5 192t-134.5 56z" />
    <glyph glyph-name="Ecaron" unicode="&#x11a;" 
d="M152 0v1432h972v-252h-645v-332h582v-254h-582v-332h658v-262h-985zM756 1491h-230l-280 344v2h182l211 -195h4l203 195h182v-2z" />
    <glyph glyph-name="ecaron" unicode="&#x11b;" horiz-adv-x="1179" 
d="M602 -20q-260 0 -396 144t-136 431q0 155 41.5 267.5t116.5 175.5t168 91.5t208 28.5q504 0 504 -532l-4 -97h-694v-28q0 -55 10.5 -102.5t32.5 -88t63 -63.5t96 -23q75 0 117 36.5t55 115.5l303 -19q-17 -73 -46.5 -129t-83.5 -105.5t-143.5 -76t-211.5 -26.5zM954 1528
l-249 -344h-230l-258 344v2h160l211 -195h4l203 195h159v-2zM598 926q-85 0 -134.5 -57t-53.5 -195h368v4q0 136 -45.5 192t-134.5 56z" />
    <glyph glyph-name="Gcircumflex" unicode="&#x11c;" horiz-adv-x="1648" 
d="M815 -20q-190 0 -333 55.5t-229.5 157t-128.5 234t-42 296.5q0 346 184.5 537.5t552.5 191.5q262 0 423.5 -100.5t225.5 -282.5l-303 -90q-34 94 -121.5 155.5t-222.5 61.5q-208 0 -307.5 -125t-99.5 -348q0 -110 24.5 -198t73.5 -154t129.5 -102t187.5 -36q114 0 214 32
t159 77v184h-334v240h631v-537q-119 -112 -297 -180.5t-387 -68.5zM1194 1505h-199l-200 199h-4l-209 -199h-201v2l291 365h239l283 -365v-2z" />
    <glyph glyph-name="gcircumflex" unicode="&#x11d;" horiz-adv-x="1286" 
d="M483 2q-206 0 -306.5 146t-100.5 415q0 267 108.5 411t319.5 144q121 0 211.5 -54t126.5 -153q6 97 16 187h305q-8 -70 -8 -260v-846q0 -479 -545 -479q-122 0 -214.5 25t-149 70.5t-88.5 101t-43 124.5l315 31q27 -150 191 -150q104 0 158.5 62.5t54.5 206.5v159
q0 44 2 64q-81 -205 -353 -205zM836 567q0 172 -62 249t-156 77q-101 0 -154.5 -78t-53.5 -252q0 -167 50.5 -249.5t155.5 -82.5q44 0 81 16.5t69.5 52.5t51 104.5t18.5 162.5zM1028 1200v-2h-178l-201 199h-4l-209 -199h-178v2l268 365h240z" />
    <glyph glyph-name="Gbreve" unicode="&#x11e;" horiz-adv-x="1648" 
d="M815 -20q-190 0 -333 55.5t-229.5 157t-128.5 234t-42 296.5q0 346 184.5 537.5t552.5 191.5q262 0 423.5 -100.5t225.5 -282.5l-303 -90q-34 94 -121.5 155.5t-222.5 61.5q-208 0 -307.5 -125t-99.5 -348q0 -110 24.5 -198t73.5 -154t129.5 -102t187.5 -36q114 0 214 32
t159 77v184h-334v240h631v-537q-119 -112 -297 -180.5t-387 -68.5zM788 1491q-154 0 -246.5 91.5t-105.5 229.5h164q15 -75 68 -120t123 -45q73 0 124 44t66 121h164q-19 -141 -109 -231t-248 -90z" />
    <glyph glyph-name="gbreve" unicode="&#x11f;" horiz-adv-x="1286" 
d="M483 2q-206 0 -306.5 146t-100.5 415q0 267 108.5 411t319.5 144q121 0 211.5 -54t126.5 -153q6 97 16 187h305q-8 -70 -8 -260v-846q0 -479 -545 -479q-122 0 -214.5 25t-149 70.5t-88.5 101t-43 124.5l315 31q27 -150 191 -150q104 0 158.5 62.5t54.5 206.5v159
q0 44 2 64q-81 -205 -353 -205zM836 567q0 172 -62 249t-156 77q-101 0 -154.5 -78t-53.5 -252q0 -167 50.5 -249.5t155.5 -82.5q44 0 81 16.5t69.5 52.5t51 104.5t18.5 162.5zM657 1184q-154 0 -246.5 91.5t-105.5 229.5h164q15 -76 67.5 -121t122.5 -45q73 0 124.5 44.5
t66.5 121.5h164q-19 -141 -109 -231t-248 -90z" />
    <glyph glyph-name="Gdotaccent" unicode="&#x120;" horiz-adv-x="1648" 
d="M815 -20q-190 0 -333 55.5t-229.5 157t-128.5 234t-42 296.5q0 346 184.5 537.5t552.5 191.5q262 0 423.5 -100.5t225.5 -282.5l-303 -90q-34 94 -121.5 155.5t-222.5 61.5q-208 0 -307.5 -125t-99.5 -348q0 -110 24.5 -198t73.5 -154t129.5 -102t187.5 -36q114 0 214 32
t159 77v184h-334v240h631v-537q-119 -112 -297 -180.5t-387 -68.5zM680 1518v233h229v-233h-229z" />
    <glyph glyph-name="gdotaccent" unicode="&#x121;" horiz-adv-x="1286" 
d="M483 2q-206 0 -306.5 146t-100.5 415q0 267 108.5 411t319.5 144q121 0 211.5 -54t126.5 -153q6 97 16 187h305q-8 -70 -8 -260v-846q0 -479 -545 -479q-122 0 -214.5 25t-149 70.5t-88.5 101t-43 124.5l315 31q27 -150 191 -150q104 0 158.5 62.5t54.5 206.5v159
q0 44 2 64q-81 -205 -353 -205zM836 567q0 172 -62 249t-156 77q-101 0 -154.5 -78t-53.5 -252q0 -167 50.5 -249.5t155.5 -82.5q44 0 81 16.5t69.5 52.5t51 104.5t18.5 162.5zM539 1210v234h229v-234h-229z" />
    <glyph glyph-name="Gcommaaccent" unicode="&#x122;" horiz-adv-x="1648" 
d="M815 -20q-190 0 -333 55.5t-229.5 157t-128.5 234t-42 296.5q0 346 184.5 537.5t552.5 191.5q262 0 423.5 -100.5t225.5 -282.5l-303 -90q-34 94 -121.5 155.5t-222.5 61.5q-208 0 -307.5 -125t-99.5 -348q0 -110 24.5 -198t73.5 -154t129.5 -102t187.5 -36q114 0 214 32
t159 77v184h-334v240h631v-537q-119 -112 -297 -180.5t-387 -68.5zM918 -184q0 -139 -95 -252h-137v2q94 105 94 188h-108v207h246v-145z" />
    <glyph glyph-name="gcommaaccent" unicode="&#x123;" horiz-adv-x="1286" 
d="M483 2q-206 0 -306.5 146t-100.5 415q0 267 108.5 411t319.5 144q121 0 211.5 -54t126.5 -153q6 97 16 187h305q-8 -70 -8 -260v-846q0 -479 -545 -479q-122 0 -214.5 25t-149 70.5t-88.5 101t-43 124.5l315 31q27 -150 191 -150q104 0 158.5 62.5t54.5 206.5v159
q0 44 2 64q-81 -205 -353 -205zM836 567q0 172 -62 249t-156 77q-101 0 -154.5 -78t-53.5 -252q0 -167 50.5 -249.5t155.5 -82.5q44 0 81 16.5t69.5 52.5t51 104.5t18.5 162.5zM778 1460q0 -140 -94 -252h-137v2q94 105 94 189h-109v207h246v-146z" />
    <glyph glyph-name="Hcircumflex" unicode="&#x124;" horiz-adv-x="1550" 
d="M1079 0v600h-594v-600h-333v1432h333v-562h594v562h322v-1432h-322zM1176 1505h-199l-201 199h-4l-209 -199h-201v2l291 365h240l283 -365v-2z" />
    <glyph glyph-name="hcircumflex" unicode="&#x125;" horiz-adv-x="1284" 
d="M465 1075q0 -103 -8 -217q42 133 136.5 196.5t215.5 63.5q180 0 268 -110.5t88 -305.5v-702h-325v616q0 256 -170 256q-94 0 -149.5 -80t-55.5 -208v-584h-326v1606h326v-531zM1004 1645v-3h-179l-200 199h-4l-209 -199h-179v3l269 364h239z" />
    <glyph glyph-name="Hbar" unicode="&#x126;" horiz-adv-x="1550" 
d="M1079 0v600h-594v-600h-333v1059h-183v194h183v179h333v-179h594v179h322v-179h170v-194h-170v-1059h-322zM485 870h594v189h-594v-189z" />
    <glyph glyph-name="hbar" unicode="&#x127;" horiz-adv-x="1284" 
d="M-14 1245v187h153v174h326v-174h254v-187h-254v-170q0 -103 -8 -217q42 133 136.5 196.5t215.5 63.5q180 0 268 -110.5t88 -305.5v-702h-325v616q0 256 -170 256q-94 0 -149.5 -80t-55.5 -208v-584h-326v1245h-153z" />
    <glyph glyph-name="Itilde" unicode="&#x128;" horiz-adv-x="628" 
d="M152 0v1432h327v-1432h-327zM440 1505q-52 0 -117.5 31.5t-123.5 62.5t-90 31q-95 0 -95 -108v-17h-153v23q0 51 9.5 95t33 88.5t72.5 70.5t120 26q42 0 94 -20t92 -44.5t82 -44.5t68 -20q90 0 90 115v14h150v-14q0 -46 -5 -84t-19.5 -77.5t-39.5 -66.5t-67.5 -44
t-100.5 -17z" />
    <glyph glyph-name="itilde" unicode="&#x129;" horiz-adv-x="579" 
d="M137 0v1098h320v-1098h-320zM446 1178q-41 0 -91.5 19.5t-89.5 43t-81.5 43t-68.5 19.5q-95 0 -95 -109v-16h-153v22q0 40 5 75.5t20.5 74.5t40.5 67t68.5 46t100.5 18q53 0 120.5 -32.5t126 -64.5t89.5 -32q90 0 90 114v15h150v-15q0 -59 -9 -105t-32 -90t-71.5 -68.5
t-119.5 -24.5z" />
    <glyph glyph-name="Imacron" unicode="&#x12a;" horiz-adv-x="628" 
d="M152 0v1432h327v-1432h-327zM754 1602h-975v155h975v-155z" />
    <glyph glyph-name="imacron" unicode="&#x12b;" horiz-adv-x="579" 
d="M137 0v1098h320v-1098h-320zM797 1284h-975v156h975v-156z" />
    <glyph glyph-name="Ibreve" unicode="&#x12c;" horiz-adv-x="628" 
d="M152 0v1432h327v-1432h-327zM266 1491q-154 0 -246.5 91.5t-105.5 229.5h164q15 -75 67.5 -120t122.5 -45q74 0 125 44.5t66 120.5h164q-19 -141 -109 -231t-248 -90z" />
    <glyph glyph-name="ibreve" unicode="&#x12d;" horiz-adv-x="579" 
d="M137 0v1098h320v-1098h-320zM303 1163q-154 0 -246.5 92t-105.5 230h164q15 -76 67.5 -121t122.5 -45q73 0 124.5 44.5t66.5 121.5h163q-19 -141 -108.5 -231.5t-247.5 -90.5z" />
    <glyph glyph-name="Iogonek" unicode="&#x12e;" horiz-adv-x="628" 
d="M152 0v1432h327v-1432h-2q-61 -40 -95 -96.5t-34 -112.5q0 -43 25 -68.5t69 -25.5q47 0 113 27v-136q-64 -34 -152 -34q-106 0 -171.5 53t-65.5 147q0 46 16 88t41.5 72.5t50 51t50.5 34.5h-172z" />
    <glyph glyph-name="iogonek" unicode="&#x12f;" horiz-adv-x="583" 
d="M143 0v1098h318v-1098h-318zM143 1235v299h318v-299h-318zM387 -449q-106 0 -171.5 53.5t-65.5 147.5q0 87 49 150t108 96h154q-61 -40 -95 -96.5t-34 -112.5q0 -43 25 -68.5t69 -25.5q50 0 113 26v-135q-65 -35 -152 -35z" />
    <glyph glyph-name="Idotaccent" unicode="&#x130;" horiz-adv-x="628" 
d="M152 0v1432h327v-1432h-327zM158 1518v233h229v-233h-229z" />
    <glyph glyph-name="dotlessi" unicode="&#x131;" horiz-adv-x="579" 
d="M137 0v1098h320v-1098h-320z" />
    <glyph glyph-name="IJ" unicode="&#x132;" horiz-adv-x="1845" 
d="M152 0v1432h327v-1432h-327zM1198 -20q-228 0 -351 99.5t-157 315.5l316 47q33 -206 184 -206q170 0 170 213v708h-283v264h615v-964q0 -223 -127.5 -350t-366.5 -127z" />
    <glyph glyph-name="ij" unicode="&#x133;" horiz-adv-x="1193" 
d="M764 -487q-89 0 -191 4v247h50q78 0 102.5 32t24.5 128v1174h321v-1284q0 -137 -77.5 -219t-229.5 -82zM143 0v1098h318v-1098h-318zM750 1235v299h321v-299h-321zM143 1235v299h318v-299h-318z" />
    <glyph glyph-name="Jcircumflex" unicode="&#x134;" horiz-adv-x="1193" 
d="M551 -20q-228 0 -351 99.5t-157 315.5l315 47q33 -206 185 -206q170 0 170 213v708h-283v264h614v-964q0 -224 -127 -350.5t-366 -126.5zM1030 1505h-199l-200 199h-4l-209 -199h-201v2l291 365h240l282 -365v-2z" />
    <glyph glyph-name="jcircumflex" unicode="&#x135;" horiz-adv-x="591" 
d="M162 -487q-89 0 -191 4v247h49q78 0 102.5 32t24.5 128v1174h322v-1284q0 -137 -77.5 -219t-229.5 -82zM629 1180v-2h-178l-201 198h-4l-209 -198h-178v2l268 364h240z" />
    <glyph glyph-name="Kcommaaccent" unicode="&#x136;" horiz-adv-x="1460" 
d="M1047 0l-445 604l-115 -106v-498h-335v1432h335v-584l508 584h402l-553 -619l606 -813h-403zM735 -184q0 -140 -94 -252h-137v2q94 105 94 188h-109v207h246v-145z" />
    <glyph glyph-name="kcommaaccent" unicode="&#x137;" horiz-adv-x="1198" 
d="M842 0l-275 477l-110 -92v-385h-320v1606h320v-940l358 432h340l-371 -434l404 -664h-346zM662 -193q0 -138 -95 -251h-137v2q94 105 94 188h-108v207h246v-146z" />
    <glyph glyph-name="kgreenlandic" unicode="&#x138;" horiz-adv-x="1198" 
d="M842 0l-275 477l-110 -92v-385h-320v1096h320v-430l358 432h340l-371 -434l404 -664h-346z" />
    <glyph glyph-name="Lacute" unicode="&#x139;" horiz-adv-x="1234" 
d="M152 0v1432h327v-1170h662v-262h-989zM391 1505v2l299 322h330v-2l-381 -322h-248z" />
    <glyph glyph-name="lacute" unicode="&#x13a;" horiz-adv-x="579" 
d="M137 0v1606h320v-1606h-320zM156 1642v3l270 321h276v-2l-327 -322h-219z" />
    <glyph glyph-name="Lcommaaccent" unicode="&#x13b;" horiz-adv-x="1234" 
d="M152 0v1432h327v-1170h662v-262h-989zM709 -184q0 -139 -95 -252h-137v2q94 105 94 188h-108v207h246v-145z" />
    <glyph glyph-name="lcommaaccent" unicode="&#x13c;" horiz-adv-x="579" 
d="M137 0v1606h320v-1606h-320zM422 -186q0 -140 -94 -252h-138v2q95 106 95 188h-109v207h246v-145z" />
    <glyph glyph-name="Lcaron" unicode="&#x13d;" horiz-adv-x="1234" 
d="M152 0v1432h327v-1170h662v-262h-989zM913 1380q0 -140 -94 -252h-137v2q94 105 94 189h-108v207h245v-146z" />
    <glyph glyph-name="lcaron" unicode="&#x13e;" horiz-adv-x="579" 
d="M137 0v1606h320v-1606h-320zM827 1460q0 -140 -94 -252h-137v2q94 105 94 189h-108v207h245v-146z" />
    <glyph glyph-name="Ldot" unicode="&#x13f;" horiz-adv-x="1234" 
d="M152 0v1432h327v-1170h662v-262h-989zM670 1208v234h229v-234h-229z" />
    <glyph glyph-name="ldot" unicode="&#x140;" horiz-adv-x="579" 
d="M137 0v1606h320v-1606h-320zM582 1210v234h229v-234h-229z" />
    <glyph glyph-name="Lslash" unicode="&#x141;" horiz-adv-x="1234" 
d="M23 487v220l129 67v658h327v-482l201 107v-219l-201 -107v-469h662v-262h-989v555z" />
    <glyph glyph-name="lslash" unicode="&#x142;" horiz-adv-x="657" 
d="M61 471v215l109 76v844h319v-617l107 76v-223l-107 -74v-768h-319v547z" />
    <glyph glyph-name="Nacute" unicode="&#x143;" horiz-adv-x="1540" 
d="M152 0v1432h370l596 -1067q-20 96 -20 276v791h293v-1432h-385l-584 1057q20 -117 20 -254v-803h-290zM594 1505v2l299 322h330v-2l-381 -322h-248z" />
    <glyph glyph-name="nacute" unicode="&#x144;" horiz-adv-x="1286" 
d="M840 0v643q0 119 -38.5 175t-131.5 56q-97 0 -151 -78t-54 -214v-582h-322v844q0 71 -6 254h307q1 -9 4.5 -50t7 -89.5t5.5 -86.5q41 121 130.5 183.5t219.5 62.5q80 0 142.5 -21.5t101.5 -57t64.5 -86.5t35.5 -106t10 -120v-727h-325zM512 1198v2l270 322h277v-2
l-328 -322h-219z" />
    <glyph glyph-name="Ncommaaccent" unicode="&#x145;" horiz-adv-x="1540" 
d="M152 0v1432h370l596 -1067q-20 96 -20 276v791h293v-1432h-385l-584 1057q20 -117 20 -254v-803h-290zM795 -184q0 -139 -95 -252h-137v2q94 105 94 188h-108v207h246v-145z" />
    <glyph glyph-name="ncommaaccent" unicode="&#x146;" horiz-adv-x="1286" 
d="M840 0v643q0 119 -38.5 175t-131.5 56q-97 0 -151 -78t-54 -214v-582h-322v844q0 71 -6 254h307q1 -9 4.5 -50t7 -89.5t5.5 -86.5q41 121 130.5 183.5t219.5 62.5q80 0 142.5 -21.5t101.5 -57t64.5 -86.5t35.5 -106t10 -120v-727h-325zM801 -193q0 -139 -94 -251h-138v2
q95 106 95 188h-109v207h246v-146z" />
    <glyph glyph-name="Ncaron" unicode="&#x147;" horiz-adv-x="1540" 
d="M152 0v1432h370l596 -1067q-20 96 -20 276v791h293v-1432h-385l-584 1057q20 -117 20 -254v-803h-290zM856 1491h-229l-281 344v2h182l211 -195h4l203 195h182v-2z" />
    <glyph glyph-name="ncaron" unicode="&#x148;" horiz-adv-x="1286" 
d="M840 0v643q0 119 -38.5 175t-131.5 56q-97 0 -151 -78t-54 -214v-582h-322v844q0 71 -6 254h307q1 -9 4.5 -50t7 -89.5t5.5 -86.5q41 121 130.5 183.5t219.5 62.5q80 0 142.5 -21.5t101.5 -57t64.5 -86.5t35.5 -106t10 -120v-727h-325zM1006 1528l-250 -344h-230
l-258 344v2h160l211 -195h4l203 195h160v-2z" />
    <glyph glyph-name="Eng" unicode="&#x14a;" horiz-adv-x="1540" 
d="M152 0v1432h370l596 -1080q-20 125 -20 277v803h293v-1618q0 -136 -79.5 -218.5t-232.5 -82.5q-88 0 -190 4v227h112q67 0 83 17t16 94v145h-78l-600 1069q20 -94 20 -254v-815h-290z" />
    <glyph glyph-name="eng" unicode="&#x14b;" horiz-adv-x="1286" 
d="M854 -487q-88 0 -190 4v247h49q78 0 102.5 32t24.5 128v719q0 119 -38.5 175t-131.5 56q-97 0 -151 -78t-54 -214v-582h-322v844q0 71 -6 254h307q1 -8 4.5 -48t7 -87.5t5.5 -85.5q40 114 128 177.5t222 63.5q80 0 142.5 -21.5t101.5 -57t64.5 -86.5t35.5 -106t10 -120
v-913q0 -136 -79 -218.5t-232 -82.5z" />
    <glyph glyph-name="Omacron" unicode="&#x14c;" horiz-adv-x="1613" 
d="M1198 721q0 224 -100.5 348.5t-288.5 124.5q-194 0 -294.5 -123t-100.5 -348q0 -223 102.5 -354t290.5 -131q198 0 294.5 129t96.5 354zM1532 721q0 -338 -194 -539.5t-533 -201.5q-176 0 -314.5 55t-227.5 154t-135 233.5t-46 296.5q0 343 192.5 538t532.5 195
q346 0 535.5 -195t189.5 -536zM1272 1602h-975v155h975v-155z" />
    <glyph glyph-name="omacron" unicode="&#x14d;" 
d="M856 549q0 170 -58 258t-165 88q-230 0 -230 -346q0 -171 59.5 -263.5t164.5 -92.5q117 0 173 86.5t56 269.5zM1182 551q0 -267 -141 -419t-416 -152q-269 0 -409 153t-140 418q0 259 141.5 413t413.5 154q143 0 250.5 -41t172.5 -117.5t96.5 -178.5t31.5 -230z
M1137 1305h-975v155h975v-155z" />
    <glyph glyph-name="Obreve" unicode="&#x14e;" horiz-adv-x="1613" 
d="M1198 721q0 224 -100.5 348.5t-288.5 124.5q-194 0 -294.5 -123t-100.5 -348q0 -223 102.5 -354t290.5 -131q198 0 294.5 129t96.5 354zM1532 721q0 -338 -194 -539.5t-533 -201.5q-176 0 -314.5 55t-227.5 154t-135 233.5t-46 296.5q0 343 192.5 538t532.5 195
q346 0 535.5 -195t189.5 -536zM784 1491q-154 0 -246.5 91.5t-105.5 229.5h164q15 -75 67.5 -120t122.5 -45q74 0 125 44.5t66 120.5h164q-19 -141 -109 -231t-248 -90z" />
    <glyph glyph-name="obreve" unicode="&#x14f;" 
d="M856 549q0 170 -58 258t-165 88q-230 0 -230 -346q0 -171 59.5 -263.5t164.5 -92.5q117 0 173 86.5t56 269.5zM1182 551q0 -267 -141 -419t-416 -152q-269 0 -409 153t-140 418q0 259 141.5 413t413.5 154q143 0 250.5 -41t172.5 -117.5t96.5 -178.5t31.5 -230zM643 1184
q-154 0 -246.5 91.5t-105.5 229.5h164q15 -76 67.5 -121t122.5 -45q73 0 124.5 44.5t66.5 121.5h163q-19 -141 -108.5 -231t-247.5 -90z" />
    <glyph glyph-name="Ohungarumlaut" unicode="&#x150;" horiz-adv-x="1613" 
d="M1198 721q0 224 -100.5 348.5t-288.5 124.5q-194 0 -294.5 -123t-100.5 -348q0 -223 102.5 -354t290.5 -131q198 0 294.5 129t96.5 354zM1532 721q0 -338 -194 -539.5t-533 -201.5q-176 0 -314.5 55t-227.5 154t-135 233.5t-46 296.5q0 343 192.5 538t532.5 195
q346 0 535.5 -195t189.5 -536zM463 1505v2l250 322h282v-2l-366 -322h-166zM868 1505v2l250 322h283v-2l-365 -322h-168z" />
    <glyph glyph-name="ohungarumlaut" unicode="&#x151;" 
d="M856 549q0 170 -58 258t-165 88q-230 0 -230 -346q0 -171 59.5 -263.5t164.5 -92.5q117 0 173 86.5t56 269.5zM1182 551q0 -267 -141 -419t-416 -152q-269 0 -409 153t-140 418q0 259 141.5 413t413.5 154q143 0 250.5 -41t172.5 -117.5t96.5 -178.5t31.5 -230zM338 1198
v2l225 322h236v-2l-320 -322h-141zM743 1198v2l226 322h235v-2l-317 -322h-144z" />
    <glyph glyph-name="OE" unicode="&#x152;" horiz-adv-x="2082" 
d="M977 0v74q-168 -94 -393 -94q-176 0 -314.5 55t-227.5 154t-135 233.5t-46 296.5q0 343 192.5 538t532.5 195q227 0 391 -88v68h973v-252h-645v-332h581v-254h-581v-332h657v-262h-985zM977 721q0 224 -100.5 348.5t-288.5 124.5q-194 0 -294.5 -123t-100.5 -348
q0 -223 102.5 -354t290.5 -131q198 0 294.5 129t96.5 354z" />
    <glyph glyph-name="oe" unicode="&#x153;" horiz-adv-x="1933" 
d="M616 -20q-120 0 -218.5 34.5t-173 102.5t-115.5 178.5t-41 255.5q0 273 150.5 420t404.5 147q235 0 374 -114q132 114 371 114q500 0 504 -532q0 -51 -4 -97h-694v-28q0 -40 5 -76t18.5 -74t35.5 -65t58.5 -44.5t84.5 -17.5q82 0 116.5 35.5t55.5 116.5l303 -19
q-36 -162 -150.5 -249.5t-334.5 -87.5q-241 0 -369 116q-137 -116 -381 -116zM848 549q0 175 -59 260.5t-164 85.5q-230 0 -230 -346q0 -161 55 -258.5t168 -97.5q65 0 111.5 27t71.5 77t36 111.5t11 140.5zM1362 926q-92 0 -137.5 -61.5t-50.5 -190.5h368v4
q0 129 -44 188.5t-136 59.5z" />
    <glyph glyph-name="Racute" unicode="&#x154;" horiz-adv-x="1449" 
d="M479 528v-528h-327v1432h596q268 0 405 -116t137 -323q0 -339 -291 -430l365 -563h-369l-315 528h-201zM956 985q0 193 -243 193h-234v-394h238q122 0 180.5 53t58.5 148zM461 1505v2l299 322h330v-2l-381 -322h-248z" />
    <glyph glyph-name="racute" unicode="&#x155;" horiz-adv-x="872" 
d="M821 842q-45 6 -108 6q-122 0 -183 -75.5t-61 -203.5v-569h-324v838q0 54 -3.5 148t-6.5 112h316q13 -154 14 -199q25 99 97 159t190 60q44 0 69 -4v-272zM336 1198v2l270 322h277v-2l-328 -322h-219z" />
    <glyph glyph-name="Rcommaaccent" unicode="&#x156;" horiz-adv-x="1449" 
d="M479 528v-528h-327v1432h596q268 0 405 -116t137 -323q0 -339 -291 -430l365 -563h-369l-315 528h-201zM956 985q0 193 -243 193h-234v-394h238q122 0 180.5 53t58.5 148zM827 -184q0 -140 -94 -252h-137v2q94 105 94 188h-108v207h245v-145z" />
    <glyph glyph-name="rcommaaccent" unicode="&#x157;" horiz-adv-x="872" 
d="M821 842q-45 6 -108 6q-122 0 -183 -75.5t-61 -203.5v-569h-324v838q0 54 -3.5 148t-6.5 112h316q13 -154 14 -199q25 99 97 159t190 60q44 0 69 -4v-272zM522 -193q0 -139 -94 -251h-137v2q94 105 94 188h-109v207h246v-146z" />
    <glyph glyph-name="Rcaron" unicode="&#x158;" horiz-adv-x="1449" 
d="M479 528v-528h-327v1432h596q268 0 405 -116t137 -323q0 -339 -291 -430l365 -563h-369l-315 528h-201zM956 985q0 193 -243 193h-234v-394h238q122 0 180.5 53t58.5 148zM723 1491h-229l-281 344v2h182l211 -195h4l203 195h182v-2z" />
    <glyph glyph-name="rcaron" unicode="&#x159;" horiz-adv-x="872" 
d="M821 842q-45 6 -108 6q-122 0 -183 -75.5t-61 -203.5v-569h-324v838q0 54 -3.5 148t-6.5 112h316q13 -154 14 -199q25 99 97 159t190 60q44 0 69 -4v-272zM829 1528l-249 -344h-230l-258 344v2h160l211 -195h4l203 195h159v-2z" />
    <glyph glyph-name="Sacute" unicode="&#x15a;" horiz-adv-x="1363" 
d="M1284 416q0 -206 -150.5 -321t-461.5 -115q-147 0 -254 25.5t-179.5 77.5t-115 124.5t-64.5 173.5l303 51q12 -50 30 -84.5t52 -64.5t91 -45t137 -15q295 0 295 174q0 31 -13 57.5t-39.5 47t-57.5 37t-77.5 30.5t-88 24.5t-99.5 22.5q-57 12 -103.5 25t-97.5 32.5
t-90.5 42.5t-76 56.5t-60.5 72.5t-38.5 91t-14.5 113q0 195 150.5 299t408.5 104q272 0 404.5 -89t168.5 -278l-315 -41q-20 90 -85.5 133.5t-183.5 43.5q-121 0 -175 -42.5t-54 -113.5q0 -33 8.5 -58t29.5 -44.5t42.5 -32.5t63.5 -25.5t74.5 -20.5t92.5 -20
q203 -42 290 -77q180 -73 231 -222q22 -66 22 -149zM485 1505v2l299 322h330v-2l-381 -322h-248z" />
    <glyph glyph-name="sacute" unicode="&#x15b;" horiz-adv-x="1067" 
d="M1016 338q0 -171 -121 -264.5t-354 -93.5q-119 0 -209.5 26t-145 72t-84 101t-39.5 122l291 33q7 -64 51 -107t132 -43q157 0 157 109q0 55 -47.5 83.5t-183.5 59.5q-201 46 -284 129.5t-83 222.5q0 151 114 240.5t325 89.5q192 0 312.5 -86t139.5 -223l-297 -21
q-3 63 -49 97.5t-117 34.5q-69 0 -103 -25.5t-34 -65.5q0 -35 14.5 -56t67.5 -44t158 -47q74 -17 127.5 -34.5t105.5 -45t84.5 -62.5t52 -86t19.5 -116zM393 1198v2l271 322h276v-2l-328 -322h-219z" />
    <glyph glyph-name="Scircumflex" unicode="&#x15c;" horiz-adv-x="1363" 
d="M1284 416q0 -206 -150.5 -321t-461.5 -115q-147 0 -254 25.5t-179.5 77.5t-115 124.5t-64.5 173.5l303 51q12 -50 30 -84.5t52 -64.5t91 -45t137 -15q295 0 295 174q0 31 -13 57.5t-39.5 47t-57.5 37t-77.5 30.5t-88 24.5t-99.5 22.5q-57 12 -103.5 25t-97.5 32.5
t-90.5 42.5t-76 56.5t-60.5 72.5t-38.5 91t-14.5 113q0 195 150.5 299t408.5 104q272 0 404.5 -89t168.5 -278l-315 -41q-20 90 -85.5 133.5t-183.5 43.5q-121 0 -175 -42.5t-54 -113.5q0 -33 8.5 -58t29.5 -44.5t42.5 -32.5t63.5 -25.5t74.5 -20.5t92.5 -20
q203 -42 290 -77q180 -73 231 -222q22 -66 22 -149zM1038 1505h-198l-201 199h-4l-209 -199h-201v2l291 365h240l282 -365v-2z" />
    <glyph glyph-name="scircumflex" unicode="&#x15d;" horiz-adv-x="1067" 
d="M1016 338q0 -171 -121 -264.5t-354 -93.5q-119 0 -209.5 26t-145 72t-84 101t-39.5 122l291 33q7 -64 51 -107t132 -43q157 0 157 109q0 55 -47.5 83.5t-183.5 59.5q-201 46 -284 129.5t-83 222.5q0 151 114 240.5t325 89.5q192 0 312.5 -86t139.5 -223l-297 -21
q-3 63 -49 97.5t-117 34.5q-69 0 -103 -25.5t-34 -65.5q0 -35 14.5 -56t67.5 -44t158 -47q74 -17 127.5 -34.5t105.5 -45t84.5 -62.5t52 -86t19.5 -116zM909 1200v-2h-178l-201 199h-4l-209 -199h-178v2l269 365h239z" />
    <glyph glyph-name="Scedilla" unicode="&#x15e;" horiz-adv-x="1363" 
d="M915 -233q0 -88 -73 -142.5t-240 -54.5q-48 0 -106 6v127q31 -6 86 -6q137 0 137 65q0 35 -29.5 51.5t-93.5 16.5q-33 0 -51 -2l53 154q-248 12 -373 109.5t-166 289.5l303 51q12 -50 30 -84.5t52 -64.5t91 -45t137 -15q295 0 295 174q0 31 -13 57.5t-39.5 47t-57.5 37
t-77.5 30.5t-88 24.5t-99.5 22.5q-57 12 -103.5 25t-97.5 32.5t-90.5 42.5t-76 56.5t-60.5 72.5t-38.5 91t-14.5 113q0 195 150.5 299t408.5 104q272 0 404.5 -89t168.5 -278l-315 -41q-20 90 -85.5 133.5t-183.5 43.5q-121 0 -175 -42.5t-54 -113.5q0 -33 8.5 -58
t29.5 -44.5t42.5 -32.5t63.5 -25.5t74.5 -20.5t92.5 -20q203 -42 290 -77q180 -73 231 -222q22 -66 22 -149q0 -193 -130.5 -306t-399.5 -128l-23 -60q92 -4 138 -45.5t46 -109.5z" />
    <glyph glyph-name="scedilla" unicode="&#x15f;" horiz-adv-x="1067" 
d="M772 -233q0 -88 -73 -142.5t-240 -54.5q-49 0 -107 6v127q26 -6 86 -6q137 0 137 65q0 35 -29 51.5t-93 16.5q-34 0 -52 -2l56 156q-97 8 -170.5 37t-119 73t-70.5 95t-34 112l291 33q7 -64 51 -107t132 -43q157 0 157 109q0 55 -47.5 83.5t-183.5 59.5
q-201 46 -284 129.5t-83 222.5q0 151 114 240.5t325 89.5q192 0 312.5 -86t139.5 -223l-297 -21q-3 63 -49 97.5t-117 34.5q-69 0 -103 -25.5t-34 -65.5q0 -35 14.5 -56t67.5 -44t158 -47q74 -17 127.5 -34.5t105.5 -45t84.5 -62.5t52 -86t19.5 -116q0 -158 -103.5 -250.5
t-302.5 -105.5l-22 -60q92 -4 138 -45.5t46 -109.5z" />
    <glyph glyph-name="Scaron" unicode="&#x160;" horiz-adv-x="1363" 
d="M1284 416q0 -206 -150.5 -321t-461.5 -115q-147 0 -254 25.5t-179.5 77.5t-115 124.5t-64.5 173.5l303 51q12 -50 30 -84.5t52 -64.5t91 -45t137 -15q295 0 295 174q0 31 -13 57.5t-39.5 47t-57.5 37t-77.5 30.5t-88 24.5t-99.5 22.5q-57 12 -103.5 25t-97.5 32.5
t-90.5 42.5t-76 56.5t-60.5 72.5t-38.5 91t-14.5 113q0 195 150.5 299t408.5 104q272 0 404.5 -89t168.5 -278l-315 -41q-20 90 -85.5 133.5t-183.5 43.5q-121 0 -175 -42.5t-54 -113.5q0 -33 8.5 -58t29.5 -44.5t42.5 -32.5t63.5 -25.5t74.5 -20.5t92.5 -20
q203 -42 290 -77q180 -73 231 -222q22 -66 22 -149zM748 1491h-230l-280 344v2h182l211 -195h4l203 195h182v-2z" />
    <glyph glyph-name="scaron" unicode="&#x161;" horiz-adv-x="1067" 
d="M1016 338q0 -171 -121 -264.5t-354 -93.5q-119 0 -209.5 26t-145 72t-84 101t-39.5 122l291 33q7 -64 51 -107t132 -43q157 0 157 109q0 55 -47.5 83.5t-183.5 59.5q-201 46 -284 129.5t-83 222.5q0 151 114 240.5t325 89.5q192 0 312.5 -86t139.5 -223l-297 -21
q-3 63 -49 97.5t-117 34.5q-69 0 -103 -25.5t-34 -65.5q0 -35 14.5 -56t67.5 -44t158 -47q74 -17 127.5 -34.5t105.5 -45t84.5 -62.5t52 -86t19.5 -116zM887 1528l-250 -344h-229l-258 344v2h159l211 -195h4l203 195h160v-2z" />
    <glyph glyph-name="Tcedilla" unicode="&#x162;" horiz-adv-x="1249" 
d="M883 -227q0 -88 -73.5 -142.5t-240.5 -54.5q-47 0 -106 6v127q31 -6 86 -6q137 0 137 66q0 35 -29 51t-94 16q-33 0 -51 -2l59 166h-114v1180h-432v252h1198v-252h-437v-1180h-59l-29 -72q92 -4 138.5 -45.5t46.5 -109.5z" />
    <glyph glyph-name="tcedilla" unicode="&#x163;" horiz-adv-x="802" 
d="M643 -233q0 -88 -73 -142.5t-240 -54.5q-48 0 -107 6v127q26 -6 86 -6q137 0 137 65q0 35 -29 51.5t-93 16.5q-34 0 -52 -2l62 172h8q-166 61 -166 291v575h-145v232h145v336h322v-336h209v-232h-209v-516q0 -58 23.5 -80t86.5 -22h103v-256q-171 -11 -230 -12l-22 -58
q92 -4 138 -45.5t46 -109.5z" />
    <glyph glyph-name="Tcaron" unicode="&#x164;" horiz-adv-x="1249" 
d="M786 1180v-1180h-329v1180h-432v252h1198v-252h-437zM735 1491h-229l-281 344v2h183l210 -195h5l202 195h183v-2z" />
    <glyph glyph-name="tcaron" unicode="&#x165;" horiz-adv-x="802" 
d="M31 866v232h145v336h322v-336h209v-232h-209v-516q0 -58 23.5 -80t86.5 -22h103v-256q-14 -1 -61 -4.5t-89 -5.5t-94 -2q-140 0 -215.5 80t-75.5 231v575h-145zM967 1438q0 -139 -95 -252h-137v2q94 105 94 188h-108v207h246v-145z" />
    <glyph glyph-name="Tbar" unicode="&#x166;" horiz-adv-x="1249" 
d="M786 1180v-406h271v-233h-271v-541h-329v541h-267v233h267v406h-432v252h1198v-252h-437z" />
    <glyph glyph-name="tbar" unicode="&#x167;" horiz-adv-x="802" 
d="M31 866v232h145v336h322v-336h209v-232h-209v-204h209v-187h-209v-125q0 -58 23.5 -80t86.5 -22h103v-256q-14 -1 -61 -4.5t-89 -5.5t-94 -2q-140 0 -215.5 80t-75.5 231v184h-143v187h143v204h-145z" />
    <glyph glyph-name="Utilde" unicode="&#x168;" horiz-adv-x="1529" 
d="M762 -20q-287 0 -448.5 137.5t-161.5 423.5v891h327v-867q0 -166 74 -247.5t215 -81.5q142 0 212.5 83.5t70.5 255.5v857h329v-877q0 -289 -161.5 -432t-456.5 -143zM944 1505q-52 0 -118 31.5t-124 62.5t-90 31q-94 0 -94 -108v-17h-153v23q0 51 9.5 95t33 88.5
t72.5 70.5t120 26q42 0 94 -20t92 -44.5t82 -44.5t68 -20q90 0 90 115v14h150v-14q0 -46 -5 -84t-19.5 -77.5t-39.5 -66.5t-67.5 -44t-100.5 -17z" />
    <glyph glyph-name="utilde" unicode="&#x169;" horiz-adv-x="1286" 
d="M455 1098v-645q0 -120 38 -175t132 -55q95 0 149.5 73.5t54.5 203.5v598h326v-850q0 -198 8 -248h-311q-14 140 -14 225q-96 -245 -353 -245q-78 0 -140 21.5t-101.5 57t-65.5 86t-36.5 104.5t-10.5 116v733h324zM786 1198q-41 0 -91.5 19.5t-89.5 43t-81.5 43
t-68.5 19.5q-95 0 -95 -109v-16h-153v23q0 51 9.5 95t33 88.5t72.5 70.5t120 26q53 0 120.5 -32.5t126 -64.5t89.5 -32q90 0 90 115v14h150v-14q0 -46 -5 -84t-19.5 -77.5t-39.5 -66.5t-67.5 -44t-100.5 -17z" />
    <glyph glyph-name="Umacron" unicode="&#x16a;" horiz-adv-x="1529" 
d="M762 -20q-287 0 -448.5 137.5t-161.5 423.5v891h327v-867q0 -166 74 -247.5t215 -81.5q142 0 212.5 83.5t70.5 255.5v857h329v-877q0 -289 -161.5 -432t-456.5 -143zM1257 1602h-974v155h974v-155z" />
    <glyph glyph-name="umacron" unicode="&#x16b;" horiz-adv-x="1286" 
d="M455 1098v-645q0 -120 38 -175t132 -55q95 0 149.5 73.5t54.5 203.5v598h326v-850q0 -198 8 -248h-311q-14 140 -14 225q-96 -245 -353 -245q-78 0 -140 21.5t-101.5 57t-65.5 86t-36.5 104.5t-10.5 116v733h324zM1137 1305h-975v155h975v-155z" />
    <glyph glyph-name="Ubreve" unicode="&#x16c;" horiz-adv-x="1529" 
d="M762 -20q-287 0 -448.5 137.5t-161.5 423.5v891h327v-867q0 -166 74 -247.5t215 -81.5q142 0 212.5 83.5t70.5 255.5v857h329v-877q0 -289 -161.5 -432t-456.5 -143zM770 1491q-154 0 -246.5 91.5t-105.5 229.5h164q15 -75 67.5 -120t122.5 -45q74 0 125 44.5t66 120.5
h163q-19 -141 -108.5 -231t-247.5 -90z" />
    <glyph glyph-name="ubreve" unicode="&#x16d;" horiz-adv-x="1286" 
d="M455 1098v-645q0 -120 38 -175t132 -55q95 0 149.5 73.5t54.5 203.5v598h326v-850q0 -198 8 -248h-311q-14 140 -14 225q-96 -245 -353 -245q-78 0 -140 21.5t-101.5 57t-65.5 86t-36.5 104.5t-10.5 116v733h324zM643 1184q-154 0 -246.5 91.5t-105.5 229.5h164
q15 -76 67.5 -121t122.5 -45q73 0 124.5 44.5t66.5 121.5h163q-19 -141 -108.5 -231t-247.5 -90z" />
    <glyph glyph-name="Uring" unicode="&#x16e;" horiz-adv-x="1529" 
d="M762 -20q-287 0 -448.5 137.5t-161.5 423.5v891h327v-867q0 -166 74 -247.5t215 -81.5q142 0 212.5 83.5t70.5 255.5v857h329v-877q0 -289 -161.5 -432t-456.5 -143zM901 1698q0 50 -37 87.5t-90 37.5t-89 -37t-36 -88q0 -54 35.5 -91.5t89.5 -37.5t90.5 37.5t36.5 91.5z
M1028 1698q0 -107 -74 -180.5t-180 -73.5q-105 0 -179.5 73.5t-74.5 180.5q0 104 75 179t179 75q105 0 179.5 -74.5t74.5 -179.5z" />
    <glyph glyph-name="uring" unicode="&#x16f;" horiz-adv-x="1286" 
d="M455 1098v-645q0 -120 38 -175t132 -55q95 0 149.5 73.5t54.5 203.5v598h326v-850q0 -198 8 -248h-311q-14 140 -14 225q-96 -245 -353 -245q-78 0 -140 21.5t-101.5 57t-65.5 86t-36.5 104.5t-10.5 116v733h324zM889 1391q0 -107 -74 -180.5t-180 -73.5
q-105 0 -179.5 73.5t-74.5 180.5q0 104 75 179t179 75q105 0 179.5 -74.5t74.5 -179.5zM762 1391q0 50 -37 87.5t-90 37.5t-89 -37t-36 -88q0 -54 35.5 -91.5t89.5 -37.5t90.5 37.5t36.5 91.5z" />
    <glyph glyph-name="Uhungarumlaut" unicode="&#x170;" horiz-adv-x="1529" 
d="M762 -20q-287 0 -448.5 137.5t-161.5 423.5v891h327v-867q0 -166 74 -247.5t215 -81.5q142 0 212.5 83.5t70.5 255.5v857h329v-877q0 -289 -161.5 -432t-456.5 -143zM449 1505v2l249 322h283v-2l-367 -322h-165zM854 1505v2l250 322h282v-2l-364 -322h-168z" />
    <glyph glyph-name="uhungarumlaut" unicode="&#x171;" horiz-adv-x="1286" 
d="M455 1098v-645q0 -120 38 -175t132 -55q95 0 149.5 73.5t54.5 203.5v598h326v-850q0 -198 8 -248h-311q-14 140 -14 225q-96 -245 -353 -245q-78 0 -140 21.5t-101.5 57t-65.5 86t-36.5 104.5t-10.5 116v733h324zM743 1198v2l226 322h235v-2l-317 -322h-144zM338 1198v2
l225 322h236v-2l-320 -322h-141z" />
    <glyph glyph-name="Uogonek" unicode="&#x172;" horiz-adv-x="1529" 
d="M1067 -377q-106 0 -172 53.5t-66 147.5q0 92 58 164q-52 -8 -125 -8q-287 0 -448.5 137.5t-161.5 423.5v891h327v-867q0 -166 74 -247.5t215 -81.5q142 0 212.5 83.5t70.5 255.5v857h329v-877q0 -366 -262 -502q-51 -39 -78.5 -90t-27.5 -102q0 -43 25 -68.5t69 -25.5
q50 0 113 26v-135q-65 -35 -152 -35z" />
    <glyph glyph-name="uogonek" unicode="&#x173;" horiz-adv-x="1286" 
d="M1087 -446q-106 0 -171.5 53t-65.5 147q0 46 16 88t41.5 72.5t50 51t50.5 34.5h-156q-14 140 -14 225q-96 -245 -353 -245q-78 0 -140 21.5t-101.5 57t-65.5 86t-36.5 104.5t-10.5 116v733h324v-645q0 -120 38 -175t132 -55q95 0 149.5 73.5t54.5 203.5v598h326v-850
q0 -198 8 -248h-2q-61 -40 -95 -96.5t-34 -112.5q0 -43 25 -68.5t69 -25.5q47 0 113 27v-136q-64 -34 -152 -34z" />
    <glyph glyph-name="Wcircumflex" unicode="&#x174;" horiz-adv-x="1982" 
d="M365 0l-355 1432h332l156 -766l73 -353q29 167 78 392l158 727h377l162 -727q21 -98 39 -193.5t27 -146.5t9 -52l68 353l151 766h332l-354 -1432h-391l-178 805q-21 91 -38.5 186.5t-19.5 116.5q0 -2 -4 -22t-9.5 -50.5t-12.5 -67.5t-16 -81t-17 -82l-178 -805h-389z
M1372 1505h-198l-201 199h-4l-209 -199h-201v2l291 365h240l282 -365v-2z" />
    <glyph glyph-name="wcircumflex" unicode="&#x175;" horiz-adv-x="1679" 
d="M272 0l-282 1098h307l133 -625l39 -192q14 96 39 194l160 623h346l160 -625l45 -194q16 100 36 194l138 625h297l-283 -1098h-350l-166 645q-16 62 -31.5 137t-17.5 95q-20 -122 -49 -232l-162 -645h-359zM1227 1200v-2h-178l-201 199h-4l-209 -199h-178v2l268 365h240z
" />
    <glyph glyph-name="Ycircumflex" unicode="&#x176;" horiz-adv-x="1345" 
d="M838 586v-586h-328v586l-500 846h342l318 -584l323 584h342zM1016 1505h-199l-201 199h-4l-209 -199h-200v2l291 365h239l283 -365v-2z" />
    <glyph glyph-name="ycircumflex" unicode="&#x177;" horiz-adv-x="1132" 
d="M233 -487h-159v251h159q60 0 92.5 20t49.5 69l43 120l-428 1125h315l174 -512l96 -295q54 153 99 303l151 504h318l-471 -1309q-20 -55 -43 -96.5t-47 -71t-55 -49.5t-60 -31.5t-70 -18t-76.5 -8t-87.5 -1.5zM946 1221v-2h-178l-201 198h-4l-209 -198h-178v2l268 364h240
z" />
    <glyph glyph-name="Ydieresis" unicode="&#x178;" horiz-adv-x="1345" 
d="M838 586v-586h-328v586l-500 846h342l318 -584l323 584h342zM274 1518v233h230v-233h-230zM725 1518v233h236v-233h-236z" />
    <glyph glyph-name="Zacute" unicode="&#x179;" horiz-adv-x="1304" 
d="M72 0v231l737 945h-670v256h1039v-228l-742 -948h781v-256h-1145zM434 1505v2l299 322h330v-2l-381 -322h-248z" />
    <glyph glyph-name="zacute" unicode="&#x17a;" horiz-adv-x="1054" 
d="M70 0l2 215l520 662h-494v221h844v-219l-516 -656h545v-223h-901zM393 1198v2l271 322h276v-2l-328 -322h-219z" />
    <glyph glyph-name="Zdotaccent" unicode="&#x17b;" horiz-adv-x="1304" 
d="M72 0v231l737 945h-670v256h1039v-228l-742 -948h781v-256h-1145zM473 1518v233h229v-233h-229z" />
    <glyph glyph-name="zdotaccent" unicode="&#x17c;" horiz-adv-x="1054" 
d="M70 0l2 215l520 662h-494v221h844v-219l-516 -656h545v-223h-901zM420 1210v234h229v-234h-229z" />
    <glyph glyph-name="Zcaron" unicode="&#x17d;" horiz-adv-x="1304" 
d="M72 0v231l737 945h-670v256h1039v-228l-742 -948h781v-256h-1145zM696 1491h-229l-281 344v2h183l211 -195h4l202 195h183v-2z" />
    <glyph glyph-name="zcaron" unicode="&#x17e;" horiz-adv-x="1054" 
d="M70 0l2 215l520 662h-494v221h844v-219l-516 -656h545v-223h-901zM887 1528l-250 -344h-229l-258 344v2h159l211 -195h4l203 195h160v-2z" />
    <glyph glyph-name="florin" unicode="&#x192;" horiz-adv-x="1155" 
d="M471 -430h-311l250 1268h-162l43 211h162l26 133q27 137 118.5 216t272.5 79q48 0 104.5 -10.5t88.5 -24.5l-43 -195q-48 19 -100 19q-64 0 -93.5 -29t-40.5 -88l-20 -100h215l-39 -211h-219z" />
    <glyph glyph-name="Aringacute" unicode="&#x1fa;" horiz-adv-x="1468" 
d="M373 0l104 352h508l111 -352h327l-501 1432h-390l-487 -1432h328zM985 1694q0 -107 -74 -180.5t-180 -73.5q-105 0 -179.5 73.5t-74.5 180.5q0 104 75 179t179 75q105 0 179.5 -74.5t74.5 -179.5zM727 1190l59 -197l123 -397h-360l119 397zM598 1970v2l270 322h277v-2
l-328 -322h-219zM858 1694q0 50 -37 87.5t-90 37.5t-89 -37t-36 -88q0 -54 35.5 -91.5t89.5 -37.5t90.5 37.5t36.5 91.5z" />
    <glyph glyph-name="aringacute" unicode="&#x1fb;" horiz-adv-x="1198" 
d="M1178 205v-217q-93 -8 -172 -8q-120 0 -193 52.5t-74 149.5q-37 -101 -121.5 -151.5t-201.5 -50.5q-88 0 -157.5 27.5t-112 74t-64 104t-21.5 121.5q0 188 133.5 271.5t409.5 83.5h109v92q0 91 -39.5 131.5t-116.5 40.5q-76 0 -117 -41.5t-41 -118.5l-295 18
q14 154 132 244t339 90q229 0 339 -101t110 -300v-432q0 -40 17.5 -60t60.5 -20h76zM426 1642v3l270 321h277v-2l-328 -322h-53q96 -12 159.5 -83.5t63.5 -167.5q0 -107 -74 -180.5t-180 -73.5q-105 0 -179.5 73.5t-74.5 180.5q0 96 64 167.5t159 83.5h-104zM526 184
q84 0 135.5 61t51.5 171v82h-140q-88 0 -144 -38t-56 -124q0 -64 39.5 -108t113.5 -44zM688 1391q0 50 -37 87.5t-90 37.5t-89 -37t-36 -88q0 -54 35.5 -91.5t89.5 -37.5t90.5 37.5t36.5 91.5z" />
    <glyph glyph-name="AEacute" unicode="&#x1fc;" horiz-adv-x="2105" 
d="M1985 0h-988v360h-452l-170 -360h-330l705 1427l1222 3v-246h-649v-334h588v-252h-588v-336h662v-262zM840 983l-191 -401h348v610h-61zM969 1505v2l299 322h329v-2l-380 -322h-248z" />
    <glyph glyph-name="aeacute" unicode="&#x1fd;" horiz-adv-x="1820" 
d="M487 -20q-102 0 -180 27.5t-123 74.5t-67.5 103.5t-22.5 121.5q0 188 133.5 271.5t409.5 83.5h108v92q0 91 -39.5 131.5t-115.5 40.5t-117 -41.5t-41 -118.5l-295 18q14 153 131.5 243.5t323.5 90.5q221 0 330 -100q111 100 317 100q504 0 504 -532l-4 -88h-695v-37
q0 -75 17.5 -134.5t65 -101t120.5 -41.5q75 0 117 36.5t55 115.5l303 -19q-17 -73 -46.5 -129t-83.5 -105.5t-143.5 -76t-211.5 -26.5q-275 0 -403 174q-105 -174 -347 -174zM559 184q84 0 135 61t51 171v82h-139q-88 0 -144 -38t-56 -124q0 -64 39.5 -108t113.5 -44z
M1233 926q-87 0 -136.5 -60t-52.5 -204h369v16q0 136 -45.5 192t-134.5 56zM803 1198v2l270 322h277v-2l-328 -322h-219z" />
    <glyph glyph-name="Oslashacute" unicode="&#x1fe;" horiz-adv-x="1613" 
d="M1532 721q0 -338 -194 -539.5t-533 -201.5q-282 0 -461 137l-160 -172h-184l246 264q-164 191 -164 510q0 343 192.5 538t532.5 195q281 0 465 -135l155 166h185l-240 -260q160 -192 160 -502zM414 723q0 -168 53 -277l604 652q-104 96 -262 96q-194 0 -294.5 -123
t-100.5 -348zM1198 721q0 148 -49 262l-602 -649q99 -96 260 -96q198 0 294.5 129t96.5 354zM637 1505v2l299 322h330v-2l-381 -322h-248z" />
    <glyph glyph-name="oslashacute" unicode="&#x1ff;" horiz-adv-x="1251" 
d="M1182 551q0 -267 -141 -419t-416 -152q-199 0 -326 83l-104 -118h-183v8l183 205q-119 146 -119 393q0 259 141.5 413t413.5 154q206 0 340 -88l92 103h180v-11l-170 -190q109 -144 109 -381zM403 549q0 -87 11 -143l374 419q-58 70 -155 70q-230 0 -230 -346zM856 549
q0 64 -10 129l-371 -418q53 -67 152 -67q117 0 173 86.5t56 269.5zM494 1198v2l270 322h276v-2l-327 -322h-219z" />
    <glyph glyph-name="Scommaaccent" unicode="&#x218;" horiz-adv-x="1363" 
d="M1284 416q0 -206 -150.5 -321t-461.5 -115q-147 0 -254 25.5t-179.5 77.5t-115 124.5t-64.5 173.5l303 51q12 -50 30 -84.5t52 -64.5t91 -45t137 -15q295 0 295 174q0 31 -13 57.5t-39.5 47t-57.5 37t-77.5 30.5t-88 24.5t-99.5 22.5q-57 12 -103.5 25t-97.5 32.5
t-90.5 42.5t-76 56.5t-60.5 72.5t-38.5 91t-14.5 113q0 195 150.5 299t408.5 104q272 0 404.5 -89t168.5 -278l-315 -41q-20 90 -85.5 133.5t-183.5 43.5q-121 0 -175 -42.5t-54 -113.5q0 -33 8.5 -58t29.5 -44.5t42.5 -32.5t63.5 -25.5t74.5 -20.5t92.5 -20
q203 -42 290 -77q180 -73 231 -222q22 -66 22 -149zM772 -184q0 -140 -94 -252h-137v2q94 105 94 188h-109v207h246v-145z" />
    <glyph glyph-name="scommaaccent" unicode="&#x219;" horiz-adv-x="1067" 
d="M1016 338q0 -171 -121 -264.5t-354 -93.5q-119 0 -209.5 26t-145 72t-84 101t-39.5 122l291 33q7 -64 51 -107t132 -43q157 0 157 109q0 55 -47.5 83.5t-183.5 59.5q-201 46 -284 129.5t-83 222.5q0 151 114 240.5t325 89.5q192 0 312.5 -86t139.5 -223l-297 -21
q-3 63 -49 97.5t-117 34.5q-69 0 -103 -25.5t-34 -65.5q0 -35 14.5 -56t67.5 -44t158 -47q74 -17 127.5 -34.5t105.5 -45t84.5 -62.5t52 -86t19.5 -116zM662 -193q0 -138 -95 -251h-137v2q94 105 94 188h-108v207h246v-146z" />
    <glyph glyph-name="uni021A" unicode="&#x21a;" horiz-adv-x="1249" 
d="M786 1180v-1180h-329v1180h-432v252h1198v-252h-437zM739 -178q0 -140 -94 -252h-137v2q94 105 94 188h-108v207h245v-145z" />
    <glyph glyph-name="uni021B" unicode="&#x21b;" horiz-adv-x="802" 
d="M31 866v232h145v336h322v-336h209v-232h-209v-516q0 -58 23.5 -80t86.5 -22h103v-256q-14 -1 -61 -4.5t-89 -5.5t-94 -2q-140 0 -215.5 80t-75.5 231v575h-145zM532 -193q0 -139 -94 -251h-137v2q94 105 94 188h-108v207h245v-146z" />
    <glyph glyph-name="dotlessj" unicode="&#x237;" horiz-adv-x="591" 
d="M162 -487q-89 0 -191 4v247h49q78 0 102.5 32t24.5 128v1174h322v-1284q0 -137 -77.5 -219t-229.5 -82z" />
    <glyph glyph-name="circumflex" unicode="&#x2c6;" horiz-adv-x="974" 
d="M872 1200v-2h-178l-200 199h-5l-208 -199h-179v2l269 365h239z" />
    <glyph glyph-name="caron" unicode="&#x2c7;" horiz-adv-x="942" 
d="M840 1528l-250 -344h-230l-258 344v2h160l211 -195h4l203 195h160v-2z" />
    <glyph glyph-name="breve" unicode="&#x2d8;" horiz-adv-x="913" 
d="M455 1184q-154 0 -247 91.5t-106 229.5h164q15 -76 68 -121t123 -45q73 0 124 44.5t66 121.5h164q-19 -141 -108.5 -231t-247.5 -90z" />
    <glyph glyph-name="dotaccent" unicode="&#x2d9;" horiz-adv-x="434" 
d="M102 1210v234h230v-234h-230z" />
    <glyph glyph-name="ring" unicode="&#x2da;" horiz-adv-x="712" 
d="M483 1391q0 50 -37 87.5t-90 37.5t-89 -37t-36 -88q0 -54 35.5 -91.5t89.5 -37.5t90.5 37.5t36.5 91.5zM610 1391q0 -107 -74 -180.5t-180 -73.5q-105 0 -179.5 73.5t-74.5 180.5q0 104 75 179t179 75q105 0 179.5 -74.5t74.5 -179.5z" />
    <glyph glyph-name="ogonek" unicode="&#x2db;" horiz-adv-x="593" 
d="M340 -446q-106 0 -172 53t-66 147q0 46 16 88t41.5 72.5t50 51t50.5 34.5h154q-61 -40 -95 -96.5t-34 -112.5q0 -43 25 -68.5t69 -25.5q47 0 113 27v-136q-64 -34 -152 -34z" />
    <glyph glyph-name="tilde" unicode="&#x2dc;" horiz-adv-x="1015" 
d="M682 1198q-41 0 -91.5 19.5t-90 43t-82 43t-68.5 19.5q-94 0 -94 -109v-16h-154v23q0 40 5 75.5t21 74t41 66.5t68.5 46t100.5 18q53 0 120.5 -32.5t126 -64.5t89.5 -32q90 0 90 115v14h149v-14q0 -46 -4.5 -83.5t-19.5 -77.5t-39.5 -67t-67 -44t-100.5 -17z" />
    <glyph glyph-name="hungarumlaut" unicode="&#x2dd;" horiz-adv-x="1071" 
d="M102 1198v2l226 322h235v-2l-319 -322h-142zM508 1198v2l225 322h236v-2l-318 -322h-143z" />
    <glyph glyph-name="Wgrave" unicode="&#x1e80;" horiz-adv-x="1982" 
d="M365 0l-355 1432h332l156 -766l73 -353q29 167 78 392l158 727h377l162 -727q21 -98 39 -193.5t27 -146.5t9 -52l68 353l151 766h332l-354 -1432h-391l-178 805q-21 91 -38.5 186.5t-19.5 116.5q0 -2 -4 -22t-9.5 -50.5t-12.5 -67.5t-16 -81t-17 -82l-178 -805h-389z
M893 1505l-406 322v2h336l293 -322v-2h-223z" />
    <glyph glyph-name="wgrave" unicode="&#x1e81;" horiz-adv-x="1679" 
d="M272 0l-282 1098h307l133 -625l39 -192q14 96 39 194l160 623h346l160 -625q10 -39 20.5 -85t16.5 -74t8 -33q0 2 5 31t13.5 75t17.5 86l138 625h297l-283 -1098h-350l-166 645q-16 62 -31.5 137t-17.5 95q-20 -122 -49 -232l-162 -645h-359zM784 1198l-348 322v2h279
l264 -322v-2h-195z" />
    <glyph glyph-name="Wacute" unicode="&#x1e82;" horiz-adv-x="1982" 
d="M365 0l-355 1432h332l156 -766l73 -353q29 167 78 392l158 727h377l162 -727q21 -98 39 -193.5t27 -146.5t9 -52l68 353l151 766h332l-354 -1432h-391l-178 805q-21 91 -38.5 186.5t-19.5 116.5q0 -2 -4 -22t-9.5 -50.5t-12.5 -67.5t-16 -81t-17 -82l-178 -805h-389z
M819 1505v2l299 322h330v-2l-381 -322h-248z" />
    <glyph glyph-name="wacute" unicode="&#x1e83;" horiz-adv-x="1679" 
d="M272 0l-282 1098h307l133 -625l39 -192q14 96 39 194l160 623h346l160 -625q10 -39 20.5 -85t16.5 -74t8 -33q0 2 5 31t13.5 75t17.5 86l138 625h297l-283 -1098h-350l-166 645q-16 62 -31.5 137t-17.5 95q-20 -122 -49 -232l-162 -645h-359zM711 1198v2l270 322h276v-2
l-327 -322h-219z" />
    <glyph glyph-name="Wdieresis" unicode="&#x1e84;" horiz-adv-x="1982" 
d="M365 0l-355 1432h332l156 -766l73 -353q29 167 78 392l158 727h377l162 -727q21 -98 39 -193.5t27 -146.5t9 -52l68 353l151 766h332l-354 -1432h-391l-178 805q-21 91 -38.5 186.5t-19.5 116.5q0 -2 -4 -22t-9.5 -50.5t-12.5 -67.5t-16 -81t-17 -82l-178 -805h-389z
M1081 1518v233h236v-233h-236zM631 1518v233h229v-233h-229z" />
    <glyph glyph-name="wdieresis" unicode="&#x1e85;" horiz-adv-x="1679" 
d="M272 0l-282 1098h307l133 -625l39 -192q14 96 39 194l160 623h346l160 -625q10 -39 20.5 -85t16.5 -74t8 -33q0 2 5 31t13.5 75t17.5 86l138 625h297l-283 -1098h-350l-166 645q-16 62 -31.5 137t-17.5 95q-20 -122 -49 -232l-162 -645h-359zM967 1210v234h235v-234h-235
zM516 1210v234h229v-234h-229z" />
    <glyph glyph-name="Ygrave" unicode="&#x1ef2;" horiz-adv-x="1345" 
d="M838 586v-586h-328v586l-500 846h342l318 -584l323 584h342zM537 1505l-406 322v2h336l293 -322v-2h-223z" />
    <glyph glyph-name="ygrave" unicode="&#x1ef3;" horiz-adv-x="1132" 
d="M233 -487h-159v251h159q60 0 92.5 20t49.5 69l43 120l-428 1125h315l174 -512l96 -295q54 153 99 303l151 504h318l-471 -1309q-20 -55 -43 -96.5t-47 -71t-55 -49.5t-60 -31.5t-70 -18t-76.5 -8t-87.5 -1.5zM504 1219l-348 321v2h278l264 -321v-2h-194z" />
    <glyph glyph-name="endash" unicode="&#x2013;" horiz-adv-x="993" 
d="M0 455v223h993v-223h-993z" />
    <glyph glyph-name="emdash" unicode="&#x2014;" horiz-adv-x="2078" 
d="M0 455v223h2079v-223h-2079z" />
    <glyph glyph-name="quoteleft" unicode="&#x2018;" horiz-adv-x="589" 
d="M123 1130q0 126 33.5 221.5t99.5 186.5h211v-2q-61 -73 -106.5 -164.5t-45.5 -171.5h140v-282h-332v212z" />
    <glyph glyph-name="quoteright" unicode="&#x2019;" horiz-adv-x="589" 
d="M467 1325q0 -126 -33.5 -220.5t-99.5 -186.5h-211v2q61 73 106 164t45 171h-139v283h332v-213z" />
    <glyph glyph-name="quotesinglbase" unicode="&#x201a;" horiz-adv-x="589" 
d="M467 4q0 -126 -33.5 -220.5t-99.5 -186.5h-211v2q61 73 106 164t45 171h-139v283h332v-213z" />
    <glyph glyph-name="quotedblleft" unicode="&#x201c;" horiz-adv-x="1052" 
d="M586 1130q0 126 33.5 221.5t99.5 186.5h211v-2q-61 -73 -106.5 -164.5t-45.5 -171.5h140v-282h-332v212zM123 1130q0 126 33.5 221.5t99.5 186.5h211v-2q-61 -73 -106.5 -164.5t-45.5 -171.5h140v-282h-332v212z" />
    <glyph glyph-name="quotedblright" unicode="&#x201d;" horiz-adv-x="1052" 
d="M930 1325q0 -126 -33.5 -220.5t-99.5 -186.5h-211v2q61 73 106 164t45 171h-139v283h332v-213zM467 1325q0 -126 -33.5 -220.5t-99.5 -186.5h-211v2q61 73 106 164t45 171h-139v283h332v-213z" />
    <glyph glyph-name="quotedblbase" unicode="&#x201e;" horiz-adv-x="1050" 
d="M928 2q0 -126 -33.5 -221.5t-99.5 -186.5h-211v3q61 73 106 164t45 171h-139v283h332v-213zM467 2q0 -126 -33.5 -221.5t-99.5 -186.5h-211v3q61 73 106 164t45 171h-139v283h332v-213z" />
    <glyph glyph-name="dagger" unicode="&#x2020;" horiz-adv-x="1148" 
d="M137 938v217h320v352h243l-2 -352h316v-217h-316v-1077h-241v1077h-320z" />
    <glyph glyph-name="daggerdbl" unicode="&#x2021;" horiz-adv-x="1148" 
d="M137 938v217h320v352h241v-352h316v-217h-316v-535h316v-217h-316v-325h-241v325h-320v217h320v535h-320z" />
    <glyph glyph-name="bullet" unicode="&#x2022;" horiz-adv-x="808" 
d="M707 684q0 -124 -89.5 -213.5t-214.5 -89.5q-124 0 -212.5 89t-88.5 214q0 127 88 215t213 88t214.5 -88t89.5 -215z" />
    <glyph glyph-name="ellipsis" unicode="&#x2026;" horiz-adv-x="2064" 
d="M801 0v334h319v-334h-319zM1456 0v334h320v-334h-320zM137 0v334h320v-334h-320z" />
    <glyph glyph-name="perthousand" unicode="&#x2030;" horiz-adv-x="2076" 
d="M428 1077q0 132 -23 182t-75 50q-59 0 -84 -51t-25 -181q0 -129 25.5 -180t81.5 -51q53 0 76.5 50.5t23.5 180.5zM330 1442q62 0 110.5 -17t89 -56.5t62.5 -113t22 -178.5q0 -189 -79.5 -275.5t-208.5 -86.5q-131 0 -210 86t-79 276q0 105 21.5 178.5t62.5 113t91.5 56.5
t117.5 17zM410 0h-213l794 1432h211zM1176 362q0 132 -24 182t-77 50q-57 0 -82.5 -51t-25.5 -181t25.5 -180.5t80.5 -50.5q56 0 79.5 50t23.5 181zM1075 725q63 0 112.5 -17t90.5 -56.5t63.5 -112.5t22.5 -177q0 -99 -22.5 -171t-63.5 -112.5t-92 -59.5t-115 -19
q-62 0 -111.5 19t-89.5 59.5t-62 112.5t-22 171q0 104 21.5 177t62 112.5t90.5 56.5t115 17zM1853 362q0 132 -23.5 182t-76.5 50q-57 0 -80.5 -50.5t-23.5 -181.5t24 -181t78 -50t78 50t24 181zM1753 725q63 0 112.5 -17t90.5 -56.5t63.5 -112.5t22.5 -177
q0 -99 -22.5 -171t-63.5 -112.5t-92 -59.5t-115 -19q-130 0 -208.5 85.5t-78.5 276.5q0 104 21.5 177t62.5 112.5t91 56.5t116 17z" />
    <glyph glyph-name="guilsinglleft" unicode="&#x2039;" horiz-adv-x="772" 
d="M369 143l-267 402v4l265 405h301v-2l-256 -407l258 -400v-2h-301z" />
    <glyph glyph-name="guilsinglright" unicode="&#x203a;" horiz-adv-x="772" 
d="M403 954l267 -401v-4l-264 -406h-302v2l256 408l-258 399v2h301z" />
    <glyph glyph-name="Euro" unicode="&#x20ac;" horiz-adv-x="1155" 
d="M8 520l39 158h68v29v63h-107l39 158h82q73 524 526 524q196 0 309.5 -103t141.5 -272l-311 -16q-8 71 -46 109t-104 38q-91 0 -135 -72.5t-57 -207.5h297l-27 -158h-279v-49v-43h316l-29 -158h-280q31 -299 206 -299q65 0 105.5 46t48.5 126l307 -16q-65 -397 -465 -397
q-118 0 -211.5 38.5t-157.5 111t-103.5 170t-55.5 220.5h-117z" />
    <glyph glyph-name="trademark" unicode="&#x2122;" horiz-adv-x="1736" 
d="M915 1200v-479h-155v702h231l168 -446l21 -66q14 39 22 66l170 446h227v-702h-153l2 481l4 72l-25 -74l-184 -479h-119l-190 481l-25 76q6 -47 6 -78zM672 1270h-232v-549h-166v549h-227v153h625v-153z" />
    <glyph glyph-name="minus" unicode="&#x2212;" horiz-adv-x="1210" 
d="M80 567v248h1050v-248h-1050z" />
    <glyph glyph-name="notequal" unicode="&#x2260;" horiz-adv-x="1136" 
d="M16 850v248h625l125 252h233l-125 -252h246v-248h-368l-162 -324h530v-247h-653l-121 -246h-235l120 246h-215v247h340l160 324h-500z" />
    <glyph glyph-name="lessequal" unicode="&#x2264;" horiz-adv-x="1136" 
d="M43 641v360l1051 336v-252l-838 -266l838 -264v-252zM1092 0h-1049v248h1049v-248z" />
    <glyph glyph-name="greaterequal" unicode="&#x2265;" horiz-adv-x="1136" 
d="M43 303v252l838 264l-838 266v252l1051 -336v-360zM43 0v248h1051v-248h-1051z" />
    <glyph glyph-name="g.alt" horiz-adv-x="1224" 
d="M72 748q0 165 125.5 271.5t365.5 106.5q213 0 340 -88l277 60l2 -203l-160 -2q29 -72 29 -152q0 -181 -124 -289t-362 -108h-55q-115 -26 -115 -94q0 -34 24.5 -57t74.5 -23h258q228 0 322.5 -76t94.5 -229q0 -365 -641 -365q-139 0 -236 17t-153.5 51t-81 79.5
t-24.5 108.5q0 72 46.5 125.5t141.5 75.5q-108 56 -108 193q0 86 62.5 142.5t160.5 82.5q-129 42 -196.5 136t-67.5 237zM367 745q0 -93 52 -144.5t142 -51.5q95 0 145 49.5t50 146.5q0 96 -52.5 143.5t-144.5 47.5q-89 0 -140.5 -49t-51.5 -142zM684 -80h-244
q-24 -6 -34.5 -9.5t-32.5 -12.5t-32.5 -19t-20 -27.5t-9.5 -39.5q0 -136 254 -136q102 0 170 12.5t109 46t41 89.5q0 55 -48 75.5t-153 20.5z" />
    <glyph glyph-name="l.alt" horiz-adv-x="645" 
d="M432 -12q-154 0 -231.5 70.5t-77.5 217.5v1330h317v-1293q0 -47 21.5 -65.5t73.5 -18.5h69v-237q-114 -4 -172 -4z" />
    <glyph glyph-name="zero.tnum" horiz-adv-x="1155" 
d="M754 715q0 199 -15.5 302.5t-52.5 147t-108 43.5q-75 0 -113.5 -44.5t-54 -147t-15.5 -301.5q0 -195 15.5 -297.5t53 -147.5t109.5 -45q70 0 108.5 44t55.5 149t17 297zM1067 715q0 -735 -496 -735q-489 0 -489 735q0 170 23.5 298t65.5 211t105.5 134.5t137.5 72.5
t168 21q88 0 158.5 -21t133 -72.5t104 -134t65.5 -211t24 -298.5z" />
    <glyph glyph-name="one.tnum" horiz-adv-x="1155" 
d="M121 0v227h348v944l-348 -213v240l364 234h301v-1205h320v-227h-985z" />
    <glyph glyph-name="two.tnum" horiz-adv-x="1155" 
d="M61 0v217q38 83 96.5 162.5t120 139.5t128 117.5t125 107t105 96.5t74 96.5t27.5 97.5q0 87 -41.5 128.5t-126.5 41.5t-124.5 -44t-55.5 -142l-315 16q53 418 493 418q233 0 359.5 -106.5t126.5 -298.5q0 -83 -27.5 -158t-74 -133.5t-103.5 -110.5t-119 -100t-117.5 -92
t-103 -95.5t-70.5 -101.5h637v-256h-1014z" />
    <glyph glyph-name="three.tnum" horiz-adv-x="1155" 
d="M1083 397q0 -198 -130 -309t-382 -111q-110 0 -198.5 24t-146.5 63t-99 94.5t-61.5 113t-28.5 123.5l321 27q9 -90 61 -141.5t148 -51.5q195 0 195 189q0 182 -252 182h-98v252h92q227 0 227 178q0 83 -44 128.5t-126 45.5t-130 -45.5t-54 -128.5l-316 23
q24 196 161.5 297.5t342.5 101.5q124 0 218.5 -30t151 -83.5t84.5 -121t28 -148.5q0 -129 -75.5 -215.5t-230.5 -116.5v-4q171 -21 256.5 -112.5t85.5 -223.5z" />
    <glyph glyph-name="four.tnum" horiz-adv-x="1155" 
d="M963 0h-301v281h-646v235l592 916h355v-920h188v-231h-188v-281zM285 539l-19 -27h396v600l-19 -29z" />
    <glyph glyph-name="five.tnum" horiz-adv-x="1155" 
d="M1104 479q0 -104 -31 -192t-94 -157.5t-168.5 -109.5t-243.5 -40q-225 0 -351.5 103.5t-158.5 285.5l314 22q35 -164 200 -164q97 0 154 63.5t57 180.5q0 109 -54.5 171.5t-149.5 62.5q-111 0 -172 -89h-308l52 816h870v-228h-588l-22 -340q94 94 258 94q202 0 319 -130
t117 -349z" />
    <glyph glyph-name="six.tnum" horiz-adv-x="1155" 
d="M1083 467q0 -220 -126 -353.5t-359 -133.5q-259 0 -395.5 177t-136.5 525q0 382 136.5 576t399.5 194q182 0 290.5 -80.5t151.5 -259.5l-294 -39q-33 133 -156 133q-103 0 -160 -100.5t-63 -335.5q42 73 125.5 111.5t175.5 38.5q188 0 299.5 -120.5t111.5 -332.5z
M768 459q0 109 -48 170t-140 61q-78 0 -132.5 -51.5t-54.5 -151.5q0 -116 52.5 -190t140.5 -74q86 0 134 62.5t48 173.5z" />
    <glyph glyph-name="seven.tnum" horiz-adv-x="1155" 
d="M1065 1182q-93 -139 -151 -232t-124 -218.5t-102.5 -231t-61 -235.5t-24.5 -265h-328q0 132 28 262.5t69 236t114 233t133.5 217.5t157.5 225h-694v258h983v-250z" />
    <glyph glyph-name="eight.tnum" horiz-adv-x="1155" 
d="M1096 406q0 -196 -129 -311t-387 -115q-260 0 -391.5 115.5t-131.5 307.5q0 144 86.5 236t216.5 113q-121 20 -195.5 112t-74.5 205q0 181 125 282t360 101q244 0 365 -102.5t121 -282.5q0 -120 -73.5 -205.5t-190.5 -109.5q126 -16 212.5 -108.5t86.5 -237.5zM772 428
q0 95 -47 154t-154 59q-97 0 -143.5 -61t-46.5 -156q0 -225 201 -225q190 0 190 229zM739 1053q0 84 -40 133t-124 49q-163 0 -163 -182q0 -195 166 -195q161 0 161 195z" />
    <glyph glyph-name="nine.tnum" horiz-adv-x="1155" 
d="M1083 737q0 -377 -138 -567t-400 -190q-195 0 -304 82t-155 266l295 39q37 -142 168 -142q219 0 225 426q-91 -153 -305 -153q-186 0 -296 127.5t-110 349.5q0 228 133.5 352.5t372.5 124.5q255 0 384.5 -174t129.5 -541zM754 971q0 110 -51 173.5t-142 63.5
q-85 0 -132.5 -63.5t-47.5 -173.5q0 -107 48 -174.5t134 -67.5q80 0 135.5 61t55.5 181z" />
    <glyph glyph-name="G.alt" horiz-adv-x="1667" 
d="M1221 0l-11 217q-38 -101 -153.5 -169t-286.5 -68q-145 0 -261.5 37.5t-195.5 103.5t-131.5 160t-76 202.5t-23.5 235.5q0 226 80 390t248.5 256.5t414.5 92.5q263 0 431.5 -105t228.5 -290l-326 -96q-31 92 -115 153.5t-219 61.5q-196 0 -290.5 -120t-94.5 -341
q0 -102 22.5 -185t68 -146.5t121.5 -98.5t177 -35q165 0 263 79.5t100 188.5h-311v256h637v-780h-297z" />
    <glyph glyph-name="J.alt" horiz-adv-x="1236" 
d="M573 -20q-234 0 -359 111.5t-146 318.5l323 51q24 -203 168 -203q162 0 162 201v979h366v-969q0 -231 -130.5 -360t-383.5 -129z" />
    <glyph glyph-name="A.sc" horiz-adv-x="1146" 
d="M379 268l-76 -268h-293l383 1153h352l392 -1153h-293l-80 268h-385zM612 788l-41 148l-43 -148l-86 -303h258z" />
    <glyph glyph-name="B.sc" horiz-adv-x="1157" 
d="M1065 330q0 -330 -449 -330h-464v1153h436q196 0 303.5 -75.5t107.5 -217.5q0 -198 -200 -248q127 -15 196.5 -89.5t69.5 -192.5zM768 350q0 139 -190 139h-140v-282h148q182 0 182 143zM709 831q0 65 -38.5 93t-125.5 28h-107v-247h111q84 0 122 29t38 97z" />
    <glyph glyph-name="C.sc" horiz-adv-x="1265" 
d="M670 -18q-148 0 -262.5 45.5t-186.5 128t-108.5 191.5t-36.5 241q0 277 147.5 432.5t429.5 155.5q98 0 178.5 -19t137 -51t99 -78t68 -94.5t40.5 -106.5l-252 -65q-21 76 -88 127t-181 51q-147 0 -214.5 -88t-67.5 -266q0 -72 14 -133.5t45.5 -118t91 -89t142.5 -32.5
q210 0 264 205l264 -90q-20 -54 -45.5 -99.5t-69 -93t-97.5 -79.5t-134.5 -53t-177.5 -21z" />
    <glyph glyph-name="D.sc" horiz-adv-x="1275" 
d="M903 582q0 174 -85 260t-232 86h-140v-705h172q126 0 205.5 94.5t79.5 264.5zM1200 582q0 -139 -43 -250.5t-119.5 -183.5t-178 -110t-220.5 -38h-487v1153h438q135 0 245.5 -35t192.5 -103.5t127 -179t45 -253.5z" />
    <glyph glyph-name="E.sc" horiz-adv-x="1116" 
d="M152 0v1153h800v-225h-506v-238h453v-227h-453v-236h517v-227h-811z" />
    <glyph glyph-name="F.sc" horiz-adv-x="1105" 
d="M446 928v-238h472v-227h-472v-463h-294v1153h800v-225h-506z" />
    <glyph glyph-name="G.sc" horiz-adv-x="1380" 
d="M674 -18q-158 0 -275 45.5t-186.5 128t-103 189t-33.5 237.5q0 279 150 436.5t450 157.5q213 0 346.5 -87t181.5 -237l-270 -82q-23 71 -89 120.5t-167 49.5q-157 0 -231 -94t-74 -264q0 -172 78 -273.5t239 -101.5q171 0 277 76v135h-252v209h514v-443
q-101 -94 -247 -148t-308 -54z" />
    <glyph glyph-name="H.sc" horiz-adv-x="1343" 
d="M899 0v467h-440v-467h-305v1153h305v-442h440v442h291v-1153h-291z" />
    <glyph glyph-name="I.sc" horiz-adv-x="598" 
d="M152 0v1153h294v-1153h-294z" />
    <glyph glyph-name="J.sc" horiz-adv-x="1034" 
d="M467 -18q-193 0 -296.5 86.5t-123.5 259.5l277 43q9 -76 45.5 -117t93.5 -41q137 0 137 156v540h-250v242h533v-774q0 -187 -105.5 -291t-310.5 -104z" />
    <glyph glyph-name="K.sc" horiz-adv-x="1228" 
d="M885 0l-336 473l-86 -78v-395h-311v1153h311v-446l379 446h356l-444 -498l485 -655h-354z" />
    <glyph glyph-name="L.sc" horiz-adv-x="1052" 
d="M152 0v1153h294v-926h525v-227h-819z" />
    <glyph glyph-name="M.sc" horiz-adv-x="1536" 
d="M1122 0v653l6 250l-63 -248l-180 -655h-217l-199 647l-70 238l15 -236v-649h-262v1153h393l186 -651l43 -166l37 166l168 651h405v-1153h-262z" />
    <glyph glyph-name="N.sc" horiz-adv-x="1318" 
d="M823 0l-413 795q4 -100 4 -170v-625h-262v1153h333l422 -803q-2 99 -2 185v618h262v-1153h-344z" />
    <glyph glyph-name="O.sc" horiz-adv-x="1325" 
d="M950 582q0 172 -73 264t-211 92q-291 0 -291 -354q0 -169 75.5 -269t213.5 -100q286 0 286 367zM1249 580q0 -276 -150 -437t-437 -161q-143 0 -255.5 45.5t-184 126.5t-109 190t-37.5 238q0 280 159 437t427 157q280 0 433.5 -159.5t153.5 -436.5z" />
    <glyph glyph-name="P.sc" horiz-adv-x="1157" 
d="M1085 774q0 -77 -25.5 -146.5t-76.5 -126.5t-136.5 -90.5t-195.5 -33.5h-205v-377h-294v1153h487q225 0 335.5 -102t110.5 -277zM788 770q0 77 -45 116.5t-133 39.5h-164v-322h170q84 0 128 46t44 120z" />
    <glyph glyph-name="Q.sc" horiz-adv-x="1323" 
d="M1247 580q0 -235 -118 -390.5t-332 -193.5q0 -33 9 -56t21 -35t35.5 -18t41 -7t48.5 -1h197v-209q-30 -6 -236 -6q-87 0 -153 14.5t-119 49t-81 96.5t-28 151v19q-223 34 -339.5 191.5t-116.5 394.5q0 275 151.5 431t431.5 156q279 0 433.5 -157.5t154.5 -429.5zM961 580
q0 171 -78.5 270.5t-223.5 99.5q-149 0 -226 -99t-77 -271q0 -170 79 -273.5t224 -103.5q152 0 227 102t75 275z" />
    <glyph glyph-name="R.sc" horiz-adv-x="1255" 
d="M446 410v-410h-294v1153h499q224 0 337.5 -96t113.5 -271q0 -264 -221 -344l282 -442h-332l-241 410h-144zM799 786q0 140 -176 140h-177v-287h181q172 0 172 147z" />
    <glyph glyph-name="acute.i" horiz-adv-x="702" 
d="M102 1198v2l209 322h289v-2l-299 -322h-199z" />
    <glyph glyph-name="S.sc" horiz-adv-x="1128" 
d="M1057 338q0 -169 -122.5 -261.5t-379.5 -92.5q-236 0 -352.5 81t-151.5 248l271 45q17 -77 67.5 -118t165.5 -41q105 0 161 31.5t56 91.5q0 28 -14.5 50.5t-37 38t-63 30t-77.5 23.5t-95 21q-68 14 -119.5 30.5t-106 44.5t-89.5 64.5t-57.5 91.5t-22.5 124q0 163 125 246
t340 83q218 0 327 -74t136 -229l-277 -35q-30 134 -196 134q-168 0 -168 -111q0 -16 4 -30t8.5 -24.5t16.5 -20.5t20.5 -16.5t29 -14t32.5 -12t40 -11t43 -10t50 -10.5q84 -17 131 -28.5t114 -39.5t102.5 -63t62 -95.5t26.5 -140.5z" />
    <glyph glyph-name="T.sc" horiz-adv-x="1040" 
d="M666 928v-928h-295v928h-340v225h979v-225h-344z" />
    <glyph glyph-name="U.sc" horiz-adv-x="1323" 
d="M651 -16q-238 0 -368.5 110.5t-130.5 345.5v713h294v-692q0 -124 56 -186t162 -62q107 0 158.5 63.5t51.5 192.5v684h297v-702q0 -236 -136 -351.5t-384 -115.5z" />
    <glyph glyph-name="V.sc" horiz-adv-x="1159" 
d="M766 0l-346 -2l-430 1155l315 2l213 -666l78 -245l72 245l192 666l309 -2z" />
    <glyph glyph-name="W.sc" horiz-adv-x="1572" 
d="M1311 0h-328l-145 625l-54 245l-43 -245l-123 -625h-358l-270 1153h280l119 -586l55 -282l62 319l110 549h351l114 -549l60 -319l51 282l106 586h285z" />
    <glyph glyph-name="X.sc" horiz-adv-x="1093" 
d="M799 0l-254 430l-250 -430h-305l372 610l-339 543h305l217 -381l221 381h305l-323 -547l356 -606h-305z" />
    <glyph glyph-name="Y.sc" horiz-adv-x="1052" 
d="M676 469v-469h-297v469l-389 684h303l229 -448l238 448h303z" />
    <glyph glyph-name="Z.sc" horiz-adv-x="1060" 
d="M72 0v205l555 719h-514v229h848v-203l-564 -721h592v-229h-917z" />
    <glyph glyph-name="exclamdown.cap" horiz-adv-x="669" 
d="M201 963h268l37 -654v-309h-342v313zM174 1069v334h320v-334h-320z" />
    <glyph glyph-name="exclam.cap" horiz-adv-x="669" 
d="M469 440h-268l-37 650v313h342v-309zM174 0v334h320v-334h-320z" />
    <glyph glyph-name="questiondown.cap" horiz-adv-x="1095" 
d="M123 348q0 119 47.5 209.5t132.5 175.5q163 163 170 234h295q-4 -104 -51 -187t-152 -190q-71 -73 -90 -102q-33 -51 -33 -115q0 -65 46 -106.5t112 -41.5q81 0 134 47.5t63 151.5l278 -51q-7 -82 -36.5 -154.5t-84.5 -135.5t-147.5 -100.5t-212.5 -37.5
q-209 0 -340 108.5t-131 294.5zM774 1405v-334h-319v334h319z" />
    <glyph glyph-name="question.cap" horiz-adv-x="1095" 
d="M973 1057q0 -119 -47.5 -209.5t-132.5 -175.5q-163 -163 -170 -234h-295q4 105 50.5 188t151.5 189q71 73 90 102q33 51 33 115q0 65 -45.5 106.5t-111.5 41.5q-81 0 -134 -47.5t-63 -151.5l-279 51q7 82 37 154.5t84.5 135.5t147.5 100.5t213 37.5q209 0 340 -108.5
t131 -294.5zM322 0v334h319v-334h-319z" />
    <glyph glyph-name="periodcentered.cap" horiz-adv-x="688" 
d="M184 573v334h320v-334h-320z" />
    <glyph glyph-name="braceleft.sc" horiz-adv-x="897" 
d="M856 0v-213h-219q-149 0 -233.5 81.5t-84.5 221.5v141q0 123 -60.5 175.5t-176.5 52.5v219q117 3 177 55.5t60 175.5v138q0 148 82.5 226.5t227.5 78.5h227v-211h-57q-91 0 -132.5 -52t-41.5 -159v-101q0 -101 -62 -169.5t-153 -86.5v-4q93 -23 154 -90.5t61 -165.5v-110
q0 -103 39 -153t122 -50h70z" />
    <glyph glyph-name="braceright.sc" horiz-adv-x="897" 
d="M41 -213v213h70q83 0 122 50t39 153v110q0 98 61 165.5t154 90.5v4q-91 18 -153 86.5t-62 169.5v101q0 107 -41.5 159t-132.5 52h-57v211h227q145 0 227.5 -78.5t82.5 -226.5v-138q0 -123 60 -175.5t177 -55.5v-219q-116 0 -176.5 -52.5t-60.5 -175.5v-141
q0 -140 -84.5 -221.5t-233.5 -81.5h-219z" />
    <glyph glyph-name="bracketleft.sc" horiz-adv-x="792" 
d="M164 -213v1569h588v-215h-293v-1141h293v-213h-588z" />
    <glyph glyph-name="bracketright.sc" horiz-adv-x="792" 
d="M629 -213h-588v213h293v1141h-293v215h588v-1569z" />
    <glyph glyph-name="parenleft.sc" horiz-adv-x="753" 
d="M418 -211q-150 166 -222.5 365.5t-72.5 447.5q0 408 295 752h311q-151 -178 -220 -377.5t-69 -380.5q0 -451 293 -807h-315z" />
    <glyph glyph-name="parenright.sc" horiz-adv-x="747" 
d="M336 -211h-316q154 210 219.5 406.5t65.5 427.5q0 196 -61.5 360.5t-218.5 370.5h311q140 -158 214.5 -338t74.5 -400q0 -250 -73 -450.5t-216 -376.5z" />
    <glyph glyph-name="slash.sc" horiz-adv-x="712" 
d="M82 -162l276 1450h273l-275 -1450h-274z" />
    <glyph glyph-name="backslash.sc" horiz-adv-x="704" 
d="M623 -162h-267l-274 1450h264z" />
    <glyph glyph-name="bar.sc" horiz-adv-x="690" 
d="M205 -162v1450h280v-1450h-280z" />
    <glyph glyph-name="brokenbar.sc" horiz-adv-x="690" 
d="M205 -164v590h280v-590h-280zM205 727v561h280v-561h-280z" />
    <glyph glyph-name="exclam.sc" horiz-adv-x="669" 
d="M469 383h-268l-37 473v320h342v-316zM174 0v276h320v-276h-320z" />
    <glyph glyph-name="exclamdown.sc" horiz-adv-x="669" 
d="M184 774h269l36 -473v-319h-342v315zM479 1157v-276h-319v276h319z" />
    <glyph glyph-name="question.sc" horiz-adv-x="1009" 
d="M928 899q0 -42 -5.5 -79t-21 -71.5t-26 -56.5t-37 -53t-36 -42t-42 -42.5t-37.5 -36.5q-28 -28 -43.5 -45.5t-29 -42.5t-13.5 -47h-295q-2 63 27 119t102 129l30.5 30.5l29.5 29.5t23 25t22 27.5t15 25.5t13.5 30.5t6 30.5t3.5 38q0 62 -40 95.5t-99 33.5q-68 0 -109 -43
t-44 -120l-302 24q5 82 36 152.5t87 126.5t146 88t205 32q206 0 320 -100t114 -258zM334 0l4 276h319l-4 -276h-319z" />
    <glyph glyph-name="questiondown.sc" horiz-adv-x="1009" 
d="M82 256q0 42 5.5 79t21 71.5t26 56.5t37 53t36 42t42 42.5t37.5 36.5q28 28 43.5 45.5t29 42.5t13.5 47h295q2 -63 -27 -119t-102 -129q-8 -8 -31 -30.5t-29.5 -29.5t-23.5 -25.5t-22 -27l-15 -25.5t-13.5 -30t-6.5 -31t-3 -38q0 -61 40.5 -95t99.5 -34q68 0 109 43.5
t44 120.5l301 -25q-5 -82 -35.5 -152.5t-86.5 -126.5t-146 -88t-205 -32q-206 0 -320 100t-114 258zM676 1155l-4 -276h-320l4 276h320z" />
    <glyph glyph-name="copyleft" horiz-adv-x="1589" 
d="M72 707q0 197 97.5 363.5t263.5 263t362 96.5q197 0 363.5 -96.5t263 -263t96.5 -363.5q0 -196 -97 -362.5t-263.5 -263.5t-362.5 -97q-195 0 -361.5 97t-264 263.5t-97.5 362.5zM184 707q0 -124 48.5 -237t130.5 -195t195 -130.5t237 -48.5q165 0 305 82t221.5 223
t81.5 306t-81.5 305t-221.5 221.5t-305 81.5t-306 -81.5t-223 -221.5t-82 -305zM1006 709q0 130 -53.5 202t-166.5 72q-73 0 -121 -37t-71 -92l-156 41q91 229 353 229q198 0 296.5 -109t98.5 -306q0 -193 -101.5 -308.5t-302.5 -115.5q-76 0 -136 19.5t-101.5 56t-68.5 74
t-50 87.5l160 47q24 -59 73 -101t123 -42q111 0 167.5 77t56.5 206z" />
    <glyph glyph-name="commaaccent" horiz-adv-x="450" 
d="M348 1460q0 -140 -94 -252h-137v2q94 105 94 189h-109v207h246v-146z" />
    <glyph glyph-name="dblgrave" horiz-adv-x="1071" 
d="M563 1198h-143l-318 322v2h236l225 -322v-2zM969 1198h-142l-319 322v2h235l226 -322v-2z" />
    <glyph glyph-name="lslash.alt" horiz-adv-x="706" 
d="M61 471v215l103 72v848h317v-623l115 82v-223l-115 -80v-449q0 -47 21.5 -65.5t72.5 -18.5h70v-237q-114 -4 -172 -4q-154 0 -231.5 70.5t-77.5 217.5v265z" />
    <glyph glyph-name="IJ.alt" horiz-adv-x="1845" 
d="M152 0v1432h327v-1432h-327zM1190 -20q-234 0 -359.5 112t-146.5 318l324 51q24 -203 168 -203q161 0 161 201v979h367v-969q0 -231 -130.5 -360t-383.5 -129z" />
    <glyph glyph-name="acute.cap" horiz-adv-x="751" 
d="M74 1505v2l299 322h329v-2l-380 -322h-248z" />
    <glyph glyph-name="acute.i_cap" horiz-adv-x="702" 
d="M80 1505v2l231 322h338v-2l-348 -322h-221z" />
    <glyph glyph-name="breve.cap" horiz-adv-x="913" 
d="M455 1491q-154 0 -247 91.5t-106 229.5h164q15 -75 68 -120t123 -45q73 0 124 44t66 121h164q-19 -141 -108.5 -231t-247.5 -90z" />
    <glyph glyph-name="caron.cap" horiz-adv-x="942" 
d="M590 1491h-230l-280 344v2h182l211 -195h4l203 195h182v-2z" />
    <glyph glyph-name="cedilla.cap" horiz-adv-x="624" 
d="M522 -233q0 -88 -73 -142.5t-240 -54.5q-49 0 -107 6v127q31 -6 86 -6q138 0 138 65q0 35 -29.5 51.5t-93.5 16.5q-33 0 -51 -2l61 172h156l-31 -78q92 -4 138 -45.5t46 -109.5z" />
    <glyph glyph-name="commaaccent.cap" horiz-adv-x="450" 
d="M348 1690q0 -140 -94 -252h-137v2q94 105 94 188h-109v207h246v-145z" />
    <glyph glyph-name="circumflex.cap" horiz-adv-x="974" 
d="M893 1505h-199l-200 199h-5l-208 -199h-201v2l291 365h239l283 -365v-2z" />
    <glyph glyph-name="dieresis.cap" horiz-adv-x="890" 
d="M102 1518v233h230v-233h-230zM553 1518v233h235v-233h-235z" />
    <glyph glyph-name="dotaccent.cap" horiz-adv-x="434" 
d="M102 1518v233h230v-233h-230z" />
    <glyph glyph-name="grave.cap" horiz-adv-x="747" 
d="M451 1505l-406 322v2h336l293 -322v-2h-223z" />
    <glyph glyph-name="dblgrave.cap" horiz-adv-x="1071" 
d="M993 1505h-166l-366 322v2h282l250 -322v-2zM588 1505h-168l-365 322v2h283l250 -322v-2z" />
    <glyph glyph-name="hungarumlaut.cap" horiz-adv-x="1071" 
d="M78 1505v2l250 322h282v-2l-366 -322h-166zM483 1505v2l250 322h283v-2l-365 -322h-168z" />
    <glyph glyph-name="macron.cap" horiz-adv-x="1179" 
d="M1077 1612h-975v155h975v-155z" />
    <glyph glyph-name="ogonek.cap" horiz-adv-x="593" 
d="M340 -446q-106 0 -172 53t-66 147q0 46 16 88t41.5 72.5t50 51t50.5 34.5h154q-61 -40 -95 -96.5t-34 -112.5q0 -43 25 -68.5t69 -25.5q47 0 113 27v-136q-64 -34 -152 -34z" />
    <glyph glyph-name="ring.cap" horiz-adv-x="712" 
d="M483 1698q0 50 -37 87.5t-90 37.5t-89 -37t-36 -88q0 -54 35.5 -91.5t89.5 -37.5t90.5 37.5t36.5 91.5zM610 1698q0 -107 -74 -180.5t-180 -73.5q-105 0 -179.5 73.5t-74.5 180.5q0 104 75 179t179 75q105 0 179.5 -74.5t74.5 -179.5z" />
    <glyph glyph-name="tilde.cap" horiz-adv-x="1015" 
d="M682 1505q-52 0 -118 31.5t-124 62.5t-90 31q-94 0 -94 -108v-17h-154v23q0 40 5 75.5t21 74t41 66.5t68.5 46t100.5 18q42 0 94 -20t92 -44.5t82 -44.5t68 -20q90 0 90 115v14h149v-14q0 -46 -4.5 -83.5t-19.5 -77.5t-39.5 -67t-67 -44t-100.5 -17z" />
    <glyph glyph-name="braceleft.cap" horiz-adv-x="888" 
d="M846 -201l-209 -8q-318 0 -318 262v258q0 123 -60.5 175.5t-176.5 52.5v219q117 3 177 55.5t60 175.5v303q0 148 82.5 226.5t227.5 78.5l219 -4l-2 -207h-76q-81 0 -118.5 -41t-37.5 -141v-309q0 -95 -48 -157.5t-128 -88.5q84 -26 130 -88t46 -151v-269q0 -72 39 -104.5
t123 -32.5h70v-205z" />
    <glyph glyph-name="braceright.cap" horiz-adv-x="888" 
d="M252 -209l-209 8v205h70q84 0 122.5 32.5t38.5 104.5v269q0 89 45.5 151t129.5 88q-79 26 -127 88.5t-48 157.5v309q0 100 -37 141t-118 41h-76l-2 207l219 4q145 0 227 -78.5t82 -226.5v-303q0 -123 60.5 -175.5t177.5 -55.5v-219q-116 0 -177 -52.5t-61 -175.5v-258
q0 -262 -317 -262z" />
    <glyph glyph-name="bracketleft.cap" horiz-adv-x="792" 
d="M164 -209v1806h588v-211h-293v-1382h293v-213h-588z" />
    <glyph glyph-name="bracketright.cap" horiz-adv-x="792" 
d="M629 1597v-1806h-588v211h293v1382h-293v213h588z" />
    <glyph glyph-name="parenleft.cap" horiz-adv-x="710" 
d="M383 -209q-138 198 -199 413t-61 498q0 232 70.5 467t199.5 435l295 2q-264 -424 -264 -899q0 -259 60.5 -474t205.5 -442h-307z" />
    <glyph glyph-name="parenright.cap" horiz-adv-x="710" 
d="M328 -209h-308q145 227 206 442.5t61 473.5q0 475 -264 899l294 -2q129 -200 200 -435.5t71 -466.5q0 -283 -61 -498t-199 -413z" />
    <glyph glyph-name="guilsinglleft.cap" horiz-adv-x="772" 
d="M369 328l-267 401v4l265 406h301v-2l-256 -408l258 -399v-2h-301z" />
    <glyph glyph-name="guillemotleft.cap" horiz-adv-x="1236" 
d="M834 328l-267 401v4l264 406h302v-2l-256 -408l258 -399v-2h-301zM369 328l-267 401v4l265 406h301v-2l-256 -408l258 -399v-2h-301z" />
    <glyph glyph-name="guillemotright.cap" horiz-adv-x="1236" 
d="M1135 729l-267 -401h-301v2l258 399l-256 408v2h301l265 -406v-4zM670 729l-267 -401h-301v2l258 399l-256 408v2h302l264 -406v-4z" />
    <glyph glyph-name="guilsinglright.cap" horiz-adv-x="772" 
d="M670 729l-267 -401h-301v2l258 399l-256 408v2h302l264 -406v-4z" />
    <glyph glyph-name="hyphen.cap" horiz-adv-x="698" 
d="M80 600v270h534v-270h-534z" />
    <glyph glyph-name="endash.cap" horiz-adv-x="993" 
d="M0 623v223h993v-223h-993z" />
    <glyph glyph-name="emdash.cap" horiz-adv-x="2078" 
d="M0 623v223h2079v-223h-2079z" />
    <glyph glyph-name="bullet.cap" horiz-adv-x="727" 
d="M666 735q0 -124 -89.5 -213.5t-214.5 -89.5q-124 0 -212.5 89t-88.5 214q0 127 88 215t213 88t214.5 -88t89.5 -215z" />
    <glyph glyph-name="acute.sc" horiz-adv-x="751" 
d="M72 1260v2l301 321h332v-2l-383 -321h-250z" />
    <glyph glyph-name="acute_i.sc" horiz-adv-x="702" 
d="M78 1260v2l233 321h338v-2l-348 -321h-223z" />
    <glyph glyph-name="breve.sc" horiz-adv-x="913" 
d="M455 1245q-154 0 -247 92t-106 230h164q15 -76 68 -121t123 -45q73 0 124 44.5t66 121.5h164q-19 -141 -108.5 -231.5t-247.5 -90.5z" />
    <glyph glyph-name="caron.sc" horiz-adv-x="942" 
d="M862 1589l-272 -344h-230l-280 344v2h182l211 -194h4l203 194h182v-2z" />
    <glyph glyph-name="cedilla.sc" horiz-adv-x="624" 
d="M522 -233q0 -88 -73 -142.5t-240 -54.5q-49 0 -107 6v127q31 -6 86 -6q138 0 138 65q0 35 -29.5 51.5t-93.5 16.5q-33 0 -51 -2l61 172h156l-31 -78q92 -4 138 -45.5t46 -109.5z" />
    <glyph glyph-name="commaaccent.sc" horiz-adv-x="450" 
d="M348 1446q0 -140 -94 -252h-137v2q94 105 94 188h-109v207h246v-145z" />
    <glyph glyph-name="circumflex.sc" horiz-adv-x="974" 
d="M893 1262v-2h-199l-200 198h-5l-208 -198h-201v2l291 364h239z" />
    <glyph glyph-name="dieresis.sc" horiz-adv-x="890" 
d="M102 1272v233h230v-233h-230zM553 1272v233h235v-233h-235z" />
    <glyph glyph-name="dotaccent.sc" horiz-adv-x="434" 
d="M102 1272v233h230v-233h-230z" />
    <glyph glyph-name="grave.sc" horiz-adv-x="747" 
d="M451 1260l-406 321v2h336l293 -321v-2h-223z" />
    <glyph glyph-name="dblgrave.sc" horiz-adv-x="1071" 
d="M590 1260h-170l-365 321v2h283l252 -321v-2zM995 1260h-168l-366 321v2h282l252 -321v-2z" />
    <glyph glyph-name="hungarumlaut.sc" horiz-adv-x="1071" 
d="M78 1260v2l250 321h282v-2l-366 -321h-166zM483 1260v2l250 321h283v-2l-365 -321h-168z" />
    <glyph glyph-name="macron.sc" horiz-adv-x="1179" 
d="M1077 1366h-975v156h975v-156z" />
    <glyph glyph-name="ogonek.sc" horiz-adv-x="593" 
d="M340 -446q-106 0 -172 53t-66 147q0 46 16 88t41.5 72.5t50 51t50.5 34.5h154q-61 -40 -95 -96.5t-34 -112.5q0 -43 25 -68.5t69 -25.5q47 0 113 27v-136q-64 -34 -152 -34z" />
    <glyph glyph-name="ring.sc" horiz-adv-x="712" 
d="M483 1452q0 50 -37 87.5t-90 37.5t-89 -37t-36 -88q0 -54 35.5 -91.5t89.5 -37.5t90.5 37.5t36.5 91.5zM610 1452q0 -107 -74 -180.5t-180 -73.5q-105 0 -179.5 73.5t-74.5 180.5q0 104 75 179t179 75q105 0 179.5 -74.5t74.5 -179.5z" />
    <glyph glyph-name="tilde.sc" horiz-adv-x="1015" 
d="M682 1260q-52 0 -118 31t-124 62t-90 31q-94 0 -94 -108v-16h-154v22q0 40 5 75.5t21 74.5t41 67t68.5 46t100.5 18q53 0 120.5 -32.5t126 -64.5t89.5 -32q90 0 90 114v15h149v-15q0 -46 -4.5 -83.5t-19.5 -77.5t-39.5 -66.5t-67 -43.5t-100.5 -17z" />
    <glyph glyph-name="quoteleft.sc" horiz-adv-x="589" 
d="M123 815q0 126 33.5 221.5t99.5 186.5h211v-2q-61 -73 -106.5 -164.5t-45.5 -171.5h140v-283h-332v213z" />
    <glyph glyph-name="quotedblleft.sc" horiz-adv-x="1052" 
d="M586 815q0 126 33.5 221.5t99.5 186.5h211v-2q-61 -73 -106.5 -164.5t-45.5 -171.5h140v-283h-332v213zM123 815q0 126 33.5 221.5t99.5 186.5h211v-2q-61 -73 -106.5 -164.5t-45.5 -171.5h140v-283h-332v213z" />
    <glyph glyph-name="quoteright.sc" horiz-adv-x="589" 
d="M467 874q0 -126 -33.5 -220.5t-99.5 -186.5h-211v2q60 73 105.5 164.5t45.5 171.5h-139v282h332v-213z" />
    <glyph glyph-name="quotedblright.sc" horiz-adv-x="1052" 
d="M930 874q0 -126 -33.5 -220.5t-99.5 -186.5h-211v2q60 73 105.5 164.5t45.5 171.5h-139v282h332v-213zM467 874q0 -126 -33.5 -220.5t-99.5 -186.5h-211v2q60 73 105.5 164.5t45.5 171.5h-139v282h332v-213z" />
    <glyph glyph-name="quotesingle.sc" horiz-adv-x="546" 
d="M395 547h-243l-29 540h301z" />
    <glyph glyph-name="quotedbl.sc" horiz-adv-x="995" 
d="M395 547h-243l-29 540h301zM844 547h-244l-29 540h301z" />
    <glyph glyph-name="AE.sc" horiz-adv-x="1746" 
d="M305 0h-295l553 1155h1020v-227h-506v-238h453v-227h-453v-236h516v-227h-811v268h-354zM670 788l-142 -303h254v451h-45z" />
    <glyph glyph-name="Oslash.sc" horiz-adv-x="1325" 
d="M1249 580q0 -276 -150 -437t-437 -161q-213 0 -359 100l-125 -137h-178l205 229q-129 156 -129 408q0 280 159 437t427 157q211 0 356 -97l125 140h184l-209 -232q131 -152 131 -407zM950 582q0 110 -30 186l-439 -487q69 -66 183 -66q286 0 286 367zM375 584
q0 -107 31 -189l434 488q-67 55 -174 55q-291 0 -291 -354z" />
    <glyph glyph-name="G.alt_sc" horiz-adv-x="1392" 
d="M623 -16q-140 0 -247 45t-171.5 126t-96.5 185.5t-32 230.5q0 283 153.5 441.5t450.5 158.5q206 0 347 -85t187 -238l-280 -86q-26 79 -89.5 125.5t-164.5 46.5q-145 0 -219 -92t-74 -262q0 -171 77.5 -265t227.5 -94q123 0 195.5 59t75.5 136h-240v219h518v-635h-258
l-10 174q-29 -83 -122 -136.5t-228 -53.5z" />
    <glyph glyph-name="J.alt_sc" horiz-adv-x="1083" 
d="M506 -16q-197 0 -301.5 92t-118.5 260l283 45q6 -74 36 -115t80 -41q65 0 94 37t29 113v782h324v-774q0 -189 -107 -294t-319 -105z" />
    <glyph glyph-name="Dcroat.sc" horiz-adv-x="1275" 
d="M1200 582q0 -139 -43 -250.5t-119.5 -183.5t-178 -110t-220.5 -38h-487v481h-207v181h207v491h438q135 0 245.5 -35t192.5 -103.5t127 -179t45 -253.5zM903 582q0 174 -85 260t-232 86h-140v-266h263v-181h-263v-258h172q126 0 205.5 94.5t79.5 264.5z" />
    <glyph glyph-name="Eth.sc" horiz-adv-x="1275" 
d="M1200 582q0 -139 -43 -250.5t-119.5 -183.5t-178 -110t-220.5 -38h-487v481h-207v181h207v491h438q135 0 245.5 -35t192.5 -103.5t127 -179t45 -253.5zM903 582q0 174 -85 260t-232 86h-140v-266h263v-181h-263v-258h172q126 0 205.5 94.5t79.5 264.5z" />
    <glyph glyph-name="Hbar.sc" horiz-adv-x="1339" 
d="M897 0v467h-440v-467h-305v842h-125v180h125v131h305v-131h440v131h291v-131h127v-180h-127v-842h-291zM457 711h440v131h-440v-131z" />
    <glyph glyph-name="IJ.sc" horiz-adv-x="1595" 
d="M152 0v1153h294v-1153h-294zM1026 -18q-193 0 -296.5 86.5t-123.5 259.5l277 43q9 -76 45.5 -117t93.5 -41q137 0 137 156v540h-250v242h533v-774q0 -187 -105.5 -291t-310.5 -104z" />
    <glyph glyph-name="Lslash.sc" horiz-adv-x="1052" 
d="M23 299v219l129 68v567h294v-410l234 125v-209l-234 -129v-303h525v-227h-819v369z" />
    <glyph glyph-name="Eng.sc" horiz-adv-x="1318" 
d="M840 0l-445 825q19 -95 19 -135v-690h-262v1155h333l437 -838q-17 68 -17 125v713h262v-1311q0 -301 -280 -301q-89 0 -191 4v228h113q67 0 82.5 16.5t15.5 93.5v115h-67z" />
    <glyph glyph-name="OE.sc" horiz-adv-x="1916" 
d="M952 0v37q-119 -55 -288 -55q-143 0 -255.5 45.5t-184 126.5t-109 190t-37.5 238q0 280 159 437t427 157q162 0 288 -60v37h801v-225h-506v-238h453v-227h-453v-236h516v-227h-811zM952 582v16q-5 164 -78 252t-206 88q-291 0 -291 -354q0 -169 75.5 -269t213.5 -100
q286 0 286 367z" />
    <glyph glyph-name="Thorn.sc" horiz-adv-x="1157" 
d="M1085 594q0 -77 -25.5 -146.5t-76.5 -126.5t-136.5 -90.5t-195.5 -33.5h-205v-197h-294v1153h294v-180h193q225 0 335.5 -102t110.5 -277zM788 590q0 155 -178 155h-164v-321h170q84 0 128 46t44 120z" />
    <glyph glyph-name="Tbar.sc" horiz-adv-x="1040" 
d="M666 928v-330h249v-180h-249v-418h-295v418h-256v180h256v330h-340v225h979v-225h-344z" />
    <glyph glyph-name="IJ.alt_sc" horiz-adv-x="1595" 
d="M152 0v1153h294v-1153h-294zM1065 -16q-197 0 -301.5 92t-118.5 260l283 45q6 -74 36 -115t80 -41q65 0 94 37t29 113v782h324v-774q0 -189 -107 -294t-319 -105z" />
    <glyph glyph-name="ass_basica" horiz-adv-x="11022" 
d="M6138 541q0 -144 43.5 -251.5t125 -173.5t192 -98t251.5 -32q293 0 453 141t160 430v879h-328v-863q0 -337 -281 -337q-140 0 -214 81.5t-74 245.5v873h-328v-895zM8327 0h330v725q0 64 -10 119t-35 106.5t-65 88t-103.5 58t-145.5 21.5q-124 0 -215.5 -60.5
t-126.5 -185.5q-2 17 -8.5 109t-11.5 117h-309q10 -102 10 -254v-844h319v582q0 134 53.5 212t153.5 78q90 0 127 -56t37 -173v-643zM9472 0q122 0 221 23.5t175 72t117.5 128.5t41.5 186q0 143 -88 235.5t-250 112.5q258 58 258 315q0 180 -135 271.5t-391 91.5h-492v-1436
h543zM9394 1198q120 0 174 -39t54 -129q0 -89 -54.5 -128.5t-173.5 -39.5h-141v336h141zM9433 621q262 0 262 -183q0 -107 -65 -151.5t-191 -44.5h-186v379h180zM4348 1067l795 571v-2207h-2501v1001q199 0 373 23q284 42 485 133q491 219 848 479zM795 1067l-795 571v-2207
h2501v1001q-200 0 -371 23q-289 42 -481 133q-491 215 -854 479zM2642 2003h2501v-188l-883 -635q-390 -280 -821 -463q-214 -98 -441 -125q-222 -19 -356 -19v1430zM2501 2003h-2501v-188l881 -635q407 -287 823 -463q215 -99 442 -125q218 -19 355 -19v1430z" />
    <glyph glyph-name="ass_basica_vertical" horiz-adv-x="6164" 
d="M715 539q0 -144 44 -252t126.5 -174.5t193.5 -99.5t250 -33q300 0 459.5 142.5t159.5 434.5v879h-330v-856q0 -177 -68.5 -257.5t-214.5 -80.5q-291 0 -291 329v865h-329v-897zM2920 0h328v733q0 391 -352 391q-126 0 -220.5 -62t-131.5 -185q0 45 -6.5 119t-12.5 106
h-301q0 -27 2 -111t2 -145v-846h320v584q0 138 54.5 215.5t152.5 77.5q91 0 128 -55.5t37 -178.5v-643zM4071 0q123 0 223 24.5t175 73.5t116 129.5t41 186.5q0 144 -88 235t-254 113q263 68 263 309q0 181 -136.5 273t-390.5 92h-489v-1436h540zM3990 1200q119 0 173 -38.5
t54 -125.5q0 -90 -53.5 -128t-173.5 -38h-144v330h144zM4030 621q265 0 265 -185q0 -106 -65 -150t-187 -44h-197v379h184zM4372 3793l797 575v-2218h-2515v1006q227 0 375 22q270 36 487 134q470 205 856 481zM799 3793l-799 575v-2218h2515v1006q-228 0 -373 22
q-270 36 -487 134q-473 205 -856 481zM2654 4733h2515v-188l-885 -637q-360 -264 -825 -469q-231 -98 -446 -123q-199 -17 -359 -17v1434zM2515 4733h-2515v-188l885 -637q387 -274 825 -469q236 -99 449 -123q195 -17 356 -17v1434z" />
    <glyph glyph-name="ass_completa" horiz-adv-x="31119" 
d="M4350 1065l795 575v-2209h-2505v1001q201 0 375 23q292 42 483 133q456 195 852 477zM795 1065l-795 575v-2209h2503v1001q-202 0 -373 23q-286 41 -483 133q-460 198 -852 477zM2640 2003h2505v-191l-881 -632q-375 -269 -823 -467q-235 -98 -443 -119
q-153 -16 -358 -16v1425zM2503 2003h-2503v-191l881 -632q386 -273 823 -467q235 -98 442 -119q153 -16 357 -16v1425zM23517 6q122 0 221 24t174 72.5t116.5 128t41.5 185.5q0 143 -89 235t-251 109q254 69 254 311q0 179 -134 270t-384 91h-494v-1426h545zM15061 6h309
q-6 29 -6 242v1358h-321v-490q0 -46 3 -111t3 -77h-6q-37 96 -125.5 145t-210.5 49q-207 0 -313.5 -149t-106.5 -414q0 -123 22.5 -224t69 -181.5t125.5 -125t186 -44.5q261 0 353 202h6q0 -24 6 -101t6 -79zM17539 6h311q-10 48 -10 242v1358h-319v-678q-41 96 -127 145
t-207 49q-207 0 -313.5 -149t-106.5 -414q0 -123 22.5 -224t69 -181.5t125.5 -125t186 -44.5q262 0 351 202h6q0 -24 6 -101t6 -79zM20584 6h310q-6 29 -6 242v1358h-322v-490q0 -46 3 -111t3 -77h-6q-37 95 -124.5 144.5t-203.5 49.5q-211 0 -315.5 -148t-104.5 -415
q0 -124 21.5 -224.5t66.5 -181t124 -125t186 -44.5q258 0 350 202h6q0 -24 6 -101t6 -79zM6140 543q0 -144 43 -252t124 -174.5t191.5 -99.5t251.5 -33q293 0 455 142.5t162 432.5v873h-330v-850q0 -175 -71 -257.5t-212 -82.5q-139 0 -212.5 81.5t-73.5 247.5v861h-328
v-889zM26143 207h-76q-45 0 -63.5 20t-18.5 60v432q0 199 -109 301t-339 102q-217 0 -334 -90t-131 -244l292 -22q0 77 41.5 119.5t114.5 42.5q77 0 116.5 -41t39.5 -133v-92h-111q-274 0 -406 -82.5t-132 -268.5q0 -64 22 -121.5t64 -104t112 -74t158 -27.5
q115 0 199.5 50.5t121.5 151.5q0 -97 73 -149.5t192 -52.5q31 0 57.5 1.5t59 4.5t57.5 4v213zM30124 207h-76q-41 0 -58.5 20t-17.5 60v432q0 403 -448 403q-218 0 -334.5 -89.5t-134.5 -244.5l293 -22q0 78 42 120t120 42q75 0 114 -41t39 -133v-92h-110q-277 0 -408 -82
t-131 -269q0 -64 21 -121.5t62.5 -104t110 -74t156.5 -27.5q118 0 201.5 50t120.5 152q4 -97 77 -149.5t187 -52.5q34 0 60 1.5t57.5 4.5t56.5 4v213zM16660 207h-75q-45 0 -63.5 20t-18.5 60v432q0 403 -443 403q-221 0 -340 -90t-133 -244l293 -22q0 77 42 119.5t116 42.5
q77 0 116.5 -41t39.5 -133v-92h-105q-277 0 -409 -82t-132 -269q0 -64 21.5 -121.5t63 -104t110 -74t156.5 -27.5q117 0 201.5 50.5t121.5 151.5q4 -98 74.5 -150t189.5 -52q31 0 57.5 1.5t59 4.5t57.5 4v213zM21111 559q0 -286 137.5 -430.5t398.5 -144.5q97 0 174.5 18.5
t129 49t89 75.5t58 91.5t33.5 103.5l-303 18q-14 -78 -55 -114t-119 -36q-105 0 -153 79.5t-48 197.5v29h696v92q0 534 -502 534q-91 0 -168.5 -17.5t-146.5 -58.5t-117 -104.5t-76 -161t-28 -221.5zM10613 559q0 -286 135 -430.5t391 -144.5q99 0 177 19t129.5 49
t89.5 75.5t58.5 91t35.5 103.5l-304 18q-14 -78 -55 -114t-119 -36q-102 0 -151 80t-49 197v29h690q6 47 6 92q0 534 -502 534q-91 0 -168 -17.5t-145.5 -58.5t-116 -104.5t-75 -160.5t-27.5 -222zM18070 559q0 -286 136 -430.5t392 -144.5q122 0 212 27t143.5 77
t82.5 105.5t45 128.5l-299 18q-26 -150 -172 -150q-56 0 -97 23t-63.5 64t-32.5 88t-10 102v29h691q6 47 6 92q0 534 -500 534q-92 0 -169 -17.5t-146 -58.5t-116.5 -104.5t-75 -160.5t-27.5 -222zM8331 6h328v725q0 64 -10 119t-35 106t-64.5 87t-102.5 57.5t-144 21.5
q-122 0 -216 -62t-135 -186q0 36 -6 122.5t-6 103.5h-309q6 -63 6 -254v-840h322v582q0 135 53.5 210.5t152.5 75.5q91 0 128.5 -54.5t37.5 -174.5v-639zM26696 -16q229 0 349 93.5t120 262.5q0 66 -19.5 117.5t-50.5 86t-83 62t-105 44.5t-127 34q-108 26 -159.5 48.5
t-66 44t-14.5 59.5q0 37 34 61.5t103 24.5t115.5 -35.5t50.5 -98.5l293 23q-18 138 -137.5 224.5t-308.5 86.5q-211 0 -325 -91t-114 -243q0 -139 81 -221.5t282 -128.5q135 -31 182 -59t47 -80q0 -109 -153 -109q-88 0 -132 43t-49 107l-293 -35q8 -52 27.5 -97.5t57.5 -87
t90.5 -71.5t130.5 -47.5t174 -17.5zM13091 -16q230 0 350.5 93t120.5 263q0 66 -19.5 117.5t-50.5 86t-83 62t-105 44.5t-127 34q-108 26 -160 48.5t-67 44t-15 59.5q0 37 34.5 61.5t102.5 24.5q71 0 117.5 -35.5t50.5 -98.5l293 23q-18 138 -137.5 224.5t-310.5 86.5
q-210 0 -323.5 -91t-113.5 -243q0 -139 81 -221.5t282 -128.5q135 -31 182 -59t47 -80q0 -109 -155 -109q-87 0 -130.5 42.5t-52.5 107.5l-288 -35q10 -66 40 -121t84 -101.5t144.5 -72.5t208.5 -26zM10181 6l378 1094h-317l-172 -582l-76 -266l-73 266l-191 582h-315
l391 -1094h375zM27924 6h324v1600h-324v-1600zM11864 6h324v565q0 130 60 205.5t181 75.5q64 0 111 -6v270q-31 6 -70 6q-120 0 -191.5 -62t-94.5 -167q-15 178 -25 207h-305q3 -18 6.5 -111.5t3.5 -146.5v-836zM24289 6h322v565q0 130 60.5 205.5t180.5 75.5q64 0 111 -6
v270q-29 6 -70 6q-120 0 -191.5 -62t-94.5 -167q-2 27 -7 77.5t-8.5 86t-3.5 43.5h-309q10 -42 10 -258v-836zM27357 6h322v1094h-322v-1094zM13752 6h318v1094h-318v-1094zM28518 6h316v1094h-316v-1094zM8931 6h316v1094h-316v-1094zM17527 565q0 -102 -18.5 -175.5
t-51.5 -113t-70.5 -57.5t-82.5 -18q-203 0 -203 358q0 179 51.5 262.5t157.5 83.5q42 0 78 -16t69 -52t51.5 -105.5t18.5 -166.5zM15049 565q0 -82 -13 -146.5t-34.5 -104.5t-50.5 -66t-59 -36.5t-62 -10.5q-107 0 -157 88.5t-50 269.5q0 346 207 346q42 0 78 -16t69 -52
t52.5 -105.5t19.5 -166.5zM20572 565q0 -101 -19 -175.5t-52 -113.5t-69.5 -57t-78.5 -18q-207 0 -207 358q0 346 207 346q42 0 78.5 -16t69.5 -52t52 -105.5t19 -166.5zM23472 621q124 0 194 -41.5t70 -141.5q0 -196 -252 -196h-190v379h178zM23437 1198q116 0 171 -37
t55 -125q0 -90 -54 -131t-172 -41h-143v334h143zM13752 1237h318v299h-318v-299zM8931 1237h316v299h-316v-299zM28518 1237h316v299h-316v-299zM27374 1198h200l301 275v47h-288l-213 -287v-35zM16009 190q-75 0 -115 42.5t-40 107.5q0 85 56.5 123.5t143.5 38.5h140v-82
q0 -110 -50.5 -170t-134.5 -60zM29475 190q-74 0 -113 42.5t-39 107.5q0 85 56.5 123.5t144.5 38.5h139v-82q0 -109 -52.5 -169.5t-135.5 -60.5zM25494 190q-75 0 -116.5 42.5t-41.5 107.5q0 84 57.5 123t143.5 39h139v-82q0 -110 -50 -170t-132 -60zM18407 678
q4 136 53 193t134 57q90 0 136 -56t46 -194h-369zM21453 678q4 136 53.5 193t134.5 57q89 0 134.5 -56t45.5 -194h-368zM10951 678q8 250 188 250q89 0 134.5 -56t45.5 -194h-368z" />
    <glyph glyph-name="ass_basica_CONT" horiz-adv-x="11051" 
d="M5159 2007v-2576h-5159v2576h5159zM5016 -426v1968l-656 -473q-389 -279 -848 -483q-198 -89 -491 -131q-165 -25 -367 -25v-856h2362zM143 -426h2368v856q-215 0 -383 25q-296 43 -481 131q-521 234 -859 483l-645 473v-1968zM143 1864v-150l734 -530q386 -275 825 -461
q230 -104 444 -129q128 -19 365 -19v1289h-2368zM5016 1714v150h-2362v-1289q171 0 350 19q222 25 449 129q453 192 823 461zM9501 4q125 0 224.5 23t174.5 71t115.5 126.5t40.5 183.5q0 144 -89 239.5t-251 118.5q260 55 260 303q0 179 -134.5 271t-385.5 92h-492v-1428
h537zM6162 541q0 -147 43 -255t124.5 -173.5t191 -97t250.5 -31.5q297 0 458.5 140t161.5 429v879h-329v-857q0 -342 -285 -342q-138 0 -214.5 83t-76.5 247v869h-324v-891zM8358 4h326v725q0 393 -355 393q-122 0 -215.5 -63t-134.5 -189q0 96 -16 228h-310
q0 -21 4.5 -105.5t4.5 -150.5v-838h323v578q0 138 53 216.5t148 78.5q93 0 132.5 -57t39.5 -175v-641zM9462 623q264 0 264 -193q0 -102 -67.5 -149.5t-184.5 -47.5h-190v390h178zM9427 1200q116 0 170.5 -37.5t54.5 -126.5t-54 -129.5t-171 -40.5h-143v334h143z" />
    <glyph glyph-name="ass_basica_vertical_CONT" horiz-adv-x="6178" 
d="M5183 4743v-2591h-5183v2591h5183zM145 2296h2376v862q-212 0 -381 27q-261 30 -487 131q-469 202 -858 481l-650 475v-1976zM5038 2296v1976l-655 -475q-424 -297 -852 -481q-233 -102 -494 -131q-166 -27 -368 -27v-862h2369zM145 4598v-152l738 -534
q370 -270 827 -463q236 -105 449 -127q131 -17 362 -17v1293h-2376zM5038 4446v152h-2369v-1293q153 0 352 17q224 22 452 127q443 189 824 463zM4082 0q124 0 224.5 24t176 72.5t117 128t41.5 185.5q0 143 -90 236t-254 116q262 68 262 307q0 181 -138 274t-393 93h-489
v-1436h543zM721 537q0 -144 44 -253t125.5 -176t192 -100t248.5 -33q301 0 462 143t161 437v881h-330v-858q0 -176 -71 -257t-216 -81q-286 0 -286 327v869h-330v-899zM2927 0h335v731q0 81 -17.5 148t-56.5 124t-111 89t-173 32q-127 0 -221 -62.5t-135 -189.5
q0 128 -15 226h-305q0 -23 3 -107t3 -145v-846h320v584q0 137 54.5 212.5t152.5 75.5q92 0 129 -54t37 -175v-643zM4043 616q266 0 266 -184q0 -107 -65.5 -149.5t-188.5 -42.5h-197v376h185zM4000 1200q119 0 173 -38t54 -124q0 -91 -53.5 -130.5t-173.5 -39.5h-142v332
h142z" />
    <glyph glyph-name="ass_completa_CONT" horiz-adv-x="31141" 
d="M5159 2007v-2576h-5159v2576h5159zM5016 -426v1968l-656 -473q-389 -279 -848 -483q-198 -89 -491 -131q-165 -25 -367 -25v-856h2362zM143 -426h2368v856q-215 0 -383 25q-296 43 -481 131q-521 234 -859 483l-645 473v-1968zM143 1864v-150l734 -530q386 -275 825 -461
q230 -104 444 -129q128 -19 365 -19v1289h-2368zM5016 1714v150h-2362v-1289q171 0 350 19q222 25 449 129q453 192 823 461zM23540 6q122 0 221 24t174 72.5t116.5 128t41.5 185.5q0 143 -89 235t-251 109q254 69 254 311q0 179 -134 270t-384 91h-494v-1426h545zM15084 6
h309q-6 29 -6 242v1358h-322v-490q0 -46 3 -111t3 -77h-6q-37 96 -125.5 145t-210.5 49q-207 0 -313.5 -149t-106.5 -414q0 -98 13.5 -182t44.5 -157t77 -125t114.5 -81.5t154.5 -29.5q260 0 352 202h6q0 -24 6.5 -101t6.5 -79zM17562 6h311q-10 48 -10 242v1358h-320v-678
q-41 96 -127 145t-207 49q-207 0 -313 -149t-106 -414q0 -123 22.5 -224t69 -181.5t125.5 -125t186 -44.5q261 0 350 202h6q0 -24 6.5 -101t6.5 -79zM20607 6h309q-6 29 -6 242v1358h-321v-490q0 -46 3 -111t3 -77h-6q-37 95 -124.5 144.5t-203.5 49.5q-211 0 -315.5 -148
t-104.5 -415q0 -98 12.5 -181.5t42.5 -157.5t75 -125.5t113 -81t154 -29.5q259 0 351 202h6q0 -24 6 -101t6 -79zM6162 543q0 -144 43 -252t124.5 -174.5t192 -99.5t251.5 -33q293 0 454.5 142.5t161.5 432.5v873h-330v-850q0 -175 -70.5 -257.5t-211.5 -82.5
q-139 0 -213 81.5t-74 247.5v861h-328v-889zM26165 207h-76q-45 0 -63 19.5t-18 60.5v432q0 199 -109.5 301t-339.5 102q-217 0 -334 -90t-131 -244l293 -22q0 77 41.5 119.5t114.5 42.5q76 0 115.5 -41t39.5 -133v-92h-110q-274 0 -406.5 -82.5t-132.5 -268.5
q0 -64 22 -121.5t64 -104t112 -74t158 -27.5q115 0 200 50.5t122 151.5q0 -97 72.5 -149.5t191.5 -52.5q31 0 57.5 1.5t59 4.5t57.5 4v213zM30147 207h-76q-41 0 -58.5 20t-17.5 60v432q0 403 -449 403q-218 0 -334 -89.5t-134 -244.5l292 -22q0 78 42 120t120 42
q75 0 114.5 -41t39.5 -133v-92h-111q-277 0 -407.5 -82t-130.5 -269q0 -64 21 -121.5t62.5 -104t110 -74t156.5 -27.5q117 0 200.5 50t120.5 152q4 -97 77 -149.5t187 -52.5q34 0 60.5 1.5t58 4.5t56.5 4v213zM16683 207h-76q-45 0 -63.5 20t-18.5 60v432q0 403 -442 403
q-221 0 -340 -90t-133 -244l293 -22q0 77 41.5 119.5t115.5 42.5q77 0 116.5 -41t39.5 -133v-92h-104q-277 0 -409 -82t-132 -269q0 -64 21 -121.5t62.5 -104t110 -74t156.5 -27.5q117 0 202 50.5t122 151.5q4 -98 74.5 -150t189.5 -52q31 0 57.5 1.5t59 4.5t57.5 4v213z
M21133 559q0 -286 138 -430.5t399 -144.5q97 0 174.5 18.5t129 49t89 75.5t57.5 91.5t33 103.5l-303 18q-14 -78 -55 -114t-119 -36q-105 0 -153 79.5t-48 197.5v29h697v92q0 534 -502 534q-115 0 -208.5 -29t-169 -92t-117.5 -175t-42 -267zM10635 559q0 -286 135.5 -430.5
t391.5 -144.5q99 0 177 19t129 49t89 75.5t58.5 91t35.5 103.5l-303 18q-14 -78 -55 -114t-119 -36q-70 0 -117 41.5t-65.5 101.5t-18.5 134v29h690q7 47 7 92q0 534 -502 534q-91 0 -168 -17.5t-145.5 -58.5t-116.5 -104.5t-75.5 -160.5t-27.5 -222zM18092 559
q0 -286 136 -430.5t392 -144.5q99 0 177 18.5t129 49t88.5 76t57 91.5t32.5 103l-299 18q-26 -150 -172 -150q-56 0 -97 23t-63.5 64t-32.5 88t-10 102v29h690q6 47 6 92q0 534 -499 534q-92 0 -169.5 -17.5t-146 -58.5t-116.5 -104.5t-75.5 -160.5t-27.5 -222zM8354 6h327
v725q0 64 -10 119t-35 106t-64.5 87t-102.5 57.5t-144 21.5q-122 0 -215.5 -62t-134.5 -186q0 36 -6 122.5t-6 103.5h-310q7 -74 7 -254v-840h321v582q0 135 54 210.5t153 75.5q91 0 128.5 -54.5t37.5 -174.5v-639zM26718 -16q229 0 349 93.5t120 262.5q0 66 -19.5 117.5
t-50.5 86t-83 62t-105 44.5t-127 34q-108 26 -159 48.5t-65.5 43.5t-14.5 60q0 37 34 61.5t103 24.5t115.5 -35.5t50.5 -98.5l293 23q-18 138 -137.5 224.5t-309.5 86.5q-211 0 -324.5 -91t-113.5 -243q0 -139 81 -221.5t281 -128.5q135 -31 182.5 -59t47.5 -80
q0 -109 -154 -109q-88 0 -131.5 43t-48.5 107l-293 -35q10 -66 40 -121t84.5 -101.5t145 -72.5t209.5 -26zM13113 -16q230 0 350.5 93t120.5 263q0 66 -19.5 117.5t-50.5 86t-83 62t-105 44.5t-127 34q-108 26 -159.5 48.5t-66.5 44t-15 59.5q0 37 34.5 61.5t102.5 24.5
q71 0 117.5 -35.5t50.5 -98.5l293 23q-18 138 -138 224.5t-311 86.5q-210 0 -323 -91t-113 -243q0 -139 81 -221.5t281 -128.5q135 -31 182.5 -59t47.5 -80q0 -109 -156 -109q-87 0 -130 42.5t-52 107.5l-289 -35q10 -66 40 -121t84 -101.5t144.5 -72.5t208.5 -26zM10203 6
l379 1094h-317l-172 -582l-76 -266l-74 266l-190 582h-316l391 -1094h375zM27947 6h324v1600h-324v-1600zM11887 6h323v565q0 130 60 205.5t182 75.5q63 0 110 -6v270q-31 6 -69 6q-120 0 -192 -62.5t-95 -166.5q-16 182 -24 207h-306q3 -19 7 -113t4 -145v-836zM24312 6
h321v565q0 130 61 205.5t181 75.5q64 0 111 -6v270q-29 6 -70 6q-120 0 -192 -62.5t-95 -166.5q-2 25 -7 77.5t-8 87t-3 42.5h-309q10 -42 10 -258v-836zM27380 6h321v1094h-321v-1094zM13775 6h317v1094h-317v-1094zM28541 6h315v1094h-315v-1094zM8954 6h315v1094h-315
v-1094zM17549 565q0 -102 -18.5 -175.5t-51.5 -113t-70.5 -57.5t-82.5 -18q-203 0 -203 358q0 179 51.5 262.5t157.5 83.5q42 0 78 -16t69 -52t51.5 -105.5t18.5 -166.5zM15071 565q0 -82 -13 -146.5t-34.5 -104.5t-50.5 -66t-59 -36.5t-62 -10.5q-107 0 -157 88.5
t-50 269.5q0 346 207 346q42 0 78 -16t69 -52t52.5 -105.5t19.5 -166.5zM20595 565q0 -101 -19 -175.5t-52 -113.5t-69.5 -57t-78.5 -18q-207 0 -207 358q0 346 207 346q42 0 78.5 -16t69.5 -52t52 -105.5t19 -166.5zM23495 621q124 0 194 -41.5t70 -141.5q0 -196 -252 -196
h-191v379h179zM23460 1198q116 0 170.5 -37t54.5 -125q0 -90 -54 -131t-171 -41h-144v334h144zM13775 1237h317v299h-317v-299zM8954 1237h315v299h-315v-299zM28541 1237h315v299h-315v-299zM27396 1198h201l301 275v47h-289l-213 -287v-35zM16032 190q-75 0 -115.5 42.5
t-40.5 107.5q0 84 57 123t144 39h139v-82q0 -110 -50 -170t-134 -60zM29497 190q-74 0 -112.5 42t-38.5 108q0 85 56 123.5t144 38.5h140v-82q0 -109 -53 -169.5t-136 -60.5zM25516 190q-75 0 -116.5 42.5t-41.5 107.5q0 84 57.5 123t143.5 39h139v-82q0 -110 -50 -170
t-132 -60zM18430 678q4 136 52.5 193t133.5 57q91 0 137 -56t46 -194h-369zM21475 678q4 136 54 193t135 57q89 0 134.5 -56t45.5 -194h-369zM10973 678q8 250 189 250q89 0 134.5 -56t45.5 -194h-369z" />
    <glyph glyph-name="gbreve.alt" horiz-adv-x="1224" 
d="M72 748q0 165 125.5 271.5t365.5 106.5q213 0 340 -88l277 60l2 -203l-160 -2q29 -72 29 -152q0 -181 -124 -289t-362 -108h-55q-115 -26 -115 -94q0 -34 24.5 -57t74.5 -23h258q228 0 322.5 -76t94.5 -229q0 -365 -641 -365q-139 0 -236 17t-153.5 51t-81 79.5
t-24.5 108.5q0 72 46.5 125.5t141.5 75.5q-108 56 -108 193q0 86 62.5 142.5t160.5 82.5q-129 42 -196.5 136t-67.5 237zM575 1184q-154 0 -246.5 91.5t-105.5 229.5h164q15 -76 68 -121t123 -45q73 0 124 44.5t66 121.5h164q-19 -141 -109 -231t-248 -90zM367 745
q0 -93 52 -144.5t142 -51.5q95 0 145 49.5t50 146.5q0 96 -52.5 143.5t-144.5 47.5q-89 0 -140.5 -49t-51.5 -142zM684 -80h-244q-24 -6 -34.5 -9.5t-32.5 -12.5t-32.5 -19t-20 -27.5t-9.5 -39.5q0 -136 254 -136q102 0 170 12.5t109 46t41 89.5q0 55 -48 75.5t-153 20.5z
" />
    <glyph glyph-name="gcircumflex.alt" horiz-adv-x="1224" 
d="M72 748q0 165 125.5 271.5t365.5 106.5q213 0 340 -88l277 60l2 -203l-160 -2q29 -72 29 -152q0 -181 -124 -289t-362 -108h-55q-115 -26 -115 -94q0 -34 24.5 -57t74.5 -23h258q228 0 322.5 -76t94.5 -229q0 -365 -641 -365q-139 0 -236 17t-153.5 51t-81 79.5
t-24.5 108.5q0 72 46.5 125.5t141.5 75.5q-108 56 -108 193q0 86 62.5 142.5t160.5 82.5q-129 42 -196.5 136t-67.5 237zM946 1200v-2h-178l-201 199h-4l-209 -199h-178v2l268 365h240zM367 745q0 -93 52 -144.5t142 -51.5q95 0 145 49.5t50 146.5q0 96 -52.5 143.5
t-144.5 47.5q-89 0 -140.5 -49t-51.5 -142zM684 -80h-244q-24 -6 -34.5 -9.5t-32.5 -12.5t-32.5 -19t-20 -27.5t-9.5 -39.5q0 -136 254 -136q102 0 170 12.5t109 46t41 89.5q0 55 -48 75.5t-153 20.5z" />
    <glyph glyph-name="gcommaaccent.alt" horiz-adv-x="1224" 
d="M72 748q0 165 125.5 271.5t365.5 106.5q213 0 340 -88l277 60l2 -203l-160 -2q29 -72 29 -152q0 -181 -124 -289t-362 -108h-55q-115 -26 -115 -94q0 -34 24.5 -57t74.5 -23h258q228 0 322.5 -76t94.5 -229q0 -365 -641 -365q-139 0 -236 17t-153.5 51t-81 79.5
t-24.5 108.5q0 72 46.5 125.5t141.5 75.5q-108 56 -108 193q0 86 62.5 142.5t160.5 82.5q-129 42 -196.5 136t-67.5 237zM367 745q0 -93 52 -144.5t142 -51.5q95 0 145 49.5t50 146.5q0 96 -52.5 143.5t-144.5 47.5q-89 0 -140.5 -49t-51.5 -142zM684 -80h-244
q-24 -6 -34.5 -9.5t-32.5 -12.5t-32.5 -19t-20 -27.5t-9.5 -39.5q0 -136 254 -136q102 0 170 12.5t109 46t41 89.5q0 55 -48 75.5t-153 20.5zM696 1460q0 -140 -94 -252h-137v2q94 105 94 189h-108v207h245v-146z" />
    <glyph glyph-name="gdotaccent.alt" horiz-adv-x="1224" 
d="M72 748q0 165 125.5 271.5t365.5 106.5q213 0 340 -88l277 60l2 -203l-160 -2q29 -72 29 -152q0 -181 -124 -289t-362 -108h-55q-115 -26 -115 -94q0 -34 24.5 -57t74.5 -23h258q228 0 322.5 -76t94.5 -229q0 -365 -641 -365q-139 0 -236 17t-153.5 51t-81 79.5
t-24.5 108.5q0 72 46.5 125.5t141.5 75.5q-108 56 -108 193q0 86 62.5 142.5t160.5 82.5q-129 42 -196.5 136t-67.5 237zM367 745q0 -93 52 -144.5t142 -51.5q95 0 145 49.5t50 146.5q0 96 -52.5 143.5t-144.5 47.5q-89 0 -140.5 -49t-51.5 -142zM684 -80h-244
q-24 -6 -34.5 -9.5t-32.5 -12.5t-32.5 -19t-20 -27.5t-9.5 -39.5q0 -136 254 -136q102 0 170 12.5t109 46t41 89.5q0 55 -48 75.5t-153 20.5zM457 1210v234h229v-234h-229z" />
    <glyph glyph-name="lacute.alt" horiz-adv-x="612" 
d="M440 -12q-154 0 -231.5 70.5t-77.5 217.5v1330h318v-1293q0 -47 21.5 -65.5t72.5 -18.5h69v-237q-114 -4 -172 -4zM160 1642v3l270 321h277v-2l-328 -322h-219z" />
    <glyph glyph-name="lcaron.alt" horiz-adv-x="612" 
d="M440 -12q-154 0 -231.5 70.5t-77.5 217.5v1330h318v-1293q0 -47 21.5 -65.5t72.5 -18.5h69v-237q-114 -4 -172 -4zM930 1460q0 -140 -94 -252h-138v2q95 106 95 189h-109v207h246v-146z" />
    <glyph glyph-name="lcommaaccent.alt" horiz-adv-x="612" 
d="M440 -12q-154 0 -231.5 70.5t-77.5 217.5v1330h318v-1293q0 -47 21.5 -65.5t72.5 -18.5h69v-237q-114 -4 -172 -4zM502 -193q0 -139 -94 -251h-138v2q95 106 95 188h-109v207h246v-146z" />
    <glyph glyph-name="ldot.alt" horiz-adv-x="612" 
d="M440 -12q-154 0 -231.5 70.5t-77.5 217.5v1330h318v-1293q0 -47 21.5 -65.5t72.5 -18.5h69v-237q-114 -4 -172 -4zM684 1210v234h229v-234h-229z" />
    <glyph glyph-name="Aacute.sc" horiz-adv-x="1146" 
d="M303 0l76 268h385l80 -268h293l-392 1153h-352l-383 -1153h293zM414 1260v2l301 321h332v-2l-383 -321h-250zM571 936l41 -148l88 -303h-258l86 303z" />
    <glyph glyph-name="Abreve.sc" horiz-adv-x="1146" 
d="M303 0l76 268h385l80 -268h293l-392 1153h-352l-383 -1153h293zM567 1245q-154 0 -246.5 92t-105.5 230h164q15 -76 67.5 -121t122.5 -45q73 0 124.5 44.5t66.5 121.5h164q-19 -141 -109 -231.5t-248 -90.5zM571 936l41 -148l88 -303h-258l86 303z" />
    <glyph glyph-name="Acircumflex.sc" horiz-adv-x="1146" 
d="M303 0l76 268h385l80 -268h293l-392 1153h-352l-383 -1153h293zM973 1262v-2h-199l-201 198h-4l-209 -198h-200v2l291 364h239zM571 936l41 -148l88 -303h-258l86 303z" />
    <glyph glyph-name="Adieresis.sc" horiz-adv-x="1146" 
d="M303 0l76 268h385l80 -268h293l-392 1153h-352l-383 -1153h293zM571 936l41 -148l88 -303h-258l86 303zM682 1272v233h236v-233h-236zM231 1272v233h230v-233h-230z" />
    <glyph glyph-name="Agrave.sc" horiz-adv-x="1146" 
d="M303 0l76 268h385l80 -268h293l-392 1153h-352l-383 -1153h293zM535 1260l-406 321v2h336l293 -321v-2h-223zM571 936l41 -148l88 -303h-258l86 303z" />
    <glyph glyph-name="Amacron.sc" horiz-adv-x="1146" 
d="M303 0l76 268h385l80 -268h293l-392 1153h-352l-383 -1153h293zM1065 1366h-975v156h975v-156zM571 936l41 -148l88 -303h-258l86 303z" />
    <glyph glyph-name="Aogonek.sc" horiz-adv-x="1146" 
d="M379 268l-76 -268h-293l383 1153h352l392 -1153h-293l-80 268h-385zM1063 -446q-106 0 -172 53t-66 147q0 46 16 88t41.5 72.5t50 51t50.5 34.5h154q-61 -40 -95 -96.5t-34 -112.5q0 -43 25 -68.5t69 -25.5q46 0 112 27v-136q-64 -34 -151 -34zM612 788l-41 148l-43 -148
l-86 -303h258z" />
    <glyph glyph-name="Aring.sc" horiz-adv-x="1146" 
d="M303 0l76 268h385l80 -268h293l-392 1153h-352l-383 -1153h293zM825 1452q0 -107 -74 -180.5t-180 -73.5q-105 0 -179.5 73.5t-74.5 180.5q0 104 75 179t179 75q105 0 179.5 -74.5t74.5 -179.5zM571 936l41 -148l88 -303h-258l86 303zM698 1452q0 50 -37 87.5t-90 37.5
t-89 -37t-36 -88q0 -54 35.5 -91.5t89.5 -37.5t90.5 37.5t36.5 91.5z" />
    <glyph glyph-name="Aringacute.sc" horiz-adv-x="1146" 
d="M303 0l76 268h385l80 -268h293l-392 1153h-352l-383 -1153h293zM825 1452q0 -107 -74 -180.5t-180 -73.5q-105 0 -179.5 73.5t-74.5 180.5q0 104 75 179t179 75q105 0 179.5 -74.5t74.5 -179.5zM434 1722v2l271 322h276v-2l-328 -322h-219zM571 936l41 -148l88 -303h-258
l86 303zM698 1452q0 50 -37 87.5t-90 37.5t-89 -37t-36 -88q0 -54 35.5 -91.5t89.5 -37.5t90.5 37.5t36.5 91.5z" />
    <glyph glyph-name="Atilde.sc" horiz-adv-x="1146" 
d="M303 0l76 268h385l80 -268h293l-392 1153h-352l-383 -1153h293zM727 1260q-52 0 -118 31t-124 62t-90 31q-94 0 -94 -108v-16h-154v22q0 40 5 75.5t21 74.5t41 67t68.5 46t100.5 18q53 0 120.5 -32.5t126 -64.5t89.5 -32q90 0 90 114v15h149v-15q0 -46 -4.5 -83.5
t-19.5 -77.5t-39.5 -66.5t-67 -43.5t-100.5 -17zM571 936l41 -148l88 -303h-258l86 303z" />
    <glyph glyph-name="AEacute.sc" horiz-adv-x="1746" 
d="M305 0h-295l553 1155h1020v-227h-506v-238h453v-227h-453v-236h516v-227h-811v268h-354zM772 1260v2l301 321h332v-2l-383 -321h-250zM670 788l-142 -303h254v451h-45z" />
    <glyph glyph-name="Cacute.sc" horiz-adv-x="1265" 
d="M670 -18q-148 0 -262.5 45.5t-186.5 128t-108.5 191.5t-36.5 241q0 277 147.5 432.5t429.5 155.5q98 0 178.5 -19t137 -51t99 -78t68 -94.5t40.5 -106.5l-252 -65q-21 76 -88 127t-181 51q-147 0 -214.5 -88t-67.5 -266q0 -72 14 -133.5t45.5 -118t91 -89t142.5 -32.5
q210 0 264 205l264 -90q-20 -54 -45.5 -99.5t-69 -93t-97.5 -79.5t-134.5 -53t-177.5 -21zM504 1260v2l301 321h332v-2l-383 -321h-250z" />
    <glyph glyph-name="Ccaron.sc" horiz-adv-x="1265" 
d="M670 -18q-148 0 -262.5 45.5t-186.5 128t-108.5 191.5t-36.5 241q0 277 147.5 432.5t429.5 155.5q98 0 178.5 -19t137 -51t99 -78t68 -94.5t40.5 -106.5l-252 -65q-21 76 -88 127t-181 51q-147 0 -214.5 -88t-67.5 -266q0 -72 14 -133.5t45.5 -118t91 -89t142.5 -32.5
q210 0 264 205l264 -90q-20 -54 -45.5 -99.5t-69 -93t-97.5 -79.5t-134.5 -53t-177.5 -21zM1051 1589l-273 -344h-229l-281 344v2h183l211 -194h4l202 194h183v-2z" />
    <glyph glyph-name="Ccedilla.sc" horiz-adv-x="1265" 
d="M670 -18q-148 0 -262.5 45.5t-186.5 128t-108.5 191.5t-36.5 241q0 277 147.5 432.5t429.5 155.5q98 0 178.5 -19t137 -51t99 -78t68 -94.5t40.5 -106.5l-252 -65q-21 76 -88 127t-181 51q-147 0 -214.5 -88t-67.5 -266q0 -72 14 -133.5t45.5 -118t91 -89t142.5 -32.5
q210 0 264 205l264 -90q-20 -54 -45.5 -99.5t-69 -93t-97.5 -79.5t-134.5 -53t-177.5 -21zM918 -295q0 -88 -73.5 -142.5t-240.5 -54.5q-38 0 -106 7v127q36 -7 86 -7q137 0 137 66q0 35 -29.5 51.5t-93.5 16.5q-33 0 -51 -2l61 172h156l-31 -78q92 -4 138.5 -46t46.5 -110z
" />
    <glyph glyph-name="Ccircumflex.sc" horiz-adv-x="1265" 
d="M670 -18q-148 0 -262.5 45.5t-186.5 128t-108.5 191.5t-36.5 241q0 277 147.5 432.5t429.5 155.5q98 0 178.5 -19t137 -51t99 -78t68 -94.5t40.5 -106.5l-252 -65q-21 76 -88 127t-181 51q-147 0 -214.5 -88t-67.5 -266q0 -72 14 -133.5t45.5 -118t91 -89t142.5 -32.5
q210 0 264 205l264 -90q-20 -54 -45.5 -99.5t-69 -93t-97.5 -79.5t-134.5 -53t-177.5 -21zM1063 1262v-2h-199l-200 198h-5l-208 -198h-201v2l291 364h239z" />
    <glyph glyph-name="Cdotaccent.sc" horiz-adv-x="1265" 
d="M670 -18q-148 0 -262.5 45.5t-186.5 128t-108.5 191.5t-36.5 241q0 277 147.5 432.5t429.5 155.5q98 0 178.5 -19t137 -51t99 -78t68 -94.5t40.5 -106.5l-252 -65q-21 76 -88 127t-181 51q-147 0 -214.5 -88t-67.5 -266q0 -72 14 -133.5t45.5 -118t91 -89t142.5 -32.5
q210 0 264 205l264 -90q-20 -54 -45.5 -99.5t-69 -93t-97.5 -79.5t-134.5 -53t-177.5 -21zM541 1272v233h229v-233h-229z" />
    <glyph glyph-name="Dcaron.sc" horiz-adv-x="1275" 
d="M903 582q0 174 -85 260t-232 86h-140v-705h172q126 0 205.5 94.5t79.5 264.5zM1200 582q0 -139 -43 -250.5t-119.5 -183.5t-178 -110t-220.5 -38h-487v1153h438q135 0 245.5 -35t192.5 -103.5t127 -179t45 -253.5zM961 1589l-273 -344h-229l-281 344v2h182l211 -194h4
l203 194h183v-2z" />
    <glyph glyph-name="Eacute.sc" horiz-adv-x="1116" 
d="M152 0v1153h800v-225h-506v-238h453v-227h-453v-236h517v-227h-811zM383 1260v2l301 321h332v-2l-383 -321h-250z" />
    <glyph glyph-name="Ebreve.sc" horiz-adv-x="1116" 
d="M152 0v1153h800v-225h-506v-238h453v-227h-453v-236h517v-227h-811zM537 1245q-154 0 -247 92t-106 230h164q15 -76 68 -121t123 -45q73 0 124 44.5t66 121.5h164q-19 -141 -108.5 -231.5t-247.5 -90.5z" />
    <glyph glyph-name="Ecaron.sc" horiz-adv-x="1116" 
d="M152 0v1153h800v-225h-506v-238h453v-227h-453v-236h517v-227h-811zM930 1589l-273 -344h-229l-281 344v2h183l211 -194h4l203 194h182v-2z" />
    <glyph glyph-name="Ecircumflex.sc" horiz-adv-x="1116" 
d="M152 0v1153h800v-225h-506v-238h453v-227h-453v-236h517v-227h-811zM942 1262v-2h-199l-200 198h-4l-209 -198h-201v2l291 364h239z" />
    <glyph glyph-name="Edieresis.sc" horiz-adv-x="1116" 
d="M152 0v1153h800v-225h-506v-238h453v-227h-453v-236h517v-227h-811zM201 1272v233h229v-233h-229zM651 1272v233h236v-233h-236z" />
    <glyph glyph-name="Edotaccent.sc" horiz-adv-x="1116" 
d="M152 0v1153h800v-225h-506v-238h453v-227h-453v-236h517v-227h-811zM420 1272v233h229v-233h-229z" />
    <glyph glyph-name="Egrave.sc" horiz-adv-x="1116" 
d="M152 0v1153h800v-225h-506v-238h453v-227h-453v-236h517v-227h-811zM504 1260l-406 321v2h336l293 -321v-2h-223z" />
    <glyph glyph-name="Emacron.sc" horiz-adv-x="1116" 
d="M152 0v1153h800v-225h-506v-238h453v-227h-453v-236h517v-227h-811zM1034 1366h-975v156h975v-156z" />
    <glyph glyph-name="Eogonek.sc" horiz-adv-x="1116" 
d="M152 0v1153h800v-225h-506v-238h453v-227h-453v-236h517v-227q-61 -40 -95 -96.5t-34 -112.5q0 -43 25 -68.5t69 -25.5q46 0 112 27v-136q-64 -34 -151 -34q-106 0 -172 53t-66 147q0 46 16 88t41.5 72.5t50 51t50.5 34.5h-657z" />
    <glyph glyph-name="Gbreve.sc" horiz-adv-x="1380" 
d="M674 -18q-158 0 -275 45.5t-186.5 128t-103 189t-33.5 237.5q0 279 150 436.5t450 157.5q213 0 346.5 -87t181.5 -237l-270 -82q-23 71 -89 120.5t-167 49.5q-157 0 -231 -94t-74 -264q0 -172 78 -273.5t239 -101.5q171 0 277 76v135h-252v209h514v-443
q-101 -94 -247 -148t-308 -54zM662 1245q-154 0 -247 92t-106 230h164q15 -76 68 -121t123 -45q73 0 124 44.5t66 121.5h164q-19 -141 -108.5 -231.5t-247.5 -90.5z" />
    <glyph glyph-name="Gcircumflex.sc" horiz-adv-x="1380" 
d="M674 -18q-158 0 -275 45.5t-186.5 128t-103 189t-33.5 237.5q0 279 150 436.5t450 157.5q213 0 346.5 -87t181.5 -237l-270 -82q-23 71 -89 120.5t-167 49.5q-157 0 -231 -94t-74 -264q0 -172 78 -273.5t239 -101.5q171 0 277 76v135h-252v209h514v-443
q-101 -94 -247 -148t-308 -54zM1067 1262v-2h-199l-200 198h-4l-209 -198h-201v2l291 364h239z" />
    <glyph glyph-name="Gcommaaccent.sc" horiz-adv-x="1380" 
d="M674 -18q-158 0 -275 45.5t-186.5 128t-103 189t-33.5 237.5q0 279 150 436.5t450 157.5q213 0 346.5 -87t181.5 -237l-270 -82q-23 71 -89 120.5t-167 49.5q-157 0 -231 -94t-74 -264q0 -172 78 -273.5t239 -101.5q171 0 277 76v135h-252v209h514v-443
q-101 -94 -247 -148t-308 -54zM803 -190q0 -140 -94 -252h-138v2q95 106 95 188h-109v207h246v-145z" />
    <glyph glyph-name="Gdotaccent.sc" horiz-adv-x="1380" 
d="M674 -18q-158 0 -275 45.5t-186.5 128t-103 189t-33.5 237.5q0 279 150 436.5t450 157.5q213 0 346.5 -87t181.5 -237l-270 -82q-23 71 -89 120.5t-167 49.5q-157 0 -231 -94t-74 -264q0 -172 78 -273.5t239 -101.5q171 0 277 76v135h-252v209h514v-443
q-101 -94 -247 -148t-308 -54zM545 1272v233h229v-233h-229z" />
    <glyph glyph-name="Hcircumflex.sc" horiz-adv-x="1339" 
d="M897 0v467h-440v-467h-305v1153h305v-442h440v442h291v-1153h-291zM1047 1262v-2h-199l-201 198h-4l-209 -198h-201v2l291 364h240z" />
    <glyph glyph-name="Iacute.sc" horiz-adv-x="598" 
d="M152 0v1153h294v-1153h-294zM141 1260v2l234 321h338v-2l-348 -321h-224z" />
    <glyph glyph-name="Ibreve.sc" horiz-adv-x="598" 
d="M152 0v1153h294v-1153h-294zM289 1245q-154 0 -246.5 92t-105.5 230h163q15 -76 68 -121t123 -45q73 0 124 44.5t66 121.5h164q-19 -141 -108.5 -231.5t-247.5 -90.5z" />
    <glyph glyph-name="Icircumflex.sc" horiz-adv-x="598" 
d="M152 0v1153h294v-1153h-294zM694 1262v-2h-198l-201 198h-4l-209 -198h-201v2l291 364h240z" />
    <glyph glyph-name="Idieresis.sc" horiz-adv-x="598" 
d="M152 0v1153h294v-1153h-294zM-47 1272v233h229v-233h-229zM403 1272v233h236v-233h-236z" />
    <glyph glyph-name="Igrave.sc" horiz-adv-x="598" 
d="M152 0v1153h294v-1153h-294zM256 1260l-406 321v2h336l293 -321v-2h-223z" />
    <glyph glyph-name="Imacron.sc" horiz-adv-x="598" 
d="M152 0v1153h294v-1153h-294zM786 1366h-974v156h974v-156z" />
    <glyph glyph-name="Iogonek.sc" horiz-adv-x="598" 
d="M152 0v1153h294v-1153q-61 -40 -95 -96.5t-34 -112.5q0 -43 25.5 -68.5t69.5 -25.5q46 0 112 27v-136q-64 -34 -151 -34q-106 0 -172 53t-66 147q0 46 16 88t41.5 72.5t50 51t50.5 34.5h-141z" />
    <glyph glyph-name="Itilde.sc" horiz-adv-x="598" 
d="M152 0v1153h294v-1153h-294zM449 1260q-52 0 -118 31t-124 62t-90 31q-94 0 -94 -108v-16h-154v22q0 40 5 75.5t20.5 74.5t40.5 67t68.5 46t100.5 18q53 0 120.5 -32.5t126 -64.5t89.5 -32q90 0 90 114v15h150v-15q0 -46 -4.5 -83.5t-19.5 -77.5t-39.5 -66.5t-67 -43.5
t-100.5 -17z" />
    <glyph glyph-name="Jcircumflex.sc" horiz-adv-x="1034" 
d="M467 -18q-193 0 -296.5 86.5t-123.5 259.5l277 43q9 -76 45.5 -117t93.5 -41q137 0 137 156v540h-250v242h533v-774q0 -187 -105.5 -291t-310.5 -104zM897 1262v-2h-199l-200 198h-4l-209 -198h-201v2l291 364h239z" />
    <glyph glyph-name="Kcommaaccent.sc" horiz-adv-x="1228" 
d="M885 0l-336 473l-86 -78v-395h-311v1153h311v-446l379 446h356l-444 -498l485 -655h-354zM688 -190q0 -140 -94 -252h-137v2q94 105 94 188h-109v207h246v-145z" />
    <glyph glyph-name="Lacute.sc" horiz-adv-x="1052" 
d="M152 0v1153h294v-926h525v-227h-819zM379 1260v2l301 321h332v-2l-383 -321h-250z" />
    <glyph glyph-name="Lcaron.sc" horiz-adv-x="1052" 
d="M152 0v1153h294v-926h525v-227h-819zM926 1589l-273 -344h-229l-281 344v2h183l211 -194h4l202 194h183v-2z" />
    <glyph glyph-name="Lcommaaccent.sc" horiz-adv-x="1052" 
d="M152 0v1153h294v-926h525v-227h-819zM672 -190q0 -140 -94 -252h-138v2q95 106 95 188h-109v207h246v-145z" />
    <glyph glyph-name="Ldot.sc" horiz-adv-x="1052" 
d="M152 0v1153h294v-926h525v-227h-819zM602 692v234h229v-234h-229z" />
    <glyph glyph-name="Nacute.sc" horiz-adv-x="1318" 
d="M823 0l-413 795q4 -100 4 -170v-625h-262v1153h333l422 -803q-2 99 -2 185v618h262v-1153h-344zM508 1260v2l301 321h332v-2l-383 -321h-250z" />
    <glyph glyph-name="Ncaron.sc" horiz-adv-x="1318" 
d="M823 0l-413 795q4 -100 4 -170v-625h-262v1153h333l422 -803q-2 99 -2 185v618h262v-1153h-344zM1055 1589l-273 -344h-229l-281 344v2h183l211 -194h4l202 194h183v-2z" />
    <glyph glyph-name="Ncommaaccent.sc" horiz-adv-x="1318" 
d="M823 0l-413 795q4 -100 4 -170v-625h-262v1153h333l422 -803q-2 99 -2 185v618h262v-1153h-344zM780 -190q0 -140 -94 -252h-137v2q94 105 94 188h-108v207h245v-145z" />
    <glyph glyph-name="Ntilde.sc" horiz-adv-x="1318" 
d="M823 0l-413 795q4 -100 4 -170v-625h-262v1153h333l422 -803q-2 99 -2 185v618h262v-1153h-344zM821 1260q-52 0 -118 31t-124 62t-90 31q-94 0 -94 -108v-16h-153v22q0 40 5 75.5t20.5 74.5t40.5 67t68.5 46t100.5 18q53 0 120.5 -32.5t126 -64.5t89.5 -32q90 0 90 114
v15h150v-15q0 -59 -9 -105t-32 -90t-71.5 -68.5t-119.5 -24.5z" />
    <glyph glyph-name="Oacute.sc" horiz-adv-x="1325" 
d="M950 582q0 172 -73 264t-211 92q-291 0 -291 -354q0 -169 75.5 -269t213.5 -100q286 0 286 367zM1249 580q0 -276 -150 -437t-437 -161q-143 0 -255.5 45.5t-184 126.5t-109 190t-37.5 238q0 280 159 437t427 157q280 0 433.5 -159.5t153.5 -436.5zM504 1260v2l301 321
h332v-2l-383 -321h-250z" />
    <glyph glyph-name="Obreve.sc" horiz-adv-x="1325" 
d="M950 582q0 172 -73 264t-211 92q-291 0 -291 -354q0 -169 75.5 -269t213.5 -100q286 0 286 367zM1249 580q0 -276 -150 -437t-437 -161q-143 0 -255.5 45.5t-184 126.5t-109 190t-37.5 238q0 280 159 437t427 157q280 0 433.5 -159.5t153.5 -436.5zM657 1245
q-154 0 -246.5 92t-105.5 230h164q15 -76 67.5 -121t122.5 -45q73 0 124.5 44.5t66.5 121.5h164q-19 -141 -109 -231.5t-248 -90.5z" />
    <glyph glyph-name="Ocircumflex.sc" horiz-adv-x="1325" 
d="M950 582q0 172 -73 264t-211 92q-291 0 -291 -354q0 -169 75.5 -269t213.5 -100q286 0 286 367zM1249 580q0 -276 -150 -437t-437 -161q-143 0 -255.5 45.5t-184 126.5t-109 190t-37.5 238q0 280 159 437t427 157q280 0 433.5 -159.5t153.5 -436.5zM1063 1262v-2h-199
l-200 198h-5l-208 -198h-201v2l291 364h239z" />
    <glyph glyph-name="Odieresis.sc" horiz-adv-x="1325" 
d="M950 582q0 172 -73 264t-211 92q-291 0 -291 -354q0 -169 75.5 -269t213.5 -100q286 0 286 367zM1249 580q0 -276 -150 -437t-437 -161q-143 0 -255.5 45.5t-184 126.5t-109 190t-37.5 238q0 280 159 437t427 157q280 0 433.5 -159.5t153.5 -436.5zM322 1272v233h229
v-233h-229zM772 1272v233h236v-233h-236z" />
    <glyph glyph-name="Ograve.sc" horiz-adv-x="1325" 
d="M950 582q0 172 -73 264t-211 92q-291 0 -291 -354q0 -169 75.5 -269t213.5 -100q286 0 286 367zM1249 580q0 -276 -150 -437t-437 -161q-143 0 -255.5 45.5t-184 126.5t-109 190t-37.5 238q0 280 159 437t427 157q280 0 433.5 -159.5t153.5 -436.5zM625 1260l-406 321v2
h336l293 -321v-2h-223z" />
    <glyph glyph-name="Ohungarumlaut.sc" horiz-adv-x="1325" 
d="M950 582q0 172 -73 264t-211 92q-291 0 -291 -354q0 -169 75.5 -269t213.5 -100q286 0 286 367zM1249 580q0 -276 -150 -437t-437 -161q-143 0 -255.5 45.5t-184 126.5t-109 190t-37.5 238q0 280 159 437t427 157q280 0 433.5 -159.5t153.5 -436.5zM301 1260v2l250 321
h283v-2l-367 -321h-166zM707 1260v2l249 321h283v-2l-365 -321h-167z" />
    <glyph glyph-name="Omacron.sc" horiz-adv-x="1325" 
d="M950 582q0 172 -73 264t-211 92q-291 0 -291 -354q0 -169 75.5 -269t213.5 -100q286 0 286 367zM1249 580q0 -276 -150 -437t-437 -161q-143 0 -255.5 45.5t-184 126.5t-109 190t-37.5 238q0 280 159 437t427 157q280 0 433.5 -159.5t153.5 -436.5zM1155 1366h-975v156
h975v-156z" />
    <glyph glyph-name="Otilde.sc" horiz-adv-x="1325" 
d="M950 582q0 172 -73 264t-211 92q-291 0 -291 -354q0 -169 75.5 -269t213.5 -100q286 0 286 367zM1249 580q0 -276 -150 -437t-437 -161q-143 0 -255.5 45.5t-184 126.5t-109 190t-37.5 238q0 280 159 437t427 157q280 0 433.5 -159.5t153.5 -436.5zM817 1260
q-52 0 -118 31t-124 62t-90 31q-94 0 -94 -108v-16h-153v22q0 40 5 75.5t20.5 74.5t40.5 67t68.5 46t100.5 18q53 0 120.5 -32.5t126 -64.5t89.5 -32q90 0 90 114v15h150v-15q0 -59 -9 -105t-32 -90t-71.5 -68.5t-119.5 -24.5z" />
    <glyph glyph-name="Oslashacute.sc" horiz-adv-x="1325" 
d="M1249 580q0 -276 -150 -437t-437 -161q-213 0 -359 100l-125 -137h-178l205 229q-129 156 -129 408q0 280 159 437t427 157q211 0 356 -97l125 140h184l-209 -232q131 -152 131 -407zM950 582q0 110 -30 186l-439 -487q69 -66 183 -66q286 0 286 367zM375 584
q0 -107 31 -189l434 488q-67 55 -174 55q-291 0 -291 -354zM526 1233v2l301 321h332v-2l-383 -321h-250z" />
    <glyph glyph-name="Racute.sc" horiz-adv-x="1255" 
d="M446 410v-410h-294v1153h499q224 0 337.5 -96t113.5 -271q0 -264 -221 -344l282 -442h-332l-241 410h-144zM403 1260v2l302 321h331v-2l-383 -321h-250zM799 786q0 140 -176 140h-177v-287h181q172 0 172 147z" />
    <glyph glyph-name="Rcaron.sc" horiz-adv-x="1255" 
d="M446 410v-410h-294v1153h499q224 0 337.5 -96t113.5 -271q0 -264 -221 -344l282 -442h-332l-241 410h-144zM950 1589l-272 -344h-229l-281 344v2h182l211 -194h4l203 194h182v-2zM799 786q0 140 -176 140h-177v-287h181q172 0 172 147z" />
    <glyph glyph-name="Rcommaaccent.sc" horiz-adv-x="1255" 
d="M446 410v-410h-294v1153h499q224 0 337.5 -96t113.5 -271q0 -264 -221 -344l282 -442h-332l-241 410h-144zM799 786q0 140 -176 140h-177v-287h181q172 0 172 147zM700 -190q0 -140 -94 -252h-137v2q94 105 94 188h-108v207h245v-145z" />
    <glyph glyph-name="Sacute.sc" horiz-adv-x="1128" 
d="M1057 338q0 -169 -122.5 -261.5t-379.5 -92.5q-236 0 -352.5 81t-151.5 248l271 45q17 -77 67.5 -118t165.5 -41q105 0 161 31.5t56 91.5q0 28 -14.5 50.5t-37 38t-63 30t-77.5 23.5t-95 21q-68 14 -119.5 30.5t-106 44.5t-89.5 64.5t-57.5 91.5t-22.5 124q0 163 125 246
t340 83q218 0 327 -74t136 -229l-277 -35q-30 134 -196 134q-168 0 -168 -111q0 -16 4 -30t8.5 -24.5t16.5 -20.5t20.5 -16.5t29 -14t32.5 -12t40 -11t43 -10t50 -10.5q84 -17 131 -28.5t114 -39.5t102.5 -63t62 -95.5t26.5 -140.5zM373 1260v2l301 321h332v-2l-383 -321
h-250z" />
    <glyph glyph-name="Scaron.sc" horiz-adv-x="1128" 
d="M1057 338q0 -169 -122.5 -261.5t-379.5 -92.5q-236 0 -352.5 81t-151.5 248l271 45q17 -77 67.5 -118t165.5 -41q105 0 161 31.5t56 91.5q0 28 -14.5 50.5t-37 38t-63 30t-77.5 23.5t-95 21q-68 14 -119.5 30.5t-106 44.5t-89.5 64.5t-57.5 91.5t-22.5 124q0 163 125 246
t340 83q218 0 327 -74t136 -229l-277 -35q-30 134 -196 134q-168 0 -168 -111q0 -16 4 -30t8.5 -24.5t16.5 -20.5t20.5 -16.5t29 -14t32.5 -12t40 -11t43 -10t50 -10.5q84 -17 131 -28.5t114 -39.5t102.5 -63t62 -95.5t26.5 -140.5zM920 1589l-273 -344h-229l-281 344v2h182
l211 -194h5l202 194h183v-2z" />
    <glyph glyph-name="Scedilla.sc" horiz-adv-x="1128" 
d="M1057 338q0 -169 -122.5 -261.5t-379.5 -92.5q-236 0 -352.5 81t-151.5 248l271 45q17 -77 67.5 -118t165.5 -41q105 0 161 31.5t56 91.5q0 28 -14.5 50.5t-37 38t-63 30t-77.5 23.5t-95 21q-68 14 -119.5 30.5t-106 44.5t-89.5 64.5t-57.5 91.5t-22.5 124q0 163 125 246
t340 83q218 0 327 -74t136 -229l-277 -35q-30 134 -196 134q-168 0 -168 -111q0 -16 4 -30t8.5 -24.5t16.5 -20.5t20.5 -16.5t29 -14t32.5 -12t40 -11t43 -10t50 -10.5q84 -17 131 -28.5t114 -39.5t102.5 -63t62 -95.5t26.5 -140.5zM764 -295q0 -88 -73 -142.5t-240 -54.5
q-39 0 -107 7v127q36 -7 86 -7q137 0 137 66q0 35 -29.5 51.5t-93.5 16.5q-33 0 -51 -2l62 172h155l-30 -78q92 -4 138 -45.5t46 -110.5z" />
    <glyph glyph-name="Scircumflex.sc" horiz-adv-x="1128" 
d="M1057 338q0 -169 -122.5 -261.5t-379.5 -92.5q-236 0 -352.5 81t-151.5 248l271 45q17 -77 67.5 -118t165.5 -41q105 0 161 31.5t56 91.5q0 28 -14.5 50.5t-37 38t-63 30t-77.5 23.5t-95 21q-68 14 -119.5 30.5t-106 44.5t-89.5 64.5t-57.5 91.5t-22.5 124q0 163 125 246
t340 83q218 0 327 -74t136 -229l-277 -35q-30 134 -196 134q-168 0 -168 -111q0 -16 4 -30t8.5 -24.5t16.5 -20.5t20.5 -16.5t29 -14t32.5 -12t40 -11t43 -10t50 -10.5q84 -17 131 -28.5t114 -39.5t102.5 -63t62 -95.5t26.5 -140.5zM932 1262v-2h-199l-201 198h-4l-209 -198
h-200v2l291 364h239z" />
    <glyph glyph-name="Tcaron.sc" horiz-adv-x="1040" 
d="M666 928v-928h-295v928h-340v225h979v-225h-344zM899 1589l-272 -344h-230l-280 344v2h182l211 -194h4l203 194h182v-2z" />
    <glyph glyph-name="uni021A.sc" horiz-adv-x="1040" 
d="M666 928v-928h-295v928h-340v225h979v-225h-344zM647 -190q0 -140 -94 -252h-137v2q94 105 94 188h-109v207h246v-145z" />
    <glyph glyph-name="Uacute.sc" horiz-adv-x="1323" 
d="M651 -16q-238 0 -368.5 110.5t-130.5 345.5v713h294v-692q0 -124 56 -186t162 -62q107 0 158.5 63.5t51.5 192.5v684h297v-702q0 -236 -136 -351.5t-384 -115.5zM492 1260v2l301 321h331v-2l-383 -321h-249z" />
    <glyph glyph-name="Ubreve.sc" horiz-adv-x="1323" 
d="M651 -16q-238 0 -368.5 110.5t-130.5 345.5v713h294v-692q0 -124 56 -186t162 -62q107 0 158.5 63.5t51.5 192.5v684h297v-702q0 -236 -136 -351.5t-384 -115.5zM645 1245q-154 0 -246.5 92t-105.5 230h164q15 -76 67.5 -121t122.5 -45q73 0 124.5 44.5t66.5 121.5h163
q-19 -141 -108.5 -231.5t-247.5 -90.5z" />
    <glyph glyph-name="Ucircumflex.sc" horiz-adv-x="1323" 
d="M651 -16q-238 0 -368.5 110.5t-130.5 345.5v713h294v-692q0 -124 56 -186t162 -62q107 0 158.5 63.5t51.5 192.5v684h297v-702q0 -236 -136 -351.5t-384 -115.5zM1051 1262v-2h-199l-201 198h-4l-209 -198h-200v2l290 364h240z" />
    <glyph glyph-name="Udieresis.sc" horiz-adv-x="1323" 
d="M651 -16q-238 0 -368.5 110.5t-130.5 345.5v713h294v-692q0 -124 56 -186t162 -62q107 0 158.5 63.5t51.5 192.5v684h297v-702q0 -236 -136 -351.5t-384 -115.5zM309 1272v233h230v-233h-230zM760 1272v233h235v-233h-235z" />
    <glyph glyph-name="Ugrave.sc" horiz-adv-x="1323" 
d="M651 -16q-238 0 -368.5 110.5t-130.5 345.5v713h294v-692q0 -124 56 -186t162 -62q107 0 158.5 63.5t51.5 192.5v684h297v-702q0 -236 -136 -351.5t-384 -115.5zM612 1260l-405 321v2h336l293 -321v-2h-224z" />
    <glyph glyph-name="Uhungarumlaut.sc" horiz-adv-x="1323" 
d="M651 -16q-238 0 -368.5 110.5t-130.5 345.5v713h294v-692q0 -124 56 -186t162 -62q107 0 158.5 63.5t51.5 192.5v684h297v-702q0 -236 -136 -351.5t-384 -115.5zM289 1260v2l250 321h282v-2l-366 -321h-166zM694 1260v2l250 321h283v-2l-365 -321h-168z" />
    <glyph glyph-name="Umacron.sc" horiz-adv-x="1323" 
d="M651 -16q-238 0 -368.5 110.5t-130.5 345.5v713h294v-692q0 -124 56 -186t162 -62q107 0 158.5 63.5t51.5 192.5v684h297v-702q0 -236 -136 -351.5t-384 -115.5zM1143 1366h-975v156h975v-156z" />
    <glyph glyph-name="Uogonek.sc" horiz-adv-x="1323" 
d="M915 -381q-106 0 -171.5 53.5t-65.5 147.5q0 97 61 168q-58 -4 -88 -4q-238 0 -368.5 110.5t-130.5 345.5v713h294v-692q0 -124 56 -186t162 -62q107 0 158.5 63.5t51.5 192.5v684h297v-702q0 -282 -194 -394q-56 -40 -86.5 -94t-30.5 -106q0 -43 25 -69t69 -26
q47 0 113 27v-135q-65 -35 -152 -35z" />
    <glyph glyph-name="Uring.sc" horiz-adv-x="1323" 
d="M651 -16q-238 0 -368.5 110.5t-130.5 345.5v713h294v-692q0 -124 56 -186t162 -62q107 0 158.5 63.5t51.5 192.5v684h297v-702q0 -236 -136 -351.5t-384 -115.5zM776 1452q0 50 -37 87.5t-90 37.5t-89 -37t-36 -88q0 -54 35.5 -91.5t89.5 -37.5t90.5 37.5t36.5 91.5z
M903 1452q0 -107 -74 -180.5t-180 -73.5q-105 0 -179.5 73.5t-74.5 180.5q0 104 75 179t179 75q105 0 179.5 -74.5t74.5 -179.5z" />
    <glyph glyph-name="Utilde.sc" horiz-adv-x="1323" 
d="M651 -16q-238 0 -368.5 110.5t-130.5 345.5v713h294v-692q0 -124 56 -186t162 -62q107 0 158.5 63.5t51.5 192.5v684h297v-702q0 -236 -136 -351.5t-384 -115.5zM805 1260q-52 0 -118 31t-124 62t-90 31q-94 0 -94 -108v-16h-154v22q0 40 5 75.5t21 74.5t41 67t68.5 46
t100.5 18q53 0 120.5 -32.5t126 -64.5t89.5 -32q90 0 90 114v15h149v-15q0 -46 -4.5 -83.5t-19.5 -77.5t-39.5 -66.5t-67 -43.5t-100.5 -17z" />
    <glyph glyph-name="Wacute.sc" horiz-adv-x="1572" 
d="M1311 0h-328l-145 625l-54 245l-43 -245l-123 -625h-358l-270 1153h280l119 -586l55 -282l62 319l110 549h351l114 -549l60 -319l51 282l106 586h285zM627 1260v2l301 321h332v-2l-383 -321h-250z" />
    <glyph glyph-name="Wcircumflex.sc" horiz-adv-x="1572" 
d="M1311 0h-328l-145 625l-54 245l-43 -245l-123 -625h-358l-270 1153h280l119 -586l55 -282l62 319l110 549h351l114 -549l60 -319l51 282l106 586h285zM1186 1262v-2h-199l-201 198h-4l-209 -198h-200v2l291 364h239z" />
    <glyph glyph-name="Wdieresis.sc" horiz-adv-x="1572" 
d="M1311 0h-328l-145 625l-54 245l-43 -245l-123 -625h-358l-270 1153h280l119 -586l55 -282l62 319l110 549h351l114 -549l60 -319l51 282l106 586h285zM444 1272v233h230v-233h-230zM895 1272v233h235v-233h-235z" />
    <glyph glyph-name="Wgrave.sc" horiz-adv-x="1572" 
d="M1311 0h-328l-145 625l-54 245l-43 -245l-123 -625h-358l-270 1153h280l119 -586l55 -282l62 319l110 549h351l114 -549l60 -319l51 282l106 586h285zM748 1260l-406 321v2h336l293 -321v-2h-223z" />
    <glyph glyph-name="Yacute.sc" horiz-adv-x="1052" 
d="M676 469v-469h-297v469l-389 684h303l229 -448l238 448h303zM362 1260v2l302 321h331v-2l-383 -321h-250z" />
    <glyph glyph-name="Ycircumflex.sc" horiz-adv-x="1052" 
d="M676 469v-469h-297v469l-389 684h303l229 -448l238 448h303zM922 1262v-2h-199l-201 198h-4l-209 -198h-200v2l290 364h240z" />
    <glyph glyph-name="Ydieresis.sc" horiz-adv-x="1052" 
d="M676 469v-469h-297v469l-389 684h303l229 -448l238 448h303zM180 1272v233h230v-233h-230zM631 1272v233h235v-233h-235z" />
    <glyph glyph-name="Ygrave.sc" horiz-adv-x="1052" 
d="M676 469v-469h-297v469l-389 684h303l229 -448l238 448h303zM483 1260l-405 321v2h336l293 -321v-2h-224z" />
    <glyph glyph-name="Zacute.sc" horiz-adv-x="1060" 
d="M72 0v205l555 719h-514v229h848v-203l-564 -721h592v-229h-917zM358 1260v2l301 321h332v-2l-383 -321h-250z" />
    <glyph glyph-name="Zcaron.sc" horiz-adv-x="1060" 
d="M72 0v205l555 719h-514v229h848v-203l-564 -721h592v-229h-917zM905 1589l-272 -344h-230l-280 344v2h182l211 -194h4l203 194h182v-2z" />
    <glyph glyph-name="Zdotaccent.sc" horiz-adv-x="1060" 
d="M72 0v205l555 719h-514v229h848v-203l-564 -721h592v-229h-917zM395 1272v233h230v-233h-230z" />
    <glyph glyph-name="Gbreve.alt_sc" horiz-adv-x="1392" 
d="M623 -16q-140 0 -247 45t-171.5 126t-96.5 185.5t-32 230.5q0 283 153.5 441.5t450.5 158.5q206 0 347 -85t187 -238l-280 -86q-26 79 -89.5 125.5t-164.5 46.5q-145 0 -219 -92t-74 -262q0 -171 77.5 -265t227.5 -94q123 0 195.5 59t75.5 136h-240v219h518v-635h-258
l-10 174q-29 -83 -122 -136.5t-228 -53.5zM678 1245q-154 0 -246.5 92t-105.5 230h163q15 -76 68 -121t123 -45q73 0 124 44.5t66 121.5h164q-19 -141 -108.5 -231.5t-247.5 -90.5z" />
    <glyph glyph-name="Gcircumflex.alt_sc" horiz-adv-x="1392" 
d="M623 -16q-140 0 -247 45t-171.5 126t-96.5 185.5t-32 230.5q0 283 153.5 441.5t450.5 158.5q206 0 347 -85t187 -238l-280 -86q-26 79 -89.5 125.5t-164.5 46.5q-145 0 -219 -92t-74 -262q0 -171 77.5 -265t227.5 -94q123 0 195.5 59t75.5 136h-240v219h518v-635h-258
l-10 174q-29 -83 -122 -136.5t-228 -53.5zM1083 1262v-2h-198l-201 198h-4l-209 -198h-201v2l291 364h240z" />
    <glyph glyph-name="Gcommaaccent.alt_sc" horiz-adv-x="1392" 
d="M623 -16q-140 0 -247 45t-171.5 126t-96.5 185.5t-32 230.5q0 283 153.5 441.5t450.5 158.5q206 0 347 -85t187 -238l-280 -86q-26 79 -89.5 125.5t-164.5 46.5q-145 0 -219 -92t-74 -262q0 -171 77.5 -265t227.5 -94q123 0 195.5 59t75.5 136h-240v219h518v-635h-258
l-10 174q-29 -83 -122 -136.5t-228 -53.5zM766 -190q0 -140 -94 -252h-137v2q94 105 94 188h-109v207h246v-145z" />
    <glyph glyph-name="Gdotaccent.alt_sc" horiz-adv-x="1392" 
d="M623 -16q-140 0 -247 45t-171.5 126t-96.5 185.5t-32 230.5q0 283 153.5 441.5t450.5 158.5q206 0 347 -85t187 -238l-280 -86q-26 79 -89.5 125.5t-164.5 46.5q-145 0 -219 -92t-74 -262q0 -171 77.5 -265t227.5 -94q123 0 195.5 59t75.5 136h-240v219h518v-635h-258
l-10 174q-29 -83 -122 -136.5t-228 -53.5zM561 1272v233h230v-233h-230z" />
    <glyph glyph-name="Jcircumflex.alt_sc" horiz-adv-x="1083" 
d="M506 -16q-197 0 -301.5 92t-118.5 260l283 45q6 -74 36 -115t80 -41q65 0 94 37t29 113v782h324v-774q0 -189 -107 -294t-319 -105zM969 1262v-2h-199l-201 198h-4l-209 -198h-200v2l290 364h240z" />
    <glyph glyph-name="Gbreve.alt" horiz-adv-x="1667" 
d="M1221 0l-11 217q-38 -101 -153.5 -169t-286.5 -68q-145 0 -261.5 37.5t-195.5 103.5t-131.5 160t-76 202.5t-23.5 235.5q0 226 80 390t248.5 256.5t414.5 92.5q263 0 431.5 -105t228.5 -290l-326 -96q-31 92 -115 153.5t-219 61.5q-196 0 -290.5 -120t-94.5 -341
q0 -102 22.5 -185t68 -146.5t121.5 -98.5t177 -35q165 0 263 79.5t100 188.5h-311v256h637v-780h-297zM811 1491q-154 0 -246.5 91.5t-105.5 229.5h164q15 -75 67.5 -120t122.5 -45q74 0 125 44.5t66 120.5h163q-19 -141 -108.5 -231t-247.5 -90z" />
    <glyph glyph-name="Gcircumflex.alt" horiz-adv-x="1667" 
d="M1221 0l-11 217q-38 -101 -153.5 -169t-286.5 -68q-145 0 -261.5 37.5t-195.5 103.5t-131.5 160t-76 202.5t-23.5 235.5q0 226 80 390t248.5 256.5t414.5 92.5q263 0 431.5 -105t228.5 -290l-326 -96q-31 92 -115 153.5t-219 61.5q-196 0 -290.5 -120t-94.5 -341
q0 -102 22.5 -185t68 -146.5t121.5 -98.5t177 -35q165 0 263 79.5t100 188.5h-311v256h637v-780h-297zM1217 1505h-199l-201 199h-4l-209 -199h-201v2l291 365h240l283 -365v-2z" />
    <glyph glyph-name="Gcommaaccent.alt" horiz-adv-x="1667" 
d="M1221 0l-11 217q-38 -101 -153.5 -169t-286.5 -68q-145 0 -261.5 37.5t-195.5 103.5t-131.5 160t-76 202.5t-23.5 235.5q0 226 80 390t248.5 256.5t414.5 92.5q263 0 431.5 -105t228.5 -290l-326 -96q-31 92 -115 153.5t-219 61.5q-196 0 -290.5 -120t-94.5 -341
q0 -102 22.5 -185t68 -146.5t121.5 -98.5t177 -35q165 0 263 79.5t100 188.5h-311v256h637v-780h-297zM950 -178q0 -140 -94 -252h-137v2q94 105 94 188h-108v207h245v-145z" />
    <glyph glyph-name="Gdotaccent.alt" horiz-adv-x="1667" 
d="M1221 0l-11 217q-38 -101 -153.5 -169t-286.5 -68q-145 0 -261.5 37.5t-195.5 103.5t-131.5 160t-76 202.5t-23.5 235.5q0 226 80 390t248.5 256.5t414.5 92.5q263 0 431.5 -105t228.5 -290l-326 -96q-31 92 -115 153.5t-219 61.5q-196 0 -290.5 -120t-94.5 -341
q0 -102 22.5 -185t68 -146.5t121.5 -98.5t177 -35q165 0 263 79.5t100 188.5h-311v256h637v-780h-297zM702 1518v233h230v-233h-230z" />
    <glyph glyph-name="Jcircumflex.alt" horiz-adv-x="1236" 
d="M573 -20q-234 0 -359 111.5t-146 318.5l323 51q24 -203 168 -203q162 0 162 201v979h366v-969q0 -231 -130.5 -360t-383.5 -129zM1010 1505h-199l-201 199h-4l-209 -199h-200v2l290 365h240l283 -365v-2z" />
    <glyph glyph-name="Idotaccent.sc" horiz-adv-x="598" 
d="M152 0v1153h294v-1153h-294zM172 1272v233h229v-233h-229z" />
    <glyph glyph-name="Scommaaccent.sc" horiz-adv-x="1128" 
d="M1057 338q0 -169 -122.5 -261.5t-379.5 -92.5q-236 0 -352.5 81t-151.5 248l271 45q17 -77 67.5 -118t165.5 -41q105 0 161 31.5t56 91.5q0 28 -14.5 50.5t-37 38t-63 30t-77.5 23.5t-95 21q-68 14 -119.5 30.5t-106 44.5t-89.5 64.5t-57.5 91.5t-22.5 124q0 163 125 246
t340 83q218 0 327 -74t136 -229l-277 -35q-30 134 -196 134q-168 0 -168 -111q0 -16 4 -30t8.5 -24.5t16.5 -20.5t20.5 -16.5t29 -14t32.5 -12t40 -11t43 -10t50 -10.5q84 -17 131 -28.5t114 -39.5t102.5 -63t62 -95.5t26.5 -140.5zM633 -190q0 -140 -94 -252h-138v2
q95 106 95 188h-109v207h246v-145z" />
    <glyph glyph-name="Tcedilla.sc" horiz-adv-x="1040" 
d="M666 928v-928h-295v928h-340v225h979v-225h-344zM778 -295q0 -88 -73 -142.5t-240 -54.5q-39 0 -107 7v127q36 -7 86 -7q138 0 138 66q0 35 -29.5 51.5t-93.5 16.5q-33 0 -51 -2l61 172h156l-31 -78q92 -4 138 -45.5t46 -110.5z" />
    </font>
</defs>
</svg>
