<svg id="Camada_1" data-name="Camada 1" xmlns="http://www.w3.org/2000/svg" viewBox="0 0 144 144"><defs><style>.cls-1{fill:#df694a;}</style></defs><path class="cls-1" d="M77,57a14.6,14.6,0,0,1,5.3,5.12V40H94.54v62.49H82.78V96.11a17,17,0,0,1-5.9,6A16.61,16.61,0,0,1,68.65,104,17.2,17.2,0,0,1,55,97.41q-5.55-6.55-5.54-16.83,0-11.85,5.45-18.64A17.75,17.75,0,0,1,69.5,55.15,14.93,14.93,0,0,1,77,57Zm3,33a16.92,16.92,0,0,0,2.67-9.89q0-8.49-4.28-12.15a9.26,9.26,0,0,0-6.12-2.2c-3.54,0-6.13,1.33-7.79,4a18.61,18.61,0,0,0-2.48,10q0,6.42,2.52,10.26a8.56,8.56,0,0,0,7.67,3.84A9,9,0,0,0,79.94,90Z"/></svg>