<svg id="Camada_1" data-name="Camada 1" xmlns="http://www.w3.org/2000/svg" viewBox="0 0 144 144"><defs><style>.cls-1{fill:#efbc5e;}</style></defs><path class="cls-1" d="M81,65.23a10.72,10.72,0,0,0-1.75-4.67q-2-2.81-6.34-2.8-6.12,0-8.38,6.07a25,25,0,0,0-1.19,8.55,23,23,0,0,0,1.19,8.17q2.16,5.78,8.17,5.78c2.84,0,4.85-.77,6-2.29a11.37,11.37,0,0,0,2.17-6H93.23a20.34,20.34,0,0,1-4,10.45q-5.69,7.93-16.87,7.93T55.92,89.85q-5.28-6.61-5.27-17.17,0-11.91,5.82-18.53t16.06-6.62q8.72,0,14.26,3.9t6.56,13.8Z"/></svg>