<svg id="Camada_1" data-name="Camada 1" xmlns="http://www.w3.org/2000/svg" viewBox="0 0 144 144"><defs><style>.cls-1{fill:#62a06b;}</style></defs><path class="cls-1" d="M82.85,49.63a18.83,18.83,0,0,1,8,6.85A22.62,22.62,0,0,1,94.54,66a59.88,59.88,0,0,1,.4,9.19H61.23q.29,7,4.84,9.76a12.29,12.29,0,0,0,6.67,1.74A9.38,9.38,0,0,0,82,81.42H94.3q-.48,4.13-4.48,8.37-6.22,6.75-17.41,6.75a25.21,25.21,0,0,1-16.3-5.7Q49,85.16,49.05,72.32q0-12,6.37-18.44T72,47.46A26.39,26.39,0,0,1,82.85,49.63ZM64.75,60.08a12.6,12.6,0,0,0-3.22,7.17H82.38a10.11,10.11,0,0,0-3.23-7.32A10.61,10.61,0,0,0,72,57.44,9.62,9.62,0,0,0,64.75,60.08Z"/></svg>