<svg xmlns="http://www.w3.org/2000/svg" viewBox="0 0 144 144">
  <path d="M82.85 49.63a18.83 18.83 0 018 6.85A22.62 22.62 0 0194.54 66a59.88 59.88 0 01.4 9.19H61.23q.29 7 4.84 9.76a12.29 12.29 0 006.67 1.74A9.38 9.38 0 0082 81.42h12.3q-.48 4.13-4.48 8.37-6.22 6.75-17.41 6.75a25.21 25.21 0 01-16.3-5.7Q49 85.16 49.05 72.32q0-12 6.37-18.44T72 47.46a26.39 26.39 0 0110.85 2.17zm-18.1 10.45a12.6 12.6 0 00-3.22 7.17h20.85a10.11 10.11 0 00-3.23-7.32A10.61 10.61 0 0072 57.44a9.62 9.62 0 00-7.25 2.64z"/>
</svg>