<svg xmlns="http://www.w3.org/2000/svg" viewBox="0 0 144 144">
  <path d="M96.75 49.54a13.51 13.51 0 015.39 4.16 13.34 13.34 0 012.63 5.95 40.09 40.09 0 01.43 6.83l-.09 29.17H92.72V66.18a9.79 9.79 0 00-.85-4.33q-1.62-3.23-6-3.22c-3.34 0-5.64 1.38-6.92 4.16a13.07 13.07 0 00-1 5.3v27.56H65.84V68.09a15.59 15.59 0 00-.84-6q-1.53-3.36-6-3.36-5.17 0-7 3.36a12.92 12.92 0 00-1 5.69v27.87H38.8V49.46h11.76v6.75a19.45 19.45 0 014.25-5.14 14.53 14.53 0 019.12-2.72 14.42 14.42 0 018.58 2.34 13.66 13.66 0 014 5.56 15.38 15.38 0 015.9-6 18.07 18.07 0 018.32-1.91 16.15 16.15 0 016.02 1.2z"/>
</svg>