<svg id="Camada_1" data-name="Camada 1" xmlns="http://www.w3.org/2000/svg" viewBox="0 0 144 144"><defs><style>.cls-1{fill:#2b5e18;}</style></defs><path class="cls-1" d="M96.75,49.54a13.51,13.51,0,0,1,5.39,4.16,13.34,13.34,0,0,1,2.63,5.95,40.09,40.09,0,0,1,.43,6.83l-.09,29.17H92.72V66.18a9.79,9.79,0,0,0-.85-4.33q-1.62-3.23-6-3.22c-3.34,0-5.64,1.38-6.92,4.16a13.07,13.07,0,0,0-1,5.3V95.65H65.84V68.09a15.59,15.59,0,0,0-.84-6q-1.53-3.36-6-3.36-5.17,0-7,3.36a12.92,12.92,0,0,0-1,5.69V95.65H38.8V49.46H50.56v6.75a19.45,19.45,0,0,1,4.25-5.14,14.53,14.53,0,0,1,9.12-2.72,14.42,14.42,0,0,1,8.58,2.34,13.66,13.66,0,0,1,4,5.56,15.38,15.38,0,0,1,5.9-6,18.07,18.07,0,0,1,8.32-1.91A16.15,16.15,0,0,1,96.75,49.54Z"/></svg>