<svg id="Camada_1" data-name="Camada 1" xmlns="http://www.w3.org/2000/svg" viewBox="0 0 144 144"><defs><style>.cls-1{fill:#0e68d8;}</style></defs><path class="cls-1" d="M44.17,57a14.71,14.71,0,0,1,5.31,5.12V40H61.75v62.49H50V96.11a17.09,17.09,0,0,1-5.9,6A16.65,16.65,0,0,1,35.85,104,17.22,17.22,0,0,1,22.2,97.41q-5.53-6.55-5.54-16.83,0-11.85,5.46-18.64A17.75,17.75,0,0,1,36.7,55.15,14.93,14.93,0,0,1,44.17,57Zm3,33a16.92,16.92,0,0,0,2.67-9.89q0-8.49-4.29-12.15a9.21,9.21,0,0,0-6.11-2.2c-3.54,0-6.14,1.33-7.79,4a18.52,18.52,0,0,0-2.49,10q0,6.42,2.53,10.26a8.54,8.54,0,0,0,7.66,3.84A9,9,0,0,0,47.15,90Z"/><path class="cls-1" d="M118.89,56.42a13.42,13.42,0,0,1,5.39,4.16,13.25,13.25,0,0,1,2.63,5.94,41.39,41.39,0,0,1,.43,6.84l-.09,29.16H114.86V73.06a9.76,9.76,0,0,0-.85-4.33q-1.62-3.23-6-3.23c-3.34,0-5.64,1.39-6.92,4.17a13.07,13.07,0,0,0-1,5.3v27.55H88V75a15.36,15.36,0,0,0-.85-6q-1.53-3.36-6-3.36-5.19,0-7,3.36a12.92,12.92,0,0,0-1,5.68v27.85H60.94V56.33H72.7v6.75A19.54,19.54,0,0,1,76.94,58a14.56,14.56,0,0,1,9.13-2.72,14.42,14.42,0,0,1,8.58,2.34,13.6,13.6,0,0,1,4,5.56,15.31,15.31,0,0,1,5.9-6,18,18,0,0,1,8.32-1.91A16.15,16.15,0,0,1,118.89,56.42Z"/></svg>