<svg id="Camada_1" data-name="Camada 1" xmlns="http://www.w3.org/2000/svg" viewBox="0 0 144 144"><defs><style>.cls-1{fill:#53a4df;}</style></defs><path class="cls-1" d="M75.4,39.91a14.51,14.51,0,0,1,7.13,6.7V40h11.8V83.84q0,9-3,13.5-5.19,7.81-19.87,7.82-8.88,0-14.48-3.49a12.86,12.86,0,0,1-6.2-10.4H63.93a5.46,5.46,0,0,0,1.66,3.06c1.3,1.1,3.49,1.66,6.58,1.66q6.54,0,8.75-4.38c1-1.86,1.44-5,1.44-9.42v-3a14.73,14.73,0,0,1-3.74,4.45,15,15,0,0,1-9.38,2.76q-8.91,0-14.24-6.26t-5.33-17q0-10.32,5.13-17.34t14.54-7A15.81,15.81,0,0,1,75.4,39.91Zm4.13,33.17q2.91-3.19,2.91-10.21,0-6.57-2.77-10a9,9,0,0,0-7.42-3.44q-6.33,0-8.75,6a21.41,21.41,0,0,0-1.26,7.85,18,18,0,0,0,1.35,7.18,8.82,8.82,0,0,0,8.79,5.86A9.3,9.3,0,0,0,79.53,73.08Z"/></svg>