<svg id="Camada_1" data-name="Camada 1" xmlns="http://www.w3.org/2000/svg" viewBox="0 0 144 144"><defs><style>.cls-1{fill:#95c6dc;}</style></defs><path class="cls-1" d="M88.8,45.23q5.65,6,5.66,17.58,0,12.22-5.54,18.64a18,18,0,0,1-14.25,6.41,15,15,0,0,1-9.23-2.76,18.26,18.26,0,0,1-3.93-4.46v24.11h-12V40.27H61.13V47.1a19.44,19.44,0,0,1,4.19-4.75A15.4,15.4,0,0,1,75,39.25,18.32,18.32,0,0,1,88.8,45.23Zm-9.29,8.71q-2.46-4.12-8-4.12a9.09,9.09,0,0,0-9.13,6.24,23.39,23.39,0,0,0-1.29,8.4q0,8.07,4.33,11.34a9.93,9.93,0,0,0,6.09,1.91A8.86,8.86,0,0,0,79.3,73.8Q82,69.9,82,63.4A18.08,18.08,0,0,0,79.51,53.94Z"/></svg>