<svg id="Camada_1" data-name="Camada 1" xmlns="http://www.w3.org/2000/svg" viewBox="0 0 144 144"><defs><style>.cls-1{fill:#cc748c;}</style></defs><path class="cls-1" d="M59.89,65.23a10.71,10.71,0,0,0-1.74-4.67c-1.36-1.87-3.48-2.8-6.34-2.8q-6.14,0-8.39,6.07a25.26,25.26,0,0,0-1.19,8.55,23.25,23.25,0,0,0,1.19,8.17q2.17,5.78,8.17,5.78c2.84,0,4.86-.77,6-2.29a11.46,11.46,0,0,0,2.17-6H72.16a20.23,20.23,0,0,1-4,10.45q-5.7,7.93-16.87,7.93T34.85,89.85q-5.26-6.61-5.27-17.17,0-11.91,5.82-18.53t16.07-6.62q8.7,0,14.25,3.9t6.57,13.8Z"/><path class="cls-1" d="M92.37,66.76a19.68,19.68,0,0,0,4.84-1.06q2.61-1.11,2.61-3.44a4.06,4.06,0,0,0-2-3.93,12.65,12.65,0,0,0-5.87-1.08q-4.35,0-6.15,2.12a8.7,8.7,0,0,0-1.72,4.25H72.39a17.72,17.72,0,0,1,3.41-10q4.82-6.12,16.54-6.11a29.49,29.49,0,0,1,13.56,3q5.92,3,5.93,11.38V83.14c0,1.48,0,3.26.08,5.35a6.74,6.74,0,0,0,.73,3.23,4.29,4.29,0,0,0,1.78,1.4V94.9H101.26a13.89,13.89,0,0,1-.77-2.63c-.14-.82-.25-1.75-.34-2.8a25,25,0,0,1-5.8,4.63,17.55,17.55,0,0,1-8.88,2.25A15.31,15.31,0,0,1,75,92.76q-4.12-3.58-4.13-10.17,0-8.53,6.63-12.35,3.64-2.08,10.7-3Zm7.4,5.64a13.45,13.45,0,0,1-2.34,1.17,20.3,20.3,0,0,1-3.25.83l-2.76.51a18.12,18.12,0,0,0-5.56,1.65A5.55,5.55,0,0,0,83,81.7a5.38,5.38,0,0,0,1.75,4.48A6.63,6.63,0,0,0,89,87.56a12.7,12.7,0,0,0,7.3-2.29q3.35-2.3,3.47-8.37Z"/></svg>