<svg id="Camada_1" data-name="Camada 1" xmlns="http://www.w3.org/2000/svg" viewBox="0 0 144 144"><defs><style>.cls-1{fill:#c95676;}</style></defs><path class="cls-1" d="M75.31,73a10.72,10.72,0,0,0-1.75-4.67q-2-2.8-6.34-2.8-6.12,0-8.38,6.07a25,25,0,0,0-1.19,8.55,23,23,0,0,0,1.19,8.17Q61,94.12,67,94.12c2.84,0,4.85-.77,6-2.29a11.37,11.37,0,0,0,2.17-6H87.58a20.34,20.34,0,0,1-4,10.45q-5.68,7.94-16.87,7.93T50.27,97.64Q45,91,45,80.47q0-11.91,5.82-18.53t16.06-6.62q8.72,0,14.26,3.9T87.7,73Z"/><path class="cls-1" d="M99,50.9H86.73V39.74H99ZM86.73,56.42H99v46.27H86.73Z"/></svg>