<svg id="Camada_1" data-name="Camada 1" xmlns="http://www.w3.org/2000/svg" viewBox="0 0 144 144"><defs><style>.cls-1{fill:#8953a5;}</style></defs><path class="cls-1" d="M75.35,72.83a10.83,10.83,0,0,0-1.74-4.67q-2.06-2.8-6.34-2.8-6.13,0-8.39,6.07A25.26,25.26,0,0,0,57.69,80a23.25,23.25,0,0,0,1.19,8.17q2.17,5.77,8.17,5.78c2.84,0,4.85-.77,6-2.3a11.39,11.39,0,0,0,2.17-5.94H87.62a20.26,20.26,0,0,1-4,10.44q-5.7,8-16.88,7.94T50.31,97.45Q45,90.84,45,80.28q0-11.91,5.82-18.53t16.06-6.63q8.72,0,14.26,3.91t6.57,13.8Z"/><path class="cls-1" d="M99,102.5H86.86V39.93H99Z"/></svg>