<svg id="Camada_1" data-name="Camada 1" xmlns="http://www.w3.org/2000/svg" viewBox="0 0 144 144"><defs><style>.cls-1{fill:#489bb5;}</style></defs><path class="cls-1" d="M60.75,72.51a19.23,19.23,0,0,0,4.83-1.06c1.74-.74,2.61-1.88,2.61-3.44a4.05,4.05,0,0,0-2-3.93A12.65,12.65,0,0,0,60.32,63Q56,63,54.16,65.12a8.79,8.79,0,0,0-1.72,4.25H40.77a17.67,17.67,0,0,1,3.41-10Q49,53.29,60.72,53.28a29.49,29.49,0,0,1,13.56,3q5.93,3,5.93,11.38V88.9c0,1.47,0,3.25.08,5.35A6.83,6.83,0,0,0,81,97.47a4.24,4.24,0,0,0,1.79,1.4v1.79H69.64A13.47,13.47,0,0,1,68.87,98c-.14-.82-.25-1.75-.34-2.8a24.94,24.94,0,0,1-5.8,4.63,17.56,17.56,0,0,1-8.89,2.25A15.34,15.34,0,0,1,43.4,98.51q-4.11-3.58-4.12-10.17,0-8.52,6.63-12.35,3.65-2.08,10.69-3Zm7.4,5.65a12.8,12.8,0,0,1-2.35,1.16,18.87,18.87,0,0,1-3.24.83l-2.76.51a18.08,18.08,0,0,0-5.56,1.66,5.51,5.51,0,0,0-2.86,5.13q0,3.1,1.75,4.48a6.62,6.62,0,0,0,4.24,1.38A12.63,12.63,0,0,0,64.68,91c2.23-1.53,3.38-4.32,3.47-8.36Z"/><path class="cls-1" d="M78.78,63.42V54.81h6.45V41.9h12V54.81h7.52v8.61H97.2V87.88c0,1.89.24,3.08.72,3.54s2,.7,4.42.7c.37,0,.76,0,1.17,0s.81,0,1.21-.06v9l-5.73.21q-8.58.3-11.72-3c-1.36-1.39-2-3.52-2-6.41V63.42Z"/></svg>