<svg id="Camada_1" data-name="Camada 1" xmlns="http://www.w3.org/2000/svg" viewBox="0 0 144 144"><defs><style>.cls-1{fill:#33717f;}</style></defs><path class="cls-1" d="M53.27,39.91a14.5,14.5,0,0,1,7.12,6.7V40h11.8V83.84q0,9-3,13.5-5.18,7.81-19.87,7.82-8.88,0-14.48-3.49a12.82,12.82,0,0,1-6.19-10.4H41.8a5.46,5.46,0,0,0,1.65,3.06C44.75,95.43,47,96,50,96q6.54,0,8.75-4.38c1-1.86,1.44-5,1.44-9.42v-3a14.73,14.73,0,0,1-3.74,4.45,15,15,0,0,1-9.38,2.76q-8.91,0-14.24-6.26t-5.33-17q0-10.32,5.13-17.34t14.54-7A15.9,15.9,0,0,1,53.27,39.91Zm4.12,33.17q2.91-3.19,2.92-10.21,0-6.57-2.77-10a9.05,9.05,0,0,0-7.42-3.44,8.74,8.74,0,0,0-8.75,6,21.19,21.19,0,0,0-1.27,7.85,18,18,0,0,0,1.35,7.18,8.82,8.82,0,0,0,8.79,5.86A9.3,9.3,0,0,0,57.39,73.08Z"/><path class="cls-1" d="M110.81,44.91q5.66,6,5.66,17.58,0,12.23-5.54,18.64a17.94,17.94,0,0,1-14.24,6.41,14.93,14.93,0,0,1-9.23-2.76,18.07,18.07,0,0,1-3.94-4.46v24.11h-12V40H83.14v6.83A19.44,19.44,0,0,1,87.33,42,15.43,15.43,0,0,1,97,38.93,18.3,18.3,0,0,1,110.81,44.91Zm-9.29,8.71q-2.46-4.12-8-4.12-6.64,0-9.13,6.24a23.41,23.41,0,0,0-1.29,8.41q0,8.05,4.33,11.33a9.93,9.93,0,0,0,6.09,1.91,8.87,8.87,0,0,0,7.79-3.9c1.78-2.61,2.68-6.07,2.68-10.41A18.08,18.08,0,0,0,101.52,53.62Z"/></svg>