<svg xmlns="http://www.w3.org/2000/svg" viewBox="0 0 144 144">
  <path d="M53.27 39.91a14.5 14.5 0 017.12 6.7V40h11.8v43.84q0 9-3 13.5-5.18 7.81-19.87 7.82-8.88 0-14.48-3.49a12.82 12.82 0 01-6.19-10.4H41.8a5.46 5.46 0 001.65 3.06C44.75 95.43 47 96 50 96q6.54 0 8.75-4.38c1-1.86 1.44-5 1.44-9.42v-3a14.73 14.73 0 01-3.74 4.45 15 15 0 01-9.38 2.76q-8.91 0-14.24-6.26t-5.33-17q0-10.32 5.13-17.34t14.54-7a15.9 15.9 0 016.1 1.1zm4.12 33.17q2.91-3.19 2.92-10.21 0-6.57-2.77-10a9.05 9.05 0 00-7.42-3.44 8.74 8.74 0 00-8.75 6 21.19 21.19 0 00-1.27 7.85 18 18 0 001.35 7.18 8.82 8.82 0 008.79 5.86 9.3 9.3 0 007.15-3.24z"/>
  <path d="M110.81 44.91q5.66 6 5.66 17.58 0 12.23-5.54 18.64a17.94 17.94 0 01-14.24 6.41 14.93 14.93 0 01-9.23-2.76 18.07 18.07 0 01-3.94-4.46v24.11h-12V40h11.62v6.83A19.44 19.44 0 0187.33 42 15.43 15.43 0 0197 38.93a18.3 18.3 0 0113.81 5.98zm-9.29 8.71q-2.46-4.12-8-4.12-6.64 0-9.13 6.24a23.41 23.41 0 00-1.29 8.41q0 8.05 4.33 11.33a9.93 9.93 0 006.09 1.91 8.87 8.87 0 007.79-3.9c1.78-2.61 2.68-6.07 2.68-10.41a18.08 18.08 0 00-2.47-9.46z"/>
</svg>