<svg id="Camada_1" data-name="Camada 1" xmlns="http://www.w3.org/2000/svg" viewBox="0 0 144 144"><defs><style>.cls-1{fill:#a52131;}</style></defs><path class="cls-1" d="M67.75,45.28q5.67,6,5.66,17.57,0,12.23-5.53,18.64A18,18,0,0,1,53.63,87.9a15,15,0,0,1-9.23-2.76,17.85,17.85,0,0,1-3.93-4.46V104.8h-12V40.31H40.09v6.83a19.42,19.42,0,0,1,4.18-4.75,15.45,15.45,0,0,1,9.66-3.1A18.3,18.3,0,0,1,67.75,45.28ZM58.47,54q-2.47-4.12-8-4.12a9.11,9.11,0,0,0-9.14,6.24,23.43,23.43,0,0,0-1.28,8.41q0,8.05,4.32,11.33a9.91,9.91,0,0,0,6.09,1.91,8.86,8.86,0,0,0,7.79-3.9q2.69-3.91,2.68-10.4A18.09,18.09,0,0,0,58.47,54Z"/><path class="cls-1" d="M103.11,56.91a10.72,10.72,0,0,0-1.75-4.67q-2-2.81-6.34-2.8-6.13,0-8.38,6.07a25,25,0,0,0-1.2,8.55,23,23,0,0,0,1.2,8.17Q88.8,78,94.81,78c2.83,0,4.85-.77,6-2.3A11.3,11.3,0,0,0,103,69.77h12.35a20.17,20.17,0,0,1-4,10.44q-5.7,8-16.87,7.94T78.06,81.53q-5.27-6.61-5.27-17.17,0-11.91,5.82-18.53T94.68,39.2q8.71,0,14.26,3.91t6.56,13.8Z"/></svg>