<svg xmlns="http://www.w3.org/2000/svg" viewBox="0 0 144 144">
  <path d="M60.77 41.31a18.83 18.83 0 018 6.85 22.57 22.57 0 013.69 9.56 59.88 59.88 0 01.4 9.19H39.15q.29 7 4.84 9.76a12.29 12.29 0 006.67 1.74 9.38 9.38 0 009.21-5.31h12.36q-.49 4.13-4.49 8.37-6.22 6.75-17.41 6.75A25.21 25.21 0 0134 82.52Q27 76.84 27 64q0-12 6.37-18.44t16.55-6.42a26.23 26.23 0 0110.85 2.17zm-18.1 10.45a12.57 12.57 0 00-3.22 7.16H60.3c-.23-3.21-1.3-5.64-3.23-7.31a10.61 10.61 0 00-7.17-2.49 9.62 9.62 0 00-7.23 2.64z"/>
  <path d="M111.37 45.34q5.66 6 5.66 17.58 0 12.22-5.53 18.63A17.94 17.94 0 0197.25 88 14.93 14.93 0 0188 85.2a17.79 17.79 0 01-3.93-4.45v24.11h-12V40.37H83.7v6.84a19.5 19.5 0 014.19-4.76 15.51 15.51 0 019.66-3.1 18.31 18.31 0 0113.82 5.99zM102.08 54q-2.46-4.11-8-4.12-6.64 0-9.13 6.24a23.41 23.41 0 00-1.29 8.41q0 8.07 4.33 11.34a10 10 0 006.09 1.91 8.88 8.88 0 007.79-3.91q2.67-3.9 2.68-10.4a18 18 0 00-2.47-9.47z" />
</svg>