<svg xmlns="http://www.w3.org/2000/svg" viewBox="0 0 144 144">
  <path fill="currentColor" d="M71.71 66.82a19.23 19.23 0 004.83-1.06c1.74-.74 2.61-1.88 2.61-3.44a4.06 4.06 0 00-2-3.93 12.65 12.65 0 00-5.87-1.08q-4.35 0-6.16 2.12a8.84 8.84 0 00-1.72 4.25H51.73a17.67 17.67 0 013.41-10Q60 47.6 71.68 47.59a29.49 29.49 0 0113.56 3q5.92 3 5.93 11.38v21.24c0 1.47 0 3.25.08 5.35a6.83 6.83 0 00.75 3.22 4.24 4.24 0 001.79 1.4V95H80.6a13.39 13.39 0 01-.77-2.63c-.14-.83-.25-1.76-.34-2.81a24.94 24.94 0 01-5.8 4.63 17.56 17.56 0 01-8.89 2.25 15.34 15.34 0 01-10.44-3.59q-4.11-3.58-4.12-10.16 0-8.53 6.63-12.36c2.43-1.38 6-2.38 10.69-3zm7.4 5.65a12.8 12.8 0 01-2.35 1.16 18.87 18.87 0 01-3.24.83l-2.76.54a18.08 18.08 0 00-5.56 1.66 5.51 5.51 0 00-2.86 5.13q0 3.1 1.75 4.48a6.62 6.62 0 004.24 1.38 12.63 12.63 0 007.31-2.29C77.87 83.8 79 81 79.11 77z"/>
</svg>