<svg xmlns="http://www.w3.org/2000/svg" viewBox="0 0 144 144">
  <path d="M58.88 56.91a10.72 10.72 0 00-1.75-4.67q-2-2.81-6.34-2.8-6.12 0-8.38 6.07a25 25 0 00-1.19 8.55 23 23 0 001.19 8.17Q44.59 78 50.58 78q4.26 0 6-2.3a11.3 11.3 0 002.17-5.94h12.4a20.27 20.27 0 01-4 10.44q-5.69 8-16.87 7.94t-16.44-6.61q-5.28-6.61-5.27-17.17 0-11.91 5.82-18.53t16.06-6.63q8.71 0 14.26 3.91t6.56 13.8z"/>
  <path d="M109.77 45.28q5.67 6 5.66 17.57 0 12.23-5.53 18.64a18 18 0 01-14.25 6.41 15 15 0 01-9.23-2.76 17.85 17.85 0 01-3.93-4.46v24.12h-12V40.31h11.62v6.83a19.24 19.24 0 014.19-4.75 15.4 15.4 0 019.7-3.1 18.3 18.3 0 0113.77 5.99zM100.49 54q-2.47-4.12-8-4.12a9.11 9.11 0 00-9.14 6.24 23.43 23.43 0 00-1.28 8.41q0 8.05 4.32 11.33a9.92 9.92 0 006.1 1.91 8.86 8.86 0 007.78-3.9Q103 69.94 103 63.45a18.09 18.09 0 00-2.51-9.45z"/>
</svg>