<svg xmlns="http://www.w3.org/2000/svg" viewBox="0 0 144 144">
  <path d="M59.89 65.23a10.71 10.71 0 00-1.74-4.67c-1.36-1.87-3.48-2.8-6.34-2.8q-6.14 0-8.39 6.07a25.26 25.26 0 00-1.19 8.55 23.25 23.25 0 001.19 8.17q2.17 5.78 8.17 5.78c2.84 0 4.86-.77 6-2.29a11.46 11.46 0 002.17-6h12.4a20.23 20.23 0 01-4 10.45q-5.7 7.93-16.87 7.93t-16.44-6.57q-5.26-6.61-5.27-17.17 0-11.91 5.82-18.53t16.07-6.62q8.7 0 14.25 3.9t6.57 13.8z"/>
  <path d="M92.37 66.76a19.68 19.68 0 004.84-1.06q2.61-1.11 2.61-3.44a4.06 4.06 0 00-2-3.93 12.65 12.65 0 00-5.87-1.08q-4.35 0-6.15 2.12a8.7 8.7 0 00-1.72 4.25H72.39a17.72 17.72 0 013.41-10q4.82-6.12 16.54-6.11a29.49 29.49 0 0113.56 3q5.92 3 5.93 11.38v21.25c0 1.48 0 3.26.08 5.35a6.74 6.74 0 00.73 3.23 4.29 4.29 0 001.78 1.4v1.78h-13.16a13.89 13.89 0 01-.77-2.63c-.14-.82-.25-1.75-.34-2.8a25 25 0 01-5.8 4.63 17.55 17.55 0 01-8.88 2.25A15.31 15.31 0 0175 92.76q-4.12-3.58-4.13-10.17 0-8.53 6.63-12.35 3.64-2.08 10.7-3zm7.4 5.64a13.45 13.45 0 01-2.34 1.17 20.3 20.3 0 01-3.25.83l-2.76.51a18.12 18.12 0 00-5.56 1.65A5.55 5.55 0 0083 81.7a5.38 5.38 0 001.75 4.48A6.63 6.63 0 0089 87.56a12.7 12.7 0 007.3-2.29q3.35-2.3 3.47-8.37z"/>
</svg>