<svg xmlns="http://www.w3.org/2000/svg" viewBox="0 0 144 144">
  <path d="M67.75 45.28q5.67 6 5.66 17.57 0 12.23-5.53 18.64a18 18 0 01-14.25 6.41 15 15 0 01-9.23-2.76 17.85 17.85 0 01-3.93-4.46v24.12h-12V40.31h11.62v6.83a19.42 19.42 0 014.18-4.75 15.45 15.45 0 019.66-3.1 18.3 18.3 0 0113.82 5.99zM58.47 54q-2.47-4.12-8-4.12a9.11 9.11 0 00-9.14 6.24 23.43 23.43 0 00-1.28 8.41q0 8.05 4.32 11.33a9.91 9.91 0 006.09 1.91 8.86 8.86 0 007.79-3.9q2.69-3.91 2.68-10.4A18.09 18.09 0 0058.47 54z"/>
  <path d="M103.11 56.91a10.72 10.72 0 00-1.75-4.67q-2-2.81-6.34-2.8-6.13 0-8.38 6.07a25 25 0 00-1.2 8.55 23 23 0 001.2 8.17Q88.8 78 94.81 78c2.83 0 4.85-.77 6-2.3a11.3 11.3 0 002.19-5.93h12.35a20.17 20.17 0 01-4 10.44q-5.7 8-16.87 7.94t-16.42-6.62q-5.27-6.61-5.27-17.17 0-11.91 5.82-18.53t16.07-6.63q8.71 0 14.26 3.91t6.56 13.8z"/>
</svg>