<svg xmlns="http://www.w3.org/2000/svg" viewBox="0 0 144 144">
  <path d="M61.94 49.63a18.8 18.8 0 018 6.85A22.62 22.62 0 0173.62 66a58.62 58.62 0 01.4 9.19h-33.7q.27 7 4.84 9.76a12.27 12.27 0 006.67 1.74A9.38 9.38 0 0061 81.42h12.39q-.49 4.13-4.49 8.37-6.21 6.75-17.41 6.75a25.23 25.23 0 01-16.3-5.7q-7-5.69-7.06-18.52 0-12 6.38-18.44t16.55-6.42a26.45 26.45 0 0110.88 2.17zm-18.1 10.45a12.61 12.61 0 00-3.23 7.17h20.85a10.14 10.14 0 00-3.22-7.32 10.64 10.64 0 00-7.18-2.49 9.59 9.59 0 00-7.22 2.64z"/>
  <path d="M103.47 65.29a10.88 10.88 0 00-1.74-4.67c-1.37-1.87-3.48-2.8-6.35-2.8q-6.12 0-8.38 6.07a25.36 25.36 0 00-1.19 8.56A23.29 23.29 0 0087 80.62q2.18 5.77 8.17 5.77 4.26 0 6-2.29a11.37 11.37 0 002.18-5.94h12.35a20.18 20.18 0 01-4 10.44q-5.68 7.94-16.87 7.94t-16.4-6.62q-5.27-6.63-5.27-17.18 0-11.91 5.82-18.53T95 47.59q8.71 0 14.26 3.91t6.57 13.79z"/>
</svg>