<svg xmlns="http://www.w3.org/2000/svg" viewBox="0 0 144 144">
  <path d="M62.51 49.63a18.83 18.83 0 018 6.85A22.75 22.75 0 0174.2 66a59.88 59.88 0 01.4 9.19H40.89q.28 7 4.84 9.76a12.29 12.29 0 006.67 1.74 9.38 9.38 0 009.21-5.31H74q-.48 4.13-4.48 8.37-6.23 6.75-17.41 6.75a25.21 25.21 0 01-16.3-5.7q-7.07-5.69-7.06-18.52 0-12 6.37-18.44t16.55-6.42a26.39 26.39 0 0110.84 2.21zm-18.1 10.45a12.6 12.6 0 00-3.22 7.17H62c-.22-3.22-1.29-5.65-3.22-7.32a10.61 10.61 0 00-7.17-2.49 9.62 9.62 0 00-7.2 2.64z"/>
  <path d="M93.25 66.82a19.23 19.23 0 004.83-1.06c1.74-.74 2.61-1.88 2.61-3.44a4.08 4.08 0 00-2-3.93 12.72 12.72 0 00-5.88-1.08q-4.35 0-6.15 2.12a8.74 8.74 0 00-1.72 4.25H73.26a17.74 17.74 0 013.41-10q4.81-6.11 16.55-6.11a29.54 29.54 0 0113.56 3q5.93 3 5.92 11.38v21.26c0 1.47 0 3.25.09 5.35a6.59 6.59 0 00.72 3.22 4.21 4.21 0 001.78 1.4V95h-13.16a13.32 13.32 0 01-.76-2.63 27.77 27.77 0 01-.34-2.81 25 25 0 01-5.81 4.63 17.55 17.55 0 01-8.88 2.25 15.31 15.31 0 01-10.44-3.62q-4.12-3.58-4.12-10.16 0-8.53 6.63-12.36c2.42-1.38 6-2.38 10.69-3zm7.39 5.65a12.72 12.72 0 01-2.34 1.16 19 19 0 01-3.25.83L92.3 75a18.07 18.07 0 00-5.57 1.66 5.52 5.52 0 00-2.85 5.13q0 3.1 1.74 4.48a6.65 6.65 0 004.25 1.38 12.6 12.6 0 007.3-2.29q3.35-2.3 3.47-8.36z"/>
</svg>