<svg xmlns="http://www.w3.org/2000/svg" viewBox="0 0 144 144">
  <path d="M44.17 57a14.71 14.71 0 015.31 5.12V40h12.27v62.49H50v-6.38a17.09 17.09 0 01-5.9 6 16.65 16.65 0 01-8.25 1.89 17.22 17.22 0 01-13.65-6.59q-5.53-6.55-5.54-16.83 0-11.85 5.46-18.64a17.75 17.75 0 0114.58-6.79A14.93 14.93 0 0144.17 57zm3 33a16.92 16.92 0 002.67-9.89q0-8.49-4.29-12.15a9.21 9.21 0 00-6.11-2.2c-3.54 0-6.14 1.33-7.79 4a18.52 18.52 0 00-2.49 10q0 6.42 2.53 10.26a8.54 8.54 0 007.66 3.84 9 9 0 007.8-3.86z"/>
  <path d="M118.89 56.42a13.42 13.42 0 015.39 4.16 13.25 13.25 0 012.63 5.94 41.39 41.39 0 01.43 6.84l-.09 29.16h-12.39V73.06a9.76 9.76 0 00-.85-4.33q-1.62-3.23-6-3.23c-3.34 0-5.64 1.39-6.92 4.17a13.07 13.07 0 00-1 5.3v27.55H88V75a15.36 15.36 0 00-.85-6q-1.53-3.36-6-3.36-5.19 0-7 3.36a12.92 12.92 0 00-1 5.68v27.85H60.94v-46.2H72.7v6.75A19.54 19.54 0 0176.94 58a14.56 14.56 0 019.13-2.72 14.42 14.42 0 018.58 2.34 13.6 13.6 0 014 5.56 15.31 15.31 0 015.9-6 18 18 0 018.32-1.91 16.15 16.15 0 016.02 1.15z"/>
</svg>